<svg width="179" height="145" viewBox="0 0 179 145" fill="none" xmlns="http://www.w3.org/2000/svg">
<path d="M175.8 53.8932C170.66 20.7707 154.662 -4.95342 116.689 6.07096C87.437 14.5634 68.7256 54.0726 89.4889 80.0265C94.4637 86.245 105.553 85.2891 111.889 81.8043C121.912 76.2915 124.3 66.5962 121.4 55.8488C116.132 36.3252 94.5076 16.8156 73.2222 22.9599C39.9122 32.5751 23.357 66.341 19.9778 98.7821C19.3047 105.244 22.4114 153.806 29.4 127.404C30.6683 122.613 33.9004 108.124 32.3333 112.827C29.735 120.623 28.6 125.112 28.6 133.538C28.6 135.21 29.8227 143.952 26.1111 140.915C18.5116 134.698 10.4687 129.095 3 122.693" stroke="#1C1C1C" stroke-width="5" stroke-linecap="round"/>
</svg>
