<svg width="411" height="500" viewBox="0 0 411 500" fill="none" xmlns="http://www.w3.org/2000/svg">
<g clip-path="url(#clip0_362_0)">
<path opacity="0.4" d="M245.871 412.19L158.061 361.63C157.559 361.338 157.144 360.916 156.86 360.409C156.576 359.902 156.433 359.328 156.446 358.747C156.459 358.166 156.628 357.599 156.935 357.105C157.242 356.611 157.676 356.209 158.191 355.94L169.241 350.25C169.723 350.002 170.258 349.879 170.8 349.891C171.341 349.904 171.871 350.051 172.341 350.32L263.101 402.58C263.606 402.87 264.024 403.291 264.31 403.799C264.596 404.306 264.74 404.881 264.727 405.464C264.713 406.046 264.543 406.614 264.234 407.108C263.925 407.602 263.489 408.003 262.971 408.27L254.971 412.4C253.558 413.131 251.984 413.495 250.394 413.459C248.804 413.422 247.248 412.986 245.871 412.19Z" fill="#D6D8E5"/>
<path d="M251.25 402.67L176.43 359.47C170.09 355.81 165 346 165 337.55V128.83C165 120.38 170.14 116.5 176.48 120.16L251.3 163.36C257.64 167.02 262.78 176.83 262.78 185.28V394C262.73 402.45 257.59 406.33 251.25 402.67Z" fill="#B1B4C4"/>
<path d="M252.539 406.44L258.469 403.44L252.779 393.69L252.539 406.44Z" fill="#B1B4C4"/>
<path d="M163.789 122.24L169.249 119.38L168.149 127.42L163.789 122.24Z" fill="#B1B4C4"/>
<path d="M246.48 405.06L171.66 361.86C165.32 358.2 160.18 348.38 160.18 339.93V131.22C160.18 122.77 165.32 118.88 171.66 122.54L246.48 165.74C252.82 169.4 257.96 179.22 257.96 187.67V396.38C258 404.83 252.82 408.72 246.48 405.06Z" fill="#616E84"/>
<path d="M257.161 188.2V396.91C257.161 405.37 252.031 409.25 245.691 405.59L216.341 388.65L207.221 383.38L170.861 362.38C164.521 358.72 159.391 348.91 159.391 340.45V131.75C159.391 123.29 164.521 119.42 170.861 123.07L245.691 166.27C252.001 169.93 257.161 179.74 257.161 188.2Z" fill="#20232D"/>
<path d="M251.771 186.08V389.36C251.771 394.48 248.181 396.56 243.771 393.99L220.381 380.49L218.311 379.3L217.621 378.89L212.541 376L197.901 367.57L191.831 364.07L189.391 362.66L172.811 353.09C168.381 350.53 164.811 344.3 164.811 339.17V135.86C164.811 130.74 168.401 128.66 172.811 131.22L202.001 148.09V148.17C202.121 150.341 202.751 152.453 203.841 154.335C204.93 156.216 206.448 157.815 208.271 159C211.731 161 214.531 159.37 214.531 155.39C214.531 155.39 214.531 155.33 214.531 155.3L243.751 172.17C248.181 174.73 251.771 181 251.771 186.08Z" fill="white"/>
<path d="M210.784 157.526C211.716 156.99 211.722 155.251 210.797 153.641C209.872 152.032 208.366 151.161 207.434 151.697C206.502 152.233 206.496 153.972 207.421 155.581C208.346 157.191 209.852 158.062 210.784 157.526Z" fill="#2B303F"/>
<path opacity="0.1" d="M208.279 155.14C207.99 154.952 207.748 154.698 207.575 154.399C207.401 154.1 207.3 153.765 207.279 153.42C207.279 152.78 207.729 152.53 208.279 152.84C208.571 153.029 208.813 153.284 208.987 153.585C209.161 153.886 209.261 154.223 209.279 154.57C209.269 155.2 208.829 155.46 208.279 155.14Z" fill="white"/>
<path d="M260.2 215.66C259.59 216.02 259.09 215.66 259.09 214.83V205.93C259.096 205.516 259.2 205.109 259.393 204.743C259.586 204.376 259.862 204.06 260.2 203.82C260.81 203.46 261.3 203.82 261.3 204.65V213.55C261.295 213.964 261.193 214.37 261.002 214.737C260.811 215.103 260.536 215.42 260.2 215.66Z" fill="#757B89"/>
<path d="M260.2 230.24C259.59 230.6 259.09 230.24 259.09 229.41V220.51C259.096 220.096 259.2 219.689 259.393 219.323C259.586 218.956 259.862 218.64 260.2 218.4C260.81 218.04 261.3 218.4 261.3 219.23V228.13C261.295 228.544 261.193 228.95 261.002 229.317C260.811 229.683 260.536 230 260.2 230.24Z" fill="#757B89"/>
<path d="M237.671 207.53L176.901 172.44C175.959 171.768 175.189 170.883 174.652 169.859C174.115 168.834 173.827 167.697 173.811 166.54V149.8C173.811 147.53 175.191 146.48 176.901 147.47L237.671 182.55C238.61 183.226 239.379 184.113 239.916 185.139C240.452 186.165 240.742 187.302 240.761 188.46V205.19C240.761 207.47 239.371 208.51 237.671 207.53Z" fill="#E9EAF2"/>
<path d="M173.811 164.71V180.17L182.391 175.61L173.811 164.71Z" fill="#E9EAF2"/>
<path d="M232 190.58L186.17 164.12V159.36L232 185.82V190.58Z" fill="#D9DAE2"/>
<path d="M208.83 184.34L186.17 171.25V166.5L208.83 179.58V184.34Z" fill="#D9DAE2"/>
<path d="M221.191 283.34L176.901 257.77C175.959 257.098 175.189 256.213 174.652 255.188C174.115 254.164 173.827 253.027 173.811 251.87V243.16C173.811 240.89 175.191 239.84 176.901 240.83L221.191 266.4C222.13 267.074 222.899 267.959 223.436 268.983C223.972 270.008 224.262 271.144 224.281 272.3V281C224.281 283.28 222.891 284.33 221.191 283.34Z" fill="#E9EAF2"/>
<path d="M173.811 249.75V265.21L182.391 260.65L173.811 249.75Z" fill="#E9EAF2"/>
<path d="M217.681 275.67L183.131 255.72V250.96L217.681 270.91V275.67Z" fill="#D9DAE2"/>
<path d="M198.401 231.43L237.671 254.1C239.371 255.1 240.761 254.04 240.761 251.77V235C240.742 233.844 240.453 232.707 239.917 231.683C239.38 230.658 238.611 229.774 237.671 229.1L198.401 206.45C196.691 205.45 195.311 206.52 195.311 208.79V225.53C195.329 226.687 195.618 227.823 196.154 228.847C196.691 229.872 197.46 230.757 198.401 231.43Z" fill="#E9EAF2"/>
<path d="M240.76 249.94V265.4L232.17 250.93L240.76 249.94Z" fill="#E9EAF2"/>
<path d="M203.42 220.65L229.36 235.63V230.87L203.42 215.9V220.65Z" fill="#D9DAE2"/>
<path d="M203.42 227.79L217.32 235.82V231.06L203.42 223.03V227.79Z" fill="#D9DAE2"/>
<path d="M176.901 307.62L237.311 342.5C239.021 343.5 240.401 342.44 240.401 340.16V323.43C240.384 322.272 240.096 321.134 239.559 320.107C239.022 319.081 238.252 318.195 237.311 317.52L176.901 282.64C175.191 281.64 173.811 282.7 173.811 284.98V301.72C173.829 302.877 174.118 304.013 174.654 305.037C175.191 306.062 175.96 306.946 176.901 307.62Z" fill="#E9EAF2"/>
<path d="M240.4 338.34V353.8L231.82 339.33L240.4 338.34Z" fill="#E9EAF2"/>
<path d="M183.08 297.51L225.82 322.19V317.43L183.08 292.75V297.51Z" fill="#D9DAE2"/>
<path d="M183.08 304.65L222.9 327.64V322.88L183.08 299.89V304.65Z" fill="#D9DAE2"/>
<path d="M237.669 379L176.899 343.9C175.85 343.214 174.976 342.291 174.349 341.205C173.722 340.12 173.359 338.902 173.289 337.65V329.33C173.289 327.03 174.909 326.1 176.899 327.25L237.669 362.33C238.717 363.017 239.588 363.941 240.213 365.026C240.839 366.112 241.2 367.329 241.269 368.58V376.9C241.269 379.2 239.649 380.13 237.669 379ZM176.899 328.44C175.479 327.62 174.319 328.28 174.319 329.92V338.25C174.369 339.144 174.628 340.013 175.076 340.788C175.525 341.563 176.149 342.222 176.899 342.71L237.669 377.79C239.089 378.61 240.239 377.95 240.239 376.31V368C240.191 367.107 239.934 366.238 239.487 365.463C239.041 364.688 238.418 364.029 237.669 363.54L176.899 328.44Z" fill="#E9EAF2"/>
<path d="M179.3 341.12L178.27 340.53V332.6L179.3 333.19V341.12Z" fill="#E9EAF2"/>
<path opacity="0.4" d="M361.951 311.11C381.082 311.11 396.591 302.156 396.591 291.11C396.591 280.064 381.082 271.11 361.951 271.11C342.819 271.11 327.311 280.064 327.311 291.11C327.311 302.156 342.819 311.11 361.951 311.11Z" fill="#D6D8E5"/>
<path d="M381 286C378.59 288 375 286.17 374.86 286.35C372.032 288.976 369.065 291.446 365.97 293.75C364.47 294.93 362.13 296.51 362.55 298.75C363.31 302.81 369.81 301.56 372.26 300.32C374.71 299.08 376.71 297.02 379.03 295.58C380.69 294.58 382.32 294.02 382.58 291.93C382.75 290.69 381.45 285.94 381 286Z" fill="#38226D"/>
<path d="M382.559 291.11C382.249 293.11 380.639 293.66 378.999 294.68C376.639 296.14 374.559 298.26 372.109 299.5C369.849 300.64 364.199 301.78 362.609 298.88C363.469 302.8 369.849 301.57 372.279 300.34C374.709 299.11 376.729 297.04 379.049 295.6C380.709 294.6 382.339 294.04 382.599 291.95C382.613 291.669 382.6 291.388 382.559 291.11Z" fill="#9C73FF"/>
<path d="M360.12 278.22C357.71 280.22 353.49 278.04 353.32 278.22C350.807 280.758 348.153 283.152 345.37 285.39C343.87 286.57 341.53 288.15 341.96 290.39C342.71 294.45 349.21 293.2 351.66 291.96C354.11 290.72 356.12 288.66 358.44 287.22C360.09 286.22 361.72 285.66 361.98 283.57C362.13 282.33 360.55 278.17 360.12 278.22Z" fill="#38226D"/>
<path d="M361.899 283C361.589 285 359.979 285.55 358.339 286.57C355.979 288.04 353.899 290.15 351.449 291.39C349.189 292.54 343.539 293.68 341.949 290.78C342.809 294.69 349.199 293.46 351.619 292.23C354.039 291 356.069 288.94 358.399 287.49C360.049 286.49 361.679 285.93 361.939 283.84C361.953 283.56 361.939 283.278 361.899 283Z" fill="#9C73FF"/>
<path d="M381.101 197C380.991 200.65 379.851 216.47 379.351 224.84C378.851 233.21 378.721 243.48 378.721 243.48C378.721 243.48 380.171 249.58 381.101 256.75C382.031 263.92 381.101 286.55 381.101 286.55C380.181 287.143 379.11 287.459 378.016 287.459C376.921 287.459 375.85 287.143 374.931 286.55C374.931 286.55 371.081 268.44 369.291 260.28C367.501 252.12 367.201 247.42 366.291 242.36C365.171 236.24 362.751 207.68 362.751 207.68L361.751 207.74L359.191 240C359.986 242.377 360.532 244.83 360.821 247.32C361.521 252.57 360.081 278.99 360.081 278.99C359.051 279.562 357.883 279.838 356.706 279.789C355.529 279.739 354.389 279.366 353.411 278.71C353.411 278.71 346.971 243.71 346.971 238.4C346.971 234.88 347.571 188.4 347.571 188.4L381.101 197Z" fill="#8C50FF"/>
<path d="M372.37 126.63C372.37 126.63 371.96 134.57 372.14 135.28C372.32 135.99 375.78 138.28 376.79 139.14C377.8 140 371.3 146.39 368.14 147.84C364.98 149.29 354.96 145.47 354.79 140.55C354.62 135.63 356.5 131.5 358.04 131.28C359.58 131.06 372.37 126.63 372.37 126.63Z" fill="#FFCEA9"/>
<path d="M353.21 133.72C353.21 133.72 351.06 130.43 343.21 148.72C335.36 167.01 330.52 171.81 327 176.36C323.82 180.5 322.25 173.92 322.25 173.92C322.25 173.92 324.78 170.73 322.67 170.73C321.49 170.8 319.84 173.23 319.84 173.23L322.53 177.53L329.53 181.08C329.53 181.08 338.1 173.2 340.87 168.34C343.87 164.51 348.36 156.91 348.36 156.91L353.21 133.72Z" fill="#FFCEA9"/>
<path d="M319.87 176.94C319.79 176.88 317.7 174.45 317.7 174.45C317.7 174.45 316.45 173.36 317.81 173.28C319.17 173.2 324.02 173.19 324.02 173.19C324.516 173.143 325.012 173.282 325.41 173.58C326.02 174.06 333.05 182.96 333.05 182.96C333.05 182.96 333.36 183.5 332.45 183.56C331.54 183.62 325.65 183.56 325.65 183.56L319.87 176.94Z" fill="#20232D"/>
<path d="M319.301 175.44C319.301 175.44 317.231 175.05 317.711 177.04C318.191 179.03 321.161 181.09 321.161 181.09L324.261 183.69C324.64 183.933 325.081 184.063 325.531 184.063C325.981 184.063 326.422 183.933 326.801 183.69C327.601 183.19 328.721 181.83 327.491 180.54C326.261 179.25 325.161 176.42 322.021 176.54C322.021 176.54 321.851 175.79 320.021 175.54" fill="#FFCEA9"/>
<path d="M373.261 136.65C373.261 136.65 367.491 145.23 359.451 146.04C356.921 143.54 356.691 134.65 360.201 131.81C360.201 131.81 356.971 129.2 354.761 129.71C352.145 131.123 350.144 133.452 349.141 136.25C347.661 140.78 346.831 146 346.961 154.43C347.091 162.86 346.961 188.6 346.961 188.6C346.961 188.6 348.101 194.05 355.371 198.1C362.641 202.15 368.001 202.54 373.001 201.39C377.071 200.44 380.431 199.01 381.831 196.06C381.471 190.15 378.831 174.74 379.831 167.31C380.831 159.88 382.381 154.31 382.831 148.31C383.281 142.31 382.031 142.42 379.021 140.31C377.192 138.951 375.267 137.728 373.261 136.65Z" fill="#F4F4F4"/>
<path d="M376.48 200.49C377.68 199.15 379.74 191.72 380.92 187.03C382.059 181.765 382.289 176.343 381.6 171C380.54 164.6 377.6 155.74 376.77 152.07C375.94 148.4 377.04 146.84 378.67 145.36C380.58 143.62 383.43 144.14 385.27 149.24C387.671 156.294 389.284 163.592 390.08 171C390.511 176.518 390.028 182.07 388.65 187.43C387.42 192.43 385.65 196.05 383.31 200.63C382.68 201.87 381.24 205.36 380.31 207.88C379.38 210.4 375.39 201.71 376.48 200.49Z" fill="#FFCEA9"/>
<path d="M354.39 114.79C355.34 108.62 359.78 103.95 366.14 104.3C368.698 104.435 371.148 105.368 373.147 106.97C375.145 108.572 376.59 110.76 377.278 113.227C377.967 115.693 377.863 118.314 376.983 120.719C376.102 123.124 374.489 125.191 372.37 126.63C372.142 127.562 371.806 128.465 371.37 129.32C369.12 131.95 362.32 133.58 360.37 133.32C357.86 132.96 356.51 131.91 355.31 129.17C353.21 124.31 353.87 117.84 354.39 114.79Z" fill="#FFCEA9"/>
<path d="M372.369 126.63L371.789 121.25C371.789 121.25 376.179 109.87 365.789 112.05C358.929 113.5 357.209 114.12 355.129 109.52C353.049 104.92 360.399 100.79 369.129 101.94C372.148 102.241 374.942 103.668 376.956 105.936C378.97 108.204 380.057 111.147 379.999 114.18C379.719 117.57 378.819 124.42 372.369 126.63Z" fill="#3A2C6D"/>
<path d="M390.14 157.5C390.14 157.5 384.48 163.14 377.77 161.5C376.77 160.85 374.51 147.67 374.51 147.67C374.51 147.67 374.51 140.37 380.11 140.56C385.71 140.75 390.14 157.5 390.14 157.5Z" fill="#EDEDED"/>
<path d="M346.999 150.1C346.999 150.1 343.329 150.56 342.109 148.84C342.329 145.84 347.219 130.54 354.809 129.71C352.961 131.381 351.364 133.311 350.069 135.44C347.359 139.93 346.999 150.1 346.999 150.1Z" fill="#EDEDED"/>
<path opacity="0.4" d="M34.58 500C53.678 500 69.16 491.064 69.16 480.04C69.16 469.016 53.678 460.08 34.58 460.08C15.482 460.08 0 469.016 0 480.04C0 491.064 15.482 500 34.58 500Z" fill="#D6D8E5"/>
<path d="M9.21917 330.53C8.82917 333.89 4.82917 348.38 5.68917 353.35C6.54917 358.32 20.2392 366.62 20.2392 366.62L22.1392 358.12L14.5492 350.69L16.5992 336.61L9.21917 330.53Z" fill="#FFCEA9"/>
<path d="M19.8106 316.24C18.4777 315.627 16.9663 315.523 15.5622 315.949C14.1581 316.375 12.9587 317.3 12.1906 318.55C10.1906 321.89 8.08062 333.33 7.89062 335.29C7.89062 335.29 10.7206 339.19 14.9606 338.54L19.8106 316.24Z" fill="#EDEDED"/>
<path d="M35.4504 477.85C38.4294 478.674 41.613 478.289 44.3104 476.78C46.4504 476.85 58.0404 471.89 59.6104 476.05C60.9904 479.7 55.9704 483.05 53.2904 483.73C47.4404 485.14 43.1104 488.06 40.7604 488.56C39.0104 488.93 36.7604 489.17 35.3404 487.79C33.6704 486.14 33.8104 480 35.4504 477.85Z" fill="#2B2A30"/>
<path d="M40.7601 487.55C43.1101 487.05 47.4401 484.13 53.2901 482.72C55.5401 482.17 59.4101 479.72 59.8001 476.78C60.3201 480.14 55.8001 483.12 53.2901 483.78C47.4401 485.19 43.1101 488.11 40.7601 488.61C39.0101 488.98 36.7601 489.22 35.3401 487.84C34.9789 487.445 34.7183 486.968 34.5801 486.45C35.4535 487.102 36.467 487.541 37.5399 487.732C38.6128 487.923 39.7154 487.861 40.7601 487.55Z" fill="#BF4B4B"/>
<path d="M16.6607 469.41C19.6397 470.234 22.8233 469.849 25.5207 468.34C27.6507 468.41 39.2407 463.45 40.8207 467.61C42.2007 471.26 37.1807 474.61 34.5007 475.29C28.6507 476.71 24.3107 479.62 21.9607 480.12C20.2107 480.49 17.9607 480.73 16.5507 479.35C14.8707 477.7 15.0007 471.59 16.6607 469.41Z" fill="#2B2A30"/>
<path d="M22.0003 479.11C24.3503 478.61 28.6903 475.69 34.5403 474.28C36.7803 473.73 40.6603 471.28 41.0503 468.34C41.5703 471.7 37.0503 474.68 34.5403 475.34C28.6903 476.76 24.3503 479.67 22.0003 480.17C20.2503 480.54 18.0003 480.78 16.5903 479.4C16.2296 479.003 15.966 478.527 15.8203 478.01C16.6937 478.662 17.7072 479.101 18.7801 479.292C19.853 479.483 20.9557 479.42 22.0003 479.11Z" fill="#BF4B4B"/>
<path d="M16.4294 437.93C16.9248 433.627 17.8186 429.378 19.0994 425.24C19.0994 425.24 18.3094 414.29 17.9094 403.9C17.4494 392.12 13.3594 381.75 16.5894 372.34L52.9994 380.43C52.9994 380.43 50.7994 427.43 50.3094 433.1C50.0429 437.527 49.4985 441.932 48.6794 446.29C47.0194 455.41 44.3194 477.1 44.3194 477.1C40.4794 479.34 35.4294 478.1 35.4294 478.1C35.4294 478.1 35.7094 450.66 35.9594 444.1C36.2593 436.1 36.4994 436.69 36.4994 436.69L35.2994 416.69L34.5194 406.75C34.5194 406.75 33.5194 414.05 32.8594 420.57C32.2794 426.25 30.8594 431.39 29.3794 441.97C28.0494 451.15 25.8894 469.59 25.8894 469.59C22.0494 471.82 16.8294 469.97 16.8294 469.97C16.8294 469.97 15.3894 445.89 16.4294 437.93Z" fill="#E26161"/>
<path d="M21.7401 316.44C24.5101 316.58 26.5701 317.29 26.9101 316.44C27.2103 315.011 27.424 313.565 27.5501 312.11C27.2301 311.3 26.9501 310.44 26.9501 310.44C23.4801 308.3 22.3801 304.54 21.9501 300.17C21.1701 292.69 25.2101 286.17 32.6901 285.36C39.6901 284.62 44.9001 289.57 46.2801 296.36C47.0201 299.71 48.5001 306.04 46.5001 311.55C45.3801 314.63 43.9401 317.08 42.5001 317.55C41.1076 317.506 39.7187 317.382 38.3401 317.18C38.3401 317.18 37.9701 319.25 37.7101 320.59C37.4501 321.93 37.5601 322.59 40.2101 324.26C42.8601 325.93 36.2101 329.26 31.8401 328.93C27.4701 328.6 22.5801 325.93 21.2301 323.15C19.7101 320.05 19.8401 316.35 21.7401 316.44Z" fill="#FFCEA9"/>
<path d="M25.7398 316.85C24.9798 318.77 26.9298 321.11 32.1298 322.74C37.3298 324.37 37.7998 322.27 37.7998 322.27C37.7998 322.27 45.4198 325.75 47.8998 327.48C51.0298 329.66 52.4098 335.98 52.8298 346.64C53.3198 358.97 53.3598 377.27 52.9498 380.43C52.9498 380.43 47.1198 386.24 39.6498 385.63C32.1798 385.02 19.6498 378.41 16.5798 373.31C16.6598 362.49 17.9298 360.73 16.1798 354.5C12.1798 340.24 10.0598 334.4 11.9998 324.92C13.6098 317.11 15.8598 316.14 18.9998 316.21C21.256 316.307 23.5057 316.52 25.7398 316.85Z" fill="#F4F4F4"/>
<path d="M64.5601 356.84C58.4401 358.38 57.0001 354.52 56.1901 351.32C54.2501 343.57 53.1901 336.58 51.7401 332.18C50.0301 327 48.2401 326.18 45.7401 325.18C42.7401 324 40.2401 326.5 41.2201 333.1C42.3901 340.9 43.9201 346.38 46.8301 355.62C47.6001 358.03 49.3101 362.31 51.8301 364.38C54.9901 366.94 59.7501 366.83 66.9501 365.04C70.0201 364.27 73.3901 362.44 79.2001 359.73C80.7801 359 82.0001 358.5 85.0001 357.1C88.0066 355.749 90.6416 353.691 92.6801 351.1C94.2501 348.83 93.9701 347.38 93.6801 346.87C93.3901 346.36 93.0501 346.74 92.2101 347.69C91.0008 349.307 89.5063 350.69 87.8001 351.77C87.8001 351.77 89.7401 349.77 90.8001 348.47C91.7378 347.319 92.518 346.048 93.1201 344.69C93.6701 343.36 92.5301 341.56 91.6601 342.51C90.7901 343.46 90.3801 344.41 88.8001 346.31C87.9458 347.317 86.9758 348.22 85.9101 349C86.8922 347.67 87.7651 346.262 88.5201 344.79C89.5201 342.74 86.1701 343.79 84.2501 345.79C82.8501 347.24 81.6601 348.08 81.6201 347.68C81.5801 347.28 78.8601 350.21 77.4701 351.68C76.0801 353.15 70.3901 355.37 64.5601 356.84Z" fill="#FFCEA9"/>
<path d="M43.4495 324.11C47.5395 323.5 50.4495 325.34 52.2395 331.54C54.0295 337.74 55.3095 342.83 55.3095 342.83C53.6914 345.166 51.2403 346.795 48.4595 347.38C43.5595 348.56 41.7995 346.23 41.7995 346.23C41.7995 346.23 40.4395 339.73 39.5995 335.31C38.7595 330.89 38.3895 324.85 43.4495 324.11Z" fill="#EDEDED"/>
<path d="M45.9997 295.4C45.9997 295.4 52.4597 285.57 38.4597 283.57C28.3597 282.13 21.8697 288.62 21.1197 295.66C20.3997 302.39 24.5397 309.37 27.5397 312.15C28.9997 312.67 32.1397 312.97 36.2697 311.09C36.4344 309.258 36.4978 307.419 36.4597 305.58C36.4597 305.58 31.5397 295.22 45.9997 295.4Z" fill="#2B2A30"/>
<path d="M78.8201 349.11C78.8201 349.11 77.2301 346.22 78.2401 345.5C79.2501 344.78 80.6902 347.5 80.9801 348.55C81.2701 349.6 80.8701 348.23 80.8701 348.23C80.8701 348.23 79.7801 344.96 80.4901 344.33C81.2001 343.7 82.1501 345.1 83.1001 347.15C84.0501 349.2 83.3301 346.98 83.3301 346.98C83.3301 346.98 81.7601 343.7 82.4301 343.24C83.3301 342.64 84.8101 344.58 85.6901 346.33C86.5701 348.08 84.5101 350.16 84.5101 350.16L78.8201 349.11Z" fill="#FFCEA9"/>
<path d="M81.8888 354.28L75.9988 350.85C75.4888 350.56 75.5588 350.06 76.1388 349.72L90.4788 341.44C90.7818 341.269 91.1213 341.172 91.4691 341.158C91.8169 341.144 92.1631 341.214 92.4788 341.36L98.4188 344.79C98.9188 345.08 98.8588 345.59 98.2788 345.92L83.8488 354.2C83.5516 354.367 83.2191 354.462 82.8784 354.475C82.5377 354.489 82.1986 354.422 81.8888 354.28Z" fill="#B1B4C4"/>
<path d="M75.6094 350.36V349.81L76.2494 350.05L75.6094 350.36Z" fill="#B1B4C4"/>
<path d="M98.6702 345.26V344.74L98.1602 345.06L98.6702 345.26Z" fill="#B1B4C4"/>
<path d="M81.8888 353.82L75.9988 350.39C75.4888 350.1 75.5588 349.59 76.1388 349.26L90.4288 341C90.731 340.826 91.0707 340.728 91.419 340.714C91.7672 340.7 92.1137 340.771 92.4288 340.92L98.3688 344.35C98.8688 344.64 98.8088 345.14 98.2288 345.48L83.8888 353.76C83.5842 353.928 83.2438 354.021 82.896 354.032C82.5482 354.042 82.2029 353.97 81.8888 353.82Z" fill="#616E84"/>
<path d="M76.9644 352.5C76.9931 352.484 76.9918 352.428 76.9616 352.375C76.9313 352.322 76.8835 352.293 76.8548 352.309C76.826 352.326 76.8273 352.382 76.8575 352.435C76.8878 352.487 76.9356 352.517 76.9644 352.5Z" fill="#757B89"/>
<path d="M76.9413 351.259C76.97 351.242 76.9686 351.186 76.9382 351.133C76.9079 351.081 76.86 351.052 76.8313 351.068C76.8026 351.085 76.8039 351.141 76.8343 351.193C76.8647 351.246 76.9126 351.275 76.9413 351.259Z" fill="#757B89"/>
<path d="M77.2284 351.436C77.2571 351.419 77.2557 351.363 77.2253 351.311C77.1949 351.258 77.1471 351.229 77.1184 351.245C77.0897 351.262 77.091 351.318 77.1214 351.371C77.1518 351.423 77.1997 351.452 77.2284 351.436Z" fill="#757B89"/>
<path d="M77.5213 351.589C77.55 351.573 77.5487 351.517 77.5183 351.464C77.4879 351.412 77.44 351.382 77.4113 351.399C77.3826 351.416 77.384 351.472 77.4144 351.524C77.4447 351.577 77.4926 351.606 77.5213 351.589Z" fill="#757B89"/>
<path d="M79.9725 353.014C80.0012 352.998 79.9999 352.942 79.9695 352.889C79.9391 352.836 79.8912 352.807 79.8625 352.824C79.8338 352.84 79.8352 352.896 79.8656 352.949C79.8959 353.002 79.9438 353.031 79.9725 353.014Z" fill="#757B89"/>
<path d="M80.2577 353.177C80.2864 353.16 80.285 353.104 80.2546 353.051C80.2242 352.999 80.1764 352.97 80.1477 352.986C80.119 353.003 80.1203 353.059 80.1507 353.111C80.1811 353.164 80.229 353.193 80.2577 353.177Z" fill="#757B89"/>
<path d="M80.5409 353.345C80.5696 353.329 80.5682 353.272 80.5378 353.22C80.5074 353.167 80.4596 353.138 80.4309 353.155C80.4022 353.171 80.4035 353.227 80.4339 353.28C80.4643 353.332 80.5122 353.362 80.5409 353.345Z" fill="#757B89"/>
<path d="M80.826 353.507C80.8547 353.491 80.8534 353.435 80.823 353.382C80.7926 353.329 80.7447 353.3 80.716 353.317C80.6873 353.333 80.6887 353.389 80.7191 353.442C80.7494 353.495 80.7973 353.524 80.826 353.507Z" fill="#757B89"/>
<path d="M79.089 352.55L78.299 352.1C78.2713 352.079 78.2488 352.051 78.2333 352.02C78.2177 351.989 78.2094 351.955 78.209 351.92C78.209 351.86 78.209 351.83 78.299 351.86L79.089 352.31C79.1164 352.329 79.1389 352.354 79.1546 352.384C79.1702 352.414 79.1786 352.446 79.179 352.48C79.179 352.55 79.139 352.58 79.089 352.55Z" fill="#757B89"/>
<path d="M96.8686 346.56L96.1386 346.98C96.1386 346.98 96.0586 346.98 96.0586 346.92C96.0606 346.889 96.0687 346.859 96.0824 346.832C96.0961 346.805 96.1153 346.78 96.1386 346.76L96.8686 346.34C96.8686 346.34 96.9586 346.34 96.9586 346.4C96.9583 346.432 96.9499 346.464 96.9342 346.492C96.9185 346.52 96.8959 346.543 96.8686 346.56Z" fill="#757B89"/>
<path d="M95.7495 347.21L95.0195 347.63C95.0195 347.63 94.9395 347.63 94.9395 347.57C94.9387 347.539 94.9456 347.508 94.9595 347.48C94.9735 347.452 94.9941 347.428 95.0195 347.41L95.7495 346.99C95.7495 346.99 95.8395 346.99 95.8395 347.05C95.8384 347.082 95.8296 347.113 95.814 347.141C95.7983 347.169 95.7762 347.192 95.7495 347.21Z" fill="#757B89"/>
<path d="M81.8888 353.74L75.9988 350.31C75.4888 350.02 75.5588 349.51 76.1388 349.17L90.4788 340.89C90.7818 340.719 91.1213 340.622 91.4691 340.608C91.8169 340.594 92.1631 340.663 92.4788 340.81L98.4188 344.24C98.9188 344.53 98.8588 345.04 98.2788 345.37L83.9388 353.65C83.631 353.833 83.2828 353.937 82.9251 353.953C82.5674 353.968 82.2114 353.895 81.8888 353.74Z" fill="#20232D"/>
<path d="M97.6898 344.38L95.3798 343C95.2255 343.081 95.054 343.123 94.8798 343.123C94.7057 343.123 94.5342 343.081 94.3798 343C94.0998 342.84 94.0998 342.59 94.3798 342.43L92.0698 341.09C91.8709 340.991 91.6519 340.94 91.4298 340.94C91.2078 340.94 90.9888 340.991 90.7898 341.09L76.7898 349.15C76.4398 349.36 76.4398 349.69 76.7898 349.89L82.4198 353.14C82.617 353.239 82.8344 353.29 83.0548 353.29C83.2753 353.29 83.4927 353.239 83.6898 353.14L97.6898 345.07C98.0498 344.91 98.0498 344.58 97.6898 344.38Z" fill="#2B303F"/>
<path opacity="0.5" d="M97.6898 344.38L95.3798 343C95.2255 343.081 95.054 343.123 94.8798 343.123C94.7057 343.123 94.5342 343.081 94.3798 343C94.0998 342.84 94.0998 342.59 94.3798 342.43L92.0698 341.09C91.8709 340.991 91.6519 340.94 91.4298 340.94C91.2078 340.94 90.9888 340.991 90.7898 341.09L76.7898 349.15C76.4398 349.36 76.4398 349.69 76.7898 349.89L82.4198 353.14C82.617 353.239 82.8344 353.29 83.0548 353.29C83.2753 353.29 83.4927 353.239 83.6898 353.14L97.6898 345.07C98.0498 344.91 98.0498 344.58 97.6898 344.38Z" fill="url(#paint0_linear_362_0)"/>
<path d="M94.7192 342.99C94.8683 342.99 94.9892 342.923 94.9892 342.84C94.9892 342.757 94.8683 342.69 94.7192 342.69C94.5701 342.69 94.4492 342.757 94.4492 342.84C94.4492 342.923 94.5701 342.99 94.7192 342.99Z" fill="#2B303F"/>
<path opacity="0.1" d="M94.6387 342.89C94.6387 342.89 94.6387 342.82 94.6387 342.8C94.6626 342.785 94.6904 342.777 94.7187 342.777C94.747 342.777 94.7747 342.785 94.7987 342.8C94.7987 342.8 94.7987 342.86 94.7987 342.89C94.7472 342.91 94.6901 342.91 94.6387 342.89Z" fill="white"/>
<path d="M91.1208 352.91C91.1208 352.91 94.2608 350.08 94.1208 346.33C93.9308 343.72 92.3508 345.6 92.3508 345.6L90.7608 348.48C89.9723 349.544 88.9446 350.407 87.7608 351C86.6465 351.107 85.5384 351.271 84.4408 351.49C82.4908 351.87 80.5508 354.31 80.5508 354.31L83.0008 356.24L91.1208 352.91Z" fill="#FFCEA9"/>
<path d="M76.55 220.38L18.74 187C18.1846 186.617 17.55 186.364 16.8835 186.261C16.2169 186.157 15.5356 186.204 14.89 186.4C14.6432 186.502 14.4112 186.637 14.2 186.8L7.75 190.49L12.75 196.36V220.46C12.8623 222.544 13.464 224.573 14.5064 226.382C15.5488 228.19 17.0026 229.728 18.75 230.87L36.75 242.18L41.64 253.39L36.49 262.12L43.66 258.02L50.47 250.11L72.2 261.88L73.37 268.88L80.69 264.7L80.89 264.58H80.96C81.5187 264.129 81.9572 263.547 82.2363 262.886C82.5155 262.225 82.6267 261.505 82.56 260.79V230.79C82.4466 228.705 81.8434 226.675 80.7992 224.867C79.755 223.058 78.2992 221.521 76.55 220.38Z" fill="#FF7B7B"/>
<path d="M69.3901 224.48L11.5801 191.11C8.26008 189.19 5.58008 190.74 5.58008 194.57V224.57C5.69235 226.655 6.29406 228.683 7.33648 230.492C8.37889 232.3 9.83269 233.838 11.5801 234.98L29.5801 246.3L36.4901 262.13L43.3001 254.22L69.3801 268.36C72.7001 270.27 75.3801 268.72 75.3801 264.89V234.89C75.2689 232.807 74.6687 230.778 73.6281 228.97C72.5875 227.161 71.1356 225.623 69.3901 224.48Z" fill="#E26D6D"/>
<path d="M404.049 34.2601L346.119 0.820074C345.564 0.434088 344.928 0.178735 344.259 0.0731042C343.591 -0.0325268 342.907 0.0142965 342.259 0.210074C342.011 0.307834 341.778 0.442695 341.569 0.610074L335.109 4.31007L340.109 10.1801V34.3401C340.221 36.4274 340.822 38.4593 341.865 40.2712C342.907 42.0831 344.361 43.6243 346.109 44.7701L364.159 56.1101L369.059 67.3401L363.909 76.0901L371.099 72.0001L377.919 64.0701L399.679 75.8701L400.859 82.8701L408.189 78.6701L408.389 78.5601H408.459C409.021 78.1116 409.463 77.5304 409.744 76.8687C410.025 76.207 410.137 75.4858 410.069 74.7701V44.7701C409.968 42.6671 409.37 40.6182 408.323 38.7912C407.277 36.9643 405.812 35.4115 404.049 34.2601Z" fill="#8C50FF"/>
<path opacity="0.2" d="M404.049 34.2601L346.119 0.820074C345.564 0.434088 344.928 0.178735 344.259 0.0731042C343.591 -0.0325268 342.907 0.0142965 342.259 0.210074C342.011 0.307834 341.778 0.442695 341.569 0.610074L335.109 4.31007L340.109 10.1801V34.3401C340.221 36.4274 340.822 38.4593 341.865 40.2712C342.907 42.0831 344.361 43.6243 346.109 44.7701L364.159 56.1101L369.059 67.3401L363.909 76.0901L371.099 72.0001L377.919 64.0701L399.679 75.8701L400.859 82.8701L408.189 78.6701L408.389 78.5601H408.459C409.021 78.1116 409.463 77.5304 409.744 76.8687C410.025 76.207 410.137 75.4858 410.069 74.7701V44.7701C409.968 42.6671 409.37 40.6182 408.323 38.7912C407.277 36.9643 405.812 35.4115 404.049 34.2601Z" fill="black"/>
<path d="M396.859 38.3701L338.939 4.93006C335.619 3.01006 332.939 4.57006 332.939 8.41006V38.4101C333.051 40.4974 333.652 42.5293 334.695 44.3412C335.737 46.1531 337.191 47.6943 338.939 48.8401L356.999 60.2201L363.929 76.0901L370.749 68.1601L396.869 82.3201C400.199 84.2401 402.869 82.6901 402.869 78.8501V48.8501C402.765 46.753 402.167 44.7103 401.122 42.8889C400.077 41.0675 398.617 39.5191 396.859 38.3701Z" fill="#8C50FF"/>
<path d="M351.995 37.0158C353.617 36.0797 353.617 33.0448 351.996 30.2373C350.375 27.4297 347.747 25.9126 346.125 26.8487C344.504 27.7848 344.503 30.8197 346.124 33.6273C347.745 36.4348 350.374 37.952 351.995 37.0158Z" fill="white"/>
<path d="M370.62 47.1316C372.249 46.1955 372.255 43.1502 370.634 40.3297C369.013 37.5092 366.379 35.9817 364.75 36.9178C363.121 37.8539 363.115 40.8992 364.736 43.7197C366.357 46.5402 368.991 48.0677 370.62 47.1316Z" fill="white"/>
<path d="M386.353 56.8628C387.974 55.9266 387.974 52.8918 386.354 50.0842C384.733 47.2766 382.104 45.7595 380.483 46.6956C378.861 47.6317 378.861 50.6666 380.482 53.4742C382.103 56.2818 384.731 57.7989 386.353 56.8628Z" fill="white"/>
<path d="M304.48 96.86C304.48 89.86 299.55 81.29 293.48 77.78C290.24 75.91 287.34 75.86 285.33 77.26L281.67 79.33L283.23 79.95C282.694 81.2806 282.432 82.7058 282.46 84.14C282.46 91.14 287.39 99.7 293.46 103.22C294.396 103.776 295.406 104.196 296.46 104.47V106.66L301.18 104C303.26 102.81 304.48 100.35 304.48 96.86Z" fill="#DD990E"/>
<path d="M297.215 106.335C301.515 103.852 301.513 95.7987 297.211 88.3469C292.908 80.8951 285.935 76.8667 281.635 79.3492C277.335 81.8317 277.337 89.8851 281.64 97.3369C285.942 104.789 292.915 108.817 297.215 106.335Z" fill="#F9CB07"/>
<path d="M286.186 89.3953C286.798 89.0419 286.797 87.8946 286.184 86.8328C285.571 85.771 284.578 85.1967 283.966 85.5502C283.354 85.9036 283.354 87.051 283.967 88.1128C284.58 89.1746 285.574 89.7488 286.186 89.3953Z" fill="#CC8B09"/>
<path d="M294.727 94.3148C295.339 93.9613 295.338 92.814 294.725 91.7522C294.112 90.6904 293.119 90.1162 292.507 90.4696C291.895 90.8231 291.895 91.9704 292.508 93.0322C293.121 94.094 294.115 94.6682 294.727 94.3148Z" fill="#CC8B09"/>
<path d="M285.08 94.26C285.08 94.26 286.52 98.2 289.42 99.87C292.32 101.54 294.02 99.42 294.02 99.42L285.08 94.26Z" fill="#CC8B09"/>
<path d="M99.9199 306.32L106.14 309.92V293.89L99.9199 290.3V306.32Z" fill="#4399FF"/>
<path d="M106.14 293.91L99.9199 290.31L104.96 287.4L111.43 291.02L106.14 293.91Z" fill="#70B6FC"/>
<path d="M129.759 305.34C129.733 304.584 129.518 303.847 129.134 303.195C128.749 302.544 128.208 301.999 127.559 301.61L120.269 297.4L121.429 291.93V291.52C121.433 290.938 121.352 290.359 121.189 289.8C120.969 289.08 120.189 287.37 119.689 287.72L112.059 292.13C111.599 292.26 111.369 292.79 111.369 293.59V307C111.416 307.801 111.649 308.579 112.051 309.274C112.452 309.968 113.009 310.559 113.679 311L124.089 317C125.009 317.53 125.819 317.33 126.169 316.6L129.639 309.12C129.743 308.842 129.784 308.545 129.759 308.25V305.34Z" fill="#FFCEA9"/>
<path d="M122.1 319.2L125.77 317.05L122.43 312.52L122.1 319.2Z" fill="#FFCEA9"/>
<path d="M126.259 307.38C126.23 306.625 126.014 305.888 125.63 305.237C125.246 304.586 124.706 304.041 124.059 303.65L116.769 299.45L117.929 293.97V293.57C117.933 292.985 117.852 292.402 117.689 291.84C117.469 291.12 116.689 289.42 116.189 289.76L108.559 294.17C108.099 294.3 107.869 294.84 107.869 295.64V309C107.915 309.801 108.147 310.58 108.548 311.275C108.95 311.969 109.508 312.56 110.179 313L120.589 319C121.509 319.54 122.319 319.34 122.669 318.6L126.139 311.12C126.243 310.842 126.284 310.545 126.259 310.25V307.38Z" fill="#EFBD9C"/>
</g>
<defs>
<linearGradient id="paint0_linear_362_0" x1="71.3093" y1="360.263" x2="78.9169" y2="347.025" gradientUnits="userSpaceOnUse">
<stop offset="0.21" stop-color="white" stop-opacity="0"/>
<stop offset="1" stop-color="white" stop-opacity="0.2"/>
</linearGradient>
<clipPath id="clip0_362_0">
<rect width="410.07" height="500" fill="white"/>
</clipPath>
</defs>
</svg>
