<svg width="500" height="477" viewBox="0 0 500 477" fill="none" xmlns="http://www.w3.org/2000/svg">
<g clip-path="url(#clip0_361_3904)">
<path opacity="0.4" d="M328.499 352.69C381.038 352.69 423.629 328.102 423.629 297.77C423.629 267.439 381.038 242.85 328.499 242.85C275.96 242.85 233.369 267.439 233.369 297.77C233.369 328.102 275.96 352.69 328.499 352.69Z" fill="#D6D8E5"/>
<path d="M431.999 97.1797H241.699C241.699 97.1797 242.349 258.5 241.859 289.11C241.733 290.486 241.696 291.869 241.749 293.25C241.749 293.54 241.749 293.76 241.699 293.9H241.779C242.529 307.36 251.779 320.68 269.569 330.95C306.719 352.4 366.999 352.4 404.099 331C421.889 320.73 431.099 307.41 431.889 293.95H431.999V97.1797Z" fill="#8C50FF"/>
<path d="M336.829 150.32C389.368 150.32 431.959 125.731 431.959 95.4C431.959 65.0685 389.368 40.48 336.829 40.48C284.29 40.48 241.699 65.0685 241.699 95.4C241.699 125.731 284.29 150.32 336.829 150.32Z" fill="#8C50FF"/>
<path d="M436.62 102.74C435.62 105.363 434.354 107.876 432.84 110.24C429.814 114.912 426.107 119.105 421.84 122.68C420.58 123.79 419.25 124.86 417.84 125.91C415.034 128.011 412.102 129.938 409.06 131.68C408.4 132.06 407.75 132.43 407.06 132.79C405.71 133.54 404.31 134.27 402.88 134.96C399.47 136.63 395.88 138.17 392.21 139.54C390.84 140.06 389.46 140.54 388.05 141.02C384.52 142.21 380.89 143.25 377.17 144.17C375.92 144.49 374.66 144.79 373.39 145.06C369.75 145.873 366.063 146.54 362.33 147.06C361.06 147.25 359.8 147.43 358.53 147.58C354.87 148.026 351.203 148.36 347.53 148.58C346.27 148.65 345.01 148.72 343.73 148.75C340.05 148.91 336.36 148.93 332.73 148.85C331.46 148.85 330.2 148.78 328.93 148.72C325.23 148.55 321.54 148.28 317.87 147.87C316.6 147.73 315.33 147.59 314.07 147.41C310.35 146.93 306.66 146.31 303.02 145.58C301.75 145.33 300.48 145.05 299.23 144.77C295.463 143.91 291.78 142.91 288.18 141.77C286.91 141.37 285.63 140.95 284.38 140.52C280.57 139.2 276.87 137.72 273.32 136.08C272.04 135.5 270.77 134.89 269.54 134.26C267.853 133.406 266.206 132.516 264.6 131.59C262.44 130.34 260.41 129.06 258.48 127.72C257.16 126.83 255.89 125.9 254.68 124.95C250.557 121.791 246.842 118.133 243.62 114.06C242.232 112.284 240.973 110.413 239.85 108.46C228.09 87.9496 236.34 64.4596 264.6 48.1396C304.5 25.1396 369.21 25.1396 409.13 48.1396C420.36 54.6196 428.41 62.2197 433.33 70.3297C434.637 72.4751 435.748 74.7343 436.65 77.0797C439.888 85.3283 439.878 94.4985 436.62 102.74Z" fill="#EF990F"/>
<path d="M234.631 90.0001C234.631 89.4801 234.631 60.6201 234.631 60.6201L268.631 75.3101L234.631 90.0001Z" fill="#EF990F"/>
<path d="M439.04 59.0098L439.01 88.5498L420.49 104.33L409.18 77.2398L439.04 59.0098Z" fill="#EF990F"/>
<path d="M243.59 76.3301V114.15C242.203 112.375 240.943 110.503 239.82 108.55V76.3301H243.59Z" fill="#DD8910"/>
<path d="M258.45 88V127.78C257.13 126.89 255.86 125.96 254.65 125.01V88H258.45Z" fill="#DD8910"/>
<path d="M273.29 98.3501V136.17C272.01 135.59 270.74 134.98 269.51 134.35V98.3501H273.29Z" fill="#DD8910"/>
<path d="M288.15 102.91V141.91C286.88 141.51 285.6 141.09 284.35 140.66V102.96L288.15 102.91Z" fill="#DD8910"/>
<path d="M303.001 108V145.63C301.731 145.38 300.461 145.1 299.211 144.82V108H303.001Z" fill="#DD8910"/>
<path d="M317.839 111.79V147.94C316.569 147.8 315.299 147.66 314.039 147.48V111.79H317.839Z" fill="#DD8910"/>
<path d="M332.7 111.79V148.92C331.43 148.92 330.17 148.85 328.9 148.79V111.79H332.7Z" fill="#DD8910"/>
<path d="M347.54 111.79V148.65C346.28 148.72 345.02 148.79 343.74 148.82V111.82L347.54 111.79Z" fill="#DD8910"/>
<path d="M362.39 110.4V147.1C361.12 147.29 359.86 147.47 358.59 147.62V110.4H362.39Z" fill="#DD8910"/>
<path d="M377.229 106.43V144.17C375.979 144.49 374.719 144.79 373.449 145.06V106.43H377.229Z" fill="#DD8910"/>
<path d="M392.269 101.08V139.54C390.899 140.06 389.519 140.54 388.109 141.02V101.08H392.269Z" fill="#DD8910"/>
<path d="M407.119 92.7402V132.79C405.769 133.54 404.369 134.27 402.939 134.96V92.7402H407.119Z" fill="#DD8910"/>
<path d="M421.881 83.6104V122.68C420.621 123.79 419.291 124.86 417.881 125.91V83.6104H421.881Z" fill="#DD8910"/>
<path d="M436.62 70.4199V102.74C435.621 105.363 434.354 107.876 432.84 110.24V70.4199H436.62Z" fill="#DD8910"/>
<path d="M336.831 118.02C393.274 118.02 439.031 91.6003 439.031 59.01C439.031 26.4197 393.274 0 336.831 0C280.387 0 234.631 26.4197 234.631 59.01C234.631 91.6003 280.387 118.02 336.831 118.02Z" fill="#FCA70D"/>
<path d="M404.101 166.67C366.951 188.12 306.721 188.12 269.571 166.67L267.831 165.67L267.471 165.89V241C268.151 241.42 268.851 241.84 269.571 242.25C306.721 263.71 366.951 263.71 404.101 242.25C404.821 241.84 405.501 241.41 406.191 240.98V165.87L405.821 165.64C405.261 166 404.691 166.33 404.101 166.67Z" fill="#ECE8F9"/>
<path d="M395.291 223.53C361.001 239 312.661 239 278.381 223.54V233.06C312.651 248.51 361.011 248.51 395.291 233.06V223.53Z" fill="#8C50FF"/>
<path d="M353 198.6C327.23 201.17 300 197.6 278.35 187.82V197.34C300 207.1 327.26 210.69 353 208.13V198.6Z" fill="#8C50FF"/>
<path d="M353 216.16C327.23 218.72 300 215.16 278.35 205.38V214.9C299.98 224.66 327.23 228.25 353 225.69V216.16Z" fill="#8C50FF"/>
<path d="M376.641 192.84V223.07C378.961 222.36 381.871 221.46 384.581 220.59V190.47H384.471C382.001 191.39 378.851 192.27 376.641 192.84Z" fill="#8C50FF"/>
<path d="M392.52 198.14C384.267 201.529 375.689 204.066 366.92 205.71V215.23C375.689 213.586 384.267 211.049 392.52 207.66V198.14Z" fill="#8C50FF"/>
<path opacity="0.4" d="M68.2309 362.54C81.4968 362.54 92.2509 356.33 92.2509 348.67C92.2509 341.01 81.4968 334.8 68.2309 334.8C54.9651 334.8 44.2109 341.01 44.2109 348.67C44.2109 356.33 54.9651 362.54 68.2309 362.54Z" fill="#D6D8E5"/>
<path d="M71.7895 361.65C85.0554 361.65 95.8095 355.44 95.8095 347.78C95.8095 340.12 85.0554 333.91 71.7895 333.91C58.5237 333.91 47.7695 340.12 47.7695 347.78C47.7695 355.44 58.5237 361.65 71.7895 361.65Z" fill="#D9DCE8"/>
<path d="M47.7793 347.56V340.56L55.4093 343.12L47.7793 347.56Z" fill="#D9DCE8"/>
<path d="M95.79 341.08V347.34L87 345.6L95.79 341.08Z" fill="#D9DCE8"/>
<path d="M71.7895 354.52C85.0554 354.52 95.8095 348.31 95.8095 340.65C95.8095 332.99 85.0554 326.78 71.7895 326.78C58.5237 326.78 47.7695 332.99 47.7695 340.65C47.7695 348.31 58.5237 354.52 71.7895 354.52Z" fill="#EFF1F9"/>
<path d="M56.0592 351.12L53.4492 349.61L87.3092 330.07L89.9092 331.57L56.0592 351.12Z" fill="#D3D6E2"/>
<path d="M53.4492 349.61V356.73L55.8092 358.13L56.1392 358.29V351.12L53.4492 349.61Z" fill="#C5C8D3"/>
<path opacity="0.4" d="M130.581 205.7C143.846 205.7 154.601 199.49 154.601 191.83C154.601 184.17 143.846 177.96 130.581 177.96C117.315 177.96 106.561 184.17 106.561 191.83C106.561 199.49 117.315 205.7 130.581 205.7Z" fill="#D6D8E5"/>
<path d="M134.151 204.81C147.417 204.81 158.171 198.6 158.171 190.94C158.171 183.28 147.417 177.07 134.151 177.07C120.885 177.07 110.131 183.28 110.131 190.94C110.131 198.6 120.885 204.81 134.151 204.81Z" fill="#D9DCE8"/>
<path d="M110.131 190.72C110.131 190.66 110.131 183.72 110.131 183.72L117.771 186.28L110.131 190.72Z" fill="#D9DCE8"/>
<path d="M158.15 184.25V190.5L149.35 188.77L158.15 184.25Z" fill="#D9DCE8"/>
<path d="M134.151 197.68C147.417 197.68 158.171 191.47 158.171 183.81C158.171 176.15 147.417 169.94 134.151 169.94C120.885 169.94 110.131 176.15 110.131 183.81C110.131 191.47 120.885 197.68 134.151 197.68Z" fill="#EFF1F9"/>
<path d="M118.411 194.28L115.811 192.78L149.661 173.23L152.261 174.73L118.411 194.28Z" fill="#D3D6E2"/>
<path d="M115.811 192.78V199.89L118.171 201.29L118.501 201.46V194.28L115.811 192.78Z" fill="#C5C8D3"/>
<path opacity="0.4" d="M24.02 276.17C37.2859 276.17 48.04 269.96 48.04 262.3C48.04 254.64 37.2859 248.43 24.02 248.43C10.7541 248.43 0 254.64 0 262.3C0 269.96 10.7541 276.17 24.02 276.17Z" fill="#D6D8E5"/>
<path d="M27.5805 275.27C40.8464 275.27 51.6005 269.06 51.6005 261.4C51.6005 253.74 40.8464 247.53 27.5805 247.53C14.3147 247.53 3.56055 253.74 3.56055 261.4C3.56055 269.06 14.3147 275.27 27.5805 275.27Z" fill="#D9DCE8"/>
<path d="M3.57031 261.19V254.19L11.2003 256.75L3.57031 261.19Z" fill="#D9DCE8"/>
<path d="M51.5791 254.71V260.96L42.7891 259.23L51.5791 254.71Z" fill="#D9DCE8"/>
<path d="M27.5805 268.14C40.8464 268.14 51.6005 261.93 51.6005 254.27C51.6005 246.61 40.8464 240.4 27.5805 240.4C14.3147 240.4 3.56055 246.61 3.56055 254.27C3.56055 261.93 14.3147 268.14 27.5805 268.14Z" fill="#EFF1F9"/>
<path d="M11.8502 264.74L9.24023 263.24L43.0902 243.69L45.7002 245.2L11.8502 264.74Z" fill="#D3D6E2"/>
<path d="M9.24023 263.24V270.36L11.6002 271.75L11.9302 271.92V264.74L9.24023 263.24Z" fill="#C5C8D3"/>
<path opacity="0.4" d="M472.42 376.18C485.686 376.18 496.44 369.97 496.44 362.31C496.44 354.65 485.686 348.44 472.42 348.44C459.155 348.44 448.4 354.65 448.4 362.31C448.4 369.97 459.155 376.18 472.42 376.18Z" fill="#D6D8E5"/>
<path d="M475.981 375.28C489.247 375.28 500.001 369.07 500.001 361.41C500.001 353.75 489.247 347.54 475.981 347.54C462.715 347.54 451.961 353.75 451.961 361.41C451.961 369.07 462.715 375.28 475.981 375.28Z" fill="#D9DCE8"/>
<path d="M452 361.2C452 361.14 452 354.2 452 354.2L459.64 356.76L452 361.2Z" fill="#D9DCE8"/>
<path d="M499.989 354.72V360.97L491.189 359.24L499.989 354.72Z" fill="#D9DCE8"/>
<path d="M475.981 368.15C489.247 368.15 500.001 361.94 500.001 354.28C500.001 346.62 489.247 340.41 475.981 340.41C462.715 340.41 451.961 346.62 451.961 354.28C451.961 361.94 462.715 368.15 475.981 368.15Z" fill="#EFF1F9"/>
<path d="M460.251 364.75L457.641 363.25L491.501 343.7L494.101 345.21L460.251 364.75Z" fill="#D3D6E2"/>
<path d="M457.641 363.25V370.37L460.001 371.76L460.341 371.93V364.75L457.641 363.25Z" fill="#C5C8D3"/>
<path opacity="0.4" d="M188.421 445.93L137.881 416.71L145.191 412.49L195.731 441.71L188.421 445.93Z" fill="#D6D8E5"/>
<path d="M164.77 427.53L187.68 440.51L199.04 418.82L177.57 406.22L164.77 427.53Z" fill="#8C50FF"/>
<path d="M144.18 415.4L163.19 426.49L176.81 405.78L155.46 393.36L144.18 415.4Z" fill="#FCA70D"/>
<path d="M149.849 417.08C156.151 417.08 161.259 411.399 161.259 404.39C161.259 397.382 156.151 391.7 149.849 391.7C143.548 391.7 138.439 397.382 138.439 404.39C138.439 411.399 143.548 417.08 149.849 417.08Z" fill="#FCA70D"/>
<path d="M177.116 420.275C180.554 414.32 180.553 407.884 177.114 405.898C173.675 403.913 168.1 407.13 164.662 413.085C161.225 419.04 161.225 425.477 164.664 427.462C168.103 429.448 173.678 426.23 177.116 420.275Z" fill="#8C50FF"/>
<path d="M193.25 441.85C200.01 441.85 205.49 436.37 205.49 429.61C205.49 422.85 200.01 417.37 193.25 417.37C186.49 417.37 181.01 422.85 181.01 429.61C181.01 436.37 186.49 441.85 193.25 441.85Z" fill="#8C50FF"/>
<path opacity="0.4" d="M174.88 299.04L124.34 269.81L131.65 265.59L182.19 294.82L174.88 299.04Z" fill="#D6D8E5"/>
<path d="M151.23 280.63L174.15 293.61L185.5 271.93L164.03 259.33L151.23 280.63Z" fill="#8C50FF"/>
<path d="M130.641 268.5L149.651 279.6L163.271 258.89L141.921 246.47L130.641 268.5Z" fill="#FCA70D"/>
<path d="M136.31 270.18C142.612 270.18 147.72 264.498 147.72 257.49C147.72 250.481 142.612 244.8 136.31 244.8C130.009 244.8 124.9 250.481 124.9 257.49C124.9 264.498 130.009 270.18 136.31 270.18Z" fill="#FCA70D"/>
<path d="M163.575 273.386C167.013 267.431 167.012 260.994 163.573 259.009C160.134 257.024 154.559 260.241 151.121 266.196C147.684 272.151 147.684 278.588 151.123 280.573C154.562 282.558 160.137 279.341 163.575 273.386Z" fill="#8C50FF"/>
<path d="M179.711 294.95C186.471 294.95 191.951 289.47 191.951 282.71C191.951 275.95 186.471 270.47 179.711 270.47C172.951 270.47 167.471 275.95 167.471 282.71C167.471 289.47 172.951 294.95 179.711 294.95Z" fill="#8C50FF"/>
<path opacity="0.4" d="M362.389 476.6C383.801 476.6 401.159 466.58 401.159 454.22C401.159 441.86 383.801 431.84 362.389 431.84C340.977 431.84 323.619 441.86 323.619 454.22C323.619 466.58 340.977 476.6 362.389 476.6Z" fill="#D6D8E5"/>
<path d="M394.451 283.71C394.891 287.59 399.511 304.3 398.521 310.02C397.531 315.74 381.741 325.32 381.741 325.32L379.561 315.52L388.301 307L385.931 290.77L394.451 283.71Z" fill="#FFCEA9"/>
<path d="M382.24 267.25C383.772 266.543 385.509 266.422 387.124 266.91C388.738 267.399 390.118 268.463 391 269.9C393.33 273.75 395.74 286.95 396 289.2C396 289.2 392.74 293.7 387.85 292.95L382.24 267.25Z" fill="#EDEDED"/>
<path d="M364.21 453.54C360.777 454.491 357.108 454.049 354 452.31C351.54 452.38 338.18 446.66 336.37 451.46C334.77 455.67 340.56 459.57 343.65 460.31C350.4 461.95 355.39 465.31 358.1 465.88C360.1 466.31 362.73 466.59 364.34 465C366.26 463.1 366.09 456.05 364.21 453.54Z" fill="#38226D"/>
<path d="M358.089 464.72C355.379 464.15 350.389 460.78 343.639 459.15C341.049 458.52 336.589 455.69 336.139 452.31C335.539 456.18 340.759 459.62 343.639 460.31C350.389 461.95 355.379 465.31 358.089 465.88C360.089 466.31 362.719 466.59 364.329 465C364.747 464.54 365.052 463.989 365.219 463.39C364.216 464.15 363.049 464.666 361.811 464.897C360.574 465.127 359.299 465.067 358.089 464.72Z" fill="#9C73FF"/>
<path d="M385.87 443.82C382.432 444.765 378.761 444.32 375.65 442.58C373.19 442.65 359.84 436.94 358.02 441.74C356.43 445.94 362.21 449.84 365.31 450.59C372.05 452.22 377.04 455.59 379.75 456.16C381.75 456.58 384.39 456.86 386 455.27C387.93 453.37 387.76 446.32 385.87 443.82Z" fill="#38226D"/>
<path d="M379.75 455C377.04 454.43 372.05 451.06 365.31 449.43C362.72 448.8 358.25 445.97 357.8 442.59C357.2 446.46 362.42 449.9 365.31 450.59C372.05 452.22 377.04 455.59 379.75 456.16C381.75 456.58 384.39 456.86 386 455.27C386.414 454.809 386.715 454.257 386.88 453.66C385.877 454.421 384.71 454.939 383.473 455.172C382.235 455.404 380.96 455.345 379.75 455Z" fill="#9C73FF"/>
<path d="M386.14 407.52C385.562 402.559 384.528 397.661 383.05 392.89C383.05 392.89 383.97 380.27 384.43 368.3C384.96 354.71 389.67 342.76 385.95 331.92L344 341.24C344 341.24 346.53 395.39 347.09 401.95C347.416 407.054 348.054 412.134 349 417.16C350.92 427.67 354 452.68 354 452.68C358.43 455.25 364.25 453.83 364.25 453.83C364.25 453.83 363.93 422.2 363.64 414.63C363.29 405.38 363.01 406.08 363.01 406.08L364.4 383.08L365.3 371.62C365.3 371.62 366.46 380.03 367.22 387.55C367.87 394.1 369.46 400.02 371.22 412.22C372.76 422.8 375.22 444.06 375.22 444.06C379.65 446.63 385.67 444.49 385.67 444.49C385.67 444.49 387.33 416.7 386.14 407.52Z" fill="#8C50FF"/>
<path d="M380 267.48C376.81 267.63 374.44 268.48 374 267.48C373.655 265.83 373.411 264.16 373.27 262.48C373.64 261.55 373.95 260.55 373.95 260.55C377.95 258.09 379.23 253.75 379.76 248.71C380.65 240.09 376 232.54 367.37 231.64C359.27 230.79 353.3 236.49 351.71 244.31C350.86 248.18 349.15 255.47 351.45 261.83C352.74 265.38 354.45 268.2 356.07 268.75C357.673 268.702 359.272 268.561 360.86 268.33C360.86 268.33 361.29 270.72 361.59 272.26C361.89 273.8 361.77 274.61 358.7 276.5C355.63 278.39 363.33 282.26 368.36 281.88C373.39 281.5 379.03 278.46 380.58 275.22C382.36 271.64 382.21 267.37 380 267.48Z" fill="#FFCEA9"/>
<path d="M375.401 268C376.281 270.21 374.031 272.9 368.041 274.79C362.051 276.68 361.501 274.25 361.501 274.25C361.501 274.25 352.721 278.25 349.851 280.25C346.251 282.77 344.661 290.04 344.171 302.33C343.611 316.55 343.561 337.65 344.041 341.33C344.041 341.33 350.761 348.03 359.371 347.33C367.981 346.63 382.451 338.91 386.001 333C385.911 320.53 384.451 318.5 386.471 311.32C391.091 294.88 393.521 288.15 391.281 277.22C389.421 268.22 386.831 267.09 383.281 267.22C380.642 267.34 378.012 267.601 375.401 268Z" fill="#F4F4F4"/>
<path d="M330.65 316.42C337.71 318.2 339.37 313.75 340.3 310.06C342.54 301.13 343.75 293.06 345.43 288C347.43 282 349.43 281.08 352.37 279.91C355.78 278.54 358.71 281.43 357.58 289.03C356.24 298.03 354.47 304.35 351.11 315.03C350.23 317.81 348.26 322.75 345.31 325.14C341.67 328.09 336.18 327.96 327.87 325.89C324.33 325.01 320.45 322.89 313.75 319.77C311.95 318.93 310.56 318.38 307.11 316.77C303.66 315.16 300.06 312.48 298.25 309.86C296.44 307.24 296.2 306.01 296.57 305.41C296.94 304.81 297.86 304.83 298.82 305.93C300.217 307.79 301.938 309.382 303.9 310.63C303.9 310.63 301.67 308.33 300.46 306.83C299.38 305.502 298.482 304.036 297.79 302.47C297.15 300.94 298.47 298.87 299.47 299.95C300.47 301.03 300.94 302.15 302.77 304.34C303.732 305.507 304.83 306.554 306.04 307.46C304.914 305.925 303.911 304.303 303.04 302.61C302.26 301.286 301.878 299.765 301.94 298.23C301.99 297.43 303.12 296.48 304.17 297.99C305.22 299.5 305.75 301.48 307.97 303.79C309.58 305.46 310.97 306.42 310.97 305.96C310.97 305.5 309.97 304.58 309.42 302.63C308.87 300.68 309.42 298.63 310.5 298.39C311.58 298.15 311.37 298.23 312.23 300.05C313.09 301.87 314.43 303.22 315.44 305.89C315.988 307.767 316.983 309.483 318.34 310.89C320.09 312.69 323.93 314.73 330.65 316.42Z" fill="#FFCEA9"/>
<path d="M355 278.69C350.28 278 346.95 280.12 344.87 287.26C342.79 294.4 341.33 300.26 341.33 300.26C343.192 302.96 346.02 304.839 349.23 305.51C354.87 306.88 356.9 304.18 356.9 304.18C356.9 304.18 358.46 296.69 359.44 291.6C360.42 286.51 360.82 279.55 355 278.69Z" fill="#EDEDED"/>
<path d="M352.001 243.22C352.001 243.22 344.551 231.89 360.701 229.59C372.341 227.92 379.821 235.4 380.701 243.52C381.521 251.28 376.701 259.33 373.301 262.52C371.621 263.12 367.991 263.46 363.241 261.3C363.045 259.206 362.965 257.103 363.001 255C363.001 255 368.711 243 352.001 243.22Z" fill="#3A2C6D"/>
<path d="M390.19 293.42L344.04 336.42L341.32 419.13C341.32 419.13 354.25 425.43 368.96 422.03L371.61 390.21L375.71 419.09L375.23 419.96C381.23 417.39 387.23 412.96 392.52 405.57L390.19 293.42Z" fill="#F4F4F4"/>
<path d="M341.319 300.27L339.049 310.27C339.049 310.27 337.109 317.27 332.199 315.48C327.289 313.69 318.529 308.78 318.529 308.78L312.529 321.01L324.869 326.79C324.869 326.79 341.979 332.89 346.749 326.79C351.519 320.69 356.849 304.21 356.849 304.21L341.319 300.27Z" fill="#EDEDED"/>
<path d="M396 289.2L398 298.72C398 298.72 399 305.88 399 307.25C399 308.62 399.67 311.02 395.72 314.95C391.77 318.88 390.72 320.07 390.72 320.07L390.17 297.77L391.31 292.62L394.62 288.45L396 289.2Z" fill="#EDEDED"/>
</g>
<defs>
<clipPath id="clip0_361_3904">
<rect width="500" height="476.61" fill="white"/>
</clipPath>
</defs>
</svg>
