<svg width="369" height="288" viewBox="0 0 369 288" fill="none" xmlns="http://www.w3.org/2000/svg">
<path opacity="0.4" d="M206.92 143.617L167.43 120.817L172.38 117.947L211.88 140.737L206.92 143.617Z" fill="#D6D8E5"/>
<path d="M222.181 135.016L182.531 112.116L187.491 66.8965L217.231 84.0665L222.181 135.016Z" fill="#C65555"/>
<path d="M211.881 140.736L172.221 117.846L177.181 72.6265L206.921 89.7965L211.881 140.736Z" fill="#FF6C6C"/>
<path d="M211.88 140.736L222.18 135.016L217.23 84.0664L206.92 89.7964L211.88 140.736Z" fill="#DD6262"/>
<path d="M177.18 72.6265L187.49 66.8965L186.28 77.8765L177.18 72.6265Z" fill="#C65555"/>
<path d="M199.481 85.3965L197.651 84.3365C197.651 80.0665 195.141 75.1465 192.051 73.3365C188.961 71.5265 186.461 73.5765 186.461 77.8465L184.621 76.7865C184.621 71.3565 187.961 68.8565 192.051 71.2165C196.141 73.5765 199.481 79.9665 199.481 85.3965Z" fill="#20232D"/>
<path d="M209.141 79.4863L207.311 78.4263C207.311 74.1563 204.801 69.2363 201.711 67.4263C198.621 65.6163 196.121 67.6663 196.121 71.9363L194.281 70.8763C194.281 65.4463 197.621 62.9463 201.711 65.3063C205.801 67.6663 209.141 74.1063 209.141 79.4863Z" fill="#20232D"/>
<path opacity="0.4" d="M171.4 172.537L114.5 139.707L121.64 135.557L178.54 168.397L171.4 172.537Z" fill="#D6D8E5"/>
<path d="M193.38 160.146L136.26 127.166L143.4 62.0264L186.24 86.7664L193.38 160.146Z" fill="#C65555"/>
<path d="M178.54 168.396L121.41 135.416L128.55 70.2764L171.4 95.0063L178.54 168.396Z" fill="#FF6C6C"/>
<path d="M178.54 168.397L193.38 160.147L186.24 86.7666L171.4 95.0066L178.54 168.397Z" fill="#DD6262"/>
<path d="M128.5 70.7559L143.35 62.5059L141.61 78.3258L128.5 70.7559Z" fill="#C65555"/>
<path d="M174.611 80.1664L171.971 78.6364C171.971 72.4864 168.351 65.3964 163.911 62.8264C159.471 60.2564 155.841 63.1764 155.841 69.3264L153.201 67.8064C153.201 59.9664 158.011 56.3764 163.911 59.8064C169.811 63.2364 174.611 72.3264 174.611 80.1664Z" fill="#20232D"/>
<path opacity="0.4" d="M211.39 172.426L192.09 161.356L213.81 148.816L233.11 159.896L211.39 172.426Z" fill="#D6D8E5"/>
<path d="M218.571 145.966L197.871 134.016L218.571 122.066L239.271 134.016L218.571 145.966Z" fill="#EFDA86"/>
<path d="M237.87 158.447L218.57 169.587V147.297L237.87 136.157V158.447Z" fill="#D1B66B"/>
<path d="M218.571 169.587L199.271 158.447V136.157L218.571 147.297V169.587Z" fill="#E2C979"/>
<path opacity="0.1" d="M199.271 136.157V141.987L218.571 153.007V147.327L199.271 136.157Z" fill="black"/>
<path opacity="0.1" d="M237.87 136.157V142.407L218.57 153.007V147.327L237.87 136.157Z" fill="black"/>
<path d="M197.871 134.017V140.197L218.571 151.987V145.967L197.871 134.017Z" fill="#E2C979"/>
<path d="M218.57 151.987L239.27 140.677V134.017L218.57 145.967V151.987Z" fill="#D1B66B"/>
<path d="M322.729 167.94L276.619 141.32L322.729 114.7L368.839 141.32L322.729 167.94Z" fill="#EFDA86"/>
<path d="M365.73 195.73L322.73 220.56V170.91L365.73 146.09V195.73Z" fill="#D1B66B"/>
<path d="M322.73 220.56L279.74 195.73V146.09L322.73 170.91V220.56Z" fill="#E2C979"/>
<path opacity="0.1" d="M279.74 146.09V159.08L322.73 183.62V170.97L279.74 146.09Z" fill="black"/>
<path opacity="0.1" d="M365.73 146.09V160.01L322.74 183.62L322.73 170.97L365.73 146.09Z" fill="black"/>
<path d="M276.619 141.32V155.09L322.729 181.35V167.94L276.619 141.32Z" fill="#E2C979"/>
<path d="M322.73 181.35L368.84 156.16V141.32L322.73 167.94V181.35Z" fill="#D1B66B"/>
<path d="M267.649 199.33L221.539 172.71L267.649 146.09L313.759 172.71L267.649 199.33Z" fill="#EFDA86"/>
<path d="M310.64 227.13L267.65 251.95V202.31L310.64 177.49V227.13Z" fill="#D1B66B"/>
<path d="M267.65 251.95L224.66 227.13V177.49L267.65 202.31V251.95Z" fill="#E2C979"/>
<path opacity="0.1" d="M224.66 177.49V190.48L267.65 215.01V202.36L224.66 177.49Z" fill="black"/>
<path opacity="0.1" d="M310.64 177.49V191.4L267.65 215.01V202.36L310.64 177.49Z" fill="black"/>
<path d="M221.539 172.71V186.48L267.649 212.74V199.33L221.539 172.71Z" fill="#E2C979"/>
<path d="M267.65 212.74L313.76 187.56V172.71L267.65 199.33V212.74Z" fill="#D1B66B"/>
<path opacity="0.05" d="M267.439 186.9L245.109 173.71L269.289 159.75L291.619 172.94L267.439 186.9Z" fill="black"/>
<path d="M270.34 157.68L246.15 143.72L270.34 129.75L294.52 143.72L270.34 157.68Z" fill="#EFDA86"/>
<path d="M292.88 172.26L270.34 185.27V159.24L292.88 146.22V172.26Z" fill="#D1B66B"/>
<path d="M270.339 185.27L247.789 172.26V146.22L270.339 159.24V185.27Z" fill="#E2C979"/>
<path opacity="0.1" d="M247.789 146.22V153.03L270.339 165.9V159.26L247.789 146.22Z" fill="black"/>
<path opacity="0.1" d="M292.88 146.22V153.52L270.34 165.9V159.26L292.88 146.22Z" fill="black"/>
<path d="M246.15 143.72V150.94L270.34 164.71V157.68L246.15 143.72Z" fill="#E2C979"/>
<path d="M270.34 164.71L294.52 151.5V143.72L270.34 157.68V164.71Z" fill="#D1B66B"/>
<path opacity="0.4" d="M229.59 287.51L195.18 267.55L232.05 246.26L266.46 266.22L229.59 287.51Z" fill="#D6D8E5"/>
<path d="M233.46 243.18L196.59 221.89L233.46 200.6L270.34 221.89L233.46 243.18Z" fill="#EFDA86"/>
<path d="M267.841 265.4L233.461 285.26V245.56L267.841 225.7V265.4Z" fill="#D1B66B"/>
<path d="M233.46 285.26L199.08 265.4V225.7L233.46 245.56V285.26Z" fill="#E2C979"/>
<path opacity="0.1" d="M199.08 225.7V236.09L233.46 255.71V245.6L199.08 225.7Z" fill="black"/>
<path opacity="0.1" d="M267.841 225.7V236.83L233.461 255.71V245.6L267.841 225.7Z" fill="black"/>
<path d="M196.59 221.89V232.9L233.46 253.9V243.18L196.59 221.89Z" fill="#E2C979"/>
<path d="M233.461 253.9L270.341 233.76V221.89L233.461 243.18V253.9Z" fill="#D1B66B"/>
<path opacity="0.4" d="M320.299 266.22L287.699 247.48L312.419 233.2L345.009 251.95L320.299 266.22Z" fill="#D6D8E5"/>
<path d="M324.089 235.74L289.949 216L314.669 201.73L348.809 221.47L324.089 235.74Z" fill="#EFDA86"/>
<path d="M347.14 250.64L324.09 263.95V237.33L347.14 224.03V250.64Z" fill="#D1B66B"/>
<path d="M324.089 263.95L291.619 245.17V218.56L324.089 237.33V263.95Z" fill="#E2C979"/>
<path opacity="0.1" d="M291.619 218.56V225.53L324.089 244.14V237.36L291.619 218.56Z" fill="black"/>
<path opacity="0.1" d="M347.14 224.03V231.49L324.09 244.14V237.36L347.14 224.03Z" fill="black"/>
<path d="M289.949 216V223.38L324.089 242.93V235.74L289.949 216Z" fill="#E2C979"/>
<path d="M324.09 242.93L348.81 229.43V221.47L324.09 235.74V242.93Z" fill="#D1B66B"/>
<path opacity="0.4" d="M71.0106 129.44L32.1406 107L87.0606 76.0601L125.931 98.5L71.0106 129.44Z" fill="#D6D8E5"/>
<path d="M73.2606 81.11L34.3906 58.67L89.3106 27.73L128.181 50.17L73.2606 81.11Z" fill="#EFDA86"/>
<path d="M125.55 96.0399L73.2598 125.46V83.61L125.55 54.1899V96.0399Z" fill="#D1B66B"/>
<path d="M73.2595 125.46L37.0195 104.54V62.6899L73.2595 83.61V125.46Z" fill="#E2C979"/>
<path opacity="0.1" d="M37.0195 62.6899V73.64L73.2595 94.3199V83.6599L37.0195 62.6899Z" fill="black"/>
<path opacity="0.1" d="M125.55 54.1899V65.9299L73.2598 94.3199V83.6599L125.55 54.1899Z" fill="black"/>
<path d="M34.3906 58.6699V70.2699L73.2606 92.4099V81.1099L34.3906 58.6699Z" fill="#E2C979"/>
<path d="M73.2598 92.4099L128.18 62.6899V50.1699L73.2598 81.1099V92.4099Z" fill="#D1B66B"/>
<path d="M18.68 135.23L0 124.45L26.39 109.58L45.06 120.36L18.68 135.23Z" fill="#EFDA86"/>
<path d="M43.7997 142.4L18.6797 156.53V136.43L43.7997 122.3V142.4Z" fill="#D1B66B"/>
<path d="M18.6795 156.53L1.26953 146.48V126.38L18.6795 136.43V156.53Z" fill="#E2C979"/>
<path opacity="0.1" d="M1.26953 126.38V131.64L18.6795 141.57V136.45L1.26953 126.38Z" fill="black"/>
<path opacity="0.1" d="M43.7997 122.3V127.93L18.6797 141.57V136.45L43.7997 122.3Z" fill="black"/>
<path d="M0 124.45V130.02L18.68 140.66V135.23L0 124.45Z" fill="#E2C979"/>
<path d="M18.6797 140.66L45.0597 126.38V120.36L18.6797 135.23V140.66Z" fill="#D1B66B"/>
<path d="M86.6806 36.42L55.1406 18.2L86.6806 0L118.221 18.2L86.6806 36.42Z" fill="#EFDA86"/>
<path opacity="0.05" d="M83.2209 74.2598L53.3809 57.5498L84.9309 39.3398L114.761 56.0498L83.2209 74.2598Z" fill="black"/>
<path d="M116.09 55.4302L86.6797 72.4102V38.4502L116.09 21.4702V55.4302Z" fill="#D1B66B"/>
<path d="M86.6795 72.4102L57.2695 55.4302V21.4702L86.6795 38.4502V72.4102Z" fill="#E2C979"/>
<path opacity="0.1" d="M57.2695 21.4702V30.3602L86.6795 47.1402V38.4802L57.2695 21.4702Z" fill="black"/>
<path opacity="0.1" d="M116.09 21.4702V30.9902L86.6797 47.1402V38.4802L116.09 21.4702Z" fill="black"/>
<path d="M55.1406 18.2002V27.6202L86.6806 45.5902V36.4202L55.1406 18.2002Z" fill="#E2C979"/>
<path d="M86.6797 45.5902L118.22 28.3602V18.2002L86.6797 36.4202V45.5902Z" fill="#D1B66B"/>
<path opacity="0.4" d="M76.7897 196.64L36.6797 173.62L79.6997 148.78L119.81 171.81L76.7897 196.64Z" fill="#D6D8E5"/>
<path d="M81.2898 144.94L38.2598 120.1L81.2898 95.2598L124.31 120.1L81.2898 144.94Z" fill="#EFDA86"/>
<path d="M121.399 170.87L81.2891 194.03V147.71L121.399 124.55V170.87Z" fill="#D1B66B"/>
<path d="M81.2899 194.03L41.1699 170.87V124.55L81.2899 147.71V194.03Z" fill="#E2C979"/>
<path opacity="0.1" d="M41.1699 124.55V136.67L81.2899 159.56V147.76L41.1699 124.55Z" fill="black"/>
<path opacity="0.1" d="M121.399 124.55V137.54L81.2891 159.56V147.76L121.399 124.55Z" fill="black"/>
<path d="M38.2598 120.1V132.94L81.2898 157.45V144.94L38.2598 120.1Z" fill="#E2C979"/>
<path d="M81.2891 157.45L124.309 133.95V120.1L81.2891 144.94V157.45Z" fill="#D1B66B"/>
<path d="M119.759 113.156C103.559 85.8555 76.2895 72.1555 58.8495 82.4655L43.6895 91.1755L49.4995 100.846C50.4345 99.3569 51.5422 97.9841 52.7995 96.7555C67.5395 91.9755 87.7995 103.386 100.299 124.396C112.799 145.406 113.059 168.686 101.809 179.336C100.33 179.801 98.8044 180.107 97.2595 180.246L102.929 189.666L117.499 181.316C134.939 170.966 135.949 140.446 119.759 113.156Z" fill="#D6D8E5"/>
<path d="M105.18 121.515C88.9796 94.2154 61.7096 80.5154 44.2696 90.8254C26.8296 101.135 25.8196 131.695 42.0196 158.995C58.2196 186.295 85.4896 199.995 102.93 189.675C120.37 179.355 121.38 148.795 105.18 121.515ZM101.81 179.345C87.0596 184.125 66.8096 172.715 54.3096 151.695C41.8096 130.675 41.5496 107.415 52.7996 96.7654C67.5396 91.9854 87.7996 103.395 100.3 124.405C112.8 145.415 113.06 168.685 101.81 179.335V179.345Z" fill="#B1B4C4"/>
<path d="M54.3305 151.685C41.8605 130.685 41.5705 107.405 52.8205 96.7554C59.2505 94.6654 66.7405 95.6654 74.1705 99.1954C65.0505 94.8554 55.8605 94.2854 48.6305 98.5754C33.7805 107.385 32.8405 133.245 46.5305 156.315C60.2205 179.385 83.3705 190.955 98.2205 182.145C99.5264 181.348 100.737 180.406 101.83 179.335C87.0605 184.115 66.7805 172.705 54.3305 151.685Z" fill="#A1A5B5"/>
<path opacity="0.2" d="M100.329 124.395C87.8593 103.395 67.5693 91.9754 52.8293 96.7554C41.5793 107.405 41.8293 130.675 54.3393 151.685C66.8493 172.695 87.0893 184.115 101.839 179.335C113.059 168.685 112.769 145.415 100.329 124.395Z" fill="#3A7CFF"/>
<path d="M120.619 158.226L153.309 177.076V185.496L120.619 166.646V158.226Z" fill="#B1B4C4"/>
<path d="M127.909 154.016L160.599 172.866L153.309 177.076L120.619 158.226L127.909 154.016Z" fill="#D6D8E5"/>
<path d="M146.38 172.316C149.47 167.096 154.68 164.476 158.01 166.456L217.39 200.976L206.08 219.776L146.81 185.326C143.48 183.346 143.33 177.516 146.38 172.316Z" fill="#37B9C5"/>
<path d="M217.709 213.916C214.609 219.126 209.409 221.756 206.079 219.776C202.749 217.796 202.549 211.976 205.649 206.776C208.749 201.576 213.949 198.936 217.279 200.916C220.609 202.896 220.799 208.706 217.709 213.916Z" fill="#37B9C5"/>
<path opacity="0.1" d="M217.762 213.692C214.662 218.902 209.462 221.532 206.132 219.552C202.802 217.573 202.602 211.753 205.702 206.553C208.802 201.353 214.002 198.712 217.332 200.692C220.662 202.672 220.852 208.482 217.762 213.692Z" fill="black"/>
<path d="M163.681 90.2049L161.041 88.6349C161.041 82.4849 157.421 75.3949 152.981 72.8349C148.541 70.2749 144.911 73.1749 144.911 79.3249L142.271 77.8049C142.271 69.9749 147.071 66.3749 152.981 69.8049C158.891 73.2349 163.681 82.3749 163.681 90.2049Z" fill="#20232D"/>
</svg>
