<svg width="378" height="451" viewBox="0 0 378 451" fill="none" xmlns="http://www.w3.org/2000/svg">
<path opacity="0.4" d="M50.54 274.23L0 245.01L7.31 240.79L57.85 270.01L50.54 274.23Z" fill="#D6D8E5"/>
<path d="M26.8887 255.83L49.7987 268.81L61.1587 247.12L39.6887 234.52L26.8887 255.83Z" fill="#D1D5DB"/>
<path d="M6.29883 243.7L25.3088 254.79L38.9288 234.08L17.5788 221.66L6.29883 243.7Z" fill="#FCA70D"/>
<path d="M11.9686 245.38C18.2702 245.38 23.3786 239.698 23.3786 232.69C23.3786 225.682 18.2702 220 11.9686 220C5.66703 220 0.558594 225.682 0.558594 232.69C0.558594 239.698 5.66703 245.38 11.9686 245.38Z" fill="#FCA70D"/>
<path d="M39.2351 248.575C42.6731 242.62 42.6723 236.183 39.2334 234.198C35.7944 232.213 30.2196 235.43 26.7816 241.385C23.3437 247.34 23.3444 253.777 26.7834 255.762C30.2223 257.747 35.7971 254.53 39.2351 248.575Z" fill="#D1D5DB"/>
<path d="M55.3689 270.15C62.1289 270.15 67.6089 264.67 67.6089 257.91C67.6089 251.15 62.1289 245.67 55.3689 245.67C48.6089 245.67 43.1289 251.15 43.1289 257.91C43.1289 264.67 48.6089 270.15 55.3689 270.15Z" fill="#D1D5DB"/>
<path opacity="0.4" d="M267.54 394.23L217 365.01L224.31 360.79L274.85 390.01L267.54 394.23Z" fill="#D6D8E5"/>
<path d="M243.889 375.83L266.799 388.81L278.159 367.12L256.689 354.52L243.889 375.83Z" fill="#50555C"/>
<path d="M223.299 363.7L242.309 374.79L255.929 354.08L234.579 341.66L223.299 363.7Z" fill="#FCA70D"/>
<path d="M228.969 365.38C235.27 365.38 240.379 359.698 240.379 352.69C240.379 345.682 235.27 340 228.969 340C222.667 340 217.559 345.682 217.559 352.69C217.559 359.698 222.667 365.38 228.969 365.38Z" fill="#FCA70D"/>
<path d="M256.235 368.575C259.673 362.62 259.672 356.183 256.233 354.198C252.794 352.213 247.22 355.43 243.782 361.385C240.344 367.34 240.344 373.777 243.783 375.762C247.222 377.747 252.797 374.53 256.235 368.575Z" fill="#50555C"/>
<path d="M272.369 390.15C279.129 390.15 284.609 384.67 284.609 377.91C284.609 371.15 279.129 365.67 272.369 365.67C265.609 365.67 260.129 371.15 260.129 377.91C260.129 384.67 265.609 390.15 272.369 390.15Z" fill="#50555C"/>
<path opacity="0.4" d="M37.4138 376C46.4789 376 53.8276 371.948 53.8276 366.949C53.8276 361.951 46.4789 357.899 37.4138 357.899C28.3487 357.899 21 361.951 21 366.949C21 371.948 28.3487 376 37.4138 376Z" fill="#D6D8E5"/>
<path d="M53.8283 334.02H23.7363C23.7363 334.02 23.8391 359.383 23.7616 364.196C23.7416 364.412 23.7358 364.629 23.7442 364.847C23.7442 364.892 23.7442 364.927 23.7363 364.949H23.749C23.8676 367.065 25.3303 369.159 28.1434 370.774C34.0179 374.146 43.5499 374.146 49.4165 370.782C52.2296 369.167 53.686 367.073 53.8109 364.957H53.8283V334.02Z" fill="#ADB3BC"/>
<path d="M38.7823 342.493C47.092 342.493 53.8283 338.613 53.8283 333.828C53.8283 329.042 47.092 325.162 38.7823 325.162C30.4726 325.162 23.7363 329.042 23.7363 333.828C23.7363 338.613 30.4726 342.493 38.7823 342.493Z" fill="#8C50FF"/>
<path d="M54.6103 335.263C54.4517 335.674 54.2507 336.067 54.0104 336.438C53.5304 337.17 52.942 337.826 52.2649 338.386C52.0649 338.56 51.8539 338.728 51.6301 338.892C51.1849 339.222 50.7196 339.524 50.2368 339.796C50.1321 339.856 50.0289 339.914 49.9194 339.97C49.7052 340.088 49.483 340.202 49.2561 340.31C48.715 340.572 48.1453 340.813 47.5629 341.028C47.3455 341.109 47.1265 341.184 46.9028 341.26C46.3426 341.446 45.7666 341.609 45.1762 341.753C44.9779 341.803 44.7779 341.85 44.5764 341.892C43.9988 342.02 43.4137 342.124 42.8213 342.206C42.6197 342.236 42.4198 342.264 42.2183 342.287C41.6375 342.357 41.0556 342.409 40.4727 342.444C40.2727 342.455 40.0728 342.466 39.8697 342.47C39.2857 342.496 38.7001 342.499 38.1241 342.486C37.9226 342.486 37.7226 342.475 37.5211 342.466C36.9339 342.439 36.3484 342.397 35.766 342.333C35.5644 342.311 35.3629 342.289 35.163 342.261C34.5726 342.185 33.9871 342.088 33.4094 341.974C33.2079 341.935 33.0064 341.891 32.808 341.847C32.2103 341.712 31.6258 341.556 31.0545 341.377C30.853 341.314 30.6498 341.249 30.4515 341.181C29.8469 340.974 29.2597 340.743 28.6964 340.486C28.4933 340.395 28.2917 340.299 28.0965 340.201C27.8289 340.067 27.5676 339.927 27.3126 339.782C26.9699 339.586 26.6477 339.386 26.3414 339.176C26.132 339.037 25.9304 338.891 25.7384 338.742C25.0842 338.247 24.4947 337.674 23.9833 337.036C23.7632 336.758 23.5633 336.465 23.3851 336.159C21.5189 332.946 22.8281 329.266 27.3126 326.709C33.6443 323.106 43.9131 323.106 50.2479 326.709C52.03 327.724 53.3074 328.915 54.0882 330.185C54.2957 330.522 54.472 330.875 54.615 331.243C55.129 332.535 55.1273 333.972 54.6103 335.263Z" fill="#EF990F"/>
<path d="M22.5625 332.865C22.5625 332.79 22.5625 328.628 22.5625 328.628L27.643 330.747L22.5625 332.865Z" fill="#EF990F"/>
<path d="M55.0002 328.628L54.9955 332.896L52.0868 335.176L50.3105 331.262L55.0002 328.628Z" fill="#EF990F"/>
<path d="M24.1271 330.939V337.101C23.9833 336.812 23.8527 336.507 23.7363 336.189V330.939H24.1271Z" fill="#DD8910"/>
<path d="M26.4709 332.48V338.642C26.3351 338.504 26.2045 338.36 26.0801 338.213V332.48H26.4709Z" fill="#DD8910"/>
<path d="M28.8166 334.791V340.182C28.6842 340.1 28.5529 340.013 28.4258 339.923V334.791H28.8166Z" fill="#DD8910"/>
<path d="M31.1605 335.176V340.953C30.8993 340.894 30.636 340.831 30.3789 340.768V335.183L31.1605 335.176Z" fill="#DD8910"/>
<path d="M33.5062 335.946V341.338C33.2443 341.302 32.9824 341.262 32.7246 341.222V335.946H33.5062Z" fill="#DD8910"/>
<path d="M35.4592 336.331V342.493C35.3286 342.469 35.1979 342.445 35.0684 342.415V336.331H35.4592Z" fill="#DD8910"/>
<path d="M37.8049 336.331V342.493C37.6743 342.493 37.5447 342.482 37.4141 342.472V336.331H37.8049Z" fill="#DD8910"/>
<path d="M40.9302 336.331V342.465C40.5415 342.477 40.1527 342.488 39.7578 342.493V336.336L40.9302 336.331Z" fill="#DD8910"/>
<path d="M42.4945 336.331V342.027C42.2333 342.057 41.9741 342.085 41.7129 342.108V336.331H42.4945Z" fill="#DD8910"/>
<path d="M45.2306 335.946V341.214C45.1014 341.258 44.9711 341.3 44.8398 341.338V335.946H45.2306Z" fill="#DD8910"/>
<path d="M47.5744 334.791V340.724C47.4457 340.805 47.3161 340.879 47.1836 340.953V334.791H47.5744Z" fill="#DD8910"/>
<path d="M49.9203 333.635V339.846C49.6678 339.962 49.4061 340.076 49.1387 340.183V333.635H49.9203Z" fill="#DD8910"/>
<path d="M52.264 331.709V338.113C52.0178 338.294 51.7579 338.47 51.4824 338.642V331.709H52.264Z" fill="#DD8910"/>
<path d="M54.2189 329.784V335.098C54.1156 335.529 53.9847 335.942 53.8281 336.331V329.784H54.2189Z" fill="#DD8910"/>
<path d="M38.7809 337.486C47.7381 337.486 54.9993 333.348 54.9993 328.243C54.9993 323.138 47.7381 319 38.7809 319C29.8237 319 22.5625 323.138 22.5625 328.243C22.5625 333.348 29.8237 337.486 38.7809 337.486Z" fill="#FCA70D"/>
<path d="M49.5848 344.967C43.6192 348.353 33.9474 348.353 27.9818 344.967L27.7023 344.809L27.6445 344.843V356.701C27.7537 356.767 27.8661 356.833 27.9818 356.898C33.9474 360.286 43.6192 360.286 49.5848 356.898C49.7004 356.833 49.8096 356.766 49.9204 356.698V344.84L49.861 344.804C49.7711 344.861 49.6795 344.913 49.5848 344.967Z" fill="#ECE8F9"/>
<path d="M41.322 350.032C37.1398 350.361 32.7206 349.905 29.207 348.656V349.871C32.7206 351.118 37.1446 351.576 41.322 351.249V350.032Z" fill="#111111"/>
<path d="M41.322 352.736C37.1398 353.157 32.7206 352.572 29.207 350.966V352.53C32.7174 354.132 37.1398 354.722 41.322 354.301V352.736Z" fill="#111111"/>
<path d="M45.2305 349.02V353.662C45.573 353.553 46.0027 353.415 46.4029 353.281V348.656H46.3866C46.0219 348.797 45.5568 348.932 45.2305 349.02Z" fill="#111111"/>
<path d="M47.5741 349.811C46.3142 350.345 45.0047 350.746 43.666 351.005V352.507C45.0047 352.247 46.3142 351.847 47.5741 351.313V349.811Z" fill="#111111"/>
<path opacity="0.4" d="M360.414 451C369.479 451 376.828 446.948 376.828 441.949C376.828 436.951 369.479 432.899 360.414 432.899C351.349 432.899 344 436.951 344 441.949C344 446.948 351.349 451 360.414 451Z" fill="#D6D8E5"/>
<path d="M376.828 409.02H346.736C346.736 409.02 346.839 434.383 346.762 439.196C346.742 439.412 346.736 439.629 346.744 439.847C346.744 439.892 346.744 439.927 346.736 439.949H346.749C346.868 442.065 348.33 444.159 351.143 445.774C357.018 449.146 366.55 449.146 372.416 445.782C375.23 444.167 376.686 442.073 376.811 439.957H376.828V409.02Z" fill="#37B9C5"/>
<path d="M361.782 417.493C370.092 417.493 376.828 413.613 376.828 408.828C376.828 404.042 370.092 400.162 361.782 400.162C353.473 400.162 346.736 404.042 346.736 408.828C346.736 413.613 353.473 417.493 361.782 417.493Z" fill="#8C50FF"/>
<path d="M377.61 410.263C377.452 410.674 377.251 411.067 377.01 411.438C376.53 412.17 375.942 412.826 375.265 413.386C375.065 413.56 374.854 413.728 374.63 413.892C374.185 414.222 373.72 414.524 373.237 414.796C373.132 414.856 373.029 414.914 372.919 414.97C372.705 415.088 372.483 415.202 372.256 415.31C371.715 415.572 371.145 415.813 370.563 416.028C370.345 416.109 370.127 416.184 369.903 416.26C369.343 416.446 368.767 416.609 368.176 416.753C367.978 416.803 367.778 416.85 367.576 416.892C366.999 417.02 366.414 417.124 365.821 417.206C365.62 417.236 365.42 417.264 365.218 417.287C364.637 417.357 364.056 417.409 363.473 417.444C363.273 417.455 363.073 417.466 362.87 417.47C362.286 417.496 361.7 417.499 361.124 417.486C360.923 417.486 360.723 417.475 360.521 417.466C359.934 417.439 359.348 417.397 358.766 417.333C358.564 417.311 358.363 417.289 358.163 417.261C357.573 417.185 356.987 417.088 356.409 416.974C356.208 416.935 356.006 416.891 355.808 416.847C355.21 416.712 354.626 416.556 354.055 416.377C353.853 416.314 353.65 416.249 353.451 416.181C352.847 415.974 352.26 415.743 351.696 415.486C351.493 415.395 351.292 415.299 351.097 415.201C350.829 415.067 350.568 414.927 350.313 414.782C349.97 414.586 349.648 414.386 349.341 414.176C349.132 414.037 348.93 413.891 348.738 413.742C348.084 413.247 347.495 412.674 346.983 412.036C346.763 411.758 346.563 411.465 346.385 411.159C344.519 407.946 345.828 404.266 350.313 401.709C356.644 398.106 366.913 398.106 373.248 401.709C375.03 402.724 376.307 403.915 377.088 405.185C377.296 405.522 377.472 405.875 377.615 406.243C378.129 407.535 378.127 408.972 377.61 410.263Z" fill="#EF990F"/>
<path d="M345.562 407.865C345.562 407.79 345.562 403.628 345.562 403.628L350.643 405.747L345.562 407.865Z" fill="#EF990F"/>
<path d="M378 403.628L377.995 407.896L375.087 410.176L373.311 406.262L378 403.628Z" fill="#EF990F"/>
<path d="M347.127 405.939V412.101C346.983 411.812 346.853 411.507 346.736 411.189V405.939H347.127Z" fill="#DD8910"/>
<path d="M349.471 407.48V413.642C349.335 413.504 349.205 413.36 349.08 413.213V407.48H349.471Z" fill="#DD8910"/>
<path d="M351.817 409.791V415.182C351.684 415.1 351.553 415.013 351.426 414.923V409.791H351.817Z" fill="#DD8910"/>
<path d="M354.161 410.176V415.953C353.899 415.894 353.636 415.831 353.379 415.768V410.183L354.161 410.176Z" fill="#DD8910"/>
<path d="M356.506 410.946V416.338C356.244 416.302 355.982 416.262 355.725 416.222V410.946H356.506Z" fill="#DD8910"/>
<path d="M358.459 411.331V417.493C358.329 417.469 358.198 417.445 358.068 417.415V411.331H358.459Z" fill="#DD8910"/>
<path d="M360.805 411.331V417.493C360.674 417.493 360.545 417.482 360.414 417.472V411.331H360.805Z" fill="#DD8910"/>
<path d="M363.93 411.331V417.465C363.541 417.477 363.153 417.488 362.758 417.493V411.336L363.93 411.331Z" fill="#DD8910"/>
<path d="M365.494 411.331V417.027C365.233 417.057 364.974 417.085 364.713 417.108V411.331H365.494Z" fill="#DD8910"/>
<path d="M368.231 410.946V416.214C368.101 416.258 367.971 416.3 367.84 416.338V410.946H368.231Z" fill="#DD8910"/>
<path d="M370.574 409.791V415.724C370.446 415.805 370.316 415.879 370.184 415.953V409.791H370.574Z" fill="#DD8910"/>
<path d="M372.92 408.635V414.846C372.668 414.962 372.406 415.076 372.139 415.183V408.635H372.92Z" fill="#DD8910"/>
<path d="M375.264 406.709V413.113C375.018 413.294 374.758 413.47 374.482 413.642V406.709H375.264Z" fill="#DD8910"/>
<path d="M377.219 404.784V410.098C377.116 410.529 376.985 410.942 376.828 411.331V404.784H377.219Z" fill="#DD8910"/>
<path d="M361.781 412.486C370.738 412.486 377.999 408.348 377.999 403.243C377.999 398.138 370.738 394 361.781 394C352.824 394 345.562 398.138 345.562 403.243C345.562 408.348 352.824 412.486 361.781 412.486Z" fill="#FCA70D"/>
<path d="M372.585 419.967C366.619 423.353 356.947 423.353 350.982 419.967L350.702 419.809L350.645 419.843V431.701C350.754 431.767 350.866 431.833 350.982 431.898C356.947 435.286 366.619 435.286 372.585 431.898C372.7 431.833 372.81 431.766 372.92 431.698V419.84L372.861 419.804C372.771 419.861 372.68 419.913 372.585 419.967Z" fill="#ECE8F9"/>
<path d="M364.322 425.032C360.14 425.361 355.721 424.905 352.207 423.656V424.871C355.721 426.118 360.145 426.576 364.322 426.249V425.032Z" fill="#FFC618"/>
<path d="M364.322 427.736C360.14 428.157 355.721 427.572 352.207 425.966V427.53C355.717 429.132 360.14 429.722 364.322 429.301V427.736Z" fill="#FFC618"/>
<path d="M368.23 424.02V428.662C368.573 428.553 369.003 428.415 369.403 428.281V423.656H369.387C369.022 423.797 368.557 423.932 368.23 424.02Z" fill="#FFC618"/>
<path d="M370.574 424.811C369.314 425.345 368.005 425.746 366.666 426.005V427.507C368.005 427.247 369.314 426.847 370.574 426.313V424.811Z" fill="#FFC618"/>
<path d="M160.97 34.173L103.16 0.792948C102.604 0.410152 101.97 0.157427 101.303 0.0535532C100.637 -0.0503211 99.9555 -0.00268102 99.3099 0.192942C99.0631 0.294972 98.8311 0.429503 98.6199 0.592951L92.1699 4.28295L97.1699 10.1529V34.253C97.2822 36.3374 97.8839 38.3661 98.9263 40.1747C99.9687 41.9833 101.423 43.5209 103.17 44.6629L121.17 55.9729L126.06 67.1829L120.91 75.9129L128.08 71.8129L134.89 63.903L156.62 75.673L157.79 82.673L165.11 78.493L165.31 78.3729H165.38C165.939 77.9223 166.377 77.3403 166.656 76.6791C166.935 76.0178 167.047 75.2977 166.98 74.583V44.5829C166.867 42.4976 166.263 40.4683 165.219 38.6596C164.175 36.851 162.719 35.3139 160.97 34.173Z" fill="#FF7B7B"/>
<path d="M153.81 38.2731L96 4.90306C92.68 2.98306 90 4.53306 90 8.36306V38.3631C90.1123 40.4475 90.714 42.4762 91.7564 44.2848C92.7988 46.0934 94.2526 47.631 96 48.7731L114 60.0931L120.91 75.9231L127.72 68.0131L153.8 82.153C157.12 84.063 159.8 82.5131 159.8 78.6831V48.6831C159.689 46.5995 159.089 44.5713 158.048 42.7628C157.007 40.9543 155.556 39.4162 153.81 38.2731Z" fill="#E26D6D"/>
</svg>
