<svg width="500" height="372" viewBox="0 0 500 372" fill="none" xmlns="http://www.w3.org/2000/svg">
<g clip-path="url(#clip0_361_4719)">
<path opacity="0.4" d="M131.791 367.72L7.13054 295.72C-3.42946 289.63 -2.10946 278.98 10.1305 271.94L311.221 98.1C323.421 91.1 341.861 90.29 352.421 96.39L477.081 168.39C487.641 174.49 486.311 185.14 474.081 192.18L173.001 366C160.791 373.05 142.351 373.81 131.791 367.72Z" fill="#D6D8E5"/>
<path d="M147.58 358.24L22.9201 286.24C12.3601 280.14 13.6901 269.49 25.9201 262.45L327 88.6198C339.2 81.6198 357.64 80.8198 368.2 86.9098L492.86 158.91C503.42 165 502.1 175.65 489.86 182.69L188.78 356.53C176.58 363.57 158.14 364.34 147.58 358.24Z" fill="#B1B4C4"/>
<path d="M15.791 275.79V264.31L29.251 269.39L15.791 275.79Z" fill="#B1B4C4"/>
<path d="M500.001 168.83V157.79L489.291 164.69L500.001 168.83Z" fill="#B1B4C4"/>
<path d="M147.58 348.53L22.9201 276.53C12.3601 270.44 13.6901 259.79 25.9201 252.75L327 78.91C339.2 71.91 357.64 71.1 368.2 77.2L492.86 149.2C503.42 155.3 502.1 165.95 489.86 172.99L188.78 346.82C176.58 353.86 158.14 354.62 147.58 348.53Z" fill="#616E84"/>
<path d="M37.9685 291.293C38.6094 290.923 38.6119 289.727 37.974 288.622C37.3361 287.518 36.2994 286.922 35.6585 287.292C35.0176 287.662 35.0152 288.858 35.653 289.962C36.2909 291.067 37.3276 291.663 37.9685 291.293Z" fill="#757B89"/>
<path d="M43.9646 294.759C44.6055 294.389 44.608 293.194 43.9701 292.089C43.3322 290.984 42.2955 290.388 41.6546 290.758C41.0137 291.128 41.0113 292.324 41.6491 293.429C42.287 294.534 43.3237 295.129 43.9646 294.759Z" fill="#757B89"/>
<path d="M49.9744 298.225C50.6153 297.855 50.6177 296.659 49.9799 295.554C49.342 294.449 48.3053 293.854 47.6644 294.224C47.0235 294.594 47.021 295.789 47.6589 296.894C48.2968 297.999 49.3335 298.595 49.9744 298.225Z" fill="#757B89"/>
<path d="M55.9705 301.691C56.6114 301.321 56.6138 300.125 55.9759 299.02C55.3381 297.916 54.3014 297.32 53.6605 297.69C53.0196 298.06 53.0171 299.256 53.655 300.36C54.2929 301.465 55.3296 302.061 55.9705 301.691Z" fill="#757B89"/>
<path d="M107.917 332.754C108.561 332.384 108.566 331.184 107.928 330.074C107.29 328.964 106.251 328.364 105.607 328.734C104.963 329.104 104.959 330.304 105.596 331.414C106.234 332.524 107.273 333.124 107.917 332.754Z" fill="#757B89"/>
<path d="M113.49 334.901C114.131 334.531 114.133 333.336 113.495 332.231C112.858 331.126 111.821 330.53 111.18 330.9C110.539 331.27 110.537 332.466 111.175 333.571C111.812 334.676 112.849 335.271 113.49 334.901Z" fill="#757B89"/>
<path d="M119.49 338.367C120.131 337.997 120.133 336.801 119.495 335.696C118.858 334.591 117.821 333.996 117.18 334.366C116.539 334.736 116.537 335.931 117.175 337.036C117.812 338.141 118.849 338.737 119.49 338.367Z" fill="#757B89"/>
<path d="M125.488 341.833C126.129 341.463 126.131 340.267 125.494 339.162C124.856 338.058 123.819 337.462 123.178 337.832C122.537 338.202 122.535 339.398 123.173 340.502C123.81 341.607 124.847 342.203 125.488 341.833Z" fill="#757B89"/>
<path d="M88.8212 321.83L72.3412 312.32C71.7655 311.908 71.2946 311.367 70.9663 310.74C70.638 310.113 70.4616 309.418 70.4512 308.71C70.4512 307.31 71.2912 306.71 72.3412 307.28L88.8212 316.79C89.3976 317.203 89.869 317.746 90.1972 318.375C90.5255 319.004 90.7015 319.701 90.7112 320.41C90.7112 321.8 89.8712 322.44 88.8212 321.83Z" fill="#757B89"/>
<path d="M462.27 196.15L446.94 205C445.94 205.56 445.18 205 445.18 203.67C445.19 203.013 445.355 202.367 445.661 201.785C445.967 201.203 446.405 200.701 446.94 200.32L462.27 191.47C463.27 190.91 464.02 191.47 464.02 192.8C464.011 193.456 463.848 194.101 463.544 194.683C463.24 195.265 462.803 195.767 462.27 196.15Z" fill="#757B89"/>
<path d="M438.791 209.71L423.461 218.56C422.461 219.12 421.701 218.56 421.701 217.23C421.712 216.571 421.877 215.925 422.182 215.341C422.488 214.758 422.926 214.254 423.461 213.87L438.791 205C439.791 204.44 440.541 205 440.541 206.33C440.536 206.991 440.375 207.642 440.071 208.23C439.767 208.817 439.328 209.324 438.791 209.71Z" fill="#757B89"/>
<path d="M147.58 346.76L22.9201 274.76C12.3601 268.66 13.6901 258.01 25.9201 250.97L327 77.1398C339.2 70.1398 357.64 69.3399 368.2 75.4299L492.86 147.43C503.42 153.52 502.1 164.17 489.86 171.21L188.78 345.05C176.58 352.09 158.14 352.86 147.58 346.76Z" fill="#20232D"/>
<path d="M479.491 150.28L430.821 122.18L430.701 122.25C424.951 125.57 415.631 125.57 409.881 122.25C404.131 118.93 404.131 113.54 409.881 110.25L410.001 110.19L361.331 82.0897C353.941 77.8197 341.951 77.8197 334.561 82.0897L41.271 251.39C33.881 255.65 33.881 262.57 41.271 266.84L159.421 335.06C166.821 339.33 178.801 339.33 186.191 335.06L479.491 165.73C486.881 161.46 486.881 154.54 479.491 150.28Z" fill="white"/>
<path opacity="0.5" d="M479.49 165.73L186.2 335.06C179.52 338.92 169.07 339.28 161.67 336.16C160.903 335.844 160.158 335.476 159.44 335.06L41.2801 266.84C39.6465 265.963 38.2289 264.733 37.1301 263.24C34.3401 259.24 35.7201 254.59 41.2801 251.39L334.56 82.05C341.95 77.79 353.93 77.79 361.33 82.05L410 110.16L409.88 110.23C404.13 113.55 404.13 118.92 409.88 122.23C415.63 125.54 424.96 125.56 430.7 122.23L430.81 122.17L479.49 150.27C486.88 154.55 486.88 161.46 479.49 165.73Z" fill="url(#paint0_linear_361_4719)"/>
<path d="M417.09 121.31C420.177 121.31 422.68 119.863 422.68 118.08C422.68 116.296 420.177 114.85 417.09 114.85C414.003 114.85 411.5 116.296 411.5 118.08C411.5 119.863 414.003 121.31 417.09 121.31Z" fill="#2B303F"/>
<path opacity="0.1" d="M415.441 119C415.233 118.939 415.051 118.813 414.921 118.64C414.791 118.467 414.721 118.256 414.721 118.04C414.721 117.824 414.791 117.613 414.921 117.44C415.051 117.267 415.233 117.141 415.441 117.08C415.955 116.824 416.521 116.69 417.096 116.69C417.67 116.69 418.237 116.824 418.751 117.08C418.958 117.141 419.141 117.267 419.271 117.44C419.401 117.613 419.471 117.824 419.471 118.04C419.471 118.256 419.401 118.467 419.271 118.64C419.141 118.813 418.958 118.939 418.751 119C418.237 119.256 417.67 119.39 417.096 119.39C416.521 119.39 415.955 119.256 415.441 119Z" fill="white"/>
<path d="M355.43 212.24L251.12 152C245.06 148.5 245.82 142.39 252.82 138.35L323 97.8502C330 93.8502 340.6 93.3602 346.66 96.8502L451 157.09C457.06 160.59 456.3 166.7 449.3 170.75L379.13 211.26C372.08 215.3 361.49 215.74 355.43 212.24Z" fill="#E9EAF2"/>
<path d="M358.771 142.29L321.211 148.1L327.241 135.11L268.361 144.22L284.821 153.72L311.461 169.1L338.961 184.98L358.771 142.29Z" fill="#DADCE5"/>
<path d="M407.03 171.65C417.319 171.65 425.66 166.832 425.66 160.89C425.66 154.947 417.319 150.13 407.03 150.13C396.741 150.13 388.4 154.947 388.4 160.89C388.4 166.832 396.741 171.65 407.03 171.65Z" fill="#DADCE5"/>
<path d="M248.93 273.72L144.62 213.5C138.56 210 139.32 203.89 146.32 199.84L216.48 159.33C223.48 155.33 234.08 154.85 240.14 158.33L344.45 218.55C350.51 222.06 349.75 228.17 342.75 232.21L272.58 272.72C265.58 276.79 255 277.22 248.93 273.72Z" fill="#E9EAF2"/>
<path d="M236.251 293.72L166.081 334.22C164.686 335.025 163.207 335.676 161.671 336.16C160.904 335.844 160.159 335.477 159.441 335.06L41.2809 266.84C39.6473 265.963 38.2296 264.734 37.1309 263.24C37.961 262.515 38.8622 261.875 39.8209 261.33L110.001 220.82C117.001 216.82 127.601 216.34 133.661 219.82L238.001 280.06C244.001 283.56 243.251 289.67 236.251 293.72Z" fill="#E9EAF2"/>
<path d="M145.771 265.26L108.211 271.07L114.241 258.08L55.3613 267.19L71.8313 276.7L98.4613 292.08L125.961 307.95L145.771 265.26Z" fill="#DADCE5"/>
<path d="M194.03 294.63C204.319 294.63 212.66 289.812 212.66 283.87C212.66 277.927 204.319 273.11 194.03 273.11C183.741 273.11 175.4 277.927 175.4 283.87C175.4 289.812 183.741 294.63 194.03 294.63Z" fill="#DADCE5"/>
<path d="M437.132 141.35L435.021 140.13L438.551 138.09L440.661 139.31L437.132 141.35Z" fill="#E9EAF2"/>
<path d="M439.96 142.98L437.84 141.76L442.78 138.91L444.9 140.13L439.96 142.98Z" fill="#E9EAF2"/>
<path d="M442.78 144.61L440.66 143.39L447.72 139.31L449.84 140.53L442.78 144.61Z" fill="#E9EAF2"/>
<path d="M445.6 146.24L443.49 145.02L453.37 139.31L455.49 140.53L445.6 146.24Z" fill="#E9EAF2"/>
<path d="M454.78 151.54L451.49 149.64L458.07 145.83L461.37 147.73L454.78 151.54Z" fill="#E9EAF2"/>
<path d="M459.171 154.07L455.881 152.17L462.471 148.37L465.761 150.27L459.171 154.07Z" fill="#E9EAF2"/>
<path d="M463.561 156.61L460.271 154.71L466.861 150.9L470.151 152.81L463.561 156.61Z" fill="#E9EAF2"/>
<path d="M304.32 61.06L201.14 1.48999C198.34 -0.120015 195.8 -0.380015 193.86 0.489985C193.592 0.611426 193.334 0.755269 193.09 0.919985L182.32 6.91999L190.16 17.92V95.78C190.16 102.78 195.08 111.3 201.16 114.78L241.58 138.11L246.5 150.8L241.34 173.25L252.75 166.91L263.9 151L298.9 171.22L300.13 181.71L311.43 175.41C313.78 174.41 315.28 171.86 315.28 168V80.08C315.3 73.08 310.39 64.56 304.32 61.06Z" fill="#EDEEF7"/>
<path d="M292.91 67.4001L189.73 7.83013C183.67 4.33013 178.73 7.17013 178.73 14.1701V102.17C178.73 109.17 183.65 117.69 189.73 121.17L230.15 144.5L241.32 173.3L252.49 157.4L292.91 180.74C298.98 184.24 303.91 181.4 303.91 174.4V86.4201C303.89 79.4201 299 70.9001 292.91 67.4001Z" fill="#F8F9FF"/>
<path d="M263.281 96.4201C262.621 87.6801 257.491 78.6501 251.081 74.9401C246.811 72.4801 242.891 72.8701 240.691 75.8601C238.511 70.2901 234.761 65.5201 230.551 63.0901C224.141 59.3901 219.011 62.5001 218.351 70.4801C218.188 72.3888 218.32 74.3113 218.741 76.1801C219.851 81.73 221.973 87.0283 225.001 91.8101L240.701 117.33L256.701 110.1C259.851 108.62 262.011 105.71 262.941 101.68C263.348 99.9582 263.463 98.1801 263.281 96.4201Z" fill="#FF5757"/>
<path opacity="0.05" d="M243.831 229.57C260.842 229.57 274.631 221.609 274.631 211.79C274.631 201.97 260.842 194.01 243.831 194.01C226.821 194.01 213.031 201.97 213.031 211.79C213.031 221.609 226.821 229.57 243.831 229.57Z" fill="black"/>
</g>
<defs>
<linearGradient id="paint0_linear_361_4719" x1="260.38" y1="338.26" x2="260.38" y2="78.86" gradientUnits="userSpaceOnUse">
<stop offset="0.21" stop-color="white" stop-opacity="0"/>
<stop offset="1" stop-color="white" stop-opacity="0.2"/>
</linearGradient>
<clipPath id="clip0_361_4719">
<rect width="500" height="371.83" fill="white"/>
</clipPath>
</defs>
</svg>
