<svg width="163" height="160" viewBox="0 0 163 160" fill="none" xmlns="http://www.w3.org/2000/svg">
<path d="M16.787 80.977C17.039 99.3748 19.5166 114.026 32.6328 127.212C45.1853 139.831 60.3606 145.334 77.9443 146.308C117.77 148.514 153.133 115.346 155.125 75.9388C157.263 33.625 111.923 3.58417 72.7974 10.0544C52.6101 13.3929 32.2977 24.9704 19.9914 41.4143C8.20907 57.1581 6.70403 77.1701 10.9052 95.6044" stroke="black" stroke-width="7.1861" stroke-linecap="round"/>
<path d="M80.2564 93.2569C76.8973 86.643 75.6217 76.9982 80.6934 70.8373C85.9777 64.4181 93.4272 78.0787 95.1229 81.7628" stroke="black" stroke-width="7.1861" stroke-linecap="round"/>
<path d="M95.6184 81.3796C95.9765 78.58 97.5932 75.4145 99.0243 72.9838C100.605 70.2995 103.096 65.9989 106.399 65.1703C109.299 64.4429 111.518 66.8767 112.822 69.0681C114.862 72.4952 114.733 75.0696 114.25 78.8512" stroke="black" stroke-width="7.1861" stroke-linecap="round"/>
<path d="M115.782 80.8334C112.287 80.737 117.345 80.2916 118.436 80.255C122.837 80.1074 128.571 79.1407 132.702 81.2118C136.772 83.252 137.555 87.3152 135.259 90.8913C132.593 95.0447 128.674 96.3486 123.976 97.0638" stroke="black" stroke-width="7.1861" stroke-linecap="round"/>
<path d="M80.4813 91.4995C80.3639 93.1333 81.2564 94.3855 82.1264 95.704C86.3631 102.124 90.3277 108.707 94.361 115.255C102.661 128.729 110.022 143.248 120.072 155.507" stroke="black" stroke-width="7.1861" stroke-linecap="round"/>
<path d="M65.2578 117.469C74.8031 118.475 85.0786 118.518 94.669 118.545" stroke="black" stroke-width="7.1861" stroke-linecap="round"/>
<path d="M44.1337 79.2377C49.4934 79.7297 54.8743 79.073 60.2239 79.7574" stroke="black" stroke-width="7.1861" stroke-linecap="round"/>
</svg>
