<svg width="304" height="221" viewBox="0 0 304 221" fill="none" xmlns="http://www.w3.org/2000/svg">
<path d="M10.8123 146.807C13.8071 145.231 17.4545 144.815 20.9763 145.07C24.5464 145.328 28.2949 146.295 31.7156 147.809C38.2274 150.691 45.0018 156.305 45.0076 164.178C46.2717 163.814 47.6894 164.181 48.613 165.237C51.9859 169.091 56.1002 174.318 58.6658 180.089C61.2367 185.873 62.4599 192.711 59.1707 199.29C52.874 211.883 38.2089 221.507 23.3044 220.152C11.0125 219.034 -0.000218926 209.936 -0.000244141 196.607C-0.000244141 190.959 3.56005 186.934 6.80737 184.141C10.4022 181.05 11.8583 179.005 14.5955 175.051C15.4725 173.784 15.735 172.931 15.7947 172.406C15.8481 171.936 15.766 171.516 15.4998 171.013C14.8043 169.7 13.2736 168.425 10.7234 166.338C8.10426 164.195 5.40953 161.048 4.74976 157.373C4.39926 155.419 4.63715 153.339 5.7478 151.388C6.83059 149.487 8.58648 147.979 10.8123 146.807ZM20.4705 152.051C17.7119 151.852 15.5098 152.245 14.073 153.001C12.6632 153.743 12.0731 154.425 11.8298 154.852C11.6144 155.23 11.5467 155.619 11.6394 156.136C11.8664 157.4 13.0556 159.202 15.156 160.92C15.309 161.046 15.4664 161.174 15.6277 161.305L15.6326 161.309C17.6664 162.963 20.2859 165.093 21.6863 167.739C22.524 169.321 22.9824 171.148 22.7498 173.196C22.5232 175.189 21.6731 177.127 20.3513 179.037C17.5217 183.124 15.6574 185.761 11.3708 189.448C8.51376 191.905 6.99976 194.143 6.99976 196.607C6.99978 205.49 14.3665 212.311 23.9382 213.181C35.5986 214.241 47.7252 206.529 52.9099 196.16C54.8953 192.189 54.3942 187.714 52.2693 182.933C50.1388 178.14 46.5848 173.549 43.3455 169.847C42.7666 169.186 42.4813 168.367 42.4792 167.552C42.1708 167.641 41.8446 167.688 41.5076 167.688C39.5746 167.688 38.0076 166.121 38.0076 164.188C38.0073 160.635 34.6844 156.778 28.8826 154.21C26.145 152.999 23.1809 152.247 20.4705 152.051ZM127.247 0.0756741C151.019 -0.79552 173.298 5.76123 189.343 24.6431C202.445 40.0629 207.619 61.484 201.78 81.2095C196.243 99.9106 180.873 116.677 164.319 125.874C141.061 138.795 116.117 138.461 91.7957 130.787C69.0722 123.616 45.6537 105.995 42.2898 80.272C42.2668 80.2706 42.2435 80.2709 42.2205 80.269C40.2937 80.1148 38.8564 78.4273 39.0105 76.5005C42.6693 30.7696 84.0818 1.65764 127.247 0.0756741ZM285.089 79.5659C286.791 78.7926 288.828 78.2532 291.025 78.5376C293.292 78.8311 295.35 79.9527 297.1 81.8374C300.111 85.0793 301.859 89.607 302.813 93.9311C303.781 98.3147 304.023 102.897 303.725 106.618C303.122 114.154 300.224 120.052 295.75 124.277C291.321 128.458 285.573 130.794 279.551 131.678C267.616 133.431 253.805 129.61 244.654 121.766C243.187 120.508 243.017 118.299 244.274 116.832C245.532 115.364 247.742 115.194 249.21 116.452C256.773 122.934 268.535 126.221 278.534 124.752C283.478 124.026 287.787 122.169 290.944 119.188C294.055 116.25 296.271 112.015 296.748 106.059C296.991 103.012 296.791 99.1273 295.977 95.4399C295.15 91.6933 293.777 88.5452 291.97 86.6001C291.181 85.7498 290.563 85.5365 290.127 85.48C289.621 85.4145 288.928 85.5103 287.984 85.939C285.976 86.8515 283.913 88.7421 281.971 90.6147C281.73 90.8471 281.484 91.0855 281.232 91.3286C276.354 96.0428 269.535 102.632 262.719 105.661C258.579 107.501 255.085 105.076 253.215 103.505C252.829 103.182 252.443 102.834 252.073 102.49L251.029 101.497L251.024 101.493C250.835 101.31 250.657 101.139 250.495 100.986C249.658 100.194 249.186 99.8161 248.905 99.6626C248.525 99.4554 248.153 99.2331 247.833 99.0415L247.736 98.9839C247.439 98.806 247.182 98.6517 246.924 98.5054C246.337 98.1736 245.961 98.0099 245.698 97.9399C245.622 97.9197 245.573 97.9124 245.546 97.9097C245.479 97.9468 245.3 98.0689 245.023 98.4067C243.32 100.489 243.154 102.168 243.53 103.667C243.968 105.416 245.271 107.368 247.354 109.451C248.721 110.818 248.721 113.034 247.354 114.401C245.988 115.767 243.772 115.767 242.405 114.401C239.963 111.959 237.63 108.919 236.74 105.37C235.788 101.571 236.603 97.6439 239.605 93.9741C240.643 92.7063 241.892 91.7345 243.389 91.2456C244.898 90.7533 246.319 90.8613 247.501 91.1763C248.633 91.4781 249.627 91.9919 250.372 92.4136C250.711 92.6058 251.045 92.8065 251.331 92.978L251.429 93.0366C251.754 93.2313 252.016 93.3858 252.257 93.5171C253.441 94.1631 254.517 95.1532 255.308 95.9028L256.019 96.5825C256.617 97.1572 257.144 97.6639 257.716 98.144C259.36 99.524 259.791 99.3069 259.87 99.2671L259.877 99.2632C265.524 96.7533 271.561 90.9305 276.749 85.9263L277.112 85.5757C278.912 83.8398 281.806 81.0573 285.089 79.5659ZM184.009 29.1763C169.738 12.3816 149.808 6.25331 127.503 7.07079C88.9753 8.48291 53.2304 33.033 46.7849 70.6977C48.0165 71.2396 48.8765 72.471 48.8767 73.9028C48.8768 98.5614 70.5552 116.743 93.9031 124.111C116.942 131.381 139.789 131.494 160.92 119.754C176.187 111.273 190.146 95.8474 195.068 79.2231C200.196 61.9025 195.676 42.9078 184.009 29.1763ZM129.688 90.9282C130.746 90.2646 132.126 90.1901 133.287 90.853C135.349 92.0315 137.916 94.1674 139.504 96.8188C140.313 98.1714 140.981 99.8488 141.012 101.723C141.045 103.687 140.373 105.599 138.942 107.25C136.004 110.639 130.545 114.082 124.555 111.031C121.798 109.626 120.327 107.178 119.825 104.664C119.34 102.233 119.727 99.6887 120.611 97.5395C121.488 95.4083 123.006 93.3 125.177 92.0366C126.538 91.2449 128.083 90.8379 129.688 90.9282ZM129.913 98.1167C129.346 97.8169 129.039 97.8882 128.698 98.0864C128.193 98.3802 127.544 99.0862 127.085 100.202C126.633 101.299 126.519 102.436 126.69 103.293C126.845 104.068 127.19 104.517 127.732 104.793C129.434 105.661 131.557 105.082 133.652 102.665C133.984 102.282 134.017 102.033 134.013 101.84C134.009 101.558 133.896 101.081 133.498 100.416C133.1 99.7512 132.532 99.0926 131.907 98.5054C131.241 98.5741 130.549 98.4533 129.913 98.1167ZM91.2576 51.8579C92.9098 50.8549 95.063 51.3816 96.0662 53.0337C97.3623 55.1686 98.4376 57.4276 99.4226 59.5483C100.433 61.7229 101.337 63.727 102.371 65.6225C103.296 67.3194 102.671 69.4449 100.974 70.3706C99.2774 71.2961 97.1509 70.671 96.2253 68.9741C95.0546 66.8278 94.0319 64.5599 93.074 62.4975C92.0911 60.3815 91.1568 58.437 90.0818 56.6665C89.079 55.0143 89.6055 52.861 91.2576 51.8579ZM140.502 37.269C142.399 36.9001 144.236 38.1392 144.605 40.0366C145.657 45.444 147.148 50.656 148.529 56.2788C148.99 58.1558 147.843 60.051 145.966 60.5122C144.088 60.9732 142.192 59.8257 141.731 57.9487C140.434 52.6661 138.828 46.9964 137.734 41.3725C137.365 39.4751 138.604 37.638 140.502 37.269Z" fill="black"/>
</svg>
