<svg width="149" height="156" viewBox="0 0 149 156" fill="none" xmlns="http://www.w3.org/2000/svg">
<path d="M57.6189 4.0608C79.1603 -4.36841 100.778 1.05645 117.393 13.6018C133.957 26.1077 145.833 45.8687 148.111 66.7756C150.708 90.6066 146.601 112.956 131.213 132.462C119.663 147.102 100.06 155.078 82.1423 155.857C49.4265 157.279 17.973 137.123 6.18529 106.555C5.10387 106.252 4.18634 105.437 3.80443 104.291C1.09033 96.1489 -0.865151 88.2168 0.387435 78.9114C1.83749 68.1399 5.38554 58.1553 10.5193 48.7434C20.6764 30.1223 37.0812 12.0973 57.6189 4.0608ZM113.176 19.1887C98.104 7.80922 79.0188 3.20365 60.1697 10.5794C41.6493 17.8265 26.3245 34.3865 16.6648 52.096C11.8853 60.8583 8.64644 70.0285 7.32493 79.845C6.74271 84.1701 6.97582 88.1799 7.75267 92.2463C8.80265 92.6552 9.63654 93.5632 9.90111 94.7454C17.2267 127.495 48.788 150.299 81.8376 148.863C98.199 148.151 115.699 140.827 125.718 128.127C139.444 110.727 143.455 90.7717 141.281 68.7756C140.447 70.6361 139.501 72.4312 138.523 74.1067C135.137 79.9111 130.06 83.0436 124.627 85.3723C122.85 86.1335 120.793 85.3108 120.031 83.5344C119.844 83.098 119.753 82.6445 119.748 82.1975C119.261 81.6731 118.962 81.0336 118.857 80.3674C118.787 80.2581 118.731 80.1699 118.701 80.1253C117.062 77.6662 115.692 75.2457 114.508 72.4661L114.273 71.9055C113.185 69.2513 111.776 65.6909 111.085 62.0081C110.399 58.3527 110.32 54.0604 112.463 50.2512C113.531 48.3519 115.136 46.8909 117.306 46.4602C119.339 46.0571 121.172 46.7032 122.49 47.427C125.074 48.8461 127.227 51.4061 128.369 53.0979C128.757 53.6727 129.12 54.2495 129.465 54.8274C130.889 53.2369 132.529 51.9299 133.627 51.1565L134.067 50.8606C134.567 50.5404 135.234 50.1609 135.959 49.8547C136.136 49.7798 136.333 49.705 136.544 49.6321C131.637 37.6525 123.394 26.9044 113.176 19.1887ZM120.6 102.373C122.533 102.373 124.1 103.94 124.1 105.873C124.1 109.313 123.755 113.003 122.087 116.154C120.302 119.523 117.242 121.851 112.774 122.921C107.957 124.074 103.788 122.912 100.47 120.509C97.2714 118.192 94.9569 114.804 93.3484 111.497C92.503 109.759 93.2268 107.665 94.9646 106.82C96.7028 105.974 98.7977 106.698 99.6433 108.436C100.968 111.159 102.647 113.442 104.577 114.84C106.388 116.152 108.485 116.75 111.144 116.114C113.913 115.45 115.174 114.25 115.901 112.878C116.744 111.287 117.1 109.021 117.1 105.873C117.1 103.94 118.667 102.373 120.6 102.373ZM87.6531 60.5188C89.0517 60.1221 91.3027 59.8454 93.3396 61.2512L93.5368 61.3928L93.8357 61.634C95.2678 62.8775 95.7574 64.6242 95.9675 65.5735C96.215 66.6916 96.3061 67.9487 96.3562 68.4055C96.6841 71.3952 96.997 75.2937 96.2507 78.8508C94.2871 88.2101 87.8065 94.4278 80.7292 98.8977C79.2913 99.8056 77.4459 99.5367 76.3201 98.346C74.4029 99.5405 72.354 98.8439 71.4187 98.386C70.2628 97.82 69.218 96.9274 68.4363 96.1829C66.8815 94.702 65.2578 92.6754 64.9529 92.3323C62.7878 89.8965 60.463 86.8359 58.821 83.4085C57.181 79.9848 56.1157 75.9682 56.823 71.7629C57.2235 69.3822 58.4219 66.593 60.4294 64.6682C61.4684 63.6721 62.8573 62.7861 64.5779 62.4885C66.354 62.1815 68.1362 62.5623 69.7722 63.5247C72.1637 64.9315 74.0709 66.9615 75.6101 68.9036C75.9481 69.33 76.2793 69.77 76.6042 70.2122C76.6624 70.1027 76.7098 70.011 76.7478 69.9426L77.073 69.3811C78.7587 66.5792 81.3272 63.9164 84.0603 62.2014L84.3816 62.0032C85.1842 61.5182 86.3526 60.8878 87.6531 60.5188ZM89.1872 67.384C88.7582 67.5566 88.2714 67.8234 87.781 68.1311C85.8885 69.3187 83.9758 71.3461 82.8669 73.342C82.7783 73.5016 82.6315 73.7877 82.4646 74.1282C83.539 75.7253 83.1226 77.8922 81.529 78.9758C81.0278 79.3167 80.2865 79.7644 79.4089 79.9602C78.9654 80.0591 78.3113 80.1307 77.5681 79.9524C76.2127 80.2746 74.7378 79.7664 73.8904 78.5559C72.5902 76.6986 71.4661 74.9458 70.1238 73.2522C68.8075 71.5915 67.5331 70.3298 66.2224 69.5588C66.0147 69.4367 65.8874 69.4012 65.8367 69.3909C65.7908 69.3816 65.7749 69.3852 65.7702 69.386C65.7592 69.3879 65.5836 69.4233 65.2732 69.721C64.5808 70.385 63.9351 71.6831 63.7263 72.9241C63.337 75.2387 63.8752 77.7553 65.1345 80.384C66.392 83.0089 68.263 85.5203 70.1843 87.6819C70.9292 88.5199 71.9756 89.886 73.2644 91.1135C73.5772 91.4115 73.8381 91.6325 74.0427 91.7913C75.1702 91.592 76.3688 91.9515 77.2048 92.842C83.4226 88.8721 88.0081 84.0484 89.4001 77.4133C89.8958 75.0506 89.7242 72.1417 89.3982 69.1692C89.3773 68.9791 89.3572 68.7696 89.3396 68.5901C89.3209 68.4 89.3028 68.2192 89.282 68.0383C89.2544 67.7987 89.2211 67.5812 89.1872 67.384ZM118.75 53.3909C118.7 53.4585 118.636 53.5527 118.563 53.6829C117.583 55.4262 117.414 57.784 117.965 60.718C118.51 63.6245 119.662 66.5939 120.751 69.2512C121.779 71.7609 122.983 73.9294 124.525 76.2424C124.604 76.3608 124.915 76.8345 125.212 77.3284C128.339 75.6113 130.746 73.5457 132.476 70.5803C133.91 68.1229 135.192 65.5139 136.07 62.9534L136.722 61.0862C137.309 59.4054 137.716 58.1128 137.733 56.8274C137.705 56.8462 137.68 56.863 137.658 56.8782C136.709 57.5469 135.321 58.6883 134.335 59.8987C133.843 60.5026 133.561 60.9909 133.434 61.3294C133.398 61.4266 133.382 61.4919 133.375 61.5295C133.583 62.2242 133.564 62.9355 133.36 63.5823C133.934 65.4005 132.945 67.3491 131.13 67.9544C129.296 68.5653 127.314 67.574 126.703 65.7405C125.627 62.512 124.39 59.715 122.567 57.0139C121.699 55.7275 120.298 54.21 119.12 53.5628C118.961 53.4756 118.838 53.4236 118.75 53.3909Z" fill="black"/>
</svg>
