<svg width="354" height="228" viewBox="0 0 354 228" fill="none" xmlns="http://www.w3.org/2000/svg">
<path d="M35.2391 114.842C47.3011 112.868 59.7029 115.605 70.3446 120.707L71.3221 121.181C73.5962 122.295 75.8146 123.46 77.9891 124.611C80.4913 125.937 82.9229 127.238 85.4042 128.479C87.1327 129.343 87.833 131.445 86.9686 133.174C86.1041 134.903 84.0021 135.604 82.2733 134.739C79.6993 133.452 77.1759 132.102 74.7128 130.797C72.2324 129.483 69.7982 128.208 67.3182 127.019C57.6266 122.372 46.6849 120.062 36.37 121.75C34.1026 122.121 31.6388 122.85 29.5751 123.978C27.5011 125.111 26.0881 126.498 25.4198 128.077C25.0983 128.838 25.1545 129.94 26.1884 131.682C27.2064 133.397 28.788 135.058 30.2372 136.476C30.5721 136.803 30.9522 137.172 31.3641 137.561C31.5167 137.592 31.6686 137.623 31.8192 137.656C33.9881 138.131 37.0411 139.137 39.2284 141.116C39.3602 141.236 40.0466 141.856 40.535 142.594C40.6724 142.801 40.8704 143.13 41.0253 143.546C41.1637 143.918 41.401 144.71 41.1991 145.682C40.9547 146.858 40.1869 147.746 39.2577 148.224C38.4893 148.619 37.759 148.663 37.3641 148.663C35.8394 148.663 34.4292 148.179 33.2909 147.636C32.1245 147.079 31.0176 146.351 30.0409 145.621C29.3898 145.135 28.763 144.62 28.1776 144.114C23.8981 143.523 19.052 143.808 15.077 145.252C10.5383 146.902 7.54893 149.841 7.06628 154.507C6.45434 160.426 10.372 165.743 17.1053 170.24C22.9566 174.149 30.1729 176.879 35.7469 178.29C38.9564 177.647 42.717 177.343 45.9481 178.42C46.4803 178.597 47.0103 178.85 47.4862 179.173C47.8611 179.427 48.6188 180 49.076 180.976C49.3321 181.522 49.5884 182.413 49.3348 183.462C49.0695 184.559 48.3783 185.291 47.7489 185.707C46.7124 186.392 45.5781 186.424 45.0829 186.424C42.209 186.424 39.3727 186.25 36.3788 185.623C36.1557 185.577 35.9298 185.524 35.7001 185.473C33.2792 186.073 30.9412 186.93 29.1844 187.694C26.2202 188.981 22.5113 190.505 19.3973 192.559C16.1826 194.679 14.5398 196.76 14.327 198.781C13.9769 202.108 15.5792 205.267 18.6512 208.228C21.7151 211.181 25.8401 213.517 29.3534 215.018C55.1505 226.038 87.1814 220.429 108.159 202.074C109.614 200.801 111.826 200.949 113.099 202.403C114.371 203.858 114.224 206.069 112.769 207.342C89.8368 227.408 54.9585 233.568 26.6034 221.455C22.6277 219.757 17.6777 217.011 13.7938 213.268C9.91822 209.532 6.69998 204.379 7.36609 198.049C7.92252 192.763 11.9034 189.115 15.5438 186.715C18.5785 184.714 22.0331 183.161 24.6874 182.012C20.8023 180.447 16.8129 178.463 13.2167 176.061C5.82938 171.126 -0.921138 163.691 0.103393 153.786C0.941022 145.689 6.43989 140.943 12.6864 138.673C15.4064 137.685 18.3439 137.125 21.2743 136.918C20.884 136.384 20.5096 135.829 20.1688 135.255C18.6589 132.711 17.381 129.112 18.9725 125.35C20.4608 121.832 23.3033 119.427 26.2196 117.834C29.1466 116.235 32.4097 115.305 35.2391 114.842ZM276.632 107.397C282.746 105.868 289.23 105.534 295.412 106.238C297.101 106.431 299.657 106.652 302.045 107.273C304.429 107.893 307.257 109.052 309.19 111.559C311.469 114.513 310.945 117.967 310.041 120.336C309.116 122.759 307.505 124.928 306.097 126.337C303.858 128.575 301.506 130.538 299.056 132.315C310.213 130.887 321.862 131.027 332.979 133.807C335.114 134.34 338.849 135.405 342.066 137.204C345.039 138.867 349.042 142.018 348.665 147.116C348.343 151.458 344.937 154.448 342.263 156.259C339.406 158.193 336.116 159.61 334.291 160.431C332.636 161.175 330.933 161.888 329.201 162.562C329.272 162.579 329.344 162.596 329.415 162.614C337.564 164.684 346.569 168.936 351.382 177.306C355.586 184.618 353.594 191.858 349.794 197.469C346.047 203.001 340.27 207.471 335.482 210.154C304.441 227.553 261.415 219.279 235.083 197.735C233.587 196.51 233.367 194.306 234.591 192.81C235.815 191.314 238.02 191.093 239.516 192.317C264.126 212.452 304.054 219.745 332.059 204.048C336.224 201.714 341.042 197.908 343.998 193.543C346.9 189.258 347.72 184.981 345.313 180.795C341.887 174.837 335.098 171.28 327.691 169.399C322.291 168.027 316.81 167.49 311.172 167.435C309.914 167.555 308.683 167.634 307.501 167.699C307.501 167.699 307.498 167.699 307.489 167.699C307.48 167.7 307.468 167.7 307.453 167.701C307.423 167.703 307.38 167.705 307.328 167.708C307.223 167.714 307.075 167.722 306.897 167.731C306.543 167.748 306.063 167.769 305.552 167.785C305.045 167.802 304.484 167.814 303.977 167.812C303.554 167.81 302.909 167.8 302.374 167.711C302.28 167.696 302.065 167.657 301.81 167.575C301.688 167.536 301.442 167.45 301.159 167.292C300.956 167.179 300.265 166.779 299.79 165.918C299.134 164.728 299.263 163.374 299.882 162.376C300.336 161.645 300.93 161.289 301.112 161.184C301.544 160.934 301.937 160.835 302.01 160.816C302.407 160.71 302.847 160.671 302.968 160.659C303.408 160.617 303.95 160.586 304.213 160.573C306.423 160.471 308.636 160.417 310.851 160.431C312.415 160.272 313.908 160.047 315.349 159.682C320.745 158.315 326.323 156.338 331.422 154.046C333.408 153.153 336.085 151.987 338.338 150.462C340.772 148.814 341.619 147.47 341.683 146.599C341.732 145.944 341.274 144.782 338.649 143.314C336.268 141.982 333.269 141.095 331.281 140.598C319.802 137.728 307.464 137.913 295.594 139.902C293.911 140.183 292.236 140.524 290.471 140.875C288.729 141.221 286.912 141.574 285.066 141.848C285.061 141.849 285.029 141.855 284.959 141.871C284.877 141.89 284.776 141.916 284.637 141.953C284.395 142.018 283.975 142.135 283.56 142.225C282.865 142.376 281.224 142.696 279.594 141.929C279.225 141.755 278.64 141.406 278.167 140.739C277.641 139.997 277.441 139.122 277.526 138.297C277.663 136.975 278.479 136.182 278.615 136.046C279.087 135.572 279.647 135.252 279.853 135.135C280.153 134.964 280.457 134.812 280.656 134.714C280.816 134.635 280.882 134.602 280.896 134.596C282.069 133.902 283.279 133.346 284.33 132.871C285.469 132.356 286.414 131.939 287.3 131.449C292.494 128.581 297.074 125.461 301.147 121.388C302.015 120.52 302.999 119.156 303.501 117.84C304.024 116.471 303.76 115.98 303.647 115.834C303.106 115.132 302.065 114.51 300.283 114.047C298.504 113.584 296.596 113.419 294.619 113.194C289.205 112.577 283.568 112.878 278.329 114.188C276.182 114.724 274.032 115.287 271.922 115.882C271.479 116.007 271.148 116.195 270.17 116.652C269.356 117.033 268.089 117.589 266.54 117.675C264.61 117.782 262.959 116.304 262.851 114.374C262.745 112.444 264.222 110.793 266.152 110.686C266.285 110.678 266.529 110.627 267.205 110.311C267.717 110.071 268.858 109.473 270.021 109.145L271.672 108.688C273.325 108.237 274.986 107.808 276.632 107.397ZM158.328 47.3927C178.336 44.4207 200.865 49.4461 218.595 60.756C236.367 72.0938 249.648 89.9933 250.301 112.841C250.875 132.936 239.987 150.87 224.883 162.405C207.246 175.875 189.178 182.273 166.885 182.273C148.819 182.273 128.378 174.723 115.223 162.06C110.175 157.201 105.533 151.129 102.126 145.032C101.026 143.064 100.1 141.079 99.3212 139.08C92.1736 124.141 91.1854 105.777 98.0663 90.2462L98.6073 89.05C110.139 64.1123 131.43 51.3884 158.328 47.3927ZM214.83 66.6584C198.452 56.2103 177.614 51.6044 159.356 54.3166C133.845 58.1062 114.684 70.0184 104.466 93.0822C103.098 96.1698 102.086 99.3994 101.414 102.702C102.168 103.37 102.629 104.355 102.594 105.44C102.22 116.708 102.118 126.818 105.744 136.288C106.286 137.405 106.867 138.501 107.486 139.571C107.765 140.054 107.916 140.575 107.95 141.096C108.044 141.27 108.139 141.444 108.236 141.617C111.317 147.13 115.541 152.65 120.077 157.017C131.817 168.318 150.469 175.273 166.885 175.273C187.581 175.273 204.168 169.418 220.635 156.842C234.37 146.352 243.8 130.403 243.304 113.041C242.733 93.0648 231.165 77.0788 214.83 66.6584ZM199.459 129.468C201.302 128.886 203.268 129.909 203.85 131.752C204.432 133.595 203.409 135.562 201.566 136.144C184.484 141.538 166.078 142.355 148.595 140.388C146.674 140.171 145.292 138.439 145.508 136.519C145.724 134.598 147.457 133.216 149.378 133.432C166.152 135.319 183.533 134.497 199.459 129.468ZM138.702 82.8927C142.563 80.7105 146.342 81.0403 149.52 82.4377C152.518 83.7556 155.047 86.0365 156.933 87.923C158.3 89.2898 158.3 91.5063 156.933 92.8732C155.567 94.24 153.35 94.24 151.983 92.8732C150.21 91.1002 148.446 89.612 146.703 88.8459C145.141 88.1593 143.733 88.09 142.146 88.9865C140.63 89.8438 138.585 91.2613 136.917 92.9093C135.144 94.6616 134.328 96.15 134.229 97.13C134.037 99.0534 132.322 100.457 130.398 100.265C128.475 100.072 127.072 98.357 127.265 96.4337C127.613 92.9504 129.908 89.9941 131.997 87.9298C134.192 85.7609 136.764 83.9881 138.702 82.8927ZM193.804 79.2306C199.336 78.4677 204.605 81.2546 207.221 85.963C208.159 87.6526 207.551 89.783 205.861 90.7218C204.172 91.6606 202.04 91.0521 201.101 89.3625C199.847 87.1044 197.346 85.8075 194.76 86.1642C193.471 86.342 192.506 86.9989 190.555 88.3869C190.529 88.415 190.463 88.4885 190.355 88.6291C190.136 88.9143 189.926 89.2272 189.598 89.7013C189.316 90.1079 188.921 90.669 188.475 91.1671C188.088 91.5996 187.298 92.4129 186.116 92.8068C184.283 93.4178 182.301 92.4273 181.689 90.5939C181.146 88.9626 181.87 87.2147 183.328 86.4181C183.446 86.2748 183.606 86.0565 183.845 85.713C184.086 85.3647 184.449 84.8265 184.807 84.3615C185.148 83.9168 185.695 83.2535 186.426 82.7336L187.085 82.2619C188.704 81.1059 190.901 79.631 193.804 79.2306ZM170.817 0.17984C182.575 -0.184127 195.137 -0.330333 207.159 3.16324C209.109 3.72973 211.987 5.0937 213.845 7.13004C214.793 8.16977 215.847 9.80502 215.768 11.9035C215.685 14.1179 214.39 15.829 212.782 17.0373C209.129 19.7827 204.723 21.1661 200.567 22.0246C197.877 22.5804 194.977 22.9649 192.366 23.3117C191.058 23.4854 189.822 23.6503 188.722 23.8214C175.242 25.9174 161.216 26.6329 147.746 26.9416C142.913 27.0523 138.005 26.6432 133.34 26.2541C131.91 26.1348 130.504 26.017 129.129 25.9171C128.91 25.9012 128.686 25.8853 128.458 25.8693C125.688 25.6748 122.292 25.4365 119.096 24.2541C117.137 23.5294 114.902 22.1015 113.704 19.9347C113.062 18.7742 112.678 17.3045 112.992 15.6955C113.304 14.0982 114.222 12.7861 115.4 11.7677C118.214 9.33531 121.874 7.60501 125.564 6.34C126.057 5.72788 126.759 5.27726 127.589 5.10757C141.905 2.18124 156.247 0.630885 170.817 0.17984ZM205.206 9.88589C194.373 6.73785 182.84 6.81144 171.034 7.17691C161.486 7.47249 152.059 8.25101 142.689 9.59097C142.392 9.72717 142.07 9.82327 141.729 9.87222C138.197 10.3802 133.926 11.1232 129.888 12.3107C125.892 13.4856 122.449 15.0052 120.16 16.9093C120.21 16.9529 120.267 16.9994 120.332 17.048C120.657 17.2938 121.075 17.5223 121.524 17.6886C123.745 18.5102 126.188 18.6865 129.194 18.9035C129.34 18.914 129.488 18.9249 129.637 18.9357C131.179 19.0478 132.694 19.1737 134.187 19.298C138.77 19.6793 143.16 20.0449 147.586 19.9435C160.952 19.6372 174.62 18.93 187.646 16.9044C189.071 16.683 190.463 16.4995 191.844 16.3175C194.278 15.9967 196.677 15.6802 199.151 15.1691C202.818 14.4115 205.976 13.331 208.393 11.5773C208.085 11.3065 207.656 11.005 207.127 10.7101C206.43 10.3216 205.724 10.0366 205.206 9.88589Z" fill="black"/>
</svg>
