<svg width="256" height="219" viewBox="0 0 256 219" fill="none" xmlns="http://www.w3.org/2000/svg">
<path d="M66.1022 60.2089C95.1289 51.0605 126.173 53.691 153.386 66.8222C175.101 77.3001 195.153 96.2159 200.472 121.243C205.111 143.068 198.782 169.131 183.79 185.998C145.755 228.787 79.6173 225.443 35.2955 196.634C17.066 184.784 3.99132 169.02 0.861947 146.621C-0.445727 137.261 -0.180384 128.13 1.08558 118.923C2.95213 105.349 10.0343 94.6902 17.3268 84.5175C18.453 82.9466 20.6396 82.5856 22.2106 83.7118C22.9785 84.2624 23.4558 85.067 23.6129 85.9286C25.6304 83.9331 27.7316 82.0254 29.8942 80.1913C40.6456 71.073 52.6651 64.4439 66.1022 60.2089ZM150.344 73.1269C124.683 60.7448 95.4777 58.2906 68.2067 66.8856C55.6571 70.841 44.4614 77.0153 34.4215 85.5302C27.4412 91.4502 21.3759 97.9629 16.861 105.678C12.0672 113.869 10.5353 121.923 8.56312 131.784C8.3676 132.761 7.78197 133.56 7.0016 134.054C7.00326 137.917 7.25239 141.772 7.79456 145.653C10.5655 165.487 22.044 179.671 39.111 190.765C81.6126 218.39 143.586 220.689 178.557 181.347C192 166.223 197.825 142.454 193.626 122.698C188.907 100.499 170.872 83.0321 150.344 73.1269ZM157.475 157.814C158.683 156.305 160.885 156.061 162.394 157.267C163.904 158.475 164.149 160.678 162.941 162.187C158.668 167.528 152.734 169.645 146.844 170.16C141.017 170.669 134.948 169.646 129.868 168.451C127.986 168.008 126.82 166.124 127.262 164.242C127.705 162.361 129.59 161.194 131.471 161.637C136.313 162.776 141.521 163.599 146.235 163.186C150.887 162.78 154.761 161.208 157.475 157.814ZM51.192 93.4276C53.0277 92.8221 55.0073 93.8195 55.6129 95.6552C55.6712 95.8317 55.7255 96.01 55.7809 96.1874C57.4223 96.4766 58.6695 97.9084 58.6696 99.6327C58.6697 105.28 61.0125 110.124 63.4957 116.438C66.5972 124.325 70.1393 134.604 68.2067 144.381C66.926 150.859 63.0139 155.675 57.691 157.69C52.5416 159.64 46.6102 158.766 41.3971 155.119L40.8952 154.758C38.643 153.089 37.0415 150.658 36.0094 148.251C34.9698 145.826 34.3836 143.139 34.3834 140.688C34.3834 134.825 38.1966 130.528 40.3248 127.572C41.6185 125.775 43.1936 123.882 44.4459 122.274C45.7747 120.568 46.9087 118.981 47.736 117.373C50.8326 111.352 51.1025 104.33 48.9645 97.8485C48.3589 96.013 49.3566 94.0334 51.192 93.4276ZM55.819 116.116C55.3245 117.631 54.7075 119.122 53.9606 120.574C52.8266 122.779 51.3662 124.781 49.9684 126.576C48.4942 128.469 47.208 129.992 46.0055 131.662C43.2033 135.554 41.3834 137.65 41.3834 140.688C41.3836 142.098 41.7387 143.85 42.443 145.493C43.1551 147.154 44.1011 148.421 45.0621 149.133C48.7533 151.867 52.4252 152.199 55.2125 151.143C57.9924 150.091 60.4659 147.442 61.3395 143.023C62.8292 135.487 60.1236 126.992 56.9811 119.001C56.6126 118.064 56.2199 117.101 55.819 116.116ZM151.313 102.349C153.052 101.504 155.146 102.229 155.991 103.968C158.699 109.544 159.915 115.663 160.4 121.485C160.56 123.411 159.129 125.103 157.203 125.264C155.277 125.424 153.585 123.993 153.424 122.067C152.982 116.754 151.897 111.562 149.694 107.026C148.849 105.288 149.575 103.193 151.313 102.349ZM98.9147 105.909C100.653 105.065 102.748 105.79 103.592 107.528C104.641 109.688 105.336 111.871 105.934 113.854C106.554 115.907 107.057 117.693 107.763 119.458C108.481 121.252 107.608 123.29 105.814 124.008C104.02 124.726 101.982 123.853 101.264 122.058C100.413 119.931 99.8001 117.756 99.233 115.877C98.6451 113.929 98.0825 112.207 97.2955 110.587C96.4511 108.848 97.176 106.754 98.9147 105.909ZM151.823 4.49502C153.691 3.99886 155.608 5.11124 156.104 6.9794C157.163 10.9646 157.24 14.9445 157.269 18.4999C157.299 22.1859 157.282 25.3838 157.905 28.4989C158.284 30.3944 157.054 32.239 155.159 32.6181C153.263 32.997 151.42 31.7673 151.041 29.872C150.564 27.4909 150.394 25.0952 150.326 22.8046C147.551 23.4421 144.591 23.7711 142.293 24.1698C141.341 24.3349 140.387 24.648 139.016 25.0575C138.729 25.1435 138.422 25.2324 138.1 25.3212C138.119 25.5567 138.137 25.7949 138.156 26.036C138.286 27.672 138.416 29.4309 138.416 31.2284C138.416 33.1614 136.849 34.7284 134.916 34.7284C132.983 34.7282 131.416 33.1613 131.416 31.2284C131.416 29.7371 131.308 28.225 131.178 26.5917C131.095 25.5496 131.004 24.444 130.935 23.3134C130.884 23.105 130.851 22.889 130.839 22.6669C130.826 22.4353 130.835 22.2076 130.866 21.9862C130.86 21.8251 130.854 21.6633 130.849 21.5019C130.732 17.4126 130.672 13.7853 129.416 11.122C128.591 9.37388 129.34 7.28844 131.088 6.46377C132.836 5.63921 134.921 6.38781 135.746 8.13565C137.225 11.2722 137.61 14.9858 137.75 18.1259C138.737 17.826 139.927 17.4753 141.096 17.2724C144.282 16.7198 146.588 16.5304 149.246 15.8661C149.571 15.7848 149.897 15.7526 150.216 15.7636C150.135 13.2864 149.928 10.9957 149.339 8.77627C148.842 6.90811 149.955 4.99126 151.823 4.49502ZM118.476 11.1132C120.397 10.9 122.128 12.2841 122.341 14.205C122.695 17.3902 122.96 22.2545 121.741 26.3632C121.119 28.4592 120.023 30.6596 118.063 32.2636C116.02 33.9355 113.416 34.6506 110.435 34.3915C105.158 33.9326 101.545 29.6931 100.065 25.8788C98.7924 22.5981 99.0172 19.2322 99.0172 16.9267C99.0173 14.9937 100.584 13.4267 102.517 13.4267C104.45 13.4271 106.017 14.994 106.017 16.9267C106.017 19.897 105.912 21.5995 106.59 23.3476C107.501 25.6936 109.362 27.2718 111.042 27.4179C112.494 27.5441 113.21 27.1899 113.63 26.8466C114.132 26.4351 114.643 25.6735 115.03 24.372C115.828 21.6849 115.721 18.0064 115.384 14.9784C115.171 13.0573 116.555 11.3267 118.476 11.1132ZM233.069 0.000881413C235.001 0.0441144 236.533 1.64569 236.49 3.57803C236.413 7.02481 235.904 10.386 235.351 13.5634H235.353C236.031 13.5041 236.642 13.451 237.233 13.3837C240.53 13.0086 243.823 12.7608 247.075 12.5575C247.449 12.5342 247.812 12.5705 248.157 12.6581C248.295 11.0901 248.382 9.49155 248.45 7.86221C248.455 7.74846 248.459 7.65096 248.462 7.56631C247.33 6.55441 246.95 4.88132 247.64 3.44424C248.477 1.70177 250.568 0.967331 252.31 1.80362C253.971 2.60096 254.878 3.95924 255.244 5.36221C255.539 6.49389 255.465 7.65459 255.444 8.15323C255.333 10.825 255.166 13.6156 254.782 16.3993C254.142 21.0304 253.532 26.0045 252.462 30.8202C252.042 32.707 250.173 33.8974 248.286 33.4784C246.399 33.0591 245.208 31.1886 245.628 29.3017C246.332 26.1312 246.821 22.8888 247.283 19.5585C244.162 19.7555 241.078 19.9914 238.024 20.3388C237.324 20.4184 236.615 20.48 235.964 20.537C235.318 20.5935 234.719 20.6467 234.133 20.7147C233.799 22.9907 233.572 25.2047 233.572 27.4345C233.572 29.3673 232.005 30.9344 230.072 30.9345C228.139 30.9345 226.572 29.3673 226.572 27.4345C226.572 25.017 226.795 22.6498 227.111 20.3593C226.854 20.0562 226.644 19.7039 226.498 19.3095C225.904 17.7068 226.559 15.9468 227.971 15.0966C227.987 15.0085 228.003 14.9206 228.018 14.8329C228.737 10.8133 229.409 7.14291 229.492 3.42178C229.535 1.48943 231.137 -0.0420605 233.069 0.000881413ZM203.676 2.63076C207.297 2.80319 212.201 3.45127 215.634 7.44522L215.904 7.76553C218.639 11.0994 220.044 15.2536 219.214 19.8231C218.389 24.357 215.751 27.547 212.262 29.3231C208.892 31.0385 204.921 31.353 201.247 30.7216C197.962 30.1569 194.45 28.571 192.052 25.9355C189.495 23.1242 188.299 19.1543 190.06 14.7509C191.111 12.1241 193.102 9.35114 195.705 7.53213C196.953 6.65989 198.431 5.96075 200.043 5.65615C200.282 3.8756 201.848 2.54386 203.676 2.63076ZM207.811 10.3495C207.751 10.6362 207.653 10.9209 207.516 11.1952C206.652 12.9236 204.55 13.6237 202.821 12.7597C201.956 12.3274 200.985 12.3812 199.714 13.2694C198.37 14.2093 197.172 15.8213 196.56 17.3505C195.904 18.9922 196.271 20.1697 197.231 21.2255C198.351 22.4564 200.314 23.459 202.433 23.8231C204.991 24.2626 207.362 23.963 209.088 23.0849C210.693 22.2673 211.905 20.8839 212.326 18.5712C212.749 16.2436 212.081 14.0504 210.326 12.0077C209.676 11.2513 208.847 10.7202 207.811 10.3495ZM179.222 14.0702C181.122 13.7142 182.951 14.9664 183.307 16.8661C183.663 18.7656 182.412 20.5948 180.512 20.9511C177.814 21.4571 175.287 21.9042 172.641 22.4081C170.743 22.7697 168.909 21.5235 168.547 19.6249C168.186 17.7263 169.432 15.894 171.331 15.5321C173.937 15.0358 176.664 14.5498 179.222 14.0702Z" fill="black"/>
</svg>
