<svg width="290" height="214" viewBox="0 0 290 214" fill="none" xmlns="http://www.w3.org/2000/svg">
<path d="M93.9019 167.767C94.307 165.877 96.1672 164.673 98.0572 165.078C107.022 166.999 117.782 171.913 121.558 182.542C124.895 191.934 122.145 202.631 113.576 208.511C105.353 214.154 94.2439 215.441 84.9332 211.368C81.8617 210.024 78.8036 207.523 76.3795 204.724C74.8887 203.003 73.5156 201.029 72.5016 198.953C70.5227 200.142 68.1924 201.023 66.0396 201.676C63.2289 202.53 60.3607 203.1 58.1871 203.429C56.3484 203.708 52.9023 203.95 49.9478 203.281C48.5058 202.954 46.6357 202.292 45.2887 200.788C43.7094 199.023 43.3874 196.735 44.0719 194.47C45.2199 190.673 47.5389 186.824 50.4693 183.685C53.3885 180.558 57.1523 177.886 61.3463 176.813C63.2189 176.334 65.1258 177.463 65.6051 179.335C66.0841 181.208 64.9542 183.115 63.0816 183.594C60.5549 184.241 57.8953 185.988 55.5855 188.462C53.3536 190.853 51.6706 193.687 50.8443 196.265C50.9987 196.323 51.2108 196.389 51.4947 196.454C53.2347 196.848 55.6976 196.727 57.1383 196.508C59.0682 196.216 61.5945 195.71 64.0064 194.978C66.4061 194.249 68.3797 193.388 69.5894 192.494C69.6165 192.452 69.6585 192.386 69.7135 192.287C69.7867 192.155 69.8524 192.026 69.942 191.851V191.85L69.9996 191.739L70.0035 191.732C70.0989 191.546 70.2633 191.224 70.4537 190.925L70.4654 190.908C70.5886 190.713 71.0952 189.913 72.0435 189.415C72.6689 189.086 73.5589 188.852 74.565 189.078C75.5096 189.29 76.1403 189.815 76.4918 190.193C77.1056 190.853 77.3858 191.623 77.5045 191.964C77.663 192.42 77.7978 192.94 77.9195 193.488C78.3536 195.441 79.7024 197.869 81.6705 200.141C83.6301 202.403 85.8852 204.144 87.7389 204.955C94.7452 208.02 103.303 207.071 109.615 202.74C115.297 198.84 117.35 191.609 114.962 184.886C112.437 177.779 104.83 173.688 96.5904 171.922C94.7006 171.517 93.4972 169.657 93.9019 167.767ZM262.421 105.907C264.899 105.147 268.153 104.491 270.928 105.566C272.488 106.17 273.814 107.292 274.629 108.952C275.397 110.517 275.588 112.307 275.458 114.138C275.258 116.932 274.272 119.327 272.95 121.376C276.721 122.308 280.099 124.291 282.617 127.044C286.889 131.717 288.566 138.506 285.636 145.59C284.027 149.481 281.754 153.871 278.699 157.626C275.65 161.374 271.644 164.703 266.546 166.039C259.917 167.775 253.797 164.937 248.983 161.495C244.905 158.579 241.183 154.796 238.28 151.845C237.743 151.299 237.234 150.781 236.755 150.303C235.389 148.936 235.389 146.721 236.755 145.354C238.122 143.987 240.338 143.987 241.705 145.354C242.251 145.901 242.81 146.467 243.379 147.044C246.298 150.005 249.519 153.271 253.055 155.8C257.301 158.836 261.19 160.205 264.773 159.267C267.945 158.436 270.78 156.268 273.269 153.208C275.752 150.157 277.715 146.43 279.168 142.916C281.022 138.429 279.957 134.508 277.452 131.768C275.028 129.117 271.153 127.486 266.928 127.823C266.453 128.172 265.972 128.465 265.491 128.674C265.157 128.82 264.411 129.111 263.488 129.047C262.997 129.013 262.131 128.853 261.339 128.164C260.449 127.388 260.105 126.339 260.108 125.441C260.113 124.028 260.92 123.113 261.135 122.875C261.5 122.473 261.911 122.166 262.289 121.938C262.748 121.66 263.268 121.432 263.836 121.26C266.539 118.744 268.28 116.388 268.476 113.64C268.545 112.68 268.421 112.229 268.364 112.081C267.94 111.94 266.728 111.907 264.471 112.599C261.048 113.648 257.321 115.637 254.602 117.087C253.802 117.514 253.09 117.894 252.499 118.19C250.77 119.054 248.668 118.353 247.803 116.624C246.939 114.896 247.639 112.794 249.368 111.929C249.731 111.748 250.246 111.471 250.879 111.132C253.531 109.711 258.243 107.187 262.421 105.907ZM141.977 0.0756696C165.75 -0.795494 188.028 5.76121 204.073 24.6431C213.168 35.347 218.44 48.9431 218.863 62.8559C220.537 59.0819 222.339 55.2726 224.428 51.6655C229.461 42.9756 236.306 35.192 247.442 31.48C258.035 27.949 268.706 33.4752 275.649 39.2983C284.96 47.1078 288.071 56.2007 289.384 67.1431C289.615 69.0623 288.245 70.8053 286.326 71.0356C284.407 71.2658 282.664 69.8962 282.434 67.977C281.245 58.0654 278.62 50.927 271.15 44.6616C264.768 39.3088 256.691 35.7755 249.656 38.1206C240.732 41.0953 235.038 47.315 230.486 55.1743C228.197 59.1266 226.236 63.4261 224.301 67.8823C223.88 68.8533 223.458 69.8356 223.034 70.8227C221.538 74.306 220.014 77.8544 218.373 81.2134C217.874 82.2337 216.945 82.9024 215.911 83.1089C209.926 101.041 195.041 116.989 179.049 125.874C155.791 138.795 130.847 138.461 106.526 130.787C89.2581 125.338 71.5917 113.853 62.6266 97.3647C56.6849 91.7825 48.6371 88.1389 40.4391 86.4272C34.3323 85.1522 28.335 85.3129 22.7135 87.4848C19.1346 88.8676 15.1736 91.3743 12.1129 94.5542C9.03346 97.7536 7.15254 101.322 7.02695 104.838C6.63044 115.943 10.7196 123.885 17.1158 133.479C18.1878 135.087 17.7534 137.26 16.1451 138.333C14.5369 139.405 12.3639 138.97 11.2916 137.362C4.66331 127.419 -0.446006 117.942 0.030854 104.588C0.239331 98.751 3.28693 93.6302 7.06894 89.7007C10.8697 85.7518 15.7035 82.6894 20.191 80.9556C27.3317 78.1967 34.744 78.0869 41.8697 79.5747C47.3396 80.7168 52.8936 82.6573 57.9967 85.4702C57.5816 83.7763 57.2518 82.0435 57.0201 80.272C56.9972 80.2706 56.9738 80.2709 56.9508 80.269C55.024 80.1148 53.5867 78.4273 53.7408 76.5005C57.3996 30.7696 98.8121 1.65763 141.977 0.0756696ZM198.739 29.1763C184.468 12.3816 164.539 6.25334 142.233 7.07079C103.706 8.4829 67.9607 33.033 61.5152 70.6977C62.7469 71.2396 63.6068 72.471 63.607 73.9028C63.6071 80.8752 65.341 87.3298 68.3551 93.1684C69.0873 93.9013 69.793 94.6632 70.4693 95.4546C70.6765 95.697 70.9732 96.0205 71.3717 96.4556L71.3736 96.4575L71.6324 96.7407C71.7226 96.8393 71.8176 96.9426 71.9166 97.0513C72.56 97.7574 73.3232 98.609 74.0621 99.5024C74.7922 100.385 75.5547 101.375 76.1695 102.365C76.6833 103.191 77.3194 104.367 77.5357 105.664C85.8565 114.125 97.0385 120.452 108.633 124.111C131.673 131.381 154.519 131.494 175.65 119.754C190.917 111.273 204.877 95.8474 209.798 79.2231C214.926 61.9025 210.407 42.9078 198.739 29.1763ZM163.266 88.7466C165.15 88.3122 167.029 89.4863 167.463 91.3696C167.898 93.253 166.723 95.1323 164.839 95.5669C160.955 96.4634 157.261 97.5696 153.301 98.6548C149.404 99.7228 145.351 100.74 141.072 101.331C139.157 101.595 137.391 100.256 137.127 98.3413C136.862 96.4266 138.2 94.6603 140.115 94.396C143.931 93.8696 147.631 92.9508 151.451 91.9038C155.208 90.874 159.196 89.6857 163.266 88.7466ZM116.729 52.9419C118.427 52.0181 120.552 52.6458 121.476 54.3432C124.466 59.8368 127.183 65.4261 129.811 71.0112C130.634 72.7602 129.883 74.8444 128.134 75.6675C126.385 76.4904 124.3 75.7406 123.477 73.9917C120.87 68.4506 118.221 63.0042 115.328 57.689C114.404 55.9913 115.031 53.8659 116.729 52.9419ZM151.133 41.8354C152.312 40.3036 154.51 40.0168 156.042 41.1948C159.051 43.5096 160.585 46.7472 161.658 49.5102C162.85 52.5823 163.422 54.7751 164.576 56.852C165.514 58.5417 164.906 60.673 163.216 61.6118C161.527 62.5505 159.395 61.9412 158.457 60.2515C157 57.6299 155.983 54.2352 155.132 52.0434C154.161 49.5424 153.196 47.8372 151.774 46.7436C150.242 45.5651 149.955 43.3674 151.133 41.8354Z" fill="black"/>
</svg>
