<svg width="230" height="326" viewBox="0 0 230 326" fill="none" xmlns="http://www.w3.org/2000/svg">
<path d="M3.77348 237.005C5.70369 236.903 7.3506 238.386 7.45219 240.316C8.14584 253.496 10.2401 266.022 13.5411 278.858C14.0222 280.73 12.8945 282.638 11.0225 283.119C10.1254 283.35 9.22038 283.211 8.46781 282.798C6.26834 288.157 6.86323 293.028 8.16019 299.837C8.49177 301.578 9.32109 304.815 10.6543 307.37C11.3254 308.656 11.9925 309.51 12.5655 309.965C13.0376 310.34 13.2968 310.351 13.5664 310.295C14.5603 310.088 15.6439 309.175 16.8106 306.827C17.3578 305.726 17.8313 304.493 18.2891 303.201C18.4229 302.823 18.5614 302.422 18.7022 302.014L18.7032 302.013V302.012L19.1661 300.683C19.3207 300.247 19.4746 299.827 19.6241 299.445L19.6631 299.328C19.689 299.247 19.7209 299.141 19.7579 299.011C19.8325 298.747 19.9157 298.43 20.0088 298.067L20.0567 297.88L20.1123 297.665L20.3545 296.724C20.438 296.406 20.5223 296.095 20.6036 295.817C20.7001 295.488 20.8298 295.072 20.9864 294.699C21.0562 294.533 21.2015 294.203 21.4366 293.86C21.5521 293.692 21.7835 293.379 22.1524 293.076C22.5072 292.785 23.2762 292.272 24.3877 292.263C25.6092 292.252 26.4975 292.849 26.9932 293.369C27.4341 293.832 27.6482 294.305 27.7412 294.535C27.9321 295.008 27.9963 295.446 28.0235 295.65C28.0873 296.131 28.1045 296.701 28.1045 297.279C28.1045 303.128 28.5247 307.783 31.2803 311.997C32.1651 313.35 33.811 315.73 35.6182 317.374C36.5337 318.207 37.2405 318.614 37.6827 318.749C37.9031 318.816 37.9198 318.797 37.9444 318.769C37.9478 318.765 37.9518 318.761 37.9561 318.757C37.9585 318.755 37.961 318.752 37.9639 318.75C39.7319 317.437 41.0874 315.008 42.1709 311.659C42.9265 309.324 43.4297 306.98 43.9239 304.677C44.1435 303.653 44.3611 302.638 44.5987 301.635C45.6578 297.163 45.15 292.603 44.5772 287.46L44.5254 286.998C44.3123 285.077 45.6972 283.347 47.6182 283.134C49.0328 282.977 50.3443 283.686 51.0225 284.838C52.0164 283.834 53.5643 283.494 54.9317 284.102C58.6002 285.732 63.7306 286.352 67.9825 285.356C72.1159 284.386 74.7954 282.123 75.3594 278.301C75.3826 278.142 75.3135 277.313 74.1807 275.867C73.1414 274.541 71.5802 273.196 69.875 272.177C68.1216 271.129 66.5732 270.638 65.5879 270.602C65.2835 270.59 65.1162 270.625 65.045 270.647C65.0381 270.661 65.0289 270.68 65.0186 270.706C64.3007 272.501 62.2635 273.374 60.4688 272.656C58.6742 271.938 57.8018 269.901 58.5196 268.106C59.1442 266.545 60.2118 265.303 61.6436 264.52C63.0194 263.766 64.5053 263.557 65.8467 263.606C68.461 263.703 71.1808 264.803 73.4659 266.168C75.7991 267.562 78.0478 269.452 79.6914 271.55C81.2408 273.527 82.7284 276.313 82.2842 279.323C81.17 286.874 75.5199 290.778 69.5801 292.171C63.7587 293.536 57.0721 292.714 52.0889 290.499C52.036 290.476 51.9838 290.451 51.9327 290.425C52.3063 294.437 52.4551 298.836 51.4102 303.248C51.2364 303.982 51.054 304.832 50.8555 305.755C50.3336 308.183 49.7017 311.122 48.8311 313.814C47.6215 317.552 45.7014 321.723 42.1387 324.369C40.0364 325.931 37.69 326.068 35.6436 325.445C33.7698 324.875 32.1559 323.688 30.9082 322.553C28.389 320.262 26.3335 317.221 25.4219 315.827C24.2738 314.071 23.4282 312.279 22.8067 310.474C21.371 313.19 19.0132 316.31 14.9942 317.147C12.3034 317.708 9.97705 316.847 8.21488 315.449C6.55321 314.131 5.33641 312.31 4.44828 310.608C2.663 307.187 1.6732 303.194 1.28324 301.147C-0.161654 293.561 -1.21594 286.379 2.89164 278.164C3.45051 277.047 4.52663 276.358 5.68461 276.245C2.90009 264.512 1.10394 252.882 0.461952 240.685C0.360356 238.754 1.84315 237.107 3.77348 237.005ZM200.944 181.078C202.835 180.674 204.694 181.879 205.098 183.77C207.889 196.833 208.494 209.785 209.097 222.688L209.105 222.856C209.135 222.856 209.161 222.857 209.184 222.856C209.455 222.855 209.718 222.873 209.939 222.894C210.387 222.935 210.886 223.01 211.36 223.091C213 223.37 215.136 223.863 215.921 224.044L216.034 224.069C216.092 224.083 216.137 224.093 216.17 224.101C218.876 224.709 221.756 225.992 224.123 227.919C226.497 229.851 228.551 232.607 229.073 236.143C229.695 240.36 228.468 243.94 226.107 246.734C223.842 249.417 220.654 251.246 217.425 252.48C211.008 254.93 203.254 255.467 198.391 254.719C198.302 254.705 198.214 254.689 198.128 254.669C198.212 257.707 198.311 261.636 197.966 265.265C197.497 270.195 196.111 276.295 191.299 279.503C188.357 281.464 185.286 280.65 183.328 279.737C181.782 279.017 180.252 277.907 179.274 277.198C179.06 277.043 178.872 276.906 178.717 276.798C173.554 273.193 171.387 267.413 170.849 262.03C170.656 260.107 172.06 258.392 173.983 258.199C175.907 258.007 177.622 259.411 177.814 261.334C178.233 265.518 179.818 269.03 182.724 271.059C183.059 271.293 183.374 271.519 183.674 271.734L183.675 271.735C184.613 272.41 185.412 272.985 186.286 273.393C186.804 273.634 187.124 273.698 187.284 273.706C187.37 273.71 187.38 273.703 187.407 273.685L187.416 273.679C189.327 272.405 190.543 269.373 190.997 264.603C191.229 262.167 191.236 259.735 191.19 257.43L191.133 255.171C191.097 253.907 191.064 252.698 191.064 251.566C191.064 249.634 192.631 248.067 194.564 248.066C195.302 248.066 195.987 248.294 196.552 248.685C197.308 247.99 198.361 247.633 199.455 247.801C203.145 248.368 209.67 247.948 214.927 245.94C217.534 244.945 219.534 243.668 220.76 242.217C221.891 240.877 222.462 239.294 222.148 237.165C221.951 235.826 221.137 234.514 219.704 233.348C218.265 232.176 216.4 231.328 214.634 230.931C214.579 230.918 214.507 230.902 214.421 230.882L214.292 230.853V230.852C213.703 230.716 212.646 230.473 211.587 230.257C210.645 230.76 209.485 230.828 208.444 230.338C208.258 230.25 208.044 230.148 207.823 230.031C207.298 230.402 206.665 230.633 205.976 230.667C204.045 230.761 202.403 229.273 202.309 227.342C202.239 225.909 202.172 224.485 202.106 223.067L202.105 223.05C201.496 210.067 200.917 197.7 198.253 185.232C197.849 183.342 199.054 181.482 200.944 181.078ZM98.7471 62.5762C122.52 61.705 144.798 68.2616 160.843 87.1436C173.945 102.564 179.12 123.984 173.28 143.71C167.744 162.411 152.373 179.178 135.819 188.374C112.561 201.295 87.6172 200.962 63.2959 193.287C40.5725 186.116 17.154 168.496 13.7901 142.772C13.7671 142.771 13.7438 142.771 13.7207 142.77C11.794 142.615 10.3566 140.928 10.5108 139.001C14.1694 93.2699 55.582 64.1582 98.7471 62.5762ZM155.509 91.6768C141.238 74.8819 121.309 68.7538 99.003 69.5713C60.4755 70.9835 24.7305 95.5333 18.2852 133.198C19.517 133.74 20.377 134.971 20.377 136.403C20.3771 161.062 42.0554 179.244 65.4034 186.611C88.4426 193.881 111.289 193.994 132.42 182.255C147.687 173.773 161.647 158.348 166.568 141.724C171.696 124.403 167.177 105.408 155.509 91.6768ZM125.109 157.202C127.035 157.042 128.727 158.473 128.888 160.399C129.048 162.326 127.617 164.018 125.69 164.179C119.333 164.709 113.04 166.676 106.153 168.248C100.493 169.54 94.2802 171.271 88.2364 172.37C86.3348 172.716 84.5129 171.454 84.167 169.553C83.8213 167.651 85.0828 165.829 86.9844 165.483C92.8635 164.414 98.4389 162.829 104.596 161.423C110.763 160.015 118.095 157.787 125.109 157.202ZM119.236 86.1377C131.426 80.1471 142.995 85.0697 150.811 93.4327C158.653 101.825 163.48 114.352 162.28 125.147C162.067 127.069 160.336 128.453 158.415 128.239C156.494 128.026 155.11 126.295 155.323 124.374C156.262 115.928 152.378 105.362 145.696 98.2119C139.112 91.1665 130.59 88.1216 121.881 92.6436C117.867 94.7275 114.892 98.3787 112.794 102.923C110.694 107.472 109.571 112.719 109.176 117.595C108.902 120.968 108.938 124.088 109.245 127.462C109.295 128.012 109.334 128.584 109.32 129.07C109.315 129.273 109.297 129.719 109.162 130.207C109.099 130.435 108.934 130.965 108.513 131.504C108.02 132.134 107.063 132.882 105.689 132.873C104.525 132.866 103.743 132.306 103.444 132.063C103.101 131.783 102.877 131.496 102.763 131.341C102.527 131.02 102.361 130.697 102.264 130.497C102.051 130.061 101.836 129.516 101.624 128.94C97.6518 118.159 93.2098 109.006 84.2061 102.815C76.5589 97.5581 65.7689 99.0591 57.2989 104.254C47.2226 110.434 39.6494 119.795 40.5782 131.045C41.0882 137.222 44.6153 143.436 49.7637 145.643C51.5403 146.404 52.3638 148.462 51.6026 150.238C50.8411 152.015 48.7826 152.839 47.0059 152.077C38.7493 148.538 34.2519 139.485 33.6026 131.621C32.3562 116.525 42.5825 105.068 53.6387 98.2871C63.3846 92.3097 77.3568 89.6125 88.1719 97.0479C94.7436 101.566 99.1902 107.344 102.575 113.631C103.209 109.114 104.422 104.357 106.439 99.9893C108.971 94.5034 112.867 89.437 118.655 86.4317L119.236 86.1377ZM60.4746 113.692C61.5469 112.084 63.7198 111.649 65.3282 112.722C67.1742 113.952 68.1439 115.734 68.7237 117.147C69.2332 118.39 69.7133 120.155 69.9366 120.825C70.5287 122.602 71.1218 124.378 71.7139 126.154L73.4903 131.483C74.1015 133.317 73.1101 135.3 71.2764 135.911C69.4426 136.522 67.46 135.531 66.8487 133.697L63.2959 123.039C63.098 122.445 62.8982 121.752 62.7442 121.248C62.5729 120.688 62.4174 120.218 62.2471 119.803C61.8943 118.943 61.6086 118.655 61.4454 118.546C59.837 117.474 59.4025 115.301 60.4746 113.692ZM133.657 104.412C135.573 104.157 137.334 105.503 137.59 107.419L139.527 121.953C139.783 123.869 138.437 125.63 136.521 125.886C134.605 126.141 132.844 124.795 132.589 122.879L130.65 108.345C130.395 106.429 131.742 104.668 133.657 104.412ZM65.7764 3.09769C67.6773 2.74766 69.5024 4.00438 69.8526 5.90531C70.4244 9.00967 70.0024 12.0835 69.5079 14.7051C69.3373 15.6094 69.1642 16.4397 69.001 17.2227L68.7481 18.4493C68.5077 19.6426 68.3101 20.7504 68.2071 21.8838C67.8434 25.8846 67.8431 29.9369 68.3594 33.8096C68.6149 35.7255 67.2693 37.4855 65.3536 37.7412C63.4375 37.9967 61.6764 36.6504 61.4209 34.7344C60.911 30.9097 60.8448 27.0152 61.084 23.2207C61.0028 23.2314 60.922 23.2417 60.8418 23.252C60.3585 23.3138 59.9107 23.3674 59.4834 23.418H59.4815L58.2911 23.5625C57.9037 23.6125 57.5211 23.6667 57.1289 23.7295C54.848 24.0952 53.2988 24.645 52.1202 25.7784L52.1123 25.7852C51.8634 28.6572 51.6748 31.4613 51.6748 34.2725C51.6747 36.2054 50.1077 37.7725 48.1748 37.7725C46.2419 37.7725 44.675 36.2054 44.6748 34.2725C44.6748 30.022 45.0679 25.8419 45.4434 21.8506L45.4502 21.7813C45.8327 17.7156 46.1944 13.8418 46.1944 9.95804C46.1946 8.02524 47.7615 6.45806 49.6944 6.45804C51.6272 6.45804 53.1942 8.02523 53.1944 9.95804C53.1944 12.5143 53.0511 15.0472 52.8555 17.5293C53.9437 17.1942 55.016 16.9785 56.0205 16.8174C56.9455 16.6691 57.94 16.5505 58.8418 16.4434C59.2342 16.3968 59.6092 16.3526 59.9532 16.3086C60.7388 16.2081 61.4509 16.1011 62.1084 15.9668C62.1486 15.7722 62.189 15.5798 62.2286 15.3897L62.2334 15.3662L62.2344 15.3633C62.3783 14.6713 62.5148 14.0122 62.6289 13.4073C63.0924 10.9503 63.2936 8.94311 62.9678 7.17386C62.6176 5.27285 63.8754 3.44788 65.7764 3.09769ZM147.033 0.00101139C148.965 0.0472261 150.494 1.65088 150.448 3.58304C150.208 13.6853 149.171 24.0966 147.755 34.0078C147.481 35.9212 145.708 37.2509 143.795 36.9776C141.882 36.7041 140.552 34.931 140.825 33.0176C141.502 28.2776 142.089 23.4406 142.538 18.5977C138.709 18.9638 135.386 19.4858 132.634 20.9698C132.608 21.606 132.594 22.2404 132.594 22.875V30.8536C132.594 32.7864 131.027 34.3536 129.094 34.3536C127.161 34.3533 125.594 32.7862 125.594 30.8536V22.875C125.594 21.857 125.626 20.846 125.679 19.8467C125.53 19.1857 125.579 18.4969 125.81 17.8672C125.915 16.5022 126.046 15.165 126.174 13.8682L126.181 13.793C126.468 10.8654 126.734 8.13609 126.734 5.39945C126.734 3.46652 128.301 1.89945 130.234 1.89945C132.167 1.89971 133.734 3.46669 133.734 5.39945C133.734 8.06344 133.515 10.6794 133.275 13.167C136.634 12.1153 140.083 11.7689 143.093 11.5157C143.265 8.79889 143.386 6.094 143.45 3.41703C143.496 1.48458 145.101 -0.0449993 147.033 0.00101139ZM35.0186 7.9805C36.9498 8.05797 38.4523 9.68688 38.375 11.6182C38.3617 11.9515 38.3492 12.3015 38.336 12.6651C38.2077 16.2038 38.0317 21.0739 36.7276 25.2871C35.9903 27.6687 34.8284 30.0849 32.918 32.0303C30.9535 34.0308 28.3664 35.3584 25.1397 35.7618C22.0623 36.1464 19.3259 35.5566 17.0469 34.127C14.8185 32.7291 13.2768 30.6867 12.2334 28.5537C10.1855 24.367 9.74834 19.2192 10.1192 15.3252C10.3024 13.4009 12.0113 11.9896 13.9356 12.1729C15.8598 12.3562 17.2712 14.065 17.0879 15.9893C16.7981 19.033 17.2065 22.7891 18.5215 25.4776C19.1595 26.7819 19.9282 27.6702 20.7666 28.1963C21.5548 28.6907 22.643 29.019 24.2715 28.8155C25.9848 28.6013 27.102 27.962 27.9239 27.125C28.7997 26.2329 29.507 24.9398 30.0401 23.2178C31.0526 19.947 31.202 16.0174 31.3428 12.3184C31.3553 11.9896 31.3679 11.6624 31.3809 11.3379C31.4583 9.40659 33.0872 7.90325 35.0186 7.9805ZM108.13 6.62601C109.196 5.29534 111.105 4.91087 112.622 5.79593C116.175 7.86846 118.804 10.6591 120.092 14.1905C121.376 17.7115 121.171 21.5344 119.875 25.3848C117.333 32.9389 109.399 34.6893 103.378 32.8496C100.066 31.8375 96.9744 29.6629 95.0284 26.7276C93.0299 23.713 92.2112 19.8044 93.8321 15.7998C96.026 10.3796 101.911 6.18856 108.13 6.62601ZM111.177 13.3174C110.416 13.7865 109.477 13.9659 108.538 13.7452C105.461 13.0212 101.652 15.1401 100.321 18.4268C99.6956 19.973 99.9378 21.4646 100.862 22.8594C101.839 24.3333 103.534 25.5781 105.423 26.1553C109.213 27.3133 112.323 25.8772 113.24 23.1514C114.164 20.4063 114.127 18.2644 113.516 16.5899C113.107 15.47 112.371 14.3628 111.177 13.3174ZM83.0713 14.8438C84.9893 14.604 86.7386 15.964 86.9786 17.8819C87.2183 19.7999 85.8576 21.5493 83.9395 21.7891C83.5493 21.8379 83.2205 21.8729 82.9268 21.9043H82.9258C82.3577 21.9651 81.9212 22.0123 81.4258 22.1162C80.7618 22.2556 80.5634 22.406 80.5284 22.4375C79.0917 23.7304 76.8791 23.6141 75.586 22.1778C74.2929 20.741 74.409 18.5275 75.8457 17.2344C77.1965 16.0187 78.7789 15.5194 79.9883 15.2657C80.8479 15.0853 81.8415 14.9779 82.5342 14.9034C82.7452 14.8807 82.9285 14.8616 83.0713 14.8438Z" fill="black"/>
</svg>
