<svg width="373" height="211" viewBox="0 0 373 211" fill="none" xmlns="http://www.w3.org/2000/svg">
<path d="M14.8046 143.374C16.8353 143.403 18.5294 144.286 19.7753 145.186C21.2101 146.223 22.563 147.699 23.622 148.95L24.5751 150.101C24.8202 150.401 25.0344 150.663 25.2119 150.87C26.4698 152.337 26.3004 154.547 24.833 155.805C23.3653 157.063 21.1554 156.893 19.8974 155.425C19.7088 155.205 19.5251 154.987 19.3456 154.772L18.8183 154.134C17.732 152.818 16.7673 151.65 15.6757 150.861C15.0364 150.399 14.7359 150.375 14.706 150.374C14.6995 150.374 14.6959 150.375 14.6914 150.375C14.6859 150.377 14.6652 150.382 14.6269 150.399C14.5484 150.434 14.354 150.541 14.0605 150.834C11.8246 153.07 11.2715 155.173 11.4531 157.308C11.6555 159.687 12.8016 162.379 14.6113 165.492C15.5828 167.163 15.0157 169.304 13.3447 170.276C12.4873 170.774 11.5057 170.869 10.622 170.616C9.43463 171.607 8.30739 172.816 7.62592 174.032C6.84798 175.42 6.86431 176.346 7.3183 177.147C7.96655 178.291 9.20694 179.017 11.5761 179.333C13.3224 179.566 15.0467 179.518 16.8896 179.466C17.2401 179.456 17.5949 179.447 17.955 179.439C18.295 179.094 18.6279 178.761 18.9482 178.442L18.9531 178.437C19.0691 178.321 19.1843 178.208 19.2968 178.095C20.6637 176.728 22.8792 176.728 24.246 178.095C25.6128 179.462 25.6128 181.678 24.246 183.044C20.9829 186.308 18.6023 188.791 17.9833 192.023C17.8175 192.889 17.7641 194.053 17.9316 195.104C18.1097 196.221 18.4496 196.701 18.5966 196.831C18.6018 196.835 18.6047 196.841 18.6074 196.847C18.6194 196.873 18.6326 196.901 18.8896 196.836C19.3917 196.71 20.1848 196.295 21.2128 195.458C23.2377 193.807 25.1064 191.416 26.0458 190.192C27.2224 188.658 29.4194 188.369 30.9531 189.545C31.2713 189.79 31.536 190.078 31.7451 190.395C33.0469 190.317 34.3408 190.973 35.0165 192.189C35.9866 193.935 36.8536 194.707 37.4277 195.027C37.9134 195.298 38.3547 195.347 38.913 195.2C40.3534 194.818 42.4905 193.09 44.6738 189.66C48.0728 184.318 48.5468 178.42 46.6318 172.197C46.0636 170.349 47.0999 168.391 48.9472 167.823C50.6077 167.312 52.3583 168.097 53.1083 169.603C53.6708 169.883 54.1644 170.319 54.5195 170.893C55.1951 171.984 55.8766 173.1 56.5664 174.229L56.5683 174.232C60.6783 180.962 65.0942 188.194 70.4853 193.859C76.6853 200.373 83.6454 204.25 92.2929 202.963C99.2392 201.93 104.532 196.147 108.688 187.882C112.21 180.88 114.541 172.834 116.29 166.305L117.006 163.607L117.106 163.223C117.6 161.354 119.515 160.24 121.384 160.733C123.253 161.226 124.368 163.14 123.875 165.009L123.722 165.591V165.592C121.929 172.392 119.301 182.359 114.942 191.027C110.515 199.832 103.78 208.331 93.3222 209.887C81.5369 211.64 72.4472 206.074 65.415 198.685C61.2118 194.269 57.5544 188.999 54.332 183.927C53.745 187.175 52.524 190.361 50.579 193.417C48.1433 197.245 44.7771 200.889 40.7031 201.967C38.5043 202.549 36.1853 202.349 34.0175 201.14C32.3122 200.189 30.8756 198.712 29.663 196.86C28.5676 198.141 27.1679 199.634 25.6357 200.883C24.283 201.986 22.5504 203.133 20.6005 203.624C18.4646 204.163 16.0339 203.896 13.9775 202.09C12.0815 200.425 11.3169 198.077 11.0185 196.206C10.7095 194.267 10.807 192.281 11.1083 190.707C11.4035 189.165 11.9228 187.75 12.581 186.448C11.9278 186.412 11.2782 186.356 10.6503 186.272C7.37586 185.835 3.46126 184.538 1.22846 180.598C-0.838633 176.95 0.0107343 173.302 1.51948 170.61C2.8155 168.297 4.7437 166.36 6.45991 164.976C5.45125 162.731 4.68676 160.35 4.47846 157.902C4.11926 153.68 5.43835 149.558 9.11127 145.885C10.7119 144.285 12.6443 143.344 14.8046 143.374ZM336.415 76.8862C338.199 76.4628 340.276 76.2872 342.34 76.8882C344.504 77.5184 346.352 78.917 347.679 81.0874C349.492 84.0548 350.342 87.8652 349.872 91.5083C355.016 91.1455 360.507 91.3212 365.943 94.0395C367.441 94.7886 369.297 95.9593 370.588 97.7036C372.018 99.6364 372.681 102.221 371.577 105.06C370.558 107.68 368.492 109.206 366.65 110.119C364.836 111.017 362.851 111.509 361.48 111.844C361.121 111.932 360.665 112.057 360.145 112.198H360.144C359.815 112.287 359.459 112.384 359.086 112.483C359.96 113.64 360.809 115.097 361.144 116.766C361.549 118.783 361.157 120.939 359.61 122.795C355.985 127.146 350.491 126.409 346.822 125.124C345.769 124.756 344.73 124.301 343.733 123.794C343.366 125.729 342.618 127.57 341.614 129.131C339.141 132.977 334.455 136.02 328.741 134.247C325.345 133.193 323.237 130.674 322.008 127.91C321.943 127.765 321.881 127.619 321.82 127.471C320.013 132.868 318.053 138.228 315.858 143.496C313.926 148.133 311.541 153.474 308.276 158.162C305 162.866 300.684 167.14 294.797 169.348C283.113 173.73 273.477 171.257 265.713 165.377C258.193 159.682 252.498 150.863 247.964 142.577C247.036 140.881 247.659 138.754 249.354 137.826C251.05 136.898 253.178 137.521 254.105 139.216C258.561 147.36 263.671 155.051 269.938 159.797C275.962 164.359 283.098 166.259 292.34 162.793C296.443 161.255 299.736 158.176 302.532 154.162C305.339 150.131 307.488 145.385 309.397 140.803C314.264 129.123 317.961 116.909 321.509 104.566C321.577 104.23 321.645 103.917 321.709 103.628C321.778 103.317 321.887 103.025 322.028 102.755L322.297 101.816C322.828 99.9573 324.765 98.8806 326.624 99.4116C328.483 99.9426 329.558 101.88 329.027 103.739C328.79 104.568 328.553 105.398 328.314 106.229C327.697 109.324 326.985 114.258 327.189 118.776C327.305 121.331 327.706 123.497 328.403 125.066C329.071 126.568 329.88 127.272 330.815 127.562C332.664 128.136 334.412 127.389 335.727 125.345C337.118 123.181 337.327 120.509 336.491 118.838C336.196 118.248 336.083 117.615 336.132 117.001C336.059 116.043 336.38 115.058 337.099 114.31C338.438 112.917 340.655 112.874 342.048 114.213C343.467 115.578 346.302 117.526 349.136 118.518C352.179 119.584 353.593 119.081 354.232 118.314C354.246 118.298 354.257 118.285 354.266 118.275C354.285 118.253 354.294 118.243 354.297 118.231C354.299 118.221 354.296 118.21 354.291 118.189C354.288 118.178 354.285 118.163 354.281 118.144C354.223 117.857 353.982 117.301 353.35 116.508C352.411 115.334 351.079 114.209 349.976 113.389C348.914 113.181 347.853 112.802 346.862 112.167C345.234 111.125 344.759 108.962 345.801 107.333C346.841 105.708 349.001 105.232 350.628 106.267C351.228 106.221 351.845 106.328 352.413 106.602C352.87 106.595 353.418 106.548 354.072 106.444C355.061 106.286 355.983 106.062 356.912 105.816L357.846 105.564C358.482 105.39 359.132 105.212 359.818 105.044C361.248 104.695 362.515 104.355 363.543 103.846C364.543 103.351 364.91 102.893 365.054 102.523C365.101 102.402 365.119 102.318 365.126 102.263V102.181C365.123 102.161 365.103 102.06 364.96 101.867C364.621 101.409 363.896 100.842 362.812 100.3C358.234 98.0112 353.442 98.1481 347.486 98.7436C347.211 98.7711 346.94 98.7655 346.678 98.7309C345.992 99.5045 345.194 100.214 344.274 100.839C342.676 101.926 340.498 101.512 339.411 99.9136C338.324 98.3151 338.739 96.1382 340.338 95.0513C343.209 93.0991 343.947 88.4057 341.705 84.7378C341.241 83.9788 340.788 83.727 340.383 83.6089C339.877 83.4617 339.115 83.4398 338.032 83.6968C335.796 84.2275 333.313 85.6576 331.3 86.939C329.669 87.9767 327.506 87.4962 326.468 85.8657C325.43 84.2351 325.911 82.0716 327.541 81.0337C329.554 79.7526 332.917 77.7165 336.415 76.8862ZM175.247 0.07567C199.019 -0.795496 221.298 5.76121 237.343 24.6431C250.445 40.0629 255.62 61.484 249.78 81.2095C244.244 99.9106 228.873 116.677 212.319 125.874C189.061 138.795 164.117 138.461 139.796 130.787C117.072 123.616 93.6539 105.996 90.29 80.272C90.267 80.2706 90.2437 80.2709 90.2206 80.269C88.2939 80.1148 86.8565 78.4273 87.0107 76.5005C90.6695 30.7696 132.082 1.65763 175.247 0.07567ZM232.009 29.1763C217.738 12.3816 197.808 6.25334 175.503 7.07079C136.976 8.4829 101.231 33.033 94.7851 70.6977C96.0167 71.2396 96.8767 72.471 96.8769 73.9028C96.877 98.5615 118.555 116.743 141.903 124.111C164.942 131.381 187.789 131.494 208.92 119.754C224.187 111.273 238.147 95.8474 243.068 79.2231C248.196 61.9025 243.676 42.9078 232.009 29.1763ZM160.864 94.2768C162.748 93.8425 164.627 95.0166 165.061 96.8999C165.496 98.7833 164.321 100.662 162.437 101.097C158.553 101.994 154.859 103.1 150.899 104.185C147.002 105.253 142.949 106.271 138.67 106.861C136.755 107.125 134.989 105.786 134.725 103.872C134.46 101.957 135.798 100.191 137.713 99.9263C141.529 99.3999 145.229 98.481 149.049 97.4341C152.806 96.4042 156.794 95.216 160.864 94.2768ZM114.327 58.4722C116.025 57.5486 118.15 58.1761 119.074 59.8735C122.064 65.367 124.781 70.9564 127.409 76.5415C128.232 78.2904 127.481 80.3746 125.732 81.1977C123.983 82.0207 121.898 81.2709 121.075 79.522C118.468 73.9808 115.819 68.5345 112.926 63.2192C112.002 61.5215 112.629 59.3962 114.327 58.4722ZM148.731 47.3657C149.91 45.834 152.108 45.5471 153.64 46.7251C156.649 49.0398 158.183 52.2775 159.256 55.0405C160.448 58.1126 161.02 60.3053 162.174 62.3823C163.112 64.0719 162.504 66.2032 160.814 67.1421C159.125 68.0808 156.993 67.4715 156.055 65.7817C154.598 63.1601 153.581 59.7655 152.73 57.5737C151.759 55.0727 150.794 53.3675 149.372 52.2739C147.84 51.0953 147.553 48.8977 148.731 47.3657Z" fill="black"/>
</svg>
