<svg width="169" height="167" viewBox="0 0 169 167" fill="none" xmlns="http://www.w3.org/2000/svg">
<path d="M85.9744 0.0151632C108.029 -0.430217 130.349 8.96597 146.26 24.2183C162.202 39.5017 171.95 60.9261 168.198 84.5259C164.828 105.72 150.441 124.945 132.3 135.56C111.6 147.672 87.517 152.826 63.6219 148.473C59.0424 147.639 54.342 146.43 49.6932 144.834C48.4318 146.422 47.1997 147.982 46.0545 149.487C42.3352 154.373 39.0235 159.26 36.6981 164.492C35.913 166.258 33.8443 167.054 32.0779 166.269C30.3119 165.484 29.5166 163.415 30.3016 161.649C32.9544 155.68 36.647 150.287 40.4842 145.247C41.2865 144.193 42.0792 143.176 42.8611 142.182C32.8031 137.8 23.4162 131.481 16.5692 123.046C10.2623 115.277 3.97587 106.15 1.53595 95.6656C0.577738 95.0144 -0.0374675 93.9024 0.00177314 92.6587C0.377985 80.785 1.04092 69.5749 6.02619 57.8863C11.0191 46.18 18.0712 35.4394 26.5076 26.0034C41.5955 9.12812 63.9312 0.460493 85.9744 0.0151632ZM86.1151 7.01321C65.7001 7.42572 45.3232 15.4618 31.7264 30.6695C23.7521 39.5885 17.1319 49.6896 12.4647 60.6324C8.9825 68.7968 7.82998 76.7537 7.3133 85.5406C7.41735 85.8719 7.4744 86.2247 7.47443 86.5904C7.4746 98.3715 14.0799 108.873 22.0037 118.634C28.3926 126.505 37.5034 132.451 47.3836 136.492C48.9027 134.577 50.3964 132.664 51.8748 130.651C53.2086 128.835 54.4138 126.911 55.6434 124.878C56.373 123.673 57.1261 122.408 57.9051 121.135C54.0065 120.315 50.5516 117.888 48.2899 114.945C44.9462 110.594 43.4903 104.082 47.8055 98.5904C51.8034 93.5028 57.7863 92.6755 62.8719 93.9536C66.0425 94.7506 69.1244 96.4088 71.5945 98.6382C72.013 97.9295 72.364 97.383 72.5027 97.19C75.7792 92.6314 80.9386 87.4728 86.7166 85.1187C89.7393 83.8872 93.4028 83.1899 96.0047 85.648C97.2201 86.7966 97.7307 88.2568 97.9344 89.4898C98.1383 90.7245 98.0837 92.004 97.9354 93.1685C97.771 94.4584 97.4516 95.8367 97.0672 97.1929C98.2693 96.9336 99.502 96.7618 100.73 96.6939C104.586 96.4806 109.06 97.2765 112.257 100.473C114.087 102.304 115.006 104.631 114.418 107.126C113.908 109.287 112.408 110.884 111.14 111.938C110.797 112.223 110.437 112.495 110.066 112.755C111.252 113.401 112.422 114.278 113.307 115.459C114.653 117.256 115.182 119.57 114.386 122.048C113.394 125.134 110.947 127.271 108.575 128.579C106.172 129.903 103.348 130.662 100.829 130.662C98.8964 130.661 97.3291 129.094 97.3289 127.162C97.329 125.229 98.8963 123.662 100.829 123.662C102.066 123.662 103.736 123.252 105.196 122.448C106.687 121.626 107.475 120.672 107.721 119.906C107.786 119.706 107.767 119.739 107.706 119.657C107.521 119.411 107.018 118.985 106.038 118.579C105.103 118.191 103.999 117.933 102.975 117.836C101.876 117.732 101.231 117.847 101.081 117.899C99.2554 118.533 97.2607 117.568 96.6258 115.743C95.9911 113.917 96.9567 111.923 98.782 111.288C98.875 111.255 98.9693 111.225 99.0643 111.196C99.4677 110.412 100.166 109.779 101.069 109.478C102.456 109.016 105.055 107.894 106.666 106.555C107.173 106.133 107.413 105.827 107.521 105.661C107.474 105.602 107.406 105.522 107.307 105.423C106.077 104.193 103.941 103.527 101.117 103.683C98.4048 103.833 95.6672 104.726 93.825 105.822C92.9155 107.129 91.1966 107.687 89.6551 107.071C87.8605 106.353 86.9882 104.316 87.7059 102.521C88.6446 100.174 90.5635 95.646 90.992 92.2837C91.0573 91.7714 91.0717 91.3646 91.0623 91.0552C90.7021 91.1251 90.1535 91.2771 89.3582 91.6011C85.28 93.2626 81.0668 97.2674 78.1863 101.275C78.1664 101.308 77.9335 101.669 77.5779 102.274C77.2897 102.765 76.9745 103.329 76.699 103.87C77.3975 105.616 76.5882 107.615 74.8524 108.375C74.5123 108.523 74.0239 108.701 73.4422 108.766C72.854 108.832 71.9386 108.805 71.0194 108.264C70.7351 108.097 70.4937 107.909 70.2879 107.71C69.7957 107.412 69.37 106.99 69.0643 106.455C67.5949 103.883 64.501 101.581 61.1658 100.743C57.9279 99.9289 55.1274 100.602 53.3094 102.916C51.563 105.138 51.7951 108.018 53.8406 110.679C55.9479 113.421 59.2438 114.868 61.9705 114.307C63.2773 114.038 64.5633 114.536 65.3631 115.493C65.451 115.566 65.5362 115.644 65.618 115.727L65.741 115.859L65.9246 116.074C66.3647 116.613 66.8695 117.415 67.0086 118.468C67.1893 119.837 66.6682 120.895 66.2166 121.521C65.8663 122.007 65.3894 122.44 65.3455 122.483C65.3179 122.51 65.2963 122.53 65.2811 122.545C64.0322 124.472 62.8898 126.425 61.6326 128.502C60.3802 130.572 59.0437 132.716 57.5174 134.794C56.5086 136.168 55.4301 137.572 54.324 138.988C57.8299 140.081 61.3738 140.948 64.8758 141.586C86.9556 145.609 109.353 140.877 128.764 129.518C145.293 119.846 158.279 102.335 161.285 83.4273C164.605 62.5431 156.061 43.3104 141.416 29.271C126.738 15.2006 106.174 6.608 86.1151 7.01321ZM51.2664 57.3657C53.1505 56.9352 55.0278 58.1137 55.4588 59.9976C56.3754 64.0075 55.996 68.4426 55.9959 71.5503C55.9959 73.4832 54.4287 75.0501 52.4959 75.0503C50.5629 75.0503 48.9959 73.4833 48.9959 71.5503C48.996 67.5147 49.3168 64.5434 48.6346 61.5581C48.2042 59.674 49.3824 57.7966 51.2664 57.3657ZM107.696 54.0562C108.428 53.4163 109.786 52.8081 111.33 53.3853C112.467 53.8105 113.02 54.6611 113.177 54.9136C113.555 55.5225 113.718 56.1697 113.781 56.4273C113.951 57.1166 114.066 57.9696 114.147 58.6988C114.314 60.2031 114.41 61.9086 114.42 62.5103C114.438 63.6967 114.541 64.8852 114.653 66.2329C114.762 67.5373 114.88 68.9891 114.88 70.482C114.879 72.4146 113.312 73.9817 111.38 73.982C109.447 73.9818 107.88 72.4147 107.88 70.482C107.88 69.3195 107.788 68.1404 107.678 66.815C107.57 65.5328 107.443 64.0895 107.421 62.6177C107.415 62.2713 107.337 60.7907 107.19 59.4712C107.153 59.1323 107.115 58.8456 107.08 58.6167C106.129 57.1784 106.362 55.2233 107.696 54.0562Z" fill="black"/>
</svg>
