<svg width="290" height="312" viewBox="0 0 290 312" fill="none" xmlns="http://www.w3.org/2000/svg">
<path d="M93.901 265.898C94.306 264.008 96.1671 262.804 98.0572 263.209C107.022 265.13 117.781 270.045 121.557 280.675C124.894 290.066 122.144 300.762 113.576 306.642C105.353 312.286 94.243 313.573 84.9322 309.5C81.8608 308.156 78.8026 305.654 76.3785 302.855C74.8879 301.134 73.5155 299.161 72.5016 297.085C70.5228 298.274 68.1922 299.154 66.0396 299.807C63.229 300.661 60.3606 301.232 58.1871 301.561C56.3484 301.84 52.9023 302.081 49.9479 301.412C48.5057 301.085 46.6348 300.424 45.2877 298.919C43.7086 297.154 43.3873 294.866 44.0719 292.601C45.22 288.804 47.539 284.956 50.4693 281.817C53.3886 278.691 57.1521 276.017 61.3463 274.944C63.219 274.465 65.125 275.595 65.6041 277.468C66.0831 279.34 64.9533 281.246 63.0807 281.725C60.5541 282.372 57.8952 284.12 55.5855 286.594C53.3536 288.984 51.6707 291.818 50.8443 294.396C50.9988 294.454 51.2106 294.521 51.4947 294.586C53.2348 294.98 55.6976 294.859 57.1383 294.64C59.0681 294.348 61.5936 293.841 64.0055 293.109C66.4053 292.381 68.3797 291.52 69.5895 290.626C69.6165 290.584 69.6574 290.517 69.7125 290.418C69.7858 290.286 69.8523 290.157 69.942 289.982V289.981L69.9996 289.87L70.0025 289.863C70.0979 289.677 70.2634 289.356 70.4537 289.057L70.4654 289.039C70.589 288.844 71.0955 288.043 72.0436 287.546C72.6689 287.217 73.5589 286.983 74.565 287.209C75.5095 287.421 76.1403 287.946 76.4918 288.324C77.1055 288.984 77.3857 289.754 77.5045 290.096C77.6631 290.552 77.7968 291.072 77.9186 291.62C78.3527 293.573 79.7016 296 81.6695 298.272C83.6291 300.535 85.8852 302.275 87.7389 303.086C94.7453 306.151 103.303 305.202 109.615 300.871C115.297 296.971 117.35 289.74 114.962 283.017C112.437 275.91 104.83 271.819 96.5904 270.054C94.7004 269.649 93.4961 267.788 93.901 265.898ZM262.42 204.039C264.898 203.279 268.152 202.622 270.927 203.697C272.488 204.302 273.814 205.424 274.629 207.084C275.397 208.649 275.588 210.439 275.458 212.27C275.258 215.064 274.271 217.458 272.949 219.508C276.72 220.439 280.099 222.422 282.617 225.176C286.889 229.848 288.566 236.637 285.636 243.722C284.028 247.613 281.754 252.002 278.699 255.758C275.65 259.505 271.644 262.835 266.546 264.17C259.917 265.906 253.797 263.068 248.983 259.626C244.905 256.71 241.183 252.928 238.28 249.977C237.742 249.431 237.233 248.914 236.754 248.435C235.388 247.069 235.388 244.852 236.754 243.485C238.121 242.118 240.338 242.118 241.705 243.485C242.251 244.032 242.809 244.598 243.379 245.176C246.297 248.136 249.518 251.404 253.054 253.932C257.3 256.968 261.19 258.337 264.773 257.398C267.945 256.568 270.78 254.4 273.269 251.341C275.752 248.289 277.715 244.561 279.168 241.047C281.022 236.561 279.956 232.639 277.451 229.899C275.027 227.248 271.152 225.618 266.928 225.954C266.453 226.304 265.972 226.596 265.491 226.805C265.157 226.951 264.411 227.244 263.487 227.18C262.996 227.145 262.13 226.985 261.338 226.295C260.448 225.519 260.105 224.47 260.108 223.572C260.113 222.159 260.92 221.244 261.135 221.007C261.499 220.604 261.911 220.298 262.289 220.07C262.748 219.793 263.268 219.563 263.836 219.391C266.539 216.875 268.279 214.52 268.475 211.771C268.544 210.811 268.42 210.36 268.363 210.212C267.939 210.071 266.728 210.04 264.471 210.731C261.048 211.781 257.321 213.769 254.602 215.219C253.803 215.645 253.09 216.025 252.499 216.321C250.77 217.186 248.667 216.485 247.802 214.756C246.938 213.027 247.639 210.925 249.368 210.06C249.731 209.879 250.246 209.603 250.879 209.264C253.531 207.844 258.242 205.319 262.42 204.039ZM117.264 77.5682C138.944 75.0518 163.494 81.0455 183.342 93.4246C203.205 105.812 218.768 124.872 221.672 148.737C221.896 150.576 222.02 152.397 222.053 154.198C222.806 152.709 223.594 151.237 224.428 149.798C229.461 141.108 236.306 133.323 247.442 129.611C258.035 126.08 268.705 131.607 275.648 137.43C284.959 145.24 288.07 154.332 289.383 165.274C289.614 167.193 288.245 168.937 286.326 169.167C284.407 169.397 282.663 168.027 282.433 166.108C281.244 156.197 278.62 149.059 271.15 142.794C264.768 137.441 256.691 133.907 249.656 136.252C240.732 139.226 235.037 145.446 230.485 153.305C228.196 157.258 226.236 161.557 224.301 166.014C223.88 166.984 223.458 167.967 223.034 168.954C221.538 172.437 220.014 175.986 218.373 179.345C217.796 180.525 216.642 181.236 215.417 181.304C211.282 189.223 205.488 196.335 198.808 202.37C180.677 218.75 155.956 225.512 132.341 224.754C113.854 224.16 93.3871 218.678 77.9674 207.607C77.5681 207.321 77.174 207.03 76.7828 206.738C76.2246 207.405 75.4202 207.867 74.4879 207.971C72.5924 208.181 70.8826 206.836 70.6324 204.955C70.6324 204.956 70.6318 204.957 70.6314 204.957C70.6303 204.956 70.6275 204.951 70.6236 204.942L70.6178 204.928C70.5847 204.849 70.4847 204.612 70.2232 204.191C69.8459 203.584 69.3065 202.867 68.6676 202.095C68.0374 201.333 67.3638 200.58 66.7418 199.897C66.602 199.744 66.4598 199.588 66.3189 199.434L66.3033 199.418L66.3004 199.415C65.8622 198.936 65.4393 198.474 65.148 198.134C59.0927 191.048 49.8647 186.526 40.4391 184.558C34.3324 183.283 28.3349 183.444 22.7135 185.616C19.1344 186.999 15.1727 189.506 12.1119 192.686C9.03263 195.886 7.15158 199.453 7.02598 202.97C6.62939 214.074 10.7195 222.016 17.1158 231.61C18.1879 233.218 17.7532 235.391 16.1451 236.464C14.5368 237.536 12.3639 237.101 11.2916 235.493C4.6633 225.551 -0.446044 216.073 0.0308593 202.72C0.239403 196.882 3.2869 191.761 7.06895 187.832C10.8696 183.883 15.7027 180.821 20.19 179.087C27.3308 176.328 34.7439 176.218 41.8697 177.706C46.9073 178.758 52.0155 180.488 56.7779 182.952C56.2412 181.787 55.7462 180.605 55.2984 179.406C52.7827 172.667 51.7267 165.483 52.232 157.995C49.5457 140.962 48.6383 122.07 59.7672 106.205C72.5063 88.0449 97.3842 79.8758 117.264 77.5682ZM179.638 99.3641C161.293 87.9227 138.744 82.3789 119.009 84.4178L118.072 84.5213C98.8357 86.7541 76.4934 94.5498 65.4977 110.224C59.0057 119.479 57.1983 130.096 57.5406 141.217C58.1566 141.06 58.8228 141.07 59.4723 141.279C61.312 141.872 62.3228 143.844 61.7301 145.683C60.4039 149.8 59.598 153.809 59.273 157.693C59.5442 159.38 59.8352 161.07 60.1383 162.759C60.3366 163.864 59.9904 164.941 59.2936 165.717C59.6515 169.619 60.5187 173.373 61.857 176.958C65.3708 186.37 72.215 194.859 82.0504 201.921C96.0901 212 115.119 217.197 132.566 217.758C154.813 218.472 177.625 212.074 194.116 197.176C207.979 184.651 216.949 167.87 214.724 149.583C212.146 128.394 198.262 110.979 179.638 99.3641ZM153.034 168.773C154.929 168.394 156.773 169.623 157.152 171.518C157.531 173.414 156.302 175.257 154.407 175.637C147.38 177.042 140.596 178.223 134.241 180.423C132.414 181.055 130.421 180.087 129.789 178.261C129.157 176.434 130.125 174.44 131.952 173.807C138.879 171.41 146.278 170.124 153.034 168.773ZM108.525 133.885C109.892 132.518 112.107 132.518 113.474 133.885C115.436 135.846 116.33 138.755 116.872 140.864C117.163 141.997 117.413 143.171 117.629 144.136C117.858 145.16 118.049 145.947 118.249 146.547C118.86 148.38 117.868 150.362 116.035 150.973C114.201 151.585 112.219 150.593 111.608 148.76C111.282 147.781 111.023 146.672 110.797 145.663C110.558 144.594 110.347 143.599 110.092 142.607C109.542 140.467 108.998 139.307 108.525 138.834C107.158 137.467 107.158 135.251 108.525 133.885ZM156.14 128.068C156.38 126.15 158.13 124.79 160.047 125.03C161.572 125.221 162.413 126.231 162.742 126.723C163.09 127.246 163.268 127.77 163.363 128.094C163.561 128.771 163.659 129.53 163.718 130.181C163.842 131.541 163.861 133.255 163.841 134.889C163.822 136.551 163.761 138.246 163.706 139.604C163.647 141.046 163.604 141.953 163.604 142.252C163.604 144.185 162.037 145.752 160.104 145.752C158.171 145.752 156.604 144.185 156.604 142.252C156.604 141.764 156.661 140.579 156.712 139.321C156.766 137.98 156.823 136.365 156.841 134.806C156.86 133.221 156.836 131.801 156.747 130.813C156.734 130.677 156.722 130.556 156.709 130.452C156.254 129.776 156.031 128.94 156.14 128.068ZM49.482 7.77815C66.5197 -2.64129 82.7302 -1.57035 97.3473 4.98811C108.893 10.1687 119.491 18.7827 128.921 27.7137C128.602 26.1253 129.424 24.4758 130.972 23.8104C132.269 23.2531 133.61 22.6627 134.988 22.0565L137.233 21.0711C142.541 18.75 148.317 16.3208 154.178 14.6346C162.501 12.2404 171.485 11.1808 180.28 14.1258C183.627 15.2465 186.193 17.153 187.327 20.0321C188.427 22.8266 187.826 25.6688 186.842 27.9276C184.906 32.3768 180.658 36.5379 177.475 38.8338C163.126 49.1852 145.852 55.7502 129.967 61.7869L128.683 62.2742C99.4161 73.4032 69.0072 78.957 37.6588 78.0741C36.4881 78.041 35.4682 77.4369 34.858 76.536C34.8487 76.5344 34.839 76.5327 34.8297 76.5311C31.3685 75.9364 29.2018 73.553 27.9371 71.0008C26.7053 68.5149 26.1297 65.5257 25.86 62.7274C25.3167 57.0905 25.921 51.034 26.2018 48.3826C26.9773 41.0594 29.5835 32.9311 33.5279 25.6815C37.4603 18.4541 42.8798 11.8158 49.482 7.77815ZM94.482 11.3748C81.6094 5.59904 67.883 4.72951 53.1334 13.7498C47.9093 16.9448 43.2388 22.4797 39.6764 29.0272C36.1262 35.5524 33.8319 42.8009 33.1627 49.1199C32.8816 51.7742 32.3595 57.197 32.8277 62.0555C33.0638 64.5046 33.5279 66.5177 34.2096 67.8934C34.8584 69.2025 35.4789 69.5405 36.0152 69.6326C36.9792 69.7984 37.7831 70.3435 38.2994 71.0887C68.515 71.8796 97.8646 66.504 126.195 55.7313L127.117 55.3817C143.27 49.2412 159.789 42.9608 173.379 33.1571C176.032 31.2434 179.185 27.9813 180.424 25.1336C181.029 23.7439 180.96 22.9686 180.813 22.5955C180.699 22.3066 180.239 21.494 178.057 20.7635C171.154 18.452 163.759 19.1617 156.114 21.3612C150.689 22.9217 145.384 25.1503 140.205 27.4139L137.993 28.3846C136.565 29.0123 135.146 29.6354 133.737 30.241C133.104 30.5133 132.434 30.5844 131.8 30.4823C133.113 31.7623 134.401 33.0425 135.664 34.3133C137.026 35.6843 137.02 37.9009 135.649 39.2635C134.278 40.6261 132.061 40.6189 130.699 39.2479C119.717 28.1985 107.586 17.2546 94.482 11.3748Z" fill="black"/>
</svg>
