<svg width="360" height="183" viewBox="0 0 360 183" fill="none" xmlns="http://www.w3.org/2000/svg">
<path d="M18.5422 118.044C21.6241 116.87 25.0965 117.003 28.1203 117.692C31.1762 118.388 34.1759 119.74 36.467 121.471C38.4555 122.974 39.708 124.652 40.2922 126.766C40.7365 128.374 40.7278 130.127 40.7209 131.566C40.7201 131.738 40.7189 131.906 40.7189 132.069C40.7189 134.002 39.1519 135.569 37.2189 135.569C35.2861 135.569 33.7189 134.002 33.7189 132.069V131.898C33.7191 130.02 33.7199 129.263 33.5451 128.63C33.4515 128.292 33.2714 127.83 32.2472 127.056C30.8267 125.983 28.758 125.017 26.5656 124.518C24.3408 124.011 22.3843 124.072 21.0344 124.586C19.6247 125.123 18.6661 127.211 19.3957 129.035C20.8282 132.616 23.9365 134.393 28.6379 136.744C30.3667 137.608 31.0675 139.71 30.2033 141.439C30.0212 141.803 29.784 142.122 29.507 142.39C29.595 142.595 29.6642 142.812 29.7131 143.038C30.1212 144.927 28.9207 146.79 27.0314 147.198C26.5973 147.292 26.1614 147.382 25.7248 147.472L24.4123 147.739C21.6131 148.305 18.7964 148.875 16.1066 149.811C12.625 151.023 10.0635 152.637 8.63885 154.968L8.55682 155.101C8.26457 155.579 8.00803 155.999 7.78143 156.43C7.6923 156.6 7.61952 156.75 7.56072 156.882C11.2578 158.461 16.4276 158.381 22.3351 157.315C25.7596 156.697 29.1352 155.813 32.3019 154.919L35.3928 154.033H35.3937C36.7983 153.626 38.1458 153.236 39.4201 152.888C40.8654 152.494 42.347 153.066 43.1769 154.211C44.4572 155.138 44.9869 156.853 44.3586 158.378C43.6225 160.166 41.5765 161.018 39.7892 160.282C39.7351 160.259 39.6942 160.249 39.591 160.268C39.4529 160.294 39.1799 160.384 38.7795 160.657C37.9451 161.224 36.9624 162.307 36.0568 163.797C35.1693 165.258 34.4949 166.885 34.1467 168.311C33.9734 169.021 33.8964 169.616 33.8898 170.071C33.8838 170.49 33.9384 170.677 33.9455 170.702L33.9465 170.703C33.947 170.704 33.9463 170.705 33.9455 170.703C34.7361 172.6 35.9997 173.571 37.6974 174.056C39.5676 174.591 42.0611 174.54 44.9797 173.931C50.8099 172.714 57.0339 169.549 60.2541 167.402C61.5967 166.507 63.3326 166.662 64.4933 167.673C65.2944 167.846 66.0386 168.298 66.5656 169.007C66.933 169.502 67.2701 169.964 67.5851 170.397C68.8013 172.067 69.6955 173.295 70.7863 174.22C71.8523 175.124 72.9662 175.601 74.8781 175.276C79.6637 174.463 83.3949 170.84 86.6008 166.031C87.6729 164.423 89.846 163.988 91.4543 165.06C93.0626 166.132 93.4972 168.305 92.425 169.914C88.9134 175.181 83.7628 180.867 76.05 182.176C71.9055 182.88 68.7442 181.665 66.2599 179.559C64.5868 178.14 63.1569 176.225 61.9621 174.577C58.0066 176.884 52.1689 179.581 46.4094 180.784C42.9441 181.507 39.1798 181.761 35.7726 180.787C32.1932 179.763 29.1588 177.413 27.4846 173.395C26.5814 171.227 26.8513 168.677 27.3459 166.651C27.6276 165.497 28.0321 164.311 28.5334 163.15C26.9002 163.543 25.2361 163.905 23.5783 164.204C17.0844 165.375 9.70761 165.804 3.82635 162.864C2.47162 162.186 1.34074 161.126 0.756035 159.64C0.199802 158.226 0.309358 156.857 0.548027 155.833C0.954312 154.092 1.98991 152.413 2.54021 151.521L2.54217 151.519C2.58669 151.447 2.62768 151.379 2.66521 151.318C5.32174 146.971 9.68567 144.634 13.8058 143.2C16.4727 142.271 19.3367 141.631 21.8801 141.108C18.3665 139.106 14.7828 136.352 12.8957 131.634C10.9725 126.826 12.8584 120.21 18.5422 118.044ZM178.6 0.0756726C202.372 -0.795511 224.651 5.76122 240.695 24.6431C253.798 40.0629 258.972 61.484 253.133 81.2095C247.596 99.9106 232.226 116.677 215.672 125.874C192.414 138.795 167.47 138.461 143.149 130.787C120.425 123.616 97.0067 105.995 93.6428 80.272C93.6198 80.2706 93.5965 80.2709 93.5734 80.269C91.6467 80.1148 90.2093 78.4273 90.3635 76.5005C94.0223 30.7696 135.435 1.65764 178.6 0.0756726ZM235.362 29.1763C221.091 12.3816 201.161 6.25332 178.856 7.07079C140.328 8.4829 104.583 33.033 98.1379 70.6977C99.3695 71.2396 100.229 72.471 100.23 73.9028C100.23 98.5615 121.908 116.743 145.256 124.111C168.295 131.381 191.142 131.494 212.273 119.754C227.54 111.273 241.499 95.8474 246.421 79.2231C251.549 61.9025 247.029 42.9078 235.362 29.1763ZM298.152 52.4458C300.725 51.555 303.145 52.0916 305.085 53.2202C306.933 54.2949 308.42 55.9307 309.563 57.5434C311.484 60.2546 312.905 63.584 313.567 66.1724C314.748 65.8132 315.956 65.353 317.21 64.8188C318.473 64.2809 319.74 63.686 321.066 63.0591L321.422 62.8911C322.621 62.3235 323.871 61.7317 325.131 61.1772C330.672 58.7386 337.206 56.6407 344.678 59.3579C346.675 60.0843 348.299 61.2787 349.346 62.9663C350.379 64.6323 350.646 66.4523 350.535 68.0923C350.322 71.2356 348.7 74.2857 347.106 76.4116C346.124 77.7203 345.086 78.9074 343.982 79.9702C344.543 79.986 345.101 80.0088 345.652 80.0395C349.083 80.2311 352.825 80.7496 355.428 82.1626C357.498 83.2863 359.005 84.9977 359.454 87.2554C359.872 89.3548 359.242 91.2917 358.487 92.7319C357.002 95.5616 354.255 97.986 352.177 99.1929C346.019 102.768 339.625 103.606 333.303 103.17C333.512 103.319 333.719 103.471 333.921 103.625C335.497 104.826 337.111 106.365 338.327 108.068C339.471 109.669 340.652 111.962 340.369 114.504C339.896 118.765 337.491 121.697 334.306 123.462C331.286 125.136 327.603 125.762 324.126 125.888C317.195 126.14 309.588 124.44 305.853 122.78C304.086 121.995 303.291 119.926 304.076 118.16C304.861 116.393 306.929 115.598 308.695 116.382C311.396 117.582 317.936 119.109 323.872 118.893C326.83 118.786 329.262 118.255 330.913 117.339C332.399 116.516 333.223 115.429 333.411 113.731V113.727C333.406 113.672 333.357 113.153 332.631 112.136C331.918 111.138 330.847 110.083 329.68 109.194C328.884 108.588 328.159 108.147 327.601 107.868C326.997 108.177 326.297 108.315 325.572 108.224C323.654 107.984 322.294 106.235 322.533 104.317C322.629 103.549 322.936 102.682 323.614 101.94C324.288 101.204 325.105 100.834 325.811 100.669C326.094 100.603 326.373 100.567 326.645 100.552C326.434 100.011 326.357 99.4085 326.445 98.7925C326.718 96.8791 328.491 95.5494 330.404 95.8227C337.114 96.7813 343.102 96.367 348.661 93.1391C349.873 92.4356 351.548 90.8901 352.287 89.4809C352.526 89.0254 352.574 88.7631 352.584 88.6606C352.52 88.592 352.377 88.4719 352.088 88.3149C350.969 87.7075 348.615 87.216 345.261 87.0288C342.072 86.8508 338.5 86.9675 335.358 87.2124C333.63 87.347 332.087 87.5159 330.852 87.6841C330.216 88.3346 329.329 88.7388 328.348 88.7388C327.775 88.7388 327.239 88.7231 326.787 88.6753C326.573 88.6526 326.259 88.6108 325.925 88.52C325.759 88.4749 325.489 88.3919 325.187 88.2407C324.932 88.1133 324.338 87.7853 323.854 87.1059C323.249 86.2584 323.003 85.1126 323.357 83.9849C323.641 83.0802 324.201 82.547 324.445 82.3374C324.939 81.9111 325.454 81.7054 325.61 81.6431L325.612 81.6421C326.003 81.4855 326.436 81.3701 326.802 81.2847C327.315 80.2985 328.288 79.5727 329.475 79.4243C334.612 78.7822 338.279 76.5128 341.505 72.2114C342.691 70.6302 343.466 68.8697 343.551 67.6186C343.589 67.0616 343.479 66.7881 343.397 66.6548C343.327 66.5428 343.096 66.2319 342.285 65.937C337.443 64.1763 333.06 65.3344 327.95 67.5835C326.784 68.0969 325.621 68.6475 324.407 69.2222L324.06 69.3872C322.738 70.0126 321.357 70.6612 319.953 71.2593C317.152 72.4525 314.087 73.5211 310.783 73.8882C308.862 74.1016 307.132 72.7166 306.918 70.7954C306.858 70.2509 306.926 69.7214 307.098 69.2378C307.031 69.0475 306.979 68.849 306.945 68.6431C306.678 67.0461 305.536 63.9676 303.852 61.5903C303.018 60.4145 302.219 59.6516 301.565 59.271C301.003 58.9445 300.705 58.9685 300.441 59.06L300.435 59.0649C300.372 59.1029 299.914 59.3817 299.163 60.3852C298.412 61.3891 297.637 62.755 296.918 64.3071C295.443 67.4912 294.505 70.791 294.369 72.2866C294.194 74.2117 292.492 75.6306 290.567 75.4556C288.642 75.2803 287.224 73.5777 287.399 71.6528C287.636 69.0422 288.92 64.9201 290.567 61.3657C291.408 59.5486 292.418 57.7158 293.558 56.1919C294.617 54.7764 296.141 53.1416 298.152 52.4458ZM200.883 90.06C202.77 89.6409 204.639 90.8314 205.059 92.7183C205.478 94.605 204.288 96.4746 202.402 96.894C192.967 98.9907 184.845 102.274 175.151 105.232C173.302 105.796 171.345 104.754 170.781 102.905C170.218 101.056 171.259 99.1007 173.108 98.5366C182.039 95.8118 191.145 92.224 200.883 90.06ZM151.88 55.7534C153.298 54.4402 155.513 54.5255 156.826 55.9438C159.766 59.1184 161.315 63.0793 162.738 65.9272C163.603 67.6561 162.902 69.7591 161.173 70.6235C159.444 71.4877 157.342 70.7865 156.478 69.0581C154.653 65.4083 153.738 62.9122 151.69 60.6997C150.376 59.2814 150.462 57.0667 151.88 55.7534ZM195.298 46.8891C196.969 45.9178 199.111 46.4848 200.082 48.1558C202.953 53.094 203.613 56.7916 203.613 62.1431C203.613 64.0757 202.046 65.6429 200.113 65.6431C198.181 65.6428 196.614 64.0757 196.613 62.1431C196.613 57.7158 196.141 55.3026 194.031 51.6733C193.06 50.0023 193.627 47.8607 195.298 46.8891Z" fill="black"/>
</svg>
