<svg width="219" height="219" viewBox="0 0 219 219" fill="none" xmlns="http://www.w3.org/2000/svg">
<path d="M49.5836 160.158C51.3994 159.495 53.4083 160.431 54.0709 162.247L54.6471 163.818C56.1083 167.794 57.6635 172.024 58.692 176.39C59.7789 181.004 59.2818 185.698 58.3678 189.957C58.3785 190.172 58.3699 190.391 58.3395 190.612C58.1826 191.749 57.9349 192.964 57.7164 194.036C57.639 194.415 57.5653 194.777 57.5006 195.111C57.2286 196.513 57.0686 197.625 57.0865 198.569C57.1036 199.469 57.2814 200.033 57.5465 200.444C57.8047 200.844 58.3474 201.414 59.652 201.97C62.4307 203.156 64.9029 203.393 66.9469 202.913C68.9421 202.444 70.8395 201.222 72.4342 198.894C73.5267 197.3 75.7049 196.893 77.2994 197.985C78.3092 198.677 78.8427 199.804 78.8209 200.943C79.0764 201.282 79.2751 201.626 79.4195 201.898C79.7559 202.531 80.0542 203.264 80.2906 203.887C80.5355 204.533 80.7598 205.185 80.9312 205.687L80.9752 205.815V205.816L80.9762 205.819C81.0445 206.019 81.1008 206.185 81.15 206.326C81.1917 206.445 81.2153 206.508 81.2242 206.532V206.533L81.2252 206.536L81.5484 207.256C82.2968 208.84 83.008 209.757 83.7633 210.362C84.6052 211.035 85.8277 211.58 88.0172 211.882C88.7327 211.981 89.2773 211.814 89.8424 211.395C90.4946 210.911 91.177 210.071 91.8268 208.874C92.7545 207.166 93.0676 205.754 93.0572 204.401C93.0463 202.982 92.6788 201.405 91.9137 199.353C91.2383 197.542 92.1583 195.526 93.9693 194.85C94.6339 194.602 95.327 194.57 95.9703 194.717C96.9652 194.769 97.9319 195.243 98.5807 196.099C99.0676 196.741 99.8783 197.115 101.19 196.935C102.573 196.746 103.993 195.964 104.838 194.977C105.92 193.714 106.081 192.061 105.077 189.737C104.052 187.366 102.055 185.032 100.254 183.582C98.7476 182.371 98.509 180.168 99.7203 178.662C100.932 177.155 103.135 176.917 104.641 178.128C107.122 180.124 109.932 183.324 111.503 186.959C113.093 190.641 113.638 195.465 110.155 199.532C108.168 201.851 105.18 203.453 102.139 203.87C101.461 203.962 100.759 203.997 100.049 203.961C100.054 204.089 100.056 204.218 100.057 204.346C100.078 206.997 99.4151 209.566 97.9781 212.213C96.233 215.428 92.7871 219.606 87.0611 218.817C84.0915 218.407 81.5325 217.541 79.3902 215.827C77.2693 214.129 75.8881 211.864 74.7867 209.284C74.6948 209.068 74.606 208.817 74.5436 208.638C74.4843 208.469 74.4167 208.27 74.3482 208.07L74.3473 208.069L74.3463 208.066L74.3062 207.948C74.2239 207.706 74.1374 207.453 74.0475 207.198C72.3845 208.409 70.5373 209.26 68.5484 209.727C64.7416 210.622 60.7304 210.041 56.9049 208.409C54.6164 207.432 52.839 206.062 51.6627 204.237C50.4933 202.423 50.1212 200.475 50.0875 198.703C50.0703 197.799 50.1406 196.896 50.2525 196.031C49.9936 195.353 49.9427 194.589 50.1539 193.837C51.7575 188.127 53.0149 182.82 51.8785 177.996C51.1851 175.052 50.2249 172.173 49.1656 169.221L48.0787 166.24C47.8852 165.712 47.691 165.181 47.4957 164.646C46.8331 162.83 47.7677 160.82 49.5836 160.158ZM88.2477 0.0756617C112.02 -0.795449 134.299 5.76117 150.343 24.643C163.446 40.0629 168.62 61.484 162.781 81.2095C160.657 88.3827 157.084 95.2703 152.555 101.556C161.789 104.726 170.347 108.746 178.891 113C180.27 110.673 182.323 107.51 184.806 105.078C186.453 103.464 188.578 101.877 191.119 101.263C193.871 100.598 196.705 101.177 199.27 103.187C202.227 105.505 203.335 108.663 203.506 111.635C203.622 113.635 203.324 115.622 202.881 117.399C202.994 117.394 203.106 117.392 203.213 117.394C205.397 117.436 208.336 117.912 211.025 118.956C213.58 119.947 216.74 121.777 218.086 125.067C219.445 128.391 218.877 131.491 216.98 133.928C215.286 136.104 212.715 137.53 210.337 138.492C208.937 139.058 207.451 139.523 205.979 139.899C206.237 140.509 206.405 141.169 206.466 141.874C206.675 144.26 205.595 146.389 204.238 147.94C201.938 150.569 199.345 152.201 196.501 152.903C193.697 153.594 190.954 153.307 188.447 152.62C185.961 151.938 183.55 150.82 181.346 149.689C180.348 149.176 179.354 148.64 178.401 148.126L178.087 147.957C177.026 147.386 176.016 146.846 175.029 146.352C173.3 145.488 172.599 143.386 173.463 141.657C174.328 139.928 176.43 139.227 178.159 140.091C179.252 140.638 180.347 141.224 181.406 141.794L181.716 141.961C182.679 142.48 183.611 142.983 184.544 143.461C186.623 144.529 188.521 145.382 190.297 145.869C192.053 146.35 193.527 146.427 194.825 146.107C196.081 145.797 197.473 145.041 198.969 143.331C199.238 143.024 199.379 142.772 199.445 142.609L199.45 142.596C199.387 142.551 199.296 142.494 199.167 142.429C198.858 142.275 198.423 142.027 198.046 141.812L197.679 141.605C197.481 141.494 197.283 141.385 197.087 141.281H197.073L197.054 141.285C196.952 141.304 196.834 141.328 196.677 141.36L196.521 141.392C196.11 141.476 195.459 141.607 194.862 141.671C194.578 141.702 194.134 141.739 193.659 141.699C193.421 141.679 193.037 141.629 192.605 141.477C192.197 141.333 191.444 140.991 190.849 140.193C189.333 138.156 190.607 136.156 190.839 135.823C191.223 135.271 191.71 134.853 192.042 134.588C193.494 133.427 195.159 133.425 196.175 133.564C196.966 133.672 197.722 133.909 198.372 134.163C200.928 133.896 204.677 133.23 207.713 132.002C209.662 131.215 210.883 130.365 211.458 129.627C211.829 129.15 212.008 128.698 211.607 127.717C211.371 127.141 210.489 126.256 208.494 125.482C206.633 124.76 204.513 124.421 203.079 124.393C203.123 124.394 203.119 124.395 203.056 124.403C202.965 124.415 202.752 124.441 202.384 124.508C201.869 124.602 201.252 124.735 200.662 124.874C200.104 125.006 199.613 125.135 199.288 125.228C198.671 125.539 197.955 125.67 197.219 125.565C197.075 125.544 196.764 125.493 196.396 125.345C196.108 125.229 195.221 124.836 194.643 123.807C193.919 122.518 194.198 121.236 194.578 120.494C194.892 119.879 195.308 119.517 195.457 119.393C195.48 119.373 195.504 119.354 195.527 119.335C195.368 118.709 195.382 118.031 195.601 117.373C196.223 115.508 196.61 113.634 196.518 112.038C196.432 110.54 195.951 109.479 194.952 108.696C193.991 107.943 193.337 107.928 192.763 108.067C191.978 108.257 190.938 108.87 189.705 110.078C187.234 112.498 185.147 116.124 183.865 118.392C183.008 119.907 181.192 120.539 179.61 119.956C178.736 120.276 177.737 120.249 176.838 119.8C167.743 115.252 158.973 111.096 149.529 107.917C149.008 107.742 148.557 107.456 148.19 107.095C141.584 114.778 133.6 121.273 125.32 125.874C102.061 138.795 77.1177 138.461 52.7965 130.787C30.073 123.616 6.65457 105.996 3.29062 80.272C3.26776 80.2706 3.24423 80.2708 3.22129 80.269C1.29452 80.1148 -0.142817 78.4273 0.0113256 76.5005C3.67017 30.7696 45.0826 1.65763 88.2477 0.0756617ZM145.009 29.1762C130.739 12.3815 110.809 6.25338 88.5035 7.07078C49.9762 8.48289 14.2313 33.0331 7.78574 70.6977C9.01729 71.2397 9.87734 72.471 9.87754 73.9028C9.87764 98.5615 31.5559 116.743 54.9039 124.111C77.943 131.381 100.79 131.494 121.921 119.754C137.188 111.272 151.147 95.8473 156.069 79.2231C161.197 61.9025 156.677 42.9077 145.009 29.1762ZM122.14 101.079C123.165 99.4399 125.324 98.942 126.962 99.9663C128.601 100.991 129.1 103.15 128.076 104.79C126.09 107.966 122.351 110.507 118.584 111.124C116.63 111.443 114.405 111.282 112.397 110.107C110.336 108.9 108.946 106.884 108.255 104.354C107.747 102.489 108.847 100.565 110.712 100.056C112.576 99.5478 114.501 100.647 115.009 102.512C115.313 103.624 115.739 103.952 115.933 104.066C116.182 104.211 116.653 104.346 117.454 104.215C119.196 103.93 121.202 102.58 122.14 101.079ZM135.345 46.5737C137.152 45.8856 139.174 46.7919 139.862 48.5981C141.309 52.3974 141.682 56.3131 141.731 59.9858C141.756 61.8251 141.699 63.6591 141.639 65.4067C141.579 67.1802 141.515 68.8535 141.515 70.4946C141.515 72.4273 139.948 73.9946 138.015 73.9946C136.083 73.9943 134.516 72.4271 134.515 70.4946C134.515 68.7062 134.584 66.8938 134.643 65.1675C134.703 63.4153 134.754 61.7331 134.732 60.0796C134.688 56.7662 134.348 53.7864 133.321 51.0903C132.633 49.2841 133.539 47.262 135.345 46.5737ZM101.701 53.4643C103.633 53.4645 105.201 55.0316 105.201 56.9643V69.7817C105.201 71.7145 103.634 73.2815 101.701 73.2817C99.7678 73.2817 98.2009 71.7146 98.2008 69.7817V56.9643C98.201 55.0315 99.7679 53.4643 101.701 53.4643Z" fill="black"/>
</svg>
