<svg width="166" height="137" viewBox="0 0 166 137" fill="none" xmlns="http://www.w3.org/2000/svg">
<path d="M88.2477 0.0781107C112.02 -0.793051 134.299 5.76365 150.343 24.6455C163.446 40.0654 168.62 61.4864 162.781 81.2119C157.244 99.913 141.874 116.679 125.32 125.876C125.159 125.966 124.996 126.052 124.835 126.141C126.05 127.402 127.292 128.637 128.567 129.841C129.972 131.168 130.035 133.384 128.708 134.789C127.38 136.194 125.166 136.257 123.76 134.93C121.871 133.145 120.042 131.285 118.261 129.372C97.0554 138.654 74.6748 137.693 52.7965 130.789C30.073 123.618 6.65457 105.998 3.29062 80.2744C3.26768 80.273 3.2443 80.2733 3.22129 80.2715C1.29452 80.1172 -0.142817 78.4297 0.0113256 76.5029C3.67016 30.772 45.0826 1.66008 88.2477 0.0781107ZM145.009 29.1787C130.739 12.384 110.809 6.25578 88.5035 7.07323C49.9762 8.48534 14.2312 33.0355 7.78574 70.7002C9.01737 71.2421 9.87734 72.4734 9.87754 73.9053C9.87764 98.5639 31.5559 116.746 54.9039 124.113C74.8616 130.411 94.6736 131.336 113.352 123.841C110.113 120.031 107.017 116.096 103.989 112.18L101.385 108.802C99.532 106.393 97.6952 104.008 95.86 101.68C95.2845 102.579 94.3068 103.206 93.1598 103.288C89.5725 103.544 85.9875 104.03 82.277 104.534C78.6035 105.033 74.803 105.55 70.9684 105.824C69.0405 105.962 67.366 104.51 67.2281 102.582C67.0906 100.654 68.5423 98.9795 70.4703 98.8418C74.045 98.5864 77.6236 98.1017 81.3346 97.5976C84.6774 97.1436 88.1299 96.6747 91.6227 96.3867C91.3677 96.0699 91.1125 95.7538 90.858 95.4375L90.8561 95.4346C87.0799 90.7399 83.3471 86.0999 79.4537 81.5752C79.3919 81.5034 79.3222 81.4246 79.2467 81.3389C78.9926 81.0504 78.6698 80.6825 78.3346 80.2392C77.856 79.9813 77.4299 79.6085 77.1031 79.1279C74.811 75.7571 72.973 71.4892 72.2887 67.0625C71.6039 62.6331 72.0438 57.7798 74.6861 53.5791C75.4957 52.2922 76.5687 51.2129 77.9547 50.5537C79.3566 49.8869 80.8036 49.7813 82.1246 49.9961C84.5861 50.3963 86.7795 51.9293 88.4254 53.3623C89.4784 54.2791 90.4888 55.3187 91.4156 56.3701C91.7474 55.4547 92.0931 54.6087 92.4088 53.8721L92.483 53.6992C93.0592 52.353 93.903 50.3816 95.023 48.5801C96.1477 46.7712 97.8935 44.5543 100.51 43.5303C103.077 42.5259 105.467 43.0865 107.266 44.081C108.982 45.0298 110.317 46.4389 111.23 47.6055C112.714 49.5013 113.599 51.3469 114.072 53.3496C114.317 54.3867 114.441 55.4273 114.503 56.4599C114.583 56.4454 114.656 56.4332 114.72 56.4228C115.502 56.296 116.321 56.135 117.234 55.956C117.474 55.9089 117.721 55.8609 117.975 55.8115C119.157 55.582 120.456 55.3401 121.781 55.1699C124.376 54.8366 127.445 54.7188 130.342 55.7353C133.265 56.7609 135.488 58.7544 136.521 61.4531C137.538 64.1102 137.234 67.0056 136.012 69.5771C133.292 75.303 128.433 77.439 123.673 78.7988C121.815 79.3298 119.877 78.2539 119.346 76.3955C118.815 74.537 119.891 72.5996 121.75 72.0683C125.892 70.8847 128.284 69.5322 129.689 66.5732C130.243 65.406 130.198 64.5164 129.984 63.957C129.786 63.4395 129.286 62.7835 128.025 62.3408C126.674 61.8669 124.909 61.8262 122.673 62.1133C121.583 62.2533 120.467 62.4576 119.309 62.6826C119.09 62.7252 118.867 62.7693 118.642 62.8135H118.64C117.715 62.9951 116.749 63.1849 115.841 63.332C115.676 63.3588 115.351 63.4222 114.969 63.5019C114.46 63.9081 113.832 64.1774 113.136 64.2471C112.69 64.2917 112.279 64.3243 111.939 64.3301C111.796 64.3325 111.503 64.3348 111.175 64.2881C111.039 64.2687 110.651 64.2094 110.204 64.0117C109.941 63.8957 108.386 63.1776 108.13 61.2539C108.115 61.1342 108.105 61.0175 108.101 60.9043C107.76 60.3641 107.562 59.7241 107.562 59.0381C107.562 57.1874 107.504 55.9971 107.259 54.9599C107.037 54.0181 106.628 53.0822 105.717 51.9189C105.099 51.1294 104.447 50.5207 103.879 50.207C103.395 49.9393 103.207 49.9919 103.061 50.0488C102.589 50.2338 101.852 50.8544 100.968 52.2764C100.134 53.618 99.4699 55.1669 98.8551 56.6015L98.8434 56.6299C97.7681 59.1387 96.8727 61.8158 96.8727 63.7842C96.8727 64.8587 96.3887 65.8208 95.6266 66.4629C95.3958 66.7385 95.1179 66.9827 94.7965 67.1836C93.1574 68.208 90.9978 67.7102 89.9732 66.0713C89.0002 64.5145 86.4705 60.9416 83.8287 58.6416C82.4527 57.4436 81.4847 56.984 81.0016 56.9053C80.9744 56.9008 80.9524 56.8979 80.9361 56.8965C80.879 56.9454 80.7647 57.0622 80.6109 57.3066C79.1145 59.6856 78.698 62.7032 79.2066 65.9931C79.5315 68.0942 80.2214 70.1984 81.1383 72.123C82.4428 72.5729 83.4114 73.7764 83.4928 75.2392C83.4955 75.2875 83.5019 75.3903 83.6695 75.6562C83.8746 75.9816 84.1462 76.2965 84.6568 76.8896L84.7603 77.0098C88.737 81.6312 92.5601 86.3844 96.3424 91.0869L96.3463 91.0918C97.2554 92.2221 98.162 93.3497 99.068 94.4717C101.884 97.9584 104.589 101.475 107.271 104.961C111.45 110.394 115.573 115.751 119.966 120.806C120.619 120.467 121.271 120.118 121.921 119.757C137.188 111.275 151.147 95.8498 156.069 79.2256C161.197 61.9049 156.677 42.9102 145.009 29.1787ZM47.6266 50.7637C49.494 50.2659 51.4116 51.3768 51.9098 53.2441C52.9293 57.0677 53.0659 60.8288 53.1471 64.206C53.231 67.696 53.2591 70.7335 53.8619 73.748C54.241 75.6434 53.0121 77.488 51.1168 77.8672C49.2213 78.2463 47.3767 77.0165 46.9977 75.1211C46.2492 71.3783 46.2278 67.6494 46.149 64.374C46.0676 60.9858 45.9283 57.9803 45.1461 55.0469C44.6485 53.1794 45.7591 51.2616 47.6266 50.7637Z" fill="black"/>
</svg>
