<svg width="290" height="326" viewBox="0 0 290 326" fill="none" xmlns="http://www.w3.org/2000/svg">
<path d="M191.351 276.707C193.241 276.302 195.103 277.505 195.508 279.395C195.913 281.286 194.708 283.147 192.818 283.552C184.579 285.317 176.972 289.408 174.447 296.515C172.059 303.237 174.111 310.469 179.794 314.369C186.105 318.7 194.664 319.649 201.671 316.584C203.524 315.773 205.78 314.032 207.739 311.769C209.707 309.498 211.056 307.071 211.49 305.117C211.612 304.57 211.746 304.05 211.904 303.594C212.023 303.252 212.304 302.482 212.918 301.821C213.269 301.443 213.899 300.918 214.844 300.706C215.85 300.48 216.74 300.715 217.365 301.043C218.314 301.541 218.82 302.342 218.943 302.537L218.955 302.555C219.145 302.853 219.311 303.175 219.406 303.36L219.41 303.367L219.467 303.479C219.556 303.654 219.623 303.783 219.696 303.915C219.751 304.014 219.792 304.081 219.819 304.123C221.029 305.017 223.003 305.879 225.403 306.607C227.815 307.34 230.341 307.845 232.27 308.138C233.711 308.356 236.174 308.477 237.914 308.083C238.198 308.019 238.41 307.952 238.564 307.894C237.738 305.315 236.055 302.482 233.823 300.092C231.513 297.618 228.855 295.869 226.328 295.223C224.455 294.744 223.325 292.837 223.805 290.965C224.284 289.092 226.19 287.962 228.062 288.441C232.257 289.514 236.021 292.188 238.94 295.314C241.87 298.453 244.189 302.301 245.337 306.099C246.021 308.363 245.7 310.652 244.121 312.416C242.774 313.921 240.903 314.583 239.461 314.91C236.507 315.579 233.061 315.337 231.223 315.059C229.049 314.729 226.181 314.159 223.37 313.306C221.217 312.652 218.886 311.771 216.907 310.582C215.893 312.658 214.521 314.632 213.03 316.353C210.606 319.152 207.548 321.653 204.476 322.997C195.166 327.07 184.056 325.784 175.833 320.141C167.264 314.26 164.515 303.563 167.851 294.172C171.628 283.542 182.387 278.628 191.351 276.707ZM18.4813 217.194C21.2565 216.119 24.5109 216.776 26.9891 217.536C31.1665 218.817 35.879 221.341 38.5311 222.762C39.163 223.1 39.678 223.376 40.0409 223.558C41.7698 224.422 42.4707 226.525 41.6063 228.254C40.7418 229.983 38.6388 230.683 36.91 229.818C36.3186 229.523 35.606 229.143 34.8065 228.717C32.0881 227.267 28.3603 225.278 24.9373 224.228C22.6808 223.537 21.47 223.568 21.0457 223.709C20.9883 223.858 20.8648 224.308 20.9334 225.269C21.1298 228.017 22.8693 230.373 25.5731 232.889C26.1407 233.06 26.6611 233.29 27.1209 233.567C27.499 233.796 27.9102 234.101 28.2743 234.504C28.4893 234.742 29.2958 235.658 29.3006 237.07C29.3036 237.969 28.9604 239.016 28.0702 239.792C27.2783 240.482 26.4122 240.643 25.9217 240.677C24.9978 240.741 24.2519 240.448 23.9178 240.303C23.4362 240.093 22.9551 239.801 22.4803 239.451C18.2561 239.115 14.3819 240.746 11.9579 243.397C9.45306 246.137 8.38644 250.058 10.2411 254.544C11.6941 258.058 13.6576 261.786 16.1405 264.838C18.6297 267.897 21.4639 270.066 24.6356 270.896C28.2191 271.835 32.1089 270.466 36.3543 267.43C39.8908 264.901 43.1115 261.633 46.0301 258.673C46.5996 258.095 47.1574 257.529 47.7039 256.982C49.0708 255.616 51.2873 255.616 52.6541 256.982C54.021 258.349 54.0209 260.566 52.6541 261.933C52.1758 262.411 51.6662 262.928 51.1288 263.475C48.2257 266.425 44.5033 270.208 40.4256 273.124C35.612 276.566 29.4917 279.404 22.8622 277.668C17.7646 276.333 13.7587 273.003 10.7098 269.256C7.65445 265.5 5.38116 261.11 3.77231 257.219C0.843215 250.134 2.51966 243.346 6.79184 238.674C9.30997 235.92 12.6885 233.937 16.4598 233.005C15.1381 230.955 14.1506 228.561 13.951 225.768C13.8202 223.936 14.0119 222.146 14.7801 220.581C15.5949 218.921 16.921 217.799 18.4813 217.194ZM118.39 80.581C146.126 70.638 174.396 70.3318 200.777 85.042C221.666 96.6895 233.695 116.95 240.583 138.612C246.046 155.794 245.162 177.134 237.41 194.261C240.734 192.924 244.153 191.911 247.539 191.204C254.665 189.716 262.078 189.825 269.219 192.584C273.706 194.318 278.539 197.38 282.34 201.329C286.122 205.258 289.169 210.379 289.378 216.217C289.855 229.57 284.746 239.048 278.118 248.99C277.046 250.599 274.872 251.033 273.264 249.961C271.656 248.889 271.221 246.716 272.293 245.107C278.689 235.513 282.779 227.571 282.383 216.467C282.257 212.95 280.376 209.383 277.297 206.184C274.236 203.003 270.274 200.496 266.695 199.113C261.074 196.941 255.076 196.781 248.97 198.056C242.366 199.434 235.861 202.068 230.474 205.957C227.374 210.02 223.746 213.651 219.752 216.859C219.537 217.153 219.346 217.43 219.185 217.688C218.924 218.109 218.824 218.346 218.791 218.425L218.785 218.439C218.781 218.448 218.778 218.453 218.777 218.454C218.777 218.454 218.776 218.454 218.776 218.452C218.526 220.334 216.816 221.678 214.921 221.468C214.526 221.424 214.155 221.315 213.814 221.154C204.208 227.415 193.166 231.587 182.483 233.753C161.293 238.048 138.008 238.06 117.092 230.933C108.376 227.963 100.238 223.129 93.3807 217.067C85.386 210 80.0647 202.452 76.0536 194.262C75.9461 194.33 75.8344 194.393 75.7176 194.45C74.5872 195.003 73.3051 194.89 72.3133 194.266C72.12 194.395 71.9112 194.508 71.6873 194.6C69.8985 195.331 67.8549 194.474 67.1229 192.686C64.1747 185.479 61.849 177.742 60.575 169.812C60.0418 168.79 59.4928 167.785 58.9237 166.803C54.3719 158.944 48.6776 152.724 39.7538 149.749C32.7183 147.404 24.6411 150.938 18.2586 156.291C10.7884 162.556 8.16485 169.695 6.97543 179.606C6.74501 181.525 5.00198 182.894 3.08286 182.664C1.16386 182.434 -0.204843 180.691 0.0252383 178.772C1.33835 167.83 4.44928 158.737 13.7606 150.928C20.7035 145.105 31.3739 139.578 41.9666 143.108C49.5413 145.633 55.1294 150.043 59.5135 155.34C59.6997 145.497 61.8535 135.67 66.7694 126.479C78.0147 105.456 95.6606 88.7296 118.39 80.581ZM197.369 91.1552C173.132 77.6408 147.038 77.748 120.753 87.1709C99.8677 94.6581 83.4812 110.078 72.9422 129.781C66.8357 141.198 65.4808 153.964 67.1747 166.606C67.5836 165.705 68.3701 164.981 69.3963 164.686C71.2541 164.153 73.1928 165.226 73.7264 167.084C79.0305 185.55 84.0228 199.451 98.0174 211.822C104.216 217.301 111.553 221.65 119.349 224.307C138.812 230.938 160.791 231.007 181.093 226.892C193.018 224.474 205.089 219.444 214.714 211.917C214.925 211.648 215.137 211.385 215.347 211.131C216.085 210.237 216.85 209.387 217.493 208.681C217.592 208.572 217.686 208.469 217.776 208.37L218.036 208.086L218.037 208.085C218.435 207.65 218.732 207.326 218.939 207.084C220.899 204.791 223.107 202.747 225.488 200.939C225.842 200.456 226.189 199.968 226.525 199.473C237.458 183.36 239.837 159.367 233.912 140.733C227.322 120.009 216.123 101.612 197.369 91.1552ZM155.904 190.505C157.834 190.606 159.318 192.253 159.217 194.184C159.039 197.561 158.317 200.935 156.586 203.867C154.813 206.87 152.103 209.197 148.361 210.586C143.166 212.513 136.178 212.153 131.512 207.671C130.118 206.332 130.073 204.117 131.412 202.723C132.751 201.329 134.967 201.284 136.361 202.623C138.59 204.763 142.524 205.285 145.926 204.022C148.21 203.175 149.629 201.883 150.558 200.309C151.53 198.663 152.084 196.502 152.225 193.815C152.327 191.886 153.974 190.404 155.904 190.505ZM113.738 113.689C114.4 111.873 116.408 110.937 118.224 111.599C120.041 112.26 120.977 114.27 120.315 116.086C117.563 123.641 114.157 131.53 111.169 139.124C108.134 146.835 105.43 154.472 103.815 162.062C103.623 162.968 103.311 164.178 103.206 165.333C107.333 165.433 111.777 164.425 116.389 162.805C121.627 160.965 126.697 158.49 131.559 156.279C133.319 155.479 135.394 156.257 136.194 158.017C136.994 159.776 136.215 161.851 134.456 162.651C129.835 164.752 124.331 167.434 118.71 169.408C113.075 171.387 106.938 172.805 100.885 172.2C99.8989 172.102 98.9512 171.731 98.1581 171.062C97.3944 170.419 96.939 169.64 96.6678 168.952C96.1602 167.665 96.1371 166.292 96.1873 165.323C96.2901 163.344 96.852 161.154 96.9686 160.606C98.1978 154.829 99.997 149.101 102.033 143.477C100.234 144.007 98.3247 143.021 97.7264 141.228C96.8103 138.479 96.0916 135.555 95.3836 132.983C94.651 130.323 93.8911 127.879 92.8329 125.63C92.0099 123.881 92.7606 121.796 94.5096 120.973C96.2586 120.15 98.3438 120.9 99.1668 122.649C100.489 125.46 101.376 128.376 102.133 131.125C102.817 133.61 103.373 135.863 104.063 138.072C104.259 137.567 104.457 137.063 104.655 136.561C107.776 128.63 111.012 121.173 113.738 113.689ZM147.178 105.637C149.035 105.101 150.975 106.173 151.511 108.03C153.371 114.485 155.322 120.885 157.368 127.278C157.957 129.119 156.942 131.09 155.101 131.679C153.261 132.268 151.29 131.253 150.701 129.412C148.636 122.958 146.664 116.493 144.784 109.97C144.249 108.112 145.32 106.172 147.178 105.637ZM42.2245 12.6308C44.1514 12.4787 45.837 13.9177 45.9891 15.8447C46.1043 17.3042 46.2109 18.749 46.3163 20.1806C46.9685 29.0413 47.5827 37.394 50.0291 45.5488C50.5845 47.4002 49.5339 49.3508 47.6825 49.9062C45.831 50.4615 43.8805 49.4109 43.325 47.5595C40.6403 38.6102 39.9684 29.411 39.325 20.5937C39.2222 19.1838 39.1202 17.7833 39.0106 16.3955C38.8585 14.4685 40.2975 12.783 42.2245 12.6308ZM246.652 42.2793C248.381 41.4148 250.484 42.1158 251.348 43.8447C252.213 45.5735 251.512 47.6755 249.783 48.54L248.59 49.1377C246.861 50.0021 244.758 49.3011 243.893 47.5722C243.029 45.8433 243.73 43.7404 245.459 42.8759L246.652 42.2793ZM152.824 12.2519C154.658 11.6406 156.641 12.632 157.252 14.4658C157.863 16.2995 156.872 18.2813 155.038 18.8925C151.133 20.1943 147.762 21.6305 144.194 23.4199C144.163 24.0585 144.129 24.7004 144.096 25.332V25.3349L144.095 25.3359C144.064 25.9001 144.035 26.4565 144.009 26.9951C145.407 26.2971 146.81 25.7399 148.157 25.2392L149.483 24.7539C149.971 24.5768 150.449 24.4041 150.912 24.2304C152.722 23.5517 154.739 24.4686 155.418 26.2783C156.097 28.0881 155.18 30.1054 153.37 30.7841C152.84 30.9828 152.331 31.1709 151.841 31.3515C148.669 32.5201 146.291 33.3966 144.229 35.0869C144.309 35.5643 144.406 36.0273 144.522 36.4755C144.68 37.0855 144.807 37.7914 144.912 38.3798L144.935 38.5136C145.04 39.1039 145.138 39.6525 145.255 40.1855C145.381 40.7606 145.508 41.2105 145.636 41.5429C145.699 41.7081 145.748 41.8029 145.771 41.8457C145.882 41.9319 146.233 42.1482 147.05 42.3007C147.965 42.4717 149.151 42.5003 150.484 42.373C153.242 42.1097 155.821 41.2682 156.904 40.6181C158.562 39.6236 160.712 40.1618 161.707 41.8193C162.701 43.4768 162.163 45.6266 160.506 46.6211C158.25 47.9746 154.567 49.0155 151.15 49.3418C149.397 49.5092 147.517 49.5098 145.764 49.1826C144.058 48.8638 142.104 48.1631 140.645 46.6191C139.869 45.7971 139.401 44.833 139.103 44.0595C138.794 43.2565 138.579 42.4201 138.418 41.6845C138.344 41.3466 138.276 41.0073 138.215 40.6816L138.048 39.7607L138.02 39.6084C137.905 38.9614 137.824 38.5323 137.746 38.2324C136.911 35.0109 136.844 31.6064 136.94 28.5009C136.984 27.0782 137.056 25.7976 137.124 24.582V24.581C137.148 24.1539 137.171 23.7348 137.192 23.3203C137.165 23.2737 137.139 23.226 137.113 23.1777C136.487 21.9947 136.606 20.615 137.306 19.5781C137.396 17.725 138.927 16.2501 140.803 16.25C141.323 16.25 141.818 16.3633 142.263 16.5673C145.656 14.9185 149.003 13.5255 152.824 12.2519ZM79.5233 13.0742C82.4955 11.5963 86.611 10.4554 90.494 12.4638C92.2107 13.352 92.882 15.4638 91.994 17.1806C91.1059 18.8971 88.9949 19.5692 87.2782 18.6816C86.3714 18.2126 84.8905 18.224 82.6405 19.3427C80.487 20.4135 78.3664 22.1569 76.8729 23.6504C74.4987 26.0247 73.6859 29.1572 74.0077 33.1259C74.2491 36.103 76.226 38.6741 79.37 40.3603C82.5434 42.0622 86.3899 42.5507 89.4002 41.708C90.7232 41.3376 92.4873 40.1785 93.952 38.4619C94.9758 37.262 95.6221 36.0638 95.9247 35.0478C95.3121 35.0246 94.4956 35.0615 93.4862 35.1826C90.8176 35.5028 87.9469 36.2504 86.3104 36.6767H86.3094C86.0165 36.753 85.763 36.8187 85.5575 36.8701C83.6824 37.3389 81.7824 36.1992 81.3133 34.3242C80.8445 32.449 81.9841 30.548 83.8592 30.0791L84.4393 29.9287C85.9911 29.5217 89.4416 28.6176 92.6522 28.2324C94.4568 28.0159 96.6106 27.9021 98.453 28.3457C99.3942 28.5723 100.557 29.0136 101.518 29.9443C102.581 30.9725 103.127 32.3377 103.127 33.8066C103.127 37.282 101.349 40.5758 99.2762 43.0048C97.1851 45.4556 94.3073 47.6028 91.2879 48.4482C86.3273 49.8372 80.6256 48.977 76.0614 46.5293C71.4674 44.0654 67.5161 39.6853 67.0301 33.6914C66.6046 28.4436 67.6281 22.9948 71.9227 18.7002C73.7256 16.8973 76.4544 14.6001 79.5233 13.0742ZM208.328 13.4433C210.163 12.8354 212.143 13.8303 212.751 15.665C213.359 17.4998 212.365 19.4797 210.53 20.0879C210.407 20.1285 210.203 20.192 209.933 20.2763C208.364 20.7663 204.559 21.9555 201.433 23.3925C202.301 23.3636 203.294 23.2579 204.496 23.1259L204.529 23.122C206.976 22.8534 210.396 22.4783 213.816 24.0175C216.238 25.1075 218.024 26.8996 218.921 29.2412C219.79 31.5104 219.694 33.9468 219.067 36.2021C218.049 39.8659 216.433 42.7164 213.611 44.5742C210.954 46.3232 207.709 46.8492 204.327 47.1093C202.4 47.2576 200.716 45.815 200.568 43.8877C200.42 41.9605 201.863 40.2781 203.79 40.1298C207.011 39.8821 208.695 39.4293 209.762 38.7275C210.663 38.1342 211.563 37.0605 212.322 34.3281C212.664 33.0966 212.579 32.2565 212.384 31.7451C212.215 31.3061 211.86 30.8129 210.943 30.4004C209.464 29.7349 207.857 29.7989 205.26 30.0839C205.112 30.1001 204.96 30.1171 204.804 30.1347C202.511 30.3937 199.329 30.7539 196.165 29.6035C194.835 29.12 193.284 28.3541 192.316 26.9599C191.775 26.1793 191.441 25.2311 191.454 24.1884C191.467 23.1864 191.796 22.3429 192.168 21.7089C192.859 20.5291 193.938 19.6601 194.811 19.0605C195.756 18.412 196.848 17.8223 197.934 17.3017C201.726 15.4844 206.623 13.9718 207.992 13.5488C208.16 13.4969 208.275 13.4609 208.328 13.4433ZM176.339 13.0029C177.283 12.8545 178.468 12.7986 179.64 13.1562C180.941 13.5528 182.253 14.4903 182.869 16.1338C183.548 17.9437 182.63 19.9609 180.82 20.6396C179.549 21.1161 178.176 20.8058 177.236 19.9521C176.456 20.112 175.304 20.5528 174.058 21.2841C172.725 22.0669 171.577 23.0116 170.87 23.8818C170.648 24.1548 170.507 24.3715 170.417 24.5351C171.023 24.7237 171.965 24.854 173.253 24.8886C174.613 24.9253 176.059 24.8534 177.481 24.7822L177.501 24.7812L177.68 24.7724C178.905 24.7106 180.38 24.6354 181.453 24.7597C183.845 25.0371 187.267 25.903 189.639 27.9394C190.909 29.0294 192.061 30.6238 192.292 32.7519C192.52 34.8544 191.782 36.8673 190.525 38.6826C188.596 41.4692 185.809 42.7463 183.682 43.5908C183.116 43.8159 182.605 44.0108 182.141 44.1875C180.62 44.7667 179.597 45.1562 178.708 45.8232C177.161 46.9829 174.967 46.6694 173.807 45.123C172.648 43.5766 172.961 41.3824 174.508 40.2226C176.274 38.8976 178.505 38.0623 180.14 37.4502H180.141L181.098 37.0859C183.015 36.3248 184.094 35.6744 184.77 34.6982C185.261 33.9897 185.324 33.6185 185.331 33.5214C185.306 33.4783 185.24 33.3882 185.08 33.2509C184.727 32.9478 184.116 32.6023 183.251 32.3007C182.409 32.0076 181.485 31.811 180.647 31.7138C180.244 31.6671 179.393 31.6952 177.85 31.7724L177.724 31.7783C176.373 31.8461 174.698 31.9307 173.064 31.8867C171.428 31.8426 169.504 31.6668 167.816 31.042C166.076 30.3974 164.022 29.0305 163.415 26.3603C162.772 23.5324 164.143 21.0627 165.436 19.4697C166.81 17.7778 168.678 16.3263 170.515 15.248C172.335 14.1801 174.419 13.3048 176.339 13.0029ZM107.568 17.6494C108.728 16.1031 110.922 15.7896 112.469 16.9492C114.165 18.2215 114.568 20.2599 114.715 21.289C114.896 22.5556 114.884 23.9587 114.834 25.1826C114.798 26.04 114.735 26.9511 114.68 27.7539V27.7617C114.656 28.0983 114.634 28.4167 114.616 28.7031C114.545 29.834 114.541 30.4203 114.57 30.6474C114.775 32.2662 115.148 34.0259 115.75 35.5859C116.363 37.1736 117.119 38.3104 117.943 38.9785C118.505 39.4344 119.137 39.5697 119.939 39.4004C120.826 39.2132 121.827 38.6476 122.633 37.8105C126.34 33.959 126.561 28.3522 126.561 21.54C126.561 19.607 128.128 18.04 130.061 18.04C131.994 18.04 133.561 19.607 133.561 21.54V21.8281C133.563 28.0319 133.565 36.5473 127.677 42.665C126.055 44.3496 123.849 45.7299 121.385 46.25C118.837 46.7877 115.973 46.3921 113.535 44.415C111.412 42.6937 110.076 40.3262 109.22 38.1074C108.352 35.8611 107.877 33.5111 107.626 31.5283C107.499 30.527 107.567 29.2621 107.63 28.2627C107.654 27.8842 107.679 27.5135 107.705 27.1474V27.1445L107.781 26.0205C107.804 25.6469 107.825 25.2726 107.841 24.8935C107.887 23.7705 107.872 22.8897 107.785 22.2793C107.773 22.1983 107.762 22.1296 107.751 22.0732C106.667 20.8552 106.552 19.0039 107.568 17.6494ZM233.4 0.172814C235.027 -0.05965 240.84 -0.144432 245.765 0.48629C248.162 0.793149 250.902 1.32851 252.869 2.40817C253.844 2.94333 255.191 3.91425 255.8 5.59664C256.488 7.50063 255.883 9.27093 255.008 10.5361C253.488 12.7316 250.965 14.0506 249.152 14.9023C248.813 15.0616 248.463 15.2203 248.117 15.374L247.105 15.8173C246.842 15.9321 246.59 16.0418 246.36 16.1435C245.494 16.5267 244.852 16.8335 244.383 17.1152C243.037 17.9226 242.645 18.5828 242.516 18.9248C242.389 19.2632 242.336 19.7739 242.614 20.6416C243.249 22.6236 245.062 24.9436 247.323 27.6504C248.562 29.1338 248.364 31.3407 246.881 32.58C245.397 33.8193 243.19 33.622 241.951 32.1386L241.938 32.124C239.908 29.6938 237.077 26.3053 235.947 22.7763C235.341 20.8848 235.127 18.6844 235.965 16.4589C236.801 14.237 238.502 12.4795 240.781 11.1123C241.654 10.5883 242.644 10.1324 243.528 9.74117C243.835 9.60521 244.13 9.47804 244.416 9.35348L244.418 9.3525C245.021 9.08972 245.59 8.84141 246.176 8.56637C246.692 8.3236 247.136 8.09671 247.514 7.88473C246.785 7.71705 245.902 7.56103 244.876 7.42965C242.694 7.15025 240.287 7.03038 238.258 7.00484C237.249 6.99216 236.355 7.00294 235.653 7.02633C235.302 7.03803 235.01 7.05299 234.781 7.06832C234.667 7.07596 234.575 7.08314 234.505 7.08981C234.492 7.09103 234.479 7.09261 234.469 7.09371C234.45 7.09558 234.434 7.09713 234.422 7.09859L234.39 7.1025C232.477 7.37578 230.704 6.04618 230.431 4.13277C230.157 2.21934 231.487 0.446375 233.4 0.172814Z" fill="black"/>
</svg>
