<svg width="394" height="203" viewBox="0 0 394 203" fill="none" xmlns="http://www.w3.org/2000/svg">
<path d="M302.497 15.9201C309.275 5.61664 321.69 -1.78615 334.67 0.377174C336.577 0.695066 337.865 2.498 337.547 4.40452C337.23 6.31101 335.426 7.59894 333.52 7.28147C323.925 5.68238 314.001 11.1691 308.344 19.7678C307.017 21.7845 306.783 23.0703 306.818 23.761C306.847 24.3423 307.079 24.8491 307.706 25.3889C309.115 26.6007 311.994 27.4586 315.361 27.5715C315.701 27.5716 316.029 27.5721 316.295 27.5735C316.508 27.5745 316.696 27.5759 316.836 27.5774C316.905 27.5781 316.969 27.5784 317.021 27.5793C317.046 27.5798 317.076 27.5804 317.107 27.5813C317.122 27.5817 317.146 27.583 317.173 27.5842C317.183 27.5846 317.266 27.5882 317.366 27.5979C317.396 27.6008 317.452 27.6058 317.52 27.6155C317.563 27.6216 317.73 27.6456 317.938 27.7014C318.06 27.7365 318.383 27.8534 318.581 27.9436C318.958 28.1608 319.957 29.1636 320.376 30.0569C320.51 31.4532 319.625 33.4301 319.034 33.9514C318.736 34.1375 318.251 34.3611 318.077 34.4211C317.804 34.5066 317.579 34.5384 317.54 34.5442C317.46 34.5561 317.395 34.5625 317.362 34.5657C317.294 34.5721 317.24 34.5752 317.218 34.5764C317.141 34.5807 317.071 34.582 317.059 34.5823C317.005 34.5833 316.936 34.5838 316.862 34.5842C316.706 34.5851 316.463 34.5862 316.118 34.5862C315.831 34.5862 315.54 34.5803 315.246 34.5715C314.627 34.5718 314.039 34.5745 313.793 34.5832C310.843 34.6886 307.567 35.9078 305.199 37.7688C302.974 39.5167 301.85 42.3697 302.031 45.2239C302.21 48.0518 303.633 50.5072 306.083 51.7326C306.19 51.786 306.429 51.8812 306.77 51.9641C307.102 52.0449 307.447 52.0935 307.75 52.1008C307.89 52.1042 308.001 52.0964 308.082 52.0881C308.219 51.9229 308.361 51.7605 308.503 51.6135C308.614 51.4991 308.819 51.2963 309.09 51.0998C309.227 51.0012 309.465 50.8421 309.785 50.7024C310.072 50.5767 310.693 50.3479 311.503 50.4143C312.469 50.4934 313.389 50.9699 314.011 51.7776C314.535 52.458 314.673 53.1445 314.717 53.4748C314.803 54.1121 314.692 54.6289 314.665 54.7571C314.587 55.1336 314.459 55.4744 314.396 55.6408C314.245 56.0363 314.034 56.5061 313.89 56.8283C313.809 57.0098 313.742 57.1598 313.686 57.2893C313.631 57.416 313.609 57.4705 313.607 57.4768C312.647 60.1166 313.66 62.7699 316.523 64.2014C318.899 65.3896 320.481 65.7103 321.358 65.5686C321.678 65.5168 321.888 65.4074 322.095 65.1946C322.342 64.9409 322.729 64.3807 323.055 63.2053C323.875 60.2553 324.732 57.1294 324.797 54.7658C324.807 54.4141 324.789 53.9954 324.761 53.5422C324.741 53.2194 324.692 52.5904 324.691 52.217C324.691 52.1101 324.692 51.881 324.727 51.6164C324.744 51.4889 324.783 51.233 324.883 50.9289C324.952 50.721 325.214 49.9513 325.982 49.3127C326.426 48.9436 327.034 48.625 327.779 48.5285C328.053 48.4931 328.312 48.4924 328.553 48.5149C328.964 48.1579 329.464 47.8909 330.03 47.7551C336.201 46.274 341.686 45.4499 347.225 45.7854C352.801 46.1232 358.231 47.6232 364.343 50.5227C371.775 54.0483 377.751 58.7761 382.949 65.1037C389.586 73.1845 395.484 83.7159 393.286 95.6877C391.169 107.212 384.29 115.149 375.449 119.644C366.704 124.089 356.117 125.149 346.258 123.307C336.095 121.408 327.255 119.001 318.117 120.828C310.73 122.306 302.62 127.722 296.558 133.049C293.23 135.974 288.35 140.867 284.893 146.164C281.28 151.702 279.993 156.472 281.503 159.871C282.288 161.638 281.493 163.706 279.727 164.491C278.223 165.16 276.501 164.682 275.538 163.435C268.074 175.568 256.926 185.904 245.181 192.429C221.923 205.35 196.979 205.017 172.658 197.342C168.267 195.957 163.852 194.179 159.559 192.03C159.332 192.263 159.069 192.468 158.772 192.635C157.087 193.582 154.953 192.985 154.005 191.301C152.557 188.726 148.858 186.154 145.403 184.74C141.275 183.052 137.301 180.87 133.615 178.974C129.839 177.032 126.247 175.325 122.48 174.26C113.784 171.803 103.795 170.689 94.7006 172.145C85.6446 173.594 77.7056 177.538 72.5336 185.009C70.5027 187.943 68.7534 190.614 66.5698 192.913C64.2828 195.321 61.5791 197.282 57.5844 199.197C44.989 205.232 30.5461 201.512 19.9496 195.041C6.97881 187.121 1.1627 173.499 0.0961257 159.367C-0.8964 146.215 5.94112 138.506 13.9516 131.42C13.9503 130.461 14.3409 129.505 15.1098 128.813C16.3746 127.674 18.2413 127.629 19.5522 128.614C20.2053 128.792 20.8137 129.161 21.2875 129.714C21.9488 130.486 22.2148 131.462 22.1059 132.398C22.3256 132.895 22.5147 133.37 22.6772 133.801C23.2957 135.442 23.596 136.456 24.0619 137.388C25.9439 141.152 29.0186 144.471 32.6069 146.211C33.6323 146.708 35.2718 147.112 36.685 147.031C38.0943 146.951 38.4256 146.502 38.5463 146.231C39.0113 145.184 39.0226 143.974 38.5424 142.425C38.0452 140.821 37.1179 139.165 36.0551 137.433C34.7497 135.306 33.0084 133.943 30.6352 131.57C30.163 131.097 29.6254 130.304 29.5444 129.209C29.4651 128.136 29.864 127.305 30.2026 126.815C30.7776 125.981 31.5675 125.552 31.8364 125.408C32.5602 125.021 33.4518 124.732 34.1157 124.534C34.8469 124.317 35.6114 124.124 36.2162 123.977C36.5174 123.904 36.8014 123.836 37.0102 123.786C37.1182 123.76 37.2061 123.739 37.2768 123.722C37.3116 123.713 37.3397 123.707 37.3608 123.701C37.3708 123.699 37.3786 123.696 37.3842 123.695C37.3881 123.694 37.391 123.693 37.392 123.693C39.9089 122.993 43.038 122.092 45.3647 120.71C46.5089 120.031 47.198 119.38 47.5493 118.826C47.8314 118.381 47.9561 117.925 47.8002 117.224C47.4413 115.609 45.9828 113.846 43.8471 112.814C43.0651 112.436 42.304 112.207 41.5912 112.11C41.5116 112.301 41.4254 112.492 41.3305 112.682C40.6298 114.083 39.3598 115.316 38.1205 116.135C36.9766 116.891 34.9416 117.898 32.7045 117.401C31.6738 117.171 30.1842 116.383 29.727 114.56C29.3875 113.206 29.8744 112.093 30.0619 111.698C30.5077 110.762 31.2577 109.921 31.7446 109.406C32.3121 108.807 32.9282 108.238 33.4135 107.813C33.8098 107.465 34.3475 107.012 34.6967 106.787L34.8813 106.673C34.4572 105.636 33.7205 104.522 32.7358 103.504C31.6106 102.341 30.3113 101.459 29.1069 100.99C28.0404 100.576 27.2599 100.557 26.7426 100.69L26.5375 100.755C26.2756 100.856 26.0158 100.943 25.8002 101.015C25.5539 101.097 25.3994 101.146 25.1987 101.214C25.1955 101.215 25.192 101.216 25.1889 101.217C25.2305 101.441 25.279 101.783 25.2641 102.171C25.238 102.851 25.0171 103.792 24.2582 104.607C23.5868 105.327 22.8097 105.602 22.395 105.715C21.6578 105.916 20.8392 105.918 20.351 105.918C18.4184 105.918 16.8513 104.351 16.851 102.418C16.851 101.37 17.3123 100.429 18.0424 99.7873C18.1452 98.7854 18.5055 97.8675 19.0883 97.0852C19.7411 96.209 20.5518 95.6626 21.1967 95.3176C21.8395 94.9738 22.4887 94.7411 22.9516 94.5842C23.5268 94.3892 23.7419 94.3303 24.0239 94.2219C26.646 93.2134 29.3687 93.5822 31.644 94.467C33.9337 95.3576 36.0562 96.8687 37.767 98.6369C39.4752 100.402 40.9241 102.58 41.6977 104.936C41.7146 104.987 41.7292 105.04 41.7455 105.092C43.5721 105.236 45.3402 105.761 46.893 106.511C50.4463 108.228 53.6995 111.504 54.6332 115.705C55.207 118.287 54.6955 120.629 53.4614 122.575C52.2961 124.413 50.5882 125.749 48.9389 126.729C45.7428 128.627 41.7927 129.734 39.4086 130.397C40.3441 131.411 41.2615 132.535 42.0209 133.773C43.1041 135.538 44.449 137.839 45.228 140.352C46.0237 142.918 46.3154 145.985 44.9428 149.073C43.3168 152.732 39.8156 153.865 37.0805 154.02C34.3488 154.175 31.529 153.467 29.5532 152.509C24.336 149.979 20.2431 145.405 17.8002 140.519C17.4535 139.825 17.1316 139.016 16.8451 138.245C10.2669 144.349 6.40025 149.878 7.07659 158.841C8.03133 171.49 13.121 182.67 23.5981 189.068C33.1456 194.897 44.9599 197.483 54.559 192.884C57.9156 191.276 59.8856 189.785 61.4936 188.092C63.205 186.29 64.5728 184.211 66.7787 181.025C73.3241 171.57 83.2191 166.894 93.5942 165.233C103.931 163.578 114.973 164.864 124.384 167.524C127.554 168.419 130.54 169.675 133.374 171.031C128.063 164.052 124.345 155.95 123.152 146.827C123.129 146.826 123.105 146.826 123.082 146.824C121.156 146.67 119.718 144.983 119.872 143.056C123.531 97.3249 164.944 68.2132 208.109 66.6311C231.881 65.7599 254.16 72.3167 270.205 91.1985C280.462 103.27 285.86 119.02 284.919 134.755C287.445 131.932 289.965 129.523 291.937 127.79C298.283 122.213 307.529 115.807 316.745 113.964C327.579 111.797 338.216 114.684 347.543 116.426C356.133 118.031 365.115 117.045 372.277 113.404C379.343 109.811 384.712 103.62 386.401 94.4231C388.03 85.5532 383.774 77.1374 377.539 69.5471C372.979 63.9954 367.819 59.9191 361.342 56.8469C355.876 54.2539 351.321 53.0465 346.802 52.7727C342.412 52.5068 337.867 53.1107 332.302 54.4123C332.207 54.8695 332.021 55.3028 331.758 55.6858C331.538 58.9239 330.49 62.5928 329.799 65.0783C329.256 67.0332 328.4 68.7509 327.115 70.0735C325.79 71.4364 324.178 72.2032 322.474 72.4787C319.302 72.9913 316.018 71.7751 313.392 70.4621C308.807 68.1694 306.087 63.7899 306.258 58.9846C305.046 58.811 303.876 58.4543 302.954 57.9934C297.912 55.4729 295.354 50.5508 295.044 45.6653C294.737 40.806 296.618 35.6089 300.874 32.2649C301.589 31.7032 302.354 31.1825 303.157 30.7082C303.151 30.7037 303.145 30.6991 303.14 30.6946C301.306 29.1164 299.968 26.909 299.827 24.1135C299.691 21.4272 300.686 18.6723 302.497 15.9201ZM264.871 95.7317C250.6 78.937 230.67 72.8087 208.365 73.6262C169.837 75.0385 134.092 99.5884 127.647 137.253C128.879 137.795 129.739 139.026 129.739 140.458C129.739 165.117 151.417 183.299 174.765 190.666C197.804 197.936 220.651 198.049 241.782 186.31C257.049 177.828 271.008 162.403 275.93 145.779C281.058 128.458 276.538 109.463 264.871 95.7317ZM235.196 143.434C237.129 143.434 238.696 145.001 238.696 146.934C238.696 148.867 237.129 150.434 235.196 150.434C210.467 150.434 185.691 150.809 161.063 152.227C159.133 152.338 157.479 150.863 157.368 148.934C157.257 147.004 158.732 145.35 160.662 145.239C185.48 143.81 210.405 143.434 235.196 143.434ZM218.914 120.057C220.846 120.003 222.456 121.526 222.509 123.458C222.617 127.342 222.786 131.421 223.605 134.696C224.074 136.571 222.933 138.471 221.058 138.94C219.183 139.408 217.283 138.269 216.814 136.394C215.78 132.259 215.617 127.417 215.512 123.653C215.458 121.72 216.981 120.111 218.914 120.057ZM165.618 123.112C167.518 122.758 169.345 124.012 169.699 125.912C170.002 127.544 170.188 129.16 170.356 130.656L170.392 130.974L170.628 133.017C170.711 133.679 170.801 134.325 170.909 134.969C171.226 136.876 169.938 138.679 168.032 138.996C166.125 139.314 164.322 138.026 164.004 136.119C163.757 134.637 163.592 133.156 163.439 131.783L163.4 131.435C163.231 129.929 163.068 128.545 162.817 127.193C162.463 125.292 163.717 123.465 165.618 123.112ZM316.913 27.5842C316.916 27.5842 316.919 27.5842 316.921 27.5842C316.926 27.5841 316.929 27.5832 316.929 27.5832C316.929 27.5832 316.927 27.5832 316.924 27.5832C316.922 27.5833 316.918 27.584 316.913 27.5842Z" fill="black"/>
</svg>
