<svg width="185" height="142" viewBox="0 0 185 142" fill="none" xmlns="http://www.w3.org/2000/svg">
<path d="M79.5188 0.962013C104.834 -2.11089 133.185 1.86129 154.725 17.4776C171.169 29.3999 185.043 49.258 184.506 71.003C183.843 97.8393 161.447 116.486 140.982 127.005C128.657 133.34 114.889 137.296 101.369 139.348C87.8993 141.391 74.0426 142.821 60.0344 140.602C39.9424 137.419 18.6837 128.699 8.01194 108.964C-1.94677 90.547 -2.91238 66.5721 6.75413 47.6993L7.11448 47.0079C9.77912 41.9746 13.0877 37.5339 16.9153 33.6778C17.0678 33.3156 17.2843 32.973 17.5657 32.6671C25.4391 24.109 33.3871 16.2434 44.5637 10.9034C55.6351 5.61378 67.4506 2.427 79.5188 0.962013ZM150.615 23.1446C130.94 8.88036 104.542 4.97616 80.3625 7.91123C68.9558 9.29591 57.8878 12.2956 47.5813 17.2198C46.874 17.5577 46.1811 17.9087 45.5002 18.2696C46.3729 18.6636 47.0816 19.4126 47.3957 20.3966C47.9832 22.238 46.9666 24.2074 45.1252 24.795C31.0692 29.2811 19.5966 37.9816 12.9846 50.8907C4.43991 67.5734 5.23224 89.1064 14.1692 105.634C23.3116 122.541 41.9066 130.642 61.1301 133.688C74.0249 135.73 86.9943 134.448 100.319 132.427C113.249 130.465 126.261 126.701 137.781 120.779C157.745 110.518 176.947 93.5912 177.509 70.8302C177.97 52.1395 165.899 34.2249 150.615 23.1446ZM126.588 70.2921C126.967 68.3968 128.811 67.1682 130.706 67.547C132.602 67.9261 133.831 69.7697 133.452 71.6651C131.461 81.6212 128.424 93.4697 119.385 101.247C110.712 108.71 99.5878 113.258 88.2961 114.413C71.6383 116.117 50.4868 113.777 40.6653 96.1925L40.2063 95.3438C35.8348 86.9912 36.7658 79.5968 38.1594 71.7579C38.4979 69.8551 40.3151 68.5867 42.218 68.9249C44.121 69.2633 45.3893 71.0804 45.051 72.9835C43.6916 80.63 43.199 85.9655 46.4084 92.0978C53.8313 106.28 71.0583 109.14 87.5842 107.45C97.5395 106.432 107.296 102.414 114.82 95.9405C121.853 89.888 124.584 80.313 126.588 70.2921ZM131.119 33.0167C133.502 32.1919 136.257 32.0303 138.567 33.5489C140.919 35.0958 141.808 37.7209 141.873 40.2569C142.173 51.9535 133.564 60.291 125.697 65.5362C125.004 65.9981 124.206 66.1792 123.437 66.1085C122.438 66.3213 121.412 66.3369 120.386 66.1446C118.409 65.7739 116.748 64.6986 115.436 63.4552C112.848 61.0027 110.936 57.2611 109.83 53.5353C108.72 49.7939 108.26 45.5204 109.104 41.8243C109.976 38.002 112.433 34.3358 117.25 33.4601C120.419 32.8841 122.885 34.5474 124.364 35.9503C124.856 36.4173 125.307 36.924 125.72 37.4288C126.873 35.7241 128.572 33.8984 131.119 33.0167ZM72.6448 29.3067C75.0744 28.785 78.7237 28.6552 81.3264 31.2579C84.9102 34.8421 83.8051 39.7958 82.6301 42.8487C81.343 46.1927 79.2192 49.3113 78.0158 50.9796C73.8346 56.7763 67.8272 59.8835 62.8996 62.8399C61.2421 63.8345 59.0924 63.2972 58.0979 61.6397C57.8378 61.2062 57.6821 60.7391 57.6242 60.2677C56.5086 59.7852 55.6753 58.7351 55.5315 57.4405C55.4821 56.9958 55.5185 56.5612 55.6272 56.1534C55.566 56.0894 55.5025 56.0211 55.4338 55.9513C54.6813 55.1854 53.7756 54.3714 52.9397 53.6339C52.3474 53.1113 51.5351 52.414 51.05 51.92L50.8635 51.7218C48.8147 49.4169 47.4663 45.9877 47.0715 42.714C46.6849 39.507 47.1156 35.456 49.9221 32.6495C51.824 30.7478 54.0699 29.5736 56.5442 29.5851C58.9894 29.5966 60.9814 30.7636 62.4084 32.1544C63.0115 32.7422 63.5566 33.4096 64.0403 34.13C64.6629 33.4815 65.2793 32.9204 65.8147 32.4855L66.1408 32.2306C67.8214 30.9616 70.2243 29.8266 72.6448 29.3067ZM134.695 39.4083C134.541 39.3845 134.151 39.3739 133.408 39.631C132.812 39.8375 132.157 40.3636 131.415 41.505C130.65 42.6826 130.086 44.0284 129.378 45.5851C129.217 45.9394 129.099 46.2111 129.012 46.4151C128.954 46.5514 128.839 46.8271 128.757 46.9972C128.731 47.0516 128.672 47.173 128.588 47.3136C128.578 47.3315 128.287 47.8618 127.715 48.3077C127.42 48.5379 126.526 49.159 125.221 49.0333C123.751 48.8915 122.923 47.9388 122.591 47.4122C122.282 46.9213 122.172 46.4732 122.136 46.3126C122.089 46.1058 122.07 45.9363 122.062 45.8448C122.045 45.6633 122.046 45.5144 122.046 45.461C122.047 45.392 122.049 45.3304 122.05 45.296C122.056 45.1271 122.052 45.2582 122.057 45.1212C122.068 44.7757 122.04 44.3707 121.808 44.005C121.11 42.9078 120.36 41.8026 119.545 41.0294C119.154 40.6581 118.858 40.4727 118.672 40.3927C118.589 40.3567 118.542 40.3487 118.529 40.3468C118.519 40.3455 118.514 40.3455 118.502 40.3478C117.283 40.5695 116.393 41.3479 115.929 43.3819C115.436 45.5421 115.649 48.5372 116.541 51.544C117.438 54.5665 118.857 57.0538 120.251 58.3751C120.93 59.018 121.422 59.2162 121.676 59.2638C121.831 59.2928 122.065 59.3121 122.51 59.0157C122.808 58.8169 123.126 58.6697 123.452 58.5724C130.089 53.7784 135.063 47.7197 134.876 40.4356C134.861 39.8294 134.758 39.533 134.695 39.4083ZM76.3762 36.2071C76.3496 36.1812 75.8194 35.7844 74.1145 36.1505C72.6539 36.4642 71.2086 37.1814 70.385 37.797L70.2287 37.9181C68.9869 38.9271 67.67 40.4987 67.3049 41.4474C67.3033 41.4526 67.2882 41.4966 67.258 41.5948C67.2258 41.6998 67.1881 41.8303 67.1448 41.9855C67.0252 42.4138 66.9973 42.531 66.8684 42.9962C66.8047 43.2259 66.6609 43.7544 66.4875 44.1544C66.4556 44.2281 66.3002 44.5985 66.0012 44.9825C65.8826 45.1349 65.4465 45.6859 64.6516 46.0411C64.1964 46.2445 63.5588 46.4107 62.8108 46.3233C62.0484 46.2342 61.4295 45.9118 60.9836 45.544C60.2156 44.9104 59.9522 44.1446 59.885 43.9454C59.784 43.6462 59.7432 43.3949 59.7258 43.2687C59.6897 43.0061 59.6877 42.7803 59.6877 42.6671C59.6877 40.7402 58.7366 38.3503 57.5227 37.1671C56.9773 36.6356 56.6335 36.5857 56.5119 36.5851C56.4199 36.5846 55.8675 36.6036 54.8713 37.5997C54.258 38.2131 53.7514 39.6344 54.0217 41.8761C54.284 44.0513 55.1863 46.0491 56.095 47.0714C56.0633 47.0358 56.1427 47.1202 56.4807 47.423C56.7761 47.6876 57.1307 47.9968 57.5705 48.3849C58.4117 49.1271 59.4835 50.0848 60.427 51.045C61.2487 51.8813 62.4138 53.1465 62.9817 54.4776C62.9986 54.5174 63.0146 54.562 63.0334 54.6095C66.8164 52.3262 69.9497 50.196 72.3381 46.8849C73.4706 45.3148 75.1486 42.7978 76.0969 40.3341C77.1572 37.5792 76.721 36.552 76.3762 36.2071Z" fill="black"/>
</svg>
