<svg width="402" height="156" viewBox="0 0 402 156" fill="none" xmlns="http://www.w3.org/2000/svg">
<path d="M172.477 3.13741C187.716 -0.0862253 203.904 -1.28217 219.568 1.74971C232.21 4.19653 242.867 10.5955 252.533 18.0856C270.323 31.8707 282.245 55.7877 280.164 78.6774C279.397 87.1194 277.316 94.8878 274.127 102.002C274.536 101.675 274.944 101.35 275.347 101.024C287.151 91.478 298.751 81.6736 310.384 71.8396C321.351 62.5683 332.349 53.2714 343.528 44.1784C343.364 43.6086 343.144 42.8596 342.997 42.2985C342.814 41.5982 342.563 40.5436 342.586 39.5271C342.705 34.2959 345.841 29.887 348.749 26.9792C353.017 22.7112 358.499 22.7825 362.623 25.1296C365.734 26.9002 368.257 30.044 369.186 33.7702C372.654 32.3192 377.005 31.165 381.283 31.0319C386.606 30.8664 392.728 32.3034 396.153 37.9079C397.897 40.7612 398.704 43.6259 398.431 46.4187C398.156 49.2215 396.834 51.5259 395.104 53.3239C394.104 54.3635 392.935 55.2658 391.674 56.0485C393.397 56.7922 394.959 57.8447 396.24 59.0271C399.763 62.2779 402.498 67.746 400.395 73.1687C397.723 80.0593 390.629 82.4428 384.531 83.1999C378.222 83.9832 371.468 83.2449 367.253 82.5964C365.343 82.3023 364.032 80.5154 364.326 78.6052C364.62 76.6948 366.407 75.3837 368.317 75.6774C372.336 76.2957 378.328 76.9156 383.669 76.2526C389.221 75.5633 392.683 73.6955 393.869 70.6384C394.533 68.9263 393.851 66.3477 391.492 64.1706C389.148 62.0077 386.476 61.4776 384.694 62.3161C382.945 63.1388 380.86 62.389 380.037 60.6403C379.833 60.207 379.725 59.7528 379.706 59.3024C378.904 58.8267 378.292 58.0352 378.074 57.0534C377.655 55.1667 378.845 53.2972 380.731 52.8776C384.577 52.0231 388.147 50.4593 390.06 48.4704C390.951 47.5452 391.375 46.6448 391.464 45.736C391.554 44.8167 391.342 43.4602 390.18 41.5583C388.655 39.0632 385.687 37.8988 381.501 38.029C377.358 38.1579 372.909 39.5785 369.986 41.1169C368.539 41.8786 366.8 41.5254 365.754 40.362C363.97 40.2011 362.572 38.7031 362.572 36.8776C362.572 34.5934 361.143 32.3425 359.16 31.2136C357.356 30.1869 355.414 30.2136 353.699 31.9284C351.291 34.3367 349.642 37.1137 349.584 39.6862C349.585 39.6259 349.589 39.8342 349.77 40.53C349.952 41.227 350.127 41.767 350.382 42.6833C350.42 42.8223 350.459 42.9686 350.499 43.1198C351.297 44.1455 351.436 45.4812 350.97 46.6081C350.913 47.416 350.684 48.4125 349.989 49.3064C349.185 50.34 347.916 50.7975 346.707 50.6169C336.015 59.3385 325.472 68.25 314.902 77.1853C303.279 87.0116 291.621 96.8646 279.748 106.467C274.059 111.067 268.498 115.166 263.059 119.51C258.249 125.219 252.583 130.341 246.231 134.886L245.327 135.527C225.387 149.485 199.589 155.054 175.367 151.843C171.943 151.389 168.544 150.758 165.192 149.949C164.105 150.175 163.007 149.866 162.203 149.175C160.979 148.838 159.762 148.476 158.554 148.09C158.345 148.055 158.104 148.012 157.871 147.955C152.018 146.512 146.181 144.417 140.748 142.65C128.482 138.66 116.098 135.006 103.658 131.362C91.8971 127.917 80.0807 124.476 68.3339 120.788C67.0314 121.749 65.1918 121.704 63.9335 120.586C62.5708 119.374 62.3782 117.338 63.4384 115.898C63.4476 115.86 63.4612 115.81 63.4726 115.745C63.5347 115.389 63.5654 114.868 63.5536 114.179C63.5421 113.505 63.4932 112.799 63.4404 112.073C63.3926 111.418 63.33 110.615 63.33 109.975C63.33 105.006 62.5295 100.61 59.9687 97.195C58.4143 95.1226 57.5712 95.0625 57.5019 95.0632C57.4394 95.0639 56.5339 95.135 54.8993 97.4382C51.5764 102.121 50.1887 108.327 51.4013 113.784C51.6841 115.057 51.2335 116.32 50.332 117.137C50.3482 117.357 50.345 117.582 50.3183 117.808C50.0922 119.728 48.3521 121.102 46.4325 120.876C44.7104 120.673 43.3298 119.767 42.372 118.97C41.3745 118.141 40.4842 117.129 39.7411 116.209C38.9981 115.288 38.2766 114.297 37.706 113.533C37.075 112.688 36.6593 112.167 36.372 111.88C31.8763 107.384 26.453 105.537 20.6425 107.133C17.5762 107.974 15.4707 109.304 14.1396 110.938C12.8357 112.539 12.0298 114.729 12.079 117.787C12.1399 121.551 14.2609 125.143 17.2665 126.823C17.8695 126.764 18.4855 126.718 19.0995 126.69C21.0482 126.601 23.3387 126.665 25.2138 127.201C25.6034 127.312 27.788 127.969 28.1415 130.366C28.3072 131.49 27.9266 132.38 27.622 132.881C27.3192 133.378 26.9602 133.72 26.7167 133.925C26.2254 134.337 25.6927 134.613 25.2724 134.786C24.9143 134.933 24.2294 135.176 23.4277 135.176C21.3676 135.176 19.2859 134.848 17.4189 134.369C17.0156 134.265 16.6209 134.144 16.2343 134.01C15.8024 134.08 15.4074 134.155 15.0663 134.232C10.5162 135.266 7.51018 137.992 7.04387 141.981C6.82802 143.829 7.41635 144.858 8.51946 145.704C9.86669 146.737 12.0995 147.522 15.0605 147.991C20.938 148.921 27.82 148.358 31.2284 148.169C33.1584 148.061 34.8106 149.539 34.9179 151.469C35.0248 153.399 33.5469 155.051 31.6171 155.158C28.5357 155.329 20.7588 155.98 13.9657 154.905C10.5913 154.371 6.98517 153.348 4.26067 151.259C1.2923 148.984 -0.424402 145.578 0.0907455 141.169C0.79247 135.165 4.51609 131.143 9.12004 128.931C6.58399 125.795 5.14298 121.795 5.08 117.9C5.00859 113.472 6.20339 109.598 8.71282 106.517C11.1953 103.47 14.7185 101.499 18.789 100.382C27.4713 97.9982 35.399 101.007 41.3212 106.929C42.0218 107.63 42.7272 108.558 43.3134 109.342C43.5377 109.643 43.7562 109.937 43.9716 110.226C43.8641 104.234 45.7798 98.1936 49.1913 93.3864C51.2192 90.5291 53.9208 88.1004 57.4277 88.0632C60.9276 88.0263 63.6155 90.3898 65.5693 92.9948L65.9257 93.486C69.5244 98.5874 70.33 104.595 70.33 109.975C70.33 110.295 70.3646 110.779 70.4218 111.564C70.4739 112.279 70.5374 113.165 70.5527 114.059C70.5532 114.088 70.5523 114.118 70.5527 114.147C82.1771 117.795 93.8808 121.204 105.626 124.644C113.281 126.886 120.95 129.143 128.602 131.486C123.17 126.771 118.316 121.253 114.239 114.912C103.645 98.4317 98.8079 76.1086 106.112 56.6853L106.49 55.7048C108.007 51.861 109.839 48.2958 111.937 44.9841C111.337 44.8553 110.762 44.5675 110.281 44.1169C108.871 42.795 108.799 40.5798 110.121 39.1696C118.435 30.3013 126.548 23.1128 137.343 16.7653C147.99 10.5051 160.39 5.69429 172.477 3.13741ZM218.237 8.62178C203.768 5.82137 188.573 6.88668 173.926 9.98506C167.598 11.3237 161.163 13.3279 154.975 15.8571C155.012 15.9274 155.047 15.9992 155.08 16.073C155.862 17.8405 155.063 19.9078 153.296 20.6901C134.955 28.8085 119.652 40.5682 112.664 59.1501C106.325 76.0071 110.412 96.0127 120.128 111.127C129.663 125.959 143.969 135.961 160.157 141.253C160.267 141.268 160.388 141.286 160.525 141.305C161.082 141.384 161.83 141.492 162.58 141.652C163.301 141.806 164.225 142.049 165.082 142.472C165.291 142.575 165.543 142.713 165.811 142.892C169.245 143.764 172.746 144.435 176.287 144.904C198.92 147.904 222.927 142.662 241.312 129.793L242.154 129.197C243.871 127.969 245.529 126.698 247.126 125.386C247.085 123.834 248.088 122.413 249.605 121.952C249.638 121.931 249.686 121.899 249.748 121.853C249.997 121.669 250.318 121.388 250.708 121.012C251.094 120.64 251.47 120.251 251.866 119.844C252.213 119.488 252.664 119.028 253.065 118.683C254.713 117.271 256.411 115.874 258.136 114.49C266.571 104.287 271.908 92.179 273.193 78.0437C275.032 57.8135 264.381 36.1222 248.245 23.6189C238.978 16.4383 229.341 10.771 218.237 8.62178ZM172.839 104.965C181.52 102.073 193.238 100.389 202.848 104.259C205.254 105.228 207.335 106.916 207.875 109.592C208.37 112.047 207.313 114.222 206.313 115.662C204.291 118.575 200.724 121.069 198.217 122.109C189.538 125.709 178.028 128.651 167.799 125.945C165.069 125.223 162.679 123.804 161.576 121.291C160.498 118.835 161.11 116.362 161.946 114.572C163.594 111.045 167.159 107.808 169.967 106.15C170.488 105.842 171.057 105.684 171.622 105.665C171.965 105.36 172.376 105.119 172.839 104.965ZM200.232 110.752C192.875 107.789 183.083 108.931 175.051 111.606C174.725 111.715 174.395 111.771 174.068 111.783C173.904 111.929 173.723 112.061 173.526 112.177C171.529 113.357 169.166 115.655 168.288 117.535C168.035 118.076 168.004 118.367 168.004 118.478C168.13 118.601 168.531 118.898 169.589 119.177C177.573 121.289 187.312 119.054 195.535 115.643C197.033 115.022 199.436 113.295 200.563 111.671C200.742 111.413 200.845 111.218 200.907 111.082C200.768 110.995 200.554 110.881 200.232 110.752ZM138.01 63.1599C138.949 61.4704 141.08 60.8618 142.769 61.8005C144.273 62.636 145.002 64.0884 145.355 64.9343C145.763 65.9097 146.028 66.9813 146.215 67.903C146.406 68.8465 146.544 69.7928 146.652 70.5437C146.774 71.3879 146.839 71.8398 146.893 72.0749C147.248 73.6299 147.759 75.1839 148.347 76.862C148.916 78.4876 149.585 80.3039 150.133 82.1286C150.688 83.98 149.637 85.9314 147.786 86.487C145.935 87.0424 143.983 85.9917 143.428 84.1403C142.94 82.5165 142.361 80.9491 141.74 79.1755C141.138 77.4546 140.516 75.5927 140.068 73.6355C139.932 73.0401 139.818 72.198 139.724 71.5388C139.615 70.7858 139.501 70.0175 139.354 69.2907C139.203 68.5424 139.046 67.9871 138.897 67.6325C138.891 67.6169 138.884 67.6024 138.878 67.5886C137.57 66.541 137.169 64.6736 138.01 63.1599ZM188.745 54.2448C190.508 53.4517 192.58 54.2372 193.373 55.9997C196.159 62.1909 196.707 69.5849 197.632 75.1355C197.949 77.0419 196.661 78.8449 194.755 79.1628C192.848 79.4806 191.044 78.1925 190.726 76.2858C189.638 69.757 189.282 63.9658 186.99 58.8728C186.197 57.1101 186.983 55.0382 188.745 54.2448Z" fill="black"/>
</svg>
