<svg width="223" height="227" viewBox="0 0 223 227" fill="none" xmlns="http://www.w3.org/2000/svg">
<path d="M13.8902 154.637C19.8921 184.22 46.9314 208.369 77.074 211.554C114.334 215.491 154.973 186.733 152.859 147.044C150.227 97.6584 94.4893 72.4943 50.7657 87.056C31.2913 93.5418 14.5897 110.61 10.0889 130.76C7.89155 140.597 7.51144 150.341 9.05644 160.324C10.9686 172.68 16.9352 181.882 23.6063 192.175" stroke="#45A0D3" stroke-width="7.1861" stroke-linecap="round"/>
<path d="M58.1593 127.998C60.3216 130.795 60.0281 136.659 60.6882 140.01" stroke="#45A0D3" stroke-width="7.1861" stroke-linecap="round"/>
<path d="M108.685 126.331C109.975 126.662 107.599 138.793 107.394 140.395" stroke="#45A0D3" stroke-width="7.1861" stroke-linecap="round"/>
<path d="M75.3509 172.379C82.4135 170.903 89.7945 170.571 96.9915 170.065" stroke="#45A0D3" stroke-width="7.1861" stroke-linecap="round"/>
<path d="M161.579 72.0157C153.218 69.3265 142.683 63.3173 143.889 52.8402C145.211 41.3484 159.752 49.3077 164.602 53.2213" stroke="#45A0D3" stroke-width="7.1861" stroke-linecap="round"/>
<path d="M165.211 53.2992C168.936 45.3744 172.482 37.2945 176.859 29.6956C178.16 27.4367 179.645 25.1949 181.731 23.5815C183.511 22.2059 186.157 20.1868 188.543 21.1186C193.918 23.2169 194.271 32.6479 194.49 37.2448" stroke="#45A0D3" stroke-width="7.1861" stroke-linecap="round"/>
<path d="M195.021 37.9315C201.79 35.3859 207.524 34.2965 214.3 38.5073C221.835 43.1896 218.866 52.7905 214.069 58.312" stroke="#45A0D3" stroke-width="7.1861" stroke-linecap="round"/>
<path d="M164.289 72.8477C163.546 82.7859 161.725 92.2399 160.125 102.103C157.343 119.254 155.066 136.476 152.861 153.71" stroke="#45A0D3" stroke-width="7.1861" stroke-linecap="round"/>
</svg>
