<svg width="245" height="213" viewBox="0 0 245 213" fill="none" xmlns="http://www.w3.org/2000/svg">
<path d="M29.5375 74.6465C22.0178 82.7314 15.1278 90.7767 12.1929 101.64C10.1119 109.342 8.91019 117.015 9.00273 125.013C9.22038 143.823 18.2878 158.301 32.4479 170.315C67.2793 199.869 123.02 209.509 159.561 177.659C173.794 165.253 181.902 144.129 180.362 125.44C178.613 104.213 163.985 86.1619 146.642 74.8784C124.934 60.7551 98.8561 55.1577 73.2293 59.7703C61.4 61.8994 50.5256 66.2025 40.4411 72.7543C33.4781 77.2781 27.1449 82.5206 22.0545 89.1241C16.5744 96.2332 14.1912 103.616 11.3895 111.941" stroke="#468F2C" stroke-width="7.1861" stroke-linecap="round"/>
<path d="M97.2668 103.324C98.4503 106.838 98.5917 110.439 99.5184 114.02" stroke="#468F2C" stroke-width="7.1861" stroke-linecap="round"/>
<path d="M143.521 106.074C145.104 110.774 145.477 115.852 145.26 120.776" stroke="#468F2C" stroke-width="7.1861" stroke-linecap="round"/>
<path d="M117.45 155.703C125.872 158.857 136.772 161.458 143.865 154.597" stroke="#468F2C" stroke-width="7.1861" stroke-linecap="round"/>
<path d="M56.5032 87.1638C57.7871 93.7892 56.6617 100.766 52.7548 106.449C50.6113 109.567 47.4127 112.149 44.8398 114.904C42.2991 117.624 39.4764 120.105 38.9781 124C38.5459 127.379 39.631 131.98 42.1767 134.422C49.325 141.282 59.0674 138.944 62.1724 129.649C64.6392 122.264 62.956 113.7 61.1126 106.403C59.7305 100.932 57.9753 95.6873 58.7019 90.0076" stroke="#468F2C" stroke-width="7.1861" stroke-linecap="round"/>
<path d="M109.395 22.9307C109.1 25.2393 108.672 27.4383 109.244 29.7479C109.945 32.5774 112.015 35.4296 115.025 36.0837C122.7 37.7516 123.869 28.2319 123.961 22.7171" stroke="#468F2C" stroke-width="7.1861" stroke-linecap="round"/>
<path d="M136.522 19.9105C137.568 23.137 137.081 27.0755 136.751 30.411C136.465 33.2972 136.515 36.1958 136.147 39.0742" stroke="#468F2C" stroke-width="7.1861" stroke-linecap="round"/>
<path d="M136.617 31.3458C138.76 31.4998 141.081 30.7342 143.255 30.6373C145.785 30.5246 148.239 30.5999 150.77 30.3005" stroke="#468F2C" stroke-width="7.1861" stroke-linecap="round"/>
<path d="M154.343 20.6326C155.188 26.9802 153.047 33.1714 153.49 39.4755" stroke="#468F2C" stroke-width="7.1861" stroke-linecap="round"/>
<path d="M169.96 32.4959C172.314 32.3522 174.665 32.238 177.02 32.101" stroke="#468F2C" stroke-width="7.1861" stroke-linecap="round"/>
<path d="M199.359 27.9491C195.511 25.3676 190.868 28.8777 188.948 32.3288C186.155 37.3486 190.531 41.686 195.156 43.1038C200.49 44.739 206.394 43.449 208.25 37.5962C209.205 34.5853 208.607 31.6333 206.869 28.9964C205.069 26.2649 202.02 25.3219 198.985 24.7858" stroke="#468F2C" stroke-width="7.1861" stroke-linecap="round"/>
<path d="M225.078 25.7874C224.016 32.8448 220.755 39.286 219.844 46.4064" stroke="#468F2C" stroke-width="7.1861" stroke-linecap="round"/>
<path d="M220.635 38.1998C222.888 37.6782 225.347 37.9679 227.641 38C230.494 38.0399 233.345 38.1878 236.19 38.3724" stroke="#468F2C" stroke-width="7.1861" stroke-linecap="round"/>
<path d="M240.496 29.0579C241.517 29.719 241.346 30.7808 241.163 31.8547C240.771 34.1515 240.333 36.4598 239.723 38.7091C238.626 42.7595 237.575 46.8849 236.154 50.8294" stroke="#468F2C" stroke-width="7.1861" stroke-linecap="round"/>
</svg>
