<svg width="288" height="207" viewBox="0 0 288 207" fill="none" xmlns="http://www.w3.org/2000/svg">
<path d="M246.144 1.45807C247.58 0.537844 249.786 -0.433767 252.346 0.206119C256.848 1.33158 259.156 5.44195 260.384 8.6192C261.093 10.4524 261.599 12.3914 261.975 14.1221C264.02 13.2445 266.134 12.5541 268.353 12.2237C272.07 11.6704 275.871 12.1539 279.989 14.0362C285.372 16.4971 287.487 21.1859 287.575 25.8604C287.659 30.3296 285.947 34.9113 283.671 38.3253C282.599 39.9336 280.426 40.3682 278.818 39.296C277.21 38.2237 276.775 36.0508 277.847 34.4424C279.523 31.9286 280.627 28.7248 280.576 25.9923C280.528 23.4649 279.554 21.5353 277.079 20.4034C274.129 19.0548 271.692 18.8038 269.383 19.1475C266.97 19.5069 264.486 20.5441 261.472 22.1397C259.949 22.9458 258.101 22.5159 257.077 21.2032C256.421 20.6896 255.946 19.9413 255.79 19.0567L255.765 18.921C255.367 16.6614 254.846 13.7057 253.855 11.1426C252.782 8.36675 251.62 7.25516 250.674 7.00397C250.609 7.00985 250.381 7.05616 249.919 7.35163C249.214 7.80338 248.505 8.48886 247.695 9.29889C246.388 10.6054 245.444 12.4147 244.498 14.6817C241.905 20.8932 239.868 27.3139 237.784 33.8839V33.8848L237.783 33.8868C237.281 35.4676 236.778 37.0572 236.262 38.6544C235.751 40.2377 234.218 41.2067 232.628 41.0674C231.908 41.1291 231.162 40.9688 230.499 40.5606C228.181 39.1346 223.636 37.1278 219.943 36.7383C218.071 36.541 217.032 36.8255 216.563 37.1387C216.343 37.2857 215.746 37.7371 215.771 39.7276C215.818 43.4088 217.723 46.1565 220.878 48.3214C224.119 50.5442 228.423 51.9365 232.375 52.6719C232.841 52.7586 233.268 52.9346 233.642 53.1778C233.845 53.1295 234.056 53.0984 234.272 53.087C236.202 52.9854 237.85 54.4682 237.952 56.3985C238.317 63.3398 238.129 70.1362 237.874 76.8878L237.761 79.7794C237.686 81.6819 237.611 83.5825 237.547 85.4825C236.981 102.335 236.91 119.207 236.91 136.127C236.91 137.137 236.48 138.047 235.795 138.686C235.509 142.888 234.772 147.087 233.551 151.212C228.015 169.913 212.644 186.679 196.09 195.876C172.832 208.797 147.888 208.464 123.567 200.789C103.774 194.543 83.4561 180.369 76.3208 159.817C74.907 159.616 73.704 158.555 73.3911 157.076C72.8326 154.437 72.2707 151.801 71.7075 149.165C71.0631 148.472 70.7003 147.521 70.7817 146.503C70.8132 146.109 70.8482 145.717 70.8852 145.325C68.172 132.718 65.3661 120.154 62.2807 107.661C61.8249 105.816 61.3583 103.972 60.8911 102.126C58.9993 94.6519 57.0978 87.1386 55.8638 79.2911C55.5637 77.3817 56.8684 75.5904 58.7778 75.2901C58.9915 75.2565 59.2038 75.2429 59.4126 75.2481C59.7281 74.9328 60.1095 74.6725 60.5473 74.4913C64.2622 72.9534 68.1852 70.7001 70.895 67.8546C73.5339 65.0833 74.8284 62.0007 74.1118 58.3897C73.7242 56.4364 73.0457 56.1197 72.8003 56.0215C72.2766 55.8122 71.2015 55.7486 69.4116 56.3292C65.8795 57.4748 61.8472 60.3791 59.8755 62.254C59.3111 62.7905 58.6147 63.1016 57.897 63.1905C56.3705 63.6559 54.671 63.026 53.8432 61.5831C53.0084 60.1273 52.1856 58.6761 51.3677 57.2335L51.3667 57.2315L51.3657 57.2305C47.9662 51.2345 44.6439 45.3742 40.8218 39.834C39.4268 37.8121 38.1283 36.2372 36.5796 35.2296C35.6194 34.6048 34.7829 34.0822 33.9995 33.7862C33.4867 33.5925 33.2537 33.5948 33.1889 33.6026C32.3156 34.0444 31.4102 35.372 30.935 38.3096C30.4963 41.0222 30.5983 44.0214 30.6763 46.3145L30.6802 46.4532C30.7105 47.3506 30.4004 48.1804 29.8657 48.8184C29.1356 50.3149 27.4159 51.119 25.7593 50.6456C22.4801 49.7085 19.8355 49.2073 17.3999 49.3555C15.0698 49.4974 12.7382 50.2476 10.1313 52.1778C7.94364 53.7978 7.39003 55.8877 7.86668 58.3702C8.3821 61.0542 10.1266 63.96 12.2866 66.0723C13.6686 67.4238 13.6937 69.6395 12.3423 71.0215C10.9909 72.4034 8.77508 72.4283 7.39305 71.0772C4.45945 68.2084 1.83557 64.0795 0.99266 59.6895C0.111169 55.0981 1.20939 50.0739 5.96629 46.5518C9.60495 43.8577 13.223 42.5966 16.9741 42.3682C19.2138 42.2319 21.4246 42.4701 23.6069 42.9053C23.6161 41.1342 23.7111 39.1327 24.0249 37.1924C24.5688 33.8298 25.9748 29.3311 30.146 27.2979C32.518 26.1417 34.8772 26.6355 36.4731 27.2383C38.0436 27.8317 39.4656 28.757 40.3462 29.3301L40.397 29.3624C43.1553 31.1571 45.0945 33.7012 46.5835 35.8594C50.5986 41.6794 54.1105 47.8752 57.521 53.8926L57.9927 54.7237C60.5571 52.7995 63.9163 50.7517 67.2514 49.67C69.6573 48.8897 72.6403 48.4179 75.3999 49.5215C78.4378 50.7365 80.269 53.4544 80.978 57.0274C82.261 63.4929 79.678 68.7828 75.9643 72.6827C72.3259 76.5035 67.4271 79.2184 63.2407 80.9532C64.402 87.4579 65.991 93.7391 67.6421 100.266L67.6431 100.27C68.1187 102.15 68.5994 104.051 69.0766 105.983C70.9289 113.483 72.6762 121.004 74.3647 128.532C85.9153 93.2548 121.815 71.4416 159.018 70.0782C182.791 69.2071 205.069 75.7636 221.114 94.6456C224.71 98.8775 227.707 103.562 230.044 108.539C230.137 100.779 230.29 93.0136 230.551 85.2471C230.618 83.2568 230.695 81.2966 230.771 79.3575C231.035 72.6302 231.289 66.1553 231.079 59.5508C226.624 58.7204 221.269 57.0785 216.918 54.0938C212.478 51.0474 208.855 46.4076 208.772 39.8165C208.726 36.1742 209.954 33.1361 212.674 31.3184C215.146 29.6672 218.162 29.5112 220.677 29.7764C224.164 30.1442 227.874 31.4523 230.782 32.8038L231.071 31.8926C233.161 25.2995 235.314 18.5106 238.038 11.9854C239.047 9.56567 240.419 6.6756 242.746 4.3487L242.788 4.3067C243.53 3.56371 244.73 2.36378 246.144 1.45807ZM215.78 99.1788C201.509 82.384 181.58 76.2559 159.274 77.0733C120.746 78.4854 85.0014 103.035 78.5561 140.7C79.7878 141.242 80.6479 142.473 80.6479 143.905C80.648 168.564 102.326 186.746 125.674 194.113C148.713 201.383 171.56 201.496 192.691 189.757C207.958 181.275 221.918 165.85 226.839 149.226C231.967 131.905 227.447 112.91 215.78 99.1788ZM150.256 149.84C153.341 148.185 156.912 148.609 160.12 151.053C161.366 152.003 161.796 153.626 161.291 155.025C161.353 155.136 161.416 155.248 161.475 155.362C162.722 157.764 162.963 160.387 162.864 163.37C162.786 165.689 162.037 168.036 160.205 169.71C158.332 171.42 155.874 171.931 153.425 171.625C149.398 171.122 146.652 168.808 145.317 165.742C144.067 162.87 144.144 159.593 144.961 156.849C145.768 154.141 147.49 151.325 150.256 149.84ZM153.16 156.297C152.629 156.759 152.039 157.606 151.669 158.847C151.212 160.382 151.284 161.911 151.735 162.947C152.102 163.79 152.766 164.489 154.293 164.68C155.231 164.797 155.475 164.551 155.484 164.542C155.527 164.503 155.833 164.188 155.868 163.138C155.953 160.579 155.684 159.398 155.263 158.588C154.929 157.945 154.357 157.261 153.16 156.297ZM123.68 108.302C125.424 107.468 127.513 108.206 128.347 109.949C130.922 115.333 132.549 120.81 134.035 126.259C134.543 128.124 133.443 130.048 131.579 130.557C129.714 131.065 127.79 129.965 127.282 128.101C125.812 122.712 124.319 117.749 122.033 112.969C121.199 111.225 121.936 109.136 123.68 108.302ZM175.415 100.21C177.097 99.259 179.233 99.8518 180.184 101.534C184.362 108.926 185.791 116.24 186.762 124.012C187.002 125.93 185.641 127.679 183.723 127.919C181.805 128.159 180.056 126.798 179.816 124.88C178.881 117.399 177.59 111.172 174.09 104.98C173.139 103.297 173.732 101.161 175.415 100.21Z" fill="black"/>
</svg>
