<svg width="236" height="264" viewBox="0 0 236 264" fill="none" xmlns="http://www.w3.org/2000/svg">
<path d="M3.77388 175.158C5.70396 175.057 7.35101 176.539 7.45259 178.469C8.14626 191.648 10.2406 204.174 13.5415 217.01C14.0226 218.882 12.8948 220.791 11.0229 221.272C10.1261 221.503 9.22158 221.363 8.46919 220.95C6.26913 226.309 6.86354 231.18 8.1606 237.99C8.49223 239.731 9.3216 242.968 10.6547 245.523C11.3258 246.809 11.993 247.663 12.5659 248.118C13.0382 248.493 13.2971 248.503 13.5669 248.447C14.5608 248.24 15.6443 247.328 16.811 244.979C17.3581 243.878 17.8318 242.646 18.2895 241.354C18.7144 240.155 19.1879 238.714 19.6245 237.598C19.6256 237.595 19.6385 237.56 19.6635 237.481C19.6894 237.4 19.7213 237.294 19.7583 237.164C19.8329 236.9 19.9161 236.582 20.0092 236.219C20.1841 235.539 20.404 234.654 20.604 233.97C20.7005 233.641 20.8301 233.224 20.9868 232.851C21.0566 232.685 21.2019 232.355 21.437 232.012C21.5526 231.844 21.7841 231.532 22.1528 231.229C22.5076 230.938 23.2758 230.425 24.3872 230.416C25.6085 230.405 26.4969 231.001 26.9926 231.521C27.4336 231.984 27.6476 232.458 27.7407 232.688C27.9315 233.161 27.9968 233.599 28.0239 233.803C28.0877 234.284 28.104 234.854 28.104 235.432C28.104 241.281 28.5252 245.936 31.2807 250.15C32.1656 251.503 33.8116 253.884 35.6186 255.527C36.5337 256.359 37.24 256.767 37.6821 256.902C37.9513 256.984 37.9179 256.937 37.9643 256.902C39.7322 255.589 41.0879 253.161 42.1713 249.812C43.2627 246.439 43.827 243.048 44.5991 239.788C45.6898 235.182 45.1184 230.484 44.5258 225.151C44.3126 223.23 45.6967 221.499 47.6176 221.286C49.0324 221.129 50.3426 221.839 51.021 222.991C52.0149 221.986 53.5642 221.647 54.9321 222.255C58.6005 223.885 63.7303 224.505 67.9819 223.508C72.1153 222.539 74.7957 220.276 75.3598 216.454C75.383 216.295 75.3136 215.466 74.1811 214.02C73.1419 212.694 71.5806 211.349 69.8754 210.33C68.1218 209.282 66.5727 208.791 65.5874 208.755C65.283 208.743 65.1165 208.78 65.0454 208.801C65.0386 208.816 65.0289 208.834 65.019 208.859C64.301 210.653 62.2637 211.527 60.4692 210.809C58.6747 210.091 57.8017 208.054 58.519 206.259C59.1436 204.698 60.2123 203.456 61.644 202.673C63.0198 201.92 64.5058 201.71 65.8471 201.759C68.4613 201.856 71.1803 202.956 73.4653 204.321C75.7986 205.715 78.0472 207.605 79.6909 209.703C81.2402 211.68 82.7288 214.466 82.2846 217.476C81.1703 225.027 75.5201 228.931 69.5805 230.324C63.759 231.689 57.0715 230.867 52.0883 228.652C52.0346 228.628 51.9821 228.602 51.9301 228.576C52.3041 232.589 52.4557 236.989 51.4106 241.401C50.7799 244.064 50.0322 248.252 48.8305 251.966C47.621 255.705 45.7014 259.875 42.1391 262.521C40.0368 264.083 37.6895 264.221 35.643 263.598C33.7695 263.028 32.1562 261.84 30.9086 260.706C28.3895 258.415 26.334 255.374 25.4223 253.98C24.2738 252.224 23.4287 250.431 22.8071 248.625C21.3715 251.341 19.0144 254.463 14.9946 255.3C12.3037 255.861 9.9775 254.999 8.21529 253.601C6.55378 252.283 5.33678 250.463 4.44869 248.761C2.66352 245.341 1.67366 241.347 1.28365 239.299C-0.161237 231.714 -1.2164 224.532 2.89107 216.317C3.45028 215.199 4.52775 214.511 5.68697 214.398C2.90233 202.664 1.10435 191.034 0.462358 178.837C0.360965 176.906 1.84368 175.259 3.77388 175.158ZM206.944 121.548C208.834 121.144 210.694 122.349 211.098 124.239C213.902 137.36 214.499 150.368 215.104 163.327C215.135 163.326 215.161 163.326 215.184 163.326C215.455 163.325 215.718 163.343 215.94 163.364C216.387 163.406 216.885 163.479 217.36 163.56C219.234 163.879 221.759 164.479 222.17 164.571C224.876 165.18 227.756 166.463 230.123 168.389C232.496 170.322 234.551 173.077 235.073 176.613C235.695 180.83 234.467 184.409 232.107 187.204C229.841 189.886 226.654 191.715 223.424 192.949C217.008 195.4 209.253 195.937 204.39 195.189C204.301 195.175 204.214 195.156 204.127 195.136C204.211 198.174 204.311 202.105 203.966 205.734C203.497 210.664 202.111 216.764 197.299 219.972C194.357 221.933 191.287 221.12 189.329 220.208C187.444 219.329 185.582 217.872 184.717 217.268C179.554 213.664 177.387 207.883 176.849 202.501C176.657 200.577 178.06 198.862 179.983 198.67C181.906 198.477 183.621 199.88 183.814 201.803C184.232 205.987 185.818 209.499 188.724 211.528C190.109 212.495 191.131 213.325 192.286 213.863C192.804 214.104 193.125 214.169 193.285 214.176C193.378 214.181 193.382 214.171 193.416 214.148C195.327 212.874 196.544 209.843 196.998 205.072C197.439 200.429 197.064 195.801 197.064 192.036C197.064 190.103 198.631 188.536 200.564 188.536C201.302 188.536 201.987 188.765 202.551 189.155C203.307 188.459 204.36 188.102 205.455 188.27C209.144 188.838 215.67 188.418 220.927 186.41C223.534 185.414 225.533 184.139 226.759 182.687C227.891 181.348 228.462 179.763 228.148 177.634C227.95 176.295 227.136 174.984 225.704 173.818C224.264 172.646 222.399 171.797 220.633 171.4C220.221 171.307 218.903 170.997 217.584 170.727C216.643 171.23 215.484 171.298 214.444 170.808C214.257 170.721 214.047 170.615 213.826 170.498C213.3 170.87 212.666 171.104 211.975 171.137C210.045 171.231 208.403 169.742 208.309 167.811C207.599 153.247 207.208 139.536 204.252 125.702C203.849 123.812 205.054 121.952 206.944 121.548ZM52.0141 14.0134C72.0229 2.29957 98.8452 -2.64745 123.194 1.38347C147.603 5.42448 169.997 18.6067 180.168 43.6012C188.573 64.2553 188.953 86.9906 178.845 107.224C169.417 126.097 151.354 137.995 132.211 143.9C96.865 154.802 55.641 143.845 33.8598 112.153C32.7651 110.56 33.1692 108.381 34.7622 107.286C36.3552 106.191 38.5345 106.595 39.6294 108.188C59.4364 137.008 97.3008 147.343 130.148 137.212C148.077 131.681 164.258 120.758 172.582 104.095C181.669 85.906 181.439 65.2962 173.684 46.2389C164.675 24.1005 144.777 12.0523 122.05 8.28972C99.2624 4.51723 74.1028 9.19306 55.5502 20.0544C36.654 31.117 27.0043 50.2368 24.2094 72.152C23.101 80.8441 23.0105 89.1848 25.3159 97.2634C28.329 107.822 33.1478 114.378 41.2944 121.855C42.718 123.162 42.8131 125.377 41.5063 126.8C40.1994 128.224 37.985 128.319 36.561 127.012C27.7334 118.91 22.041 111.296 18.5844 99.1843C15.9138 89.8259 16.0981 80.4248 17.2661 71.2663C20.249 47.8763 30.7231 26.4779 52.0141 14.0134ZM151.846 90.1091C153.721 89.6402 155.622 90.7806 156.091 92.6559C156.56 94.531 155.419 96.4313 153.544 96.9001C145.099 99.0114 137.232 102.411 128.79 105.828C126.998 106.553 124.957 105.688 124.232 103.897C123.507 102.106 124.371 100.065 126.163 99.3395C134.372 96.0165 142.804 92.3697 151.846 90.1091ZM97.1088 61.6755C97.9733 59.9466 100.076 59.2456 101.805 60.11C105.237 61.826 107.611 64.5104 109.426 67.2204C111.177 69.8348 112.655 72.8926 113.905 75.1833C114.83 76.88 114.205 79.0066 112.508 79.9323C110.811 80.8578 108.685 80.2323 107.759 78.5358C106.261 75.7898 105.126 73.3794 103.61 71.1149C102.158 68.9463 100.61 67.3395 98.6743 66.3718C96.9453 65.5073 96.2444 63.4044 97.1088 61.6755ZM154.264 51.735C154.49 49.8154 156.229 48.4428 158.149 48.6686C159.835 48.8672 160.978 49.8793 161.64 50.8659C162.252 51.778 162.562 52.8016 162.741 53.6413C163.103 55.3429 163.141 57.378 163.08 59.2126C162.955 62.9158 162.356 67.003 162.227 68.1667C162.014 70.0878 160.283 71.4719 158.362 71.2585C156.441 71.0449 155.057 69.3151 155.27 67.3942C155.44 65.8601 155.971 62.3213 156.083 58.9772C156.14 57.3026 156.076 55.9667 155.9 55.1208C154.78 54.4276 154.1 53.1294 154.264 51.735ZM117.388 48.1393C119.321 48.1393 120.888 49.7065 120.888 51.6393C120.888 53.5723 119.321 55.1393 117.388 55.1393C109.444 55.1393 102.069 55.6999 94.3032 57.1012C92.4011 57.4442 90.581 56.1801 90.2377 54.278C89.895 52.3761 91.159 50.5558 93.061 50.2126C101.296 48.7266 109.091 48.1393 117.388 48.1393ZM153.276 37.1266C154.884 36.0545 157.057 36.4892 158.129 38.0973C159.202 39.7057 158.767 41.8786 157.159 42.9509C153.633 45.3013 149.54 48.4689 145.231 50.7096C143.516 51.6012 141.403 50.9343 140.511 49.2194C139.619 47.5044 140.287 45.3915 142.002 44.4997C145.873 42.4872 149.135 39.8874 153.276 37.1266Z" fill="black"/>
</svg>
