<svg width="360" height="232" viewBox="0 0 360 232" fill="none" xmlns="http://www.w3.org/2000/svg">
<path d="M18.1894 166.752C21.2713 165.578 24.7437 165.711 27.7675 166.399C30.8234 167.095 33.8231 168.448 36.1142 170.179L36.4784 170.463C38.2567 171.893 39.3917 173.492 39.9394 175.474C40.437 177.274 40.3661 179.256 40.3661 180.776C40.3661 182.709 38.7991 184.276 36.8661 184.276C34.9333 184.276 33.3661 182.709 33.3661 180.776C33.3661 178.773 33.3723 177.989 33.1923 177.338C33.0987 176.999 32.9185 176.537 31.8944 175.764C30.4739 174.691 28.4052 173.724 26.2128 173.225C24.1271 172.75 22.2767 172.774 20.9413 173.202L20.6815 173.294C19.2719 173.831 18.3134 175.918 19.0429 177.742C20.4754 181.323 23.5837 183.1 28.2851 185.451C30.0138 186.316 30.7146 188.418 29.8505 190.146C29.6682 190.511 29.4295 190.829 29.1522 191.097C29.2406 191.302 29.3113 191.518 29.3603 191.745C29.7683 193.634 28.5678 195.497 26.6786 195.905C23.0361 196.692 19.2854 197.289 15.7538 198.519C12.2722 199.731 9.71071 201.344 8.28603 203.676C7.95965 204.21 7.67607 204.666 7.42861 205.138C7.33984 205.307 7.26854 205.457 7.20986 205.589C10.9069 207.167 16.0754 207.088 21.9823 206.022C28.1464 204.91 34.1517 202.936 39.0673 201.596C40.5135 201.201 41.9954 201.774 42.8251 202.921C44.1042 203.848 44.6334 205.56 44.0058 207.085C43.2698 208.872 41.2238 209.725 39.4364 208.989C39.3824 208.967 39.3413 208.956 39.2382 208.976C39.1001 209.001 38.8271 209.092 38.4267 209.364C37.5923 209.932 36.6095 211.014 35.704 212.505C34.8166 213.966 34.1421 215.592 33.7938 217.019C33.6207 217.728 33.5436 218.322 33.537 218.777C33.531 219.198 33.5859 219.386 33.5927 219.409C34.3833 221.307 35.6468 222.277 37.3446 222.763C39.2148 223.297 41.7081 223.248 44.6269 222.639C50.457 221.422 56.6811 218.256 59.9013 216.109C61.2434 215.215 62.9779 215.371 64.1386 216.381C64.9403 216.553 65.6853 217.005 66.2128 217.715C67.9982 220.118 69.0601 221.763 70.4335 222.928C71.4994 223.831 72.6137 224.307 74.5253 223.982C79.3107 223.17 83.0422 219.547 86.2479 214.738C87.3201 213.13 89.4932 212.696 91.1015 213.768C92.7097 214.84 93.1443 217.013 92.0722 218.621C88.5606 223.888 83.4098 229.574 75.6972 230.884C71.5528 231.587 68.3904 230.373 65.9061 228.267C64.2324 226.847 62.8023 224.931 61.6073 223.282C57.6518 225.589 51.8158 228.289 46.0565 229.491C42.5914 230.215 38.827 230.467 35.4198 229.493C31.8404 228.47 28.8058 226.119 27.1317 222.102C26.2288 219.934 26.4986 217.384 26.9931 215.358C27.2749 214.204 27.68 213.018 28.1815 211.856C26.5479 212.249 24.8837 212.612 23.2255 212.911C16.7318 214.083 9.35566 214.513 3.47451 211.572C2.11958 210.895 0.98801 209.834 0.403219 208.348C-0.152937 206.934 -0.043443 205.564 0.195211 204.541C0.634898 202.656 1.81237 200.845 2.31338 200.025C4.96991 195.678 9.33291 193.342 13.453 191.907C16.1216 190.978 18.9876 190.337 21.5321 189.814C18.0173 187.813 14.4305 185.061 12.5429 180.342C10.6197 175.533 12.5056 168.917 18.1894 166.752ZM182.685 62.6172C206.458 61.746 228.737 68.3025 244.781 87.1846C257.884 102.605 263.058 124.025 257.219 143.751C251.682 162.452 236.311 179.219 219.758 188.415C196.499 201.336 171.555 201.003 147.234 193.328C124.511 186.157 101.093 168.537 97.7284 142.813C97.7055 142.812 97.6821 142.812 97.6591 142.811C95.7325 142.656 94.2952 140.969 94.4491 139.042C98.1077 93.3109 139.52 64.1992 182.685 62.6172ZM239.447 91.7178C225.176 74.9229 205.247 68.7948 182.941 69.6123C144.414 71.0245 108.669 95.5743 102.224 133.239C103.455 133.781 104.315 135.012 104.315 136.444C104.316 161.103 125.994 179.285 149.342 186.652C172.381 193.922 195.227 194.035 216.358 182.296C231.625 173.814 245.585 158.389 250.507 141.765C255.635 124.444 251.115 105.449 239.447 91.7178ZM297.799 101.153C300.372 100.263 302.792 100.799 304.732 101.928C306.58 103.002 308.067 104.638 309.21 106.251C311.131 108.962 312.549 112.291 313.211 114.879C314.393 114.52 315.603 114.061 316.857 113.526C318.12 112.988 319.388 112.394 320.713 111.767C322.019 111.148 323.393 110.493 324.778 109.884C330.319 107.445 336.853 105.348 344.325 108.065C346.322 108.792 347.947 109.986 348.993 111.674C350.026 113.34 350.294 115.16 350.183 116.8C349.969 119.943 348.347 122.993 346.753 125.119C345.77 126.43 344.729 127.616 343.623 128.68C344.187 128.695 344.746 128.716 345.299 128.747C348.731 128.939 352.472 129.457 355.075 130.87C357.145 131.994 358.652 133.705 359.101 135.963C359.519 138.062 358.889 139.999 358.134 141.439C356.65 144.269 353.903 146.694 351.824 147.9C345.665 151.476 339.27 152.311 332.947 151.875C333.157 152.025 333.365 152.177 333.568 152.332C335.145 153.533 336.759 155.073 337.975 156.775C339.118 158.377 340.299 160.669 340.017 163.211C339.543 167.471 337.138 170.405 333.953 172.17C330.933 173.843 327.25 174.469 323.773 174.596C316.842 174.847 309.235 173.147 305.5 171.486C303.734 170.701 302.939 168.633 303.724 166.867C304.509 165.101 306.577 164.305 308.344 165.09C311.044 166.29 317.583 167.816 323.519 167.601C326.477 167.493 328.909 166.962 330.56 166.047C332.046 165.223 332.871 164.136 333.059 162.438C333.057 162.457 333.061 161.941 332.278 160.844C331.565 159.845 330.494 158.79 329.327 157.901C328.53 157.294 327.805 156.854 327.246 156.575C326.642 156.884 325.943 157.022 325.22 156.932C323.302 156.692 321.941 154.942 322.181 153.024L322.227 152.732C322.36 152.042 322.668 151.296 323.262 150.647C323.935 149.912 324.753 149.541 325.458 149.377C325.741 149.311 326.021 149.275 326.293 149.26C326.083 148.718 326.004 148.117 326.092 147.501C326.365 145.587 328.138 144.257 330.052 144.53C336.761 145.489 342.749 145.075 348.308 141.847C349.52 141.143 351.195 139.598 351.934 138.188C352.174 137.732 352.219 137.469 352.228 137.367C352.163 137.298 352.022 137.178 351.735 137.022C350.616 136.415 348.262 135.924 344.908 135.736C341.72 135.558 338.147 135.676 335.005 135.921C333.275 136.056 331.731 136.225 330.495 136.394C329.86 137.042 328.975 137.446 327.995 137.446C327.422 137.446 326.885 137.431 326.433 137.383C326.22 137.36 325.906 137.318 325.572 137.228C325.406 137.182 325.137 137.099 324.834 136.948C324.579 136.821 323.986 136.493 323.501 135.813C322.896 134.966 322.65 133.82 323.004 132.692C323.288 131.788 323.848 131.255 324.092 131.045C324.588 130.618 325.103 130.411 325.258 130.35C325.65 130.193 326.083 130.078 326.449 129.993C326.962 129.007 327.935 128.28 329.122 128.132C334.259 127.49 337.926 125.22 341.152 120.919C342.338 119.338 343.113 117.577 343.198 116.326C343.236 115.769 343.126 115.496 343.044 115.362C342.983 115.264 342.799 115.013 342.211 114.755L341.933 114.645C337.091 112.884 332.707 114.042 327.598 116.291C326.32 116.853 325.047 117.461 323.707 118.095C322.385 118.72 321.004 119.369 319.6 119.967C316.799 121.16 313.734 122.228 310.431 122.595C308.509 122.808 306.779 121.424 306.565 119.503C306.505 118.958 306.573 118.428 306.745 117.944C306.678 117.754 306.626 117.556 306.592 117.351C306.325 115.754 305.183 112.676 303.499 110.299C302.666 109.123 301.867 108.36 301.213 107.979C300.651 107.653 300.352 107.677 300.088 107.769C300.064 107.784 299.599 108.039 298.81 109.093C298.06 110.097 297.284 111.463 296.565 113.016C295.091 116.2 294.152 119.5 294.017 120.995C293.841 122.92 292.139 124.339 290.215 124.164C288.29 123.989 286.871 122.286 287.046 120.361C287.283 117.751 288.567 113.628 290.214 110.073C291.055 108.256 292.065 106.424 293.205 104.9C294.264 103.485 295.788 101.849 297.799 101.153ZM192.815 158.305C197.446 157.764 202.337 158.93 206.147 162.74C207.514 164.107 207.514 166.323 206.147 167.689C204.781 169.056 202.564 169.056 201.197 167.689C199.152 165.645 196.513 164.92 193.628 165.257C190.672 165.602 187.58 167.072 185.155 169.255C183.718 170.548 181.505 170.432 180.212 168.995C178.919 167.558 179.035 165.345 180.472 164.052C183.846 161.015 188.256 158.838 192.815 158.305ZM174.61 124.324C176.536 124.164 178.229 125.595 178.39 127.521C178.55 129.448 177.118 131.14 175.192 131.301C169.305 131.791 163.555 132.032 157.639 132.032C155.706 132.032 154.139 130.465 154.139 128.532C154.139 126.599 155.706 125.032 157.639 125.032C163.36 125.032 168.916 124.799 174.61 124.324ZM226.975 118.586C228.892 118.346 230.642 119.706 230.882 121.624C231.121 123.542 229.761 125.291 227.843 125.531C225.56 125.817 223.209 126.555 220.432 127.382C217.809 128.162 214.775 129.03 211.725 129.152C209.793 129.229 208.165 127.726 208.088 125.795C208.011 123.863 209.514 122.235 211.445 122.158C213.501 122.076 215.741 121.474 218.434 120.673C220.973 119.917 223.98 118.96 226.975 118.586ZM176.418 10.3887C178.342 10.2054 180.051 11.6167 180.234 13.541C180.862 20.1369 181.406 27.0822 180.601 34.0957L180.563 34.4746C180.471 35.4183 180.271 37.4671 179.777 39.2832C179.49 40.3397 179.014 41.6868 178.152 42.8145C177.208 44.0496 175.576 45.2545 173.305 45.0654C171.758 44.9365 170.413 44.2935 169.375 43.6309C168.313 42.9535 167.348 42.1107 166.521 41.2988C165.478 40.2737 164.484 39.1163 163.711 38.1904C163.628 38.7693 163.542 39.3482 163.452 39.9131C163.097 42.1492 162.631 44.5647 161.943 46.4258C161.611 47.3244 161.112 48.427 160.308 49.3135C159.407 50.3056 157.806 51.3069 155.747 50.8389C152.957 50.2046 150.885 48.0865 149.558 46.4844C148.574 45.2975 147.602 43.8689 146.889 42.8203C146.624 42.4318 146.395 42.0954 146.214 41.8428C144.904 40.0132 143.628 38.2393 142.296 36.5781C142.169 36.4204 141.995 36.1977 141.848 36.0088C141.759 35.8953 141.68 35.794 141.627 35.7266C141.428 35.4751 141.269 35.2839 141.123 35.127C140.831 34.8138 140.699 34.7557 140.681 34.748C138.89 34.0188 138.03 31.9766 138.76 30.1865C139.489 28.3964 141.531 27.5363 143.321 28.2656C144.634 28.8004 145.578 29.6388 146.246 30.3564C146.476 30.6034 146.71 30.88 146.928 31.1475L147.51 31.8838C147.606 32.0082 147.691 32.1158 147.757 32.1982C149.226 34.0304 150.608 35.9546 151.906 37.7676C152.086 38.0182 152.258 38.2657 152.427 38.5107L152.923 39.2393H152.924C153.562 40.1791 154.181 41.0927 154.948 42.0186C155.229 42.3574 155.488 42.643 155.725 42.8828C156.016 41.7966 156.286 40.407 156.539 38.8145C156.652 38.1054 156.755 37.397 156.853 36.6943L157.138 34.6074V34.6055C157.238 33.8529 157.338 33.1121 157.44 32.3896C157.579 31.4097 157.726 30.4625 157.887 29.6562C158.026 28.959 158.243 27.9909 158.637 27.2041C158.931 26.6147 159.641 25.6485 161 25.3252C162.243 25.0295 163.21 25.4794 163.602 25.7031C164.302 26.1021 164.716 26.6598 164.812 26.7891L164.821 26.8008C165.119 27.1978 165.366 27.6556 165.507 27.9248C165.674 28.2444 165.828 28.5658 165.935 28.7959C166.05 29.0393 166.076 29.0957 166.068 29.083C166.293 29.5019 166.483 29.8678 166.651 30.1934V30.1943L166.652 30.1953C167.158 31.1706 167.478 31.7875 168.006 32.4082C168.252 32.6971 168.503 33.0008 168.763 33.3135C169.563 34.2789 170.435 35.3313 171.427 36.3057C171.993 36.8615 172.513 37.3036 172.974 37.6191C172.99 37.5633 173.007 37.5053 173.023 37.4453C173.263 36.5653 173.396 35.6242 173.491 34.7803L173.576 33.9746V33.9727C173.601 33.7311 173.624 33.5042 173.647 33.2979C174.36 27.0881 173.893 20.7971 173.266 14.2051C173.082 12.2808 174.494 10.572 176.418 10.3887ZM206.465 8.61426C208.366 8.26861 210.188 9.5299 210.534 11.4316C210.88 13.3334 209.618 15.1552 207.717 15.501C207.093 15.6144 206.468 15.7285 205.841 15.8428H205.84C203.904 16.1957 201.953 16.552 199.996 16.8994C200.897 19.4446 201.311 22.0619 201.608 24.1396L201.654 24.457L201.86 25.9102C202.334 29.3305 202.726 32.9562 202.268 36.8428C202.043 38.7624 200.303 40.1357 198.384 39.9102C196.464 39.6843 195.091 37.945 195.316 36.0254C195.729 32.5157 195.262 29.2151 194.679 25.1299C194.296 22.4496 193.828 20.0067 192.94 18.0947L192.858 18.1074C191.53 18.3182 190.333 18.5803 189.039 18.8633L187.267 19.2441C186.582 19.5023 185.857 19.6132 185.455 19.6436C185.377 19.6494 185.261 19.6563 185.126 19.6562H185.118C185.043 19.6564 184.686 19.6564 184.264 19.5537L184.252 19.5518C184.107 19.5173 183.322 19.3294 182.624 18.6406C182.177 18.1998 181.691 17.4724 181.597 16.4775C181.505 15.5149 181.825 14.7607 182.097 14.3174C182.543 13.5882 183.138 13.2273 183.261 13.1533L183.27 13.1475C183.479 13.0203 183.659 12.941 183.748 12.9033C184.184 12.7199 184.699 12.6199 184.924 12.5762L184.951 12.5703C185.636 12.436 186.405 12.27 187.214 12.0947L188.338 11.8516C189.479 11.6083 190.657 11.3696 191.761 11.1943C196.019 10.5184 200.289 9.74013 204.579 8.95801C205.207 8.8435 205.836 8.72862 206.465 8.61426ZM239.766 0C241.698 0.000198138 243.266 1.56713 243.266 3.5C243.266 5.43287 241.698 6.9998 239.766 7C234.609 7 229.369 7.90446 224.5 9.63574C223.204 10.0964 222.951 10.3964 222.896 10.4658C222.832 10.5481 222.608 10.8712 222.434 12.2383C222.226 13.8801 222.048 16.3215 221.892 19.0391C223.153 18.8709 224.493 18.5771 226.018 18.2363L226.152 18.207C228.382 17.7087 231.036 17.1152 233.801 17.1152C235.734 17.1152 237.301 18.6822 237.301 20.6152C237.301 22.5482 235.734 24.1152 233.801 24.1152C231.881 24.1152 229.93 24.5353 227.544 25.0684L227.378 25.1055C225.636 25.4949 223.637 25.9416 221.537 26.1152C221.515 26.5889 221.494 27.0584 221.473 27.5205L221.438 28.2773L221.412 28.8672C221.285 31.6448 221.166 34.1101 221.041 35.3994C221.012 35.701 220.968 36.0904 220.896 36.4326L220.894 36.4414C220.878 36.5256 220.77 37.0754 220.445 37.627L220.439 37.6377C220.341 37.8073 219.562 39.1498 217.804 39.3506C215.702 39.5905 214.623 38.0251 214.471 37.7959C214.192 37.3767 214.067 36.9911 214.027 36.8662C213.971 36.689 213.935 36.5336 213.914 36.4307C213.871 36.2227 213.842 36.0177 213.822 35.8525C213.78 35.5111 213.745 35.0833 213.712 34.5918C213.662 33.8367 213.855 33.1218 214.225 32.5234C214.285 31.4327 214.349 30.0793 214.419 28.5479L214.484 27.1016C214.727 21.727 215.034 14.9498 215.489 11.3584C215.713 9.59047 216.143 7.72603 217.397 6.13379C218.662 4.52896 220.393 3.66643 222.154 3.04004C227.775 1.04151 233.809 0 239.766 0ZM276.301 30.2139C278.233 30.2141 279.801 31.781 279.801 33.7139C279.801 35.6467 278.233 37.2136 276.301 37.2139H275.988C274.055 37.2139 272.488 35.6469 272.488 33.7139C272.488 31.7809 274.055 30.2139 275.988 30.2139H276.301ZM239.817 30.7031C240.977 29.1568 243.171 28.8433 244.718 30.0029L245.755 30.7812C247.301 31.941 247.615 34.1352 246.455 35.6816C245.295 37.2279 243.101 37.5406 241.555 36.3809L240.517 35.6035C238.971 34.4437 238.657 32.2495 239.817 30.7031ZM258.158 31.2383C259.023 29.5094 261.125 28.8084 262.854 29.6729L263.373 29.9326C265.102 30.7972 265.803 32.8992 264.938 34.6279C264.074 36.3569 261.971 37.0578 260.242 36.1934L259.724 35.9336C257.995 35.0691 257.294 32.9671 258.158 31.2383Z" fill="black"/>
</svg>
