<svg width="268" height="271" viewBox="0 0 268 271" fill="none" xmlns="http://www.w3.org/2000/svg">
<path d="M29.352 108.694C31.2103 108.163 33.1479 109.239 33.6791 111.097C34.2101 112.956 33.1332 114.893 31.2748 115.424C25.3961 117.104 20.0534 122.672 15.8041 130.095C11.6197 137.406 8.89898 145.825 7.92033 152.023C6.90401 158.46 6.58868 165.921 7.75529 172.877C8.9247 179.85 11.5282 186.023 16.0854 190.298C25.9585 199.561 40.2059 203.752 54.101 206.531C54.1781 206.546 54.2537 206.565 54.3285 206.585C54.7516 205.901 55.4119 205.357 56.2387 205.092C59.6229 204.01 64.4598 203.539 68.9145 204.368C73.3168 205.186 78.2955 207.5 80.2065 212.85C80.7081 214.255 80.8459 215.715 80.519 217.151C80.1952 218.573 79.4695 219.737 78.6117 220.654C76.9789 222.399 74.6624 223.473 72.6235 224.173C70.8715 224.775 68.9934 225.205 67.2631 225.514C68.4923 234.368 69.6189 243.297 70.184 252.337C70.296 254.13 70.6332 257.131 70.4057 259.893C70.1737 262.709 69.3125 266.16 66.3617 268.557C64.5752 270.009 62.4373 270.363 60.392 269.737C58.602 269.188 57.1108 267.966 55.9399 266.745C53.5668 264.269 51.3266 260.527 49.3969 256.807C47.4286 253.013 45.627 248.927 44.1957 245.559C42.7026 242.045 41.7182 239.581 41.2299 238.604C40.3658 236.875 41.0667 234.772 42.7953 233.908C44.5241 233.043 46.627 233.745 47.4916 235.473C48.1079 236.706 49.2891 239.646 50.6381 242.821C52.0491 246.141 53.7678 250.031 55.6108 253.584C57.492 257.21 59.3552 260.191 60.9936 261.9C61.5344 262.464 61.9325 262.762 62.1781 262.912C62.8306 262.248 63.2783 261.149 63.4291 259.319C63.6015 257.226 63.343 255.099 63.1977 252.774C62.6403 243.857 61.5159 235.004 60.269 226.047C58.982 225.61 58.0136 224.441 57.9028 223.001C57.7549 221.073 59.1973 219.391 61.1244 219.243C62.9645 219.101 67.0813 218.674 70.35 217.552C72.0284 216.976 73.0418 216.361 73.4994 215.872C73.595 215.769 73.6447 215.695 73.6684 215.653C73.6901 215.614 73.6937 215.597 73.6938 215.596C73.6941 215.594 73.6943 215.589 73.6947 215.583C73.6953 215.574 73.6967 215.558 73.6947 215.533C73.6907 215.482 73.6745 215.375 73.6137 215.205C72.9225 213.27 70.9548 211.867 67.6342 211.25C64.3661 210.642 60.7013 211.014 58.3715 211.759C57.704 211.973 57.0194 211.975 56.3901 211.804C55.6431 213.012 54.2018 213.69 52.7279 213.395C38.704 210.59 22.717 206.118 11.2963 195.404C5.24103 189.723 2.17253 181.91 0.851972 174.036C-0.4712 166.146 -0.0945852 157.897 1.00529 150.931C2.11344 143.913 5.11265 134.683 9.72892 126.618C14.2804 118.666 20.8198 111.132 29.352 108.694ZM229.737 98.2544C230.775 97.9071 231.799 97.9757 232.435 98.0552C233.803 98.2263 235.355 98.7337 236.644 99.2183C239.317 100.223 242.008 101.576 242.331 101.735L242.925 102.033C255.296 108.375 261.919 120.216 266.085 132.27C269.633 142.534 267.029 153.302 263.925 162.195C257.8 179.746 243.189 186.252 229.313 193.776C228.39 195.437 226.305 196.063 224.618 195.169C222.364 193.976 219.316 193.897 216.171 194.962C213.032 196.027 210.28 198.081 208.747 200.425C207.504 202.328 207.658 203.303 207.79 203.691C207.966 204.204 208.543 204.955 209.995 205.67C212.338 206.825 215.659 207.231 218.331 206.908C218.897 205.735 220.097 204.926 221.486 204.926C223.419 204.926 224.986 206.493 224.986 208.426C224.986 214.317 225.218 220.52 226.475 226.274C227.728 232.013 229.953 237.074 233.763 240.884C234.182 241.303 234.509 241.575 234.751 241.751C234.77 241.712 234.793 241.672 234.813 241.627C235.224 240.712 235.563 239.354 235.832 237.736C236.096 236.152 236.252 234.582 236.401 233.246C236.615 231.325 238.345 229.941 240.266 230.154C242.187 230.367 243.571 232.098 243.358 234.019C243.221 235.253 243.04 237.063 242.738 238.883C242.441 240.669 241.986 242.741 241.2 244.494C240.486 246.084 239.002 248.499 236.089 248.982C233.236 249.455 230.748 247.77 228.813 245.834C223.741 240.762 221.063 234.301 219.636 227.767C218.635 223.183 218.226 218.45 218.072 213.958C214.303 214.219 210.144 213.547 206.901 211.95C204.539 210.786 202.17 208.881 201.168 205.961C200.124 202.916 200.871 199.68 202.888 196.594C205.399 192.754 209.526 189.823 213.924 188.333C217.531 187.11 221.646 186.755 225.454 187.963C225.607 187.843 225.772 187.733 225.949 187.637C240.623 179.678 252.259 174.377 257.316 159.888C260.337 151.231 262.194 142.436 259.47 134.556C255.466 122.974 249.538 113.074 239.246 108.018C238.866 107.831 236.482 106.635 234.182 105.771C233.374 105.467 232.697 105.252 232.186 105.125C231.529 105.532 230.735 105.728 229.909 105.625C227.991 105.385 226.63 103.635 226.87 101.717L226.917 101.421C227.053 100.732 227.365 100.041 227.897 99.4488C228.481 98.7984 229.168 98.4446 229.737 98.2544ZM112.76 1.38332C137.109 -2.64755 163.931 2.30035 183.94 14.0142C205.231 26.4788 215.705 47.8772 218.688 71.2671C219.856 80.4254 220.04 89.8259 217.37 99.1841C213.913 111.296 208.221 118.91 199.393 127.012C197.969 128.319 195.755 128.224 194.448 126.8C193.141 125.376 193.236 123.162 194.66 121.855C202.806 114.377 207.625 107.822 210.638 97.2632C212.943 89.1846 212.853 80.844 211.745 72.1519C208.95 50.2368 199.3 31.1178 180.404 20.0552C161.851 9.19391 136.692 4.51715 113.904 8.28957C91.1763 12.0521 71.2781 24.1009 62.269 46.2398C54.5139 65.2972 54.2845 85.9068 63.3715 104.096C71.6957 120.759 87.8768 131.681 105.806 137.211C138.653 147.343 176.518 137.008 196.325 108.189C197.419 106.596 199.599 106.192 201.192 107.287C202.784 108.381 203.189 110.56 202.094 112.153C180.313 143.845 139.089 154.803 103.743 143.901C84.5994 137.996 66.5372 126.097 57.1088 107.224C47.0006 86.9902 47.3807 64.2552 55.7856 43.6011C65.9568 18.6065 88.3511 5.42427 112.76 1.38332ZM150.5 92.4888C152.383 92.0496 154.265 93.2197 154.705 95.1021C155.143 96.9843 153.973 98.866 152.091 99.3052C142.727 101.49 133.304 103.293 123.585 104.168C121.66 104.341 119.959 102.921 119.786 100.996C119.612 99.0704 121.033 97.3691 122.958 97.1958C132.232 96.3612 141.308 94.6337 150.5 92.4888ZM104.356 51.5786C106.182 50.9466 108.176 51.9152 108.808 53.7417C109.853 56.7612 110.371 59.76 110.807 62.5122C111.255 65.343 111.61 67.8601 112.294 70.3697C112.803 72.2343 111.704 74.1588 109.839 74.6675C107.975 75.1761 106.05 74.0761 105.541 72.2114C104.731 69.2398 104.312 66.2564 103.893 63.607C103.461 60.8789 103.018 58.4155 102.193 56.0308C101.561 54.2042 102.529 52.2109 104.356 51.5786ZM140.763 43.3902C142.205 42.1028 144.417 42.2278 145.705 43.6695C148.505 46.8063 149.701 50.6243 150.237 54.2193C150.766 57.7698 150.696 61.4779 150.696 64.4556C150.695 66.3881 149.128 67.9552 147.196 67.9556C145.263 67.9556 143.696 66.3884 143.696 64.4556C143.696 61.2491 143.748 58.1636 143.314 55.2505C142.886 52.3821 142.031 50.0642 140.484 48.3316C139.196 46.8897 139.321 44.6776 140.763 43.3902Z" fill="black"/>
</svg>
