<svg width="230" height="256" viewBox="0 0 230 256" fill="none" xmlns="http://www.w3.org/2000/svg">
<path d="M3.77343 167.006C5.70359 166.904 7.35043 168.386 7.45214 170.316C8.14578 183.496 10.2401 196.021 13.541 208.858C14.0224 210.73 12.8945 212.639 11.0224 213.12C10.1255 213.351 9.22026 213.212 8.46776 212.799C6.26839 218.157 6.86321 223.028 8.16015 229.837C8.49166 231.577 9.32099 234.815 10.6543 237.37C11.3255 238.656 11.9924 239.511 12.5654 239.966C13.0376 240.34 13.2968 240.351 13.5664 240.295C14.5603 240.088 15.6438 239.176 16.8105 236.827C17.3578 235.726 17.8312 234.493 18.2891 233.201C18.4229 232.823 18.5622 232.422 18.7031 232.014V232.012C19.0091 231.125 19.3252 230.21 19.624 229.446V229.445C19.6259 229.44 19.639 229.405 19.6631 229.329C19.689 229.248 19.7208 229.142 19.7578 229.012C19.8325 228.748 19.9156 228.43 20.0088 228.067L20.0566 227.881L20.1123 227.666C20.2662 227.062 20.442 226.374 20.6045 225.818C20.701 225.488 20.8297 225.072 20.9863 224.699C21.0561 224.533 21.2013 224.203 21.4365 223.86C21.5521 223.692 21.7843 223.38 22.1533 223.077C22.5082 222.786 23.2763 222.273 24.3877 222.264C25.6091 222.253 26.4975 222.849 26.9932 223.369C27.4342 223.832 27.6482 224.306 27.7412 224.536C27.932 225.009 27.9963 225.447 28.0234 225.651C28.0873 226.132 28.1045 226.702 28.1045 227.28C28.1045 233.129 28.5248 237.783 31.2803 241.997C32.165 243.35 33.811 245.73 35.6182 247.374C36.5337 248.207 37.2404 248.615 37.6826 248.75C37.9021 248.817 37.9199 248.798 37.9443 248.77C37.9478 248.766 37.9518 248.761 37.956 248.757C37.9584 248.755 37.9609 248.752 37.9639 248.75C39.7319 247.437 41.0874 245.008 42.1709 241.659C42.9264 239.324 43.4296 236.98 43.9238 234.677C44.1434 233.654 44.3611 232.638 44.5986 231.636C45.6578 227.164 45.15 222.603 44.5771 217.46L44.5254 216.999C44.3119 215.078 45.697 213.347 47.6182 213.134C49.0327 212.977 50.3442 213.686 51.0224 214.838C52.0164 213.834 53.5643 213.495 54.9316 214.103C58.6002 215.733 63.7306 216.353 67.9824 215.356C72.1159 214.387 74.7953 212.124 75.3594 208.302C75.3827 208.144 75.3142 207.315 74.1807 205.868C73.1414 204.542 71.5802 203.196 69.875 202.178C68.1215 201.13 66.5732 200.639 65.5879 200.603C65.2832 200.591 65.1161 200.626 65.0449 200.647C65.0381 200.662 65.0287 200.681 65.0185 200.706C64.3006 202.501 62.2635 203.374 60.4687 202.656C58.6742 201.938 57.8017 199.901 58.5195 198.106C59.1441 196.545 60.2119 195.304 61.6435 194.52C63.0194 193.767 64.5052 193.558 65.8467 193.607C68.4609 193.704 71.1808 194.803 73.4658 196.168C75.7992 197.562 78.0477 199.453 79.6914 201.551C81.2407 203.528 82.7283 206.313 82.2842 209.323C81.1701 216.874 75.5199 220.778 69.5801 222.171C63.7585 223.536 57.0721 222.714 52.0889 220.499C52.0359 220.475 51.9838 220.451 51.9326 220.425C52.3063 224.437 52.4551 228.837 51.4101 233.249C51.2364 233.983 51.0539 234.832 50.8555 235.755C50.3335 238.183 49.7017 241.123 48.831 243.814C47.6215 247.553 45.7012 251.723 42.1387 254.369C40.0364 255.931 37.69 256.069 35.6435 255.446C33.7697 254.876 32.1559 253.687 30.9082 252.553C28.3891 250.262 26.3335 247.222 25.4219 245.828C24.2737 244.072 23.4282 242.28 22.8066 240.475C21.3709 243.191 19.013 246.31 14.9941 247.147C12.3032 247.708 9.97704 246.847 8.21483 245.449C6.55331 244.131 5.33633 242.311 4.44823 240.609C2.66292 237.188 1.67314 233.194 1.28319 231.146C-0.161664 223.561 -1.2159 216.38 2.89159 208.165C3.4504 207.047 4.52645 206.359 5.68456 206.246C2.89997 194.512 1.10387 182.882 0.461903 170.685C0.360307 168.754 1.8431 167.107 3.77343 167.006ZM200.944 111.078C202.834 110.674 204.694 111.88 205.098 113.77C207.889 126.833 208.494 139.785 209.097 152.687L209.104 152.857C209.135 152.857 209.161 152.857 209.184 152.856C209.455 152.855 209.718 152.874 209.939 152.895C210.387 152.936 210.885 153.01 211.36 153.091C213 153.37 215.136 153.863 215.921 154.044C216.033 154.07 216.118 154.09 216.17 154.102C218.876 154.71 221.756 155.993 224.123 157.92C226.497 159.852 228.552 162.608 229.073 166.144C229.695 170.36 228.468 173.94 226.107 176.734C223.842 179.417 220.654 181.246 217.425 182.479C211.008 184.93 203.254 185.468 198.391 184.72C198.302 184.706 198.214 184.689 198.128 184.669C198.212 187.707 198.311 191.637 197.966 195.266C197.497 200.196 196.111 206.295 191.3 209.503C188.358 211.464 185.286 210.651 183.328 209.738C181.782 209.018 180.252 207.907 179.274 207.198C179.06 207.043 178.872 206.907 178.717 206.799C173.553 203.194 171.387 197.414 170.849 192.031C170.656 190.108 172.06 188.393 173.983 188.2C175.907 188.008 177.622 189.412 177.814 191.335C178.233 195.519 179.818 199.03 182.724 201.059C183.059 201.293 183.374 201.519 183.674 201.735L183.675 201.736C184.613 202.411 185.412 202.986 186.286 203.394C186.804 203.635 187.124 203.699 187.284 203.707C187.37 203.711 187.38 203.703 187.407 203.685L187.416 203.679C189.327 202.405 190.544 199.374 190.998 194.603C191.307 191.355 191.215 188.114 191.133 185.171L191.085 183.319C191.072 182.717 191.063 182.132 191.063 181.566C191.063 179.634 192.631 178.067 194.563 178.066C195.302 178.066 195.987 178.295 196.552 178.686C197.308 177.991 198.361 177.632 199.455 177.801C203.145 178.368 209.67 177.948 214.927 175.94C217.534 174.945 219.533 173.669 220.76 172.218C221.891 170.878 222.463 169.294 222.148 167.165C221.951 165.826 221.137 164.515 219.704 163.349C218.265 162.177 216.4 161.328 214.634 160.931C214.579 160.918 214.507 160.902 214.421 160.882L214.292 160.853L213.115 160.585C212.645 160.48 212.116 160.366 211.587 160.258C210.645 160.761 209.485 160.828 208.444 160.339C208.258 160.251 208.044 160.148 207.823 160.031C207.298 160.403 206.665 160.634 205.976 160.668C204.045 160.762 202.403 159.273 202.309 157.343C202.238 155.904 202.172 154.474 202.105 153.051C201.497 140.068 200.917 127.7 198.253 115.232C197.849 113.342 199.054 111.482 200.944 111.078ZM95.7471 0.576163C119.52 -0.295035 141.798 6.26173 157.843 25.1435C170.945 40.5634 176.12 61.9845 170.28 81.71C164.744 100.411 149.373 117.177 132.819 126.374C109.561 139.295 84.6171 138.962 60.2959 131.287C37.5724 124.116 14.154 106.496 10.79 80.7725C10.7671 80.7711 10.7437 80.7714 10.7207 80.7695C8.79397 80.6153 7.35659 78.9277 7.51073 77.001C11.1696 31.2701 52.582 2.15814 95.7471 0.576163ZM152.509 29.6767C138.238 12.8821 118.309 6.7538 96.0029 7.57128C57.4756 8.9834 21.7306 33.5335 15.2851 71.1982C16.5168 71.7401 17.3767 72.9715 17.3769 74.4033C17.377 99.0619 39.0554 117.244 62.4033 124.611C85.4425 131.881 108.289 131.994 129.42 120.255C144.687 111.773 158.647 96.3479 163.568 79.7236C168.696 62.403 164.176 43.4083 152.509 29.6767ZM133.164 89.0703C135.039 88.6015 136.94 89.7419 137.409 91.6172C137.878 93.4923 136.737 95.3925 134.862 95.8613C126.417 97.9726 118.55 101.372 110.107 104.789C108.316 105.514 106.275 104.65 105.55 102.858C104.825 101.067 105.689 99.0262 107.48 98.3008C115.69 94.9777 124.122 91.3309 133.164 89.0703ZM78.4267 60.6367C79.2913 58.9081 81.3942 58.2069 83.123 59.0713C86.5548 60.7873 88.9293 63.4716 90.7441 66.1816C92.495 68.7961 93.9731 71.8538 95.2226 74.1445C96.1481 75.8413 95.5226 77.9677 93.8262 78.8935C92.1293 79.8191 90.0029 79.1938 89.0771 77.4971C87.5792 74.7509 86.4442 72.3407 84.9277 70.0762C83.4754 67.9075 81.9275 66.3008 79.9922 65.333C78.2633 64.4685 77.5623 62.3656 78.4267 60.6367ZM135.582 50.6963C135.808 48.7769 137.547 47.404 139.467 47.6299C141.153 47.8284 142.296 48.8407 142.958 49.8271C143.57 50.7392 143.88 51.7628 144.059 52.6025C144.421 54.304 144.459 56.3393 144.397 58.1738C144.273 61.8766 143.674 65.9637 143.545 67.1279C143.331 69.049 141.601 70.4331 139.68 70.2197C137.759 70.0062 136.375 68.2764 136.588 66.3555C136.758 64.8212 137.289 61.2823 137.401 57.9385C137.458 56.264 137.394 54.9279 137.218 54.082C136.098 53.3888 135.418 52.0907 135.582 50.6963ZM98.706 47.1016C100.639 47.1016 102.206 48.6686 102.206 50.6016C102.206 52.5345 100.639 54.1016 98.706 54.1016C90.7614 54.1016 83.387 54.6621 75.6211 56.0635C73.719 56.4064 71.8989 55.1423 71.5557 53.2402C71.2126 51.3381 72.4768 49.5181 74.3789 49.1748C82.6138 47.6888 90.4092 47.1016 98.706 47.1016ZM134.594 36.0879C136.202 35.0159 138.375 35.4507 139.447 37.0586C140.519 38.6669 140.085 40.8398 138.477 41.9121C134.951 44.2625 130.858 47.4302 126.549 49.6709C124.834 50.5625 122.721 49.8955 121.829 48.1807C120.938 46.4657 121.605 44.3527 123.32 43.4609C127.19 41.4484 130.453 38.8486 134.594 36.0879Z" fill="black"/>
</svg>
