<svg width="267" height="292" viewBox="0 0 267 292" fill="none" xmlns="http://www.w3.org/2000/svg">
<path d="M54.3154 113.405C71.5484 146.923 110.428 162.915 146.519 156.647C166.139 153.24 185.06 143.851 196.413 126.915C208.689 108.602 211.202 86.4937 205.561 65.2222C192.169 14.7283 126.005 2.81974 83.7973 20.7845C61.8037 30.1457 48.9187 49.4642 43.0261 72.1548C40.7043 81.0952 39.4091 90.1101 40.8069 99.3123C42.6243 111.276 47.0525 119.175 54.6801 128.213" stroke="#3D7863" stroke-width="7.1861" stroke-linecap="round"/>
<path d="M125.085 73.8884C130.201 77.3204 131.955 83.6488 134.097 89.1357" stroke="#3D7863" stroke-width="7.1861" stroke-linecap="round"/>
<path d="M185.082 70.0793C188.359 70.8964 184.729 83.4247 184.073 86.1327" stroke="#3D7863" stroke-width="7.1861" stroke-linecap="round"/>
<path d="M119.656 63.2756C127.991 62.8477 135.79 63.2515 144.059 64.3093" stroke="#3D7863" stroke-width="7.1861" stroke-linecap="round"/>
<path d="M171.292 63.617C175.734 61.9842 179.855 59.5271 184.091 57.4241" stroke="#3D7863" stroke-width="7.1861" stroke-linecap="round"/>
<path d="M147.695 117.498C156.612 115.151 165.37 112.625 174.558 111.539" stroke="#3D7863" stroke-width="7.1861" stroke-linecap="round"/>
<path d="M67.1114 215.834C70.7819 209.237 85.0285 221.302 83.2509 227.633C80.0605 238.996 64.6796 238.022 56.3705 232.98" stroke="#3D7863" stroke-width="7.1861" stroke-linecap="round"/>
<path d="M50.8535 231.561C50.7648 236.907 50.7636 242.438 48.7914 247.68C46.5914 253.529 44.1466 262.774 38.2026 266.112C33.4103 268.803 28.7561 259.832 27.2848 256.801C24.5339 251.133 24.8638 245.411 25.6359 239.376C26.2053 234.924 24.2253 241.211 23.4355 242.656C21.2142 246.72 18.5003 254.341 12.9818 254.773C6.79115 255.258 5.21272 244.007 4.97147 240.056C4.49298 232.22 4.4627 225.848 8.99983 219.084" stroke="#3D7863" stroke-width="7.1861" stroke-linecap="round"/>
<path d="M13.2048 219.622C11.4903 205.917 10.9771 192.648 12.0077 178.868" stroke="#3D7863" stroke-width="7.1861" stroke-linecap="round"/>
<path d="M226.444 150.742C227.682 165.573 226.255 179.927 225.091 194.731" stroke="#3D7863" stroke-width="7.1861" stroke-linecap="round"/>
<path d="M229.296 195.269C225.389 192.781 233.857 195.982 234.818 196.332C239.241 197.939 243.926 201.908 244.023 206.967C244.277 220.135 223.482 220.817 214.944 218.363" stroke="#3D7863" stroke-width="7.1861" stroke-linecap="round"/>
<path d="M210.466 218.107C209.586 224.993 209.335 239.223 201.905 242.911C198.736 244.485 195.543 240.967 193.457 239.075C189.715 235.681 188.41 230.706 188.546 225.773" stroke="#3D7863" stroke-width="7.1861" stroke-linecap="round"/>
</svg>
