<svg width="380" height="203" viewBox="0 0 380 203" fill="none" xmlns="http://www.w3.org/2000/svg">
<path d="M171.77 33.7146C151.562 39.7331 133.403 50.1419 123.235 69.3465C113.925 86.9298 115.712 109.062 123.995 126.471C145.631 171.944 207.359 185.228 249.88 162.902C270.652 151.995 285.744 135.341 290.922 111.956C295.726 90.257 287.204 65.5656 271.643 49.9712C262.958 41.2684 253.412 33.803 241.621 29.9163C226.659 24.984 210.534 24.0915 194.905 25.3638C182.651 26.3614 169.776 29.5513 158.475 34.3866C147.064 39.2692 138.16 45.3169 128.712 53.1209" stroke="#064A2A" stroke-width="7.1861" stroke-linecap="round"/>
<path d="M258.277 156.358C259.79 156.219 262.426 153.711 263.596 152.942C271.674 147.633 280.266 142.996 288.498 137.918C315.103 121.504 340.985 103.945 367.589 87.5136" stroke="#064A2A" stroke-width="7.1861" stroke-linecap="round"/>
<path d="M154.591 80.5431C156.236 81.7537 155.834 87.2574 156.004 88.9984C156.365 92.6799 157.421 96.249 158.025 99.8956" stroke="#064A2A" stroke-width="7.1861" stroke-linecap="round"/>
<path d="M205.568 79.3812C207.419 85.4573 207.02 92.229 207.258 98.5104" stroke="#064A2A" stroke-width="7.1861" stroke-linecap="round"/>
<path d="M180.058 129.653C174.796 131.916 166.542 139.379 175.205 142.898C184.164 146.537 195.32 145.285 204.382 142.817C208.676 141.647 217.641 135.776 210.613 131.845C202.419 127.261 191.283 127.299 182.411 129.045" stroke="#064A2A" stroke-width="7.1861" stroke-linecap="round"/>
<path d="M366.824 89.3716C367.998 88.2049 366.351 83.4763 366.645 81.5339C367.243 77.5721 370.148 74.2258 373.201 71.8654C380.073 66.5521 388.309 73.8911 387.353 81.3593" stroke="#064A2A" stroke-width="7.1861" stroke-linecap="round"/>
<path d="M401.898 106.27C409.557 103.795 418.165 114.167 414.419 121.072C409.195 130.7 391.812 126.977 383.593 124.615" stroke="#064A2A" stroke-width="7.1861" stroke-linecap="round"/>
<path d="M167.795 166.75C167.474 165.12 163.341 164.447 162.171 163.995C156.562 161.826 151.104 159.037 145.666 156.466C121.617 145.092 96.9515 135.053 72.8054 123.865" stroke="#064A2A" stroke-width="7.1861" stroke-linecap="round"/>
<path d="M71.4938 124.879C73.0742 123.501 72.867 118.764 73.1168 116.812C73.8022 111.454 73.6495 105.94 70.9199 101.131C67.9561 95.9097 64.3622 95.2777 59.9589 100.057C55.3283 105.084 52.7081 112.209 53.3316 119.009" stroke="#064A2A" stroke-width="7.1861" stroke-linecap="round"/>
<path d="M51.7964 121.768C48.7996 121.021 46.4514 114.855 44.6966 112.585C40.071 106.602 33.5896 103.261 25.9515 104.342C18.4283 105.408 13.6291 109.597 12.7769 117.236C12.1164 123.156 15.2754 129.62 20.9517 131.875C22.5775 132.521 24.3587 133.034 26.0944 133.256C26.6353 133.325 28.1974 132.713 27.079 132.232C24.482 131.117 19.641 130.929 16.9017 131.193C11.1382 131.75 6.05484 134.818 4.58109 140.748C1.46103 153.302 24.9767 154.172 31.6319 154.65" stroke="#064A2A" stroke-width="7.1861" stroke-linecap="round"/>
</svg>
