<svg width="346" height="300" viewBox="0 0 346 300" fill="none" xmlns="http://www.w3.org/2000/svg">
<path d="M107.053 93.2745C105.071 94.6293 101.434 88.3647 100.519 87.0253C96.9563 81.8113 93.4261 74.5844 95.3923 68.0879C96.4846 64.4791 100.212 60.2436 104.012 63.1863C107.498 65.8863 109.634 70.7182 111.629 74.5172" stroke="#BD30D3" stroke-width="7.1861" stroke-linecap="round"/>
<path d="M114.545 74.4065C111.065 76.1739 114.697 70.8396 115.374 69.9187C117.114 67.5536 119.798 65.343 122.443 64.1202C124.019 63.3911 126.694 62.3986 128.186 63.8475C129.284 64.9139 129.079 67.35 129.055 68.7137C128.999 71.792 128.802 75.2893 127.784 78.2226C125.021 86.1853 118.62 91.0987 111.244 94.5359" stroke="#BD30D3" stroke-width="7.1861" stroke-linecap="round"/>
<path d="M157.592 83.782C158.46 84.8331 157.249 82.3433 157.091 82.0255C155.737 79.2979 154.699 76.7086 153.906 73.7465C152.381 68.054 150.391 59.7815 154.295 54.5342C157.856 49.7476 162.37 55.6816 164.029 58.9764C165.724 62.3416 166.703 65.6851 167.42 69.3234" stroke="#BD30D3" stroke-width="7.1861" stroke-linecap="round"/>
<path d="M167.694 67.1824C167.044 63.8809 172.092 60.5322 174.526 59.2447C175.336 58.8161 177.343 57.9594 178.289 58.4904C179.816 59.3471 180.066 61.1931 179.867 62.7488C179.541 65.297 178.138 67.7176 177.02 69.9873C175.658 72.7542 173.869 75.4467 171.993 77.8873C168.462 82.4817 163.737 84.7157 158.239 86.2827" stroke="#BD30D3" stroke-width="7.1861" stroke-linecap="round"/>
<path d="M131.785 121.994C133.986 128.515 138.44 134.582 146.286 133.733C153.882 132.911 156.005 127.674 156.863 120.965" stroke="#BD30D3" stroke-width="7.1861" stroke-linecap="round"/>
<path d="M78.2373 20.8561C58.0292 26.8747 39.8708 37.2834 29.7025 56.488C20.3927 74.0713 22.1792 96.2032 30.4624 113.612C52.0986 159.086 113.826 172.369 156.347 150.044C177.12 139.137 192.211 122.483 197.389 99.0975C202.193 77.3985 193.671 52.7071 178.11 37.1127C169.426 28.4099 159.88 20.9445 148.089 17.0578C133.126 12.1256 117.001 11.233 101.373 12.5053C89.1184 13.5029 76.2435 16.6928 64.9426 21.5281C53.5312 26.4107 44.6271 32.4584 35.1793 40.2625" stroke="#BD30D3" stroke-width="7.1861" stroke-linecap="round"/>
<path d="M63.2158 148.314C80.342 156.031 96.1764 167.806 111.556 178.536C136.682 196.067 162.569 212.471 188.331 229.044" stroke="#BD30D3" stroke-width="7.1861" stroke-linecap="round"/>
<path d="M188.969 230.286C181.305 235.435 203.329 216.634 212.514 215.694C217.365 215.197 219.264 216.235 217.727 221.34C216.061 226.875 214.073 232.486 211.56 237.702" stroke="#BD30D3" stroke-width="7.1861" stroke-linecap="round"/>
<path d="M210.327 240.261C211.331 236.354 231.683 244.65 229.404 253.515C226.596 264.442 212.284 258.016 206.722 254.285" stroke="#BD30D3" stroke-width="7.1861" stroke-linecap="round"/>
<path d="M203.822 255.725C201.524 255.431 207.948 258.181 209.193 260.134C212.178 264.816 214.754 268.544 210.628 273.294C203.883 281.058 190.9 276.189 186.855 268.04" stroke="#BD30D3" stroke-width="7.1861" stroke-linecap="round"/>
<path d="M185.108 270.377C183.608 270.373 182.637 272.958 181.782 273.914C180.074 275.824 176.513 278.648 173.822 278.949C165.177 279.915 161.298 272.695 162.269 265.104" stroke="#BD30D3" stroke-width="7.1861" stroke-linecap="round"/>
<path d="M185.932 127.508C207.304 129.214 229.389 124.613 250.704 123.094C267.093 121.925 283.452 120.504 299.848 119.503" stroke="#BD30D3" stroke-width="7.1861" stroke-linecap="round"/>
<path d="M297.499 121.319C297.828 118.752 297.495 117.003 298.392 114.338C299.707 110.431 303.264 104.389 306.997 102.229C312.647 98.9592 319.605 100.999 323.296 106.274C326.051 110.21 325.223 114.865 323.896 119.051" stroke="#BD30D3" stroke-width="7.1861" stroke-linecap="round"/>
<path d="M322.757 122.433C320.73 119.467 330.875 119.62 332.45 119.597C339.676 119.491 346.393 120.47 352.721 124.15C362.818 130.022 346.992 137.001 341.985 137.594" stroke="#BD30D3" stroke-width="7.1861" stroke-linecap="round"/>
<path d="M339.37 141.492C343.31 141.997 354.09 146.033 349.587 152.325C345.122 158.564 336.592 156.448 330.74 153.795" stroke="#BD30D3" stroke-width="7.1861" stroke-linecap="round"/>
<path d="M324.315 154.384C324.32 152.447 322.671 156.028 322.486 156.423C320.947 159.708 320.504 163.381 318.165 166.297C313.289 172.38 304.203 169.312 301.284 163.432" stroke="#BD30D3" stroke-width="7.1861" stroke-linecap="round"/>
</svg>
