<svg width="166" height="161" viewBox="0 0 166 161" fill="none" xmlns="http://www.w3.org/2000/svg">
<path d="M88.2477 0.575784C112.02 -0.295326 134.299 6.26129 150.343 25.1432C163.446 40.563 168.62 61.9841 162.781 81.7096C157.244 100.411 141.874 117.177 125.32 126.374C102.334 139.143 77.7029 138.967 53.6529 131.553C52.8655 132.843 52.0651 134.141 51.2682 135.428V135.429C49.8464 137.726 48.442 139.993 47.1754 142.143C44.0591 147.434 41.3481 152.678 39.6568 158.148C39.0858 159.995 37.1256 161.029 35.2789 160.458C33.4326 159.886 32.3987 157.927 32.9693 156.081C34.8988 149.841 37.929 144.049 41.1441 138.59C42.621 136.083 44.0663 133.755 45.4801 131.477L46.8209 129.312C46.8459 129.272 46.8701 129.231 46.8951 129.19C26.1703 121.004 6.36344 104.269 3.29062 80.7721C3.26776 80.7707 3.24423 80.771 3.22129 80.7691C1.29452 80.6149 -0.142817 78.9274 0.0113256 77.0006C3.67017 31.2697 45.0826 2.15775 88.2477 0.575784ZM145.009 29.6764C130.739 12.8817 110.809 6.75351 88.5035 7.5709C49.9762 8.98301 14.2313 33.5332 7.78574 71.1979C9.01729 71.7398 9.87734 72.9711 9.87754 74.4029C9.87763 97.5142 28.9203 114.936 50.5328 123.097C50.5986 122.982 50.6664 122.867 50.732 122.752C51.842 120.791 52.8116 118.738 53.7926 116.575C54.0143 116.086 54.2379 115.588 54.4645 115.084L54.4654 115.082C54.8331 114.264 55.2082 113.429 55.5934 112.591C51.6263 112.237 47.9098 110.233 45.317 107.579C41.483 103.653 39.2675 97.3592 42.9039 91.3961C46.273 85.8715 52.1168 84.3446 57.318 85.0133C60.5604 85.4302 63.8177 86.7107 66.5338 88.6324C66.8653 87.8801 67.1484 87.2965 67.2633 87.0885C69.9785 82.175 74.4931 76.4434 79.9527 73.4234C82.809 71.8436 86.3648 70.7183 89.2389 72.8522C90.5817 73.8492 91.2611 75.2386 91.609 76.4391C91.9574 77.6413 92.0534 78.9183 92.0436 80.0924C92.0327 81.392 91.8822 82.7986 91.6607 84.19C92.8227 83.7912 94.0255 83.4746 95.2359 83.2623C99.0399 82.5952 103.577 82.8579 107.129 85.6549C109.163 87.2568 110.349 89.4593 110.059 92.0064C109.808 94.2122 108.507 95.9751 107.373 97.1715C107.066 97.4948 106.741 97.8082 106.405 98.11C107.658 98.6114 108.922 99.344 109.941 100.413C111.49 102.038 112.288 104.273 111.79 106.828C111.169 110.009 108.992 112.42 106.791 113.999C104.561 115.598 101.847 116.684 99.3453 116.981C97.4259 117.209 95.6851 115.839 95.4566 113.92C95.2284 112 96.5989 110.259 98.5182 110.031C99.7467 109.885 101.357 109.282 102.712 108.31C104.095 107.318 104.764 106.278 104.919 105.488C104.952 105.316 104.948 105.311 104.904 105.271L104.893 105.261C104.887 105.256 104.881 105.249 104.874 105.242C104.662 105.019 104.112 104.656 103.09 104.369C102.117 104.095 100.991 103.969 99.9625 103.994C98.8582 104.02 98.2312 104.209 98.0885 104.279C96.3506 105.125 94.2559 104.402 93.4098 102.664C92.5636 100.926 93.2862 98.8312 95.024 97.985C95.1126 97.9418 95.2025 97.8998 95.2936 97.86C95.6017 97.0338 96.221 96.323 97.0816 95.9176C98.4043 95.2948 100.852 93.8739 102.294 92.3541C102.749 91.8744 102.952 91.5425 103.04 91.3648C102.986 91.3116 102.908 91.2411 102.797 91.1539C101.43 90.0774 99.2305 89.6683 96.4449 90.1568C93.7723 90.6256 91.1616 91.8335 89.4615 93.1373C88.7142 94.5465 87.0686 95.3056 85.4625 94.8746C83.5959 94.3735 82.4891 92.4543 82.9898 90.5875C83.048 90.3707 83.1113 90.1356 83.1793 89.8854L83.1803 89.8834C83.8783 87.3155 85.0186 83.1214 85.0445 80.0338C85.0489 79.5162 85.0183 79.1097 84.9723 78.8033C84.6228 78.915 84.0954 79.1314 83.3414 79.5484C79.4879 81.6799 75.7773 86.1545 73.3902 90.4742C73.3952 90.4653 73.3878 90.4805 73.3697 90.5182L73.2037 90.8717C73.1241 91.0438 73.0219 91.2681 72.9039 91.5377C72.6759 92.0585 72.4289 92.6549 72.2193 93.2232C73.1211 94.8756 72.5523 96.9569 70.9176 97.9166C70.5974 98.1045 70.1332 98.3387 69.5631 98.4723C68.9866 98.6073 68.075 98.6888 67.0982 98.2604C66.7959 98.1277 66.5332 97.9703 66.3053 97.7975C65.7818 97.5597 65.3094 97.1897 64.943 96.6949C63.1801 94.3149 59.8364 92.3943 56.4254 91.9557C53.114 91.5299 50.4125 92.5284 48.8805 95.0406C47.4087 97.4541 47.9793 100.287 50.3248 102.688C52.7411 105.162 56.1853 106.209 58.8268 105.33C60.0942 104.908 61.4322 105.251 62.3395 106.109C62.4831 106.203 62.6223 106.308 62.7545 106.425C63.2858 106.897 64.021 107.691 64.3209 108.868C64.6618 110.205 64.2695 111.317 63.8951 111.992C63.629 112.472 63.2517 112.921 63.1607 113.029L63.1432 113.05C63.1184 113.081 63.0999 113.105 63.0865 113.122C62.3207 114.68 61.6169 116.246 60.8853 117.874C60.65 118.397 60.4117 118.927 60.1676 119.465C59.2955 121.388 58.3661 123.374 57.2994 125.34C79.5252 131.874 101.522 131.587 121.921 120.254C137.188 111.773 151.147 96.3474 156.069 79.7232C161.197 62.4026 156.677 43.4079 145.009 29.6764ZM39.8141 45.5299C41.201 45.5174 42.0684 46.2885 42.3609 46.5855C42.9216 47.155 43.1499 47.7917 43.1715 47.8463C43.3115 48.2012 43.3994 48.5712 43.4469 48.7789C43.6606 49.7136 43.9311 51.4303 44.2076 53.2535C44.7956 57.1303 45.4784 61.9245 46.0094 64.2252C46.4438 66.1085 45.2695 67.9876 43.3863 68.4225C41.503 68.857 39.6228 67.6827 39.1881 65.7994C38.5781 63.1561 37.8376 57.9356 37.2867 54.3033C37.1633 53.4895 37.0506 52.7678 36.9518 52.1588C36.5122 51.5739 36.2507 50.8472 36.2506 50.0592C36.2506 49.7119 36.257 49.3687 36.2799 49.0689C36.2908 48.9257 36.3119 48.7117 36.357 48.4772C36.3796 48.3598 36.4203 48.1746 36.4928 47.9596C36.5509 47.7871 36.7058 47.3572 37.0533 46.9059C37.4065 46.4474 38.3119 45.5435 39.8141 45.5299ZM101.286 36.6139C103.205 36.385 104.947 37.7553 105.176 39.6744C105.917 45.8731 105.913 51.9319 105.913 57.8912C105.913 59.824 104.345 61.391 102.413 61.3912C100.48 61.3911 98.9127 59.8241 98.9127 57.8912C98.9127 51.8679 98.908 46.2228 98.2252 40.5045C97.9961 38.5852 99.3665 36.8431 101.286 36.6139Z" fill="black"/>
</svg>
