<svg width="230" height="230" viewBox="0 0 230 230" fill="none" xmlns="http://www.w3.org/2000/svg">
<path d="M3.77343 140.505C5.70358 140.404 7.35043 141.886 7.45214 143.816C8.14578 156.995 10.2401 169.521 13.541 182.358C14.0224 184.23 12.8945 186.138 11.0225 186.62C10.1255 186.85 9.22026 186.711 8.46776 186.298C6.26839 191.657 6.86321 196.527 8.16015 203.336C8.49167 205.077 9.32099 208.315 10.6543 210.87C11.3255 212.156 11.9924 213.011 12.5654 213.465C13.0377 213.84 13.2968 213.851 13.5664 213.794C14.5603 213.587 15.6438 212.675 16.8105 210.327C17.3578 209.225 17.8312 207.993 18.2891 206.701C18.4229 206.323 18.5613 205.921 18.7021 205.513H18.7031V205.511C19.0091 204.625 19.3252 203.709 19.624 202.946V202.945L19.6631 202.829C19.689 202.747 19.7208 202.642 19.7578 202.511C19.8325 202.247 19.9156 201.929 20.0088 201.567L20.0566 201.38L20.1123 201.166V201.165C20.2661 200.561 20.4411 199.873 20.6035 199.318C20.7001 198.988 20.8297 198.572 20.9863 198.199C21.0561 198.032 21.2013 197.703 21.4365 197.36C21.5521 197.191 21.7836 196.879 22.1523 196.577C22.5072 196.286 23.2761 195.773 24.3877 195.763C25.6091 195.753 26.4975 196.348 26.9932 196.869C27.4342 197.332 27.6482 197.805 27.7412 198.036C27.932 198.508 27.9963 198.947 28.0234 199.151C28.0873 199.632 28.1045 200.201 28.1045 200.78C28.1045 206.629 28.5248 211.282 31.2803 215.497C32.165 216.85 33.811 219.23 35.6182 220.874C36.5337 221.706 37.2404 222.115 37.6826 222.25C37.9021 222.316 37.9199 222.297 37.9443 222.269C37.9478 222.265 37.9518 222.26 37.956 222.256C37.9584 222.254 37.9609 222.252 37.9639 222.25C39.7319 220.936 41.0874 218.508 42.1709 215.159C42.9264 212.823 43.4296 210.479 43.9238 208.176C44.1434 207.153 44.3611 206.138 44.5986 205.135C45.6578 200.663 45.15 196.103 44.5771 190.959L44.5254 190.499C44.3119 188.577 45.697 186.847 47.6182 186.633C49.0327 186.476 50.3442 187.186 51.0225 188.337C52.0164 187.334 53.5643 186.994 54.9316 187.602C58.6002 189.233 63.7306 189.853 67.9824 188.856C72.1159 187.887 74.7953 185.624 75.3594 181.801C75.3827 181.643 75.3142 180.815 74.1807 179.368C73.1414 178.041 71.5802 176.696 69.875 175.677C68.1215 174.63 66.5732 174.139 65.5879 174.102C65.2833 174.091 65.1161 174.126 65.0449 174.147C65.0381 174.161 65.0287 174.18 65.0185 174.206C64.3007 176 62.2635 176.874 60.4687 176.156C58.6742 175.438 57.8017 173.401 58.5195 171.606C59.1441 170.045 60.2119 168.804 61.6435 168.02C63.0194 167.267 64.5052 167.057 65.8467 167.107C68.4609 167.204 71.1808 168.302 73.4658 169.667C75.7992 171.062 78.0477 172.952 79.6914 175.05C81.2407 177.028 82.7283 179.813 82.2842 182.823C81.1701 190.374 75.5199 194.278 69.5801 195.67C63.7585 197.035 57.0721 196.213 52.0889 193.999C52.0359 193.975 51.9838 193.95 51.9326 193.924C52.3063 197.937 52.4551 202.337 51.4101 206.749C51.2364 207.482 51.0539 208.331 50.8555 209.254C50.3335 211.683 49.7017 214.623 48.831 217.314C47.6215 221.053 45.7012 225.222 42.1387 227.869C40.0364 229.43 37.69 229.569 35.6435 228.946C33.7697 228.375 32.1559 227.187 30.9082 226.052C28.3891 223.761 26.3335 220.722 25.4219 219.328C24.2737 217.572 23.4282 215.78 22.8066 213.974C21.3709 216.69 19.013 219.81 14.9941 220.647C12.3032 221.207 9.97705 220.347 8.21483 218.949C6.55331 217.63 5.33634 215.811 4.44823 214.109C2.66292 210.688 1.67314 206.693 1.28319 204.646C-0.161663 197.06 -1.2159 189.88 2.89159 181.665C3.4504 180.547 4.52645 179.859 5.68456 179.746C2.89997 168.012 1.10387 156.381 0.461905 144.184C0.360309 142.254 1.8431 140.607 3.77343 140.505ZM200.944 84.5776C202.834 84.174 204.694 85.3791 205.098 87.269C207.889 100.332 208.494 113.284 209.097 126.187L209.104 126.357C209.135 126.356 209.161 126.356 209.184 126.356C209.455 126.355 209.718 126.373 209.939 126.394C210.387 126.436 210.885 126.509 211.36 126.59C213 126.869 215.136 127.362 215.921 127.543L216.034 127.57C216.092 127.583 216.137 127.594 216.17 127.601C218.876 128.21 221.756 129.493 224.123 131.419C226.497 133.352 228.552 136.107 229.073 139.643C229.695 143.86 228.468 147.44 226.107 150.234C223.842 152.916 220.654 154.745 217.425 155.979C211.008 158.43 203.254 158.967 198.391 158.219C198.302 158.206 198.214 158.188 198.128 158.168C198.212 161.206 198.311 165.136 197.966 168.765C197.497 173.695 196.111 179.795 191.299 183.002C188.357 184.964 185.286 184.15 183.328 183.238C181.782 182.517 180.252 181.407 179.274 180.698C179.06 180.542 178.872 180.407 178.717 180.298C173.553 176.694 171.387 170.913 170.849 165.531C170.656 163.607 172.06 161.892 173.983 161.7C175.907 161.508 177.622 162.911 177.814 164.834C178.233 169.018 179.818 172.529 182.724 174.558C183.059 174.792 183.374 175.019 183.674 175.235L183.675 175.236C184.613 175.911 185.412 176.485 186.286 176.893C186.804 177.134 187.124 177.199 187.284 177.207C187.37 177.211 187.38 177.203 187.407 177.184L187.416 177.178C189.327 175.905 190.543 172.873 190.997 168.102C191.229 165.666 191.236 163.234 191.19 160.929L191.133 158.67C191.097 157.406 191.063 156.197 191.063 155.066C191.064 153.133 192.631 151.566 194.563 151.566C195.302 151.566 195.987 151.795 196.552 152.185C197.308 151.49 198.361 151.132 199.455 151.3C203.145 151.868 209.67 151.448 214.927 149.44C217.534 148.444 219.534 147.169 220.76 145.717C221.891 144.378 222.463 142.794 222.148 140.665C221.951 139.325 221.137 138.015 219.704 136.848C218.265 135.676 216.4 134.828 214.634 134.43C214.579 134.418 214.507 134.401 214.421 134.381L214.292 134.352C213.703 134.217 212.645 133.974 211.587 133.757C210.645 134.261 209.485 134.328 208.444 133.838C208.258 133.751 208.044 133.648 207.823 133.531C207.298 133.902 206.665 134.134 205.976 134.167C204.045 134.262 202.403 132.773 202.309 130.842C202.239 129.409 202.172 127.984 202.105 126.567L202.104 126.55C201.496 113.567 200.917 101.2 198.253 88.7319C197.849 86.8416 199.054 84.9815 200.944 84.5776ZM101.747 0.0756746C125.52 -0.795523 147.798 5.76124 163.843 24.6431C176.945 40.063 182.12 61.484 176.28 81.2095C170.744 99.9106 155.373 116.677 138.819 125.874C115.561 138.795 90.6171 138.461 66.2959 130.787C43.5724 123.616 20.154 105.995 16.79 80.272C16.7671 80.2706 16.7437 80.2709 16.7207 80.269C14.794 80.1148 13.3566 78.4272 13.5107 76.5005C17.1696 30.7696 58.582 1.65765 101.747 0.0756746ZM158.509 29.1763C144.238 12.3816 124.309 6.25331 102.003 7.07079C63.4756 8.48291 27.7306 33.033 21.2851 70.6977C22.5168 71.2396 23.3768 72.471 23.3769 73.9028C23.377 98.5614 45.0554 116.743 68.4033 124.111C91.4425 131.381 114.289 131.494 135.42 119.754C150.687 111.273 164.647 95.8474 169.568 79.2231C174.696 61.9025 170.176 42.9078 158.509 29.1763ZM119.592 35.5249C127.92 35.1043 136.212 35.6808 144.242 40.1733C148.668 42.6492 153.481 45.951 156.959 50.2983C158.166 51.8076 157.921 54.0107 156.412 55.2183C154.903 56.4256 152.7 56.1807 151.492 54.6714C148.836 51.3507 144.925 48.5766 140.824 46.2827C134.479 42.7332 127.749 42.1219 119.944 42.5161C112.828 42.8756 105.437 45.8318 98.8594 49.5522C96.3979 50.9446 94.4139 52.7064 92.4502 54.7739C91.4587 55.8179 90.4988 56.9099 89.4668 58.0815C88.4494 59.2365 87.3677 60.4627 86.2002 61.6821C84.8634 63.0782 82.6471 63.1263 81.251 61.7895C79.8549 60.4527 79.8068 58.2365 81.1435 56.8403C82.1972 55.7398 83.1906 54.6174 84.2148 53.4546C85.2243 52.3085 86.2746 51.1112 87.374 49.9536C89.5926 47.6177 92.1203 45.322 95.4131 43.4595C102.428 39.4917 110.925 35.9626 119.592 35.5249ZM95.6123 24.8716C97.5188 24.5538 99.3226 25.8421 99.6406 27.7485C99.9582 29.655 98.6701 31.4579 96.7637 31.7759C92.48 32.4898 88.0138 33.4722 83 33.4722C81.067 33.4721 79.5 31.9051 79.5 29.9722C79.5003 28.0394 81.0672 26.4722 83 26.4722C87.2606 26.4722 90.888 25.659 95.6123 24.8716ZM144.569 24.0083C146.497 23.8707 148.172 25.3227 148.31 27.2505C148.447 29.1782 146.996 30.8527 145.068 30.9907C142.051 31.2062 139.114 31.4474 136.167 31.7993C134.248 32.0285 132.506 30.6581 132.276 28.7388C132.047 26.8196 133.418 25.0773 135.337 24.8481C138.448 24.4767 141.512 24.2267 144.569 24.0083Z" fill="black"/>
</svg>
