<svg width="190" height="160" viewBox="0 0 190 160" fill="none" xmlns="http://www.w3.org/2000/svg">
<path d="M97.3174 18.3934C116.821 12.5494 138.937 15.8167 156.588 25.8562C174.277 35.9175 187.813 52.9923 189.502 74.9607C191.624 102.56 177.455 129.211 155.164 144.148C158.089 147.552 161.129 150.825 164.382 153.897C165.787 155.224 165.85 157.44 164.523 158.846C163.196 160.251 160.981 160.313 159.576 158.986C155.88 155.495 152.414 151.718 149.096 147.81C140.392 152.516 130.688 155.511 120.388 156.253C102.6 157.534 86.3509 153.951 71.8467 142.675C61.0094 134.249 55.6249 124.328 52.4932 112.89C52.2241 113.983 51.4348 114.927 50.2989 115.344C48.484 116.009 46.4729 115.076 45.8076 113.262C39.2442 95.3538 38.0273 74.6911 48.1299 56.8494L48.6211 55.9959C59.0628 38.1459 77.7448 24.2581 97.3174 18.3934ZM153.127 31.9402C136.975 22.7536 116.827 19.8546 99.3262 25.0984C81.024 30.5826 63.5971 43.7396 54.2207 60.2986C46.0886 74.6607 46.2003 91.5022 51.127 107.168C50.4907 104.108 49.9665 100.948 49.5039 97.6883C49.2324 95.7745 50.5639 94.0029 52.4776 93.7312C54.3914 93.4597 56.1631 94.791 56.4346 96.7049C58.9092 114.146 62.9227 126.87 76.1436 137.148C89.0159 147.155 103.453 150.454 119.886 149.27C128.676 148.637 137.006 146.169 144.554 142.285C140.57 137.307 136.758 132.241 132.967 127.383C123.818 128.526 113.833 129.754 104.392 129.964C102.459 130.006 100.857 128.474 100.814 126.542C100.772 124.61 102.303 123.009 104.235 122.966C111.885 122.796 119.968 121.923 127.855 120.962C124.261 116.497 120.726 112.076 117.074 107.75L115.27 105.632C115 105.318 114.585 104.87 114.149 104.295C113.671 104.037 113.246 103.664 112.92 103.184C110.628 99.8136 108.789 95.5457 108.105 91.1189C107.42 86.6898 107.86 81.837 110.502 77.6365L110.657 77.3973C111.447 76.216 112.471 75.2282 113.771 74.6102C115.172 73.9436 116.62 73.8378 117.94 74.0525C120.402 74.4529 122.595 75.9868 124.241 77.4197C125.294 78.3367 126.304 79.377 127.231 80.4285C127.563 79.5126 127.909 78.6664 128.225 77.9295L128.712 76.7986C129.254 75.5616 129.962 74.0469 130.839 72.6365C131.964 70.8277 133.709 68.6117 136.326 67.5877L136.566 67.4979C139.042 66.6185 141.339 67.1749 143.082 68.1385C144.798 69.0872 146.133 70.4954 147.046 71.6619L147.317 72.0174C148.639 73.7897 149.444 75.5295 149.888 77.407C150.133 78.4448 150.254 79.4859 150.315 80.5193C150.398 80.5045 150.472 80.4898 150.537 80.4793C151.525 80.3191 152.571 80.1049 153.791 79.868C154.973 79.6384 156.273 79.3966 157.598 79.2264C160.193 78.8932 163.261 78.7764 166.158 79.7928C169.081 80.8184 171.304 82.8118 172.337 85.5105C173.354 88.1675 173.05 91.0622 171.828 93.6336C169.108 99.3594 164.248 101.495 159.489 102.855C157.631 103.386 155.693 102.311 155.162 100.452C154.631 98.5933 155.708 96.6558 157.566 96.1248C161.709 94.9412 164.099 93.5885 165.505 90.6297C166.059 89.4625 166.014 88.5728 165.8 88.0135C165.602 87.496 165.102 86.8399 163.841 86.3973C162.49 85.9234 160.725 85.8827 158.489 86.1697C157.4 86.3097 156.284 86.5141 155.126 86.7391C154.006 86.9566 152.786 87.2053 151.657 87.3885C151.491 87.4154 151.165 87.4802 150.781 87.5604C150.273 87.965 149.647 88.234 148.952 88.3035C148.506 88.3481 148.094 88.3807 147.755 88.3865C147.612 88.389 147.319 88.3912 146.991 88.3445C146.855 88.3251 146.467 88.2657 146.02 88.0682C145.757 87.9519 144.202 87.2337 143.946 85.3104C143.93 85.1903 143.921 85.0734 143.917 84.9598C143.576 84.4198 143.378 83.7811 143.378 83.0955C143.378 81.2446 143.32 80.0537 143.075 79.0164C142.853 78.0747 142.443 77.1393 141.533 75.9764C140.915 75.187 140.263 74.5782 139.695 74.2645C139.211 73.9968 139.022 74.0494 138.877 74.1062C138.404 74.2913 137.668 74.9111 136.784 76.3328C135.945 77.6834 135.276 79.2447 134.658 80.6873C133.583 83.1961 132.689 85.8734 132.689 87.8416C132.688 88.9162 132.203 89.8763 131.44 90.5184C131.21 90.7939 130.934 91.0392 130.612 91.24C128.973 92.2645 126.814 91.7668 125.789 90.1277C124.816 88.571 122.286 84.9991 119.645 82.699C118.269 81.5011 117.301 81.0405 116.817 80.9617C116.79 80.9572 116.767 80.9563 116.751 80.9549C116.693 81.0045 116.58 81.1213 116.428 81.3631C114.931 83.7421 114.514 86.7596 115.022 90.0496C115.347 92.1518 116.038 94.2569 116.956 96.1824C118.259 96.633 119.226 97.8342 119.308 99.2957C119.31 99.3439 119.318 99.4468 119.485 99.7127C119.704 100.059 119.998 100.394 120.576 101.066L122.415 103.225C126.683 108.282 130.792 113.461 134.884 118.528C140.348 125.295 145.399 132.173 150.666 138.722C171.234 125.253 184.469 100.809 182.522 75.4969C181.048 56.3165 169.241 41.1053 153.127 31.9402ZM94.7891 87.1482C96.7217 87.1485 98.2888 88.7156 98.2891 90.6482C98.2891 92.5811 96.7219 94.148 94.7891 94.1482C92.4242 94.1482 90.0432 94.4405 87.4444 94.7898C84.9136 95.13 82.1318 95.5316 79.3028 95.6326C77.371 95.7016 75.7487 94.1913 75.6797 92.2596C75.6112 90.3282 77.1213 88.7065 79.0528 88.6375C81.4631 88.5514 83.8605 88.2087 86.5118 87.8523C89.0949 87.5051 91.9007 87.1482 94.7891 87.1482ZM0.450228 2.42266C1.39795 0.738048 3.53214 0.140057 5.21683 1.08769C5.76781 1.39763 6.32465 1.77155 6.83792 2.32891C7.19988 2.72197 7.50325 3.18909 7.64066 3.40019C7.6599 3.42976 7.67611 3.45485 7.68851 3.47344C8.76071 5.08178 8.32614 7.25473 6.71781 8.32695C5.10948 9.39906 2.9365 8.96452 1.86429 7.35625C1.83459 7.3117 1.80695 7.26957 1.78226 7.23223L1.73441 7.16094C0.0878573 6.19949 -0.488023 4.09066 0.450228 2.42266ZM50.6114 0.921679C52.388 0.16028 54.4455 0.983085 55.2071 2.75957C55.9684 4.53613 55.1456 6.59368 53.3692 7.35527L53.3535 7.36211C52.3119 7.80853 51.1696 8.29865 49.9453 8.72246C48.1187 9.35476 46.1245 8.38603 45.4922 6.55937C44.8601 4.73279 45.8287 2.7395 47.6553 2.10723C48.612 1.77605 49.5355 1.38275 50.6114 0.921679ZM24.7159 1.74687C25.5299 0.337484 27.2473 -0.354141 28.8516 0.180468C30.6853 0.791719 31.6766 2.77346 31.0655 4.60723C31.063 4.61454 31.0591 4.62751 31.0537 4.64531C30.9872 4.86446 30.6919 5.83666 30.0596 6.60723C29.1014 7.77481 27.8356 8.14676 26.8555 8.25566C24.9344 8.46901 23.2037 7.08399 22.9903 5.16289C22.8323 3.73972 23.5516 2.42148 24.7159 1.74687Z" fill="black"/>
</svg>
