<svg width="185" height="231" viewBox="0 0 185 231" fill="none" xmlns="http://www.w3.org/2000/svg">
<path d="M79.5188 89.9987C104.834 86.9259 133.185 90.8979 154.725 106.514C171.169 118.437 185.043 138.295 184.506 160.04C183.843 186.876 161.447 205.523 140.982 216.042C128.657 222.376 114.889 226.333 101.369 228.384C87.8994 230.428 74.0426 231.857 60.0344 229.638C39.9424 226.455 18.6838 217.736 8.01197 198.001C-1.94679 179.584 -2.91238 155.609 6.75416 136.736L7.11451 136.045C9.77912 131.011 13.0878 126.57 16.9153 122.715C17.0678 122.352 17.2844 122.01 17.5657 121.704C25.439 113.146 33.3872 105.28 44.5637 99.9401C55.635 94.6506 67.4507 91.4636 79.5188 89.9987ZM150.615 112.181C130.94 97.917 104.542 94.0129 80.3626 96.9479C68.956 98.3325 57.8877 101.332 47.5813 106.257C46.8742 106.594 46.181 106.945 45.5003 107.306C46.3728 107.7 47.0817 108.449 47.3958 109.433C47.9832 111.274 46.9663 113.244 45.1253 113.832C31.0693 118.318 19.5967 127.019 12.9846 139.927C4.43992 156.61 5.23221 178.143 14.1692 194.671C23.3117 211.578 41.9066 219.679 61.1301 222.724C74.0248 224.767 86.9944 223.485 100.319 221.464C113.249 219.502 126.261 215.737 137.782 209.816C157.745 199.555 176.947 182.628 177.509 159.867C177.97 141.176 165.899 123.262 150.615 112.181ZM109.192 135.675C111.125 135.675 112.691 137.243 112.692 139.175C112.692 143.685 111.535 147.572 109.011 150.714C106.523 153.809 102.98 155.839 98.8255 157.189C94.7748 158.506 90.0663 159.343 85.2844 158.085C82.5898 157.376 80.3175 156.56 78.4895 154.854C76.7265 153.209 75.7128 151.026 74.6897 148.653C73.925 146.878 74.7432 144.819 76.5178 144.053C78.2927 143.288 80.352 144.107 81.1174 145.882C82.1917 148.374 82.7163 149.225 83.2649 149.737C83.7489 150.189 84.5638 150.657 87.0657 151.315C89.997 152.086 93.2073 151.654 96.6614 150.532C100.014 149.442 102.194 148.02 103.554 146.328C104.877 144.681 105.692 142.446 105.692 139.175C105.692 137.243 107.259 135.676 109.192 135.675ZM153.739 133.826C154.012 131.912 155.785 130.583 157.698 130.856C159.612 131.13 160.942 132.903 160.668 134.816C160.184 138.203 159 141.933 156.735 144.905C154.385 147.988 150.862 150.228 146.145 150.228C137.664 150.228 132.647 143.577 129.817 138.082C128.931 136.363 129.607 134.253 131.325 133.368C133.044 132.483 135.154 133.157 136.039 134.876C138.651 139.945 141.895 143.228 146.145 143.228C148.36 143.228 149.937 142.277 151.168 140.662C152.484 138.936 153.362 136.462 153.739 133.826ZM144.594 47.0592C145.554 47.0239 147.397 46.9563 148.989 47.1462C150.733 47.3545 154.502 48.0952 156.087 51.7477C156.774 53.3317 156.66 54.8862 156.417 55.9977C156.169 57.1303 155.705 58.1902 155.222 59.0973C154.254 60.9141 152.853 62.7694 151.476 64.3962C149.681 66.517 147.659 68.5601 146.064 70.0446C152.584 69.5529 159.212 68.5534 165.883 67.5465C166.666 67.4284 167.45 67.3096 168.234 67.1921C170.63 66.8329 172.864 68.4845 173.223 70.8805C173.582 73.2766 171.93 75.5106 169.534 75.8698C168.717 75.9923 167.893 76.1165 167.064 76.2419L167.059 76.2428C157.216 77.7313 146.586 79.3389 136.201 79.111L136.162 79.11C135.655 79.0991 133.908 79.0611 132.584 78.7428C132.234 78.6585 131.583 78.4826 130.921 78.1012C130.423 77.8142 128.606 76.6404 128.528 74.1901C128.455 71.9298 129.972 70.6326 130.362 70.3151C130.943 69.8419 131.579 69.5163 132.064 69.2956C134.116 68.3617 136.3 66.7431 138.546 64.9772C139.483 64.2407 142.353 61.5931 144.779 58.7272C145.686 57.6557 146.443 56.6554 146.993 55.7946C146.735 55.7882 146.462 55.788 146.175 55.7926C145.844 55.7979 145.521 55.8094 145.187 55.821L145.137 55.8229C144.835 55.8334 144.493 55.845 144.184 55.8483C138.974 55.9045 133.798 56.1288 128.497 56.3952C126.078 56.5168 124.017 54.6537 123.896 52.234C123.774 49.8143 125.637 47.7541 128.057 47.6325C133.384 47.3648 138.701 47.133 144.089 47.0749C144.202 47.0736 144.375 47.0673 144.594 47.0592ZM86.011 33.1071C86.5446 31.5577 88.2331 30.7338 89.7825 31.2672C93.194 32.4421 96.5897 33.6369 99.9866 34.9587C100.058 34.9864 100.168 35.0259 100.307 35.0758H100.308L100.86 35.277C101.492 35.5128 102.331 35.8478 103.044 36.238C104.087 36.8085 106.266 38.2237 106.34 40.9157C106.372 42.0831 105.909 43.0303 105.476 43.6667C105.035 44.3151 104.476 44.8637 103.944 45.3112C102.878 46.2074 101.531 47.0181 100.257 47.6921C98.5956 48.5709 96.8113 49.344 95.4358 49.8737C99.6527 51.2087 104.065 52.2518 108.506 53.3014C109.027 53.4246 109.549 53.5477 110.071 53.6715C111.665 54.05 112.651 55.6494 112.273 57.2438C111.894 58.8383 110.294 59.8245 108.699 59.446C108.156 59.317 107.609 59.1874 107.058 59.0573L107.052 59.0563C100.499 57.5096 93.421 55.8393 86.9602 53.0788L86.9368 53.068C86.6214 52.9335 85.5332 52.4697 84.7825 51.9362C84.5837 51.7949 84.2211 51.5201 83.9016 51.1139C83.6612 50.8083 82.816 49.6141 83.384 48.0563C83.9082 46.6195 85.1868 46.1867 85.512 46.0856C85.9963 45.9351 86.4781 45.891 86.8381 45.8747C88.3614 45.8057 90.1405 45.3408 91.9954 44.7985C92.7693 44.5722 95.2379 43.6333 97.4827 42.446C98.3218 42.0021 99.0492 41.5652 99.6116 41.1637C99.4513 41.0947 99.2793 41.0262 99.0979 40.9567C98.8888 40.8766 98.6837 40.8013 98.471 40.7243L98.4387 40.7135C98.2465 40.644 98.0293 40.5648 97.8342 40.4889C94.5501 39.2111 91.2447 38.0473 87.8508 36.8786C86.3015 36.345 85.4776 34.6565 86.011 33.1071ZM111.684 3.15592C111.874 1.23231 113.588 -0.172999 115.512 0.0172487C119.747 0.436112 123.969 0.881859 128.228 1.4733C128.317 1.48574 128.455 1.50164 128.628 1.52115L129.316 1.60123C130.106 1.69944 131.16 1.85545 132.085 2.10905C133.437 2.47978 136.323 3.51038 137.142 6.57975C137.497 7.91078 137.223 9.12412 136.9 9.97233C136.57 10.8365 136.079 11.6176 135.59 12.276C134.611 13.595 133.286 14.8936 132.007 16.0143C130.34 17.4754 128.503 18.8481 127.069 19.8307C132.272 20.214 137.619 20.2091 143.002 20.2038L144.899 20.2028C146.832 20.2028 148.399 21.7698 148.399 23.7028C148.398 25.6356 146.832 27.2028 144.899 27.2028C144.238 27.2028 143.572 27.2029 142.902 27.2038L139.895 27.2057C132.821 27.1955 125.361 27.0491 118.215 25.8171L118.185 25.8122C117.786 25.7436 116.411 25.507 115.405 25.0993C115.138 24.9913 114.646 24.7754 114.168 24.3962C113.809 24.1104 112.515 22.9701 112.742 21.028C112.953 19.2355 114.303 18.3904 114.648 18.1862C115.162 17.8817 115.703 17.7014 116.112 17.5846C117.841 17.0905 119.755 16.0707 121.737 14.943C122.563 14.4727 125.141 12.724 127.394 10.7497C128.236 10.0115 128.951 9.31104 129.488 8.69694C129.285 8.66144 129.069 8.6296 128.842 8.59928C128.58 8.5643 128.324 8.53498 128.059 8.50455L128.02 8.49967C127.78 8.4722 127.509 8.44087 127.264 8.4069C123.147 7.83507 119.036 7.39978 114.823 6.98307C112.899 6.7927 111.494 5.07941 111.684 3.15592Z" fill="black"/>
</svg>
