<svg width="216" height="200" viewBox="0 0 216 200" fill="none" xmlns="http://www.w3.org/2000/svg">
<path d="M174.372 1.45813C175.809 0.537837 178.015 -0.43383 180.575 0.206174C185.077 1.3316 187.385 5.44107 188.613 8.61828C189.322 10.4517 189.828 12.3913 190.204 14.1222C192.249 13.2446 194.363 12.5541 196.582 12.2238C200.299 11.6704 204.1 12.1539 208.218 14.0363C213.601 16.4972 215.716 21.186 215.804 25.8605C215.888 30.3296 214.176 34.9114 211.9 38.3253C210.828 39.9337 208.654 40.3683 207.046 39.296C205.438 38.2237 205.003 36.0507 206.075 34.4425C207.751 31.9286 208.856 28.7249 208.805 25.9923C208.757 23.4648 207.784 21.5344 205.308 20.4025C202.358 19.0539 199.921 18.8039 197.612 19.1476C195.199 19.5069 192.715 20.544 189.7 22.1398C188.178 22.9456 186.33 22.5157 185.306 21.2032C184.65 20.6897 184.175 19.9413 184.019 19.0568L183.994 18.921C183.596 16.6614 183.075 13.7058 182.084 11.1427C181.011 8.36666 179.849 7.25522 178.903 7.00403C178.838 7.00985 178.61 7.05603 178.149 7.35168C177.443 7.80344 176.734 8.4889 175.924 9.29895C174.617 10.6055 173.673 12.4148 172.727 14.6818C170.134 20.8933 168.097 27.314 166.013 33.8839C165.511 35.4657 165.006 37.0562 164.49 38.6544C163.979 40.2377 162.447 41.2068 160.858 41.0675C160.137 41.1292 159.391 40.9688 158.728 40.5607C156.41 39.1347 151.865 37.1279 148.172 36.7384C146.3 36.541 145.261 36.8255 144.792 37.1388C144.572 37.2857 143.975 37.7371 144 39.7277C144.047 43.4087 145.951 46.1566 149.107 48.3214C152.347 50.5443 156.652 51.9366 160.605 52.672C161.07 52.7587 161.497 52.9347 161.871 53.1779C162.074 53.1295 162.285 53.0984 162.501 53.087C164.431 52.9854 166.079 54.4682 166.181 56.3986C166.546 63.3398 166.358 70.1362 166.103 76.8878L165.989 79.7794C165.914 81.682 165.84 83.5826 165.776 85.4825C165.385 97.1531 165.231 108.833 165.173 120.531C165.827 125.64 165.833 130.841 165.139 136.005C165.139 136.045 165.139 136.086 165.139 136.126C165.139 136.507 165.076 136.873 164.964 137.216C164.572 139.73 164.013 142.234 163.28 144.71C157.744 163.411 142.373 180.178 125.819 189.374C102.561 202.295 77.6171 201.962 53.296 194.287C30.5725 187.117 7.15409 169.496 3.79013 143.773C3.76728 143.771 3.74373 143.771 3.7208 143.77C1.79404 143.615 0.356694 141.928 0.510837 140.001C4.16945 94.27 45.582 65.1583 88.7472 63.5763C112.52 62.7052 134.799 69.2617 150.843 88.1437C153.776 91.5953 156.309 95.3489 158.413 99.3155C158.504 94.6271 158.623 89.9374 158.78 85.2472C158.847 83.2567 158.924 81.2958 159 79.3566C159.264 72.6294 159.518 66.1552 159.308 59.5509C154.853 58.7205 149.497 57.0786 145.147 54.0939C140.706 51.0475 137.085 46.4073 137.001 39.8165C136.955 36.1742 138.183 33.1361 140.903 31.3185C143.375 29.6673 146.391 29.5112 148.906 29.7765C152.393 30.1443 156.104 31.4514 159.011 32.8029L159.3 31.8937V31.8927C161.391 25.2995 163.544 18.5106 166.267 11.9855C167.277 9.56577 168.647 6.67565 170.974 4.34875L171.017 4.30676C171.759 3.56384 172.959 2.3638 174.372 1.45813ZM145.509 92.6769C131.238 75.8821 111.309 69.754 89.003 70.5714C50.4756 71.9835 14.7306 96.5334 8.28525 134.198C9.51684 134.74 10.377 135.972 10.377 137.403C10.3772 162.062 32.0555 180.244 55.4034 187.611C78.4425 194.881 101.289 194.994 122.42 183.255C137.687 174.773 151.647 159.348 156.568 142.724C157.272 140.348 157.792 137.94 158.139 135.519C158.139 130.676 158.148 125.83 158.171 120.982C156.766 110.666 152.377 100.76 145.509 92.6769ZM103.438 142.089C105.32 141.65 107.202 142.82 107.642 144.702C108.081 146.585 106.911 148.466 105.028 148.905C95.6639 151.09 86.241 152.893 76.5226 153.768C74.5975 153.941 72.8961 152.521 72.7228 150.596C72.5495 148.671 73.9704 146.969 75.8956 146.796C85.1689 145.961 94.2451 144.234 103.438 142.089ZM57.2931 101.179C59.1196 100.547 61.113 101.515 61.7452 103.342C62.7904 106.361 63.3087 109.36 63.7442 112.112C64.1922 114.943 64.5471 117.46 65.2315 119.97C65.74 121.835 64.641 123.759 62.7765 124.268C60.9116 124.776 58.9873 123.676 58.4786 121.812C57.6682 118.84 57.2495 115.857 56.8302 113.207C56.3984 110.479 55.9554 108.016 55.13 105.631C54.4979 103.804 55.4665 101.811 57.2931 101.179ZM93.7003 92.9904C95.1421 91.7031 97.3543 91.828 98.6417 93.2697C101.442 96.4065 102.638 100.225 103.174 103.819C103.703 107.37 103.633 111.078 103.633 114.056C103.633 115.988 102.065 117.555 100.133 117.556C98.2 117.556 96.6331 115.989 96.6329 114.056C96.6329 110.849 96.6853 107.764 96.2511 104.851C95.8234 101.982 94.9677 99.6644 93.421 97.9318C92.1337 96.4899 92.2586 94.2778 93.7003 92.9904ZM178.91 7.00403C178.917 7.00474 178.922 7.00425 178.923 7.00403L178.921 7.00305C178.919 7.00295 178.915 7.00378 178.91 7.00403Z" fill="black"/>
</svg>
