<svg width="373" height="241" viewBox="0 0 373 241" fill="none" xmlns="http://www.w3.org/2000/svg">
<path d="M14.8046 173.226C16.8353 173.255 18.5294 174.138 19.7753 175.038C21.2101 176.074 22.563 177.551 23.622 178.801L24.5751 179.953C24.8202 180.253 25.0344 180.514 25.2119 180.721C26.4698 182.189 26.3003 184.399 24.833 185.657C23.3653 186.915 21.1554 186.745 19.8974 185.277C19.7088 185.057 19.5251 184.839 19.3456 184.624L18.8183 183.986C17.732 182.669 16.7673 181.501 15.6757 180.713C15.0364 180.251 14.7359 180.227 14.706 180.226C14.6995 180.226 14.6959 180.226 14.6914 180.227C14.686 180.228 14.6653 180.233 14.6269 180.251C14.5484 180.286 14.3541 180.393 14.0605 180.686C11.8246 182.922 11.2715 185.025 11.4531 187.16C11.6555 189.539 12.8016 192.231 14.6113 195.343C15.5828 197.014 15.0158 199.157 13.3447 200.129C12.4874 200.627 11.5056 200.72 10.622 200.467C9.43464 201.459 8.30741 202.668 7.62592 203.883C6.848 205.271 6.86433 206.197 7.3183 206.999C7.96654 208.143 9.20693 208.869 11.5761 209.185C13.3224 209.418 15.0467 209.371 16.8896 209.319C17.2401 209.309 17.5949 209.299 17.955 209.291C18.2949 208.946 18.628 208.614 18.9482 208.295L18.9531 208.289C19.0691 208.173 19.1843 208.059 19.2968 207.947C20.6637 206.58 22.8792 206.58 24.246 207.947C25.6128 209.314 25.6127 211.529 24.246 212.896C20.9829 216.159 18.6023 218.642 17.9833 221.875C17.8175 222.741 17.7641 223.905 17.9316 224.956C18.1097 226.073 18.4496 226.553 18.5966 226.682C18.6019 226.687 18.6047 226.693 18.6074 226.699C18.6194 226.725 18.6323 226.753 18.8896 226.688C19.3917 226.562 20.1848 226.147 21.2128 225.309C23.2377 223.659 25.1064 221.268 26.0458 220.044C27.2224 218.51 29.4194 218.221 30.9531 219.397C31.2714 219.641 31.5359 219.93 31.7451 220.247C33.0469 220.169 34.3408 220.824 35.0165 222.041C35.9865 223.787 36.8536 224.558 37.4277 224.879C37.9134 225.149 38.3547 225.199 38.913 225.051C40.3534 224.67 42.4905 222.942 44.6738 219.511C48.0727 214.17 48.5466 208.273 46.6318 202.049C46.0633 200.202 47.0998 198.243 48.9472 197.674C50.6078 197.163 52.3584 197.95 53.1083 199.456C53.6707 199.736 54.1644 200.171 54.5195 200.745C55.1951 201.836 55.8766 202.951 56.5664 204.081L56.5683 204.084C60.6783 210.814 65.0942 218.046 70.4853 223.711C76.6853 230.225 83.6454 234.101 92.2929 232.815C99.2392 231.782 104.532 225.999 108.688 217.734C112.21 210.731 114.541 202.686 116.29 196.157L117.006 193.459L117.106 193.076C117.6 191.207 119.515 190.091 121.384 190.585C123.252 191.078 124.368 192.992 123.875 194.861L123.722 195.443V195.444C121.929 202.244 119.301 212.211 114.942 220.879C110.515 229.683 103.781 238.183 93.3222 239.739C81.5368 241.492 72.4472 235.926 65.415 228.537C61.2118 224.12 57.5544 218.85 54.332 213.779C53.745 217.026 52.524 220.213 50.579 223.269C48.1433 227.097 44.7771 230.741 40.7031 231.819C38.5043 232.401 36.1853 232.201 34.0175 230.992C32.3123 230.04 30.8755 228.564 29.663 226.713C28.5676 227.994 27.1678 229.486 25.6357 230.735C24.283 231.837 22.5504 232.985 20.6005 233.476C18.4646 234.014 16.0339 233.748 13.9775 231.942C12.0815 230.277 11.3169 227.929 11.0185 226.057C10.7095 224.119 10.807 222.132 11.1083 220.558C11.4035 219.017 11.9228 217.601 12.581 216.299C11.9278 216.263 11.2782 216.207 10.6503 216.124C7.37584 215.687 3.46125 214.39 1.22846 210.45C-0.838633 206.802 0.0107343 203.154 1.51948 200.462C2.8155 198.149 4.74372 196.212 6.45991 194.828C5.45127 192.583 4.68676 190.202 4.47846 187.754C4.11929 183.531 5.43833 179.41 9.11127 175.737C10.7119 174.136 12.6443 173.196 14.8046 173.226ZM168.265 48.4176C189.944 45.9012 214.494 51.8949 234.343 64.274C254.205 76.6616 269.769 95.7218 272.673 119.587C275.004 138.744 266.697 155.965 254.101 169.059C254.102 169.062 254.104 169.065 254.105 169.068C258.561 177.212 263.671 184.903 269.938 189.649C275.962 194.21 283.098 196.111 292.34 192.645C296.443 191.106 299.736 188.028 302.532 184.013C305.339 179.982 307.488 175.236 309.397 170.655C314.264 158.975 317.961 146.76 321.509 134.418C321.577 134.082 321.645 133.768 321.709 133.48C321.778 133.169 321.887 132.877 322.028 132.608L322.297 131.668C322.828 129.809 324.765 128.733 326.624 129.264C328.482 129.795 329.558 131.732 329.027 133.59C328.79 134.419 328.553 135.25 328.314 136.081C327.697 139.176 326.985 144.11 327.189 148.628C327.305 151.182 327.706 153.348 328.403 154.918C329.071 156.42 329.88 157.123 330.815 157.414C332.664 157.987 334.412 157.241 335.727 155.197C337.118 153.033 337.327 150.361 336.491 148.69C336.196 148.1 336.083 147.466 336.132 146.853C336.059 145.894 336.38 144.91 337.099 144.163C338.438 142.769 340.654 142.725 342.048 144.065C343.467 145.43 346.302 147.377 349.136 148.37C352.179 149.435 353.593 148.932 354.232 148.166C354.246 148.15 354.257 148.137 354.266 148.127C354.285 148.104 354.294 148.094 354.297 148.083C354.299 148.073 354.296 148.061 354.291 148.041C354.288 148.029 354.285 148.014 354.281 147.996C354.223 147.708 353.983 147.153 353.35 146.36C352.411 145.185 351.079 144.061 349.976 143.241C348.914 143.033 347.853 142.654 346.862 142.02C345.234 140.978 344.759 138.813 345.801 137.185C346.841 135.56 349.001 135.083 350.628 136.119C351.228 136.072 351.845 136.18 352.413 136.454C352.87 136.447 353.418 136.4 354.072 136.296C355.061 136.138 355.983 135.914 356.912 135.668L357.846 135.416C358.482 135.242 359.132 135.064 359.818 134.896C361.248 134.547 362.515 134.207 363.543 133.698C364.543 133.202 364.91 132.745 365.054 132.375C365.101 132.253 365.119 132.169 365.126 132.115V132.033C365.123 132.013 365.103 131.912 364.96 131.718C364.621 131.261 363.896 130.694 362.812 130.152C358.234 127.863 353.442 128 347.486 128.595C347.211 128.623 346.94 128.617 346.678 128.583C345.992 129.356 345.194 130.066 344.274 130.691C342.676 131.778 340.498 131.364 339.411 129.765C338.324 128.167 338.739 125.99 340.338 124.903C343.209 122.951 343.946 118.257 341.705 114.589C341.241 113.831 340.788 113.579 340.383 113.461C339.877 113.313 339.115 113.291 338.032 113.548C335.796 114.079 333.313 115.509 331.3 116.791C329.669 117.828 327.506 117.348 326.468 115.717C325.43 114.087 325.91 111.923 327.541 110.885C329.554 109.604 332.917 107.568 336.415 106.738C338.199 106.315 340.276 106.139 342.34 106.74C344.504 107.37 346.352 108.769 347.679 110.939C349.492 113.907 350.342 117.717 349.872 121.36C355.016 120.997 360.507 121.173 365.943 123.891C367.441 124.64 369.297 125.811 370.588 127.555C372.018 129.488 372.681 132.073 371.577 134.912C370.558 137.531 368.492 139.058 366.65 139.97C364.836 140.869 362.851 141.361 361.48 141.696C361.121 141.784 360.665 141.908 360.145 142.049H360.144C359.815 142.139 359.459 142.236 359.086 142.335C359.96 143.491 360.809 144.948 361.144 146.618C361.549 148.634 361.157 150.791 359.61 152.647C355.985 156.998 350.491 156.261 346.822 154.976C345.769 154.607 344.73 154.153 343.733 153.646C343.366 155.58 342.618 157.422 341.614 158.983C339.141 162.829 334.455 165.872 328.741 164.099C325.345 163.045 323.237 160.526 322.008 157.761C321.943 157.616 321.881 157.47 321.82 157.323C320.013 162.72 318.053 168.079 315.858 173.347C313.926 177.984 311.541 183.326 308.276 188.014C305 192.719 300.684 196.992 294.797 199.2C283.113 203.581 273.477 201.109 265.713 195.229C258.683 189.905 253.248 181.851 248.866 174.054C230.826 189.828 206.55 196.348 183.342 195.603C164.854 195.009 144.387 189.527 128.968 178.457C118.228 170.746 110.386 161.205 106.299 150.255C103.783 143.517 102.727 136.332 103.232 128.844C100.546 111.811 99.6386 92.9191 110.768 77.0543C123.507 58.8942 148.384 50.7252 168.265 48.4176ZM230.639 70.2135C212.293 58.7721 189.744 53.2283 170.01 55.2672L169.072 55.3707C149.836 57.6035 127.494 65.3991 116.498 81.0738C110.006 90.3285 108.199 100.945 108.541 112.066C109.157 111.91 109.823 111.919 110.473 112.129C112.312 112.721 113.323 114.693 112.73 116.533C111.404 120.649 110.598 124.658 110.273 128.543C110.544 130.23 110.836 131.92 111.139 133.608C111.337 134.714 110.991 135.79 110.294 136.566C110.652 140.469 111.519 144.222 112.857 147.807C116.371 157.219 123.215 165.709 133.051 172.77C147.09 182.85 166.119 188.047 183.566 188.607C205.813 189.321 228.625 182.923 245.116 168.025C258.979 155.501 267.95 138.719 265.725 120.432C263.146 99.2438 249.262 81.8284 230.639 70.2135ZM181.939 136.044C186.461 133.979 190.603 136.276 193.147 138.589C195.771 140.975 197.795 144.263 198.734 146.86C199.552 149.12 200.135 152.905 199.643 156.303C199.395 158.018 198.825 159.978 197.549 161.59C196.163 163.341 194.123 164.443 191.585 164.501C187.708 164.589 184.25 162.799 181.625 160.589C178.98 158.363 176.849 155.443 175.591 152.596C175.025 151.316 175.288 149.879 176.147 148.887C176.034 147.912 175.992 146.923 176.033 145.949C176.183 142.408 177.546 138.05 181.939 136.044ZM188.438 143.768C186.633 142.126 185.507 142.109 184.847 142.411C183.903 142.842 183.124 143.933 183.026 146.244C182.93 148.527 183.604 151.014 184.413 152.47C184.686 152.961 184.828 153.49 184.851 154.015C185.254 154.446 185.684 154.856 186.133 155.234C187.973 156.783 189.826 157.539 191.426 157.503C191.855 157.493 191.952 157.383 192.06 157.246C192.279 156.97 192.562 156.365 192.716 155.3C193.028 153.142 192.613 150.518 192.151 149.241C191.574 147.644 190.165 145.338 188.438 143.768ZM150.601 114.522C151.993 113.181 154.209 113.222 155.55 114.615C157.648 116.794 158.991 119.413 160.063 121.677C160.291 122.159 160.506 122.621 160.713 123.066L160.714 123.069L160.715 123.07C161.549 124.865 162.255 126.382 163.175 127.761C164.247 129.37 163.812 131.543 162.204 132.615C160.596 133.687 158.422 133.252 157.35 131.644C156.102 129.772 155.117 127.645 154.269 125.816C154.086 125.42 153.909 125.037 153.737 124.674C152.696 122.477 151.754 120.766 150.507 119.47C149.166 118.078 149.208 115.863 150.601 114.522ZM200.552 77.3541C203.954 77.2978 207.513 78.48 210.071 81.8522C213.538 86.4226 214.977 92.0287 216.185 96.7398C216.397 97.5648 216.601 98.363 216.809 99.1227C217.317 100.987 216.217 102.911 214.352 103.42C212.488 103.928 210.563 102.829 210.055 100.964C209.796 100.016 209.556 99.0935 209.322 98.1969C208.086 93.4576 207.036 89.4336 204.494 86.0826C203.537 84.8211 202.294 84.3262 200.668 84.3531C198.906 84.3823 196.842 85.055 194.933 86.0963C192.894 87.2084 191.322 89.1135 189.873 91.7125C189.153 93.0037 188.502 94.3932 187.841 95.8648C187.688 96.2056 187.533 96.5557 187.375 96.9098H187.374C186.872 98.0372 186.349 99.2132 185.812 100.312C184.824 102.338 183.251 105.243 181.2 107.754C179.252 110.139 176.311 112.867 172.466 113.252C164.392 114.059 159.726 108.617 156.201 104.507L156.035 104.314L155.88 104.133C154.694 102.754 153.412 102.071 152.224 101.879C151.057 101.689 149.663 101.918 148.111 102.932C143.61 105.876 141.472 109.747 142.112 114.795C142.237 115.781 142.748 117.024 143.543 117.998C144.344 118.978 145.102 119.307 145.616 119.335C147.546 119.436 149.029 121.084 148.928 123.014C148.826 124.945 147.178 126.427 145.248 126.326C142.129 126.161 139.703 124.361 138.122 122.425C136.535 120.483 135.466 118.023 135.168 115.674C134.13 107.486 137.978 101.195 144.28 97.0738C147.118 95.2183 150.258 94.4684 153.345 94.9693C156.41 95.4668 159.103 97.144 161.188 99.5699C165.198 104.234 167.594 106.703 171.769 106.286C172.731 106.19 174.124 105.351 175.778 103.326C177.33 101.426 178.628 99.0747 179.521 97.2428C179.76 96.7534 179.993 96.2545 180.227 95.7408L180.941 94.149V94.148C181.108 93.7741 181.279 93.3905 181.456 92.9957C182.134 91.4866 182.886 89.8695 183.759 88.3033C185.496 85.1874 187.874 81.9726 191.581 79.9508C194.094 78.58 197.285 77.4083 200.552 77.3541ZM199.294 98.8961C201.126 98.2795 203.111 99.2652 203.727 101.097C204.462 103.281 204.969 105.604 205.427 107.701V107.704C205.535 108.199 205.64 108.682 205.745 109.147C206.322 111.708 206.918 113.912 207.882 115.839C208.746 117.568 208.045 119.67 206.316 120.535C204.587 121.399 202.485 120.699 201.62 118.97C200.251 116.232 199.51 113.317 198.917 110.687C198.788 110.114 198.666 109.557 198.548 109.016C198.097 106.958 197.694 105.113 197.094 103.33C196.477 101.498 197.462 99.5127 199.294 98.8961ZM64.7548 54.5318C65.2845 52.673 67.2211 51.5951 69.08 52.1246C74.3474 53.6255 79.1453 56.042 83.6357 58.4557C84.517 58.9294 85.3835 59.4009 86.2392 59.8668L88.9081 61.3131C91.5539 62.7323 94.1475 64.0586 96.8398 65.1832C98.6234 65.9283 99.4657 67.9787 98.7206 69.7623C97.9756 71.5457 95.926 72.3879 94.1425 71.6432C90.1863 69.9906 86.3797 67.9164 82.7617 65.9449L80.3222 64.6207C75.893 62.2399 71.6556 60.1375 67.1621 58.857C65.3031 58.3273 64.2251 56.3908 64.7548 54.5318ZM93.4384 5.94883C94.7436 4.52298 96.9579 4.42492 98.3837 5.73008C103.8 10.6882 107.656 16.7766 110.875 22.9645C112.486 26.0612 113.963 29.2328 115.39 32.3248L115.752 33.11C117.061 35.9485 118.333 38.7089 119.678 41.3795C120.547 43.1059 119.852 45.2103 118.126 46.0797C116.4 46.9487 114.295 46.2541 113.426 44.5279C112.024 41.7439 110.701 38.8744 109.401 36.0563L109.033 35.2574C107.604 32.1611 106.191 29.1275 104.665 26.1949C101.611 20.3243 98.2043 15.0554 93.6572 10.8932C92.2315 9.58806 92.1335 7.37465 93.4384 5.94883ZM142.202 0.263284C143.99 -0.471072 146.035 0.383454 146.769 2.17149C150.745 11.8498 153.768 19.2602 153.872 30.5045C153.89 32.4374 152.337 34.0189 150.404 34.0367C148.472 34.0543 146.891 32.5017 146.873 30.5689C146.783 20.7992 144.264 14.4955 140.294 4.83067C139.56 3.04262 140.414 0.997682 142.202 0.263284Z" fill="black"/>
</svg>
