<svg width="204" height="158" viewBox="0 0 204 158" fill="none" xmlns="http://www.w3.org/2000/svg">
<path d="M80.7779 79.1682C106.452 71.117 134.048 67.0451 161.106 69.0744C170.236 69.7592 179.737 71.3168 188.511 75.1174C191.005 76.1975 194.055 77.706 196.742 79.7463C199.405 81.7692 202.011 84.5418 203.109 88.2356C205.805 97.3052 201.525 105.246 196.029 111.252C190.505 117.288 183.127 122.102 177.885 125.276C157.945 137.351 136.029 145.054 113.751 150.609C90.7155 156.353 67.1008 159.422 43.1392 157.328C34.57 156.58 25.7517 155.398 17.2388 152.766C11.6699 151.044 6.49244 148.036 2.81791 142.967L2.46732 142.471C-0.669795 137.908 -0.442181 131.941 1.08646 127.565C3.62912 120.286 8.63382 114.728 14.0454 110.113C19.2971 105.634 25.658 101.498 30.4224 97.8791C31.9615 96.7101 34.1574 97.0092 35.3267 98.5481C35.4257 98.6784 35.5132 98.8146 35.5913 98.9533C49.7849 90.4965 65.1874 84.0572 80.7779 79.1682ZM160.583 76.0549C134.553 74.1027 107.852 78.0144 82.8716 85.8479C62.0892 92.3651 41.9059 101.627 24.7144 114.693C23.2578 115.8 21.2128 115.59 20.0064 114.26C19.5315 114.646 19.0572 115.038 18.5874 115.439C13.607 119.686 9.65215 124.27 7.69486 129.873C6.61727 132.958 6.78155 136.391 8.2349 138.505L8.47904 138.851C11.0403 142.386 14.7621 144.673 19.3072 146.078C27.1167 148.493 35.3592 149.622 43.7486 150.355C66.7203 152.362 89.5277 149.434 112.057 143.817C133.933 138.362 155.123 130.876 174.259 119.288C179.419 116.164 186.059 111.777 190.865 106.526C195.698 101.244 198.057 95.8094 196.399 90.2307C195.894 88.5313 194.568 86.8846 192.508 85.3205C190.472 83.7739 188.007 82.5272 185.729 81.5403C177.97 78.179 169.342 76.7118 160.583 76.0549ZM126.314 108.285C134.039 106.354 140.083 109.66 144.769 114.346C146.136 115.713 146.135 117.928 144.769 119.295C143.402 120.662 141.186 120.662 139.819 119.295C136.106 115.582 132.461 113.964 128.011 115.076C125.533 115.696 122.796 116.961 120.754 118.679C118.717 120.394 117.693 122.258 117.693 124.17C117.693 126.103 116.126 127.67 114.193 127.67C112.26 127.67 110.693 126.103 110.693 124.17C110.693 119.497 113.252 115.843 116.248 113.322C119.239 110.805 122.988 109.117 126.314 108.285ZM92.7398 92.9387C94.4687 92.0742 96.5716 92.7752 97.4361 94.5041C98.4052 96.4424 99.1558 98.4002 99.8316 100.233C100.525 102.114 101.122 103.813 101.845 105.499C102.607 107.276 101.784 109.334 100.007 110.095C98.2307 110.856 96.173 110.033 95.4117 108.256C94.5962 106.353 93.9086 104.402 93.2642 102.655C92.6017 100.858 91.9602 99.2066 91.1744 97.635C90.31 95.9062 91.0111 93.8033 92.7398 92.9387ZM136.826 81.0891C138.652 80.457 140.646 81.4256 141.278 83.2522C142.464 86.6787 143.05 90.1224 143.585 93.3323C143.902 95.2389 142.614 97.0427 140.708 97.3606C138.801 97.6782 136.997 96.39 136.679 94.4836C136.135 91.2202 135.629 88.333 134.663 85.5412C134.031 83.7148 134.999 81.7214 136.826 81.0891ZM149.887 31.6408C152.848 30.62 156.013 30.5021 158.817 30.8137C167.197 31.7449 172.663 38.6127 173.348 46.1516C173.523 48.0766 172.104 49.7792 170.179 49.9543C168.254 50.1293 166.552 48.7104 166.376 46.7854C165.947 42.0611 162.645 38.282 158.043 37.7707C156.57 37.6071 155.119 37.6235 153.796 37.8489C153.162 38.7423 152.119 39.3254 150.94 39.3254C150.494 39.3254 149.553 39.2885 148.634 38.7571C148.111 38.4547 147.453 37.9045 147.065 36.9963C146.665 36.0602 146.724 35.1462 146.935 34.4602C147.296 33.2888 148.117 32.6274 148.46 32.3772C148.918 32.042 149.415 31.8036 149.887 31.6408ZM194.337 24.4026C196.244 24.0848 198.048 25.3738 198.366 27.2805C198.683 29.187 197.395 30.99 195.489 31.3078C191.671 31.9441 189.098 33.6609 187.812 35.6662C186.593 37.5671 186.194 40.2445 187.739 43.7209C188.524 45.4873 187.729 47.556 185.962 48.341C184.196 49.1261 182.127 48.3301 181.342 46.5637C178.99 41.2703 179.244 36.06 181.918 31.8879C184.527 27.8201 189.088 25.2775 194.337 24.4026ZM158.708 3.00999C160.502 2.29246 162.538 3.16573 163.256 4.96018C164.142 7.17341 165.288 10.3715 165.498 13.6233C165.713 16.9531 164.954 20.8869 161.394 23.6213C157.092 26.9257 151.872 27.5307 147.147 26.6516C145.247 26.298 143.993 24.4709 144.346 22.5705C144.7 20.6703 146.527 19.4162 148.427 19.7698C151.733 20.3847 154.788 19.8686 157.13 18.0696C158.164 17.2752 158.642 16.0755 158.512 14.0744C158.378 11.9952 157.599 9.6647 156.757 7.55979C156.04 5.7651 156.913 3.72786 158.708 3.00999ZM173.023 0.0217064C174.944 -0.191757 176.675 1.19331 176.888 3.11448C176.972 3.86559 177.327 4.93447 177.953 6.24925C178.557 7.51997 179.294 8.77661 179.963 9.89768C181.635 12.6994 184.913 13.7374 188.997 13.0569C190.903 12.7391 192.707 14.0272 193.025 15.9338C193.343 17.8404 192.054 19.6442 190.148 19.9621C184.563 20.8929 177.693 19.7525 173.953 13.4846C173.282 12.361 172.393 10.8545 171.632 9.25706C170.893 7.70352 170.144 5.79851 169.931 3.88694C169.718 1.96601 171.102 0.235327 173.023 0.0217064Z" fill="black"/>
</svg>
