<svg width="317" height="236" viewBox="0 0 317 236" fill="none" xmlns="http://www.w3.org/2000/svg">
<path d="M298.353 0.121739C301.727 -0.307352 305.123 0.319113 306.967 3.27115C308.553 5.81133 308.136 8.89191 307.555 11.0563C306.92 13.4252 305.773 15.8429 304.596 17.8532C304.275 18.4027 303.936 18.9419 303.592 19.4606C304.69 19.2282 305.82 19.0692 306.926 19.028C308.827 18.9574 311.151 19.2086 313.116 20.5104C315.297 21.955 316.459 24.2982 316.55 27.1315C316.717 32.3485 313.969 36.0627 310.635 38.4919C307.396 40.8523 303.388 42.1949 300.133 42.9489C299.42 43.1138 298.708 43.0483 298.075 42.8014C298.327 43.6501 298.247 44.5637 297.858 45.3512C297.89 45.5063 297.916 45.6343 297.933 45.7126C298.261 47.2113 298.777 48.4692 299.407 50.401C299.984 52.1705 300.572 54.3113 300.517 56.734C300.396 62.1003 297.13 65.828 293.184 67.6315C289.358 69.3802 284.607 69.4848 280.72 67.5749C278.986 66.7224 278.271 64.625 279.123 62.8903C279.975 61.1556 282.073 60.4404 283.807 61.2926C285.659 62.2027 288.201 62.2134 290.274 61.2663C292.227 60.3736 293.469 58.8021 293.519 56.5768C293.547 55.3591 293.26 54.1269 292.753 52.5719C292.299 51.1796 291.522 49.1597 291.095 47.2067C291.063 47.0562 290.776 45.8006 290.673 44.7565C290.645 44.4841 290.62 44.1303 290.632 43.7633C290.638 43.5595 290.654 42.7032 291.122 41.8463C291.401 41.3341 292.016 40.5153 293.16 40.1325C294.314 39.7462 295.312 40.0362 295.869 40.2975C295.89 40.3077 295.911 40.3193 295.932 40.3297V40.3288C295.496 38.4457 296.67 36.5657 298.553 36.1296C301.395 35.4716 304.362 34.4002 306.512 32.8337C308.568 31.3358 309.626 29.6076 309.553 27.3551C309.524 26.4336 309.259 26.3502 309.25 26.3463C309.031 26.2014 308.416 25.9765 307.187 26.0221C304.724 26.1136 301.758 27.2051 300.492 27.9401C298.82 28.9106 296.678 28.3422 295.708 26.6706C294.977 25.4121 295.118 23.8866 295.946 22.7956C295.944 22.7933 295.941 22.791 295.939 22.7887C294.592 21.4024 294.624 19.1856 296.01 17.8385C296.575 17.2898 297.557 16.0217 298.555 14.3171C299.537 12.6408 300.373 10.8142 300.795 9.24283C301.139 7.9576 301.084 7.31103 301.044 7.07779C300.81 7.00724 300.284 6.93281 299.236 7.06608C293.027 7.85609 287.838 10.6779 282.586 14.8219C281.874 15.383 279.821 16.9187 278.292 18.4547C278.152 18.5951 278.023 18.7301 277.906 18.8571C278.15 19.558 278.175 20.3418 277.925 21.1012C277.32 22.937 275.341 23.9351 273.506 23.3307C272.462 22.9871 271.152 22.1979 270.563 20.6022C270.252 19.76 270.249 18.9637 270.358 18.3014C270.294 18.1741 270.236 18.0416 270.186 17.904C268.766 13.9674 267.137 11.394 264.392 10.5241C259.911 9.10387 255.329 11.0709 253.68 15.0485C253.179 16.2591 252.952 18.2936 253.107 20.7497C253.257 23.1309 253.736 25.4667 254.273 27.0407C254.372 27.3317 254.479 27.5965 254.592 27.8463C255.747 27.6632 256.967 28.0617 257.789 29.0094C258.922 30.3165 258.914 32.2241 257.853 33.5182C258.088 34.9147 257.457 36.3726 256.16 37.1256C255.295 37.6279 254.303 37.7167 253.414 37.4547C242.739 46.8068 232.283 56.3218 221.576 65.7975C213.826 72.6558 206.516 80.0969 198.647 87.527C190.916 94.8265 182.805 101.951 173.826 107.775C173.469 118.809 170.64 129.751 165.86 140.352L165.399 141.36C156.677 160.177 141.217 175.861 122.878 185.896C130.135 185.487 137.33 185.258 144.292 184.951C173.448 183.664 202.529 181.11 231.724 178.715C232.04 177.455 232.422 176.041 232.858 174.553C233.85 171.17 235.158 167.266 236.662 163.773C238.105 160.422 239.934 156.945 242.14 154.868C243.081 153.982 244.087 153.141 245.136 152.532C246.175 151.929 247.575 151.368 249.189 151.532C250.912 151.707 252.225 152.634 253.152 153.735C254.026 154.773 254.669 156.083 255.189 157.462C256.843 161.844 258.38 166.453 259.539 171.135C261.51 170.315 263.876 169.671 266.278 169.3C269.251 168.842 272.598 168.751 275.586 169.459C278.561 170.164 281.741 171.826 283.218 175.304C284.642 178.656 284.595 181.862 283.176 184.658C281.84 187.29 279.506 189.123 277.188 190.394C276.023 191.033 274.776 191.577 273.505 192.037C274.74 192.597 275.955 193.266 276.993 194.113C278.192 195.091 279.229 196.346 279.902 197.975C280.567 199.586 280.797 201.369 280.676 203.305C280.261 210.01 275.675 214.458 270.497 216.553C266.865 218.023 262.644 218.481 258.716 217.742C258.671 217.817 258.624 217.891 258.573 217.963C258.573 217.979 258.573 217.997 258.574 218.014C258.588 218.344 258.624 218.668 258.673 219.174C258.705 219.514 258.761 220.085 258.741 220.665L258.727 220.914C258.61 222.45 258.233 224.424 257.615 226.297C257.029 228.071 256.063 230.264 254.484 231.779C250.579 235.525 245.947 236.564 241.619 235.295C237.498 234.086 234.099 230.929 231.9 227.142C230.93 225.471 231.498 223.329 233.17 222.358C234.841 221.387 236.983 221.956 237.954 223.628C239.498 226.286 241.608 227.997 243.59 228.578C245.363 229.098 247.428 228.847 249.637 226.727C249.961 226.416 250.489 225.551 250.967 224.101C251.414 222.749 251.674 221.332 251.747 220.381L251.742 220.304C251.737 220.225 251.728 220.082 251.705 219.846C251.671 219.492 251.604 218.883 251.58 218.302C251.556 217.725 251.557 216.908 251.759 216.061C251.877 215.57 252.082 214.987 252.442 214.417C252.08 213.524 252.085 212.488 252.543 211.555C253.395 209.821 255.493 209.105 257.227 209.958C260.198 211.417 264.368 211.481 267.87 210.064C271.297 208.677 273.486 206.166 273.69 202.872C273.76 201.75 273.606 201.07 273.431 200.647C273.265 200.244 273.006 199.894 272.568 199.537C271.496 198.662 269.856 198.059 267.082 197.047C267.251 197.108 267.055 197.022 266.177 197.052C265.439 197.078 264.6 197.165 263.749 197.257C263.088 197.329 262.026 197.457 261.32 197.43C261.15 197.424 260.668 197.403 260.132 197.225C259.865 197.137 259.3 196.92 258.761 196.406C258.121 195.795 257.623 194.848 257.662 193.711C257.695 192.742 258.108 192.06 258.328 191.751C258.567 191.413 258.818 191.181 258.967 191.053C259.117 190.924 259.269 190.812 259.407 190.719C259.394 188.875 260.826 187.32 262.689 187.204C265.663 187.018 270.445 186.108 273.822 184.257C275.499 183.337 276.485 182.371 276.933 181.489C277.298 180.77 277.5 179.746 276.775 178.041C276.509 177.416 275.801 176.704 273.971 176.27C272.154 175.839 269.78 175.844 267.345 176.219C264.918 176.594 262.747 177.288 261.381 177.987C261.168 178.096 260.99 178.2 260.842 178.292C260.651 179.43 259.903 180.451 258.761 180.936C256.982 181.692 254.926 180.862 254.171 179.083L254.089 178.875C253.816 178.143 253.762 177.449 253.837 176.816C253.637 176.485 253.488 176.116 253.405 175.716C252.311 170.436 250.592 165.104 248.64 159.933C248.474 159.492 248.322 159.153 248.193 158.896C247.865 159.139 247.45 159.482 246.938 159.964C245.87 160.969 244.506 163.253 243.091 166.541C241.736 169.687 240.519 173.303 239.576 176.521C239.022 178.409 238.578 180.113 238.259 181.462C238.517 182.179 238.545 182.985 238.282 183.763C238.091 184.328 237.911 184.821 237.744 185.211C237.664 185.396 237.553 185.642 237.412 185.886C237.343 186.006 237.223 186.201 237.052 186.413C236.939 186.554 236.529 187.059 235.81 187.408C235.404 187.605 234.771 187.813 233.989 187.752C233.162 187.686 232.463 187.341 231.953 186.897C231.535 186.534 231.269 186.13 231.1 185.79C202.363 188.152 173.517 190.668 144.599 191.944C129.002 192.632 113.14 192.927 98.0759 195.472C95.7503 196.022 93.406 196.482 91.0485 196.849C90.6845 196.931 90.3206 197.012 89.9577 197.097C89.5671 197.189 89.1763 197.21 88.7985 197.171C72.9923 199.222 56.6933 197.043 41.6833 189.354C24.2463 180.422 8.85455 163.545 5.41866 143.08L5.25362 142.043C4.63523 137.957 4.42858 133.954 4.58077 130.036C3.99674 130.226 3.35561 130.266 2.71358 130.118C0.830314 129.683 -0.34451 127.803 0.0905333 125.92C2.8276 114.076 6.234 103.785 12.3825 92.8756C18.4466 82.1159 26.7547 71.7291 35.9235 63.4489C47.4835 53.0093 60.8817 43.8468 75.9509 38.6032C88.1117 34.3717 100.541 34.5545 112.662 36.1784C134.968 39.1669 157.287 53.8649 166.981 74.7047C170.795 82.9042 172.935 91.1908 173.62 99.4606C180.684 94.4683 187.301 88.6122 193.842 82.4372C201.434 75.268 209.098 67.4928 216.936 60.5563C227.563 51.1519 238.168 41.5034 248.915 32.0895C248.462 31.3047 248.024 30.4022 247.648 29.2995C246.889 27.073 246.305 24.1186 246.121 21.1901C245.941 18.3363 246.107 15.0395 247.214 12.3688L247.369 12.0085C250.703 4.50243 259.149 1.51909 266.508 3.85123L267.076 4.04459C271.164 5.54131 273.603 8.68169 275.189 11.8014C276.598 10.5834 277.909 9.59543 278.251 9.32584C284.052 4.74884 290.416 1.13147 298.353 0.121739ZM111.732 43.1169C100.113 41.5602 88.9327 41.4975 78.2507 45.2145C64.3316 50.058 51.7258 58.6094 40.6149 68.6432C35.8147 72.9783 31.2562 77.9425 27.1745 83.237C27.2418 83.2792 27.3085 83.3234 27.3737 83.3708C28.9378 84.5065 29.2847 86.6953 28.1491 88.2594C16.364 104.49 9.03513 122.343 12.322 141.922C15.3041 159.683 28.8841 174.932 44.8757 183.124C59.0365 190.378 74.5824 192.28 89.7214 189.972C92.0186 189.461 94.3368 189.01 96.6706 188.613C101.332 187.5 105.927 185.997 110.402 184.135C131.482 175.366 149.611 158.778 159.049 138.417L159.477 137.479C168.366 117.772 169.811 97.3841 160.634 77.6569C152.067 59.2386 131.965 45.8276 111.732 43.1169ZM143.65 114.063C145.322 113.093 147.464 113.661 148.434 115.333C150.161 118.307 151.716 121.672 151.855 125.234C152.004 129.044 150.526 132.594 147.199 135.762C143.613 139.178 139.424 140.267 135.348 139.854C131.418 139.456 127.715 137.689 124.664 135.637C123.06 134.559 122.634 132.384 123.713 130.78C124.791 129.176 126.966 128.75 128.57 129.829C131.083 131.518 133.682 132.65 136.052 132.89C138.278 133.115 140.392 132.58 142.372 130.694C144.434 128.73 144.922 127.059 144.861 125.507C144.791 123.708 143.961 121.57 142.381 118.847C141.41 117.176 141.978 115.034 143.65 114.063ZM84.2907 88.6081C85.3011 87.5626 87.1093 86.1932 89.5769 86.3864L89.8181 86.4098L90.198 86.4684C92.0608 86.8247 93.3609 88.0899 94.0192 88.8053C94.7946 89.648 95.5054 90.6894 95.778 91.0592C97.5627 93.48 99.7907 96.6945 100.931 100.145C103.933 109.225 101.45 117.856 97.5739 125.275C96.7866 126.782 95.0563 127.476 93.4851 127.012C92.4271 129.008 90.3043 129.434 89.2653 129.507C87.9816 129.598 86.6296 129.352 85.5798 129.1C83.4916 128.6 81.0695 127.663 80.6335 127.519C77.5381 126.5 73.9912 125.02 70.8503 122.881C67.713 120.743 64.7749 117.805 63.2751 113.813C62.426 111.553 62.0621 108.539 62.8317 105.867C63.2301 104.484 63.9864 103.02 65.3249 101.899C66.7067 100.742 68.4387 100.175 70.3366 100.186C73.1112 100.202 75.7804 101 78.0866 101.907C78.5929 102.106 79.1003 102.32 79.6032 102.539C79.5986 102.415 79.594 102.312 79.5925 102.234L79.5915 101.585C79.6425 98.3152 80.5266 94.7232 82.029 91.8678L82.2077 91.5348C82.6584 90.7123 83.3513 89.5801 84.2907 88.6081ZM89.0651 93.7751C88.7807 94.1398 88.494 94.6151 88.2243 95.1276C87.1839 97.1049 86.5473 99.8183 86.5905 102.101C86.594 102.284 86.6108 102.605 86.6374 102.983C88.3685 103.825 89.0964 105.908 88.2624 107.645C88.0001 108.192 87.5843 108.951 86.9235 109.561C86.5896 109.869 86.0594 110.259 85.3269 110.478C84.3166 111.437 82.7866 111.739 81.446 111.118C79.389 110.164 77.5363 109.213 75.5251 108.423C73.5529 107.647 71.8172 107.196 70.2966 107.187C70.0558 107.186 69.9276 107.219 69.8786 107.236C69.8345 107.251 69.8226 107.262 69.819 107.265C69.8097 107.273 69.676 107.392 69.5573 107.804C69.292 108.726 69.3853 110.173 69.8278 111.351C70.6534 113.548 72.3828 115.454 74.7917 117.095C77.1971 118.734 80.0761 119.966 82.823 120.871C83.8879 121.221 85.4787 121.877 87.2097 122.292C87.6298 122.392 87.9667 122.452 88.2233 122.487C89.0983 121.749 90.3152 121.458 91.4851 121.808C94.8689 115.253 96.4127 108.779 94.2849 102.341C93.5271 100.049 91.9187 97.6194 90.1442 95.2126C90.0308 95.0587 89.9078 94.8882 89.8024 94.7419C89.6908 94.5869 89.5841 94.4396 89.4753 94.2936C89.3311 94.1002 89.1935 93.9285 89.0651 93.7751ZM124.863 52.571C128.59 52.2384 130.863 55.1342 131.76 56.6803C132.986 58.7907 133.548 61.3013 133.922 63.278L134.251 65.0417C134.893 68.2799 135.113 71.6651 135.106 74.8171C135.092 81.5368 132.274 86.7947 128.745 91.5368C127.591 93.0871 125.399 93.4083 123.848 92.2546C123.467 91.971 123.16 91.6249 122.931 91.2409C122.247 91.0319 121.667 90.6294 121.242 90.1061C121.126 90.0468 121.033 89.9979 120.985 89.9743C118.333 88.6709 115.933 87.2659 113.513 85.4567L113.029 85.0895C110.756 83.3403 107.748 80.9697 105.301 78.1315C102.873 75.3146 100.65 71.6422 100.591 67.2721C100.561 65.0932 101.215 63.0233 102.876 61.5612C104.431 60.1923 106.34 59.8305 107.843 59.7946C110.79 59.7244 113.938 60.857 115.775 61.7467C116.399 62.049 117.004 62.3652 117.592 62.6921C118.025 60.6013 118.787 58.6473 119.348 57.4274L119.58 56.9508C119.851 56.4229 120.237 55.7603 120.711 55.1315C121.027 54.7116 121.454 54.2095 121.99 53.7672C122.464 53.3756 123.243 52.8478 124.286 52.6481L124.498 52.613L124.863 52.571ZM125.707 60.3522C125.222 61.407 124.596 63.0906 124.35 64.6325C124.228 65.4019 124.229 65.9658 124.29 66.3219C124.307 66.4243 124.326 66.4888 124.339 66.5251C124.867 67.0214 125.208 67.6464 125.356 68.3083C126.765 69.5926 126.889 71.7737 125.623 73.2087C124.344 74.6578 122.132 74.796 120.682 73.5172C118.13 71.2656 115.657 69.467 112.724 68.0465C111.328 67.3701 109.354 66.7617 108.01 66.7936C107.829 66.798 107.696 66.8145 107.603 66.8307C107.594 66.9142 107.587 67.0274 107.589 67.1764C107.616 69.1764 108.655 71.3001 110.604 73.5612C112.535 75.8009 115.021 77.7905 117.298 79.5417C119.447 81.1955 121.577 82.4661 124.072 83.6921C124.199 83.7545 124.707 84.0083 125.212 84.2868C127.054 81.2314 128.099 78.2365 128.106 74.8034C128.112 71.9584 127.911 69.0582 127.384 66.403L127.011 64.4606C126.675 62.7125 126.377 61.3905 125.747 60.2702C125.732 60.3005 125.718 60.3281 125.707 60.3522Z" fill="black"/>
</svg>
