<svg width="269" height="100" viewBox="0 0 269 100" fill="none" xmlns="http://www.w3.org/2000/svg">
<path d="M246.495 14.3604C202.623 8.63801 164.111 25.2685 139.384 62.3604C126.723 81.3515 153.173 111.298 165.695 88.7604C177.372 67.7436 140.477 41.2165 124.895 37.1159C91.0864 28.2189 58.4186 30.3604 24.0949 30.3604" stroke="#1C1C1C" stroke-width="5" stroke-linecap="round"/>
<path d="M19.2949 20.7604C15.6315 23.1333 -4.20812 31.7048 5.7838 35.3382C10.8764 37.19 15.798 40.976 20.8949 43.1604" stroke="#1C1C1C" stroke-width="5" stroke-linecap="round"/>
<path d="M244.895 3.1604C246.906 4.24499 264.841 10.972 265.606 13.6493C266.305 16.0952 262.283 16.3914 260.895 17.5604C257.144 20.7188 254.126 21.3131 251.295 25.5604" stroke="#1C1C1C" stroke-width="5" stroke-linecap="round"/>
</svg>
