<svg width="115" height="144" viewBox="0 0 115 144" fill="none" xmlns="http://www.w3.org/2000/svg">
<path d="M111.8 141.328C99.1856 139.225 63.1293 133.642 62.2 114.128C61.8133 106.008 65.8815 94.642 72.6 89.4165C87.0279 78.1951 110.976 93.1666 91.0889 106.839C79.9361 114.506 64.001 108.287 52.7778 103.728C36.2341 97.0068 28.3565 83.8692 21.4889 68.261C18.0012 60.3344 10.228 20.1417 12.6 21.3277" stroke="#1C1C1C" stroke-width="5" stroke-linecap="round"/>
<path d="M7.80005 6.92772C10.1976 8.23305 28.2313 18.8187 26.2 17.2388C23.5414 15.1709 20.5849 13.3126 18.2 10.9277C15.3785 8.10607 11.8893 6.03926 9.40002 2.92766C7.21568 0.197227 3 18.1038 3 21.3277" stroke="#1C1C1C" stroke-width="5" stroke-linecap="round"/>
</svg>
