<svg width="228" height="64" viewBox="0 0 228 64" fill="none" xmlns="http://www.w3.org/2000/svg">
<path d="M3 32.5063C12.5757 16.4918 25.0064 -3.90124 45.8445 5.30632C61.3254 12.1467 63.6639 31.4434 83 30.9063C102.845 30.3551 116.008 13.3655 132.6 5.30632C150.012 -3.15071 166.083 11.4664 175.711 25.3063C185.728 39.7058 197.218 45.7715 213.4 38.1063C230.822 29.854 204.463 30.9063 197.4 30.9063C191.953 30.9063 200.98 29.0869 203.711 29.6619C210.183 31.0244 219.042 27.8326 224.511 29.3952C225.998 29.82 220.646 38.3036 220.245 39.6174C217.795 47.6349 215.8 52.6844 215.8 61.3063" stroke="#1C1C1C" stroke-width="5" stroke-linecap="round"/>
</svg>
