<svg width="385" height="500" viewBox="0 0 385 500" fill="none" xmlns="http://www.w3.org/2000/svg">
<g clip-path="url(#clip0_365_4747)">
<path opacity="0.4" d="M228.171 397.27L181.091 370.09C178.901 368.82 179.171 366.61 181.711 365.15L227.551 338.68C230.091 337.22 233.921 337.06 236.111 338.32L283.181 365.5C285.381 366.77 285.101 368.98 282.571 370.44L236.721 396.91C234.191 398.38 230.361 398.53 228.171 397.27Z" fill="#D6D8E5"/>
<path opacity="0.4" d="M207.391 381.01V381.02L88.4709 449.67L19.8809 489.27L21.4009 490.15L89.9909 450.54L208.901 381.89L207.391 381.01Z" fill="#D6D8E5"/>
<path d="M287.999 362.37L285.679 363.08L239.449 336.38C237.259 335.12 233.449 335.28 230.899 336.74L185.049 363.21L184.939 363.28L182.939 362.67V365.67C182.939 365.78 182.939 365.89 182.939 366.01V366.25C183.022 366.649 183.195 367.024 183.444 367.347C183.694 367.669 184.014 367.93 184.379 368.11L231.459 395.29C233.649 396.55 237.459 396.4 240.019 394.93L285.999 368.5C286.534 368.261 287.002 367.896 287.364 367.436C287.727 366.976 287.972 366.435 288.079 365.86L287.999 362.37Z" fill="#D5D6E0"/>
<path d="M231.55 392.14L184.47 365C182.28 363.74 182.56 361.53 185.09 360.07L230.94 333.6C233.47 332.13 237.3 331.97 239.49 333.24L286.57 360.42C288.76 361.69 288.49 363.9 285.95 365.36L240.11 391.83C237.57 393.25 233.74 393.41 231.55 392.14Z" fill="#E9EAF4"/>
<path d="M255.379 360.25V356.25L249.679 357.75L236.999 350.4C236.486 350.167 235.926 350.058 235.363 350.082C234.8 350.106 234.25 350.263 233.759 350.54L221.429 357.66L215.599 356.12V360.43V361.43C215.594 361.47 215.594 361.51 215.599 361.55V361.65C215.631 361.801 215.697 361.943 215.792 362.064C215.888 362.186 216.01 362.284 216.149 362.35L233.999 372.74C234.512 372.972 235.072 373.082 235.635 373.059C236.197 373.037 236.747 372.883 237.239 372.61L254.619 362.61C254.821 362.519 254.997 362.381 255.133 362.206C255.269 362.032 255.36 361.827 255.399 361.61V360.29L255.379 360.25Z" fill="#D5D6E0"/>
<path d="M234 367.33L216.13 357C215.3 356.52 215.4 355.68 216.36 355.13L233.74 345.13C234.235 344.852 234.788 344.695 235.355 344.672C235.921 344.65 236.485 344.762 237 345L254.84 355.3C255.67 355.78 255.57 356.62 254.61 357.18L237.23 367.18C236.741 367.455 236.194 367.611 235.633 367.637C235.072 367.663 234.513 367.558 234 367.33Z" fill="#E9EAF4"/>
<path d="M235.48 356.16L129.08 260.92L342.17 256.93L235.48 356.16Z" fill="url(#paint0_linear_365_4747)"/>
<path d="M233.41 302.64C316.982 302.64 384.73 234.892 384.73 151.32C384.73 67.7483 316.982 0 233.41 0C149.838 0 82.0898 67.7483 82.0898 151.32C82.0898 234.892 149.838 302.64 233.41 302.64Z" fill="#E9EAF4"/>
<path d="M193.611 61.31L194.121 59.52V55.64C193.4 55.7265 192.671 55.7265 191.951 55.64C191.571 55.47 191.831 54.41 191.831 54.41L193.611 52.88L190.041 53.64L188.761 55.64L184.761 58.11L186.551 59.11L187.701 59.87L189.421 60.13V59C189.421 59 191.421 58.49 191.911 59.25L191.661 60.66L193.611 61.31ZM149.391 116.56C148.875 116.328 148.316 116.208 147.751 116.208C147.185 116.208 146.626 116.328 146.111 116.56C146.119 117.258 145.858 117.932 145.38 118.44C144.903 118.949 144.247 119.254 143.551 119.29L146.471 120.92L149.391 119.83L153.211 118.56L156.481 120.92C158.941 117.92 156.481 116.19 156.481 116.19L149.391 116.56ZM211.491 172.19L208.661 171.59L203.741 168.46H199.421L195.691 166.53H194.201C194.201 166.53 194.501 164.44 194.051 164.29C193.601 164.14 190.331 162.2 190.331 162.2L187.791 163.1V161.31L186.001 160.56H184.511L184.661 159.07C184.661 159.07 186.001 156.42 185.261 155.96C184.521 155.5 181.831 149.53 181.831 149.53L177.831 147.29H173.511L169.781 143.72L166.061 140.72L163.971 136.55L161.731 135.06C161.731 135.06 159.201 136.7 158.601 136.55C158.001 136.4 154.281 135.06 154.281 135.06L151.151 134.17L147.241 136V140L145.751 139V137.5L147.091 134.97L147.691 133.18L146.351 132.59L144.561 134.67L140.091 136L139.191 137.94L137.101 139.88L136.511 141.52L133.231 138.84C132.125 139.419 130.978 139.917 129.801 140.33C128.592 139.688 127.444 138.939 126.371 138.09L124.731 134.96L125.631 130.79L126.371 126.46L123.541 124.67H119.661L116.661 123.78L118.061 121.54L119.701 118.26L121.191 115.88C121.191 115.88 121.611 114.79 122.091 114.54C123.991 113.54 122.091 112.6 122.091 112.6C122.091 112.6 118.091 112.3 117.471 112.6C116.851 112.9 115.231 113.79 115.231 113.79V117.22L112.231 118.56L107.611 119.56L104.481 116.42C104.031 115.98 102.991 111.06 102.991 111.06L104.921 109.27L105.821 107.78L105.971 104.2L107.901 102.56L108.651 100.62L110.871 99L113.001 97.05L114.941 96.46L117.621 97.05C117.771 96.05 122.691 96.46 122.691 96.46L124.631 96.36L124.481 95.27C125.381 94.52 128.361 95.27 128.361 95.27L132.361 94.93C133.241 95.12 133.981 96.93 133.981 96.93L132.191 98.57L133.391 102.14L134.581 103.78L134.131 105.42L137.001 105L137.141 102.16L137.291 98.73L136.851 94.97L139.531 89.19L150.411 82.19L150.261 79.65L151.001 76L152.941 76.67L156.371 72.6L160.841 71.12L163.521 69.3L164.861 66.61L169.781 65.12L174.701 62.59L172.441 65L172.141 67.09L174.821 66.49L177.211 65.15L179.291 64.56L181.231 63.96L181.831 62.62H180.491L178.401 61.87C177.061 60.87 175.401 59.64 175.401 59.64C175.37 59.3964 175.393 59.149 175.469 58.9155C175.545 58.6821 175.672 58.4684 175.841 58.29L177.191 57.08C177.191 57.08 177.781 56.36 177.341 56.36C176.901 56.36 173.611 55.64 173.611 55.64L170.031 57.08H168.001L170.541 54.87H173.371L176.501 54.12H183.001L186.581 53.37L189.131 52L192.261 51.68L193.161 48.33L191.071 46.54L188.071 44.99L187.471 41.47L185.831 37.89H184.341L184.191 39.83H181.811L181.211 41.02L180.321 41.62L178.831 41.92L177.481 40.57L179.271 38.64L177.191 36.7L174.651 35.36H172.001L170.061 35.95L167.381 39.08L165.291 40.87L165.891 42.51L165.131 45L165.581 46L163.041 46.9L160.211 47.49L159.021 47.19L158.121 48.39L159.761 51.74L158.121 52.86H155.891L154.001 50.43L153.551 49.05L154.891 48.31L153.891 46.52L150.761 46.37L146.591 43.78H144.651L144.201 42.19L142.861 41.6L144.801 39.36L147.631 37.72L152.551 35.93L154.341 35.34L158.211 34.44L160.811 33L163.191 30.91H166.321L170.051 29.97H172.441L173.441 27.19H168.671L166.881 28.56H163.751C163.086 27.904 162.263 27.4319 161.361 27.19V26.09L163.001 24.6L165.131 23C165.875 22.0485 166.478 20.9942 166.921 19.87L171.241 21.36L174.511 21.19L176.761 21.06L179.591 21.21L181.231 21.81C180.781 23 179.001 22.11 179.001 22.11L173.631 22.7L171.241 24L171.991 22.36L169.451 22.51L166.451 24.44L168.541 25.49H173.461L176.141 26.49L178.381 25.6L180.761 26.49L183.601 27.39L180.171 28.46L177.171 29.87L174.171 30.52L171.791 31.41L172.791 33.5L179.051 33.35L183.001 35.78H186.281L186.431 34.44L187.171 33.1L188.671 32.8L187.471 31.16L187.031 29.92H188.811L190.311 31.01C191.501 31.91 194.031 29.92 194.031 29.92L197.761 28.51L193.141 27.14L191.651 25.65C192.091 24.75 186.731 23.41 186.731 23.41L182.551 20.88L181.551 19.83H178.001L180.831 18.64L187.831 19.38L191.411 18.64L199.611 16.55L205.121 15.21L209.121 13.72L204.491 13C204.491 13 201.211 13.9 200.761 13.9C200.311 13.9 196.441 14.2 195.991 14.2H185.551L182.281 14.94L185.281 15.69L183.491 16.69H180.361L178.571 17.29L180.951 15.5L178.421 14.9L175.291 15.65L171.411 17.88L173.201 18.48L175.741 17.48L177.821 17.92L175.591 18.52L174.691 19.71L176.181 20.16L172.181 20.46L165.181 19.27L162.351 22.69L156.681 26.69L158.171 27.88L157.171 28.51L155.831 29.22L151.951 28.51L146.591 29.92L136.751 32.35L103.861 64L90.7406 81.1L83.1406 126.72L96.5506 122.25L98.6406 124.48L102.221 125.08L104.611 126.57L107.141 125.57L109.231 127.66L113.851 130.19L118.321 130.79L119.661 135.26C119.661 135.26 122.791 138.09 122.661 138.69C122.531 139.29 123.661 141.97 124.301 141.97C125.792 142.503 127.24 143.152 128.631 143.91L131.161 144.2L132.161 141.97H134.401V144.2L135.301 145.4L135.591 148.82L136.491 151.36L135.001 153L132.611 156L129.611 160.15L129.911 164.15L129.161 166.83L131.401 167.58L129.461 170.26C129.857 171.384 130.19 172.529 130.461 173.69C130.923 174.969 131.471 176.215 132.101 177.42L134.191 179.21L135.091 182.21L140.161 192.64L143.731 195.64L148.951 198.32C148.951 198.32 152.231 201.9 152.381 202.32C152.531 202.74 154.171 209.32 154.171 209.32L154.101 213L155.101 216.87L155.401 221.2L155.851 227.2L157.341 231.97L158.681 238.23L157.041 240.32L158.041 243.41L159.241 247.92L161.321 250.16L161.181 253.74L161.621 257.31L170.871 267.15L172.651 269.09V264.47L175.651 262.74V260L172.651 258.66V256.57L174.121 255.23L175.601 252.84V250.9C176.831 250.46 175.601 249.11 175.601 249.11H173.551L173.401 247.18H175.341L176.141 248.37L177.721 247.18L176.531 244.79C176.831 244.05 178.921 244.79 178.921 244.79L182.491 242.7L183.981 240.92V238.53L182.281 237L180.781 234.61H182.571C182.571 234.61 185.261 235.96 186.151 234.61C187.041 233.26 188.391 231.48 188.391 231.48L190.031 227.61C190.031 227.61 193.161 221.94 193.461 221.49C193.761 221.04 193.461 215.49 193.461 215.49L198.381 211.49H201.661L204.341 207.01L206.431 204.07V199.07L207.171 194.3L206.001 189.64L210.171 184.12L213.301 181.12L212.111 175.61L211.491 172.19ZM244.711 55.05L245.711 55.64L247.071 54.46H249.001L250.781 53.86L251.581 52.76L251.201 51.24L251.961 50.43C252.051 49.2 250.101 48.31 250.101 48.31H249.001L247.641 49.88H246.201L245.691 51.66L245.901 53L244.711 53.74V55.05ZM253.711 43.78L252.191 44.46V46.75L252.361 47.34C252.472 47.8119 252.529 48.295 252.531 48.78L253.631 49.54L254.731 50.22L255.241 51.22C255.241 51.22 255.071 52.22 254.481 52.22L253.121 52.65L253.631 53.58C253.631 53.58 252.631 54.09 252.531 54.51L253.461 55.19L252.611 56.04H250.751V57.04H254.651L256.261 56.04L258.631 56.46C258.631 56.46 260.581 56.04 261.001 56.04L260.661 55.61L261.261 54.85L262.191 53.75L261.001 53.27L259.651 52.85L259.821 51.41L258.541 50.41L256.601 49.35L256.431 47.4L256.601 45.71H254.601L254.181 44.86L255.361 43.76L253.711 43.78ZM264.811 51.07V50.43H266.171L266.931 49.88V47.76L267.931 47.25L267.591 45.56L266.001 45L263.631 45.76V47L262.191 47.17L261.851 48.31L262.851 48.78L261.241 49.71L260.811 50.43L262.171 51.66L264.811 51.07ZM350.211 102.44L355.811 105.44L358.701 104.32L360.621 107.04L365.751 108.17L367.991 109.29L374.241 92.79L372.451 84L344.451 38.18L336.091 32H326.001L321.511 32.64L320.391 34.89L318.001 34L316.871 32H314.621L315.621 33L316.431 34.61H312.901V36.6L310.381 36.23L308.851 36L307.991 36.43L308.791 36.92L309.901 37.17L308.901 37.54L307.561 37L305.891 36.44L305.391 35.33L304.161 34.33L302.741 34.14L301.741 32.97L303.921 33.16L305.841 34.02L307.441 34.21C307.441 34.21 308.441 33.96 308.551 34.14C309.315 34.3841 310.103 34.5515 310.901 34.64L312.201 33.64L310.001 32L306.101 30.85C306.101 30.85 299.551 29.95 299.241 29.97C298.3 29.7336 297.372 29.4499 296.461 29.12L294.181 28.56H289.181L281.581 29.97L277.381 32.64L272.381 37.15C272.381 37.15 268.061 37.77 267.811 37.83C267.102 38.4207 266.433 39.0589 265.811 39.74L266.811 41.91L266.561 42.91L267.241 43.46L267.741 44.46L268.421 45.46L270.951 45.09L273.671 43.55L275.771 44.66L277.381 47.44L277.681 49.11L279.601 49.48L280.901 48.37L282.261 48.06L283.001 45.83L283.121 44.1L284.981 43.55V42.41L284.301 41.92L283.431 41.36L283.121 39.36L285.951 37.57C285.951 37.57 287.451 36.21 287.451 35.97C287.451 35.73 288.191 34.91 288.191 34.91C288.191 34.91 289.371 34.98 289.741 35.04C290.111 35.1 292.081 35.78 292.081 35.78L292.831 36.34L290.541 37.45L289.191 38.81L288.191 39.49L289.121 41.65L291.531 42.89L293.691 42.45L297.121 42.28C297.121 42.28 301.051 43.07 301.231 43.2C301.411 43.33 300.101 43.75 300.101 43.75L298.571 44.18L297.711 44.74L296.251 44C295.662 43.5878 294.968 43.352 294.251 43.32C293.645 43.4376 293.074 43.6906 292.581 44.06L293.511 45.48L294.801 46.35C294.801 46.35 294.251 47.95 293.881 47.89C293.511 47.83 292.881 46.72 292.881 46.72L291.451 46.16L290.531 46.72L290.651 48.08L290.251 50L288.711 51L287.591 51.87L286.111 51L284.201 51.56L280.861 51.37L280.121 52.05L278.941 51.56C278.941 51.56 276.041 51.68 275.851 51.74C275.187 51.5169 274.547 51.2289 273.941 50.88L273.201 49.21L274.121 48.1L273.691 47.6L273.321 46.68L273.941 45.93L273.011 45.69L271.471 47.23L271.401 48.72C271.401 48.72 272.211 50.14 272.271 50.32C272.316 50.7517 272.337 51.1858 272.331 51.62L270.791 52.24L269.121 52.73L269.431 53.35L271.161 53.66L270.601 54.66L269.601 54.72L269.111 55.96L268.801 56.64L267.441 56.27L267.501 55.4L267.561 54.29L267.011 53.73L266.201 54.6L265.341 55.71L263.341 56.08L262.411 56.82L261.791 58.18L260.311 58.86L259.141 59.6L257.341 58.68L257.101 59.11L257.471 60.03L257.041 60.53L254.691 60.34L253.391 60.16L253.201 61.89L255.491 62.26L256.601 63.26C256.601 63.26 257.471 64.31 257.651 64.31C257.831 64.31 259.081 64.62 259.081 64.62L258.581 67.34L257.471 69.87L252.831 69.81L247.771 69.69L246.161 70.3L245.661 71.72L246.101 73.21L245.201 76L244.831 77.49C244.832 77.998 244.889 78.5043 245.001 79C245.131 79.18 245.871 80.48 245.871 80.48L245.311 82.58L246.981 83.08L249.761 83.26L251.241 84.07L252.361 84.25L254.211 83.45L256.991 83.08L259.591 80.91L259.161 78.26L260.761 76.26L264.161 74.1L265.641 73.6L265.461 71.38L267.461 70.2L269.461 70.88L270.821 70.14L275.001 68.86L279.141 72.7L284.821 76.59C284.821 76.59 286.001 78.94 286.061 79.12C285.835 79.6889 285.543 80.2293 285.191 80.73H282.001L280.801 81C280.801 81 281.171 81.92 281.411 81.92C281.651 81.92 284.201 83.1 284.201 83.1L285.001 83.72L285.431 83.59L285.371 82.42L285.621 81.31L286.481 81.43C286.831 81.0487 287.143 80.6333 287.411 80.19C287.67 79.6424 287.957 79.1084 288.271 78.59L287.591 77.29L287.971 76.42L288.971 76.55L289.091 77.84H289.461L289.341 76.24L288.341 75.62L287.001 74.73L286.071 73.38L284.461 72.94L282.611 71.64L282.181 70.16L280.451 69.3L280.001 67.94L280.501 66.52L281.611 66.33L281.671 67.69L282.781 68.06L283.531 67.63L284.641 69.63L286.921 70.92L288.721 71.92L289.831 72.05L291.681 74.05L292.121 76.64L295.581 80.23L296.071 82.76L298.541 84.49L299.221 83.93L298.851 82.33L300.211 81.59L299.781 80.47L298.411 80L297.851 78.89L298.101 77.09L297.301 76.17L298.041 76.29L298.591 76.97L299.461 75.8L300.941 75.86L302.431 76.48L303.541 78L304.651 79.73C304.651 79.73 303.911 80.16 303.851 80.35C303.997 80.8283 304.206 81.2855 304.471 81.71L305.891 83L307.001 84.56L309.221 84.5L309.471 85.5L311.081 85.68L312.621 85.31L313.061 84.31L313.741 85.24L315.531 85.86L317.071 85.74L318.371 84.31L319.541 84.81L320.411 85.36L320.101 86.6L320.871 89.14L319.751 91.71V95.07H313.001L310.441 96.07L306.291 94L303.571 94.32L298.921 92.64H295.241L294.121 93.64L294.761 95.4L293.321 96.84L289.631 94.6L286.751 94.92L285.631 93L281.301 91.72L278.301 90.27L276.001 89.14L278.721 85.94L277.921 83.22L276.001 82.09L264.621 83.38L260.141 85.14L257.251 85.3L254.251 86.42L250.571 85.62L248.161 88.5L245.281 90.42L242.681 95.87L243.361 98.27L240.001 101.48L236.641 102.76L235.041 105.76C235.041 105.76 231.511 113.61 231.191 114.25C230.871 114.89 231.191 118.9 231.191 118.9L232.631 123.54L229.271 131.39L230.551 135.24L232.311 138.76L236.961 145.33L236.821 148.63L246.401 155.92L252.821 153.34L259.001 155.3L266.681 151.14C266.681 151.14 269.251 151.14 270.051 152.58C270.851 154.02 271.331 155.3 274.211 155.3C277.091 155.3 278.541 158.51 278.541 158.51L277.261 162.19L277.901 164.11L276.621 167.11L279.621 173.35L281.861 178.16L283.951 182.81L284.431 188.73L283.951 192.1L280.261 198.51L281.381 208.44L282.661 210.68L282.181 212.28L284.431 214.69L285.871 220.29L284.591 225.58L286.511 229.58C286.511 229.58 288.271 233.91 288.431 234.39C288.591 234.87 289.711 236.47 289.551 237.27C289.391 238.07 288.911 240.16 288.911 240.16L289.551 243.36H297.721L301.571 242.08L311.021 232.47C311.884 231.449 312.686 230.377 313.421 229.26C313.581 228.78 314.861 222.86 314.861 222.86L321.591 220.13V214.9L320.151 210.73L323.671 207.37L333.131 201.92L333.931 197.75V190.55L332.161 185.1L332.641 181.74L331.001 180.29L334.051 175.81L335.171 169.88L339.651 167.16L340.651 164.43L348.821 155.96L351.391 147.9L353.791 143.45V138.64L351.551 137.84L348.981 139.92L345.461 140.24L341.781 141.24L338.731 139.31L339.051 136.91L335.211 132.59L331.361 130.34L329.601 124.58L325.841 121L325.521 116.52L322.791 112.52L319.431 105L315.901 101.48L315.581 98.59L317.031 99.24L318.631 100.52L319.271 102.92C320.551 102.92 321.031 100.52 321.031 100.52L322.151 102.92L323.271 105.92L326.801 111.21L328.721 111.53L330.961 116.18L330.801 118.26L337.211 124.83L338.331 130.91L339.451 133.64L341.541 135.72L351.151 133.16L352.911 131.55L357.071 130.27V128.35L361.881 125.15L363.881 121.43L365.041 119.54L366.651 117.3L364.001 113.65L360.301 110.52L359.121 107.52L357.761 107.84L356.761 110.72L353.081 111.72L351.161 110.44L350.521 107.72L349.241 108.04L347.311 104.51L345.551 103.51L343.311 99.83L344.911 98.06L350.211 102.44ZM275.211 78.86L275.551 77.33V75.13C275.204 74.8217 274.778 74.6173 274.321 74.54C273.992 74.5404 273.676 74.6614 273.431 74.88V77.33C273.517 77.8363 273.517 78.3536 273.431 78.86H275.211ZM275.211 72.25C275.23 72.0929 275.211 71.9336 275.156 71.7852C275.102 71.6367 275.013 71.5034 274.897 71.396C274.78 71.2886 274.64 71.2104 274.488 71.1676C274.336 71.1248 274.176 71.1188 274.021 71.15L273.431 72.84L274.021 74.11H275.211V72.25ZM231.511 28.51H237.511L240.781 23.8H248.311L249.521 20.8L254.151 18.35C256.341 16.44 254.151 12.98 254.151 12.98L244.711 11.8L235.331 13L221.691 10.46L213.281 14.28C213.281 14.28 207.231 17.55 206.411 17.28C204.777 17.142 203.134 17.142 201.501 17.28C201.501 17.28 204.501 20 205.861 20.28C206.855 20.4328 207.866 20.4328 208.861 20.28C208.861 20.28 208.861 22.94 209.411 23.55C211.321 25.74 207.411 27.37 207.411 27.37V29.95C207.411 29.95 207.841 34.82 208.651 34.6C209.461 34.38 210.791 37.19 210.791 37.19L213.301 39.92H217.891L223.621 33.1L229.261 30.65L231.511 28.51ZM349.361 191.65L348.621 189.65L347.771 190.49L347.031 192.19L345.341 193.19L344.601 195.42L343.541 198.06L339.411 199.33L337.611 202.4L337.191 207.48L335.711 210L334.021 211.8L334.651 214.8L335.821 216.18L334.651 217.76L335.821 218.76H339.731L341.951 215.48C341.951 215.48 343.751 211.67 343.751 211.35C343.751 211.03 344.601 207.54 344.601 207.54L347.661 203.54V198H349.781L349.151 194.08L349.361 191.65ZM135.751 110.5L131.111 108.92C131.111 108.92 129.821 109.1 128.311 109.46C127.2 109.683 126.114 110.018 125.071 110.46L131.651 112.7H134.311L138.751 116.52H141.751C141.751 116.52 144.201 115.43 143.381 113.52L139.571 112.15L135.751 110.5Z" fill="#8C50FF"/>
<path opacity="0.05" d="M248.121 269C224.548 268.984 201.305 263.465 180.242 252.881C159.179 242.298 140.878 226.942 126.797 208.038C112.715 189.134 103.242 167.203 99.1316 143.992C95.0212 120.78 96.3871 96.9301 103.121 74.3398C92.2206 92.7854 85.3615 113.335 82.9968 134.63C80.6322 155.924 82.816 177.478 89.4037 197.866C95.9915 218.253 106.833 237.009 121.211 252.894C135.589 268.778 153.176 281.429 172.809 290.008C192.441 298.588 213.672 302.901 235.096 302.663C256.52 302.425 277.649 297.64 297.086 288.626C316.523 279.611 333.824 266.573 347.845 250.372C361.867 234.172 372.288 215.179 378.421 194.65C365.046 217.306 345.991 236.082 323.14 249.121C300.288 262.16 274.43 269.012 248.121 269Z" fill="black"/>
<path opacity="0.4" d="M27.18 500L0 484.45L40.68 461.16L67.86 476.71L27.18 500Z" fill="#D6D8E5"/>
<path d="M27.7502 468.65L5.24023 455.65L27.7502 442.66L50.2602 455.65L27.7502 468.65Z" fill="#E9EAF4"/>
<path d="M27.7502 494.64L5.24023 481.64V455.65L27.7502 468.65V494.64Z" fill="#C5C7D3"/>
<path d="M50.26 481.64L27.75 494.64V468.65L50.26 455.65V481.64Z" fill="#D5D6E0"/>
<path d="M57.9998 473.47C59.9503 474.005 62.0325 473.753 63.7998 472.77C65.1898 472.77 72.7998 469.56 73.7998 472.29C74.6998 474.67 71.4198 476.88 69.6598 477.29C65.8298 478.22 62.9998 480.13 61.4598 480.45C60.3098 480.69 58.8298 480.85 57.9198 479.95C56.8298 478.89 56.9298 474.89 57.9998 473.47Z" fill="#38226D"/>
<path d="M61.4697 479.81C63.0097 479.48 65.8397 477.58 69.6697 476.65C71.1397 476.29 73.6697 474.65 73.9297 472.77C74.2697 474.96 71.3097 476.91 69.6697 477.31C65.8397 478.24 63.0097 480.15 61.4697 480.47C60.3197 480.71 58.8397 480.87 57.9297 479.97C57.6924 479.707 57.521 479.392 57.4297 479.05C57.9969 479.483 58.6578 479.778 59.3594 479.91C60.061 480.042 60.7837 480.008 61.4697 479.81Z" fill="#9C73FF"/>
<path d="M44.3305 466.19C46.2805 466.73 48.3648 466.478 50.1305 465.49C51.5205 465.49 59.1305 462.28 60.1305 465.01C61.0405 467.4 57.7505 469.61 56.0005 470.01C52.1705 470.94 49.3405 472.85 47.8005 473.17C46.6505 473.41 45.1705 473.57 44.2605 472.67C43.1605 471.61 43.2605 467.61 44.3305 466.19Z" fill="#38226D"/>
<path d="M47.8 472.53C49.34 472.21 52.17 470.3 56 469.37C57.47 469.01 60 467.37 60.26 465.49C60.6 467.69 57.64 469.63 56 470.03C52.17 470.96 49.34 472.87 47.8 473.19C46.65 473.43 45.17 473.59 44.26 472.69C44.0214 472.431 43.8467 472.119 43.75 471.78C44.3211 472.21 44.984 472.501 45.6868 472.632C46.3895 472.762 47.1129 472.727 47.8 472.53Z" fill="#9C73FF"/>
<path d="M23.0008 456.75C28.9108 459.35 34.4908 459.75 39.0508 457.31L43.7608 454.59C44.0408 460.67 44.3108 466.51 44.3108 466.51C44.3108 466.51 47.9208 469.25 50.7308 466.81C50.7308 466.81 51.3208 458.27 51.9208 449.88L56.8908 447C56.7792 447.448 56.7189 447.908 56.7108 448.37C56.7108 449.97 57.8508 473.67 57.8508 473.67C57.8508 473.67 61.4908 475.84 64.3008 473.4C64.3008 473.4 66.1908 445.93 66.6308 441.54C67.1208 436.61 61.6308 434.18 58.1708 435.44L52.8708 437.44C52.9808 436.06 53.0708 434.99 53.1308 434.39C53.6208 429.45 48.1308 427.02 44.6808 428.28C41.5208 429.43 20.1908 437.43 20.1908 437.43C20.3257 439.482 20.5761 441.526 20.9408 443.55L12.5208 442.84C12.0008 450.76 17.1308 454.15 23.0008 456.75ZM37.7608 443.1L43.4008 439.84C43.3041 440.237 43.2405 440.642 43.2108 441.05L37.7608 443.1Z" fill="#8C50FF"/>
<path d="M7.89062 418.79C7.89062 418.79 8.58063 429.28 9.96063 430.79C11.3406 432.3 15.9606 433.33 15.9606 433.33L19.5406 439.23C19.5406 439.23 16.2706 420.49 15.5406 420.04C14.8106 419.59 7.89062 418.79 7.89062 418.79Z" fill="#FFCEA9"/>
<path d="M14.78 407.15C13.9063 406.746 12.9145 406.676 11.9929 406.954C11.0712 407.233 10.2838 407.84 9.78 408.66C8.47 410.84 7.1 418.33 7 419.61C7 419.61 8.85 422.17 11.62 421.74L14.78 407.15Z" fill="#EDEDED"/>
<path d="M16.0005 407.28C17.8105 407.37 19.1605 407.84 19.3805 407.28C19.5794 406.346 19.7197 405.401 19.8005 404.45C19.5905 403.93 19.4105 403.36 19.4105 403.36C17.1305 401.96 16.4105 399.5 16.1205 396.64C15.6105 391.75 18.2505 387.46 23.1205 386.95C27.7205 386.47 31.1205 389.7 32.0105 394.14C32.5005 396.34 33.4705 400.48 32.1605 404.08C31.4305 406.08 30.4805 407.7 29.5405 408.01C28.6297 407.987 27.7213 407.906 26.8205 407.77C26.8205 407.77 26.5805 409.13 26.4105 410.01C26.2405 410.89 26.3105 411.34 28.0405 412.41C29.7705 413.48 25.4205 415.68 22.5705 415.46C19.7205 415.24 16.5105 413.53 15.6305 411.68C14.7105 409.65 14.7905 407.22 16.0005 407.28Z" fill="#FFCEA9"/>
<path d="M61.9303 439.35C61.9303 439.607 61.8629 439.86 61.7348 440.082C61.6067 440.305 61.4224 440.491 61.2003 440.62L47.3903 448.62C47.1665 448.748 46.9132 448.815 46.6553 448.815C46.3975 448.815 46.1441 448.748 45.9203 448.62L26.5603 437.42C26.3357 437.293 26.1488 437.108 26.0188 436.885C25.8888 436.662 25.8203 436.408 25.8203 436.15V436L61.9303 439.35Z" fill="#E5E5E5"/>
<path d="M61.2004 440.62L47.3904 448.62C47.1646 448.747 46.9094 448.813 46.6504 448.81V439.37H61.9304C61.9269 439.624 61.8578 439.872 61.7299 440.091C61.602 440.31 61.4196 440.492 61.2004 440.62Z" fill="#E5E5E5"/>
<path d="M47.1697 447.87C47.0177 447.958 46.8452 448.004 46.6697 448.004C46.4941 448.004 46.3217 447.958 46.1697 447.87L25.9997 436.25C25.7397 436.11 25.7397 435.87 25.9997 435.72L40.8097 427.16L61.9097 439.35L47.1697 447.87Z" fill="#F4F4F4"/>
<path d="M34.2793 439.35L34.3793 439.4L40.8293 443.13L44.3693 441.08L44.4693 441.03L37.9193 437.25L34.2793 439.35Z" fill="#BFBFBF"/>
<path d="M34.3789 439.4L40.8289 443.13L44.3689 441.08L37.9189 437.36L34.3789 439.4Z" fill="#E5E5E5"/>
<path d="M56.4599 440L57.3899 440.54C57.4368 440.562 57.488 440.574 57.5399 440.574C57.5918 440.574 57.643 440.562 57.6899 440.54L58.5799 440.03C58.6699 440.03 58.6699 439.9 58.5799 439.86L57.6499 439.32C57.6037 439.296 57.5522 439.283 57.4999 439.283C57.4476 439.283 57.3961 439.296 57.3499 439.32L56.4699 439.83C56.3999 439.83 56.3899 439.9 56.4599 440Z" fill="#3A2C6D"/>
<path d="M55.1501 439.19L56.0801 439.73C56.1252 439.752 56.1748 439.764 56.2251 439.764C56.2753 439.764 56.3249 439.752 56.3701 439.73L57.2601 439.22C57.3501 439.17 57.3601 439.09 57.2601 439.05L56.3301 438.51C56.2857 438.486 56.2358 438.473 56.1851 438.473C56.1343 438.473 56.0845 438.486 56.0401 438.51L55.1501 439.02C55.0801 439.07 55.0701 439.14 55.1501 439.19Z" fill="#3A2C6D"/>
<path d="M53.8293 438.43L54.7593 438.97C54.8062 438.992 54.8574 439.004 54.9093 439.004C54.9612 439.004 55.0124 438.992 55.0593 438.97L55.9393 438.46C56.0293 438.41 56.0393 438.33 55.9393 438.29L55.0093 437.75C54.9631 437.726 54.9116 437.713 54.8593 437.713C54.807 437.713 54.7555 437.726 54.7093 437.75L53.8193 438.26C53.7693 438.31 53.7593 438.38 53.8293 438.43Z" fill="#3A2C6D"/>
<path d="M52.5192 437.67L53.4492 438.21C53.4944 438.232 53.5439 438.244 53.5942 438.244C53.6445 438.244 53.6941 438.232 53.7392 438.21L54.6292 437.7C54.7192 437.65 54.7292 437.57 54.6292 437.53L53.6992 436.99C53.653 436.965 53.6015 436.953 53.5492 436.953C53.4969 436.953 53.4454 436.965 53.3992 436.99L52.5192 437.5C52.4492 437.55 52.4392 437.62 52.5192 437.67Z" fill="#3A2C6D"/>
<path d="M51.1989 436.91L52.1289 437.45C52.174 437.472 52.2236 437.484 52.2739 437.484C52.3241 437.484 52.3737 437.472 52.4189 437.45L53.3089 436.94C53.3989 436.89 53.4089 436.81 53.3089 436.77L52.3789 436.23C52.3345 436.206 52.2846 436.193 52.2339 436.193C52.1832 436.193 52.1333 436.206 52.0889 436.23L51.1989 436.74C51.1289 436.79 51.1189 436.86 51.1989 436.91Z" fill="#3A2C6D"/>
<path d="M49.8789 436.15L50.8089 436.69C50.8558 436.712 50.907 436.724 50.9589 436.724C51.0108 436.724 51.062 436.712 51.1089 436.69L51.9989 436.18C52.0789 436.13 52.0889 436.05 51.9989 436.01L51.0689 435.47C51.0227 435.445 50.9712 435.433 50.9189 435.433C50.8666 435.433 50.8151 435.445 50.7689 435.47L49.8789 435.98C49.8189 436 49.8089 436.1 49.8789 436.15Z" fill="#3A2C6D"/>
<path d="M48.57 435.39L49.5 435.93C49.5451 435.952 49.5947 435.964 49.645 435.964C49.6952 435.964 49.7448 435.952 49.79 435.93L50.68 435.42C50.77 435.42 50.78 435.29 50.68 435.25L49.75 434.71C49.7038 434.686 49.6523 434.673 49.6 434.673C49.5477 434.673 49.4962 434.686 49.45 434.71L48.57 435.22C48.5 435.27 48.49 435.34 48.57 435.39Z" fill="#3A2C6D"/>
<path d="M47.2497 434.63L48.1797 435.17C48.2266 435.192 48.2778 435.204 48.3297 435.204C48.3816 435.204 48.4328 435.192 48.4797 435.17L49.3597 434.66C49.4497 434.61 49.4597 434.53 49.3597 434.49L48.4297 433.95C48.3853 433.925 48.3354 433.913 48.2847 433.913C48.234 433.913 48.1841 433.925 48.1397 433.95L47.2497 434.46C47.1797 434.51 47.1697 434.58 47.2497 434.63Z" fill="#3A2C6D"/>
<path d="M45.9297 433.87L46.8597 434.41C46.9066 434.432 46.9578 434.444 47.0097 434.444C47.0616 434.444 47.1128 434.432 47.1597 434.41L48.0497 433.9C48.1297 433.85 48.1397 433.77 48.0497 433.73L47.1197 433.19C47.0735 433.166 47.022 433.153 46.9697 433.153C46.9174 433.153 46.8659 433.166 46.8197 433.19L45.9297 433.7C45.8697 433.75 45.8597 433.82 45.9297 433.87Z" fill="#3A2C6D"/>
<path d="M44.6188 433.11L45.5488 433.65C45.594 433.672 45.6436 433.684 45.6938 433.684C45.7441 433.684 45.7937 433.672 45.8388 433.65L46.7288 433.14C46.8188 433.09 46.8288 433.01 46.7288 432.97L45.7988 432.43C45.7537 432.408 45.7041 432.396 45.6538 432.396C45.6036 432.396 45.554 432.408 45.5088 432.43L44.6188 432.95C44.5488 433 44.5388 433.06 44.6188 433.11Z" fill="#3A2C6D"/>
<path d="M43.3005 432.35L44.2305 432.89C44.2773 432.913 44.3286 432.924 44.3805 432.924C44.4323 432.924 44.4836 432.913 44.5305 432.89L45.4105 432.38C45.5005 432.33 45.5105 432.25 45.4105 432.21L44.4805 431.67C44.4353 431.648 44.3857 431.637 44.3355 431.637C44.2852 431.637 44.2356 431.648 44.1905 431.67L43.3005 432.19C43.2305 432.23 43.2205 432.3 43.3005 432.35Z" fill="#3A2C6D"/>
<path d="M42.0002 431.59L42.9302 432.13C42.9771 432.152 43.0283 432.164 43.0802 432.164C43.1321 432.164 43.1833 432.152 43.2302 432.13L44.1202 431.62C44.2002 431.57 44.2102 431.49 44.1202 431.45L43.1902 430.91C43.1433 430.888 43.0921 430.876 43.0402 430.876C42.9883 430.876 42.9371 430.888 42.8902 430.91L42.0102 431.43C41.9202 431.47 41.9102 431.54 42.0002 431.59Z" fill="#3A2C6D"/>
<path d="M40.6696 430.83L41.5996 431.36C41.644 431.384 41.6939 431.397 41.7446 431.397C41.7953 431.397 41.8452 431.384 41.8896 431.36L42.7796 430.85C42.8696 430.85 42.8796 430.72 42.7796 430.68L41.8496 430.14C41.8044 430.118 41.7549 430.106 41.7046 430.106C41.6543 430.106 41.6047 430.118 41.5596 430.14L40.6696 430.66C40.5996 430.71 40.5896 430.78 40.6696 430.83Z" fill="#3A2C6D"/>
<path d="M38.7196 429.7L40.2796 430.6C40.3258 430.625 40.3773 430.638 40.4296 430.638C40.4819 430.638 40.5334 430.625 40.5796 430.6L41.4596 430.09C41.5496 430.04 41.5596 429.96 41.4596 429.92L39.8896 429.02C39.8452 428.996 39.7953 428.983 39.7446 428.983C39.6939 428.983 39.644 428.996 39.5996 429.02L38.7096 429.53C38.6496 429.58 38.6396 429.66 38.7196 429.7Z" fill="#3A2C6D"/>
<path d="M53.2399 439.56L54.1699 440.09C54.2143 440.115 54.2642 440.128 54.3149 440.128C54.3656 440.128 54.4155 440.115 54.4599 440.09L55.3499 439.58C55.4399 439.53 55.4499 439.45 55.3499 439.41L54.4199 438.87C54.373 438.848 54.3218 438.836 54.2699 438.836C54.218 438.836 54.1668 438.848 54.1199 438.87L53.2399 439.39C53.1699 439.44 53.1599 439.51 53.2399 439.56Z" fill="#3A2C6D"/>
<path d="M51.9196 438.8L52.8496 439.33C52.894 439.355 52.9439 439.368 52.9946 439.368C53.0453 439.368 53.0952 439.355 53.1396 439.33L54.0296 438.82C54.1196 438.77 54.1296 438.69 54.0296 438.65L53.0996 438.11C53.0544 438.088 53.0049 438.077 52.9546 438.077C52.9043 438.077 52.8547 438.088 52.8096 438.11L51.9196 438.63C51.8496 438.68 51.8396 438.75 51.9196 438.8Z" fill="#3A2C6D"/>
<path d="M50.5993 438L51.5293 438.53C51.5737 438.554 51.6236 438.567 51.6743 438.567C51.725 438.567 51.7749 438.554 51.8193 438.53L52.7093 438.02C52.7993 437.97 52.8093 437.89 52.7093 437.85L51.7793 437.31C51.7341 437.288 51.6845 437.276 51.6343 437.276C51.584 437.276 51.5344 437.288 51.4893 437.31L50.5993 437.82C50.5293 437.91 50.5193 438 50.5993 438Z" fill="#3A2C6D"/>
<path d="M49.279 437.27L50.209 437.81C50.2558 437.832 50.3071 437.844 50.359 437.844C50.4109 437.844 50.4621 437.832 50.509 437.81L51.389 437.3C51.479 437.25 51.489 437.17 51.389 437.13L50.459 436.59C50.4146 436.566 50.3647 436.553 50.314 436.553C50.2633 436.553 50.2134 436.566 50.169 436.59L49.279 437.1C49.209 437.15 49.199 437.23 49.279 437.27Z" fill="#3A2C6D"/>
<path d="M48.0002 436.52L48.9302 437.06C48.9771 437.082 49.0284 437.094 49.0802 437.094C49.1321 437.094 49.1834 437.082 49.2302 437.06L50.1102 436.55C50.2002 436.55 50.2102 436.42 50.1102 436.38L49.1802 435.84C49.134 435.816 49.0825 435.803 49.0302 435.803C48.9779 435.803 48.9264 435.816 48.8802 435.84L47.9902 436.35C47.9102 436.4 47.9002 436.47 48.0002 436.52Z" fill="#3A2C6D"/>
<path d="M46.6504 435.76L47.5804 436.29C47.6266 436.314 47.6781 436.327 47.7304 436.327C47.7827 436.327 47.8342 436.314 47.8804 436.29L48.7704 435.78C48.8504 435.78 48.8604 435.65 48.7704 435.61L47.8404 435.07C47.7935 435.048 47.7423 435.036 47.6904 435.036C47.6385 435.036 47.5873 435.048 47.5404 435.07L46.6504 435.59C46.5904 435.64 46.5804 435.71 46.6504 435.76Z" fill="#3A2C6D"/>
<path d="M45.329 435L46.259 435.53C46.3052 435.555 46.3567 435.567 46.409 435.567C46.4613 435.567 46.5128 435.555 46.559 435.53L47.449 435.02C47.539 434.97 47.539 434.89 47.449 434.85L46.519 434.31C46.4721 434.288 46.4209 434.276 46.369 434.276C46.3171 434.276 46.2659 434.288 46.219 434.31L45.339 434.82C45.269 434.88 45.259 435 45.329 435Z" fill="#3A2C6D"/>
<path d="M43.9993 434.23L44.9293 434.77C44.9737 434.795 45.0236 434.808 45.0743 434.808C45.125 434.808 45.1749 434.795 45.2193 434.77L46.1093 434.26C46.1993 434.21 46.2093 434.13 46.1093 434.09L45.1793 433.55C45.1324 433.528 45.0812 433.517 45.0293 433.517C44.9774 433.517 44.9262 433.528 44.8793 433.55L43.9993 434.06C43.9993 434.11 43.9393 434.19 43.9993 434.23Z" fill="#3A2C6D"/>
<path d="M42.6989 433.47L43.6289 434.01C43.674 434.032 43.7236 434.044 43.7739 434.044C43.8241 434.044 43.8737 434.032 43.9189 434.01L44.8089 433.5C44.8989 433.44 44.9089 433.37 44.8089 433.32L43.8789 432.79C43.8345 432.766 43.7846 432.753 43.7339 432.753C43.6832 432.753 43.6333 432.766 43.5889 432.79L42.6989 433.3C42.6289 433.35 42.6189 433.43 42.6989 433.47Z" fill="#3A2C6D"/>
<path d="M41.3805 432.71L42.3105 433.25C42.3557 433.272 42.4053 433.284 42.4555 433.284C42.5058 433.284 42.5554 433.272 42.6005 433.25L43.4905 432.73C43.5805 432.68 43.5905 432.61 43.4905 432.56L42.5605 432.03C42.5161 432.006 42.4662 431.993 42.4155 431.993C42.3648 431.993 42.3149 432.006 42.2705 432.03L41.3805 432.54C41.3105 432.59 41.3005 432.67 41.3805 432.71Z" fill="#3A2C6D"/>
<path d="M40.0606 432L40.9906 432.54C41.0375 432.562 41.0887 432.574 41.1406 432.574C41.1925 432.574 41.2437 432.562 41.2906 432.54L42.1706 432.02C42.2606 432.02 42.2706 431.9 42.1706 431.85L41.2406 431.31C41.1955 431.288 41.1459 431.276 41.0956 431.276C41.0454 431.276 40.9958 431.288 40.9506 431.31L40.0606 431.82C40.0006 431.83 40.0006 431.91 40.0606 432Z" fill="#3A2C6D"/>
<path d="M38.7391 431.19L39.6691 431.73C39.716 431.753 39.7673 431.764 39.8191 431.764C39.871 431.764 39.9223 431.753 39.9691 431.73L40.8491 431.22C40.9391 431.17 40.9491 431.09 40.8491 431.05L39.9191 430.51C39.8723 430.488 39.821 430.477 39.7691 430.477C39.7173 430.477 39.666 430.488 39.6191 430.51L38.7291 431.02C38.6691 431.07 38.6591 431.15 38.7391 431.19Z" fill="#3A2C6D"/>
<path d="M54.5497 440.32L56.1197 441.22C56.1641 441.244 56.214 441.257 56.2647 441.257C56.3154 441.257 56.3653 441.244 56.4097 441.22L57.2997 440.71C57.3897 440.66 57.3997 440.58 57.2997 440.54L55.7397 439.63C55.6928 439.608 55.6416 439.596 55.5897 439.596C55.5378 439.596 55.4866 439.608 55.4397 439.63L54.5597 440.14C54.4897 440.2 54.4797 440.28 54.5497 440.32Z" fill="#3A2C6D"/>
<path d="M38.6298 429.74L39.5598 430.28C39.6398 430.28 39.6398 430.39 39.5598 430.43L38.6198 430.98C38.5776 431 38.5315 431.01 38.4848 431.01C38.4382 431.01 38.3921 431 38.3498 430.98L38.2698 430.93C38.231 430.911 38.1882 430.901 38.1448 430.901C38.1015 430.901 38.0587 430.911 38.0198 430.93L37.0198 431.51C36.9758 431.53 36.9281 431.54 36.8798 431.54C36.8316 431.54 36.7838 431.53 36.7398 431.51L36.1498 431.17C36.0698 431.12 36.0698 431.05 36.1498 431.01L37.0798 430.47L37.2698 430.36L37.4098 430.28L37.5498 430.2L38.3498 429.74C38.3927 429.716 38.4409 429.704 38.4898 429.704C38.5388 429.704 38.587 429.716 38.6298 429.74Z" fill="#3A2C6D"/>
<path d="M51.359 442.89L52.289 443.43C52.3342 443.452 52.3838 443.464 52.434 443.464C52.4843 443.464 52.5339 443.452 52.579 443.43L53.469 442.91C53.559 442.91 53.569 442.79 53.469 442.74L52.539 442.21C52.4928 442.186 52.4413 442.173 52.389 442.173C52.3367 442.173 52.2852 442.186 52.239 442.21L51.359 442.72C51.289 442.77 51.279 442.85 51.359 442.89Z" fill="#3A2C6D"/>
<path d="M50 442.13L50.93 442.67C50.9762 442.695 51.0277 442.708 51.08 442.708C51.1323 442.708 51.1838 442.695 51.23 442.67L52.12 442.16C52.2 442.16 52.21 442.03 52.12 441.99L51.19 441.45C51.1431 441.428 51.0919 441.417 51.04 441.417C50.9881 441.417 50.9369 441.428 50.89 441.45L50 441.96C50 442 50 442.09 50 442.13Z" fill="#3A2C6D"/>
<path d="M48.7301 441.38L49.6601 441.91C49.7063 441.935 49.7578 441.948 49.8101 441.948C49.8624 441.948 49.9139 441.935 49.9601 441.91L50.8401 441.4C50.9301 441.35 50.9401 441.27 50.8401 441.23L49.9101 440.69C49.865 440.668 49.8154 440.657 49.7651 440.657C49.7149 440.657 49.6653 440.668 49.6201 440.69L48.7301 441.21C48.6601 441.26 48.6501 441.33 48.7301 441.38Z" fill="#3A2C6D"/>
<path d="M37.5499 434.92L38.4799 435.46C38.5268 435.482 38.578 435.494 38.6299 435.494C38.6818 435.494 38.733 435.482 38.7799 435.46L39.6599 434.94C39.7499 434.89 39.7599 434.82 39.6599 434.77L38.7299 434.24C38.6837 434.215 38.6322 434.203 38.5799 434.203C38.5276 434.203 38.4761 434.215 38.4299 434.24L37.5399 434.75C37.4799 434.8 37.4799 434.88 37.5499 434.92Z" fill="#3A2C6D"/>
<path d="M36.2399 434.16L37.1699 434.7C37.2143 434.725 37.2642 434.738 37.3149 434.738C37.3656 434.738 37.4155 434.725 37.4599 434.7L38.3499 434.19C38.4399 434.14 38.4499 434.06 38.3499 434.02L37.4199 433.48C37.3748 433.458 37.3252 433.447 37.2749 433.447C37.2246 433.447 37.1751 433.458 37.1299 433.48L36.2399 433.99C36.1699 434 36.1599 434.12 36.2399 434.16Z" fill="#3A2C6D"/>
<path d="M34.9294 433.41L35.8594 433.94C35.9038 433.965 35.9536 433.978 36.0044 433.978C36.0551 433.978 36.105 433.965 36.1494 433.94L37.0394 433.43C37.1294 433.38 37.1394 433.3 37.0394 433.26L36.1094 432.72C36.0625 432.698 36.0112 432.687 35.9594 432.687C35.9075 432.687 35.8562 432.698 35.8094 432.72L34.9294 433.24C34.8594 433.29 34.8494 433.36 34.9294 433.41Z" fill="#3A2C6D"/>
<path d="M33.6094 432.65L34.5394 433.19C34.5862 433.212 34.6375 433.224 34.6894 433.224C34.7413 433.224 34.7925 433.212 34.8394 433.19L35.7294 432.68C35.8094 432.63 35.8194 432.55 35.7294 432.51L34.7994 431.97C34.7532 431.945 34.7017 431.933 34.6494 431.933C34.5971 431.933 34.5456 431.945 34.4994 431.97L33.6094 432.48C33.5494 432.53 33.5394 432.6 33.6094 432.65Z" fill="#3A2C6D"/>
<path d="M47.0795 440.42L48.3495 441.16C48.3947 441.182 48.4443 441.194 48.4945 441.194C48.5448 441.194 48.5944 441.182 48.6395 441.16L49.5295 440.65C49.6195 440.6 49.6295 440.52 49.5295 440.48L48.2595 439.75C48.2151 439.726 48.1652 439.713 48.1145 439.713C48.0638 439.713 48.0139 439.726 47.9695 439.75L47.0795 440.26C46.9995 440.3 46.9995 440.38 47.0795 440.42Z" fill="#3A2C6D"/>
<path d="M38.8604 435.68L40.1304 436.41C40.1766 436.435 40.2281 436.447 40.2804 436.447C40.3327 436.447 40.3842 436.435 40.4304 436.41L41.3204 435.9C41.4004 435.85 41.4104 435.77 41.3204 435.73L40.0704 435C40.0235 434.978 39.9723 434.966 39.9204 434.966C39.8685 434.966 39.8173 434.978 39.7704 435L38.8904 435.51C38.8004 435.56 38.7904 435.64 38.8604 435.68Z" fill="#3A2C6D"/>
<path d="M40.5107 436.63L46.7007 440.2C46.7451 440.224 46.7949 440.237 46.8457 440.237C46.8964 440.237 46.9463 440.224 46.9907 440.2L47.8807 439.69C47.9707 439.64 47.9807 439.56 47.8807 439.52L41.7007 435.95C41.6545 435.925 41.603 435.913 41.5507 435.913C41.4984 435.913 41.4469 435.925 41.4007 435.95L40.5207 436.46C40.4507 436.51 40.4407 436.59 40.5107 436.63Z" fill="#3A2C6D"/>
<path d="M51.5996 440.09L52.5296 440.62C52.5758 440.644 52.6273 440.657 52.6796 440.657C52.7319 440.657 52.7834 440.644 52.8296 440.62L53.7196 440.11C53.7996 440.06 53.8096 439.98 53.7196 439.94L52.7896 439.4C52.7427 439.378 52.6915 439.366 52.6396 439.366C52.5877 439.366 52.5365 439.378 52.4896 439.4L51.5996 439.92C51.5396 440 51.5296 440 51.5996 440.09Z" fill="#3A2C6D"/>
<path d="M50.2887 439.33L51.2187 439.87C51.2639 439.892 51.3135 439.904 51.3637 439.904C51.414 439.904 51.4636 439.892 51.5087 439.87L52.3987 439.36C52.4887 439.36 52.4987 439.23 52.3987 439.19L51.4687 438.65C51.4243 438.626 51.3744 438.613 51.3237 438.613C51.273 438.613 51.2231 438.626 51.1787 438.65L50.2887 439.16C50.2187 439.21 50.2087 439.28 50.2887 439.33Z" fill="#3A2C6D"/>
<path d="M48.999 438.57L49.929 439.11C49.9759 439.132 50.0272 439.144 50.079 439.144C50.1309 439.144 50.1822 439.132 50.229 439.11L51.119 438.6C51.199 438.55 51.209 438.47 51.119 438.43L50.189 437.89C50.1422 437.868 50.0909 437.856 50.039 437.856C49.9871 437.856 49.9359 437.868 49.889 437.89L48.999 438.4C48.909 438.45 48.899 438.53 48.999 438.57Z" fill="#3A2C6D"/>
<path d="M47.6598 437.81L48.5898 438.35C48.6342 438.375 48.6841 438.388 48.7348 438.388C48.7855 438.388 48.8354 438.375 48.8798 438.35L49.7698 437.84C49.8598 437.79 49.8698 437.72 49.7698 437.67L48.8398 437.13C48.7947 437.108 48.7451 437.097 48.6948 437.097C48.6446 437.097 48.595 437.108 48.5498 437.13L47.6598 437.64C47.5898 437.69 47.5798 437.77 47.6598 437.81Z" fill="#3A2C6D"/>
<path d="M46.3398 437.05L47.2698 437.59C47.3167 437.613 47.368 437.624 47.4198 437.624C47.4717 437.624 47.523 437.613 47.5698 437.59L48.4598 437.07C48.5398 437.02 48.5498 436.95 48.4598 436.9L47.5298 436.37C47.4836 436.346 47.4321 436.333 47.3798 436.333C47.3275 436.333 47.276 436.346 47.2298 436.37L46.3398 436.88C46.2798 436.93 46.2698 437 46.3398 437.05Z" fill="#3A2C6D"/>
<path d="M45 436.29L45.93 436.83C45.9751 436.852 46.0247 436.864 46.075 436.864C46.1253 436.864 46.1749 436.852 46.22 436.83L47.11 436.31C47.2 436.26 47.21 436.19 47.11 436.14L46.18 435.61C46.1356 435.586 46.0857 435.573 46.035 435.573C45.9843 435.573 45.9344 435.586 45.89 435.61L45 436.12C45 436.17 45 436.25 45 436.29Z" fill="#3A2C6D"/>
<path d="M43.709 435.53L44.639 436.07C44.6859 436.093 44.7371 436.104 44.789 436.104C44.8409 436.104 44.8921 436.093 44.939 436.07L45.829 435.55C45.909 435.5 45.919 435.43 45.829 435.38L44.899 434.85C44.8528 434.826 44.8013 434.813 44.749 434.813C44.6967 434.813 44.6452 434.826 44.599 434.85L43.709 435.36C43.649 435.41 43.639 435.49 43.709 435.53Z" fill="#3A2C6D"/>
<path d="M42.4001 434.77L43.3301 435.31C43.3752 435.332 43.4248 435.344 43.4751 435.344C43.5253 435.344 43.5749 435.332 43.6201 435.31L44.5101 434.8C44.6001 434.75 44.6101 434.67 44.5101 434.62L43.5801 434.09C43.5357 434.066 43.4858 434.053 43.4351 434.053C43.3843 434.053 43.3345 434.066 43.2901 434.09L42.4001 434.6C42.3301 434.65 42.3201 434.73 42.4001 434.77Z" fill="#3A2C6D"/>
<path d="M41.0795 434L42.0095 434.54C42.0564 434.562 42.1076 434.574 42.1595 434.574C42.2114 434.574 42.2627 434.562 42.3095 434.54L43.1995 434.03C43.2795 434.03 43.2895 433.9 43.1995 433.86L42.2695 433.32C42.2233 433.296 42.1718 433.283 42.1195 433.283C42.0672 433.283 42.0157 433.296 41.9695 433.32L41.0795 433.83C40.9995 433.89 40.9995 434 41.0795 434Z" fill="#3A2C6D"/>
<path d="M39.7692 433.26L40.6992 433.79C40.7436 433.815 40.7935 433.828 40.8442 433.828C40.8949 433.828 40.9448 433.815 40.9892 433.79L41.8792 433.28C41.9692 433.28 41.9792 433.15 41.8792 433.11L40.9492 432.57C40.9041 432.548 40.8545 432.537 40.8042 432.537C40.7539 432.537 40.7043 432.548 40.6592 432.57L39.7692 433.08C39.6992 433.13 39.6892 433.21 39.7692 433.26Z" fill="#3A2C6D"/>
<path d="M38.4492 432.5L39.3792 433.03C39.4254 433.055 39.4769 433.067 39.5292 433.067C39.5815 433.067 39.633 433.055 39.6792 433.03L40.5692 432.52C40.6492 432.47 40.6592 432.39 40.5692 432.35L39.6392 431.81C39.5923 431.788 39.5411 431.776 39.4892 431.776C39.4373 431.776 39.3861 431.788 39.3392 431.81L38.4492 432.32C38.3892 432.38 38.3792 432.45 38.4492 432.5Z" fill="#3A2C6D"/>
<path d="M37.1403 431.74L38.0703 432.27C38.1147 432.295 38.1646 432.308 38.2153 432.308C38.266 432.308 38.3159 432.295 38.3603 432.27L39.2503 431.76C39.3403 431.71 39.3503 431.63 39.2503 431.59L38.3203 431.05C38.2752 431.028 38.2256 431.017 38.1753 431.017C38.125 431.017 38.0754 431.028 38.0303 431.05L37.1403 431.57C37.0703 431.62 37.0603 431.69 37.1403 431.74Z" fill="#3A2C6D"/>
<path d="M52.9196 440.85L54.8396 442C54.8858 442.025 54.9373 442.038 54.9896 442.038C55.0419 442.038 55.0934 442.025 55.1396 442L56.0196 441.49C56.1096 441.44 56.1196 441.37 56.0196 441.32L54.0996 440.21C54.0544 440.188 54.0049 440.177 53.9546 440.177C53.9043 440.177 53.8547 440.188 53.8096 440.21L52.9196 440.73C52.8496 440.73 52.8396 440.8 52.9196 440.85Z" fill="#3A2C6D"/>
<path d="M50.999 441.2L51.929 441.74C51.9742 441.762 52.0238 441.774 52.074 441.774C52.1243 441.774 52.1739 441.762 52.219 441.74L53.109 441.22C53.199 441.22 53.209 441.1 53.109 441.05L52.179 440.52C52.1346 440.496 52.0847 440.483 52.034 440.483C51.9833 440.483 51.9334 440.496 51.889 440.52L50.999 441C50.909 441.08 50.899 441.16 50.999 441.2Z" fill="#3A2C6D"/>
<path d="M49.6591 440.44L50.5891 440.98C50.636 441.002 50.6872 441.014 50.7391 441.014C50.791 441.014 50.8422 441.002 50.8891 440.98L51.7791 440.46C51.8591 440.41 51.8691 440.34 51.7791 440.29L50.8491 439.76C50.8029 439.735 50.7514 439.723 50.6991 439.723C50.6468 439.723 50.5953 439.735 50.5491 439.76L49.6691 440.27C49.5991 440.32 49.5891 440.4 49.6591 440.44Z" fill="#3A2C6D"/>
<path d="M48.3493 439.68L49.2793 440.22C49.3244 440.242 49.374 440.254 49.4243 440.254C49.4745 440.254 49.5241 440.242 49.5693 440.22L50.4593 439.71C50.5493 439.65 50.5593 439.58 50.4593 439.53L49.5293 439C49.4849 438.976 49.435 438.963 49.3843 438.963C49.3336 438.963 49.2837 438.976 49.2393 439L48.3493 439.51C48.2793 439.56 48.2693 439.64 48.3493 439.68Z" fill="#3A2C6D"/>
<path d="M47 438.92L47.93 439.46C47.9769 439.482 48.0281 439.494 48.08 439.494C48.1319 439.494 48.1831 439.482 48.23 439.46L49.12 438.95C49.21 438.9 49.21 438.82 49.12 438.78L48.19 438.24C48.1438 438.215 48.0923 438.203 48.04 438.203C47.9877 438.203 47.9362 438.215 47.89 438.24L47.01 438.75C47 438.8 47 438.88 47 438.92Z" fill="#3A2C6D"/>
<path d="M45.7204 438.16L46.6504 438.7C46.6966 438.725 46.7481 438.738 46.8004 438.738C46.8527 438.738 46.9042 438.725 46.9504 438.7L47.8304 438.19C47.9204 438.14 47.9304 438.06 47.8304 438.02L46.9004 437.48C46.8552 437.458 46.8056 437.447 46.7554 437.447C46.7051 437.447 46.6555 437.458 46.6104 437.48L45.7204 437.99C45.6504 438 45.6404 438.12 45.7204 438.16Z" fill="#3A2C6D"/>
<path d="M44.3993 437.41L45.3293 437.94C45.3755 437.965 45.427 437.978 45.4793 437.978C45.5316 437.978 45.5831 437.965 45.6293 437.94L46.5193 437.43C46.6093 437.38 46.6193 437.3 46.5193 437.26L45.5893 436.72C45.5425 436.698 45.4912 436.687 45.4393 436.687C45.3874 436.687 45.3362 436.698 45.2893 436.72L44.4093 437.24C44.3393 437.29 44.3293 437.36 44.3993 437.41Z" fill="#3A2C6D"/>
<path d="M43.089 436.65L44.019 437.18C44.0652 437.205 44.1167 437.218 44.169 437.218C44.2213 437.218 44.2728 437.205 44.319 437.18L45.199 436.67C45.289 436.62 45.299 436.54 45.199 436.5L44.269 435.96C44.2238 435.938 44.1742 435.927 44.124 435.927C44.0737 435.927 44.0241 435.938 43.979 435.96L43.089 436.48C42.999 436.53 42.999 436.6 43.089 436.65Z" fill="#3A2C6D"/>
<path d="M41.779 435.89L42.709 436.42C42.7534 436.445 42.8033 436.458 42.854 436.458C42.9047 436.458 42.9546 436.445 42.999 436.42L43.889 435.91C43.979 435.91 43.989 435.78 43.889 435.74L42.959 435.2C42.9121 435.178 42.8609 435.167 42.809 435.167C42.7571 435.167 42.7058 435.178 42.659 435.2L41.779 435.72C41.709 435.77 41.699 435.84 41.779 435.89Z" fill="#3A2C6D"/>
<path d="M40.4598 435.13L41.3898 435.67C41.4367 435.692 41.488 435.704 41.5398 435.704C41.5917 435.704 41.643 435.692 41.6898 435.67L42.5698 435.16C42.6598 435.11 42.6698 435.03 42.5698 434.99L41.6398 434.45C41.5936 434.425 41.5421 434.413 41.4898 434.413C41.4375 434.413 41.386 434.425 41.3398 434.45L40.4498 434.96C40.3898 435 40.3798 435.08 40.4598 435.13Z" fill="#3A2C6D"/>
<path d="M39.1501 434.37L40.0801 434.91C40.1252 434.932 40.1748 434.944 40.2251 434.944C40.2753 434.944 40.3249 434.932 40.3701 434.91L41.2601 434.4C41.3501 434.35 41.3601 434.27 41.2601 434.23L40.3301 433.69C40.2832 433.668 40.2319 433.656 40.1801 433.656C40.1282 433.656 40.0769 433.668 40.0301 433.69L39.1501 434.2C39.0801 434.25 39.0701 434.33 39.1501 434.37Z" fill="#3A2C6D"/>
<path d="M37.8292 433.61L38.7592 434.15C38.8061 434.172 38.8573 434.184 38.9092 434.184C38.9611 434.184 39.0123 434.172 39.0592 434.15L39.9392 433.63C40.0292 433.58 40.0392 433.51 39.9392 433.46L39.0092 432.93C38.963 432.905 38.9115 432.893 38.8592 432.893C38.8069 432.893 38.7554 432.905 38.7092 432.93L37.8192 433.44C37.7592 433.49 37.7592 433.57 37.8292 433.61Z" fill="#3A2C6D"/>
<path d="M34.8903 431.91L37.4503 433.39C37.4954 433.412 37.545 433.424 37.5953 433.424C37.6456 433.424 37.6952 433.412 37.7403 433.39L38.6303 432.87C38.7203 432.82 38.7303 432.75 38.6303 432.7L36.0703 431.23C36.0259 431.206 35.976 431.193 35.9253 431.193C35.8746 431.193 35.8247 431.206 35.7803 431.23L34.8903 431.74C34.8203 431.79 34.8103 431.87 34.8903 431.91Z" fill="#3A2C6D"/>
<path d="M52.2902 442L53.5602 442.73C53.6064 442.755 53.6579 442.767 53.7102 442.767C53.7625 442.767 53.814 442.755 53.8602 442.73L54.7402 442.22C54.8302 442.17 54.8402 442.09 54.7402 442.05L53.4702 441.31C53.4234 441.288 53.3721 441.276 53.3202 441.276C53.2683 441.276 53.2171 441.288 53.1702 441.31L52.2802 441.82C52.2302 441.84 52.2202 441.92 52.2902 442Z" fill="#3A2C6D"/>
<path d="M61.9301 439.35L40.8301 427.16V410.57L40.9901 410.19L41.1701 410.11C41.3905 409.983 41.6405 409.916 41.8951 409.916C42.1496 409.916 42.3996 409.983 42.6201 410.11L61.9301 421.26C62.1514 421.388 62.3353 421.572 62.4634 421.793C62.5915 422.014 62.6593 422.265 62.6601 422.52V438.09C62.5301 438.89 62.3801 439.09 61.9301 439.35Z" fill="#E5E5E5"/>
<path d="M60.0001 423.26L40.8301 411.12V410.57L40.9901 410.19L41.1701 410.11C41.3905 409.983 41.6405 409.916 41.8951 409.916C42.1496 409.916 42.3996 409.983 42.6201 410.11L61.9301 421.26C62.1661 421.395 62.36 421.592 62.4901 421.83L60.0001 423.26Z" fill="#E5E5E5"/>
<path d="M41.3201 410.19L61.5801 421.89C61.6864 421.953 61.7745 422.042 61.8359 422.149C61.8973 422.256 61.9297 422.377 61.9301 422.5V439.35L40.8301 427.16V410.47C40.8315 410.414 40.8476 410.358 40.8767 410.31C40.9058 410.261 40.947 410.221 40.9962 410.192C41.0455 410.164 41.1012 410.149 41.1579 410.149C41.2146 410.149 41.2705 410.163 41.3201 410.19Z" fill="#DCEEFF"/>
<path d="M41.3201 410.19L61.5801 421.89C61.6864 421.953 61.7745 422.042 61.8359 422.149C61.8973 422.256 61.9297 422.377 61.9301 422.5V439.35L40.8301 427.16V410.47C40.8315 410.414 40.8476 410.358 40.8767 410.31C40.9058 410.261 40.947 410.221 40.9962 410.192C41.0455 410.164 41.1012 410.149 41.1579 410.149C41.2146 410.149 41.2705 410.163 41.3201 410.19Z" fill="#F4F4F4"/>
<path d="M61.9301 439.35V438.74L40.8301 426.56V427.16L61.9301 439.35Z" fill="#DBDBDB"/>
<path d="M41.3809 426.28V411.06L41.6309 411.21V426.15L41.3809 426.28Z" fill="#1E3779"/>
<path d="M41.6309 411.21V426.15L61.2609 437.45V422.54L41.6309 411.21Z" fill="#3A2C6D"/>
<path d="M41.3809 426.28L61.2609 437.75V437.45L41.6309 426.15L41.3809 426.28Z" fill="#031F60"/>
<path d="M18.6594 407.55C18.1594 408.8 19.4294 410.33 22.8294 411.4C26.2294 412.47 26.5394 411.1 26.5394 411.1C28.8064 412.112 31.0163 413.247 33.1594 414.5C35.1594 415.93 36.0994 420.06 36.3794 427.04C36.6994 435.11 36.7194 447.04 36.4594 449.15C36.4594 449.15 32.6394 452.95 27.7594 452.55C22.8794 452.15 14.6594 447.83 12.6594 444.49C12.7194 437.41 13.5394 436.26 12.3994 432.18C9.77942 422.85 8.39942 419.03 9.66942 412.83C10.7194 407.72 12.1894 407.08 14.2094 407.13C15.6991 407.191 17.1846 407.331 18.6594 407.55Z" fill="#F4F4F4"/>
<path d="M44.4092 435.69C40.4092 436.69 39.4592 434.17 38.9292 432.08C37.6592 427.01 36.9292 422.44 36.0192 419.56C34.8992 416.17 33.7292 415.63 32.0792 414.97C30.1492 414.19 28.4792 415.83 29.1292 420.14C29.9162 425.152 31.1443 430.085 32.7992 434.88C33.2992 436.46 34.4192 439.26 36.0892 440.62C38.1592 442.29 41.2692 442.22 45.9792 441.04C47.9792 440.54 50.1992 439.34 53.9792 437.57C54.9792 437.09 55.7892 436.78 57.7492 435.86C59.7072 434.975 61.4225 433.631 62.7492 431.94C63.7492 430.46 63.9092 429.76 63.7492 429.42C63.5892 429.08 63.0192 429.09 62.4692 429.71C61.684 430.772 60.7073 431.678 59.5892 432.38C59.5892 432.38 60.8592 431.07 61.5392 430.22C62.1581 429.471 62.6697 428.64 63.0592 427.75C63.4192 426.88 62.6692 425.7 62.0592 426.32C61.4492 426.94 61.2192 427.57 60.1792 428.81C59.6352 429.472 59.0141 430.066 58.3292 430.58C58.9718 429.711 59.5436 428.791 60.0392 427.83C60.4794 427.076 60.6946 426.212 60.6592 425.34C60.6592 424.89 59.9892 424.34 59.3892 425.21C58.8072 426.389 58.0853 427.494 57.2392 428.5C56.3192 429.45 55.5492 429.99 55.5192 429.73C55.4892 429.47 56.0792 428.95 56.3992 427.84C56.7192 426.73 56.3992 425.56 55.7892 425.44C55.1792 425.32 55.2992 425.34 54.7892 426.38C54.1222 427.444 53.5243 428.55 52.9992 429.69C52.6851 430.756 52.1191 431.73 51.3492 432.53C50.3992 433.57 48.2192 434.73 44.4092 435.69Z" fill="#FFCEA9"/>
<path d="M30.6004 414.28C33.2704 413.88 35.1604 415.09 36.3504 419.14C37.5404 423.19 38.3504 426.53 38.3504 426.53C37.2915 428.067 35.6851 429.14 33.8604 429.53C30.6604 430.31 29.5104 428.78 29.5104 428.78C29.5104 428.78 28.6204 424.53 28.0704 421.64C27.5204 418.75 27.2904 414.77 30.6004 414.28Z" fill="#EDEDED"/>
<path d="M31.9197 393.52C31.9197 393.52 36.1497 387.09 26.9797 385.78C20.3697 384.83 16.1297 389.08 15.6397 393.69C15.1697 398.09 17.8797 402.69 19.8397 404.47C21.7628 404.956 23.7978 404.71 25.5497 403.78C25.6549 402.583 25.6949 401.381 25.6697 400.18C25.6697 400.18 22.4497 393.4 31.9197 393.52Z" fill="#3A2C6D"/>
<path d="M50.2597 474.86V455.55L34.9297 464.5L40.8297 476.71L50.2597 474.86Z" fill="#D5D6E0"/>
<path d="M40.2109 456.66L46.0909 453.25L50.2609 455.65L44.1609 459.11L40.2109 456.66Z" fill="#E9EAF4"/>
<path d="M235.619 358.52C237.878 358.52 239.709 357.463 239.709 356.16C239.709 354.856 237.878 353.8 235.619 353.8C233.36 353.8 231.529 354.856 231.529 356.16C231.529 357.463 233.36 358.52 235.619 358.52Z" fill="#D5D6E0"/>
</g>
<defs>
<linearGradient id="paint0_linear_365_4747" x1="235.62" y1="356.16" x2="235.62" y2="256.93" gradientUnits="userSpaceOnUse">
<stop stop-color="#E9EAF4"/>
<stop offset="0.63" stop-color="#E9EAF4" stop-opacity="0"/>
</linearGradient>
<clipPath id="clip0_365_4747">
<rect width="384.72" height="500" fill="white"/>
</clipPath>
</defs>
</svg>
