<svg width="377" height="500" viewBox="0 0 377 500" fill="none" xmlns="http://www.w3.org/2000/svg">
<path d="M298.17 409.328L190.29 346.998C181.15 341.728 173.74 327.568 173.74 315.388V14.4881C173.74 2.30809 181.15 -3.29191 190.29 1.98809L298.17 64.2681C307.31 69.5481 314.72 83.7081 314.72 95.8881V396.818C314.72 408.998 307.31 414.608 298.17 409.328Z" fill="#B1B4C4"/>
<path d="M300.02 414.758L308.57 410.438L300.37 396.378L300.02 414.758Z" fill="#B1B4C4"/>
<path d="M172.061 4.98791L179.931 0.85791L178.341 12.4579L172.061 4.98791Z" fill="#B1B4C4"/>
<path d="M291.289 412.768L183.409 350.478C174.269 345.208 166.859 331.048 166.859 318.868V17.9283C166.859 5.74826 174.269 0.148256 183.409 5.41826L291.289 67.7083C300.429 72.9883 307.839 87.1383 307.839 99.3283V400.258C307.839 412.448 300.429 418.048 291.289 412.768Z" fill="#616E84"/>
<path d="M306.661 100.098V400.998C306.661 413.198 299.261 418.788 290.121 413.518L247.811 389.088L234.661 381.518L182.261 351.248C173.121 345.968 165.721 331.818 165.721 319.628V18.6983C165.721 6.50827 173.121 0.918267 182.261 6.18827L290.151 68.4683C299.291 73.7583 306.661 87.8983 306.661 100.098Z" fill="#20232D"/>
<path d="M298.91 96.998V390.098C298.91 397.468 293.74 400.478 287.34 396.778L253.66 377.348L250.66 375.628L249.66 375.038L242.37 370.838L221.27 358.668L212.52 353.618L209 351.618L185.09 337.818C178.7 334.128 173.52 325.148 173.52 317.748V24.628C173.52 17.238 178.7 14.248 185.09 17.938L227.21 42.258V42.378C227.21 48.128 231.21 55.118 236.21 57.988C241.21 60.858 245.21 58.528 245.21 52.788C245.21 52.788 245.21 52.698 245.21 52.658L287.34 76.998C293.74 80.668 298.91 89.648 298.91 96.998Z" fill="white"/>
<path d="M238.637 54.9627C239.971 54.1923 239.97 51.6911 238.633 49.3762C237.297 47.0612 235.131 45.8092 233.797 46.5796C232.463 47.3501 232.464 49.8512 233.801 52.1662C235.137 54.4811 237.303 55.7332 238.637 54.9627Z" fill="#2B303F"/>
<path opacity="0.1" d="M236.21 52.4283C235.79 52.1568 235.44 51.7895 235.19 51.3566C234.939 50.9238 234.795 50.4377 234.77 49.9383C234.77 49.0283 235.41 48.6583 236.21 49.1183C236.63 49.3877 236.981 49.7529 237.233 50.184C237.485 50.6151 237.631 51.0997 237.66 51.5983C237.66 52.5083 237 52.8783 236.21 52.4283Z" fill="white"/>
<path d="M311.07 139.688C310.19 140.198 309.48 139.688 309.48 138.488V125.658C309.496 125.069 309.648 124.492 309.924 123.972C310.2 123.451 310.592 123.002 311.07 122.658C311.95 122.148 312.66 122.658 312.66 123.868V136.698C312.644 137.285 312.492 137.861 312.216 138.379C311.94 138.898 311.548 139.346 311.07 139.688Z" fill="#757B89"/>
<path d="M311.07 160.718C310.19 161.218 309.48 160.718 309.48 159.508V146.678C309.489 146.081 309.638 145.494 309.914 144.965C310.19 144.435 310.586 143.978 311.07 143.628C311.95 143.128 312.66 143.628 312.66 144.838V157.668C312.652 158.265 312.503 158.852 312.227 159.382C311.951 159.911 311.555 160.369 311.07 160.718Z" fill="#757B89"/>
<path d="M278.661 371.798L193.811 322.798C189.411 320.258 185.811 313.428 185.811 307.558V149.998C185.811 144.118 189.391 141.418 193.811 143.998L278.661 192.998C283.071 195.548 286.661 202.368 286.661 208.248V365.848C286.661 371.638 283.041 374.338 278.661 371.798Z" fill="#E9EAF2"/>
<path d="M226.509 212.337C232.741 208.739 232.74 197.071 226.508 186.275C220.275 175.48 210.171 169.646 203.939 173.244C197.706 176.842 197.707 188.51 203.939 199.305C210.172 210.101 220.276 215.935 226.509 212.337Z" fill="#CED0DB"/>
<path d="M273.66 224.408L240.84 205.458V197.778L273.66 216.728V224.408Z" fill="#CED0DB"/>
<path d="M266.09 233.848L240.84 219.278V211.598L266.09 226.178V233.848Z" fill="#CED0DB"/>
<path d="M273.66 268.738L199.27 225.788V218.118L273.66 261.058V268.738Z" fill="#CED0DB"/>
<path d="M256.49 272.648L199.27 239.608V231.928L256.49 264.968V272.648Z" fill="#CED0DB"/>
<path d="M273.4 296.228L199.01 253.278V245.598L273.4 288.548V296.228Z" fill="#CED0DB"/>
<path d="M256.24 300.138L199.01 267.098V259.418L256.24 292.458V300.138Z" fill="#CED0DB"/>
<path d="M273.4 323.868L199.01 280.918V273.238L273.4 316.188V323.868Z" fill="#CED0DB"/>
<path d="M272.74 351.118L198.35 308.168V300.498L272.74 343.438V351.118Z" fill="#CED0DB"/>
<path d="M256.24 327.778L199.01 294.738V287.058L256.24 320.098V327.778Z" fill="#CED0DB"/>
<path d="M209.27 135.348C208.92 135.112 208.626 134.803 208.407 134.442C208.187 134.081 208.049 133.677 208 133.258L202.66 70.7782L198.46 97.5882C198.36 98.2582 197.81 98.4782 197.17 98.1082L186.96 92.2082C186.581 91.9581 186.265 91.6224 186.04 91.2281C185.814 90.8338 185.684 90.392 185.66 89.9382C185.66 89.1082 186.25 88.7682 186.97 89.1782L196.07 94.4382L201.66 58.5982C201.76 57.9182 202.35 57.7082 202.99 58.1082C203.334 58.3477 203.623 58.6566 203.84 59.0148C204.057 59.373 204.197 59.7728 204.25 60.1882L209.49 121.748L214.49 84.8882C214.58 84.2082 215.11 83.9782 215.74 84.3182C216.089 84.5392 216.387 84.8318 216.615 85.1766C216.842 85.5213 216.994 85.9104 217.06 86.3182L223.06 122.248L228.9 75.2482C228.98 74.5482 229.54 74.3082 230.19 74.6782C230.537 74.8998 230.832 75.1929 231.056 75.5378C231.28 75.8827 231.428 76.2715 231.49 76.6782L238.43 137.598L244.19 107.598C244.31 106.978 244.83 106.778 245.45 107.108C246.103 107.544 246.559 108.219 246.72 108.988L252.58 139.188L257.83 93.7282C257.91 93.0382 258.45 92.7782 259.1 93.1382C259.453 93.3547 259.754 93.646 259.982 93.9916C260.21 94.3372 260.36 94.7286 260.42 95.1382L266.87 143.138L271.39 122.138C271.51 121.538 272.01 121.338 272.6 121.648C272.927 121.846 273.211 122.107 273.436 122.417C273.661 122.726 273.822 123.076 273.91 123.448L278.27 141.378L287.64 146.638C288.02 146.884 288.336 147.216 288.564 147.607C288.792 147.998 288.924 148.437 288.95 148.888C288.95 149.728 288.39 150.078 287.66 149.678L277.33 143.878C276.708 143.465 276.262 142.833 276.08 142.108L272.91 129.108L267.98 152.108C267.85 152.738 267.3 152.948 266.67 152.538C266.332 152.311 266.046 152.016 265.829 151.671C265.612 151.327 265.469 150.941 265.41 150.538L259.32 105.268L254.32 148.618C254.24 149.288 253.73 149.548 253.1 149.228C252.752 149.022 252.451 148.745 252.218 148.414C251.986 148.083 251.826 147.706 251.75 147.308L245.66 115.658L239.52 147.568C239.39 148.218 238.82 148.398 238.19 148.018C237.856 147.788 237.571 147.491 237.355 147.148C237.138 146.804 236.994 146.42 236.93 146.018L230.26 87.3582L224.66 132.188C224.58 132.868 224.05 133.118 223.41 132.778C223.063 132.554 222.765 132.261 222.536 131.917C222.307 131.573 222.152 131.185 222.08 130.778L216.08 94.5182L210.58 134.768C210.47 135.488 209.92 135.718 209.27 135.348Z" fill="#CED0DB"/>
<path opacity="0.4" d="M49.46 479.418C76.776 479.418 98.92 466.631 98.92 450.858C98.92 435.085 76.776 422.298 49.46 422.298C22.144 422.298 0 435.085 0 450.858C0 466.631 22.144 479.418 49.46 479.418Z" fill="#D6D8E5"/>
<path d="M14.2206 239.098C13.6706 243.908 7.93058 264.658 9.16058 271.768C10.3906 278.878 30.0006 290.768 30.0006 290.768L32.7206 278.598L21.8606 267.998L24.7906 247.848L14.2206 239.098Z" fill="#FFCEA9"/>
<path d="M29.3903 218.648C26.5903 217.438 21.3903 217.168 18.4703 221.948C15.5503 226.728 12.5903 243.108 12.3203 245.948C12.3203 245.948 16.3703 251.538 22.4403 250.608L29.3903 218.648Z" fill="#EDEDED"/>
<path d="M51.78 449.998C56.048 451.172 60.6068 450.619 64.47 448.458C67.52 448.548 84.11 441.458 86.37 447.408C88.37 452.638 81.16 457.468 77.32 458.408C68.94 460.408 62.74 464.618 59.37 465.328C56.87 465.858 53.62 466.208 51.62 464.238C49.23 461.878 49.43 453.128 51.78 449.998Z" fill="#38226D"/>
<path d="M59.3695 463.888C62.7395 463.188 68.9395 459.008 77.3195 456.978C80.5395 456.198 86.0795 452.678 86.6395 448.478C87.3795 453.288 80.8995 457.558 77.3195 458.418C68.9395 460.418 62.7395 464.628 59.3695 465.338C56.8695 465.868 53.6195 466.218 51.6195 464.248C51.1036 463.675 50.7271 462.991 50.5195 462.248C53.4395 464.668 56.8695 464.418 59.3695 463.888Z" fill="#9C73FF"/>
<path d="M24.8707 437.928C29.1369 439.112 33.6982 438.562 37.5607 436.398C40.6207 436.488 57.2007 429.398 59.4607 435.398C61.4607 440.628 54.2507 445.458 50.4107 446.398C42.0307 448.398 35.8307 452.608 32.4707 453.318C29.9607 453.848 26.7107 454.198 24.7207 452.218C22.3207 449.798 22.5307 441.048 24.8707 437.928Z" fill="#38226D"/>
<path d="M32.4691 451.808C35.8291 451.098 42.0291 446.928 50.4091 444.898C53.6291 444.118 59.1691 440.588 59.7291 436.398C60.4791 441.208 53.9891 445.478 50.4091 446.338C42.0291 448.338 35.8291 452.548 32.4691 453.258C29.9591 453.788 26.7091 454.138 24.7191 452.158C24.1957 451.59 23.8182 450.904 23.6191 450.158C26.5291 452.578 29.9591 452.338 32.4691 451.808Z" fill="#9C73FF"/>
<path d="M24.5397 392.858C25.2577 386.697 26.5397 380.615 28.3697 374.688C28.3697 374.688 27.2297 358.998 26.6597 344.138C26.0097 327.268 20.1597 312.418 24.7697 298.958L76.8297 310.538C76.8297 310.538 73.6797 377.798 72.9797 385.938C72.6033 392.274 71.8285 398.58 70.6597 404.818C68.2797 417.878 64.4197 448.938 64.4197 448.938C58.9097 452.138 51.6897 450.368 51.6897 450.368C51.6897 450.368 52.0897 411.088 52.4397 401.678C52.8697 390.188 53.2197 391.068 53.2197 391.068L51.4997 362.458L50.3797 348.218C50.3797 348.218 48.9397 358.668 47.9997 367.998C47.1797 376.138 45.2197 383.498 42.9997 398.638C41.0997 411.778 37.9997 438.178 37.9997 438.178C32.4997 441.378 24.9997 438.728 24.9997 438.728C24.9997 438.728 23.0497 404.258 24.5397 392.858Z" fill="#8C50FF"/>
<path d="M32.1392 218.928C36.1392 219.128 39.0592 220.148 39.5592 218.928C39.9826 216.881 40.2831 214.811 40.4592 212.728C39.9992 211.578 39.6092 210.348 39.6092 210.348C34.6092 207.278 33.0592 201.898 32.3992 195.638C31.2892 184.928 37.0692 175.548 47.7792 174.428C57.8492 173.428 65.2592 180.428 67.2292 190.178C68.2992 194.968 70.4192 204.038 67.5492 211.928C65.9492 216.338 63.8892 219.838 61.8192 220.518C59.8274 220.461 57.8407 220.287 55.8692 219.998C55.8692 219.998 55.3392 222.998 54.9692 224.878C54.5992 226.758 54.7492 227.798 58.5492 230.148C62.3492 232.498 52.7992 237.298 46.5492 236.828C40.2992 236.358 33.2992 232.588 31.3692 228.548C29.2392 224.098 29.4192 218.798 32.1392 218.928Z" fill="#FFCEA9"/>
<path d="M37.8795 219.518C36.7795 222.258 39.5695 225.608 47.0195 227.948C54.4695 230.288 55.1295 227.278 55.1295 227.278C55.1295 227.278 66.0495 232.278 69.5995 234.728C74.0695 237.858 76.0495 246.898 76.6595 262.158C77.3495 279.818 77.4095 306.018 76.8295 310.538C76.8295 310.538 68.4795 318.858 57.8295 317.978C47.1795 317.098 29.1595 307.648 24.8295 300.338C24.9495 284.858 26.7595 282.338 24.2495 273.418C18.5095 252.998 15.4895 244.638 18.2495 231.068C20.5495 219.878 23.7695 218.488 28.1895 218.598C31.4334 218.733 34.668 219.041 37.8795 219.518Z" fill="#F4F4F4"/>
<path d="M93.4601 276.758C84.6901 278.968 82.6301 273.438 81.4601 268.858C78.6701 257.768 77.1701 247.758 75.0901 241.468C72.6401 234.048 70.0901 232.858 66.4701 231.418C62.2301 229.718 58.5901 233.298 60.0001 242.738C61.6701 253.918 63.8601 261.738 68.0001 274.988C69.0901 278.438 71.5301 284.578 75.2001 287.538C79.7201 291.198 86.5401 291.038 96.8501 288.478C101.25 287.378 106.07 284.748 114.39 280.868C116.62 279.868 118.39 279.138 122.64 277.138C126.89 275.138 131.39 271.808 133.64 268.558C135.89 265.308 136.18 263.778 135.72 263.038C135.15 262.108 134.13 262.308 132.93 263.678C131.199 265.991 129.06 267.97 126.62 269.518C126.62 269.518 129.39 266.658 130.89 264.798C132.236 263.149 133.353 261.326 134.21 259.378C135 257.478 133.37 254.908 132.13 256.258C130.89 257.608 130.3 258.988 128.03 261.708C126.831 263.154 125.465 264.454 123.96 265.578C125.367 263.68 126.621 261.674 127.71 259.578C129.15 256.638 129.13 255.128 129.07 254.138C129.01 253.148 127.61 251.968 126.3 253.838C125.11 255.528 124.3 258.168 121.59 261.038C119.59 263.118 117.88 264.318 117.83 263.738C117.78 263.158 119.04 262.018 119.76 259.598C120.48 257.178 119.76 254.598 118.42 254.338C117.08 254.078 117.34 254.138 116.26 256.398C115.18 258.658 113.54 260.338 112.26 263.648C111.15 266.558 110.65 267.738 108.65 269.858C106.56 272.118 101.8 274.658 93.4601 276.758Z" fill="#FFCEA9"/>
<path d="M63.2296 229.898C69.0896 229.038 73.2296 231.678 75.8096 240.548C78.3896 249.418 80.2096 256.708 80.2096 256.708C77.8901 260.05 74.3805 262.379 70.3996 263.218C63.3996 264.918 60.8696 261.568 60.8696 261.568C60.8696 261.568 58.8696 252.268 57.7096 245.938C56.5496 239.608 55.9796 230.998 63.2296 229.898Z" fill="#EDEDED"/>
<path d="M66.8902 188.808C66.8902 188.808 76.1502 174.738 56.1002 171.868C41.6402 169.808 32.3402 179.098 31.2702 189.178C30.2702 198.808 36.1802 208.808 40.4602 212.778C42.5502 213.528 47.0502 213.958 52.9602 211.268C53.1967 208.645 53.2868 206.011 53.2302 203.378C53.2302 203.378 46.1802 188.548 66.8902 188.808Z" fill="#3A2C6D"/>
<path opacity="0.4" d="M222.11 499.998C235.337 499.998 246.06 493.806 246.06 486.168C246.06 478.53 235.337 472.338 222.11 472.338C208.883 472.338 198.16 478.53 198.16 486.168C198.16 493.806 208.883 499.998 222.11 499.998Z" fill="#D6D8E5"/>
<path d="M225.671 499.108C238.898 499.108 249.621 492.916 249.621 485.278C249.621 477.64 238.898 471.448 225.671 471.448C212.443 471.448 201.721 477.64 201.721 485.278C201.721 492.916 212.443 499.108 225.671 499.108Z" fill="#D9DCE8"/>
<path d="M201.721 485.058V478.118L209.331 480.668L201.721 485.058Z" fill="#D9DCE8"/>
<path d="M249.6 478.608V484.838L240.83 483.118L249.6 478.608Z" fill="#D9DCE8"/>
<path d="M225.671 491.998C238.898 491.998 249.621 485.806 249.621 478.168C249.621 470.53 238.898 464.338 225.671 464.338C212.443 464.338 201.721 470.53 201.721 478.168C201.721 485.806 212.443 491.998 225.671 491.998Z" fill="#EFF1F9"/>
<path d="M209.969 488.608L207.369 487.108L241.139 467.618L243.729 469.118L209.969 488.608Z" fill="#D3D6E2"/>
<path d="M207.369 487.108V494.208L209.729 495.608L210.059 495.768V488.608L207.369 487.108Z" fill="#C5C8D3"/>
<path opacity="0.4" d="M146.61 414.66C159.837 414.66 170.56 408.468 170.56 400.83C170.56 393.192 159.837 387 146.61 387C133.383 387 122.66 393.192 122.66 400.83C122.66 408.468 133.383 414.66 146.61 414.66Z" fill="#D6D8E5"/>
<path d="M150.171 413.77C163.398 413.77 174.121 407.578 174.121 399.94C174.121 392.302 163.398 386.11 150.171 386.11C136.943 386.11 126.221 392.302 126.221 399.94C126.221 407.578 136.943 413.77 150.171 413.77Z" fill="#D9DCE8"/>
<path d="M126.221 399.71V392.76L133.831 395.32L126.221 399.71Z" fill="#D9DCE8"/>
<path d="M174.1 393.27V399.5L165.33 397.77L174.1 393.27Z" fill="#D9DCE8"/>
<path d="M150.171 406.66C163.398 406.66 174.121 400.468 174.121 392.83C174.121 385.192 163.398 379 150.171 379C136.943 379 126.221 385.192 126.221 392.83C126.221 400.468 136.943 406.66 150.171 406.66Z" fill="#EFF1F9"/>
<path d="M134.471 403.27L131.881 401.77L165.641 382.28L168.241 383.78L134.471 403.27Z" fill="#D3D6E2"/>
<path d="M131.881 401.77V408.87L134.231 410.26L134.561 410.43V403.27L131.881 401.77Z" fill="#C5C8D3"/>
<path opacity="0.4" d="M348.52 461.148C361.748 461.148 372.47 454.956 372.47 447.318C372.47 439.68 361.748 433.488 348.52 433.488C335.293 433.488 324.57 439.68 324.57 447.318C324.57 454.956 335.293 461.148 348.52 461.148Z" fill="#D6D8E5"/>
<path d="M352.069 460.258C365.296 460.258 376.019 454.066 376.019 446.428C376.019 438.79 365.296 432.598 352.069 432.598C338.842 432.598 328.119 438.79 328.119 446.428C328.119 454.066 338.842 460.258 352.069 460.258Z" fill="#D9DCE8"/>
<path d="M328.131 446.208C328.131 446.148 328.131 439.258 328.131 439.258L335.751 441.818L328.131 446.208Z" fill="#D9DCE8"/>
<path d="M376.01 439.758V445.988L367.24 444.258L376.01 439.758Z" fill="#D9DCE8"/>
<path d="M352.069 453.148C365.296 453.148 376.019 446.956 376.019 439.318C376.019 431.68 365.296 425.488 352.069 425.488C338.842 425.488 328.119 431.68 328.119 439.318C328.119 446.956 338.842 453.148 352.069 453.148Z" fill="#EFF1F9"/>
<path d="M336.379 449.758L333.779 448.258L367.539 428.768L370.139 430.268L336.379 449.758Z" fill="#D3D6E2"/>
<path d="M333.779 448.258V455.358L336.139 456.748L336.469 456.918V449.758L333.779 448.258Z" fill="#C5C8D3"/>
</svg>
