<svg width="500" height="470" viewBox="0 0 500 470" fill="none" xmlns="http://www.w3.org/2000/svg">
<g clip-path="url(#clip0_361_4624)">
<path opacity="0.4" d="M364.56 276.51L152.46 398.97L0 310.95L212.42 188.68L364.56 276.51Z" fill="#D6D8E5"/>
<path d="M373.72 257.63L161.62 380.1L9.16016 292.08L221.58 169.8L373.72 257.63Z" fill="#41538C"/>
<path d="M373.719 271.17L161.619 393.63V380.1L373.719 257.64V271.17Z" fill="#263351"/>
<path d="M161.62 393.63L9.16016 305.62V292.09L161.62 380.1V393.63Z" fill="#314366"/>
<path d="M153.21 336.47L59.25 282.22L118.64 247.93L212.59 302.18L153.21 336.47Z" fill="#41538C"/>
<path d="M212.601 312.45L153.211 346.74V336.5L212.601 302.21V312.45Z" fill="#263351"/>
<path d="M153.21 346.74L59.25 292.49V282.26L153.21 336.5V346.74Z" fill="#314366"/>
<path d="M147.81 313.83L90.75 280.89L124.03 261.68L181.09 294.62L147.81 313.83Z" fill="#8DBBFF"/>
<path d="M147.81 317.88L90.75 284.94V280.82L147.81 313.76V317.88Z" fill="#7FAEDD"/>
<path d="M181.091 298.67L147.811 317.88V313.76L181.091 294.55V298.67Z" fill="#6F98C9"/>
<path opacity="0.2" d="M136.12 295.95C143.957 295.95 150.31 292.279 150.31 287.75C150.31 283.221 143.957 279.55 136.12 279.55C128.283 279.55 121.93 283.221 121.93 287.75C121.93 292.279 128.283 295.95 136.12 295.95Z" fill="white"/>
<path d="M199.711 203.63C199.711 203.63 217.711 170.98 203.351 133.03C188.991 95.0801 219.481 98.8101 219.481 98.8101L251.921 129.05L256.921 215.22L232.551 240.51L199.301 228.07L199.711 203.63Z" fill="#314366"/>
<path d="M189 50.9102C189 50.9102 230.57 62.4802 247 80.8002C263.43 99.1202 198.69 81.8702 198.69 81.8702L189 50.9102Z" fill="#41538C"/>
<path d="M219.33 67.1302L152.96 105.45L122.58 89.2302L188.95 50.9102L219.33 67.1302Z" fill="#41538C"/>
<path d="M251.28 257.64C251.28 257.64 277.2 193.06 268.45 129.36C261.61 80.1499 230.72 69.2099 230.72 69.2099C230.72 69.2099 221.97 65.3799 215.14 65.1099L168.92 91.2399V155.24L215.14 128.57C215.14 128.57 242.2 141.14 230.72 188.17C226.255 209.85 220.674 231.285 214 252.39L251.28 257.64Z" fill="#263351"/>
<path d="M219.761 242.59L240.121 227.14L209.541 209.31L191.261 198.76C187.161 196.39 180.141 203.76 180.141 210.5V260.23L215.651 280.91L245.051 249.91L219.761 242.59Z" fill="#314366"/>
<path d="M274.45 247L215.65 281V231.17C215.65 224.47 222.65 217.06 226.77 219.43L245.05 230L274.45 247Z" fill="#263351"/>
<path d="M240.135 254.332C244.346 247.038 244.348 239.155 240.139 236.725C235.93 234.295 229.104 238.238 224.893 245.532C220.681 252.826 220.68 260.709 224.889 263.139C229.098 265.569 235.923 261.626 240.135 254.332Z" fill="#ACBAD1"/>
<path d="M236.326 252.132C238.43 248.487 238.43 244.548 236.325 243.333C234.221 242.118 230.809 244.087 228.705 247.732C226.6 251.377 226.601 255.316 228.705 256.531C230.81 257.746 234.221 255.777 236.326 252.132Z" fill="#99A9BF"/>
<path d="M193.525 119.797C197.736 112.503 197.738 104.62 193.529 102.19C189.32 99.7603 182.494 103.703 178.283 110.997C174.072 118.291 174.07 126.174 178.279 128.604C182.488 131.034 189.314 127.091 193.525 119.797Z" fill="#ACBAD1"/>
<path d="M189.714 117.597C191.818 113.953 191.818 110.013 189.714 108.798C187.609 107.583 184.197 109.553 182.093 113.197C179.989 116.842 179.989 120.781 182.094 121.996C184.198 123.211 187.61 121.242 189.714 117.597Z" fill="#99A9BF"/>
<path d="M145.929 222.29V198H126.289V222.61C126.359 224 127.289 225.38 129.149 226.45C131.304 227.54 133.684 228.107 136.099 228.107C138.514 228.107 140.894 227.54 143.049 226.45C144.999 225.27 145.999 223.78 145.929 222.29Z" fill="#314366"/>
<path d="M136.109 203.43C141.538 203.43 145.939 200.887 145.939 197.75C145.939 194.613 141.538 192.07 136.109 192.07C130.68 192.07 126.279 194.613 126.279 197.75C126.279 200.887 130.68 203.43 136.109 203.43Z" fill="#BCC0CE"/>
<path d="M155.761 201.38V152.73C155.961 149.73 154.061 146.6 150.041 144.28C142.361 139.84 129.911 139.84 122.241 144.28C118.241 146.6 116.321 149.68 116.511 152.73V201.42C116.501 201.537 116.501 201.654 116.511 201.77V201.94C116.661 204.73 118.511 207.49 122.241 209.62C129.921 214.05 142.361 214.05 150.041 209.62C154.001 207.35 155.861 204.36 155.761 201.38Z" fill="#263351"/>
<path d="M168.92 171.05V57.0502L103.33 56.4702V171.07C103.33 175.92 106.53 180.77 112.94 184.47C125.75 191.86 146.52 191.86 159.34 184.47C165.72 180.75 168.92 175.9 168.92 171.05Z" fill="#314366"/>
<path d="M136.121 75.3898C154.241 75.3898 168.931 66.91 168.931 56.4498C168.931 45.9895 154.241 37.5098 136.121 37.5098C118 37.5098 103.311 45.9895 103.311 56.4498C103.311 66.91 118 75.3898 136.121 75.3898Z" fill="#41538C"/>
<path d="M152.09 55.7199V16.1899H120.17V56.1899C120.28 58.4499 121.82 60.6999 124.82 62.4299C131.06 66.0299 141.17 66.0299 147.4 62.4299C150.62 60.5599 152.17 58.1299 152.09 55.7199Z" fill="#263351"/>
<path d="M136.13 25.0699C144.95 25.0699 152.1 20.9419 152.1 15.8499C152.1 10.7578 144.95 6.62988 136.13 6.62988C127.31 6.62988 120.16 10.7578 120.16 15.8499C120.16 20.9419 127.31 25.0699 136.13 25.0699Z" fill="#8DBBFF"/>
<path d="M157.771 12.5002L156.391 13.3202C155.503 11.9889 154.378 10.8329 153.071 9.91017C152.547 9.52257 151.999 9.16853 151.431 8.85017C150.509 8.31727 149.55 7.85269 148.561 7.46017C140.544 4.43059 131.697 4.43059 123.681 7.46017C122.697 7.85882 121.742 8.3232 120.821 8.85017C120.381 9.11017 119.961 9.36017 119.571 9.63017C118.008 10.6486 116.687 11.9969 115.701 13.5802L114.471 12.4802V17.6802C114.496 19.3761 115.048 21.0222 116.051 22.3902C117.324 24.0948 118.951 25.5037 120.821 26.5202C129.271 31.4102 142.981 31.4102 151.431 26.5202C155.661 24.0802 157.781 20.8802 157.781 17.6802V12.5002H157.771ZM125.391 11.5002C131.321 8.08017 140.931 8.08017 146.851 11.5002C148.417 12.3229 149.722 13.5661 150.621 15.0902V15.1902C150.96 15.819 151.168 16.5108 151.23 17.2229C151.291 17.9349 151.207 18.6521 150.981 19.3302L137.771 22.4702C137.771 22.4702 129.261 21.8502 128.081 21.7002C125.765 21.0972 123.482 20.3762 121.241 19.5402C120.972 18.8181 120.863 18.0461 120.922 17.2778C120.98 16.5095 121.205 15.763 121.581 15.0902C122.493 13.5653 123.812 12.3254 125.391 11.5102V11.5002Z" fill="#314366"/>
<path d="M153.351 7.29015L153.071 9.93015L152.521 15.1002L150.671 15.2001H150.551C150.579 15.1666 150.602 15.1296 150.621 15.0901C149.722 13.5661 148.417 12.3229 146.851 11.5001C140.931 8.08015 131.321 8.08015 125.391 11.5001C123.836 12.3217 122.538 13.5572 121.641 15.0701L119.301 14.0701L119.591 9.67015L119.721 7.67015L124.111 4.67015C124.111 4.67015 130.591 1.95015 130.941 1.89015C131.291 1.83015 144.041 2.89015 144.041 2.89015L153.351 7.29015Z" fill="#263351"/>
<path d="M151.431 3.66C142.981 -1.22 129.271 -1.22 120.821 3.66C116.581 6.1 114.471 9.3 114.471 12.5C114.471 15.7 116.581 18.89 120.821 21.33C129.271 26.22 142.981 26.22 151.431 21.33C155.661 18.89 157.771 15.72 157.771 12.52C157.771 9.3 155.661 6.1 151.431 3.66ZM121.631 15.1C120.281 12.57 120.971 9.76 123.691 7.51C124.223 7.06772 124.796 6.67603 125.401 6.34C131.331 2.91 140.941 2.91 146.861 6.34C147.464 6.67848 148.037 7.07003 148.571 7.51C151.311 9.76 151.991 12.59 150.631 15.13C150.612 15.1695 150.589 15.2064 150.561 15.24C149.661 16.7099 148.383 17.9116 146.861 18.72C140.941 22.15 131.331 22.15 125.401 18.72C123.83 17.8904 122.523 16.6361 121.631 15.1Z" fill="#41538C"/>
<path opacity="0.2" d="M131.461 16.8502C134.261 16.8502 136.531 15.5384 136.531 13.9202C136.531 12.302 134.261 10.9902 131.461 10.9902C128.661 10.9902 126.391 12.302 126.391 13.9202C126.391 15.5384 128.661 16.8502 131.461 16.8502Z" fill="white"/>
<path opacity="0.2" d="M142.601 17.9502C144.285 17.9502 145.651 17.1622 145.651 16.1902C145.651 15.2182 144.285 14.4302 142.601 14.4302C140.916 14.4302 139.551 15.2182 139.551 16.1902C139.551 17.1622 140.916 17.9502 142.601 17.9502Z" fill="white"/>
<path opacity="0.4" d="M63.86 469.8C88.0832 469.8 107.72 458.464 107.72 444.48C107.72 430.496 88.0832 419.16 63.86 419.16C39.6368 419.16 20 430.496 20 444.48C20 458.464 39.6368 469.8 63.86 469.8Z" fill="#D6D8E5"/>
<path d="M113.28 351.23H25.5703C25.5703 351.23 25.8703 425.6 25.6403 439.71C25.5837 440.345 25.567 440.983 25.5903 441.62C25.5974 441.72 25.5974 441.82 25.5903 441.92C25.9403 448.12 30.2103 454.26 38.4103 459C55.5303 468.89 83.3003 468.89 100.41 459C108.61 454.26 112.87 448.12 113.22 441.92L113.28 351.23Z" fill="#8C50FF"/>
<path d="M69.4303 375.72C93.6535 375.72 113.29 364.384 113.29 350.4C113.29 336.416 93.6535 325.08 69.4303 325.08C45.2071 325.08 25.5703 336.416 25.5703 350.4C25.5703 364.384 45.2071 375.72 69.4303 375.72Z" fill="#8C50FF"/>
<path d="M115.43 353.79C114.971 355 114.388 356.16 113.69 357.25C112.312 359.394 110.628 361.324 108.69 362.98C108.11 363.49 107.49 363.98 106.84 364.47C105.548 365.442 104.195 366.331 102.79 367.13C102.49 367.31 102.19 367.48 101.88 367.64C101.26 367.99 100.61 368.32 99.9599 368.64C98.3799 369.41 96.7299 370.12 95.0299 370.75C94.3999 370.99 93.7699 371.22 93.1199 371.43C91.4899 371.98 89.8099 372.43 88.1199 372.89C87.5499 373.04 86.9599 373.17 86.3799 373.3C84.6999 373.67 82.9999 373.99 81.2799 374.24C80.6999 374.33 80.1099 374.41 79.5299 374.48C77.8399 374.69 76.1399 374.85 74.4299 374.95C73.8499 374.95 73.2699 375.02 72.6799 375.03C70.9899 375.11 69.2899 375.12 67.5899 375.08L65.7699 375C64.0632 374.92 62.3632 374.79 60.6699 374.61C60.0799 374.54 59.4999 374.48 58.9199 374.39C57.1999 374.17 55.4999 373.89 53.8299 373.55L52.0799 373.18C50.3399 372.78 48.6399 372.32 46.9799 371.8L45.2299 371.23C43.4799 370.62 41.7699 369.94 40.1299 369.18C39.5366 368.913 38.9566 368.633 38.3899 368.34C37.6099 367.953 36.8499 367.543 36.1099 367.11C35.1099 366.53 34.1799 365.94 33.2899 365.33C32.6799 364.92 32.0999 364.49 31.5399 364.05C29.6404 362.6 27.9274 360.92 26.4399 359.05C25.801 358.231 25.2196 357.369 24.6999 356.47C19.2799 347.01 23.0799 336.18 36.1099 328.66C54.5099 318.04 84.3399 318.04 102.74 328.66C107.92 331.66 111.63 335.15 113.9 338.89C114.504 339.878 115.016 340.919 115.43 342C116.91 345.791 116.91 349.999 115.43 353.79Z" fill="#EF990F"/>
<path d="M22.3105 347.9C22.3105 347.65 22.3105 334.35 22.3105 334.35L38.0005 341.12L22.3105 347.9Z" fill="#EF990F"/>
<path d="M116.549 333.63L116.529 347.25L107.999 354.52L102.779 342.03L116.549 333.63Z" fill="#EF990F"/>
<path d="M26.4392 341.61V359.05C25.8003 358.231 25.2189 357.369 24.6992 356.47V341.61H26.4392Z" fill="#DD8910"/>
<path d="M33.2891 347V365.34C32.6791 364.93 32.0991 364.5 31.5391 364.06V347H33.2891Z" fill="#DD8910"/>
<path d="M40.1306 351.76V369.2C39.5373 368.933 38.9573 368.653 38.3906 368.36V351.76H40.1306Z" fill="#DD8910"/>
<path d="M47 353.87V371.82L45.25 371.25V353.87H47Z" fill="#DD8910"/>
<path d="M53.8301 356.22V373.57L52.0801 373.2V356.2L53.8301 356.22Z" fill="#DD8910"/>
<path d="M60.6699 358V374.67C60.0799 374.6 59.4999 374.54 58.9199 374.45V358H60.6699Z" fill="#DD8910"/>
<path d="M67.5195 358V375.12L65.7695 375V358H67.5195Z" fill="#DD8910"/>
<path d="M74.3594 358V375C73.7794 375 73.1994 375.07 72.6094 375.08V358H74.3594Z" fill="#DD8910"/>
<path d="M81.2109 357.32V374.24C80.6309 374.33 80.0409 374.41 79.4609 374.48V357.32H81.2109Z" fill="#DD8910"/>
<path d="M88.0506 355.49V372.89C87.4806 373.04 86.8905 373.17 86.3105 373.3V355.49H88.0506Z" fill="#DD8910"/>
<path d="M94.9998 353V370.73C94.3698 370.97 93.7398 371.2 93.0898 371.41V353H94.9998Z" fill="#DD8910"/>
<path d="M101.83 349.18V367.64C101.21 367.99 100.56 368.32 99.9102 368.64V349.18H101.83Z" fill="#DD8910"/>
<path d="M108.639 345V363C108.059 363.51 107.439 364 106.789 364.49V345H108.639Z" fill="#DD8910"/>
<path d="M115.429 338.89V353.79C114.971 355.001 114.388 356.16 113.689 357.25V338.89H115.429Z" fill="#DD8910"/>
<path d="M69.4305 360.83C95.4542 360.83 116.551 348.652 116.551 333.63C116.551 318.608 95.4542 306.43 69.4305 306.43C43.4069 306.43 22.3105 318.608 22.3105 333.63C22.3105 348.652 43.4069 360.83 69.4305 360.83Z" fill="#FCA70D"/>
<path d="M100.441 383.26C83.3107 393.15 55.5407 393.15 38.4407 383.26L37.6407 382.78L37.4707 382.88V417.54L38.4707 418.11C55.5907 428 83.3607 428 100.471 418.11L101.471 417.53V382.89L101.301 382.79L100.441 383.26Z" fill="#ECE8F9"/>
<path d="M96.3805 392.84C80.5805 399.97 58.2805 399.97 42.4805 392.84V397.23C58.2805 404.36 80.5805 404.36 96.3805 397.23V392.84Z" fill="#8C50FF"/>
<path d="M76.9005 414.4C65.0105 415.58 52.4505 413.92 42.4805 409.4V413.78C52.4805 418.28 65.0105 419.94 76.9005 418.78V414.4Z" fill="#8C50FF"/>
<path d="M87.8805 404.14C73.2305 408.06 55.6205 407.08 42.4805 401.14V405.53C55.6205 411.45 73.2305 412.43 87.8805 408.53V404.14Z" fill="#8C50FF"/>
<path opacity="0.4" d="M410.55 380.83C458.538 380.83 497.44 358.368 497.44 330.66C497.44 302.952 458.538 280.49 410.55 280.49C362.562 280.49 323.66 302.952 323.66 330.66C323.66 358.368 362.562 380.83 410.55 380.83Z" fill="#D6D8E5"/>
<path d="M499.35 319.24L499.3 319.1C498.699 316.371 497.744 313.732 496.46 311.25L444.86 168.79H445.06V99.3501H385V168.79L333.64 311.36C332.383 313.809 331.449 316.411 330.86 319.1L330.81 319.24C327.71 333.72 335.76 348.85 355.02 359.97C388.18 379.12 441.96 379.12 475.13 359.97C494.4 348.85 502.46 333.72 499.35 319.24Z" fill="#E1EAFF"/>
<path d="M415.09 357.15C452.093 357.15 482.09 339.832 482.09 318.47C482.09 297.108 452.093 279.79 415.09 279.79C378.087 279.79 348.09 297.108 348.09 318.47C348.09 339.832 378.087 357.15 415.09 357.15Z" fill="#FCA70D"/>
<path d="M348.4 314.74L372.28 244.45H457.52L481.78 314.74H348.4Z" fill="#FCA70D"/>
<path d="M414.9 271.53C438.543 271.53 457.71 260.462 457.71 246.81C457.71 233.157 438.543 222.09 414.9 222.09C391.257 222.09 372.09 233.157 372.09 246.81C372.09 260.462 391.257 271.53 414.9 271.53Z" fill="#EF990F"/>
<path opacity="0.2" d="M414.75 168.38V330.66C396.37 330.66 378 326.59 363.97 318.49C347.36 308.9 340.58 295.78 343.62 283.31L345.62 277.83L355.82 249.71L356.27 248.44L385 168.79V102L414.69 115.16L414.75 168.38Z" fill="white"/>
<path d="M415.09 115.12C432.393 115.12 446.42 107.021 446.42 97.0299C446.42 87.0391 432.393 78.9399 415.09 78.9399C397.787 78.9399 383.76 87.0391 383.76 97.0299C383.76 107.021 397.787 115.12 415.09 115.12Z" fill="#D6DFF2"/>
<path d="M415.089 105.56C426.488 105.56 435.729 101.741 435.729 97.03C435.729 92.319 426.488 88.5 415.089 88.5C403.69 88.5 394.449 92.319 394.449 97.03C394.449 101.741 403.69 105.56 415.089 105.56Z" fill="#ACBAD1"/>
<path d="M409.63 82.9802C414.258 82.9802 418.01 79.2284 418.01 74.6002C418.01 69.9721 414.258 66.2202 409.63 66.2202C405.002 66.2202 401.25 69.9721 401.25 74.6002C401.25 79.2284 405.002 82.9802 409.63 82.9802Z" fill="#FCA70D"/>
<path opacity="0.2" d="M408.07 76.7601C410.324 76.7601 412.15 74.9334 412.15 72.6801C412.15 70.4268 410.324 68.6001 408.07 68.6001C405.817 68.6001 403.99 70.4268 403.99 72.6801C403.99 74.9334 405.817 76.7601 408.07 76.7601Z" fill="white"/>
<path opacity="0.2" d="M412.47 80.1399C413.364 80.1399 414.09 79.4146 414.09 78.5199C414.09 77.6252 413.364 76.8999 412.47 76.8999C411.575 76.8999 410.85 77.6252 410.85 78.5199C410.85 79.4146 411.575 80.1399 412.47 80.1399Z" fill="white"/>
<path d="M439.051 60.0501C445.998 60.0501 451.631 54.4179 451.631 47.4701C451.631 40.5224 445.998 34.8901 439.051 34.8901C432.103 34.8901 426.471 40.5224 426.471 47.4701C426.471 54.4179 432.103 60.0501 439.051 60.0501Z" fill="#FCA70D"/>
<path opacity="0.2" d="M436.71 50.7102C440.09 50.7102 442.83 47.9702 442.83 44.5902C442.83 41.2102 440.09 38.4702 436.71 38.4702C433.33 38.4702 430.59 41.2102 430.59 44.5902C430.59 47.9702 433.33 50.7102 436.71 50.7102Z" fill="white"/>
<path opacity="0.2" d="M443.321 55.7902C444.663 55.7902 445.751 54.7022 445.751 53.3602C445.751 52.0181 444.663 50.9302 443.321 50.9302C441.979 50.9302 440.891 52.0181 440.891 53.3602C440.891 54.7022 441.979 55.7902 443.321 55.7902Z" fill="white"/>
<path d="M402.831 32.5699C411.778 32.5699 419.031 25.3169 419.031 16.3699C419.031 7.42291 411.778 0.169922 402.831 0.169922C393.884 0.169922 386.631 7.42291 386.631 16.3699C386.631 25.3169 393.884 32.5699 402.831 32.5699Z" fill="#FCA70D"/>
<path opacity="0.2" d="M399.81 20.55C404.162 20.55 407.69 17.022 407.69 12.67C407.69 8.31804 404.162 4.79004 399.81 4.79004C395.458 4.79004 391.93 8.31804 391.93 12.67C391.93 17.022 395.458 20.55 399.81 20.55Z" fill="white"/>
<path opacity="0.2" d="M408.319 27.0701C410.042 27.0701 411.439 25.6732 411.439 23.9501C411.439 22.227 410.042 20.8301 408.319 20.8301C406.596 20.8301 405.199 22.227 405.199 23.9501C405.199 25.6732 406.596 27.0701 408.319 27.0701Z" fill="white"/>
<path opacity="0.4" d="M434.779 466.9C454.894 466.9 471.199 457.484 471.199 445.87C471.199 434.255 454.894 424.84 434.779 424.84C414.665 424.84 398.359 434.255 398.359 445.87C398.359 457.484 414.665 466.9 434.779 466.9Z" fill="#D6D8E5"/>
<path d="M464.89 285.7C465.31 289.33 469.65 305.03 468.72 310.41C467.79 315.79 453 324.78 453 324.78L451 315.57L459.21 307.57L456.99 292.32L464.89 285.7Z" fill="#FFCEA9"/>
<path d="M453.42 270.23C454.863 269.561 456.501 269.445 458.024 269.904C459.546 270.363 460.847 271.365 461.68 272.72C463.86 276.34 466.13 288.72 466.33 290.85C466.33 290.85 463.27 295.08 458.68 294.37L453.42 270.23Z" fill="#EDEDED"/>
<path d="M436.488 445.23C433.26 446.12 429.812 445.703 426.888 444.07C424.578 444.14 412.028 438.77 410.318 443.28C408.828 447.28 414.258 450.89 417.168 451.59C423.508 453.13 428.168 456.29 430.738 456.82C432.638 457.22 435.088 457.49 436.608 456C438.418 454.21 438.258 447.59 436.488 445.23Z" fill="#38226D"/>
<path d="M430.738 455.73C428.198 455.19 423.508 452.03 417.168 450.5C414.738 449.91 410.538 447.24 410.118 444.07C409.558 447.71 414.458 450.94 417.168 451.59C423.508 453.13 428.168 456.29 430.738 456.82C432.638 457.22 435.088 457.49 436.608 456C436.997 455.563 437.281 455.043 437.438 454.48C436.496 455.195 435.399 455.68 434.236 455.897C433.073 456.114 431.875 456.057 430.738 455.73Z" fill="#9C73FF"/>
<path d="M456.839 436.09C453.611 436.986 450.16 436.569 447.239 434.93C444.929 435 432.379 429.63 430.679 434.14C429.179 438.09 434.619 441.75 437.519 442.45C443.859 443.99 448.519 447.15 451.089 447.69C452.989 448.09 455.449 448.35 456.959 446.86C458.769 445.07 458.609 438.45 456.839 436.09Z" fill="#38226D"/>
<path d="M451.089 446.59C448.549 446.05 443.859 442.89 437.519 441.36C435.089 440.77 430.889 438.11 430.519 434.93C429.959 438.57 434.859 441.8 437.519 442.45C443.859 443.99 448.519 447.15 451.089 447.69C452.989 448.09 455.449 448.35 456.959 446.86C457.348 446.423 457.631 445.903 457.789 445.34C456.846 446.055 455.75 446.54 454.587 446.757C453.424 446.974 452.226 446.917 451.089 446.59Z" fill="#9C73FF"/>
<path d="M457.089 402C456.55 397.34 455.579 392.74 454.189 388.26C454.189 388.26 455.059 376.4 455.489 365.15C455.979 352.39 460.409 341.15 456.909 330.98L417.539 339.73C417.539 339.73 419.919 390.61 420.449 396.73C420.737 401.523 421.329 406.292 422.219 411.01C424.009 420.89 426.929 444.38 426.929 444.38C431.099 446.8 436.559 445.46 436.559 445.46C436.559 445.46 436.259 415.75 435.989 408.63C435.669 399.94 435.399 400.63 435.399 400.63L436.699 379L437.549 368.24C437.549 368.24 438.639 376.14 439.349 383.24C439.969 389.39 441.459 394.96 443.119 406.41C444.559 416.35 446.889 436.32 446.889 436.32C451.059 438.74 456.709 436.73 456.709 436.73C456.709 436.73 458.209 410.62 457.089 402Z" fill="#8C50FF"/>
<path d="M451.34 270.44C448.34 270.59 446.11 271.36 445.73 270.44C445.409 268.892 445.182 267.326 445.05 265.75C445.39 264.88 445.69 263.95 445.69 263.95C449.46 261.63 450.69 257.56 451.14 252.82C451.99 244.72 447.61 237.63 439.51 236.82C431.89 236.03 426.29 241.38 424.8 248.73C423.99 252.36 422.39 259.21 424.56 265.18C425.77 268.52 427.33 271.18 428.89 271.68C430.4 271.643 431.906 271.513 433.4 271.29C433.4 271.29 433.81 273.54 434.08 274.98C434.35 276.42 434.25 277.19 431.38 278.98C428.51 280.77 435.72 284.39 440.44 284.04C445.16 283.69 450.44 280.83 451.93 277.78C453.54 274.35 453.4 270.34 451.34 270.44Z" fill="#FFCEA9"/>
<path d="M447 270.89C447.83 272.96 445.72 275.49 440.09 277.26C434.46 279.03 433.95 276.76 433.95 276.76C433.95 276.76 425.69 280.52 423 282.39C419.62 284.76 418.13 291.59 417.67 303.14C417.14 316.5 417.1 336.31 417.54 339.73C417.54 339.73 423.86 346.03 431.94 345.36C440.02 344.69 453.62 337.55 456.94 332.02C456.84 320.31 455.48 318.4 457.37 311.66C461.71 296.21 464 289.89 461.89 279.66C460.15 271.2 457.71 270.15 454.37 270.23C451.903 270.316 449.443 270.536 447 270.89Z" fill="#F4F4F4"/>
<path d="M404.999 316.42C411.639 318.09 413.189 313.91 414.069 310.42C416.179 302.04 417.309 294.42 418.889 289.71C420.739 284.09 422.679 283.2 425.409 282.1C428.609 280.82 431.409 283.53 430.299 290.67C429.039 299.12 427.379 305.06 424.219 315.06C423.399 317.67 421.549 322.31 418.769 324.55C415.349 327.32 410.199 327.2 402.399 325.26C399.069 324.43 395.399 322.45 389.129 319.51C387.439 318.72 386.129 318.2 382.889 316.69C379.634 315.228 376.779 313.002 374.569 310.2C372.869 307.74 372.649 306.58 372.989 306.02C373.329 305.46 374.199 305.47 375.099 306.51C376.417 308.254 378.035 309.747 379.879 310.92C379.879 310.92 377.779 308.76 376.649 307.35C375.628 306.105 374.784 304.725 374.139 303.25C373.539 301.82 374.769 299.87 375.709 300.89C376.649 301.91 377.099 302.96 378.819 305.01C379.721 306.11 380.752 307.097 381.889 307.95C380.827 306.507 379.881 304.982 379.059 303.39C378.342 302.139 377.995 300.71 378.059 299.27C378.059 298.52 379.169 297.63 380.159 299.05C381.149 300.47 381.639 302.33 383.729 304.49C385.239 306.07 386.529 306.97 386.569 306.54C386.609 306.11 385.649 305.24 385.109 303.41C384.569 301.58 385.109 299.64 386.109 299.41C387.109 299.18 386.929 299.25 387.739 300.97C388.549 302.69 389.799 303.97 390.739 306.45C391.249 308.212 392.183 309.823 393.459 311.14C395.049 312.91 398.649 314.83 404.999 316.42Z" fill="#FFCEA9"/>
<path d="M427.83 281C423.4 280.34 420.27 282.34 418.31 289C416.35 295.66 415 301.25 415 301.25C416.757 303.781 419.415 305.544 422.43 306.18C427.73 307.46 429.63 304.93 429.63 304.93C429.63 304.93 431.1 297.93 432.02 293.11C432.94 288.29 433.31 281.79 427.83 281Z" fill="#EDEDED"/>
<path d="M425.05 247.66C425.05 247.66 418.05 237.02 433.22 234.85C444.16 233.29 451.22 240.31 452 247.94C452.78 255.22 448.29 262.79 445.05 265.79C443.47 266.36 440.05 266.68 435.6 264.65C435.415 262.656 435.345 260.652 435.39 258.65C435.39 258.65 440.72 247.47 425.05 247.66Z" fill="#3A2C6D"/>
<path d="M460.9 294.81L417.54 335.21L415 412.9C415 412.9 427.16 418.83 441 415.62L443.5 385.74L447.35 412.86L446.89 413.69C453.441 410.758 459.059 406.081 463.13 400.17L460.9 294.81Z" fill="#F4F4F4"/>
<path d="M415 301.25L412.87 310.62C412.87 310.62 411.06 317.19 406.44 315.52C402.041 313.673 397.753 311.569 393.6 309.22L388 320.71L399.59 326.14C399.59 326.14 415.67 331.87 420.14 326.14C424.61 320.41 429.63 304.93 429.63 304.93L415 301.25Z" fill="#EDEDED"/>
<path d="M466.33 290.85L468.21 299.79C468.21 299.79 469.12 306.52 469.21 307.79C469.3 309.06 469.84 311.34 466.13 315.03C462.42 318.72 461.43 319.84 461.43 319.84L460.92 298.84L461.99 294L465.1 290.08L466.33 290.85Z" fill="#EDEDED"/>
</g>
<defs>
<clipPath id="clip0_361_4624">
<rect width="500" height="469.8" fill="white"/>
</clipPath>
</defs>
</svg>
