<svg width="304" height="310" viewBox="0 0 304 310" fill="none" xmlns="http://www.w3.org/2000/svg">
<path d="M73.5512 127.987C63.71 141.197 55.7542 155.163 54.9919 172.064C54.2541 188.423 61.1341 203.877 73.9591 214.271C103.734 238.402 154.544 231.992 179.679 204.096C191.661 190.797 198.616 170.629 194.596 152.812C189.464 130.068 171.519 114.39 148.841 110.865C125.963 107.309 100.686 109.967 81.5625 124.097C73.3134 130.192 65.8541 137.074 61.2001 146.315C58.0547 152.561 57.5196 159.441 56.6458 166.272" stroke="#C69E13" stroke-width="7.1861" stroke-linecap="round"/>
<path d="M123.506 142.594C124.705 146.024 124.782 149.641 125.964 153.02" stroke="#C69E13" stroke-width="7.1861" stroke-linecap="round"/>
<path d="M164.878 140.303C166.982 143.382 166.614 148.327 166.555 151.893" stroke="#C69E13" stroke-width="7.1861" stroke-linecap="round"/>
<path d="M140.084 190.85C151.398 197.512 164.202 194.369 172.447 184.878" stroke="#C69E13" stroke-width="7.1861" stroke-linecap="round"/>
<path d="M67.8634 102.054C87.1705 96.896 106.038 90.2612 125.441 85.3474" stroke="#C69E13" stroke-width="7.1861" stroke-linecap="round"/>
<path d="M67.2375 101.245C67.0455 99.1509 64.1507 97.0176 62.8612 95.5381C59.0406 91.1548 55.3977 85.1538 53.2087 79.7542C52.0353 76.8597 47.3043 71.4588 48.1263 68.1618C48.4237 66.9693 57.0615 72.4159 57.8955 72.8968C63.4237 76.0848 69.1828 79.2459 74.8664 82.1601C77.5746 83.5486 80.8818 86.1622 84.1599 85.8616C86.4875 85.6482 86.9048 78.6602 87.1223 76.96C87.8977 70.8988 89.2698 64.9857 90.1559 58.9489C90.398 57.3 91.3701 52.3355 93.5811 52.1328C95.7077 51.9378 97.8789 57.1399 98.5639 58.4845C101.61 64.4636 106.154 69.8874 111.654 63.2391C115.452 58.6475 118.302 53.6666 121.424 48.6429C122.061 47.6181 126.449 37.3293 127.598 42.827C130.018 54.4047 128.375 68.1193 126.894 79.6973" stroke="#C69E13" stroke-width="7.1861" stroke-linecap="round"/>
<path d="M31.9106 58.063C36.0642 58.5944 45.7118 58.5243 46.4454 52.7897C46.7787 50.1841 40.7626 48.7387 38.7581 48.8883C34.7953 49.1842 31.4443 51.2727 28.781 54.0152" stroke="#C69E13" stroke-width="7.1861" stroke-linecap="round"/>
<path d="M84.2059 37.0327C84.1852 44.2061 96.2426 40.1697 92.7641 32.8591C91.1811 29.5319 84.7934 25.2972 81.6068 28.838C78.466 32.328 81.7624 38.0892 84.4645 40.7132" stroke="#C69E13" stroke-width="7.1861" stroke-linecap="round"/>
<path d="M123.732 24.5816C128.159 30.3078 138.588 24.7844 135.579 17.5055C133.842 13.3031 130.701 11.7361 126.438 14.5124C120.712 18.2415 121.002 24.3453 125.426 28.4457" stroke="#C69E13" stroke-width="7.1861" stroke-linecap="round"/>
<path d="M237.537 175.367C235.246 172.013 234.365 167.154 233.663 163.246C232.788 158.379 231.379 149.949 234.037 145.512C236.655 141.141 244.168 145.187 246.963 147.123C252.405 150.891 255.826 154.762 257.984 160.933" stroke="#C69E13" stroke-width="7.1861" stroke-linecap="round"/>
<path d="M230.754 179.924C225.172 182.95 215.843 195.134 223.327 200.286C235.943 208.972 256.604 208.74 270.079 202.349C282.167 196.617 287.926 184.126 282.171 171.777C278.102 163.046 273.578 156.572 263.516 160.09" stroke="#C69E13" stroke-width="7.1861" stroke-linecap="round"/>
<path d="M24.4594 246.339C18.8199 250.699 14.1515 256.455 12.4214 263.494C9.22588 276.494 27.4453 279.96 36.4112 279.528C50.1251 278.867 65.1251 273.351 73.363 261.997C82.5173 249.381 64.5427 240.247 54.5785 238.291" stroke="#C69E13" stroke-width="7.1861" stroke-linecap="round"/>
<path d="M23.7256 246.906C25.3901 244.292 23.0227 240.368 22.8131 237.386C22.3722 231.112 21.8594 224.535 28.0615 221.052C34.0006 217.717 40.9509 219.663 46.2027 223.373C52.3683 227.729 54.5117 232.688 56.3634 239.842" stroke="#C69E13" stroke-width="7.1861" stroke-linecap="round"/>
</svg>
