<svg width="344" height="176" viewBox="0 0 344 176" fill="none" xmlns="http://www.w3.org/2000/svg">
<path d="M67.0841 -91.0167C31.6027 -79.2741 16.9107 -42.2646 27.3434 -7.65631C42.4597 42.4887 105.24 51.5567 147.089 30.4821C168.787 19.5554 186.326 0.969818 186.675 -24.3368C186.977 -46.1866 174.411 -65.7948 156.852 -78.0606C117.11 -105.822 52.9591 -108.863 25.6766 -62.5262" stroke="#935F5F" stroke-width="7.1861" stroke-linecap="round"/>
<path d="M47.4677 24.6385C64.5939 32.3555 80.4283 44.1313 95.8074 54.8612C120.934 72.3915 146.82 88.7959 172.583 105.369" stroke="#935F5F" stroke-width="7.1861" stroke-linecap="round"/>
<path d="M173.221 106.61C165.557 111.76 187.581 92.9586 196.766 92.0184C201.618 91.5219 203.516 92.5595 201.979 97.6647C200.313 103.2 198.325 108.811 195.812 114.027" stroke="#935F5F" stroke-width="7.1861" stroke-linecap="round"/>
<path d="M194.579 116.586C195.583 112.679 215.935 120.975 213.656 129.84C210.848 140.767 196.537 134.341 190.974 130.61" stroke="#935F5F" stroke-width="7.1861" stroke-linecap="round"/>
<path d="M188.074 132.05C185.777 131.756 192.2 134.506 193.445 136.459C196.43 141.141 199.006 144.869 194.88 149.619C188.136 157.383 175.153 152.514 171.108 144.365" stroke="#935F5F" stroke-width="7.1861" stroke-linecap="round"/>
<path d="M169.361 146.702C167.86 146.698 166.889 149.283 166.034 150.239C164.326 152.149 160.765 154.973 158.075 155.274C149.43 156.24 145.55 149.02 146.521 141.429" stroke="#935F5F" stroke-width="7.1861" stroke-linecap="round"/>
<path d="M161.717 23.6983C183.089 25.4043 205.174 20.8037 226.489 19.2841C242.878 18.1156 259.237 16.6941 275.633 15.6929" stroke="#935F5F" stroke-width="7.1861" stroke-linecap="round"/>
<path d="M273.284 17.5093C273.613 14.9421 273.28 13.1935 274.177 10.5286C275.492 6.62146 279.049 0.579856 282.782 -1.58063C288.432 -4.85033 295.39 -2.81022 299.081 2.46438C301.836 6.40074 301.008 11.055 299.681 15.2415" stroke="#935F5F" stroke-width="7.1861" stroke-linecap="round"/>
<path d="M298.542 18.6237C296.515 15.657 306.66 15.81 308.235 15.7869C315.461 15.6809 322.178 16.66 328.506 20.3401C338.603 26.2123 322.777 33.1917 317.77 33.7839" stroke="#935F5F" stroke-width="7.1861" stroke-linecap="round"/>
<path d="M315.155 37.6827C319.095 38.1868 329.875 42.2232 325.372 48.5151C320.907 54.7543 312.377 52.6383 306.525 49.9848" stroke="#935F5F" stroke-width="7.1861" stroke-linecap="round"/>
<path d="M300.1 50.5739C300.105 48.6377 298.456 52.2185 298.271 52.6135C296.732 55.8981 296.289 59.5708 293.95 62.4877C289.074 68.5702 279.988 65.5026 277.069 59.6225" stroke="#935F5F" stroke-width="7.1861" stroke-linecap="round"/>
<path d="M128.025 -8.52329C123.233 -7.71557 101.395 -7.91441 104.649 1.72544C106.032 5.82503 112.065 7.22874 115.665 8.42343C121.421 10.3338 127.832 10.0592 133.798 9.86753C138.143 9.72793 151.814 7.23952 147.642 -0.339712C143.378 -8.08779 133.287 -8.71231 125.544 -8.8407" stroke="#935F5F" stroke-width="7.1861" stroke-linecap="round"/>
</svg>
