<svg width="378" height="243" viewBox="0 0 378 243" fill="none" xmlns="http://www.w3.org/2000/svg">
<path d="M112.877 114.644C110.691 128.157 108.875 141.083 114.123 154.133C116.67 160.466 120.429 166.945 124.707 172.267C135.822 186.089 154.781 196.021 172.337 198.267C194.225 201.067 212.667 197.086 231.728 186.045C247.846 176.71 260.397 160.782 262.292 141.642C266.624 97.8749 220.517 66.1578 180.811 66.9613C153.399 67.5161 131.05 77.5829 116.866 101.017C107.655 116.235 106.907 135.952 113.647 152.002" stroke="#B5A587" stroke-width="7.1861" stroke-linecap="round"/>
<path d="M167.929 25.0367C160.501 25.693 149.465 27.1939 143.348 31.9236C140.163 34.3855 142.666 37.4902 145.666 38.7906C148.573 40.0505 151.775 40.3935 154.885 40.7912C161.08 41.5838 167.317 42.66 173.569 42.8588C187.34 43.2966 201.574 43.3443 215.275 41.9757C222.752 41.2288 232.174 41.3141 238.678 36.9619C243.36 33.8283 237.679 29.9168 234.501 28.8012C222.973 24.7558 210.618 24.1924 198.52 23.905C183.743 23.554 169.161 24.3288 154.543 26.4921" stroke="#B5A587" stroke-width="7.1861" stroke-linecap="round"/>
<path d="M146.22 110.069C147.256 105.582 153.714 101.827 157.486 100.289C163.434 97.8632 167.946 102.454 171.196 106.657" stroke="#B5A587" stroke-width="7.1861" stroke-linecap="round"/>
<path d="M202.425 109.708C203.645 109.468 205.131 106.886 206.441 106.185C208.476 105.096 210.356 104.026 212.75 104.003C216.957 103.962 220.647 106.547 222.164 110.346" stroke="#B5A587" stroke-width="7.1861" stroke-linecap="round"/>
<path d="M159.565 153.306C176.757 157.499 195.084 158.996 212.569 155.839" stroke="#B5A587" stroke-width="7.1861" stroke-linecap="round"/>
<path d="M93.9164 139.421C89.0979 136.189 84.5159 132.732 79.6438 129.579C69.9262 123.291 58.37 119.201 46.7384 119.608C41.4396 119.793 34.6443 121.497 31.7843 126.407C29.2468 130.763 33.2767 136.328 35.8831 139.624C37.6965 141.917 41.5534 146.751 44.8269 147.17C45.9047 147.308 44.7565 145.901 44.5231 145.628C43.1621 144.039 40.8904 142.879 38.951 142.188C28.5487 138.477 12.2663 139.092 9.25928 151.917C5.53103 167.817 27.6639 180.666 39.7287 184.846C42.3838 185.766 44.9875 186.271 47.7679 186.626C49.2861 186.82 48.6764 185.872 47.6755 185.39C42.8946 183.086 34.6536 184.598 29.9552 185.962C23.8325 187.739 12.6221 190.6 10.8869 197.941C8.5938 207.642 18.5408 216.123 25.75 220.356C51.8146 235.662 86.6474 234.028 111.507 217.326" stroke="#B5A587" stroke-width="7.1861" stroke-linecap="round"/>
<path d="M282.031 145.45C283.756 145.574 285.265 144.606 286.959 144.354C289.23 144.016 291.53 143.719 293.811 143.449C299.776 142.744 305.989 143.21 311.807 144.638C315.486 145.541 320.798 146.587 322.9 150.177C324.932 153.645 321.343 158.142 318.728 160.165C313.698 164.053 308.301 166.782 302.442 169.104C300.18 170 297.733 170.501 295.514 171.474C295.289 171.573 293.394 172.119 293.837 172.401C294.789 173.007 296.387 172.49 297.419 172.469C301.056 172.397 304.688 172.001 308.325 171.86C321.014 171.369 334.122 172.817 346.02 177.462C350.083 179.048 359.228 183.19 358.044 188.993C356.972 194.251 348.254 196.711 344.149 197.959C338.472 199.685 332.33 201.018 326.437 201.734C323.38 202.105 320.284 201.944 317.225 201.724C317.172 201.72 313.657 201.475 312.781 201.211C312.31 201.07 313.767 201.166 314.257 201.205C322.644 201.884 330.783 203.231 338.625 206.327C346.288 209.352 353.821 214.356 357.082 222.188C362.317 234.757 348.354 244.91 338.585 248.853C306.366 261.858 265.144 248.528 241.923 223.99" stroke="#B5A587" stroke-width="7.1861" stroke-linecap="round"/>
</svg>
