<svg width="445" height="231" viewBox="0 0 445 231" fill="none" xmlns="http://www.w3.org/2000/svg">
<path d="M203.292 4.42906C207.248 1.01519 212.412 -0.168267 217.165 0.0189047C221.906 0.2057 226.646 1.7587 230.163 4.32164C231.78 5.50025 232.015 7.704 230.688 9.24351C229.361 10.7828 226.975 11.0754 225.358 9.89683C223.121 8.2664 219.883 7.16439 216.59 7.03453C213.307 6.90521 210.379 7.7441 208.352 9.49254C206.403 11.1747 205.325 14.6988 205.648 17.8627C205.702 17.9287 205.785 18.0209 205.961 18.2113L205.985 18.2377C206.168 18.4359 206.435 18.7263 206.71 19.0668C206.672 19.0198 206.763 19.116 207.097 19.4886C207.213 19.6174 207.349 19.7715 207.461 19.9027C207.509 19.9592 207.594 20.0621 207.678 20.1742L207.68 20.1761C207.71 20.2156 207.822 20.3643 207.933 20.5599L207.936 20.5658C207.976 20.6362 208.153 20.9457 208.261 21.3734C208.31 21.5638 208.448 22.1493 208.28 22.8939C208.065 23.8488 207.323 25.0189 205.846 25.5541C204.403 26.0771 202.993 25.7988 202.485 25.6947C201.753 25.5445 201.021 25.3083 200.439 25.1048C199.991 24.9481 199.527 24.7729 199.154 24.6322L199.15 24.6302C199.079 24.6032 199.01 24.5772 198.946 24.5531C198.91 24.5396 198.875 24.5274 198.842 24.515C198.58 24.4172 198.427 24.3635 198.351 24.3373C198.312 24.3235 198.294 24.3171 198.293 24.3158C198.293 24.3155 198.294 24.3153 198.298 24.3158C195.157 23.681 191.33 23.6419 187.929 24.0375C187.234 24.1184 185.804 24.4118 184.556 24.8793C184.086 25.0554 183.737 25.2211 183.503 25.3558C183.447 25.9369 183.559 26.6883 183.932 27.642C184.407 28.855 185.187 30.0979 186.032 31.2709C189.095 35.5248 193.223 39.6828 197.5 43.0033C198.017 43.4049 198.509 43.8531 198.894 44.2045L198.922 44.2308C199.349 44.6205 199.681 44.9214 200.012 45.1849C200.635 45.6804 200.893 45.7375 200.912 45.7416H200.913C201.386 45.78 202.121 45.8748 202.851 46.2025C203.646 46.5591 204.927 47.4572 205.095 49.1703C205.235 50.5896 204.477 51.6117 204.192 51.9623C203.833 52.4038 203.433 52.734 203.169 52.9369C202.339 53.5731 200.84 54.3736 200.659 54.4701L200.641 54.4798C199.892 54.9198 199.15 55.3459 198.421 55.764L198.419 55.765L198.418 55.766C195.714 57.3163 193.195 58.7605 191.218 60.4242C188.972 62.3133 187.692 63.7734 187.208 65.4642C187.352 65.5662 187.545 65.6896 187.798 65.8285C188.913 66.4428 190.351 66.9257 191.241 67.1986C200.119 69.9194 209.423 66.7601 216.138 60.1332C216.329 59.9449 216.537 59.7796 216.756 59.6371C216.505 58.5858 216.786 57.4248 217.623 56.5257C219.011 55.0334 221.405 54.8267 222.969 56.0638C242.408 71.4393 265.709 83.0079 289.256 93.1976C290.639 93.7963 291.411 95.0927 291.342 96.4398C297.278 98.7127 303.019 101.897 308.483 106.119C324.496 118.489 333.996 138.373 332.37 158.88C330.828 178.323 319.265 197.911 304.975 210.337C284.899 227.797 260.427 232.638 235.044 230.169C228.258 229.509 221.24 228.022 214.475 225.664C189.756 218.87 165.481 210.971 141.299 203.102L141.274 203.094C138.708 202.259 136.143 201.424 133.579 200.591C122.088 196.858 110.837 192.604 99.6892 188.387L99.6794 188.383C98.6899 188.009 97.7006 187.634 96.7126 187.261C85.2961 182.948 73.9589 178.722 62.3874 175.105C62.2415 175.258 61.9472 175.539 61.5359 175.784C61.3057 175.921 60.3444 176.479 59.0075 176.339C57.2227 176.152 56.3211 174.96 56.0046 174.186C55.5207 173.001 55.7908 171.703 56.5954 170.745C56.623 170.7 56.6541 170.648 56.6892 170.588C56.9134 170.209 57.2274 169.653 57.5603 169.041C57.8912 168.434 58.2249 167.803 58.489 167.281C58.7029 166.858 58.8148 166.614 58.8591 166.518H58.8601V166.517C58.8796 166.475 58.8854 166.462 58.8806 166.476C59.7255 164.009 60.0126 161.757 59.5896 159.503C59.2543 157.717 58.2961 155.703 56.9636 154.354C55.6943 153.068 54.4384 152.671 53.0915 152.956C51.4575 153.302 49.8423 154.428 48.4099 156.321C46.9872 158.201 45.9975 160.524 45.5476 162.553C45.3756 163.329 45.3114 164.414 45.489 165.272C45.5399 165.518 45.5956 165.687 45.6433 165.8C45.8887 165.918 46.1029 166.023 46.2566 166.102C46.3321 166.141 46.5132 166.234 46.6931 166.348C46.7459 166.381 46.8331 166.438 46.9343 166.513C47.0053 166.566 47.2302 166.733 47.4636 166.993C47.5768 167.118 47.8073 167.392 47.9978 167.792C48.1728 168.16 48.5012 169.032 48.1716 170.133C47.7978 171.381 46.8391 172.102 46.1198 172.434C45.4916 172.724 44.9407 172.784 44.7107 172.802C44.2328 172.84 43.8586 172.782 43.7624 172.767L43.7595 172.766C43.6078 172.743 43.4859 172.715 43.4177 172.699C43.2789 172.665 43.1615 172.63 43.0945 172.61C42.9505 172.565 42.7972 172.512 42.6579 172.462C41.979 172.221 41.3947 171.904 40.8923 171.536C39.6047 170.921 37.4143 169.869 36.2712 169.067C32.1296 166.159 28.3581 163.527 24.0622 161.647C22.9392 161.155 21.779 160.576 20.697 160.036H20.696C20.4574 159.916 20.2227 159.799 19.9929 159.685C18.666 159.026 17.4258 158.434 16.197 157.965C13.7441 157.029 11.7633 156.752 9.92454 157.258C9.91433 157.275 9.90144 157.298 9.88743 157.327C9.7435 157.621 9.5942 158.229 9.61594 159.198C9.66002 161.156 10.3629 163.321 10.8796 164.263C11.9429 166.201 13.3186 167.721 14.99 169.249C15.7736 169.966 16.5918 170.659 17.487 171.416L17.7204 171.614C18.6885 172.433 19.7319 173.321 20.7751 174.297C21.1966 174.692 21.5229 174.972 21.7585 175.162C21.8471 175.207 21.9326 175.252 22.0144 175.297C22.2476 175.427 22.6825 175.683 23.0681 176.061C23.1558 176.147 23.4244 176.414 23.656 176.819C23.7649 177.009 24.0027 177.463 24.0691 178.097C24.1434 178.808 24.0012 179.971 22.9782 180.952C22.0664 181.827 21.0104 182.009 20.5505 182.053C20.0484 182.101 19.6526 182.044 19.4626 182.011C19.068 181.943 18.7722 181.83 18.656 181.785C18.2433 181.622 17.8843 181.401 17.6511 181.246C17.4842 181.202 17.2595 181.159 16.9812 181.14C16.1075 181.081 15.1398 180.967 14.2849 180.866L14.28 180.865C13.9729 180.828 13.6801 180.794 13.4118 180.764C12.2843 180.639 11.3419 180.568 10.5075 180.601C9.01739 180.659 8.26857 181 7.65012 181.846C7.74459 181.976 7.92799 182.19 8.26926 182.484C8.84878 182.983 9.61547 183.488 10.5261 184.045C10.697 184.15 10.8843 184.263 11.0808 184.381L11.0827 184.382L12.1814 185.053C12.5496 185.284 12.9061 185.517 13.2107 185.738C13.4546 185.914 14.0177 186.197 14.9763 186.508C15.8823 186.802 16.926 187.053 17.9538 187.257C18.9724 187.46 19.9196 187.606 20.614 187.702C20.9592 187.749 21.2376 187.784 21.4255 187.806C21.4735 187.812 21.5158 187.817 21.5515 187.821C21.5851 187.824 21.6135 187.827 21.6355 187.829L21.6843 187.834L21.6911 187.835C21.6913 187.835 21.6917 187.837 21.6911 187.84L21.739 194.77C21.7395 194.773 21.7399 194.774 21.74 194.774L21.7351 194.775L21.696 194.782C21.6588 194.788 21.5994 194.8 21.5212 194.815C21.3647 194.845 21.1323 194.89 20.8435 194.951C20.2618 195.073 19.4673 195.253 18.612 195.482C16.6774 196 15.2037 196.575 14.6755 196.968C12.753 198.399 12.4526 201.495 14.2546 203.263C15.3553 204.343 17.8049 204.961 21.7107 204.7C25.3702 204.455 29.236 203.508 31.8308 202.747C33.8434 202.158 35.9362 203.176 36.5056 205.023C37.0748 206.87 35.905 208.846 33.8923 209.436C31.0584 210.267 26.5311 211.399 22.0017 211.702C17.7185 211.989 12.1821 211.624 8.66575 208.174C4.24366 203.835 4.34983 196.32 9.49582 191.994C9.1242 191.793 8.76366 191.571 8.42649 191.327C8.08546 191.081 7.65586 190.822 7.04465 190.453L6.20676 189.946C5.24935 189.36 4.05663 188.6 3.01145 187.7C1.99819 186.826 0.811031 185.56 0.279028 183.868C-0.317076 181.971 0.0448802 179.981 1.33664 178.164C3.40692 175.254 6.24112 174.089 8.92356 173.718C7.17338 172.048 5.47663 170.114 4.10325 167.612C3.09764 165.779 2.10975 162.604 2.04172 159.58C2.00751 158.058 2.19652 156.264 3.00364 154.612C3.87246 152.833 5.46526 151.244 7.91282 150.555C12.1887 149.352 16.1089 150.248 19.282 151.459C20.8743 152.067 22.389 152.798 23.7419 153.469C24.0135 153.604 24.2769 153.736 24.5329 153.864L26.0603 154.619C26.5476 154.855 27.0175 155.075 27.4831 155.279C31.3967 156.991 34.8768 159.204 38.1159 161.426L38.1286 161.364C38.7651 158.494 40.1379 155.22 42.2566 152.42C44.3656 149.633 47.4718 146.997 51.6423 146.114C56.3757 145.111 60.1608 147.018 62.6306 149.519C65.0373 151.956 66.5164 155.214 67.0534 158.075C67.7353 161.707 67.2097 165.138 66.0945 168.394C66.0577 168.501 66.0127 168.617 65.9626 168.739C77.4512 172.365 88.667 176.551 99.7732 180.746C100.758 181.119 101.743 181.491 102.726 181.863L111.098 185.02C119.462 188.155 127.816 191.201 136.298 193.956C138.82 194.776 141.341 195.596 143.86 196.416L143.916 196.434L143.996 196.46C159.101 201.376 174.166 206.277 189.314 210.906C183.534 205.474 178.914 198.864 176.146 191.007C176.123 191.011 176.101 191.016 176.078 191.019C174.161 191.267 172.406 189.914 172.157 187.997C166.261 142.501 200.744 105.44 242.644 94.9496C251.484 92.7363 260.336 91.6362 268.995 91.9711C252.491 84.1701 236.322 75.2971 221.887 64.5033C221.793 64.6221 221.69 64.7376 221.578 64.848C213.28 73.0366 200.945 77.6423 188.645 73.8724C187.672 73.5741 185.6 72.9054 183.768 71.8968C182.861 71.3974 181.796 70.6997 180.962 69.7591C180.108 68.7972 179.261 67.2946 179.557 65.389C180.279 60.7427 183.425 57.6579 186.231 55.2972C188.614 53.2929 191.656 51.5049 194.28 50.0013C194.018 49.7728 193.777 49.5526 193.566 49.3607L193.565 49.3597L193.519 49.3177C193.089 48.926 192.792 48.6589 192.521 48.4486C187.774 44.7626 183.168 40.139 179.686 35.3031C178.722 33.9633 177.57 32.1971 176.801 30.2308C176.037 28.2798 175.529 25.8213 176.289 23.2523C176.773 21.6179 177.996 20.5355 178.908 19.9037C179.871 19.2363 180.959 18.7432 181.923 18.3822C183.845 17.6617 185.933 17.2233 187.237 17.0716C190.599 16.6807 194.431 16.6231 198.02 17.1C198.001 12.8997 199.431 7.76008 203.292 4.42906ZM304.204 111.659C286.763 98.1848 265.997 96.3186 244.344 101.74C206.946 111.103 177.062 142.526 178.56 180.709C179.878 180.984 180.974 182.011 181.271 183.411C184.896 200.527 198.521 212.19 214.835 218.369C218.061 219.265 221.293 220.143 224.534 220.998C225.034 221.131 225.479 221.352 225.853 221.639C229.12 222.359 232.427 222.881 235.722 223.202C259.768 225.54 282.142 220.918 300.383 205.055C313.561 193.594 324.022 175.611 325.392 158.327C326.82 140.32 318.463 122.675 304.204 111.659ZM263.912 185.873C265.825 185.6 267.598 186.931 267.872 188.844C268.145 190.758 266.815 192.53 264.902 192.803C262.586 193.134 260.211 193.409 257.867 193.679L257.201 193.756C254.622 194.055 252.076 194.356 249.563 194.74C244.526 195.508 239.803 196.58 235.599 198.471C233.837 199.264 231.765 198.478 230.971 196.715C230.179 194.953 230.965 192.88 232.727 192.087C237.774 189.816 243.215 188.627 248.508 187.82C251.16 187.415 253.821 187.1 256.397 186.802L257.051 186.727C259.413 186.454 261.694 186.19 263.912 185.873ZM283.001 139.497C284.875 139.029 286.773 140.168 287.244 142.04V142.038L287.242 142.03C287.243 142.033 287.245 142.038 287.247 142.044C287.258 142.079 287.287 142.168 287.344 142.328C287.428 142.563 287.54 142.864 287.676 143.223C287.759 143.444 287.852 143.687 287.95 143.944V143.945C288.16 144.495 288.393 145.109 288.612 145.7C288.931 146.562 289.262 147.49 289.489 148.256C289.598 148.623 289.719 149.072 289.788 149.508C289.82 149.713 289.867 150.067 289.848 150.477L289.847 150.49C289.837 150.721 289.783 151.931 288.785 152.929C287.574 154.14 285.989 154.74 284.729 155.08C283.398 155.44 281.958 155.63 280.65 155.745C279.391 155.857 278.129 155.909 277.076 155.952L276.929 155.958C275.764 156.007 274.995 156.045 274.522 156.111C271.299 156.56 268.125 157.073 264.958 157.613C266.038 161.68 267.219 165.233 269.116 168.789C270.026 170.495 269.38 172.615 267.675 173.525C265.969 174.434 263.849 173.789 262.939 172.083C260.584 167.668 259.217 163.344 258.039 158.824C254.469 159.456 250.867 160.094 247.173 160.69C240.445 161.775 233.834 163.132 227.138 164.506H227.137L225.984 164.744C226.215 165.788 226.44 167.036 226.647 168.253C226.789 169.085 226.938 169.995 227.076 170.844V170.845C227.177 171.469 227.274 172.06 227.358 172.562C227.464 173.193 227.558 173.729 227.639 174.146L227.759 174.713C227.765 174.737 227.766 174.741 227.762 174.73C228.374 176.564 227.382 178.546 225.549 179.158C223.715 179.769 221.733 178.777 221.122 176.944C220.877 176.209 220.646 174.858 220.455 173.72C220.355 173.123 220.256 172.517 220.155 171.898V171.897C220.025 171.1 219.892 170.281 219.747 169.428C219.528 168.142 219.316 166.99 219.123 166.133C218.621 166.233 218.117 166.331 217.613 166.43C215.955 166.754 214.233 167.248 212.334 167.791L212.33 167.792C212.102 167.858 211.871 167.924 211.637 167.991C209.542 168.588 207.23 169.226 204.955 169.551C203.532 169.754 202.041 169.376 200.907 168.258C199.943 167.308 199.558 166.133 199.381 165.321C199.024 163.692 199.139 161.756 199.309 160.193C199.49 158.532 199.795 156.815 200.034 155.478L200.064 155.309C200.174 154.693 200.266 154.18 200.334 153.757C200.388 153.416 200.408 153.237 200.416 153.17C200.42 153.133 200.42 153.131 200.42 153.155C200.42 151.222 201.987 149.655 203.92 149.655C205.853 149.655 207.42 151.222 207.42 153.155C207.42 153.721 207.322 154.38 207.247 154.856C207.168 155.351 207.063 155.934 206.957 156.528L206.925 156.711C206.681 158.07 206.419 159.562 206.268 160.951C206.217 161.42 206.183 161.837 206.165 162.201C207.279 161.943 208.458 161.618 209.718 161.259C209.945 161.194 210.176 161.128 210.409 161.061H210.412C212.268 160.529 214.295 159.947 216.269 159.561C217.805 159.26 219.346 158.952 220.893 158.638L225.549 157.686C232.323 156.296 239.182 154.889 246.057 153.78C247.797 153.499 249.554 153.202 251.322 152.896L256.658 151.958H256.659C262.263 150.967 267.941 149.961 273.554 149.178C274.21 149.087 275.015 149.037 275.807 149L276.591 148.966L276.738 148.96C277.826 148.915 278.942 148.869 280.034 148.773C280.836 148.702 281.558 148.609 282.179 148.489C282.137 148.372 282.093 148.253 282.048 148.131C281.839 147.569 281.627 147.012 281.424 146.478C281.322 146.212 281.223 145.951 281.128 145.699C280.891 145.072 280.582 144.253 280.454 143.742C279.985 141.866 281.126 139.966 283.001 139.497ZM45.7614 166.004C45.7623 166.005 45.7631 166.005 45.7634 166.005C45.764 166.004 45.7577 165.995 45.7419 165.982C45.7515 165.994 45.7582 166.002 45.7614 166.004ZM345.441 53.3461C346.089 53.1029 347.092 52.9599 348.144 53.4457C349.114 53.8934 349.596 54.6369 349.803 55.0462C350.015 55.4634 350.094 55.8292 350.128 56.013C350.195 56.3852 350.187 56.6867 350.183 56.7894C350.175 57.0396 350.142 57.2525 350.127 57.3451C350.064 57.7362 349.927 58.3162 349.76 58.9808L349.202 61.2113C347.657 67.3651 346.192 73.2015 345.095 79.3998C344.656 81.8846 344.423 84.3869 344.203 87.0257L344.13 87.9076C343.937 90.2433 343.734 92.6996 343.382 95.1673C343.108 97.0807 341.336 98.4102 339.423 98.1371C337.509 97.8637 336.179 96.0907 336.452 94.1771C336.693 92.4918 336.857 90.811 337.007 89.0804L337.153 87.3304C337.177 87.0368 337.201 86.7413 337.226 86.4437C337.447 83.7975 337.701 81.0121 338.202 78.181C338.242 77.9564 338.282 77.7319 338.323 77.5082C337.741 77.4742 337.206 77.3698 336.745 77.2455C334.716 76.698 332.872 75.4178 331.855 74.6254C329.399 72.712 327.193 70.5186 325.152 68.392C324.543 67.7572 323.954 67.136 323.378 66.5267V66.5257C321.969 65.0364 320.629 63.6207 319.221 62.267C317.828 60.9272 317.784 58.7111 319.124 57.3177C320.464 55.9244 322.68 55.8813 324.073 57.2211C325.608 58.6972 327.124 60.3002 328.578 61.8363C329.129 62.4189 329.671 62.9923 330.202 63.5453C332.19 65.6162 334.113 67.5105 336.157 69.1029C336.526 69.3901 336.972 69.7048 337.432 69.972C337.678 70.1148 337.901 70.2277 338.096 70.3138C339.175 67.8064 340.009 65.2445 340.893 62.5287V62.5277C341.332 61.1788 341.784 59.7917 342.284 58.3548C342.723 57.0917 343.168 55.8172 343.426 55.265C343.452 55.208 343.515 55.0745 343.608 54.9134L343.711 54.7445C343.767 54.6581 343.969 54.347 344.313 54.0345C344.483 53.8804 344.863 53.5631 345.441 53.3461ZM374.813 55.8861C376.647 55.2748 378.63 56.2662 379.241 58.1C379.852 59.9336 378.861 61.9154 377.027 62.5267C374.735 63.2909 372.204 63.8157 369.936 64.2855C368.95 64.4898 368.014 64.6833 367.169 64.8822C366.462 65.0484 365.532 65.2732 364.582 65.5482C364.602 66.7016 364.512 67.8247 364.369 68.8939C365.183 68.6589 365.986 68.4423 366.758 68.2416L368.958 67.6839L369.16 67.6332C371.035 67.1643 372.936 68.3048 373.405 70.18C373.873 72.0552 372.733 73.9554 370.858 74.4242C368.165 75.0974 365.306 75.8197 362.915 76.7318C362.828 77.3711 362.773 77.9932 362.761 78.6166C362.751 79.176 362.686 79.8817 362.631 80.4847L362.618 80.6273L362.602 80.7914C362.535 81.5385 362.48 82.2562 362.474 82.9261C362.471 83.2724 362.482 83.5638 362.503 83.8031C362.57 83.7954 362.641 83.7865 362.718 83.7757C363.165 83.7127 363.647 83.6118 364.173 83.4945C364.254 83.4764 364.341 83.4566 364.432 83.4359C364.848 83.3417 365.352 83.2277 365.761 83.1595C368.523 82.6993 370.227 81.9818 371.834 80.3754C373.201 79.0089 375.416 79.0087 376.783 80.3754C378.15 81.7422 378.15 83.9587 376.783 85.3255C373.811 88.2975 370.564 89.4553 366.913 90.0638C366.721 90.0958 366.481 90.1506 366.095 90.2377H366.094L365.806 90.3021L365.698 90.3265C365.141 90.4508 364.433 90.6033 363.694 90.7074C362.97 90.8094 362.079 90.8864 361.167 90.8021C360.277 90.7198 359.063 90.4564 357.979 89.6136C356.642 88.5737 356.065 87.1401 355.796 86.0609C355.52 84.9568 355.466 83.8159 355.474 82.8636C355.483 81.8903 355.562 80.932 355.631 80.1664L355.665 79.7836C355.721 79.1586 355.757 78.7673 355.762 78.4867C355.796 76.6701 356.1 74.8238 356.434 73.139L356.77 71.515C356.859 71.0958 356.944 70.6926 357.021 70.3099C357.261 69.12 357.442 68.0585 357.529 67.0843C357.155 66.8714 356.814 66.5853 356.529 66.2289C355.322 64.7195 355.567 62.5174 357.076 61.3099C358.392 60.2572 360.272 59.5662 361.631 59.1302C363.129 58.6494 364.64 58.2865 365.565 58.0687C366.816 57.7743 367.963 57.5382 369.05 57.3148C371.083 56.8966 372.907 56.5215 374.813 55.8861ZM431.008 81.7152C432.94 81.7154 434.508 83.2823 434.508 85.2152C434.507 87.148 432.94 88.715 431.008 88.7152H430.285C428.352 88.715 426.785 87.148 426.785 85.2152C426.785 83.2823 428.352 81.7154 430.285 81.7152H431.008ZM399.322 53.1078C401.206 52.6775 403.083 53.8561 403.513 55.7406C403.944 57.6251 402.765 59.5017 400.881 59.932C400.409 60.0396 399.896 60.1479 399.354 60.2621C397.338 60.6871 394.924 61.1963 392.777 62.0755C391.439 62.6234 390.549 63.1895 390.057 63.6996C390.005 63.7534 389.959 63.8048 389.919 63.8539C390.587 64.0977 391.348 64.2712 391.835 64.3558C392.7 64.5064 393.624 64.6281 394.638 64.7562L394.996 64.8011C395.887 64.9132 396.845 65.0339 397.795 65.18C399.934 65.5092 402.336 66.0077 404.555 67.0589C406.053 67.7681 407.285 68.9075 407.908 70.5052C408.503 72.0337 408.364 73.5335 408.042 74.6937C407.426 76.9111 405.893 78.844 404.662 80.014C402.563 82.0077 399.872 83.1608 397.414 83.8841C394.924 84.6166 392.368 84.9931 390.326 85.2484C388.408 85.4882 386.658 84.1274 386.419 82.2093C386.179 80.2914 387.54 78.5428 389.458 78.3031C391.415 78.0585 393.511 77.7352 395.438 77.1683C397.396 76.5922 398.886 75.8453 399.841 74.9388C400.159 74.6367 400.502 74.2425 400.787 73.8216C400.945 73.5887 401.062 73.3795 401.147 73.2025C399.933 72.6965 398.468 72.3653 396.73 72.098C395.882 71.9676 395.026 71.8599 394.125 71.7464L393.761 71.7005C392.75 71.5728 391.68 71.4339 390.635 71.2523C389.807 71.1081 388.289 70.7755 386.872 70.1752C386.171 69.8781 385.311 69.4398 384.555 68.7953C383.81 68.1591 382.843 67.0354 382.677 65.3763C382.406 62.6662 383.461 60.4555 385.018 58.8402C386.478 57.3259 388.386 56.3091 390.125 55.597C392.941 54.4439 396.222 53.7593 398.218 53.3431C398.653 53.2525 399.027 53.1751 399.322 53.1078ZM361.762 83.8255L361.775 83.8275L361.768 83.8255L361.762 83.8246H361.759L361.762 83.8255ZM421.503 48.6664C425.191 44.5169 430.85 43.6152 435.414 44.9906C440.079 46.3967 444.251 50.4111 444.251 56.5365C444.251 60.9897 440.734 62.9752 438.715 63.9183C438.157 64.1788 437.592 64.415 437.093 64.6214L436.935 64.6869C436.482 64.8746 436.087 65.0378 435.709 65.2074C434.819 65.6062 434.408 65.8783 434.227 66.0521C432.293 67.9132 432.184 69.5629 432.184 73.8207C432.184 75.7536 430.617 77.3207 428.684 77.3207C426.751 77.3206 425.184 75.7536 425.184 73.8207V73.4867C425.181 69.5341 425.177 65.0456 429.374 61.0072C430.469 59.953 431.815 59.2818 432.843 58.8207C433.083 58.7134 433.326 58.6088 433.564 58.5082L434.256 58.2201L434.415 58.1537C434.915 57.9464 435.35 57.7641 435.752 57.5765C436.598 57.1812 437.001 56.8943 437.183 56.7035C437.189 56.6975 437.194 56.6919 437.199 56.6869C437.226 56.6585 437.24 56.6444 437.246 56.6283C437.251 56.6136 437.251 56.5968 437.251 56.5648C437.251 56.5566 437.251 56.5469 437.251 56.5365C437.251 54.11 435.731 52.3974 433.393 51.6927C430.953 50.9576 428.296 51.5607 426.734 53.3177C425.45 54.762 423.238 54.8918 421.794 53.6078C420.349 52.3236 420.218 50.1111 421.503 48.6664Z" fill="black"/>
</svg>
