<svg width="162" height="229" viewBox="0 0 162 229" fill="none" xmlns="http://www.w3.org/2000/svg">
<path d="M5.72702 175.398C7.43524 174.494 9.55295 175.145 10.4575 176.853C12.6618 181.017 15.1374 185.493 16.9673 190.234C18.6733 194.655 18.8207 199.368 18.4975 203.71C18.5384 203.924 18.56 204.145 18.56 204.371C18.56 205.926 18.4141 207.645 18.3432 208.942C18.2653 210.369 18.259 211.492 18.4057 212.425C18.5455 213.313 18.798 213.848 19.1167 214.219C19.4271 214.58 20.043 215.071 21.4116 215.444C24.326 216.239 26.8079 216.136 28.7671 215.381C30.6794 214.644 32.392 213.174 33.6538 210.65C34.5183 208.922 36.6204 208.222 38.3491 209.086C39.4448 209.634 40.1271 210.679 40.2602 211.811C40.5593 212.111 40.8048 212.423 40.9848 212.672C41.4045 213.253 41.8002 213.939 42.1196 214.524C42.4503 215.13 42.7611 215.746 42.9995 216.22C43.1233 216.466 43.2219 216.662 43.3042 216.822C43.3974 217.004 43.4217 217.045 43.4067 217.02C44.5456 218.918 45.4947 219.897 46.4438 220.463C47.3698 221.015 48.6557 221.389 50.8657 221.389C51.5878 221.389 52.1045 221.148 52.6069 220.656C53.1868 220.088 53.7479 219.163 54.228 217.889L54.3501 217.552C54.9273 215.889 55.0193 214.545 54.8364 213.289C54.6317 211.885 54.0523 210.372 53.0141 208.444C52.0977 206.742 52.7342 204.62 54.436 203.703C55.0601 203.367 55.7408 203.24 56.3979 203.298C57.3908 203.213 58.4133 203.55 59.1733 204.31C59.7434 204.88 60.5983 205.138 61.8735 204.781C63.2173 204.405 64.5176 203.437 65.2202 202.344C66.1193 200.945 66.0531 199.284 64.7407 197.119C63.4022 194.911 61.1049 192.871 59.1225 191.682C57.4652 190.687 56.927 188.537 57.9214 186.88C58.9159 185.223 61.0667 184.685 62.7241 185.68C65.4538 187.318 68.6743 190.104 70.727 193.491C72.8057 196.921 74.0039 201.625 71.1089 206.129C69.4578 208.697 66.716 210.694 63.7612 211.521C63.1012 211.706 62.4089 211.836 61.7007 211.897C61.7223 212.024 61.7445 212.151 61.7632 212.279C62.1214 214.738 61.8763 217.209 60.9692 219.83L60.7788 220.356C59.489 223.779 56.6454 228.388 50.8657 228.389C47.868 228.389 45.2141 227.88 42.8579 226.475C40.671 225.17 39.0603 223.281 37.6782 221.068L37.4038 220.621C37.2834 220.42 37.1609 220.183 37.0747 220.015C36.9765 219.823 36.8599 219.592 36.7456 219.364C36.6306 219.136 36.5097 218.895 36.3852 218.653C34.9031 220.081 33.1903 221.177 31.2837 221.912C27.6348 223.318 23.5822 223.292 19.5698 222.197C17.1692 221.542 15.2207 220.426 13.8061 218.779C12.4001 217.142 11.7662 215.264 11.4907 213.513C11.3502 212.62 11.298 211.716 11.2905 210.843C10.9413 210.207 10.7856 209.457 10.8921 208.684C11.7007 202.808 12.2216 197.379 10.437 192.755C8.79463 188.5 6.57154 184.473 4.27194 180.129C3.36767 178.421 4.0189 176.303 5.72702 175.398ZM19.0776 19.7256C30.0822 6.61726 47.482 -1.82123 65.1313 0.335909C82.8778 2.50509 96.7167 16.5314 103.408 31.5488C112.958 52.9832 113.051 78.9209 106.731 100.965C104.667 108.163 101.904 115.359 98.269 122.075C106.427 125.069 114.094 128.7 121.753 132.514C123.132 130.186 125.186 127.022 127.67 124.588C129.317 122.974 131.443 121.387 133.984 120.773C136.736 120.109 139.569 120.687 142.134 122.697C145.091 125.015 146.199 128.173 146.371 131.145C146.486 133.146 146.187 135.133 145.745 136.91C145.858 136.905 145.97 136.903 146.078 136.905C148.261 136.947 151.201 137.424 153.89 138.467C156.445 139.458 159.605 141.287 160.951 144.577C162.31 147.901 161.743 151.003 159.845 153.439C158.151 155.616 155.58 157.042 153.202 158.003C151.8 158.569 150.313 159.031 148.841 159.407C149.1 160.018 149.27 160.678 149.332 161.385C149.54 163.771 148.459 165.9 147.102 167.451C144.802 170.08 142.21 171.712 139.366 172.414C136.563 173.105 133.819 172.817 131.312 172.13C128.826 171.449 126.415 170.331 124.211 169.199C123.103 168.63 121.999 168.033 120.952 167.469C119.89 166.897 118.88 166.357 117.893 165.863C116.164 164.999 115.463 162.896 116.328 161.167C117.192 159.438 119.295 158.737 121.024 159.602C122.117 160.148 123.212 160.736 124.271 161.306C125.344 161.883 126.376 162.442 127.409 162.973C129.487 164.04 131.385 164.892 133.162 165.379C134.917 165.86 136.391 165.938 137.689 165.618C138.945 165.308 140.338 164.552 141.834 162.842C142.103 162.535 142.243 162.282 142.309 162.119C142.31 162.116 142.311 162.112 142.312 162.108C142.249 162.064 142.16 162.005 142.032 161.94C141.616 161.732 140.967 161.353 140.544 161.115C140.344 161.003 140.143 160.895 139.946 160.79C139.938 160.792 139.928 160.794 139.918 160.796C139.785 160.821 139.625 160.855 139.385 160.903C138.974 160.987 138.324 161.118 137.727 161.183C137.443 161.213 136.999 161.249 136.524 161.209C136.287 161.189 135.902 161.14 135.47 160.988C135.062 160.845 134.309 160.503 133.714 159.704C132.198 157.666 133.473 155.665 133.705 155.333C134.089 154.782 134.575 154.364 134.907 154.099L135.181 153.895C136.564 152.938 138.088 152.945 139.04 153.075C139.83 153.183 140.585 153.419 141.234 153.672C143.791 153.405 147.541 152.742 150.579 151.514C152.527 150.726 153.747 149.876 154.322 149.139C154.693 148.661 154.872 148.208 154.471 147.228C154.235 146.651 153.353 145.767 151.359 144.993C149.498 144.271 147.377 143.932 145.943 143.904C146.052 143.906 145.872 143.906 145.249 144.02C144.733 144.113 144.117 144.246 143.527 144.386C142.964 144.519 142.468 144.649 142.143 144.742C141.528 145.05 140.817 145.181 140.084 145.076C139.941 145.056 139.629 145.004 139.261 144.856C138.973 144.741 138.086 144.347 137.507 143.317C136.784 142.029 137.063 140.747 137.442 140.005C137.756 139.39 138.172 139.029 138.321 138.904C138.344 138.884 138.37 138.867 138.393 138.849C138.234 138.222 138.246 137.543 138.465 136.884C139.087 135.019 139.474 133.146 139.382 131.549C139.296 130.051 138.815 128.99 137.816 128.207C136.855 127.454 136.201 127.439 135.627 127.578C134.842 127.768 133.802 128.381 132.569 129.589C130.098 132.009 128.011 135.634 126.729 137.902C125.872 139.418 124.055 140.049 122.473 139.465C121.599 139.785 120.601 139.759 119.703 139.311C111.323 135.121 103.22 131.266 94.6108 128.199C88.6442 137.255 80.8005 145.041 70.5659 150.181C55.986 157.503 40.0871 154.808 27.0932 146.442C13.6212 137.769 6.44266 122.333 4.02878 107.549C2.59018 98.7374 3.00403 89.9297 3.70944 81.375C3.495 81.3876 3.27598 81.3828 3.05515 81.3545C1.13798 81.1086 -0.216937 79.3547 0.028778 77.4375C2.46563 58.43 5.40501 36.012 19.0776 19.7256ZM64.2817 7.28415C49.3662 5.46125 34.1865 12.6155 24.4389 24.2265C15.5163 34.855 11.6178 48.613 9.18796 62.8779C10.8559 63.2288 12.0603 64.757 11.9565 66.5097C11.1149 80.7244 8.78985 93.2697 10.937 106.421C13.1597 120.035 19.6454 133.322 30.8823 140.557C42.3063 147.912 55.5529 149.888 67.4243 143.926C84.5976 135.301 94.6104 117.838 100.001 99.0351C105.966 78.2329 105.763 54.0332 97.0141 34.3974C90.9613 20.8123 78.8187 9.061 64.2817 7.28415ZM54.1948 109.142C55.369 107.606 57.5656 107.313 59.101 108.487C61.5104 110.33 62.5113 111.416 64.3462 112.257C67.8825 113.878 71.6555 114.749 75.8842 115.688C77.771 116.108 78.9608 117.977 78.5415 119.864C78.1221 121.751 76.2525 122.941 74.3657 122.521C70.2205 121.6 65.7392 120.596 61.4292 118.62C58.644 117.344 56.4196 115.249 54.8491 114.048C53.3137 112.874 53.0208 110.677 54.1948 109.142ZM91.8091 74.414C93.7092 74.0606 95.5362 75.3148 95.8901 77.2148C96.4829 80.401 95.9074 83.4069 95.02 86.0136C94.1467 88.5787 92.8644 91.0397 91.8676 93.0332C91.0032 94.762 88.9003 95.463 87.1714 94.5986C85.4427 93.7341 84.7416 91.6311 85.6059 89.9023C86.6926 87.7289 87.7094 85.7659 88.393 83.7578C89.0624 81.7916 89.3018 80.0743 89.0083 78.4961C88.6549 76.5958 89.9089 74.7677 91.8091 74.414ZM66.6938 72.2451C67.9858 72.2848 68.8958 72.9736 69.3911 73.5791C69.8259 74.1108 70.0142 74.646 70.0962 74.914C70.19 75.2211 70.2369 75.4995 70.2632 75.7002C70.3572 76.4188 70.3164 77.2345 70.2758 77.79C70.1882 78.9906 69.9834 80.3706 69.8852 80.831C69.2419 83.8467 69.1725 86.6153 68.6958 90.2705C68.4457 92.1871 66.6886 93.5381 64.7719 93.2881C62.8555 93.0378 61.5046 91.2817 61.7544 89.3652C62.1149 86.601 62.3322 82.6869 63.0395 79.3711C63.0411 79.3611 63.0864 79.1054 63.1469 78.6552C63.2046 78.2266 63.2618 77.7272 63.2944 77.2812C62.6017 75.8104 63.0111 74.0069 64.3628 72.9931C64.7356 72.7136 65.549 72.21 66.6938 72.2451Z" fill="black"/>
</svg>
