<svg width="173" height="225" viewBox="0 0 173 225" fill="none" xmlns="http://www.w3.org/2000/svg">
<path d="M67.9823 76.7841C89.6621 74.2677 114.212 80.2614 134.06 92.6406C153.923 105.028 169.486 124.088 172.391 147.953C174.978 169.213 164.465 188.09 149.526 201.586C131.395 217.966 106.674 224.728 83.0595 223.97C64.5719 223.376 44.1052 217.894 28.6854 206.823C17.9459 199.113 10.1041 189.571 6.0165 178.622C3.50072 171.883 2.44477 164.699 2.95009 157.211C0.263768 140.178 -0.643615 121.286 10.4852 105.421C23.2244 87.2608 48.1022 79.0917 67.9823 76.7841ZM130.356 98.58C112.011 87.1386 89.4621 81.5948 69.7274 83.6337L68.7899 83.7372C49.5537 85.97 27.2115 93.7657 16.2157 109.44C9.72375 118.695 7.91633 129.312 8.25868 140.433C8.87465 140.276 9.5408 140.286 10.1903 140.495C12.0301 141.088 13.0408 143.06 12.4481 144.899C11.122 149.016 10.316 153.025 9.99111 156.909C10.2622 158.596 10.5533 160.286 10.8563 161.975C11.0546 163.08 10.7085 164.157 10.0116 164.933C10.3695 168.835 11.2367 172.589 12.5751 176.174C16.0888 185.586 22.9331 194.075 32.7684 201.137C46.8082 211.216 65.8369 216.413 83.2841 216.974C105.531 217.688 128.343 211.29 144.834 196.392C158.697 183.867 167.667 167.086 165.442 148.799C162.864 127.61 148.98 110.195 130.356 98.58ZM80.7997 171.597C83.4692 171.597 86.5584 171.678 89.3739 172.669C92.4049 173.736 94.9803 175.798 96.6825 179.338C98.4315 182.976 97.5255 186.478 95.5585 188.966C93.7043 191.31 90.8735 192.869 88.1122 193.387C85.8355 193.814 82.6799 194.257 79.7235 193.72C76.5634 193.145 73.3221 191.353 71.914 187.269C70.7317 183.841 71.8364 180.407 73.4091 177.943C74.4728 176.277 75.9396 174.744 77.621 173.63C78.1758 172.43 79.3906 171.597 80.7997 171.597ZM83.1405 178.645C82.9383 178.766 82.7214 178.869 82.4901 178.949C81.5163 179.286 80.2143 180.291 79.3085 181.71C78.3955 183.14 78.2974 184.306 78.5321 184.987C78.8962 186.043 79.5646 186.575 80.9765 186.832C82.5925 187.126 84.6738 186.91 86.8222 186.507C88.0866 186.27 89.361 185.518 90.0683 184.624C90.6627 183.872 90.7747 183.205 90.3739 182.371C89.5046 180.563 88.3981 179.746 87.0497 179.271C85.977 178.894 84.7038 178.719 83.1405 178.645ZM47.619 123.404C49.3546 122.553 51.4517 123.27 52.3026 125.006C54.0658 128.603 54.9869 131.982 55.8378 135.556C56.2851 137.436 55.1241 139.323 53.244 139.77C51.3637 140.218 49.4761 139.057 49.0282 137.177C48.2088 133.735 47.4297 130.969 46.0175 128.088C45.1667 126.352 45.8837 124.255 47.619 123.404ZM97.3651 117.354C99.1277 116.561 101.2 117.347 101.993 119.109C102.984 121.311 103.422 123.494 103.757 125.352C104.11 127.311 104.343 128.83 104.85 130.35C105.461 132.183 104.469 134.165 102.636 134.776C100.802 135.387 98.8202 134.396 98.2089 132.562C97.5022 130.442 97.1738 128.289 96.8681 126.595C96.5439 124.798 96.2233 123.345 95.6102 121.982C94.8171 120.22 95.6026 118.148 97.3651 117.354ZM0.750872 34.3769C1.94709 32.8586 4.14757 32.5969 5.66591 33.7929C9.96809 37.1825 13.4888 41.2399 16.7255 45.1787C17.3607 45.9516 17.9821 46.7175 18.5966 47.4736H18.5976C21.1807 50.6517 23.6317 53.6688 26.3827 56.4199C27.7495 57.7867 27.7495 60.0022 26.3827 61.3691C25.0159 62.7358 22.8003 62.7359 21.4335 61.3691C18.4017 58.3373 15.669 54.9727 13.0712 51.7744L11.3173 49.623C8.12478 45.738 5.004 42.1836 1.33388 39.2919C-0.184394 38.0957 -0.445192 35.8952 0.750872 34.3769ZM93.0087 13.6015C94.9416 13.6016 96.5087 15.1686 96.5087 17.1015C96.5087 27.5645 96.4906 35.5682 92.3143 46.0087C91.5964 47.8035 89.5593 48.6768 87.7645 47.9589C85.9698 47.241 85.0974 45.2039 85.8153 43.4091C89.4438 34.3378 89.5087 27.5497 89.5087 17.1015C89.5087 15.1685 91.0757 13.6015 93.0087 13.6015ZM45.7411 0.333928C47.4901 -0.489136 49.5753 0.261674 50.3983 2.01069C53.525 8.65487 54.7793 15.7513 55.4061 22.6982C55.7198 26.1747 55.8801 29.669 56.0253 33.0712L56.0624 33.9355C56.1948 37.0585 56.3233 40.0958 56.5526 43.0771C56.7007 45.0043 55.2581 46.6867 53.3309 46.8349C51.4038 46.983 49.7214 45.5404 49.5731 43.6132C49.3341 40.5054 49.2006 37.3493 49.0692 34.249L49.0311 33.3701C48.8857 29.9629 48.7315 26.6195 48.4345 23.3271C47.8398 16.7364 46.69 10.5688 44.0653 4.99115C43.2423 3.2423 43.9924 1.15714 45.7411 0.333928Z" fill="black"/>
</svg>
