<svg width="283" height="212" viewBox="0 0 283 212" fill="none" xmlns="http://www.w3.org/2000/svg">
<path d="M133.082 0.0127843C134.967 0.0983539 136.705 0.752661 138.001 2.09872C139.247 3.39314 139.755 4.98591 139.916 6.36337C139.972 6.84128 139.989 7.32477 139.975 7.80673C142.122 6.92643 144.576 6.43876 147.545 6.84189L147.831 6.88583C149.255 7.12742 150.532 7.70964 151.572 8.64462C152.658 9.6211 153.302 10.8149 153.677 11.9464C154.388 14.0884 154.274 16.4268 154.081 18.0792C157.33 18.1902 160.701 18.4738 164.073 19.2911C170.52 15.2585 177.37 11.8354 184.606 9.31747C196.767 5.08617 209.197 5.26885 221.317 6.89267C243.623 9.88139 265.943 24.5785 275.636 45.4181C285.833 67.3395 284.067 89.8847 274.515 111.066L274.054 112.074C263.819 134.157 244.305 151.927 221.746 161.313C202.677 169.246 181.231 171.262 161.223 164.629C154.148 164.454 147.032 164.443 139.969 164.352C111.026 163.976 82.1151 162.359 53.3181 160.892C53.1603 161.237 52.9079 161.649 52.5017 162.025C52.0056 162.485 51.3183 162.851 50.4939 162.942C49.7141 163.029 49.0745 162.84 48.6618 162.655C47.9327 162.329 47.5079 161.838 47.3894 161.7C47.2124 161.494 47.0873 161.302 47.0144 161.185C46.8654 160.944 46.7462 160.703 46.6609 160.52C46.4819 160.135 46.2871 159.648 46.0788 159.09C45.7917 158.32 45.7935 157.513 46.029 156.788C45.6688 155.451 45.1711 153.762 44.5593 151.892C43.5165 148.705 42.1882 145.128 40.7361 142.025C39.2188 138.784 37.7841 136.543 36.6853 135.571C36.1587 135.106 35.7332 134.775 35.3982 134.543C35.2773 134.804 35.1358 135.148 34.9831 135.594C33.1934 140.823 31.6418 146.205 30.7126 151.517C30.6422 151.919 30.5037 152.292 30.3142 152.629C30.4087 153.26 30.3762 153.955 30.1267 154.694L30.0505 154.905C29.3505 156.707 27.322 157.601 25.5202 156.9C24.3642 156.451 23.5842 155.454 23.3571 154.322C23.2072 154.235 23.0263 154.137 22.8103 154.035C21.4226 153.379 19.232 152.752 16.7937 152.453C14.349 152.154 11.9757 152.224 10.1726 152.711C8.35743 153.201 7.6706 153.934 7.42453 154.567C6.7534 156.295 6.98675 157.313 7.37375 158.02C7.84893 158.888 8.86508 159.822 10.57 160.689C14.0035 162.434 18.8114 163.194 21.7898 163.287C23.6558 163.346 25.1343 164.855 25.1784 166.699C25.3195 166.788 25.4754 166.895 25.6306 167.021C25.7832 167.144 26.0403 167.368 26.2898 167.697C26.5188 168 26.9526 168.668 27.0163 169.635C27.091 170.771 26.623 171.732 26.0017 172.363C25.4793 172.894 24.9206 173.128 24.657 173.225C24.1261 173.419 23.6464 173.455 23.4763 173.467C22.7719 173.516 21.7059 173.421 21.0437 173.37C20.1903 173.305 19.348 173.243 18.6091 173.24C17.7306 173.237 17.5375 173.329 17.7058 173.262C14.9643 174.36 13.3438 175.015 12.2995 175.923C11.8728 176.294 11.6244 176.651 11.4704 177.059C11.3092 177.487 11.1765 178.172 11.281 179.291C11.5879 182.577 13.8531 185.019 17.322 186.299C20.866 187.606 25.0327 187.412 27.9568 185.86C29.6641 184.955 31.7831 185.604 32.6892 187.312C33.1762 188.229 33.2124 189.266 32.8777 190.169C33.2557 190.729 33.4796 191.305 33.612 191.792C33.8403 192.632 33.8679 193.449 33.862 194.026C33.8562 194.607 33.808 195.217 33.7849 195.572C33.7695 195.809 33.7636 195.952 33.7614 196.031L33.7595 196.108C33.8619 197.058 34.1657 198.465 34.654 199.803C35.1777 201.237 35.7318 202.085 36.0652 202.386C38.3395 204.436 40.4109 204.623 42.1677 204.048C44.13 203.405 46.1868 201.63 47.6472 198.924C48.5654 197.223 50.6885 196.588 52.3894 197.506C54.0901 198.424 54.7243 200.548 53.8064 202.249C51.7264 206.103 48.4272 209.364 44.3464 210.7C40.0596 212.103 35.3981 211.209 31.3786 207.586C29.7534 206.121 28.7186 203.958 28.0779 202.203C27.4018 200.351 26.9647 198.39 26.7995 196.858L26.778 196.61C26.7397 196.032 26.7774 195.459 26.7995 195.118C26.8326 194.611 26.8587 194.286 26.862 193.956C26.8622 193.938 26.8611 193.921 26.8611 193.904C26.8077 193.834 26.7571 193.761 26.7097 193.688C22.807 194.548 18.5743 194.222 14.8991 192.866C9.65796 190.933 4.93663 186.63 4.31223 179.941C4.13194 178.01 4.30519 176.22 4.91965 174.59C5.54157 172.94 6.53943 171.654 7.70773 170.639C8.71848 169.76 9.91216 169.054 11.1296 168.455C9.84467 168.035 8.58036 167.53 7.39621 166.928C5.03967 165.729 2.65036 163.97 1.23312 161.381C-0.272253 158.631 -0.418515 155.426 0.900117 152.032C2.26865 148.51 5.39576 146.75 8.34738 145.952C11.3114 145.152 14.6595 145.139 17.6452 145.505C20.0578 145.801 22.4428 146.37 24.4382 147.129C25.4505 142.412 26.844 137.758 28.3611 133.326C28.8381 131.932 29.4398 130.604 30.281 129.539C31.1732 128.41 32.4566 127.441 34.1736 127.213C35.7819 126.999 37.1982 127.517 38.2546 128.087C39.323 128.663 40.3549 129.472 41.323 130.328C43.5924 132.336 45.5293 135.754 47.0759 139.059C48.6876 142.503 50.1163 146.364 51.2126 149.715C51.6945 151.188 52.1194 152.59 52.4743 153.839C81.7307 155.325 110.877 156.973 140.06 157.352C141.89 157.375 143.735 157.392 145.593 157.408C130.175 148.004 117.194 132.379 114.074 113.794L113.908 112.757C113.29 108.671 113.084 104.668 113.236 100.75C112.652 100.94 112.011 100.98 111.369 100.832C109.486 100.397 108.311 98.5171 108.746 96.6339C111.483 84.7898 114.889 74.4997 121.038 63.5899C127.102 52.8303 135.41 42.4433 144.579 34.1632C148.06 31.0196 151.709 27.9922 155.518 25.1524C153.281 25.0274 150.954 25.0153 148.473 24.9884C146.541 24.9674 144.99 23.383 145.01 21.4503C145.026 20.0148 145.905 18.7912 147.147 18.2647C147.096 17.9499 147.086 17.6227 147.126 17.2901C147.29 15.896 147.25 14.8045 147.034 14.1524C146.97 13.9587 146.912 13.877 146.893 13.8536C146.876 13.8443 146.841 13.8281 146.783 13.8126L146.602 13.7784C144.745 13.5262 143.35 13.8916 141.88 14.6251C141.09 15.019 140.291 15.5135 139.346 16.1222C138.444 16.7041 137.371 17.4166 136.233 18.0772C134.562 19.0477 132.42 18.4789 131.449 16.8077C130.671 15.4673 130.882 13.8245 131.858 12.7257C131.691 11.9335 131.797 11.0798 132.218 10.3155C132.45 9.89505 132.679 9.32008 132.826 8.70028C132.975 8.07093 133.007 7.53992 132.965 7.17587C132.957 7.11318 132.945 7.06215 132.936 7.0206C132.927 7.01945 132.918 7.01779 132.908 7.01669L132.764 7.00497C130.838 6.91777 128.722 7.91775 126.593 9.99521C124.497 12.0413 122.786 14.7667 121.765 17.1104C121.236 18.3261 120.098 19.0884 118.864 19.1983C118.58 19.6073 118.206 19.9631 117.747 20.2296C116.075 21.1999 113.933 20.6313 112.963 18.96C111.804 16.9639 110.737 14.6623 109.248 12.8683C108.536 12.0114 108.023 11.6633 107.759 11.5577C107.702 11.5347 107.695 11.479 107.42 11.6388C106.408 12.2263 105.137 13.429 103.947 15.1319C102.778 16.8052 101.846 18.7367 101.362 20.5606C100.866 22.4308 100.925 23.8501 101.274 24.7511C101.398 25.0688 101.582 25.3922 101.895 25.6915C103.694 25.0367 105.689 25.95 106.367 27.7452C106.701 28.6316 106.652 29.5687 106.302 30.3741C106.283 30.5466 106.252 30.7199 106.206 30.8927C105.71 32.7608 103.794 33.8734 101.926 33.378C101.747 33.3305 101.571 33.2783 101.397 33.2247C99.655 33.7815 97.5881 34.4743 95.5437 35.4561C93.9002 36.2454 92.8585 36.9749 92.3845 37.5255C92.3784 37.5326 92.3726 37.5402 92.3669 37.547C94.2574 40.9933 96.2546 41.7137 97.7478 41.6563C99.5914 41.5851 102.129 40.2973 104.678 37.1495C105.895 35.6476 108.099 35.4163 109.601 36.6329C111.103 37.8496 111.334 40.0538 110.118 41.5558C106.909 45.5173 102.677 48.4718 98.0173 48.6515C93.0363 48.843 88.8436 45.8498 86.0681 40.6163C85.3704 39.3003 85.1019 37.8503 85.3698 36.3839C85.6268 34.978 86.3255 33.8355 87.0798 32.9591C88.5256 31.2795 90.6463 30.0433 92.5134 29.1466C93.3222 28.7581 94.1982 28.3862 95.0788 28.0392C94.9594 27.7937 94.8489 27.5413 94.7487 27.2833C93.6671 24.496 93.8879 21.4346 94.5964 18.7647C95.3174 16.0481 96.6338 13.3775 98.2087 11.1231C99.7627 8.89883 101.732 6.84681 103.905 5.58505C106.057 4.33547 108.321 4.24268 110.36 5.05868C112.193 5.79256 113.605 7.15954 114.632 8.3956C115.407 9.32952 116.134 10.4183 116.775 11.4718C118.046 9.23441 119.71 6.93092 121.704 4.98544C124.531 2.22659 128.433 -0.197901 133.082 0.0127843ZM220.387 13.8311C208.768 12.2745 197.588 12.212 186.906 15.9288C172.987 20.7722 160.381 29.3237 149.27 39.3575C144.47 43.6925 139.911 48.6568 135.83 53.9513C135.897 53.9934 135.964 54.0378 136.029 54.085C137.593 55.2208 137.94 57.4097 136.804 58.9737C125.019 75.2039 117.69 93.0574 120.977 112.636C123.959 130.397 137.539 145.646 153.531 153.838C156.455 155.336 159.438 156.605 162.465 157.656C173.743 157.966 185.167 158.731 196.128 160.94C196.184 160.951 196.24 160.963 196.295 160.977C204.047 159.996 211.714 157.905 219.057 154.85C240.137 146.08 258.266 129.492 267.704 109.131L268.133 108.193C277.021 88.4868 278.466 68.0974 269.29 48.3702C260.722 29.9522 240.62 16.5421 220.387 13.8311ZM150.754 102.409C151.47 102.409 152.136 102.626 152.69 102.995C154.862 103.209 157.787 103.5 160.973 103.87C165.806 104.432 171.453 105.2 176.623 106.239C181.672 107.254 186.694 108.605 189.998 110.493L190.193 110.61C191.153 111.217 191.871 112.115 192.233 113.215C192.588 114.292 192.528 115.33 192.377 116.132C192.085 117.68 191.278 119.255 190.436 120.632C188.698 123.477 185.927 126.864 183.144 130.09C181.733 131.726 180.276 133.368 178.895 134.924C177.507 136.489 176.2 137.962 175.057 139.294C173.907 140.635 172.974 141.773 172.318 142.67C171.99 143.119 171.769 143.456 171.634 143.691C171.596 143.759 171.572 143.809 171.556 143.84C171.083 145.609 169.31 146.729 167.49 146.365C165.595 145.986 164.366 144.141 164.745 142.246L164.815 141.944C164.999 141.252 165.312 140.646 165.557 140.217C165.87 139.67 166.256 139.1 166.667 138.539C167.488 137.415 168.565 136.11 169.745 134.735C170.933 133.351 172.28 131.832 173.659 130.278C175.045 128.716 176.47 127.11 177.844 125.517C180.634 122.284 183.057 119.283 184.464 116.982C184.732 116.542 184.935 116.171 185.089 115.864C182.749 114.857 179.321 113.921 175.244 113.102C170.349 112.118 164.919 111.376 160.165 110.823C155.367 110.266 151.466 109.923 149.301 109.691C148.793 109.636 148.324 109.581 147.983 109.527C147.878 109.511 147.534 109.458 147.188 109.346C147.088 109.313 146.878 109.241 146.634 109.114C146.52 109.056 145.776 108.689 145.248 107.828C144.923 107.3 144.642 106.516 144.754 105.578C144.862 104.668 145.293 104.016 145.641 103.633C146.231 102.984 146.903 102.744 147.024 102.698C147.424 102.549 147.775 102.504 147.844 102.494C147.984 102.475 148.114 102.463 148.211 102.456C148.408 102.442 148.632 102.433 148.857 102.427C149.317 102.415 149.951 102.409 150.754 102.409ZM147.53 58.6153C149.389 58.0867 151.325 59.1647 151.854 61.0235C153.729 67.615 155.886 74.9625 156.691 82.21C156.904 84.1307 155.519 85.8607 153.598 86.0743C151.678 86.2874 149.947 84.9033 149.733 82.9825C149.005 76.434 147.043 69.6938 145.122 62.9395C144.593 61.0805 145.671 59.1445 147.53 58.6153ZM185.571 54.714C187.503 54.771 189.023 56.3827 188.967 58.3145C188.788 64.3744 188.992 68.7524 190.327 74.7599C190.746 76.6466 189.556 78.5161 187.67 78.9356C185.783 79.3545 183.913 78.165 183.494 76.2784C181.996 69.5391 181.781 64.5492 181.97 58.1095C182.027 56.1776 183.639 54.6575 185.571 54.714Z" fill="black"/>
</svg>
