<svg width="362" height="137" viewBox="0 0 362 137" fill="none" xmlns="http://www.w3.org/2000/svg">
<path d="M189.6 0.075674C213.372 -0.795523 235.651 5.76128 251.695 24.6431C260.581 35.0997 265.818 48.3164 266.449 61.8921C271.091 61.3887 275.753 61.3698 280.31 61.52C283.218 61.6159 285.954 61.7699 288.63 61.9204H288.631C292.04 62.1121 295.353 62.2987 298.806 62.353C301.059 62.3885 303.325 62.2561 305.693 62.0815C306.229 62.0421 306.773 62 307.324 61.9575H307.327C308.221 61.8885 309.133 61.8185 310.053 61.7554C308.464 58.103 308.443 53.8809 309.532 50.3335C311.143 45.0879 315.608 40.1293 322.584 40.4663C329.047 40.7786 333.186 45.1776 335.09 50.064C336.277 53.1103 336.712 56.5833 336.325 59.8882C337.145 59.819 337.793 59.7873 338.03 59.7886C343.644 59.8195 350.838 61.0382 356.104 64.3852C358.858 66.1362 361.548 68.7186 361.051 72.2632C360.819 73.9195 359.924 75.1817 359.037 76.062C358.149 76.9435 357.074 77.6393 356.038 78.1929C354.892 78.8056 353.585 79.347 352.258 79.8188C353.164 80.6478 354.017 81.5523 354.783 82.5132C357.19 85.5332 359.133 89.6416 358.378 94.0991C357.946 96.6521 356.58 98.748 354.205 99.7134C352.149 100.549 349.979 100.252 348.385 99.8286C347.954 99.7142 347.524 99.5791 347.098 99.4282C347.258 100.769 347.219 102.229 346.769 103.635C346.084 105.773 344.504 107.544 342.023 108.33C338.933 109.308 335.773 108.552 333.333 107.375C330.862 106.183 328.609 104.321 327.15 102.267C326.03 100.691 326.4 98.5067 327.976 97.3872C329.551 96.2677 331.736 96.6376 332.856 98.2134C333.572 99.222 334.872 100.347 336.374 101.071C337.908 101.81 339.142 101.9 339.909 101.657C340.076 101.604 340.078 101.598 340.092 101.541L340.096 101.526C340.098 101.518 340.1 101.509 340.103 101.5C340.196 101.207 340.252 100.55 340.016 99.5151C339.79 98.5289 339.361 97.4801 338.847 96.5893C338.295 95.6327 337.829 95.1736 337.699 95.0815C336.124 93.961 335.757 91.7757 336.877 90.2007C337.998 88.6257 340.183 88.2569 341.758 89.3774C341.838 89.4345 341.918 89.4943 341.996 89.5552C342.869 89.4301 343.79 89.6323 344.558 90.1938C345.738 91.0567 348.157 92.5253 350.182 93.063C350.821 93.2327 351.209 93.2524 351.407 93.2446C351.428 93.1719 351.452 93.07 351.476 92.9311C351.766 91.2154 351.072 89.0881 349.31 86.8765C347.618 84.7546 345.308 83.0405 343.35 82.1724C341.755 82.1912 340.3 81.1109 339.909 79.4946C339.455 77.6157 340.61 75.7242 342.489 75.27C342.707 75.2173 342.944 75.1611 343.196 75.1011L343.198 75.1001C345.787 74.4833 350.014 73.4757 352.737 72.02C353.194 71.776 353.536 71.5548 353.783 71.3677C353.518 71.1143 353.075 70.7547 352.348 70.2925C348.631 67.9303 342.926 66.8157 337.991 66.7886C338.001 66.7886 337.985 66.7893 337.943 66.7915L337.554 66.8149C337.365 66.8274 337.119 66.8451 336.825 66.8706C336.259 66.9198 335.616 66.9885 335.017 67.0767C333.998 68.6595 331.899 69.1578 330.274 68.1821C329.955 67.991 329.528 67.6957 329.138 67.2593C328.743 66.8178 328.235 66.0558 328.144 64.9927C328.115 64.6639 328.127 64.3584 328.169 64.0757C328.127 63.5024 328.227 62.9106 328.485 62.352C329.731 59.6648 329.816 55.8095 328.567 52.605C327.356 49.4939 325.185 47.6005 322.246 47.4585C319.423 47.3221 317.21 49.1791 316.225 52.3882C315.21 55.6939 315.939 59.2188 317.976 61.1167C318.953 62.0273 319.292 63.3665 318.974 64.5737C318.96 64.7447 318.934 64.9172 318.895 65.0893C318.735 65.7816 318.39 66.8075 317.501 67.6343C316.49 68.574 315.327 68.7626 314.555 68.7573C314.006 68.7535 313.43 68.6369 313.292 68.6089L313.266 68.603C313.227 68.5958 313.197 68.5909 313.176 68.5874C311.441 68.6615 309.728 68.793 307.949 68.9302C307.377 68.9743 306.797 69.0195 306.208 69.063C303.795 69.2408 301.274 69.3926 298.695 69.352C295.263 69.298 291.567 69.0943 287.933 68.894L283.93 68.6802C282.615 68.6146 281.326 68.5572 280.079 68.5161C275.359 68.3605 270.778 68.404 266.36 68.9477C266.062 73.062 265.328 77.1712 264.133 81.2095C258.596 99.9107 243.226 116.677 226.672 125.874C203.413 138.795 178.47 138.461 154.149 130.787C131.425 123.616 108.007 105.995 104.643 80.272C104.62 80.2706 104.596 80.2709 104.573 80.269C102.647 80.1147 101.209 78.4272 101.363 76.5005C101.435 75.604 101.523 74.7141 101.623 73.8306C100.836 74.4897 99.7677 74.7989 98.6827 74.5796C93.0706 73.445 87.1685 73.3138 81.0313 73.5161C79.7843 73.5572 78.4951 73.6146 77.1808 73.6802L73.1778 73.894H73.1769C69.543 74.0943 65.8462 74.2981 62.4142 74.352C59.8362 74.3926 57.3151 74.2408 54.9024 74.063C54.313 74.0195 53.7327 73.9743 53.1603 73.9302C51.3813 73.793 49.6697 73.6615 47.9347 73.5874C47.9131 73.5909 47.8835 73.5958 47.8448 73.603L47.8185 73.6089C47.6802 73.6369 47.1048 73.7535 46.5558 73.7573C45.7836 73.7627 44.6204 73.574 43.6095 72.6343C42.7202 71.8075 42.3754 70.7816 42.2159 70.0893C42.1763 69.9172 42.1493 69.7447 42.1358 69.5737C41.8174 68.3666 42.1576 67.0272 43.1349 66.1167C45.1714 64.2188 45.9005 60.6938 44.8858 57.3882C43.9008 54.1792 41.6878 52.3222 38.8644 52.4585C35.9251 52.6005 33.755 54.4939 32.5431 57.605C31.2948 60.8095 31.3798 64.6648 32.6251 67.352C32.8838 67.9106 32.9825 68.5024 32.9405 69.0757C32.983 69.3584 32.9952 69.6638 32.9669 69.9927C32.8754 71.0558 32.3674 71.8178 31.9728 72.2593C31.5825 72.6958 31.1553 72.991 30.837 73.1821C29.2116 74.1579 27.1117 73.6596 26.0929 72.0767C25.4936 71.9885 24.8516 71.9198 24.2853 71.8706C23.9919 71.8451 23.746 71.8274 23.5567 71.8149L23.1671 71.7915C23.1259 71.7893 23.1089 71.7886 23.1183 71.7886C18.1833 71.8158 12.4791 72.9304 8.76279 75.2925C8.03574 75.7546 7.5927 76.1143 7.32724 76.3677C7.57412 76.5548 7.916 76.7761 8.37217 77.02C11.0952 78.4758 15.3236 79.4832 17.9122 80.1001L17.9142 80.1011C18.1663 80.1612 18.4031 80.2173 18.6212 80.27C20.5001 80.7242 21.6555 82.6157 21.2013 84.4946C20.8105 86.1109 19.3558 87.1911 17.7608 87.1724C15.8022 88.0405 13.4922 89.7547 11.8009 91.8765C10.0381 94.0881 9.34342 96.2154 9.63388 97.9311C9.65741 98.07 9.68223 98.1719 9.70322 98.2446C9.90136 98.2524 10.29 98.2326 10.9288 98.063C12.9533 97.5252 15.3727 96.0567 16.5528 95.1938C17.321 94.6324 18.2415 94.4301 19.1144 94.5552C19.1929 94.4943 19.2723 94.4346 19.3526 94.3774C20.9277 93.2569 23.1129 93.6256 24.2335 95.2007C25.354 96.7757 24.9861 98.9609 23.4112 100.082C23.2819 100.174 22.8148 100.633 22.2628 101.589C21.7489 102.48 21.3205 103.529 21.0948 104.515C20.8581 105.55 20.9133 106.207 21.0069 106.5C21.01 106.509 21.0127 106.518 21.0147 106.526L21.0186 106.541C21.0329 106.598 21.0344 106.604 21.2013 106.657C21.9683 106.9 23.203 106.81 24.7364 106.071C26.2379 105.347 27.5374 104.222 28.254 103.213C29.3735 101.638 31.5591 101.268 33.1349 102.387C34.7105 103.507 35.0803 105.691 33.961 107.267C32.502 109.321 30.2489 111.183 27.7774 112.375C25.3375 113.552 22.1776 114.309 19.088 113.331C16.6061 112.545 15.0259 110.773 14.3409 108.635C13.8905 107.229 13.8528 105.769 14.0128 104.428C13.5867 104.579 13.1563 104.714 12.7257 104.829C11.132 105.252 8.96193 105.549 6.90537 104.713C4.53035 103.748 3.16471 101.652 2.73252 99.0991C1.97795 94.6418 3.91926 90.5342 6.32627 87.5142C7.09227 86.5531 7.94602 85.6479 8.85263 84.8188C7.52511 84.3469 6.21849 83.8056 5.07236 83.1929C4.03691 82.6393 2.96186 81.9436 2.07334 81.062C1.18608 80.1817 0.291937 78.9195 0.0596653 77.2632C-0.437139 73.7185 2.25243 71.1362 5.00693 69.3852C10.2725 66.0382 17.4663 64.8195 23.0802 64.7886C23.3177 64.7873 23.9658 64.819 24.7853 64.8882C24.3986 61.5833 24.8339 58.1103 26.0206 55.064C27.9241 50.1776 32.063 45.7785 38.5265 45.4663C45.5028 45.1293 49.968 50.0879 51.5782 55.3335C52.6672 58.8809 52.6452 63.103 51.0567 66.7554C51.9768 66.8185 52.8891 66.8885 53.7833 66.9575H53.7862C54.337 67 54.881 67.0421 55.4161 67.0815C57.7848 67.2561 60.0516 67.3885 62.3048 67.353C64.8943 67.3123 67.4055 67.1969 69.9376 67.061L72.4796 66.9204H72.4806C75.157 66.7699 77.8927 66.6159 80.8009 66.52C87.1325 66.3113 93.6674 66.424 100.069 67.7183C101.013 67.9091 101.791 68.4642 102.286 69.2065C109.52 27.6921 148.776 1.57187 189.6 0.075674ZM246.361 29.1763C232.091 12.3816 212.161 6.25331 189.856 7.07079C151.328 8.48296 115.583 33.0331 109.138 70.6977C110.369 71.2396 111.229 72.471 111.23 73.9028C111.23 98.5614 132.908 116.743 156.256 124.111C179.295 131.381 202.142 131.494 223.273 119.754C238.54 111.273 252.499 95.8475 257.421 79.2231C258.444 75.7691 259.081 72.2485 259.357 68.7163C258.836 68.2347 258.455 67.5916 258.304 66.8433C258.039 65.5356 258.541 64.2501 259.5 63.4536C259.214 51.0345 254.547 38.8099 246.361 29.1763ZM188.607 84.0825C190.493 83.6632 192.363 84.854 192.782 86.7407C193.201 88.6275 192.012 90.4972 190.125 90.9165C180.69 93.0132 172.569 96.2967 162.874 99.2544C161.025 99.8184 159.069 98.7761 158.505 96.9272C157.942 95.0787 158.983 93.1231 160.831 92.5591C169.762 89.8343 178.869 86.2465 188.607 84.0825ZM6.88584 75.9604L6.88974 75.9663L6.88681 75.9604L6.88486 75.9585L6.88584 75.9604ZM354.224 70.9604L354.221 70.9653L354.225 70.9604V70.9585L354.224 70.9604ZM141.167 45.0298C142.554 45.0174 143.421 45.7884 143.714 46.0854C144.274 46.6548 144.503 47.2916 144.525 47.3462C144.664 47.701 144.752 48.0712 144.8 48.2788C145.014 49.2136 145.284 50.9303 145.561 52.7534C146.149 56.6302 146.831 61.4244 147.362 63.7251C147.797 65.6082 146.622 67.4874 144.739 67.9224C142.856 68.357 140.976 67.1826 140.541 65.2993C139.931 62.656 139.191 57.4355 138.64 53.8032C138.516 52.9895 138.404 52.2677 138.305 51.6587C137.865 51.0738 137.604 50.3471 137.604 49.5591C137.604 49.2118 137.61 48.8686 137.633 48.5688C137.644 48.4256 137.665 48.2116 137.71 47.977C137.733 47.8597 137.773 47.6746 137.846 47.4595C137.904 47.2869 138.059 46.8572 138.406 46.4058C138.76 45.9473 139.665 45.0434 141.167 45.0298ZM202.638 36.1138C204.557 35.8846 206.299 37.2551 206.528 39.1743C207.269 45.373 207.265 51.4318 207.265 57.3911C207.265 59.3241 205.698 60.8911 203.765 60.8911C201.832 60.8909 200.265 59.324 200.265 57.3911C200.265 51.3678 200.26 45.7226 199.577 40.0044C199.348 38.0852 200.719 36.343 202.638 36.1138Z" fill="black"/>
</svg>
