<svg width="227" height="229" viewBox="0 0 227 229" fill="none" xmlns="http://www.w3.org/2000/svg">
<path d="M5.25486 135.565C6.02668 133.793 8.08913 132.982 9.8613 133.753C11.6332 134.525 12.4444 136.588 11.6728 138.36C3.22168 157.767 6.13308 183.066 24.1133 194.808C40.9121 205.779 59.7962 203.943 78.8642 198.698C77.2859 196.045 76.2621 193.096 75.8232 189.761C75.4721 187.093 75.5481 183.871 76.3974 180.85C77.2445 177.838 78.9729 174.673 82.1992 172.769C85.7898 170.65 89.4 170.291 92.749 171.42C95.9274 172.493 98.4978 174.779 100.51 177.238C102.974 180.249 104.944 183.949 106.419 187.32C107.797 186.538 109.286 186.039 110.635 185.709C112.857 185.166 115.139 184.978 116.949 184.956C120.005 184.917 123.719 185.141 127.294 186.035C130.837 186.92 134.567 188.546 137.27 191.554C139.898 194.479 141.228 197.742 140.689 201.261C140.184 204.564 138.127 207.368 135.711 209.742C133.662 211.755 131.306 212.947 128.907 213.655C129.822 214.639 130.667 215.798 131.2 217.097C131.993 219.03 132.141 221.491 130.536 223.713C128.996 225.846 126.461 226.884 124.568 227.42C122.533 227.997 120.401 228.222 118.813 228.222C114.871 228.222 110.576 227.5 106.847 225.013C105.238 223.941 104.804 221.768 105.876 220.16C106.948 218.551 109.121 218.117 110.729 219.189C112.893 220.632 115.65 221.222 118.813 221.222C119.837 221.222 121.32 221.065 122.661 220.685C123.838 220.352 124.458 219.972 124.723 219.75C124.542 219.312 124.048 218.611 123.141 217.79C122.272 217.003 121.229 216.29 120.267 215.779C119.189 215.207 118.629 215.108 118.654 215.109C116.724 215.007 115.241 213.36 115.343 211.43C115.421 209.953 116.404 208.738 117.727 208.294C118.291 207.905 118.975 207.677 119.712 207.677C124.622 207.677 128.27 207.237 130.805 204.748C132.81 202.778 133.603 201.294 133.77 200.203C133.904 199.327 133.727 198.085 132.062 196.232C130.652 194.662 128.422 193.532 125.597 192.826C122.803 192.127 119.737 191.922 117.037 191.956C115.586 191.974 113.86 192.127 112.297 192.509C110.663 192.909 109.606 193.461 109.078 193.989C108.986 194.081 108.89 194.165 108.791 194.245C108.746 195.668 107.829 196.979 106.398 197.456C104.565 198.066 102.583 197.075 101.972 195.242C100.658 191.301 98.2764 185.562 95.0918 181.67C93.5061 179.733 91.9508 178.539 90.5107 178.053C89.2409 177.625 87.7375 177.628 85.7568 178.797C84.6018 179.479 83.6862 180.787 83.1357 182.745C82.5875 184.694 82.5119 186.942 82.7627 188.848C83.1582 191.854 84.1852 194.361 85.8974 196.626C86.2654 196.512 86.634 196.399 87.0019 196.283C88.8451 195.701 90.8114 196.723 91.3935 198.566C91.9754 200.409 90.9525 202.375 89.1093 202.958C88.7108 203.083 88.3106 203.207 87.9101 203.332C87.8345 203.424 87.7535 203.514 87.667 203.601C86.7163 204.552 85.3552 204.84 84.1543 204.468C63.5519 210.533 40.7614 214.041 20.2851 200.668C-1.57591 186.392 -4.00637 156.832 5.25486 135.565ZM198.409 86.3491C199.371 84.6726 201.51 84.0928 203.186 85.0542C211.01 89.5397 215.191 94.3667 219.018 102.368C224.316 113.447 228.211 128.526 226.459 141.377C224.959 152.379 218.683 162.142 210.433 169.476C202.626 176.416 192.836 181.377 183.054 183.238C182.55 183.609 181.941 183.85 181.271 183.906C179.601 184.045 178.107 182.987 177.635 181.447C177.521 181.182 177.44 180.898 177.395 180.6C177.351 180.319 177.343 180.041 177.366 179.77C176.916 177.158 175.434 172.356 173.21 168.585C171.938 166.429 170.681 165.064 169.644 164.474C169.181 164.211 168.847 164.151 168.601 164.159C168.391 164.165 168.053 164.225 167.563 164.517L167.345 164.657C166.232 165.412 165.206 167.557 165.174 170.969C165.143 174.275 166.084 177.272 167.123 178.608C168.31 180.134 168.034 182.333 166.509 183.52C165.581 184.242 164.404 184.422 163.357 184.11C162.024 185.1 160.547 186.076 159.162 187.005C157.44 188.16 155.785 189.291 154.298 190.506C151.261 192.987 149.515 195.347 149.265 198.007C149.187 198.83 149.293 199.239 149.353 199.391C149.395 199.501 149.429 199.532 149.489 199.573C149.752 199.752 150.571 200.03 152.301 199.902C154.477 199.741 157.004 199.032 159.103 198.306C159.621 197.588 160.314 196.935 161.228 196.397L161.386 196.309C163.027 195.452 165.07 196.025 166.02 197.639C166.242 198.018 166.385 198.421 166.454 198.83C166.495 198.909 166.533 198.99 166.568 199.073C167.309 200.833 166.502 202.855 164.765 203.627C164.791 203.811 164.829 204.013 164.883 204.233C165.076 205.023 165.418 205.854 165.828 206.576C166.258 207.332 166.649 207.77 166.831 207.922C168.088 208.973 169.911 209.133 172.489 207.917C175.061 206.705 177.475 204.468 178.747 202.56C179.819 200.952 181.992 200.517 183.601 201.589C185.209 202.662 185.643 204.835 184.571 206.443C182.635 209.348 179.262 212.463 175.475 214.25C171.694 216.032 166.583 216.839 162.341 213.292C160.413 211.68 158.782 208.713 158.094 205.934C156.384 206.388 154.563 206.753 152.816 206.882C150.596 207.046 147.797 206.892 145.544 205.355C142.946 203.582 141.984 200.656 142.295 197.352C142.813 191.845 146.386 187.931 149.869 185.085C151.641 183.638 153.546 182.343 155.264 181.191C156.802 180.16 158.15 179.267 159.304 178.403C158.523 176.025 158.151 173.374 158.174 170.903C158.213 166.777 159.387 161.6 163.411 158.867L163.701 158.676C165.158 157.749 166.734 157.212 168.388 157.162C170.144 157.108 171.735 157.612 173.101 158.387C175.72 159.875 177.741 162.49 179.238 165.028C181.265 168.463 182.803 172.59 183.68 175.948C191.496 174.084 199.37 169.945 205.782 164.245C213.116 157.725 218.302 149.384 219.522 140.432C220.982 129.732 217.852 116.574 213.161 106.366L212.702 105.387C209.432 98.5491 206.186 94.8428 199.704 91.1265C198.027 90.1649 197.448 88.0259 198.409 86.3491ZM105.867 0.0756745C129.64 -0.795523 151.918 5.76125 167.963 24.6431C181.065 40.063 186.24 61.484 180.4 81.2095C174.864 99.9107 159.493 116.677 142.939 125.874C119.681 138.795 94.7372 138.461 70.416 130.787C47.6926 123.616 24.2741 105.995 20.9101 80.272C20.8872 80.2706 20.8638 80.2709 20.8408 80.269C18.9141 80.1148 17.4767 78.4272 17.6308 76.5005C21.2897 30.7696 62.7021 1.65766 105.867 0.0756745ZM162.629 29.1763C148.358 12.3816 128.429 6.25331 106.123 7.07079C67.5957 8.48292 31.8507 33.033 25.4052 70.6977C26.6369 71.2396 27.4969 72.471 27.497 73.9028C27.4971 98.5614 49.1755 116.743 72.5234 124.111C95.5626 131.381 118.409 131.494 139.54 119.754C154.807 111.273 168.767 95.8474 173.688 79.2231C178.816 61.9025 174.297 42.9078 162.629 29.1763ZM122.722 87.1753C123.141 85.2883 125.01 84.0978 126.897 84.5171C128.784 84.9365 129.974 86.8061 129.555 88.6929C128.869 91.7778 127.728 96.329 125.642 100.249C123.583 104.115 120.136 108.199 114.545 108.685C108.946 109.172 104.746 107.39 101.268 104.724C99.5121 103.379 97.8396 101.707 96.2685 100.041L94.7314 98.3872C94.0032 97.5985 93.3001 96.8367 92.624 96.1401C91.2778 94.7531 91.3104 92.5372 92.6972 91.1909C94.0843 89.8447 96.3002 89.8772 97.6465 91.2642C98.1339 91.7663 98.5953 92.2538 99.0371 92.7261L100.31 94.0981C102.136 96.0776 103.691 97.7627 105.525 99.1684C107.894 100.984 110.401 102.019 113.938 101.711C116.004 101.532 117.826 100.032 119.463 96.9585C121.071 93.9373 122.052 90.1891 122.722 87.1753ZM67.3281 51.4194C67.9829 49.6009 69.988 48.6573 71.8066 49.312C75.4623 50.628 79.0385 51.6213 82.8584 52.6821H82.8593L82.8613 52.6831C83.5208 52.8662 84.1876 53.0515 84.8633 53.2407L84.9863 53.2749C86.1845 53.61 88.2749 54.1944 90.2363 55.0366C91.2546 55.4739 92.3558 56.0288 93.334 56.73C94.2766 57.4056 95.3756 58.4088 96.0097 59.8354C96.7735 61.5538 96.4708 63.2341 95.8379 64.5034C95.2542 65.6738 94.3454 66.6223 93.498 67.355C91.7847 68.8362 89.4265 70.1845 87.1806 71.311C84.881 72.4645 82.4588 73.5026 80.4775 74.3169C79.5235 74.709 78.7211 75.0307 78.0722 75.2905C77.2872 75.6048 76.7266 75.8285 76.3955 75.979C74.6358 76.7788 72.5607 76.0013 71.7607 74.2417C70.9608 72.482 71.7393 70.4068 73.499 69.6069C73.9494 69.4022 74.7773 69.07 75.7578 68.6763C76.3996 68.4185 77.1068 68.1339 77.8164 67.8423C79.7375 67.0527 81.9732 66.0919 84.042 65.0542C86.1004 64.0217 87.7819 63.0168 88.8252 62.1411C88.459 61.9241 88.0063 61.6976 87.4746 61.4692C85.9472 60.8133 84.2331 60.3335 82.9951 59.9868L82.9756 59.9809C82.3275 59.7995 81.6779 59.6195 81.0273 59.439C77.2149 58.3809 73.3579 57.31 69.4355 55.8979C67.6169 55.2431 66.6734 53.2381 67.3281 51.4194ZM136.421 46.1099C137.949 45.0643 140.045 45.3903 141.18 46.8804C142.35 48.4184 142.053 50.6138 140.515 51.7847C140.259 51.979 139.654 52.3909 138.895 52.9087V52.9097H138.894C138.297 53.3162 137.605 53.788 136.91 54.271C135.186 55.4698 133.103 56.969 131.18 58.522C129.247 60.0824 127.661 61.553 126.733 62.73C126.987 62.8261 127.275 62.919 127.596 63.0063C128.771 63.3264 130.091 63.4925 131.144 63.5767C136.726 64.0232 142.159 64.2456 147.768 64.2456C149.7 64.2456 151.267 65.8128 151.268 67.7456C151.268 69.6786 149.701 71.2456 147.768 71.2456C141.968 71.2456 136.348 71.0152 130.585 70.5542C129.337 70.4543 127.531 70.2433 125.757 69.7602C124.116 69.3135 121.854 68.4689 120.342 66.6821C119.017 65.1165 118.974 63.2681 119.356 61.8569C119.705 60.5693 120.44 59.4244 121.145 58.5142C122.582 56.6562 124.718 54.7428 126.782 53.0757C128.893 51.371 131.131 49.7641 132.913 48.5249C133.774 47.9262 134.538 47.4067 135.131 47.0034L135.132 47.0024L135.197 46.9575C135.501 46.7507 135.75 46.582 135.946 46.4468C136.044 46.3796 136.121 46.3254 136.182 46.2827C136.211 46.2617 136.234 46.2453 136.251 46.2329C136.262 46.2247 136.269 46.2187 136.272 46.2163L136.274 46.2153L136.421 46.1099Z" fill="black"/>
</svg>
