<svg width="221" height="230" viewBox="0 0 221 230" fill="none" xmlns="http://www.w3.org/2000/svg">
<path d="M116.209 88.3243C141.219 85.5173 169.022 89.6062 190.225 104.979L190.994 105.543C206.844 117.331 220.108 136.478 220.021 157.485L220.006 158.504C219.354 184.921 197.642 203.402 177.442 214.007L176.482 214.506C164.542 220.643 151.248 224.548 138.137 226.651L136.87 226.849C123.821 228.829 110.409 230.232 96.8482 228.3L95.5348 228.103C75.7566 224.969 54.848 216.471 44.0201 197.382L43.5123 196.465C33.5535 178.048 32.5879 154.073 42.2545 135.2L42.6148 134.509C45.2795 129.476 48.5881 125.035 52.4156 121.179C52.5682 120.817 52.7846 120.474 53.066 120.168C60.9395 111.61 68.8874 103.744 80.0641 98.4043L81.1041 97.9151C91.8742 92.9177 103.328 89.8821 115.019 88.4629L116.209 88.3243ZM186.116 110.646C166.748 96.604 140.866 92.6013 116.998 95.2793L115.863 95.4122C104.813 96.7535 94.0804 99.6107 84.0504 104.265L83.0816 104.721C82.3744 105.059 81.6814 105.41 81.0006 105.771C81.8733 106.165 82.5821 106.914 82.8961 107.898C83.4835 109.739 82.4668 111.708 80.6256 112.296C66.7893 116.712 55.4561 125.211 48.7984 137.789L48.485 138.392C39.9402 155.074 40.7325 176.607 49.6695 193.135L50.1051 193.921C59.3933 210.294 77.7072 218.191 96.6305 221.189L97.8395 221.37C110.336 223.15 122.911 221.886 135.819 219.928L137.032 219.739C149.561 217.729 162.122 214.016 173.282 208.28L174.217 207.794C193.841 197.488 212.456 180.736 213.009 158.331L213.021 157.455C213.091 139.373 201.536 122.109 186.83 111.17L186.116 110.646ZM113.177 183.246C117.663 182.722 122.393 183.8 126.149 187.332L126.509 187.682L126.633 187.813C127.874 189.186 127.833 191.307 126.509 192.631C125.185 193.955 123.064 193.997 121.69 192.756L121.559 192.631L121.366 192.443C119.349 190.542 116.785 189.872 113.99 190.198C111.034 190.544 107.942 192.014 105.517 194.196C104.08 195.489 101.867 195.373 100.574 193.937C99.2809 192.5 99.397 190.286 100.834 188.993C104.208 185.956 108.618 183.779 113.177 183.246ZM94.9723 149.266C96.8982 149.105 98.5907 150.537 98.7516 152.463C98.9121 154.389 97.4803 156.081 95.5543 156.242C89.6673 156.733 83.9169 156.974 78.0006 156.974C76.0677 156.974 74.5008 155.406 74.5006 153.474C74.5008 151.541 76.0677 149.974 78.0006 149.974C83.7216 149.974 89.2776 149.74 94.9723 149.266ZM147.516 143.509C149.362 143.373 151.011 144.708 151.244 146.565C151.483 148.483 150.123 150.233 148.205 150.473L147.776 150.531C145.627 150.851 143.397 151.548 140.794 152.323C138.171 153.104 135.137 153.972 132.087 154.094C130.155 154.171 128.527 152.668 128.45 150.736C128.373 148.805 129.876 147.177 131.807 147.1C133.863 147.017 136.103 146.416 138.796 145.614C141.335 144.859 144.343 143.902 147.337 143.527L147.516 143.509ZM93.4107 0.101612C95.2879 -0.358996 97.1834 0.789849 97.6441 2.66704C98.1047 4.54419 96.9559 6.4397 95.0787 6.90044C73.9089 12.0965 52.7078 17.746 31.6773 23.71C30.5703 24.024 29.4689 24.3299 28.3746 24.6338C24.0673 25.83 19.8691 26.9957 15.8678 28.504C30.1542 27.8311 44.4503 25.3235 58.9684 22.625C60.1808 22.3997 61.3951 22.1734 62.6109 21.9463C79.553 18.7826 96.8219 15.5581 114.229 15.1602C115.862 15.1229 117.19 15.1341 118.196 15.2061C118.691 15.2416 119.203 15.2973 119.674 15.3975L119.686 15.4004C119.98 15.4627 120.957 15.6704 121.778 16.4092C122.307 16.8855 122.955 17.7597 122.998 19.0108C123.037 20.1798 122.52 21.0179 122.193 21.4317C121.614 22.1645 120.863 22.5509 120.591 22.6895C119.85 23.067 118.866 23.4017 117.874 23.7002C113.791 24.9277 105.773 26.6295 96.4049 28.4786C88.6581 30.0075 79.9105 31.6527 71.4186 33.2491C59.1115 35.5626 47.3417 37.7751 39.9352 39.3887C39.1097 39.5686 38.2785 39.7415 37.443 39.9151C35.3489 40.3501 33.226 40.7902 31.0924 41.3653C31.2536 41.3596 31.4163 41.3536 31.5797 41.3477L31.7711 41.3409C32.8481 41.3024 33.9784 41.2637 35.0963 41.2637H58.5719C64.0284 41.2637 69.4752 40.9218 75.0211 40.5362C75.6428 40.4929 76.2665 40.4492 76.8912 40.4053C81.8046 40.06 86.8066 39.7084 91.8287 39.5811C92.7832 39.5569 94.6676 39.8086 96.0182 40.0606C96.7131 40.1902 97.5452 40.3697 98.2076 40.6036C98.3865 40.6667 98.6136 40.7544 98.8522 40.8731C99.048 40.9705 99.4686 41.1924 99.8795 41.5889C100.241 41.9381 101.215 43.0459 100.954 44.7393C100.708 46.3254 99.5656 47.0866 99.2193 47.295C94.1004 50.3752 88.8377 52.3065 83.6119 53.8438C84.3037 53.8572 84.9973 53.875 85.691 53.8975C86.3923 53.9203 87.3005 54.097 88.0553 54.2842C88.8608 54.484 89.858 54.7867 90.7408 55.1983C91.1727 55.3997 91.723 55.6941 92.2311 56.1094C92.6606 56.4606 93.5742 57.3114 93.8131 58.7276C94.1034 60.4495 93.231 61.7418 92.4693 62.4268C91.7876 63.0398 90.9818 63.4003 90.3463 63.6319C87.4209 64.6977 84.4477 65.4162 81.6852 66.0811L81.5865 66.1055C78.8013 66.7758 76.228 67.3952 73.7438 68.2745C72.1162 68.8505 69.1631 69.4642 66.9889 69.9161C66.7274 69.9704 66.4771 70.022 66.2418 70.0713C65.9058 70.1418 65.603 70.2058 65.3346 70.2637C64.7415 70.7256 63.9961 71.001 63.1861 71.001C62.945 71.001 62.6556 70.9956 62.3736 70.9668C62.24 70.9532 62.0051 70.9247 61.735 70.8555C61.7316 70.8547 61.7266 70.8529 61.7213 70.8516C61.5793 70.8165 60.757 70.6132 60.0484 69.8946C59.5768 69.4162 59.0602 68.602 59.0348 67.501C59.011 66.4655 59.4374 65.7119 59.7281 65.3194C60.2138 64.6637 60.8095 64.347 60.9352 64.2803C60.9388 64.2784 60.9421 64.2769 60.9449 64.2754C61.3166 64.0766 61.6836 63.9611 61.8287 63.9161C62.5152 63.7032 63.7003 63.4515 64.8063 63.2198C65.0278 63.1734 65.2517 63.127 65.4762 63.0801C67.8233 62.5898 70.2666 62.0787 71.4078 61.6749C72.1555 61.4102 72.907 61.1678 73.6568 60.9415C69.5745 61.0926 65.4845 61.3685 61.3609 61.7247C59.714 61.8669 56.6443 62.3321 53.777 62.7667C53.1956 62.8547 52.6221 62.9418 52.0709 63.0245C50.5336 63.2549 49.0828 63.4657 48.2789 63.5342C48.1032 63.5492 47.7764 63.5741 47.4469 63.5586C47.4463 63.5586 47.4449 63.5587 47.443 63.5586C47.3841 63.5572 46.7546 63.5418 46.0846 63.2383C45.7874 63.1037 44.5099 62.4808 44.1158 60.8692C43.7004 59.1695 44.642 57.9915 44.9107 57.6905C45.4501 57.0863 46.0931 56.8141 46.1197 56.8028C46.3019 56.7182 46.4723 56.6556 46.5865 56.6153C46.8259 56.5308 47.1039 56.4473 47.3873 56.3672C56.5404 53.7803 65.7255 51.3344 74.9088 48.9551C77.2686 48.3438 79.5541 47.7419 81.7779 47.085C80.3189 47.1817 78.8543 47.2843 77.3814 47.3877C76.7582 47.4315 76.1329 47.476 75.5064 47.5196C69.957 47.9055 64.2953 48.2637 58.5719 48.2637H35.0963C34.1204 48.2637 33.108 48.2981 32.0211 48.337C31.9506 48.3395 31.8794 48.3422 31.8082 48.3448C30.8022 48.3809 29.7331 48.419 28.6617 48.4288C26.3746 48.4495 23.8645 48.3454 21.3893 47.7442C20.8615 47.616 20.2571 47.4196 19.6695 47.1329C19.1348 46.8719 18.3263 46.3985 17.6881 45.586C16.9406 44.6341 16.428 43.1648 16.982 41.545C17.4386 40.2104 18.4358 39.3678 19.1744 38.8692C22.1635 36.8516 25.6946 35.5854 29.0191 34.6749C29.5063 34.5414 29.9976 34.4138 30.4889 34.2911C21.9666 35.2924 13.3815 35.8545 4.74961 35.6309C4.10645 35.6142 3.1138 35.5384 2.18613 35.0694C1.6695 34.8081 0.998365 34.3359 0.522072 33.5186C0.018291 32.654 -0.0719078 31.7388 0.0464861 30.9776C0.242895 29.7152 1.00322 28.8595 1.29258 28.5459C1.6912 28.114 2.14402 27.7394 2.53281 27.4444C4.04106 26.3 6.14673 25.1973 6.51133 25.0069C12.9725 21.6328 20.0844 19.6636 26.6119 17.8565C27.6814 17.5604 28.7355 17.2685 29.7682 16.9756C50.8697 10.9915 72.1514 5.31965 93.4107 0.101612Z" fill="black"/>
</svg>
