<svg width="314" height="246" viewBox="0 0 314 246" fill="none" xmlns="http://www.w3.org/2000/svg">
<path d="M57.2995 1.85558C81.5126 -2.82892 108.365 1.54427 129.95 12.8507C149.213 22.9408 164.69 41.2242 167.259 63.7784C169.302 81.7048 162.611 97.2734 151.75 109.688C159.775 108.848 167.844 107.21 175.994 105.296C186.16 102.909 196.692 100.033 206.954 97.9698C220.866 95.1728 234.88 92.1541 248.901 89.4093C248.904 88.5034 248.978 87.503 249.207 86.3605C249.668 84.0538 250.648 81.2055 251.959 78.5802C253.236 76.022 255.035 73.254 257.333 71.5001L257.648 71.2667C264.3 66.4495 273.102 68.1109 278.295 73.8224L278.689 74.2755C281.472 77.6221 282.006 81.5615 281.811 85.0558C283.641 84.71 285.271 84.5148 285.702 84.4532C293.017 83.4082 300.336 83.4747 307.708 86.587C310.841 87.9101 313.463 90.1573 313.575 93.6359C313.671 96.6289 311.764 99.0839 310.175 100.664C308.436 102.394 306.231 103.909 304.204 105.057C303.65 105.37 303.087 105.667 302.529 105.942C303.595 106.293 304.652 106.722 305.63 107.242C307.308 108.136 309.191 109.519 310.237 111.632C311.398 113.976 311.226 116.586 309.882 119.082C307.408 123.678 303.166 125.51 299.063 125.937C295.077 126.351 290.937 125.5 287.743 124.518C287.044 124.303 286.461 123.888 286.037 123.357C285.829 124.217 285.301 124.967 284.569 125.452C284.519 125.603 284.477 125.727 284.453 125.803C283.983 127.263 283.798 128.611 283.373 130.598C282.983 132.418 282.417 134.564 281.153 136.632C278.354 141.212 273.657 142.796 269.34 142.374C265.152 141.965 260.992 139.67 258.59 136.067C257.518 134.458 257.952 132.285 259.56 131.213C261.168 130.141 263.341 130.576 264.414 132.184C265.558 133.901 267.751 135.186 270.019 135.407C272.157 135.616 274.02 134.881 275.18 132.982C275.816 131.942 276.186 130.732 276.528 129.133C276.835 127.701 277.177 125.564 277.789 123.661C277.836 123.514 278.22 122.285 278.654 121.33C278.767 121.081 278.923 120.763 279.117 120.451C279.224 120.279 279.669 119.546 280.504 119.039C281.003 118.737 281.945 118.337 283.127 118.58C284.319 118.826 285.036 119.578 285.386 120.083C285.4 120.103 285.412 120.125 285.425 120.145L285.426 120.143C285.995 118.295 287.954 117.259 289.801 117.827C292.589 118.685 295.693 119.249 298.339 118.974C300.868 118.711 302.651 117.747 303.719 115.763C304.154 114.956 303.972 114.748 303.964 114.737C303.847 114.502 303.428 114 302.342 113.422C300.166 112.264 297.053 111.719 295.59 111.719C293.657 111.719 292.09 110.152 292.09 108.219C292.09 106.764 292.977 105.515 294.241 104.987C294.24 104.984 294.24 104.981 294.239 104.978C293.77 103.102 294.911 101.201 296.786 100.733C297.55 100.542 299.036 99.9382 300.756 98.965C302.446 98.0081 304.086 96.8486 305.24 95.7013C306.183 94.7633 306.459 94.1763 306.542 93.9542C306.375 93.7761 305.958 93.4472 304.985 93.0362C299.218 90.6014 293.315 90.4367 286.691 91.3829C285.794 91.511 283.248 91.8076 281.154 92.3683C280.962 92.4196 280.783 92.4717 280.618 92.5226C280.477 93.2513 280.105 93.9416 279.507 94.4728C278.063 95.7568 275.85 95.6262 274.566 94.1818C273.837 93.3609 273.1 92.0204 273.391 90.3448C273.545 89.4603 273.942 88.7689 274.369 88.2511C274.377 88.1091 274.394 87.9659 274.42 87.8224C275.168 83.705 275.051 80.6617 273.115 78.5314C269.953 75.053 265.003 74.4533 261.58 77.0655C260.538 77.8607 259.321 79.5057 258.221 81.7071C257.156 83.8418 256.397 86.1028 256.071 87.7335C256.011 88.0352 255.97 88.3177 255.943 88.5909C257.033 89.0124 257.888 89.969 258.123 91.2013C258.446 92.9002 257.482 94.545 255.916 95.132C255.418 96.458 254.138 97.4025 252.638 97.4025C251.638 97.4022 250.736 96.981 250.098 96.3077C236.171 99.0356 222.351 102.014 208.334 104.832C198.188 106.872 188.131 109.636 177.594 112.11C167.182 114.556 156.525 116.657 145.77 117.169C145.326 117.19 144.897 117.126 144.499 116.993C141.279 119.869 137.843 122.522 134.267 124.936C117.288 136.396 95.6974 142.691 74.8649 142.23C79.11 144.45 83.2884 146.681 87.3952 148.829C113.256 162.356 139.687 174.75 166.138 187.338C167.044 186.407 168.085 185.375 169.209 184.308C171.765 181.88 174.857 179.16 177.911 176.895C180.842 174.721 184.169 172.633 187.12 171.944C188.378 171.651 189.67 171.428 190.884 171.429C192.085 171.429 193.577 171.646 194.891 172.599C196.294 173.615 196.963 175.077 197.212 176.494C197.446 177.831 197.344 179.286 197.102 180.739C196.332 185.36 195.346 190.117 193.997 194.748C196.114 195.028 198.484 195.66 200.748 196.546C203.549 197.642 206.489 199.244 208.717 201.357C210.936 203.46 212.852 206.495 212.383 210.244C211.932 213.857 210.281 216.608 207.65 218.313C205.173 219.918 202.234 220.331 199.591 220.267C198.263 220.234 196.91 220.078 195.58 219.837C196.367 220.942 197.082 222.131 197.554 223.384C198.1 224.832 198.368 226.438 198.132 228.185C197.898 229.911 197.201 231.569 196.125 233.183C192.399 238.772 186.199 240.317 180.669 239.528C176.79 238.976 172.91 237.252 169.884 234.641C169.808 234.683 169.73 234.724 169.65 234.761C169.642 234.775 169.633 234.79 169.625 234.806C169.471 235.098 169.34 235.396 169.128 235.859C168.985 236.169 168.747 236.691 168.438 237.182L168.301 237.39C167.428 238.66 166.112 240.178 164.637 241.486C163.24 242.727 161.302 244.138 159.176 244.655C153.919 245.934 149.392 244.507 146.286 241.236C143.329 238.122 141.974 233.685 141.974 229.306C141.974 227.373 143.541 225.806 145.474 225.806C147.407 225.806 148.974 227.373 148.974 229.306C148.974 232.38 149.94 234.92 151.362 236.417C152.635 237.757 154.547 238.577 157.522 237.854C157.958 237.747 158.849 237.264 159.991 236.25C161.056 235.305 161.992 234.211 162.533 233.424L162.567 233.356C162.603 233.285 162.666 233.156 162.764 232.941C162.913 232.617 163.161 232.057 163.431 231.543C163.701 231.032 164.113 230.326 164.713 229.695C165.06 229.33 165.53 228.928 166.128 228.615C166.262 227.662 166.788 226.767 167.652 226.191C169.26 225.119 171.433 225.553 172.506 227.161C174.342 229.916 177.916 232.065 181.656 232.598C185.317 233.119 188.47 232.046 190.3 229.3C190.924 228.365 191.133 227.699 191.194 227.246C191.252 226.814 191.204 226.382 191.005 225.853C190.517 224.558 189.401 223.212 187.51 220.943C187.626 221.083 187.5 220.91 186.725 220.495C186.074 220.147 185.304 219.801 184.522 219.453C183.915 219.183 182.932 218.76 182.335 218.383C182.19 218.292 181.785 218.032 181.411 217.609C181.225 217.398 180.845 216.927 180.637 216.212C180.39 215.362 180.435 214.293 181.04 213.329C181.555 212.509 182.254 212.126 182.599 211.969C182.976 211.797 183.309 211.722 183.502 211.687C183.697 211.65 183.884 211.63 184.049 211.619C184.964 210.017 186.985 209.391 188.655 210.227C191.32 211.559 195.912 213.174 199.762 213.269C201.674 213.315 203.012 212.976 203.842 212.438C204.519 211.999 205.207 211.215 205.437 209.376C205.521 208.702 205.265 207.73 203.901 206.437C202.546 205.152 200.49 203.963 198.197 203.066C195.909 202.171 193.684 201.681 192.151 201.6C191.912 201.587 191.706 201.587 191.533 201.593C190.795 202.481 189.636 202.988 188.405 202.834C186.487 202.594 185.126 200.845 185.366 198.927L185.399 198.705C185.531 197.936 185.831 197.308 186.214 196.798C186.207 196.412 186.264 196.017 186.393 195.63C188.098 190.514 189.289 185.041 190.198 179.589C190.275 179.124 190.314 178.754 190.332 178.467C189.927 178.512 189.395 178.601 188.711 178.761C187.282 179.094 184.956 180.384 182.081 182.517C179.329 184.558 176.461 187.074 174.03 189.383C172.603 190.738 171.363 191.988 170.411 192.994C170.274 193.744 169.892 194.455 169.274 194.996C168.826 195.389 168.423 195.725 168.083 195.978C167.921 196.098 167.701 196.254 167.456 196.395C167.336 196.463 167.135 196.572 166.881 196.67C166.711 196.735 166.104 196.965 165.307 196.906C164.856 196.873 164.205 196.735 163.559 196.289C162.877 195.817 162.446 195.168 162.227 194.528C162.048 194.005 162.021 193.523 162.047 193.144C136.008 180.757 109.799 168.448 84.1501 155.031C73.4731 149.446 62.7772 143.579 51.8747 138.727C47.436 137.407 43.1353 135.705 39.0397 133.599C37.4684 133.051 35.8914 132.534 34.3083 132.051C33.0231 131.659 32.128 130.593 31.8913 129.359C22.2307 122.798 14.1368 113.592 8.69792 101.413C1.26063 84.7601 -0.0429535 66.5688 4.79264 50.4269C3.96272 50.7567 3.00744 50.7723 2.12175 50.3927C0.345145 49.6313 -0.477392 47.5736 0.283856 45.797C11.1486 20.4462 33.0089 6.55514 57.2995 1.85558ZM126.702 19.0519C106.456 8.44675 81.2116 4.35946 58.6286 8.72863C53.3078 9.75808 48.1474 11.2529 43.2399 13.2364C43.9156 14.9319 43.1709 16.8841 41.5007 17.6847C10.6902 32.448 1.35592 67.8073 15.0895 98.5587C21.014 111.824 30.4567 121.202 41.8171 127.157C46.0263 128.642 50.1904 130.33 54.3044 132.15C58.1421 133.263 62.1078 134.071 66.1559 134.583C88.0707 137.356 112.124 131.437 130.351 119.134C149.385 106.286 162.89 87.2622 160.305 64.5704C158.056 44.8264 144.403 28.3242 126.702 19.0519ZM106.245 83.2247C109.999 82.8076 114.735 82.3825 119.259 83.0616C123.846 83.7502 128.585 85.6332 131.862 90.1232L132.032 90.3614C133.744 92.8409 134.14 95.5745 133.045 98.1446C132.053 100.47 130.058 102.118 128.265 103.24C124.623 105.521 119.867 106.83 117.474 107.215C111.9 108.111 105.077 109.318 98.5475 108.04C97.0112 107.74 94.1838 107.337 91.7262 106.532C89.2814 105.732 86.16 104.233 84.6003 101.026C83.7889 99.3586 83.4611 97.5855 83.7917 95.8048C84.1172 94.0512 85.0188 92.626 86.0817 91.5128C88.1079 89.3911 91.1297 87.9768 93.8962 86.9796C96.7644 85.9458 99.8705 85.1867 102.456 84.6114C103.058 84.4773 103.619 84.36 104.135 84.2491C104.68 83.6947 105.412 83.3172 106.245 83.2247ZM118.22 89.9835C115.808 89.6214 113.212 89.6525 110.617 89.8409C110.447 89.9243 110.269 89.9963 110.083 90.0528C108.784 90.4464 106.302 90.9269 103.976 91.4445C101.462 92.0039 98.7076 92.6861 96.2702 93.5646C93.7314 94.4797 92.0014 95.4493 91.1442 96.3468C90.766 96.7429 90.6922 96.9872 90.6745 97.0821C90.662 97.1496 90.6227 97.4049 90.8952 97.965C91.1794 98.5487 91.9809 99.2504 93.904 99.88C95.8149 100.506 97.8028 100.762 99.8923 101.171C104.958 102.162 110.457 101.253 116.364 100.304C118.153 100.016 121.938 98.9434 124.549 97.3077C125.883 96.4725 126.444 95.7776 126.605 95.3995C126.627 95.3491 126.835 95.1104 126.207 94.2491C124.405 91.78 121.691 90.5046 118.22 89.9835ZM79.193 47.2609C80.1187 45.5639 82.2441 44.9388 83.9411 45.8644C89.464 48.877 91.5886 54.6335 93.3561 58.421C94.1733 60.1725 93.4161 62.2559 91.6647 63.0734C89.9132 63.8907 87.8299 63.1324 87.0124 61.381C84.824 56.6917 83.6233 53.6638 80.5895 52.0089C78.8926 51.0833 78.2676 48.9578 79.193 47.2609ZM120.8 43.2335C122.268 41.9757 124.477 42.1458 125.735 43.6134C127.843 46.0731 128.639 48.751 128.92 51.2814C129.175 53.5849 129.014 56.2226 129.014 58.0734C129.014 60.0062 127.447 61.5734 125.514 61.5734C123.582 61.5732 122.014 60.0061 122.014 58.0734C122.014 55.5248 122.161 53.8513 121.962 52.0538C121.787 50.4828 121.364 49.2687 120.421 48.1681C119.163 46.7005 119.333 44.4915 120.8 43.2335Z" fill="black"/>
</svg>
