<svg width="346" height="260" viewBox="0 0 346 260" fill="none" xmlns="http://www.w3.org/2000/svg">
<path d="M270.334 201.402C274.892 196.207 282.33 191.684 290.574 194.02C295.05 195.287 297.689 198.155 299.252 201.479C300.655 204.464 301.231 207.926 301.703 210.76L301.758 211.089C301.937 212.163 301.931 213.253 301.904 214.129C301.892 214.534 301.877 214.877 301.863 215.194V215.196C301.842 215.677 301.823 216.098 301.821 216.581C301.818 217.45 301.895 217.916 301.959 218.154C308.104 221.233 313.801 225.85 317.195 232.425C319.105 236.124 319.317 239.765 318.134 243.089C316.998 246.279 314.701 248.844 312.182 250.833C307.178 254.784 300.341 257.225 295.661 258.112C281.907 260.721 265.221 258.943 253.747 249.131C250.248 246.139 248.444 242.615 248.328 238.818C248.216 235.158 249.691 231.779 251.647 228.958C254.709 224.54 259.447 220.761 263.715 218.265C264.115 212.15 265.537 206.871 270.334 201.402ZM288.666 200.755C284.143 199.474 279.299 201.797 275.596 206.019C272.503 209.544 271.285 212.822 270.826 217.199C271.145 217.5 271.413 217.865 271.607 218.288C272.319 219.844 271.795 221.651 270.445 222.604C270.014 224.081 268.637 225.149 267.024 225.12C266.714 225.115 266.414 225.069 266.13 224.988C262.884 227.048 259.517 229.89 257.4 232.945C255.936 235.057 255.275 236.972 255.325 238.604C255.371 240.101 256.026 241.869 258.297 243.812C267.593 251.761 281.831 253.611 294.357 251.235C298.267 250.494 303.96 248.406 307.843 245.34C309.767 243.82 311.002 242.254 311.54 240.742C312.031 239.364 312.057 237.731 310.976 235.637C308.211 230.282 303.217 226.35 297.347 223.711C295.974 223.093 295.193 221.7 295.289 220.281C294.858 218.891 294.818 217.527 294.821 216.555C294.822 216.256 294.831 215.933 294.842 215.61L294.878 214.671V214.67C294.89 214.387 294.901 214.129 294.907 213.918C294.931 213.123 294.914 212.604 294.854 212.242C294.327 209.091 293.883 206.512 292.917 204.457C292.056 202.626 290.857 201.376 288.666 200.755ZM174.76 33.8838C199.108 29.8529 225.931 34.7999 245.94 46.5137C267.231 58.9782 277.705 80.3766 280.688 103.767C281.856 112.925 282.04 122.326 279.369 131.685C275.913 143.797 270.22 151.41 261.393 159.513C259.969 160.819 257.754 160.725 256.447 159.301C255.141 157.877 255.235 155.663 256.659 154.355C264.806 146.878 269.625 140.322 272.638 129.764C274.943 121.685 274.853 113.345 273.744 104.652C270.949 82.7371 261.3 63.6173 242.403 52.5547C223.851 41.6934 198.691 37.0176 175.903 40.79C153.176 44.5526 133.279 56.6008 124.27 78.7393C116.515 97.7966 116.284 118.406 125.371 136.596C133.695 153.258 149.877 164.182 167.806 169.712C200.653 179.843 238.517 169.508 258.324 140.688C259.419 139.095 261.598 138.691 263.191 139.786C264.784 140.881 265.189 143.06 264.094 144.653C242.313 176.345 201.089 187.303 165.742 176.4C146.599 170.496 128.537 158.597 119.108 139.725C109 119.491 109.38 96.7557 117.785 76.1016C127.956 51.107 150.351 37.9248 174.76 33.8838ZM50.3204 111.156C51.865 110.934 53.7042 110.885 55.461 111.445C57.3522 112.049 59.0632 113.347 60.0118 115.516C61.4541 118.812 61.1915 122.832 60.6417 126.098C60.068 129.506 59.0365 132.854 58.3136 135.15L58.2306 135.413C57.1312 138.909 55.4934 144.12 52.3497 147.657C51.0656 149.102 48.853 149.232 47.4083 147.948C45.9636 146.664 45.8332 144.452 47.1173 143.007C49.1514 140.719 50.4139 136.933 51.6368 133.049C52.3605 130.75 53.2536 127.815 53.7384 124.936C54.247 121.914 54.1758 119.64 53.5987 118.321L53.5929 118.306C53.5525 118.212 53.5373 118.178 53.3331 118.113C52.984 118.002 52.3267 117.94 51.3155 118.085C49.2978 118.375 47.0159 119.316 45.7286 119.983C40.5048 122.692 37.3376 125.531 34.8917 130.423C34.0272 132.152 31.9253 132.853 30.1964 131.988C29.42 131.6 28.8513 130.962 28.5382 130.221C27.519 130.938 26.1472 131.087 24.9542 130.49C21.2101 128.618 18.8768 129.009 16.9727 130.144C14.6821 131.508 12.5159 134.247 10.0099 138.215C4.11118 147.554 7.22598 158.268 16.8438 164.434C22.4349 168.018 29.9326 170.52 37.631 171.293C45.3439 172.068 52.9173 171.075 58.7804 168.055C59.7219 167.57 60.0885 166.961 60.2335 166.14C60.4107 165.135 60.245 163.685 59.5968 161.899C58.2772 158.264 55.5317 154.748 53.6788 153.414C52.1101 152.285 51.7544 150.097 52.8839 148.528C54.0134 146.96 56.2001 146.604 57.7686 147.733C60.9349 150.013 64.4536 154.766 66.1759 159.511C67.0485 161.915 67.598 164.683 67.127 167.354C66.6237 170.209 64.9784 172.736 61.9864 174.277C54.5859 178.09 45.5594 179.124 36.9317 178.258C28.2897 177.39 19.7051 174.583 13.0655 170.327C0.741183 162.427 -4.18452 147.579 4.09091 134.477C6.59515 130.512 9.52021 126.436 13.3897 124.13C17.6459 121.594 22.5423 121.458 28.0851 124.229C28.7164 124.545 29.2111 125.026 29.5421 125.594C32.6918 120.112 36.8443 116.705 42.506 113.77C44.1588 112.912 47.2266 111.601 50.3204 111.156ZM141.862 125.156C142.331 123.281 144.232 122.141 146.108 122.609C155.15 124.87 163.581 128.517 171.791 131.84C173.582 132.565 174.447 134.606 173.722 136.397C172.996 138.189 170.956 139.053 169.164 138.328C160.722 134.911 152.854 131.512 144.409 129.4C142.534 128.932 141.394 127.031 141.862 125.156ZM196.149 92.6104C197.877 91.7459 199.98 92.4471 200.845 94.1758C201.709 95.9047 201.008 98.0076 199.279 98.8721C197.344 99.8398 195.796 101.447 194.344 103.615C192.827 105.88 191.692 108.29 190.194 111.036C189.269 112.733 187.142 113.358 185.445 112.433C183.749 111.507 183.123 109.38 184.049 107.684C185.298 105.393 186.777 102.335 188.527 99.7207C190.342 97.0106 192.717 94.3263 196.149 92.6104ZM139.805 81.1689C141.724 80.9432 143.463 82.3159 143.69 84.2354C143.854 85.6297 143.174 86.9279 142.054 87.6211C141.877 88.4669 141.814 89.803 141.87 91.4775C141.983 94.8215 142.513 98.3603 142.684 99.8945C142.897 101.815 141.513 103.545 139.592 103.759C137.671 103.972 135.94 102.588 135.727 100.667C135.597 99.503 134.999 95.4158 134.874 91.7129C134.812 89.8783 134.851 87.8431 135.213 86.1416C135.392 85.3019 135.702 84.2783 136.314 83.3662C136.976 82.3797 138.118 81.3675 139.805 81.1689ZM180.566 80.6406C188.862 80.6406 196.658 81.2279 204.893 82.7139C206.795 83.0572 208.059 84.8773 207.716 86.7793C207.373 88.6812 205.552 89.9454 203.65 89.6025C195.885 88.2012 188.51 87.6406 180.566 87.6406C178.633 87.6406 177.066 86.0735 177.066 84.1406C177.066 82.2076 178.633 80.6406 180.566 80.6406ZM139.824 70.5986C140.897 68.9904 143.07 68.5557 144.678 69.6279C148.819 72.3886 152.081 74.9885 155.951 77.001C157.666 77.8929 158.334 80.0058 157.442 81.7207C156.551 83.4352 154.438 84.1022 152.723 83.2109C148.414 80.9703 144.321 77.8026 140.795 75.4521C139.187 74.38 138.752 72.207 139.824 70.5986ZM305.428 3.31348C307.35 3.11117 309.072 4.50538 309.275 6.42773C309.477 8.35008 308.083 10.0721 306.16 10.2744C298.761 11.0533 291.358 12.2906 284.112 13.9844C283.969 14.0179 283.807 14.0501 283.634 14.0811L283.76 16.2627L283.788 16.7842L284.366 16.6533C289.359 15.5243 294.887 14.2745 300.304 14.2744C302.237 14.2744 303.804 15.8414 303.804 17.7744C303.804 19.7072 302.237 21.2744 300.304 21.2744C295.74 21.2744 291.312 22.2729 286.515 23.3545C285.811 23.5131 285.1 23.6728 284.379 23.832C284.394 23.9395 284.409 24.0472 284.424 24.1543C285.028 28.3852 286.123 31.5833 287.956 33.416C289.323 34.7829 289.323 36.9994 287.956 38.3662C286.589 39.7329 284.373 39.733 283.006 38.3662C279.476 34.8364 278.139 29.6606 277.494 25.1436C277.333 24.0149 277.21 22.882 277.111 21.7715L277.108 21.7539C277.054 21.4793 277.032 21.2056 277.042 20.9375C276.971 20.041 276.914 19.1631 276.864 18.3184C276.827 17.6928 276.794 17.0936 276.763 16.5186L276.738 16.0742C275.839 16.8205 274.585 17.099 273.395 16.7021C271.561 16.0909 270.57 14.1091 271.181 12.2754C271.844 10.2858 273.582 9.33726 274.5 8.9209C275.588 8.42767 276.815 8.11603 277.861 7.90234C278.939 7.68224 280.022 7.52815 280.875 7.41113L281.079 7.38281C281.918 7.26777 282.334 7.21117 282.519 7.16797C290.056 5.40603 297.747 4.12201 305.428 3.31348ZM342.028 0C343.961 0.000183041 345.528 1.56712 345.528 3.5C345.528 3.88731 345.533 4.30748 345.541 4.75586L345.57 6.18164V6.18262C345.647 9.68872 345.749 14.3514 345.109 18.5645C344.293 23.9439 342.039 30.2461 335.468 32.5459C329.283 34.7104 321.814 32.04 318.254 26.7002C314.37 20.8742 314.371 14.6705 314.372 9.25V8.99023C314.372 7.05724 315.939 5.49023 317.872 5.49023C319.805 5.49026 321.372 7.05726 321.372 8.99023C321.372 14.7327 321.472 18.9078 324.078 22.8174C325.923 25.5849 330.084 27.0134 333.155 25.9385C335.863 24.9907 337.468 22.2693 338.19 17.5137C338.728 13.9661 338.648 10.2093 338.575 6.77637C338.551 5.64259 338.528 4.54408 338.528 3.5C338.528 1.567 340.095 0 342.028 0Z" fill="black"/>
</svg>
