<svg width="304" height="261" viewBox="0 0 304 261" fill="none" xmlns="http://www.w3.org/2000/svg">
<path d="M10.8125 186.636C13.8073 185.06 17.4547 184.644 20.9766 184.899C24.5467 185.158 28.2952 186.126 31.7158 187.639C38.2277 190.521 45.0023 196.135 45.0078 204.009C46.272 203.644 47.6896 204.012 48.6133 205.067C51.9861 208.922 56.1005 214.147 58.666 219.919C61.237 225.703 62.4604 232.541 59.1709 239.12C52.8742 251.713 38.209 261.337 23.3047 259.982C11.0127 258.865 0 249.765 0 236.436C0.000118612 230.788 3.56035 226.763 6.80762 223.97C10.4022 220.879 11.8586 218.835 14.5957 214.882C15.4729 213.615 15.7353 212.76 15.7949 212.235C15.8483 211.765 15.766 211.346 15.5 210.843C14.8046 209.53 13.274 208.254 10.7236 206.168C8.10444 204.025 5.40967 200.878 4.75 197.202C4.39951 195.249 4.63739 193.169 5.74805 191.218C6.83084 189.317 8.58647 187.808 10.8125 186.636ZM20.4707 191.882C17.7122 191.682 15.51 192.075 14.0732 192.831C12.6634 193.573 12.0733 194.255 11.8301 194.682C11.6149 195.061 11.547 195.449 11.6396 195.966C11.8665 197.23 13.0558 199.031 15.1562 200.75C15.3092 200.875 15.4667 201.003 15.6279 201.135L15.6328 201.138C17.6666 202.792 20.2861 204.923 21.6865 207.568C22.5243 209.151 22.9828 210.978 22.75 213.026C22.5234 215.02 21.6733 216.957 20.3516 218.866C17.5219 222.953 15.6577 225.592 11.3711 229.278C8.51432 231.735 7.00012 233.973 7 236.436C7 245.32 14.3667 252.14 23.9385 253.01C35.5989 254.071 47.7255 246.358 52.9102 235.989C54.8954 232.018 54.3945 227.543 52.2695 222.762C50.139 217.969 46.5851 213.379 43.3457 209.676C42.7668 209.015 42.4815 208.197 42.4795 207.382C42.171 207.471 41.8449 207.518 41.5078 207.518C39.575 207.518 38.008 205.951 38.0078 204.018C38.0078 200.465 34.6848 196.608 28.8828 194.041C26.1452 192.829 23.1812 192.078 20.4707 191.882ZM138.747 49.8669C162.52 48.9957 184.798 55.5523 200.843 74.4343C213.945 89.8543 219.12 111.275 213.28 131.001C207.744 149.702 192.373 166.468 175.819 175.665C152.561 188.586 127.617 188.253 103.296 180.578C80.5725 173.407 57.1541 155.787 53.79 130.063C53.7671 130.062 53.7438 130.062 53.7207 130.06C51.794 129.906 50.3567 128.218 50.5107 126.292C54.1693 80.5606 95.5819 51.4489 138.747 49.8669ZM195.509 78.9675C181.238 62.1726 161.309 56.0446 139.003 56.862C100.475 58.2742 64.7304 82.824 58.2852 120.489C59.5169 121.031 60.377 122.262 60.377 123.694C60.3772 148.353 82.0554 166.535 105.403 173.902C128.442 181.172 151.289 181.285 172.42 169.546C187.687 161.064 201.647 145.639 206.568 129.014C211.696 111.694 207.176 92.6991 195.509 78.9675ZM285.089 119.395C286.791 118.622 288.828 118.083 291.025 118.368C293.292 118.661 295.351 119.782 297.101 121.667C300.111 124.909 301.859 129.437 302.813 133.761C303.781 138.145 304.023 142.726 303.726 146.447C303.123 153.983 300.224 159.882 295.75 164.107C291.322 168.288 285.573 170.623 279.551 171.508C267.616 173.26 253.805 169.439 244.654 161.595C243.187 160.337 243.017 158.128 244.274 156.661C245.532 155.193 247.742 155.023 249.21 156.281C256.773 162.764 268.535 166.05 278.534 164.582C283.478 163.856 287.787 161.998 290.944 159.017C294.056 156.079 296.272 151.845 296.748 145.889C296.992 142.842 296.792 138.958 295.978 135.27C295.15 131.524 293.777 128.376 291.971 126.43C291.181 125.58 290.563 125.366 290.127 125.309C289.621 125.244 288.928 125.34 287.984 125.768C285.976 126.681 283.914 128.571 281.972 130.444C281.731 130.676 281.484 130.915 281.232 131.158C276.354 135.872 269.535 142.461 262.72 145.49C258.579 147.33 255.085 144.906 253.215 143.336C252.829 143.012 252.443 142.663 252.073 142.319L251.029 141.326L251.024 141.322C250.835 141.14 250.657 140.969 250.495 140.815C249.658 140.023 249.187 139.645 248.905 139.492C248.525 139.285 248.153 139.062 247.833 138.871L247.736 138.813C247.44 138.635 247.182 138.482 246.924 138.336C246.338 138.004 245.961 137.84 245.698 137.77C245.622 137.75 245.574 137.742 245.546 137.739C245.48 137.776 245.3 137.899 245.023 138.237C243.32 140.319 243.154 141.997 243.53 143.497C243.969 145.245 245.272 147.197 247.354 149.28C248.721 150.647 248.721 152.863 247.354 154.23C245.988 155.597 243.772 155.597 242.405 154.23C239.963 151.788 237.63 148.749 236.74 145.199C235.788 141.4 236.603 137.474 239.605 133.804C240.643 132.536 241.892 131.565 243.39 131.076C244.898 130.584 246.319 130.691 247.501 131.006C248.633 131.307 249.627 131.821 250.372 132.243C250.712 132.435 251.045 132.636 251.331 132.807L251.43 132.866C251.755 133.061 252.016 133.216 252.257 133.347C253.441 133.993 254.517 134.983 255.309 135.732C255.56 135.97 255.795 136.196 256.02 136.412V136.413C256.617 136.987 257.144 137.493 257.716 137.973C259.36 139.353 259.791 139.137 259.87 139.097L259.877 139.093C265.524 136.584 271.561 130.761 276.749 125.757L277.112 125.406C278.912 123.67 281.806 120.887 285.089 119.395ZM141.08 133.311C144.835 132.894 149.57 132.469 154.095 133.148C158.682 133.837 163.421 135.72 166.697 140.21L166.867 140.448C168.58 142.927 168.976 145.661 167.88 148.231C166.888 150.556 164.893 152.204 163.101 153.327C159.458 155.608 154.702 156.917 152.31 157.301C146.735 158.197 139.912 159.404 133.383 158.127C131.846 157.826 129.019 157.423 126.562 156.619C124.117 155.819 120.995 154.319 119.436 151.113C118.624 149.445 118.296 147.672 118.627 145.891C118.953 144.138 119.854 142.713 120.917 141.599C122.943 139.478 125.965 138.063 128.731 137.066C131.6 136.032 134.706 135.273 137.291 134.698C137.894 134.564 138.454 134.447 138.971 134.336C139.515 133.781 140.247 133.404 141.08 133.311ZM153.056 140.07C150.643 139.708 148.047 139.739 145.452 139.927C145.283 140.011 145.105 140.083 144.918 140.139C143.619 140.533 141.138 141.013 138.812 141.531C136.297 142.09 133.543 142.773 131.105 143.651C128.567 144.566 126.837 145.536 125.979 146.433C125.601 146.829 125.527 147.074 125.51 147.169C125.497 147.237 125.458 147.492 125.73 148.051C126.015 148.635 126.816 149.337 128.739 149.967C130.65 150.592 132.638 150.849 134.728 151.258C139.794 152.249 145.292 151.34 151.199 150.39C152.988 150.103 156.773 149.03 159.385 147.394C160.718 146.559 161.279 145.864 161.44 145.486C161.462 145.436 161.671 145.197 161.042 144.336C159.24 141.867 156.526 140.591 153.056 140.07ZM124.288 98.6452C126.221 98.6452 127.788 100.212 127.788 102.145C127.788 106.655 126.632 110.542 124.107 113.683C121.619 116.779 118.076 118.809 113.922 120.159C109.871 121.475 105.163 122.313 100.381 121.054C97.6862 120.345 95.414 119.53 93.5859 117.824C91.8228 116.179 90.8092 113.996 89.7861 111.623C89.0213 109.848 89.8395 107.788 91.6143 107.023C93.3891 106.258 95.4485 107.077 96.2139 108.851C97.2882 111.344 97.8126 112.195 98.3613 112.707C98.8453 113.158 99.66 113.626 102.162 114.285C105.093 115.056 108.304 114.624 111.758 113.502C115.11 112.412 117.291 110.989 118.65 109.298C119.973 107.651 120.788 105.416 120.788 102.145C120.788 100.212 122.355 98.6453 124.288 98.6452ZM168.835 96.7956C169.108 94.8822 170.881 93.5526 172.795 93.8259C174.708 94.0996 176.038 95.8725 175.765 97.7859C175.281 101.173 174.096 104.903 171.831 107.875C169.481 110.957 165.959 113.198 161.241 113.198C152.761 113.198 147.744 106.546 144.913 101.051C144.028 99.3331 144.703 97.2229 146.422 96.3376C148.14 95.4526 150.25 96.1273 151.136 97.8454C153.747 102.915 156.992 106.198 161.241 106.198C163.457 106.198 165.034 105.247 166.265 103.632C167.58 101.905 168.458 99.4313 168.835 96.7956ZM100.206 5.84642C111.536 2.68237 123.699 -0.461968 136.208 0.0563827C138.236 0.140513 141.357 0.776127 143.647 2.30931C144.817 3.09221 146.232 4.42776 146.657 6.48412C147.106 8.65422 146.257 10.6257 144.984 12.1833C142.093 15.7224 138.145 18.1181 134.315 19.9451C131.836 21.128 129.112 22.1961 126.66 23.157C125.432 23.6383 124.271 24.093 123.243 24.5222C110.656 29.7796 97.2071 33.8276 84.2012 37.3474C79.5348 38.6103 74.6719 39.3854 70.0488 40.1228C68.6323 40.3487 67.2378 40.5708 65.8789 40.8025C65.6624 40.8394 65.4411 40.8778 65.2158 40.9167C62.4801 41.3899 59.1256 41.9706 55.7393 41.5867C53.6637 41.3513 51.1521 40.4981 49.4707 38.6804C48.5704 37.7069 47.846 36.3724 47.7666 34.7351C47.6878 33.1095 48.2656 31.6159 49.166 30.3454C51.3167 27.311 54.4565 24.7567 57.7373 22.6462C58.0695 21.9338 58.6426 21.3279 59.4082 20.9646C72.6102 14.7007 86.166 9.76743 100.206 5.84642ZM135.918 7.04955C124.646 6.58247 113.465 9.41151 102.089 12.5886C92.8882 15.1581 83.9213 18.1678 75.1436 21.7087C74.8871 21.9121 74.5971 22.0828 74.2783 22.2117C70.9699 23.5492 67.0007 25.2905 63.3633 27.4089C59.7644 29.5049 56.7841 31.8038 55.0166 34.1999C55.0759 34.2302 55.1425 34.2618 55.2168 34.2937C55.5916 34.4544 56.051 34.5765 56.5273 34.6306C58.8802 34.8974 61.2946 34.4853 64.2656 33.9773C64.4099 33.9526 64.5562 33.9271 64.7031 33.9021C66.2278 33.6422 67.7287 33.4031 69.209 33.1667C73.7493 32.4417 78.0992 31.7469 82.3721 30.5906C95.2778 27.0979 108.38 23.143 120.545 18.0622C121.875 17.5068 123.183 16.9957 124.48 16.489C126.768 15.5954 129.022 14.7154 131.302 13.6277C134.682 12.0154 137.49 10.2112 139.418 7.93041C139.053 7.74128 138.565 7.55031 137.98 7.39037C137.211 7.17966 136.457 7.07192 135.918 7.04955Z" fill="black"/>
</svg>
