<svg width="265" height="283" viewBox="0 0 265 283" fill="none" xmlns="http://www.w3.org/2000/svg">
<path d="M16.0771 219.789C22.9556 214.679 31.5146 216.267 37.6201 219.506L38.3154 219.886C44.2804 223.243 47.3425 227.553 49.7929 232.922C54.6686 233.741 60.4404 235.592 64.871 238.635C67.7 240.579 70.278 243.214 71.4726 246.675C72.7117 250.266 72.2763 254.201 70.0673 258.241C62.8235 271.486 47.8548 279.071 34.0703 281.514C29.3799 282.345 22.122 282.491 16.0419 280.573C12.9809 279.607 9.92125 278.025 7.72748 275.446C5.44199 272.759 4.34765 269.279 4.82025 265.143C5.66033 257.792 9.34634 251.453 13.998 246.394C13.9738 246.149 13.8821 245.685 13.5703 244.873C13.283 244.124 13.0128 243.552 12.622 242.61C12.2866 241.801 11.8941 240.784 11.6806 239.716C11.1055 236.841 10.3501 233.259 10.6122 229.842C10.8935 226.179 12.3431 222.562 16.0771 219.789ZM34.3388 225.69C29.3786 223.058 24.0248 222.605 20.2509 225.408C18.4233 226.765 17.7466 228.361 17.5917 230.378C17.4181 232.643 17.9174 235.211 18.5439 238.343C18.6158 238.703 18.784 239.194 19.0888 239.929C19.3382 240.531 19.7879 241.539 20.1044 242.364C20.4526 243.271 20.8982 244.56 20.9892 246.012C21.5842 247.305 21.3492 248.886 20.2841 249.952C15.7333 254.502 12.4596 259.951 11.7753 265.938C11.5078 268.279 12.1115 269.796 13.0595 270.911C14.0994 272.133 15.8093 273.159 18.1474 273.897C22.8656 275.385 28.9293 275.316 32.8486 274.622C45.4021 272.397 58.057 265.614 63.9257 254.882C65.3595 252.261 65.3437 250.374 64.8554 248.959C64.3225 247.415 63.0252 245.861 60.9072 244.406C57.8422 242.3 53.6827 240.84 49.916 240.067C49.6798 240.242 49.4183 240.39 49.1328 240.504C47.6342 241.104 45.9665 240.595 45.039 239.366C43.4407 238.954 42.3102 237.452 42.4238 235.746C42.4547 235.282 42.5748 234.846 42.7656 234.453C40.7829 230.522 38.4816 227.888 34.3388 225.69ZM55.4531 119.776C73.0967 102.886 98.2501 97.0822 121.34 97.7046C145.031 98.3433 165.637 112.104 173.929 134.88C180.475 152.863 175.894 174.388 165.441 189.467C154.45 205.324 136.36 216.38 117.019 220.965C97.6753 225.552 76.6649 223.759 59.832 213.349C45.2068 204.304 36.0415 189.223 34.6415 172.223C34.1405 166.139 34.5876 160.327 35.7187 154.738C35.9787 151.549 36.5225 148.304 37.6445 145.124C38.8812 141.621 40.4897 138.377 42.3652 135.344C43.9618 131.942 45.7196 128.61 47.5644 125.335C48.3711 123.904 50.0346 123.259 51.5497 123.681C52.823 122.343 54.1288 121.043 55.4531 119.776ZM121.15 104.702C99.1501 104.109 76.1129 109.69 60.2939 124.832C55.7403 129.192 51.6724 133.697 48.5292 138.69C45.9361 144.269 43.8803 149.904 42.664 155.707C42.4336 158.97 42.5117 162.407 42.5117 166.135C42.5116 167.117 42.1062 168.004 41.455 168.639C41.4807 169.636 41.5349 170.639 41.6181 171.649C42.8365 186.444 50.7867 199.525 63.5146 207.396C78.4334 216.622 97.4501 218.411 115.404 214.154C133.362 209.896 149.842 199.684 159.688 185.48C169.104 171.897 172.977 152.73 167.351 137.275C160.103 117.368 142.154 105.268 121.15 104.702ZM209.189 118.676C210.946 118.115 212.786 118.165 214.331 118.387C217.425 118.832 220.492 120.143 222.145 121C227.807 123.936 231.96 127.344 235.109 132.826C235.44 132.258 235.935 131.777 236.566 131.461C242.109 128.69 247.005 128.826 251.262 131.362C255.131 133.667 258.056 137.743 260.56 141.708C268.836 154.811 263.91 169.659 251.586 177.559C244.946 181.815 236.362 184.622 227.72 185.49C219.092 186.356 210.065 185.322 202.665 181.509C199.673 179.968 198.028 177.441 197.524 174.586C197.053 171.915 197.603 169.147 198.476 166.743C200.198 161.999 203.717 157.245 206.883 154.965C208.451 153.836 210.638 154.192 211.768 155.76C212.897 157.329 212.541 159.517 210.973 160.646C209.12 161.98 206.375 165.496 205.056 169.131C204.408 170.917 204.241 172.366 204.418 173.371C204.563 174.192 204.929 174.802 205.871 175.287C211.734 178.307 219.308 179.299 227.02 178.525C234.719 177.752 242.217 175.249 247.808 171.665C257.425 165.5 260.54 154.786 254.642 145.447C252.136 141.479 249.969 138.74 247.679 137.375C245.775 136.241 243.441 135.85 239.697 137.722C238.504 138.319 237.132 138.169 236.112 137.451C235.799 138.192 235.232 138.831 234.455 139.219C232.726 140.084 230.624 139.383 229.76 137.654C227.314 132.762 224.146 129.923 218.923 127.214C217.635 126.547 215.353 125.606 213.335 125.316C212.324 125.171 211.667 125.233 211.318 125.344C211.157 125.396 211.114 125.428 211.083 125.485L211.053 125.552C210.476 126.871 210.404 129.145 210.913 132.166C211.398 135.046 212.291 137.981 213.015 140.28L213.477 141.729C214.565 145.087 215.755 148.235 217.534 150.238C218.818 151.682 218.688 153.895 217.243 155.179C215.798 156.463 213.586 156.333 212.302 154.888C209.078 151.262 207.438 145.875 206.338 142.381C205.615 140.085 204.583 136.736 204.01 133.329C203.46 130.062 203.197 126.043 204.64 122.747L204.826 122.35C205.803 120.419 207.417 119.242 209.189 118.676ZM150.29 167.858C151.362 166.25 153.535 165.815 155.143 166.887C156.752 167.959 157.186 170.132 156.114 171.741C148.514 183.141 134.802 188.577 121.291 182.787C119.514 182.025 118.692 179.967 119.453 178.191C120.215 176.414 122.272 175.592 124.049 176.353C134.05 180.639 144.304 176.836 150.29 167.858ZM99.121 131.862C100.85 130.997 102.953 131.698 103.817 133.427C104.752 135.297 105.355 137.224 105.865 138.841C106.403 140.544 106.845 141.927 107.48 143.198C108.345 144.926 107.644 147.028 105.916 147.893C104.187 148.757 102.084 148.057 101.22 146.329C100.295 144.48 99.6981 142.56 99.1894 140.949C98.6538 139.252 98.2033 137.854 97.5556 136.558C96.6912 134.829 97.3923 132.726 99.121 131.862ZM138.054 125.048C139.498 123.764 141.711 123.895 142.995 125.339C144.807 127.378 145.635 129.98 146.093 132.166C146.552 134.36 146.737 136.705 146.911 138.27C147.124 140.191 145.739 141.921 143.818 142.134C141.897 142.348 140.167 140.964 139.953 139.042C139.743 137.155 139.609 135.36 139.241 133.6C138.872 131.834 138.364 130.666 137.763 129.99C136.479 128.545 136.609 126.332 138.054 125.048ZM96.791 27.6821C97.7245 27.7626 98.5017 28.1466 99.0859 28.6215C100.116 29.4589 100.621 30.6299 100.904 31.4467C104.899 42.9878 104.974 57.0523 104.974 68.3032C104.974 69.6287 104.237 70.7824 103.15 71.3764C103.523 71.7221 103.827 72.155 104.025 72.6596C104.734 74.4581 103.85 76.4902 102.052 77.1987C93.0695 80.7372 84.2518 84.6776 75.3769 88.6792C74.7287 88.9714 74.0796 89.2643 73.4306 89.5571L73.3515 89.5922L73.2822 89.6235L73.2812 89.6245C65.1168 93.3082 56.8878 97.0208 48.5253 100.442C47.0167 101.059 45.3269 100.546 44.3954 99.2973C43.7819 98.8375 43.3159 98.175 43.1093 97.3813C43.0916 97.3543 43.0616 97.3117 43.0146 97.2534C42.8458 97.0442 42.5695 96.7701 42.1542 96.4233C41.7466 96.0829 41.3027 95.7516 40.7978 95.3745H40.7968V95.3735L40.7509 95.3393C40.2918 94.9965 39.717 94.5674 39.2363 94.1401C34.7022 90.1097 30.1988 84.454 27.2333 79.1821C27.0252 78.8121 26.601 78.2402 25.8886 77.3598C25.7205 77.1521 25.5371 76.9272 25.3437 76.6909L25.3417 76.6899V76.6889H25.3408C24.8011 76.0297 24.1864 75.2779 23.624 74.5395C22.8517 73.5256 22.0262 72.3433 21.4169 71.101C20.829 69.9022 20.2543 68.2743 20.4648 66.4848C20.64 64.9955 21.6206 64.0109 22.5869 63.56C23.3527 63.2028 24.067 63.1801 24.3974 63.1821C25.1191 63.1866 25.8385 63.3515 26.3369 63.4829C27.4297 63.7711 28.7594 64.2618 29.9726 64.7436C31.2183 65.2383 32.4741 65.7777 33.4599 66.2104C33.9544 66.4275 34.3867 66.6199 34.7167 66.7671L34.748 66.7817C34.9004 66.8496 35.0264 66.9057 35.1279 66.9506L35.1718 66.9702L35.2597 67.0083L35.2997 67.0258L35.3115 67.0307L35.3144 67.0317C41.0049 69.4098 46.9071 71.7309 52.6972 73.8217C53.0697 73.9563 53.4499 74.1068 53.8232 74.2602L54.9081 74.7182L55.0927 74.7973C55.868 75.1283 56.5697 75.4225 57.2568 75.6635C57.9879 75.92 58.5801 76.069 59.0634 76.1362C59.1044 75.8771 59.1423 75.5691 59.1718 75.2114C59.279 73.9122 59.2488 72.6423 59.2245 71.6147C59.2155 71.2306 59.207 70.8799 59.207 70.5747C59.207 67.4927 59.3609 64.4482 59.5234 61.4907L59.5732 60.5893C59.7208 57.9235 59.8649 55.3323 59.913 52.7319C59.93 51.818 60.0263 49.9017 60.457 48.062C60.6695 47.1541 61.0104 46.055 61.5976 45.0659C62.1726 44.0973 63.2644 42.7829 65.1201 42.3706C67.1027 41.9301 68.714 42.8519 69.5449 43.4526C70.4644 44.1174 71.249 44.9805 71.8476 45.7182C72.5502 46.5842 73.2408 47.6014 73.7285 48.3462L74.1415 48.9848C74.2466 49.1484 74.3245 49.2706 74.3701 49.3374C76.1963 52.0159 77.8892 53.7325 79.1435 54.2573C79.5979 54.4474 79.7922 54.3986 79.9443 54.3364C80.1984 54.2324 80.8588 53.8329 81.7558 52.4145C84.1822 48.5774 85.9733 44.5995 87.912 40.2924L87.913 40.2905C88.322 39.3819 88.7374 38.4586 89.1669 37.519C89.1544 37.5465 89.1562 37.54 89.1806 37.4721C89.2059 37.4019 89.2553 37.2658 89.3359 37.0337L89.4287 36.7651C89.5408 36.4404 89.6774 36.0436 89.8271 35.6235C90.2112 34.5457 90.7368 33.1465 91.3388 31.9106C91.6385 31.2954 92.0012 30.6299 92.4247 30.0327C92.7908 29.5165 93.4665 28.6635 94.5087 28.1352C95.0901 27.8406 95.8749 27.6032 96.791 27.6821ZM95.8915 39.4946C95.79 39.786 95.6559 40.1607 95.5331 40.4292C95.1414 41.286 94.751 42.154 94.3574 43.0297V43.0307L93.624 44.6587C91.8976 48.4754 90.0489 52.3982 87.6728 56.1557C86.3242 58.2883 84.6672 59.9679 82.5937 60.8159C80.4186 61.7054 78.2749 61.4819 76.4423 60.7153C73.1225 59.3263 70.4428 56.0028 68.5869 53.2807C68.4139 53.0271 68.2352 52.7495 68.0458 52.4555C67.7464 51.9908 67.4197 51.4846 67.0468 50.9643C66.9547 51.7099 66.9194 52.4141 66.9111 52.8618C66.8604 55.599 66.7102 58.3217 66.5634 60.9692V60.9702L66.5136 61.8745C66.3512 64.8318 66.207 67.7047 66.207 70.5747C66.207 70.6816 66.2118 70.8631 66.2177 71.102C66.2423 72.0877 66.2907 74.0511 66.1474 75.7876C66.0573 76.8794 65.8752 78.1987 65.4433 79.3745C65.0744 80.3785 64.0915 82.4279 61.704 82.9585C59.1673 83.5221 56.7428 82.9012 54.9404 82.269C54.0081 81.942 53.1111 81.5621 52.3447 81.2348L52.204 81.1753C51.4617 80.8581 50.8664 80.6033 50.3193 80.4057C44.4057 78.2703 38.3958 75.9065 32.6152 73.4907C32.4131 73.4062 32.094 73.2642 31.6845 73.0815L31.6816 73.0796H31.6806L31.6796 73.0786H31.6777L31.288 72.9047L31.33 72.9565C32.007 73.7931 32.7972 74.7946 33.3349 75.7505C35.9344 80.3717 39.954 85.4129 43.8867 88.9087C44.1106 89.1077 44.4417 89.3586 44.9677 89.7514L45.039 89.8051C45.5044 90.1526 46.084 90.5856 46.6415 91.0512C47.1459 91.4724 47.8485 92.0866 48.4843 92.8842C55.8331 89.8167 63.0993 86.5387 70.4199 83.2358H70.4208V83.2348H70.4218L72.4999 82.2973C81.236 78.3584 90.058 74.4141 99.0722 70.8491C98.3961 70.2109 97.9736 69.3063 97.9736 68.3032C97.9736 58.8827 97.8787 48.5512 95.8915 39.4946ZM11.8046 46.0005C13.4229 45.6694 15.9525 45.8177 18.0292 46.3364C19.0973 46.6032 20.3713 47.0447 21.4599 47.8081C22.5678 48.5851 23.9159 50.0385 23.916 52.2485C23.916 57.46 19.5305 59.9888 16.4326 61.101C13.0899 62.3012 9.3081 62.6401 7.02435 62.6401C5.09136 62.6401 3.52435 61.0731 3.52435 59.1401V59.1167C2.78486 59.1223 2.03764 58.8943 1.40033 58.4165C-0.146067 57.2567 -0.459663 55.0625 0.700135 53.5161C3.25795 50.1057 6.90848 47.0021 11.8046 46.0005ZM13.5449 52.8296C13.4334 52.8343 13.3512 52.8413 13.2958 52.8471L13.2079 52.8579C11.3441 53.2391 9.66264 54.2029 8.16986 55.6069C9.91699 55.5092 12.1818 55.1892 14.0673 54.5122C15.3825 54.04 16.0977 53.5695 16.4824 53.1665C16.4346 53.1535 16.3845 53.1413 16.3329 53.1284C15.7092 52.9726 15.0025 52.875 14.3583 52.8393C14.0411 52.8218 13.7643 52.8203 13.5449 52.8296ZM48.5517 22.7671C51.2045 18.9354 55.6248 19.2205 58.4072 20.1196C61.2532 21.0393 64.1551 23.0461 65.6513 25.3735C67.2636 27.8817 67.5538 30.5756 66.7245 32.977C65.9392 35.2513 64.2613 36.9563 62.4521 37.9594C60.9901 38.77 59.1112 39.2964 57.2079 39.02C56.0629 39.5839 54.6495 39.4984 53.5585 38.6801C51.7288 37.3077 49.6323 35.0653 48.3359 32.4682C47.0528 29.8978 46.2049 26.1568 48.5517 22.7671ZM56.2548 26.7807C55.4847 26.5318 54.9364 26.5122 54.6347 26.5649C54.4262 26.6014 54.378 26.6497 54.3076 26.7514C54.0775 27.0837 53.8927 27.6968 54.3964 28.9008C54.4372 28.8943 54.4782 28.8884 54.5195 28.8833C56.4375 28.6435 58.1869 30.0043 58.4267 31.9223C58.4337 31.9785 58.442 32.0278 58.4501 32.0708C58.5927 32.0438 58.7984 31.982 59.0576 31.8383C59.6111 31.5315 59.9751 31.0781 60.1083 30.6928C60.1975 30.4346 60.2824 29.9672 59.7626 29.1587C59.3179 28.4669 57.9019 27.3131 56.2548 26.7807ZM90.7099 2.70944C93.0995 0.678305 95.9546 -0.496041 98.9619 0.2026C101.851 0.874079 103.876 3.05386 105.218 5.40182C108.216 10.6485 105.813 15.8225 102.285 18.4604C100.776 19.5889 98.8414 20.409 96.8007 20.6274C96.732 20.7542 96.6543 20.8781 96.5683 20.9985C95.4448 22.5714 93.2594 22.9354 91.6865 21.812C88.6443 19.639 86.5011 16.4682 86.1679 12.8247C85.8265 9.08962 87.4449 5.48467 90.7099 2.70944ZM97.3769 7.02096C97.2751 6.99736 96.6274 6.86677 95.2431 8.04342C93.4367 9.57896 93.0365 11.0607 93.1396 12.188C93.1429 12.2245 93.1468 12.2613 93.1513 12.2983C93.487 12.4634 93.8017 12.6861 94.081 12.9653C94.9812 13.8653 96.5371 14.0177 98.0937 12.854C99.5569 11.76 99.9479 10.2891 99.1396 8.87447C98.2838 7.37711 97.5948 7.07158 97.3769 7.02096Z" fill="black"/>
</svg>
