<svg width="287" height="207" viewBox="0 0 287 207" fill="none" xmlns="http://www.w3.org/2000/svg">
<path d="M245.429 1.45814C246.865 0.537843 249.071 -0.433846 251.632 0.206186C256.133 1.33171 258.44 5.44207 259.669 8.61927C260.377 10.4525 260.885 12.3914 261.261 14.1222C263.305 13.2446 265.419 12.5541 267.638 12.2238C271.356 11.6705 275.157 12.1539 279.274 14.0363C284.657 16.4972 286.772 21.186 286.86 25.8605C286.944 30.3298 285.232 34.9113 282.956 38.3253C281.884 39.9337 279.711 40.3683 278.102 39.296C276.494 38.2237 276.059 36.0508 277.132 34.4425C278.808 31.9287 279.913 28.7249 279.861 25.9923C279.813 23.4648 278.839 21.5344 276.363 20.4025C273.413 19.0541 270.978 18.8039 268.669 19.1476C266.255 19.5069 263.771 20.544 260.757 22.1398C259.234 22.9458 257.386 22.5157 256.362 21.2033C255.707 20.6897 255.231 19.9413 255.075 19.0568L255.051 18.921C254.652 16.6614 254.13 13.7058 253.139 11.1427C252.066 8.36707 250.906 7.25531 249.96 7.00404C249.895 7.00985 249.666 7.0561 249.205 7.35169C248.5 7.80345 247.79 8.48893 246.98 9.29896C245.674 10.6055 244.729 12.4148 243.783 14.6818C241.191 20.8933 239.153 27.314 237.069 33.8839L237.068 33.8849V33.8869C236.567 35.4677 236.062 37.0571 235.547 38.6544C235.036 40.2376 233.504 41.2066 231.914 41.0675C231.193 41.1292 230.447 40.9687 229.784 40.5607C227.467 39.1348 222.921 37.128 219.228 36.7384C217.357 36.5411 216.317 36.8255 215.848 37.1388C215.629 37.2856 215.031 37.7365 215.056 39.7277C215.103 43.4088 217.007 46.1566 220.163 48.3214C223.403 50.5442 227.707 51.9366 231.66 52.672C232.126 52.7587 232.553 52.9346 232.928 53.1779C233.131 53.1295 233.341 53.0984 233.557 53.087C235.488 52.9855 237.135 54.4683 237.236 56.3986C237.601 63.3398 237.414 70.1362 237.158 76.8878L237.046 79.7794C236.971 81.682 236.896 83.5826 236.832 85.4826C236.266 102.335 236.195 119.207 236.195 136.127C236.195 137.137 235.765 138.046 235.081 138.685C234.795 142.888 234.057 147.087 232.836 151.212C227.299 169.913 211.929 186.68 195.375 195.876C172.116 208.797 147.173 208.464 122.851 200.789C103.059 194.543 82.7416 180.369 75.6062 159.818C74.1923 159.616 72.9885 158.555 72.6756 157.076C72.1171 154.437 71.5552 151.801 70.992 149.165C70.3478 148.472 69.9848 147.521 70.0662 146.503C70.0978 146.108 70.1325 145.715 70.1697 145.322C67.4567 132.716 64.6514 120.153 61.5662 107.661C61.1104 105.816 60.6438 103.972 60.1765 102.126C58.2847 94.6519 56.3833 87.1387 55.1492 79.2911C54.849 77.3818 56.153 75.5906 58.0623 75.2902C58.276 75.2566 58.4892 75.243 58.698 75.2482C59.0136 74.9329 59.395 74.6726 59.8328 74.4913C63.5476 72.9535 67.4707 70.7002 70.1805 67.8546C72.8193 65.0834 74.1128 62.0007 73.3963 58.3898C73.0087 56.4365 72.3311 56.1188 72.0857 56.0206C71.5622 55.8113 70.4867 55.7479 68.6971 56.3283C65.1649 57.4738 61.1327 60.3792 59.1609 62.254C58.5966 62.7906 57.9001 63.1016 57.1824 63.1906C55.6557 63.6561 53.9554 63.0254 53.1277 61.5822C52.2929 60.1265 51.4709 58.676 50.6531 57.2335L50.6521 57.2316L50.6512 57.2306C47.2516 51.2346 43.9293 45.3743 40.1072 39.8341C38.7122 37.8121 37.4128 36.2374 35.864 35.2296C34.9041 34.605 34.0682 34.0822 33.2849 33.7863C32.7725 33.5927 32.5393 33.594 32.4744 33.6017C31.6009 34.0433 30.6948 35.3714 30.2195 38.3097C29.7808 41.0224 29.8828 44.0215 29.9607 46.3146L29.9656 46.4523C29.996 47.3498 29.6859 48.1804 29.1512 48.8185C28.421 50.3149 26.7014 51.119 25.0447 50.6456C21.7652 49.7085 19.1202 49.2073 16.6844 49.3556C14.3544 49.4975 12.0234 50.247 9.41678 52.1769C7.22878 53.7969 6.67545 55.8876 7.15213 58.3702C7.66762 61.0542 9.41208 63.9601 11.5721 66.0724C12.9538 67.4239 12.979 69.6397 11.6277 71.0216C10.2762 72.4036 8.05953 72.4278 6.67752 71.0763C3.74406 68.2075 1.12099 64.0794 0.27811 59.6896C-0.603474 55.0981 0.49471 50.0741 5.25174 46.5519C8.89043 43.8578 12.5084 42.5966 16.2596 42.3683C18.4991 42.232 20.7101 42.4702 22.8924 42.9054C22.9016 41.1342 22.9955 39.1319 23.3094 37.1915C23.8533 33.8288 25.2603 29.3311 29.4314 27.298C31.8035 26.1418 34.1627 26.6345 35.7586 27.2374C37.329 27.8307 38.7511 28.7561 39.6316 29.3292L39.6824 29.3624C42.4407 31.1572 44.38 33.7013 45.8689 35.8595C49.884 41.6794 53.396 47.8754 56.8064 53.8927L57.2771 54.7238C59.8417 52.7995 63.2016 50.7518 66.5369 49.6701C68.9428 48.8898 71.9257 48.4179 74.6853 49.5216C77.7231 50.7367 79.5535 53.4546 80.2625 57.0275C81.5454 63.4927 78.9633 68.782 75.2498 72.6818C71.6113 76.5026 66.7126 79.2184 62.5262 80.9533C63.6874 87.458 65.2765 93.7391 66.9275 100.266L66.9285 100.269C67.4042 102.149 67.8848 104.05 68.3621 105.983C70.2143 113.482 71.9617 121.003 73.6502 128.531C85.2011 93.2545 121.1 71.4418 158.303 70.0783C182.075 69.2071 204.354 75.7636 220.398 94.6456C223.994 98.8773 226.991 103.562 229.329 108.538C229.422 100.778 229.576 93.0134 229.837 85.2472C229.904 83.2568 229.98 81.2967 230.056 79.3576C230.32 72.6303 230.574 66.1554 230.363 59.5509C225.908 58.7205 220.554 57.0786 216.203 54.0939C211.762 51.0475 208.141 46.4075 208.057 39.8165C208.011 36.1742 209.239 33.1362 211.96 31.3185C214.431 29.6674 217.447 29.5113 219.962 29.7765C223.449 30.1442 227.16 31.4523 230.067 32.8038L230.356 31.8927C232.447 25.2996 234.6 18.5106 237.323 11.9855C238.333 9.56576 239.703 6.67564 242.03 4.34876L242.073 4.30677C242.816 3.56381 244.015 2.36381 245.429 1.45814ZM215.064 99.1788C200.793 82.384 180.864 76.2559 158.558 77.0734C120.031 78.4856 84.2859 103.035 77.8406 140.7C79.0724 141.242 79.9324 142.473 79.9324 143.905C79.9326 168.564 101.611 186.746 124.959 194.113C147.998 201.383 170.845 201.496 191.975 189.757C207.243 181.275 221.202 165.85 226.124 149.226C231.252 131.905 226.732 112.91 215.064 99.1788ZM135.524 142.197C136.241 142.197 136.906 142.414 137.461 142.783C139.633 142.997 142.557 143.288 145.744 143.658C150.576 144.22 156.224 144.989 161.393 146.027C166.443 147.042 171.465 148.393 174.768 150.281L174.964 150.399C175.923 151.005 176.641 151.903 177.004 153.003C177.358 154.08 177.298 155.118 177.147 155.92C176.856 157.468 176.048 159.043 175.207 160.42C173.468 163.265 170.698 166.652 167.915 169.878C166.503 171.514 165.047 173.156 163.666 174.712C162.277 176.277 160.971 177.75 159.828 179.082C158.677 180.423 157.745 181.561 157.089 182.458C156.76 182.907 156.539 183.244 156.405 183.479C156.366 183.547 156.342 183.597 156.327 183.628C155.854 185.397 154.081 186.517 152.261 186.153C150.365 185.774 149.137 183.93 149.515 182.034L149.586 181.733C149.77 181.04 150.083 180.434 150.328 180.005C150.641 179.458 151.027 178.889 151.437 178.327C152.259 177.203 153.335 175.899 154.515 174.524C155.703 173.139 157.051 171.62 158.429 170.067C159.816 168.504 161.24 166.898 162.615 165.305C165.404 162.072 167.827 159.072 169.234 156.77C169.503 156.33 169.706 155.959 169.859 155.652C167.519 154.645 164.092 153.709 160.014 152.89C155.12 151.906 149.69 151.164 144.935 150.611C140.138 150.054 136.237 149.711 134.072 149.479C133.563 149.424 133.094 149.369 132.754 149.316C132.649 149.299 132.304 149.247 131.959 149.134C131.859 149.101 131.649 149.029 131.404 148.902C131.291 148.844 130.547 148.477 130.018 147.616C129.694 147.088 129.413 146.304 129.524 145.366C129.632 144.456 130.064 143.804 130.412 143.421C131.002 142.771 131.674 142.531 131.795 142.486C132.195 142.337 132.546 142.292 132.615 142.282C132.755 142.263 132.885 142.251 132.981 142.244C133.178 142.23 133.402 142.221 133.628 142.215C134.088 142.203 134.721 142.197 135.524 142.197ZM132.301 98.4035C134.16 97.8746 136.096 98.9527 136.625 100.812C138.5 107.403 140.656 114.751 141.462 121.998C141.675 123.919 140.29 125.649 138.369 125.862C136.448 126.076 134.717 124.692 134.504 122.771C133.776 116.222 131.814 109.482 129.892 102.728C129.363 100.869 130.442 98.9325 132.301 98.4035ZM170.342 94.5021C172.274 94.5589 173.794 96.1707 173.737 98.1027C173.559 104.163 173.762 108.54 175.097 114.548C175.517 116.435 174.327 118.304 172.44 118.724C170.553 119.143 168.684 117.953 168.264 116.067C166.767 109.327 166.552 104.337 166.741 97.8976C166.798 95.9656 168.41 94.4455 170.342 94.5021Z" fill="black"/>
</svg>
