<svg width="320" height="196" viewBox="0 0 320 196" fill="none" xmlns="http://www.w3.org/2000/svg">
<path d="M29.581 75.8042C32.1244 75.9699 34.4692 77.1702 36.3408 78.4497C40.1187 81.0325 43.4351 84.9677 44.9941 86.9722C45.6213 87.7787 48.0493 91.3633 49.8584 94.5376C50.7259 96.0599 51.6544 97.8323 52.0634 99.2368C52.1724 99.6112 52.2907 100.11 52.3193 100.658C52.3206 100.683 52.3202 100.709 52.3213 100.737C53.6896 100.426 55.3164 100.228 56.9287 100.138C59.3151 100.005 62.0791 100.086 64.5791 100.576C66.8717 101.025 69.8409 101.983 71.5644 104.326C72.5228 105.629 72.9796 107.212 72.8154 108.926C72.6601 110.547 71.9728 112.089 71.0166 113.523C68.6703 117.042 65.3784 118.215 62.83 118.935C61.4107 119.336 60.3437 119.596 59.4755 119.883C59.4728 120.122 59.4472 120.363 59.3935 120.605C54.0948 144.449 59.6042 169.112 80.6748 182.521C83.6684 184.426 90.0452 187.063 95.9199 187.845C98.8582 188.236 101.305 188.111 103.034 187.492C104.576 186.939 105.525 186.032 105.965 184.418C106.474 182.554 108.398 181.454 110.263 181.962C112.127 182.471 113.226 184.396 112.718 186.26C111.601 190.354 108.805 192.86 105.394 194.082C102.169 195.236 98.4521 195.244 94.9961 194.785C88.0815 193.864 80.7421 190.861 76.917 188.427C52.8922 173.139 47.0432 145.548 52.3095 120.249C51.2466 118.749 51.5267 116.661 52.9814 115.497C55.6456 113.365 59.0565 112.727 60.9267 112.199C63.0557 111.597 64.2801 111.007 65.1923 109.639C65.6248 108.99 65.7724 108.58 65.8222 108.381C65.7298 108.309 65.5663 108.198 65.2939 108.069C64.8023 107.837 64.1138 107.617 63.2334 107.445C61.4667 107.099 59.3155 107.015 57.3183 107.126C55.2485 107.242 53.7385 107.545 53.1621 107.761C51.3523 108.44 49.3349 107.522 48.6562 105.712C48.5547 105.442 48.4894 105.166 48.457 104.891C47.605 104.896 46.9002 104.637 46.4882 104.457C44.7174 103.682 43.9099 101.618 44.6845 99.8472C44.6969 99.8189 44.7106 99.791 44.7236 99.7632C44.4755 99.2669 44.1601 98.6751 43.7773 98.0034C42.083 95.0304 39.8367 91.7432 39.4687 91.27C38.0118 89.3969 35.2378 86.1757 32.3906 84.229C30.9499 83.2441 29.8469 82.8367 29.1269 82.7895C28.6803 82.7605 28.2496 82.8252 27.6552 83.5893C26.7119 84.8023 26.4594 87.1464 27.1318 90.9731C27.4434 92.7464 27.8958 94.556 28.3505 96.3745C28.7856 98.114 29.2527 99.9691 29.4804 101.563C29.5304 101.913 29.5804 102.173 29.6201 102.354C29.6457 102.413 29.6733 102.471 29.6963 102.529C29.7464 102.655 29.7989 102.801 29.8457 102.959C29.8718 103.048 29.9731 103.385 30 103.809C30.0078 103.933 30.0159 104.155 29.9853 104.428C29.9622 104.635 29.8821 105.24 29.4814 105.887C28.9711 106.712 27.9234 107.568 26.4511 107.547C25.333 107.531 24.5918 106.995 24.3672 106.823C23.8604 106.434 23.5866 105.995 23.5449 105.93C23.4449 105.776 23.3744 105.64 23.333 105.557C23.2222 105.335 23.1387 105.109 23.0722 104.913C22.9828 104.772 22.844 104.575 22.6396 104.336C20.9056 102.313 19.155 101.342 15.9873 100.11C13.9134 99.3033 11.7861 99.2526 10.417 99.7778C9.78677 100.02 9.37041 100.357 9.09567 100.76C8.82207 101.162 8.53808 101.852 8.53805 103.046C8.53808 103.926 8.85 105.07 9.51852 106.446C10.1546 107.755 11.0042 109.054 11.8564 110.252C11.8809 110.279 11.9197 110.323 11.9775 110.384C12.1319 110.547 12.3475 110.768 12.6123 111.037C13.1412 111.573 13.8107 112.239 14.4843 112.912C15.1473 113.573 15.8191 114.245 16.3193 114.76C16.564 115.012 16.8015 115.262 16.9843 115.467C17.0652 115.558 17.1962 115.707 17.3203 115.873C17.3664 115.934 17.5172 116.135 17.6591 116.407C17.7184 116.52 17.8928 116.863 17.9902 117.337C18.0545 117.651 18.3336 119.226 17.0351 120.525C16.0286 121.531 14.8327 121.556 14.5527 121.557C14.1347 121.559 13.8067 121.485 13.667 121.452C13.3619 121.378 13.1125 121.277 13.0019 121.231C12.7429 121.123 12.4732 120.988 12.2646 120.88C11.8291 120.656 11.2594 120.343 10.7636 120.074C10.2988 119.821 9.87023 119.593 9.51559 119.415C9.35624 119.5 9.15663 119.632 8.9277 119.82C8.29768 120.336 7.7533 121.029 7.47555 121.534C7.10633 122.205 7.02068 122.617 7.00485 122.805C6.99195 122.959 7.01993 122.996 7.02438 123.004C7.07623 123.104 7.41882 123.556 8.64157 124.012C9.7876 124.44 11.2687 124.7 12.7763 124.774C14.299 124.848 15.5859 124.719 16.3173 124.537C18.1925 124.068 20.0927 125.208 20.5615 127.083C21.03 128.959 19.8896 130.859 18.0146 131.328C16.429 131.724 14.4179 131.863 12.4345 131.766C10.4361 131.669 8.20094 131.319 6.19332 130.57C4.26333 129.849 2.01306 128.556 0.804651 126.217C-0.520442 123.652 -0.116551 120.811 1.34176 118.16C2.04597 116.879 3.16388 115.493 4.48922 114.407C4.82289 114.133 5.20943 113.848 5.64059 113.578C4.82796 112.393 3.94959 111.001 3.22262 109.505C2.32861 107.666 1.53808 105.421 1.53805 103.046C1.53808 100.687 2.11908 98.568 3.30953 96.8198C4.49906 95.0731 6.14616 93.9192 7.90914 93.2427C11.3264 91.9315 15.3081 92.3347 18.5244 93.5854C19.2746 93.8772 19.9976 94.175 20.6982 94.4897C20.5307 93.7323 20.3733 92.9591 20.2373 92.185C19.5623 88.3433 19.1427 83.1321 22.1298 79.2915L22.3173 79.0561C24.2802 76.6703 26.8523 75.6266 29.581 75.8042ZM268.451 20.3911C270.392 20.235 272.11 20.8704 273.5 21.7515C276.131 23.4188 278.274 26.4 279.937 29.1938C280.996 30.9725 281.975 32.8798 282.853 34.7085C285.264 31.7264 288.828 29.0222 293.242 29.022C296.062 29.022 298.187 30.3133 299.618 32.1597C300.911 33.8285 301.599 35.8874 302.045 37.6069C302.373 38.8707 302.656 40.3242 302.893 41.5171L303.33 41.3559C306.16 40.3553 309.214 39.9344 312.417 40.4272C315.43 40.8909 317.713 42.543 318.682 45.2309C319.514 47.5424 319.143 50.0318 318.592 51.9634C318.013 53.993 317.067 55.9833 316.114 57.6206C315.18 59.2257 314.105 60.7205 313.146 61.6792C311.78 63.046 309.564 63.0459 308.197 61.6792C306.83 60.3124 306.83 58.0968 308.197 56.73C308.568 56.3595 309.293 55.4265 310.064 54.1001C310.818 52.8054 311.485 51.3585 311.86 50.0425C312.264 48.6285 312.189 47.8617 312.096 47.603C312.09 47.5866 312.084 47.5757 312.081 47.5688C312.048 47.5455 311.858 47.4239 311.353 47.3462C309.324 47.0341 307.313 47.3154 305.28 48.0972C305.302 48.0887 305.235 48.1181 305.099 48.1821C304.587 49.7253 303.048 50.7454 301.375 50.5513C300.111 50.698 298.811 50.1489 298.057 49.0171C297.053 47.5116 296.58 45.5266 296.265 44.0591C295.886 42.2951 295.665 40.8883 295.269 39.3657C294.885 37.885 294.483 36.9606 294.086 36.4477C293.826 36.1128 293.658 36.022 293.242 36.022C291.656 36.0223 289.652 37.1896 287.821 39.7319C287.224 40.5612 286.72 41.4412 286.311 42.3159C286.587 42.9083 286.81 43.3575 286.99 43.6577C287.985 45.3152 287.448 47.4659 285.79 48.4604C285.394 48.698 284.97 48.8473 284.54 48.9155C283.923 49.9117 282.821 50.5757 281.563 50.5757C279.631 50.5756 278.063 49.0086 278.063 47.0757C278.064 45.6393 278.311 44.1105 278.753 42.5796C278.508 42.0274 278.26 41.4653 278.011 40.9116C276.816 38.2538 275.434 35.3147 273.922 32.7739C272.342 30.1199 270.899 28.3907 269.753 27.6645C269.256 27.3498 269.037 27.3667 269.013 27.3686C269.001 27.3692 268.722 27.384 268.165 27.9145C265.206 30.7332 264.759 34.3516 265.547 39.1968C265.944 41.6392 266.612 44.1326 267.295 46.811C267.954 49.3934 268.636 52.1818 268.878 54.8442C269.053 56.7693 267.634 58.472 265.709 58.647C264.438 58.7624 263.264 58.1834 262.562 57.2222C260.602 57.7144 258.618 58.4851 257.486 59.4224C256.887 59.919 256.849 60.193 256.847 60.2124C256.844 60.2337 256.832 60.3439 256.915 60.5845C257.004 60.8413 257.204 61.2523 257.644 61.8169C257.836 62.065 258.482 62.5999 259.785 63.1333C261.009 63.6343 262.5 64.004 263.985 64.1509C265.494 64.3 266.789 64.199 267.69 63.9311C268.128 63.801 268.393 63.6555 268.535 63.5503C268.661 63.4569 268.678 63.4065 268.679 63.4057C269.484 61.6488 271.562 60.877 273.319 61.6821C273.608 61.8147 273.87 61.9829 274.103 62.1772C275.451 62.1074 276.775 62.8242 277.417 64.1079C288.334 85.9424 284.741 112.803 276.802 134.053C273.889 141.849 269.032 149.979 262.86 156.778C256.702 163.562 249.057 169.211 240.503 171.718C238.648 172.262 236.704 171.199 236.16 169.344C235.617 167.489 236.679 165.545 238.534 165.001C245.491 162.962 252.091 158.227 257.678 152.073C263.251 145.933 267.642 138.569 270.244 131.603C277.589 111.945 280.579 88.4528 272.219 69.5034C271.402 70.023 270.527 70.3907 269.685 70.6411C267.653 71.2447 265.391 71.3237 263.297 71.1167C261.179 70.9073 259.022 70.3851 257.133 69.6118C255.323 68.8709 253.389 67.7492 252.118 66.1147C250.522 64.062 249.601 61.7676 249.899 59.354C250.195 56.9653 251.593 55.2142 253.021 54.0307C255.322 52.1257 258.506 51.0142 260.976 50.4057C260.831 49.8041 260.675 49.1824 260.512 48.5405C259.866 46.0089 259.097 43.1467 258.638 40.3208C257.712 34.6289 257.873 28.0499 263.338 22.8452L263.61 22.5942C264.989 21.3648 266.612 20.5392 268.451 20.3911ZM160.867 0.075671C184.64 -0.795502 206.918 5.76122 222.963 24.6431C236.065 40.0629 241.24 61.484 235.4 81.2095C229.864 99.9106 214.493 116.677 197.939 125.874C174.681 138.795 149.737 138.461 125.416 130.787C102.692 123.616 79.2741 105.995 75.9101 80.272C75.8872 80.2706 75.8638 80.2709 75.8408 80.269C73.914 80.1148 72.4767 78.4273 72.6308 76.5005C76.2897 30.7696 117.702 1.65764 160.867 0.075671ZM217.629 29.1763C203.358 12.3816 183.429 6.25333 161.123 7.07079C122.596 8.4829 86.8507 33.033 80.4052 70.6977C81.6369 71.2396 82.4968 72.471 82.497 73.9028C82.4971 98.5615 104.175 116.743 127.523 124.111C150.563 131.381 173.409 131.494 194.54 119.754C209.807 111.273 223.767 95.8474 228.688 79.2231C233.816 61.9025 229.297 42.9078 217.629 29.1763ZM133.644 66.6968C134.361 66.6968 135.026 66.9134 135.581 67.2827C137.753 67.4967 140.677 67.7873 143.864 68.1577C148.697 68.7194 154.344 69.4879 159.514 70.5268C164.563 71.5416 169.585 72.8928 172.889 74.7807L173.084 74.8979C174.044 75.504 174.762 76.4024 175.124 77.5024C175.479 78.5796 175.418 79.6173 175.268 80.4194C174.976 81.9673 174.169 83.5425 173.327 84.9194C171.589 87.7641 168.818 91.1516 166.035 94.3774C164.624 96.0134 163.167 97.6551 161.786 99.2114C160.398 100.776 159.091 102.25 157.948 103.582C156.797 104.923 155.865 106.06 155.209 106.958C154.881 107.407 154.66 107.743 154.525 107.978C154.486 108.046 154.463 108.096 154.447 108.127C153.974 109.896 152.202 111.017 150.381 110.653C148.485 110.274 147.257 108.429 147.636 106.534L147.706 106.232C147.89 105.539 148.203 104.933 148.448 104.504C148.761 103.957 149.147 103.388 149.558 102.827C150.379 101.702 151.456 100.398 152.636 99.0229C153.824 97.6385 155.171 96.1198 156.55 94.5659C157.936 93.0033 159.361 91.3974 160.735 89.8042C163.525 86.5714 165.948 83.571 167.354 81.269C167.623 80.8295 167.826 80.4581 167.979 80.1518C165.64 79.1443 162.212 78.2086 158.135 77.3891C153.24 76.4055 147.81 75.6635 143.056 75.1108C138.258 74.5531 134.357 74.2101 132.192 73.978C131.683 73.9234 131.215 73.8687 130.874 73.8149C130.769 73.7984 130.425 73.7459 130.079 73.6333C129.979 73.6006 129.769 73.5288 129.524 73.4018C129.411 73.3433 128.667 72.9764 128.139 72.1157C127.814 71.5875 127.533 70.8032 127.644 69.8657C127.753 68.9555 128.184 68.3037 128.532 67.9204C129.123 67.2706 129.794 67.0309 129.915 66.9858C130.315 66.8365 130.667 66.7913 130.735 66.7817C130.876 66.7622 131.005 66.7508 131.102 66.7436C131.299 66.7291 131.522 66.7204 131.748 66.7143C132.208 66.702 132.841 66.6968 133.644 66.6968ZM130.421 22.9028C132.28 22.374 134.216 23.452 134.745 25.311C136.62 31.9026 138.777 39.2498 139.582 46.4975C139.795 48.4185 138.41 50.1483 136.489 50.3618C134.568 50.5751 132.837 49.1911 132.624 47.27C131.896 40.7214 129.934 33.9815 128.013 27.227C127.484 25.3679 128.562 23.4319 130.421 22.9028ZM168.462 19.0015C170.394 19.0583 171.914 20.6702 171.857 22.602C171.679 28.6618 171.883 33.04 173.218 39.0474C173.637 40.9343 172.447 42.8038 170.561 43.2231C168.674 43.6422 166.804 42.4527 166.385 40.5659C164.887 33.8267 164.672 28.8366 164.861 22.397C164.918 20.4652 166.53 18.9449 168.462 19.0015Z" fill="black"/>
</svg>
