<svg width="170" height="234" viewBox="0 0 170 234" fill="none" xmlns="http://www.w3.org/2000/svg">
<path d="M63.2595 86.7339C87.6082 82.703 114.43 87.651 134.439 99.3648C155.73 111.829 166.204 133.227 169.187 156.617C170.355 165.775 170.539 175.176 167.869 184.535C164.412 196.647 158.721 204.26 149.893 212.363C148.469 213.67 146.255 213.575 144.948 212.151C143.641 210.727 143.735 208.513 145.159 207.206C153.306 199.728 158.124 193.172 161.137 182.614C163.443 174.535 163.352 166.195 162.244 157.502C159.449 135.587 149.799 116.467 130.903 105.405C112.351 94.5435 87.1909 89.8677 64.4031 93.6402C41.6756 97.4027 21.7784 109.452 12.7693 131.59C5.01414 150.648 4.78377 171.257 13.8708 189.447C22.195 206.109 38.3763 217.032 56.3054 222.562C89.1526 232.694 127.017 222.358 146.824 193.539C147.919 191.946 150.098 191.542 151.691 192.637C153.284 193.732 153.688 195.91 152.593 197.503C130.812 229.196 89.5893 240.154 54.2429 229.252C35.0997 223.347 17.0376 211.448 7.60911 192.575C-2.49926 172.341 -2.12 149.606 6.2849 128.952C16.4561 103.957 38.8504 90.7749 63.2595 86.7339ZM59.4568 189.465C61.8271 188.47 64.1616 188.22 66.3777 188.709C68.561 189.19 70.3578 190.329 71.7956 191.673C74.5831 194.279 76.4054 198.02 77.5759 200.946C78.2935 202.74 77.4203 204.778 75.6257 205.496C73.8312 206.213 71.7949 205.34 71.0769 203.545C69.9939 200.838 68.6336 198.3 67.0154 196.788C66.2505 196.073 65.5387 195.692 64.8699 195.544C64.2335 195.404 63.3717 195.414 62.1658 195.92C59.5669 197.011 58.0302 198.402 57.1189 199.96C56.1893 201.548 55.7119 203.651 55.8406 206.483C55.9282 208.414 54.4336 210.05 52.5027 210.138C50.5721 210.226 48.9355 208.732 48.8474 206.801C48.6769 203.05 49.2774 199.503 51.0779 196.425C52.8968 193.317 55.7439 191.024 59.4568 189.465ZM29.6736 160.359C31.494 159.709 33.4971 160.658 34.1472 162.478C35.1933 165.407 35.8803 168.353 36.4626 171.183C36.6664 172.174 36.8547 173.132 37.0388 174.072C37.3964 175.897 37.7409 177.656 38.1658 179.461C38.6083 181.343 37.4418 183.228 35.5603 183.67C33.6788 184.113 31.7941 182.946 31.3513 181.065C30.8974 179.136 30.508 177.147 30.1345 175.243C29.9565 174.335 29.7818 173.447 29.6062 172.593C29.0449 169.865 28.4351 167.297 27.5544 164.832C26.9046 163.011 27.8535 161.009 29.6736 160.359ZM71.4353 147.093C73.2978 146.576 75.2275 147.666 75.7449 149.529L80.6296 167.115C81.1465 168.977 80.0561 170.906 78.1941 171.423C76.3317 171.941 74.402 170.85 73.8845 168.988L68.9997 151.402C68.4827 149.54 69.5731 147.611 71.4353 147.093ZM65.5759 111.931C66.0845 110.066 68.0089 108.967 69.8738 109.475C71.7386 109.984 72.8384 111.908 72.3298 113.773C70.6846 119.805 69.1749 125.881 67.654 132.001C67.5803 132.297 67.5061 132.594 67.4324 132.891C65.8398 139.298 64.2283 145.75 62.447 152.163C62.3552 152.493 62.2353 152.988 62.0876 153.596C61.6138 155.548 60.8544 158.672 59.8269 161.333C59.1358 163.122 58.1997 165.071 56.8952 166.614C55.567 168.184 53.526 169.691 50.7585 169.595C45.0872 169.4 40.4076 165.275 37.1042 161.394C33.6561 157.343 30.9171 152.608 29.2556 149.613C25.3304 142.538 23.2313 134.279 21.3835 127.009C21.2914 126.647 21.2002 126.286 21.1091 125.928C20.6319 124.055 21.7636 122.15 23.6365 121.672C25.5094 121.195 27.4149 122.327 27.8923 124.2C27.9585 124.459 28.0245 124.719 28.0906 124.979C30.0048 132.498 31.9039 139.957 35.3767 146.216C37.0064 149.154 39.4661 153.369 42.4343 156.856C45.5412 160.506 48.4922 162.506 50.9851 162.599C50.9916 162.596 51.0006 162.591 51.0124 162.585C51.094 162.54 51.2821 162.411 51.5505 162.093C52.1168 161.424 52.717 160.314 53.2976 158.811C54.142 156.625 54.6896 154.367 55.1531 152.458C55.3456 151.665 55.5234 150.931 55.7019 150.289C57.4541 143.981 59.045 137.617 60.6394 131.203C60.715 130.898 60.7903 130.593 60.866 130.289C62.3819 124.189 63.9092 118.042 65.5759 111.931ZM118.06 68.5435C119.289 67.0515 121.495 66.838 122.987 68.067L124.915 69.6548C126.407 70.8838 126.619 73.0896 125.39 74.5816C124.161 76.0735 121.956 76.2871 120.464 75.0582L118.536 73.4703C117.044 72.2413 116.831 70.0355 118.06 68.5435ZM92.1296 56.523C93.2549 54.465 95.3777 53.8626 96.8708 55.1783L98.2351 56.3804C99.7282 57.6961 100.026 60.4318 98.9011 62.4898C97.7758 64.5476 95.653 65.149 94.1599 63.8336L92.7956 62.6314C91.3025 61.3157 91.0043 58.581 92.1296 56.523ZM123.836 9.10894C130.746 9.42388 138.528 11.7289 144.33 16.0992C145.605 17.06 147.847 18.9335 149.514 21.147C150.344 22.2481 151.19 23.6408 151.593 25.2115C152.019 26.8742 151.963 28.865 150.747 30.6978C149.555 32.4936 147.856 33.7655 146.184 34.7095C144.502 35.6594 142.628 36.3973 140.865 37.0171C139.971 37.3314 138.871 37.692 137.843 38.0289H137.842C137.065 38.2832 136.33 38.5241 135.757 38.7212C134.159 39.2704 132.913 39.7668 132.009 40.2818C130.564 41.105 129.923 41.8625 129.621 42.4214C129.329 42.9614 129.201 43.5967 129.284 44.4703C129.449 46.2033 130.318 48.1657 131.531 50.6802L132.071 51.7925L132.207 52.0718C133.052 53.81 132.328 55.9043 130.59 56.7496C128.851 57.5948 126.756 56.8708 125.911 55.1324C125.803 54.9108 125.691 54.6824 125.576 54.4478V54.4468C124.292 51.8296 122.629 48.44 122.315 45.1314C122.13 43.182 122.379 41.0974 123.462 39.0933C124.534 37.1082 126.266 35.4966 128.545 34.1988C130.051 33.341 131.819 32.6726 133.482 32.1011C133.927 31.9481 134.339 31.81 134.732 31.6802L135.869 31.3082C136.727 31.0292 137.559 30.7586 138.544 30.4127C140.18 29.8373 141.598 29.2603 142.743 28.6138C143.798 28.0178 144.445 27.4605 144.816 26.9654L144.812 26.9488C144.732 26.6352 144.477 26.0945 143.923 25.3589C142.823 23.8995 141.17 22.4835 140.118 21.691C135.65 18.3257 129.303 16.3658 123.517 16.1021C121.586 16.014 120.092 14.3768 120.18 12.4459C120.268 10.5151 121.905 9.02121 123.836 9.10894ZM103.509 0.000544045C105.37 0.038791 106.739 2.0504 106.566 4.49273C105.983 12.7309 104.306 20.584 102.551 28.1363L101.798 31.355C101.357 33.2278 100.921 35.0827 100.506 36.9205C99.9659 39.3061 98.0778 40.8162 96.2878 40.2935C94.4977 39.7704 93.4835 37.4119 94.0232 35.0259C94.4852 32.9834 94.9523 30.9917 95.4109 29.0357C97.3991 20.5551 99.2306 12.7436 99.8249 4.35406C99.9979 1.91193 101.647 -0.0373778 103.509 0.000544045Z" fill="black"/>
</svg>
