<svg width="323" height="198" viewBox="0 0 323 198" fill="none" xmlns="http://www.w3.org/2000/svg">
<path d="M279.279 5.15543C288.399 -0.316673 299.176 -2.23275 309.449 3.49918L309.94 3.78043C320.134 9.77758 323.264 21.4998 321.809 31.8302C320.083 44.0853 310.507 50.9082 300.709 54.4523C300.114 54.6674 299.061 54.9496 298.119 55.2082C297.258 55.4443 296.308 55.7082 295.377 55.9914C296.704 60.5312 297.706 66.3504 296.992 71.6877C296.582 74.7489 295.581 77.8521 293.557 80.4425C291.488 83.0913 288.526 84.9725 284.656 85.8019C279.529 86.9005 275.13 85.3397 271.902 82.3966C268.779 79.5493 266.83 75.5064 266.003 71.4923C265.765 70.3318 265.667 68.5462 265.628 66.9689C258.732 72.4627 252.362 78.7013 245.409 84.8283C229.903 98.4911 215.19 112.774 199.841 126.871C186.166 139.433 172.519 152.314 158.549 164.706C151.528 170.935 144.001 178.488 135.467 183.918C134.319 184.649 132.906 184.626 131.808 183.979C129.956 185.222 128.077 186.377 126.181 187.43C102.923 200.351 77.9789 200.017 53.6578 192.343C30.9344 185.172 7.51602 167.552 4.15193 141.828C4.12909 141.827 4.10552 141.827 4.0826 141.825C2.15591 141.671 0.718616 139.983 0.872637 138.057C4.53121 92.3256 45.9438 63.214 89.109 61.632C112.881 60.7609 135.16 67.3174 151.205 86.1994C164.307 101.619 169.482 123.04 163.642 142.766C162.329 147.202 160.461 151.529 158.156 155.672C170.58 144.52 182.741 133.073 195.106 121.716C210.242 107.813 225.227 93.2814 240.781 79.5763C249.024 72.313 257.466 63.8725 266.949 57.2345C268.532 56.126 270.714 56.5113 271.823 58.0949C272.487 59.0444 272.614 60.2083 272.268 61.2277C272.307 61.3048 272.333 61.3623 272.347 61.3937C272.521 61.7878 272.579 62.1269 272.587 62.1701C272.623 62.3635 272.635 62.5216 272.637 62.5509C272.642 62.6115 272.645 62.6633 272.646 62.6964C272.649 62.7643 272.651 62.8312 272.652 62.8859C272.654 62.9991 272.655 63.1408 272.655 63.3058C272.655 63.4911 272.641 63.6733 272.613 63.8507C272.608 64.2129 272.602 64.6706 272.604 65.1828C272.61 67.1488 272.692 69.2682 272.859 70.0802C273.457 72.9852 274.819 75.5829 276.619 77.2238C278.313 78.7685 280.447 79.5447 283.189 78.9572C285.564 78.4481 287.049 77.4018 288.041 76.133C289.078 74.8057 289.754 72.9995 290.053 70.7599C290.553 67.0226 289.93 62.6444 288.91 58.8527C288.806 58.849 288.701 58.8424 288.595 58.8293C286.677 58.5895 285.316 56.8401 285.556 54.922L285.601 54.6388C285.872 53.2577 286.778 52.3975 287.219 52.0265C287.784 51.552 288.423 51.1901 288.966 50.9211C290.073 50.3729 291.424 49.8966 292.659 49.505C293.923 49.104 295.221 48.744 296.266 48.4572C297.416 48.1418 298.072 47.9616 298.328 47.8693C304.759 45.5429 310.036 42.0313 312.853 36.9523C308.41 37.0445 303.975 37.2809 299.393 37.4718C297.462 37.552 295.831 36.0513 295.751 34.1203C295.67 32.1891 297.171 30.5583 299.102 30.4777C304.303 30.261 309.63 29.9671 314.991 29.9201C315.547 24.7483 314.661 19.6983 312.254 15.6759C312.084 15.7209 311.908 15.7543 311.728 15.7736C305.942 16.3937 300.788 19.0796 295.081 22.3654C293.406 23.3295 291.266 22.7541 290.301 21.0793C289.337 19.4042 289.914 17.2636 291.588 16.299C296.006 13.7558 300.8 11.1217 306.198 9.7023C306.145 9.672 306.092 9.64129 306.039 9.61148C298.577 5.44791 290.542 6.5607 282.88 11.1574C281.223 12.1519 279.073 11.6145 278.079 9.95718C277.084 8.29972 277.622 6.14999 279.279 5.15543ZM145.871 90.7326C131.6 73.9378 111.67 67.8097 89.3648 68.6271C50.8373 70.0392 15.0923 94.5891 8.64705 132.254C9.8786 132.796 10.7388 134.027 10.7388 135.459C10.7391 160.118 32.4173 178.3 55.7652 185.667C78.8043 192.937 101.651 193.05 122.782 181.311C138.049 172.829 152.008 157.404 156.93 140.779C162.058 123.459 157.538 104.464 145.871 90.7326ZM113.577 146.5C115.498 146.287 117.228 147.671 117.442 149.592C117.655 151.513 116.271 153.244 114.35 153.457C104.873 154.51 95.513 156.031 88.0806 160.71C86.445 161.74 84.2834 161.249 83.2535 159.613C82.2238 157.978 82.7149 155.816 84.3502 154.786C93.2844 149.161 104.131 147.55 113.577 146.5ZM69.7838 110.006C70.3512 109.711 71.0958 109.524 71.9234 109.648C72.718 109.766 73.3036 110.127 73.6705 110.436C74.3109 110.975 74.5801 111.596 74.649 111.756C74.7564 112.005 74.8158 112.22 74.8463 112.341C74.8776 112.465 74.9022 112.584 74.9205 112.691L74.9605 112.963L74.9781 113.143C75.0187 113.694 74.9265 114.228 74.7301 114.711C74.7227 115.043 74.7255 115.394 74.7467 115.699C74.7635 115.942 74.7846 116.066 74.7896 116.1L74.7369 115.96C75.4544 117.755 74.5811 119.792 72.7867 120.51C70.9924 121.227 68.9561 120.355 68.2379 118.561C67.8976 117.71 67.803 116.757 67.7633 116.184C67.7159 115.502 67.7158 114.796 67.7398 114.204C67.7603 113.699 67.8076 113 67.9351 112.45C67.9563 112.359 68.0547 111.915 68.3179 111.439C68.4094 111.273 68.8323 110.501 69.7838 110.006ZM111.155 105.879C111.395 103.961 113.144 102.601 115.062 102.841C117.148 103.102 118.282 104.648 118.756 105.439C119.304 106.35 119.655 107.381 119.887 108.213C120.361 109.908 120.59 111.713 120.668 112.258C120.941 114.171 119.611 115.944 117.698 116.217C115.784 116.49 114.011 115.161 113.738 113.247C113.64 112.563 113.471 111.26 113.146 110.099C113.057 109.78 112.973 109.536 112.903 109.359C111.707 108.68 110.974 107.328 111.155 105.879Z" fill="black"/>
</svg>
