<svg width="199" height="205" viewBox="0 0 199 205" fill="none" xmlns="http://www.w3.org/2000/svg">
<path d="M157.373 1.45761C158.765 0.56605 160.879 -0.373169 163.337 0.150968L163.575 0.205655L163.991 0.319913C168.221 1.58714 170.423 5.54075 171.613 8.61874C172.322 10.4523 172.826 12.3917 173.202 14.1226C175.248 13.2445 177.362 12.5528 179.582 12.2223C183.299 11.669 187.1 12.1535 191.218 14.0357C196.601 16.4966 198.715 21.1846 198.804 25.859C198.888 30.3283 197.176 34.9108 194.9 38.3248C193.828 39.9329 191.655 40.3675 190.047 39.2955C188.439 38.2233 188.004 36.0502 189.076 34.442C190.752 31.9281 191.857 28.7234 191.806 25.9908C191.758 23.4636 190.783 21.5338 188.308 20.4019C185.358 19.0535 182.922 18.8024 180.613 19.1461C178.2 19.5054 175.715 20.5425 172.701 22.1383C171.18 22.9436 169.335 22.5145 168.311 21.2047C167.653 20.691 167.175 19.9424 167.019 19.0562C166.617 16.7802 166.095 13.7568 165.084 11.1422C164.012 8.36987 162.852 7.25852 161.907 7.00546C161.847 7.01008 161.618 7.0509 161.149 7.35116C160.444 7.80292 159.734 8.48852 158.924 9.29843C157.618 10.6049 156.672 12.4146 155.727 14.6812C152.51 22.388 150.149 30.4176 147.491 38.6539C146.98 40.2364 145.449 41.2043 143.859 41.066C143.138 41.1281 142.391 40.9686 141.728 40.5601C139.41 39.1342 134.864 37.1273 131.172 36.7379C129.301 36.5406 128.262 36.825 127.793 37.1383C127.573 37.2853 126.976 37.7366 127.001 39.7271C127.048 43.4081 128.952 46.1561 132.107 48.3209C135.348 50.5437 139.652 51.9361 143.604 52.6715C144.071 52.7582 144.498 52.934 144.872 53.1773C145.075 53.129 145.286 53.0979 145.502 53.0865C147.432 52.9851 149.08 54.4678 149.182 56.398C149.702 66.2901 149.099 75.8888 148.777 85.482C148.211 102.334 148.14 119.206 148.14 136.126C148.14 136.254 148.131 136.381 148.117 136.505C148.98 153.975 141.608 169.926 129.993 181.949C116.775 195.631 97.8647 204.461 78.6377 204.883C54.1601 205.421 29.9989 192.499 16.0068 172.612C19.1183 177.465 22.9413 182.004 27.1758 187.008C28.4241 188.484 28.2401 190.692 26.7646 191.941C25.289 193.189 23.0805 193.005 21.832 191.53C14.1712 182.476 6.75773 173.787 3.14548 161.262C0.293934 151.374 -0.579997 141.473 0.36618 131.275C2.34854 109.91 17.2219 90.3434 36.2343 81.1891C57.364 71.0157 82.7236 70.4943 103.965 78.6725C119.735 84.7442 133.365 95.6784 141.242 111.129C141.33 102.506 141.491 93.8773 141.781 85.2467C142.08 76.351 142.576 68.058 142.305 59.5494C137.85 58.7188 132.497 57.0773 128.147 54.0934C123.707 51.0469 120.084 46.4061 120.001 39.815C119.955 36.173 121.184 33.1356 123.904 31.318C126.375 29.6669 129.391 29.5108 131.906 29.776C135.392 30.1436 139.102 31.4493 142.009 32.8004C144.191 25.9235 146.418 18.8105 149.267 11.985C150.276 9.56529 151.648 6.67513 153.975 4.34823C154.714 3.60919 155.932 2.38068 157.373 1.45761ZM101.45 85.2047C81.935 77.6911 58.5877 78.1948 39.2705 87.4957C22.2534 95.6893 9.06985 113.235 7.33591 131.921C6.71407 138.624 6.94888 145.156 8.08884 151.639C8.44033 151.311 8.86573 151.05 9.35056 150.885C11.1808 150.264 13.1684 151.244 13.79 153.074C22.7438 179.437 50.4589 198.501 78.4843 197.885C95.7452 197.506 112.936 189.529 124.959 177.085C136.952 164.67 143.604 148.043 140.369 130.314C136.302 108.023 120.9 92.693 101.45 85.2047ZM91.9912 155.402C93.8864 155.023 95.73 156.252 96.1093 158.147C96.4884 160.042 95.2595 161.886 93.3642 162.265C86.3371 163.671 79.5537 164.851 73.1982 167.051C71.3718 167.683 69.3784 166.716 68.7461 164.889C68.1141 163.063 69.0828 161.068 70.9091 160.436C77.8365 158.038 85.2358 156.753 91.9912 155.402ZM47.4824 120.513C48.8492 119.146 51.0648 119.146 52.4316 120.513C54.3933 122.475 55.2869 125.384 55.8291 127.493C56.1203 128.626 56.3702 129.8 56.5859 130.764C56.8149 131.788 57.0062 132.576 57.206 133.175C57.817 135.009 56.8258 136.991 54.9922 137.602C53.1584 138.213 51.1767 137.222 50.5654 135.388C50.2392 134.41 49.9805 133.3 49.7549 132.292C49.5158 131.223 49.3047 130.227 49.0498 129.236C48.4995 127.096 47.9556 125.936 47.4824 125.462C46.1156 124.096 46.1157 121.88 47.4824 120.513ZM95.0976 114.697C95.3376 112.779 97.087 111.419 99.0049 111.659C100.529 111.85 101.371 112.86 101.699 113.352C102.048 113.874 102.226 114.399 102.32 114.722C102.518 115.4 102.617 116.159 102.676 116.81C102.799 118.17 102.818 119.884 102.799 121.518C102.779 123.179 102.718 124.874 102.663 126.233C102.605 127.674 102.562 128.581 102.561 128.88C102.561 130.813 100.994 132.38 99.0615 132.38C97.1287 132.38 95.5617 130.813 95.5615 128.88C95.5615 128.393 95.6181 127.208 95.6689 125.95C95.7231 124.609 95.7803 122.994 95.7988 121.435C95.8176 119.849 95.7936 118.43 95.7041 117.442C95.6917 117.305 95.679 117.185 95.666 117.081C95.2119 116.405 94.9888 115.568 95.0976 114.697Z" fill="black"/>
</svg>
