<svg width="315" height="228" viewBox="0 0 315 228" fill="none" xmlns="http://www.w3.org/2000/svg">
<path d="M88.7467 0.0756617C112.519 -0.795449 134.798 5.76117 150.842 24.643C163.945 40.0629 169.119 61.484 163.28 81.2095C160.579 90.3321 155.537 98.9938 149.16 106.541C158.26 105.846 167.41 104.024 176.664 101.851C180.198 101.021 183.777 100.132 187.374 99.2387H187.375L192.444 97.9848C197.519 96.7391 202.603 95.5351 207.623 94.5259C213.483 93.3476 219.362 92.1295 225.252 90.9096H225.253C233.344 89.2338 241.456 87.5537 249.57 85.9653C249.572 85.0592 249.648 84.0582 249.877 82.9155C250.338 80.6088 251.318 77.7615 252.629 75.1362C253.906 72.5778 255.704 69.8101 258.003 68.0561C264.689 62.9531 273.69 64.5754 278.964 70.3774C282.091 73.8171 282.684 77.957 282.481 81.6098C283.994 81.3239 285.37 81.1415 286.045 81.0522C286.186 81.0336 286.296 81.0189 286.371 81.0083C293.686 79.9632 301.005 80.0307 308.377 83.143C311.51 84.4661 314.133 86.7124 314.245 90.1909C314.341 93.1841 312.434 95.6399 310.845 97.2202C309.106 98.9499 306.9 100.465 304.873 101.613C304.321 101.925 303.76 102.222 303.205 102.498C304.268 102.847 305.323 103.279 306.299 103.798C307.978 104.691 309.86 106.075 310.906 108.187C312.067 110.531 311.895 113.141 310.551 115.637C308.077 120.233 303.835 122.065 299.732 122.492C295.745 122.906 291.606 122.056 288.412 121.073C287.714 120.858 287.131 120.445 286.708 119.915C286.499 120.776 285.968 121.527 285.235 122.012C285.189 122.15 285.153 122.265 285.129 122.341L285.123 122.359C284.796 123.375 284.607 124.338 284.379 125.499L284.043 127.155C283.653 128.975 283.086 131.12 281.823 133.188C279.024 137.768 274.327 139.352 270.008 138.93C265.821 138.521 261.661 136.226 259.258 132.623C258.186 131.014 258.621 128.841 260.229 127.769C261.837 126.697 264.011 127.131 265.084 128.74C266.228 130.457 268.421 131.742 270.689 131.963C272.827 132.172 274.688 131.437 275.849 129.538C276.484 128.498 276.854 127.288 277.197 125.689C277.272 125.337 277.35 124.943 277.433 124.521C277.688 123.222 277.997 121.653 278.459 120.217L278.469 120.182C278.549 119.933 278.913 118.788 279.323 117.887C279.436 117.638 279.592 117.32 279.786 117.008L279.793 116.997C279.911 116.806 280.355 116.092 281.173 115.595C281.673 115.293 282.614 114.893 283.796 115.136C284.988 115.382 285.705 116.134 286.055 116.639C286.069 116.659 286.083 116.679 286.096 116.699C286.665 114.851 288.623 113.814 290.47 114.382C293.258 115.24 296.361 115.805 299.007 115.53C301.537 115.267 303.32 114.303 304.388 112.319C304.818 111.522 304.646 111.31 304.633 111.294L304.632 111.293C304.516 111.058 304.098 110.556 303.011 109.978C300.835 108.82 297.722 108.275 296.258 108.275C294.326 108.275 292.759 106.708 292.758 104.775C292.758 103.32 293.647 102.071 294.911 101.543L294.909 101.533C294.44 99.6576 295.58 97.7575 297.455 97.2886C298.219 97.0976 299.705 96.4942 301.424 95.521C303.115 94.5641 304.755 93.4047 305.909 92.2573C306.853 91.3184 307.13 90.7319 307.212 90.5102C307.047 90.3323 306.629 90.0032 305.654 89.5913C299.887 87.1565 293.984 86.9918 287.361 87.938C287.235 87.956 287.076 87.9775 286.89 88.0024C285.757 88.1549 283.622 88.4423 281.823 88.9243C281.632 88.9755 281.453 89.0268 281.288 89.0776C281.147 89.8067 280.774 90.4974 280.176 91.0288C278.732 92.3126 276.52 92.1822 275.236 90.7378C274.506 89.9168 273.769 88.576 274.061 86.8999C274.215 86.0154 274.612 85.3247 275.039 84.8071C275.047 84.6648 275.063 84.5212 275.089 84.3774C275.838 80.2601 275.721 77.2167 273.785 75.0864C270.623 71.6081 265.672 71.0087 262.25 73.6206C261.208 74.4156 259.991 76.0613 258.891 78.2632C257.825 80.3979 257.066 82.6577 256.74 84.2886C256.68 84.5901 256.638 84.8729 256.611 85.146C257.702 85.567 258.557 86.5244 258.792 87.7573C259.115 89.4562 258.152 91.1021 256.586 91.6889C256.087 93.0144 254.808 93.9575 253.308 93.9575C252.307 93.9575 251.404 93.5374 250.766 92.8637C242.751 94.4337 234.771 96.087 226.769 97.7446H226.765V97.7456L217.902 99.5766C214.942 100.185 211.977 100.79 209.003 101.388C202.448 102.706 195.93 104.326 189.296 105.975C185.662 106.878 181.992 107.791 178.263 108.666C167.851 111.112 157.195 113.212 146.44 113.724C145.317 113.778 144.294 113.296 143.615 112.503C138.163 117.838 132.076 122.397 125.819 125.874C104.705 137.603 82.2019 138.41 60.0367 132.717C66.2539 136.827 72.4442 140.987 78.5816 145.231C80.2196 146.364 81.8267 147.488 83.4166 148.601C88.9324 152.461 94.2406 156.177 99.9098 159.572C103.018 156.274 107.295 152.657 112.159 150.612C117.123 148.524 122.985 147.987 128.574 151.482C131.662 153.413 133.553 156.09 133.611 159.361C133.663 162.332 132.163 164.953 130.58 166.925C128.384 169.659 125.277 172.074 122.568 173.789L123.178 174.524C127.593 179.848 132.139 185.33 136.155 191.15C137.644 193.308 139.333 196.024 140.032 199.24L140.045 199.298C140.268 200.325 140.628 201.984 140.626 203.663C140.623 205.369 140.247 207.749 138.324 209.556C134.942 212.734 130.238 212.452 126.901 211.767C124.976 211.372 123.071 210.749 121.412 210.129C121.044 212.324 120.482 214.476 119.559 216.521C118.014 219.947 115.551 222.882 111.741 225.328C106.76 228.524 101.672 227.767 97.693 225.313C93.8882 222.967 90.9596 219.049 89.3189 215.289C88.546 213.517 89.3558 211.453 91.1275 210.68C92.8991 209.907 94.9619 210.717 95.735 212.489C96.943 215.258 99.0405 217.92 101.367 219.355C103.519 220.682 105.669 220.906 107.961 219.436C110.69 217.684 112.219 215.771 113.178 213.643C114.181 211.419 114.652 208.768 114.94 205.37C115.086 203.653 116.447 202.331 118.105 202.179C118.891 201.906 119.778 201.91 120.606 202.257L120.733 202.311C122.849 203.198 125.617 204.358 128.309 204.911C131.225 205.509 132.787 205.133 133.51 204.473C133.541 204.415 133.625 204.198 133.626 203.651C133.627 202.813 133.435 201.846 133.192 200.726C132.8 198.921 131.788 197.147 130.393 195.125C126.57 189.586 122.271 184.4 117.873 179.093L117.871 179.091C116.812 177.814 115.748 176.53 114.683 175.233C113.628 173.947 113.642 172.134 114.619 170.872C114.957 170.232 115.495 169.691 116.197 169.354C118.649 168.176 122.796 165.439 125.121 162.543C126.299 161.076 126.622 160.048 126.612 159.484C126.607 159.22 126.551 158.473 124.863 157.417C121.741 155.466 118.399 155.581 114.872 157.065C111.25 158.588 107.751 161.455 104.995 164.382C104.67 164.727 104.291 164.992 103.884 165.175C103.815 165.372 103.727 165.566 103.62 165.754C102.661 167.433 100.523 168.017 98.8443 167.058C91.946 163.119 85.5977 158.674 79.2818 154.252L79.2809 154.251C77.7212 153.16 76.1636 152.069 74.6002 150.988C60.7311 141.397 46.5784 132.212 32.3463 123.061C31.2638 122.365 30.6934 121.172 30.7418 119.973C16.9925 110.729 6.01251 97.2698 3.78965 80.272C3.76678 80.2706 3.74325 80.2708 3.72031 80.269C1.79355 80.1148 0.356206 78.4273 0.510349 76.5005C4.16919 30.7696 45.5817 1.65763 88.7467 0.0756617ZM145.508 29.1762C131.238 12.3815 111.308 6.25338 89.0025 7.07078C50.4752 8.48289 14.7303 33.0331 8.28476 70.6977C9.51632 71.2397 10.3764 72.471 10.3766 73.9028C10.3767 98.5615 32.055 116.743 55.4029 124.111C78.4421 131.381 101.289 131.494 122.42 119.754C137.687 111.272 151.646 95.8473 156.568 79.2231C161.696 61.9025 157.176 42.9077 145.508 29.1762ZM89.773 101.359C90.1781 99.4689 92.0384 98.2656 93.9283 98.6704C100.549 100.089 106.06 99.8527 113.432 99.2856C115.359 99.1375 117.042 100.58 117.19 102.507C117.338 104.434 115.896 106.117 113.969 106.265C106.5 106.84 100.132 107.158 92.4615 105.514C90.5718 105.109 89.3683 103.249 89.773 101.359ZM307.271 90.5786C307.286 90.6308 307.303 90.6554 307.309 90.6557C307.314 90.6546 307.307 90.6277 307.271 90.5786ZM98.608 52.1919C100.497 51.7839 102.36 52.9844 102.768 54.8735C104.134 61.1924 103.312 67.519 102.835 73.0044C102.667 74.9296 100.97 76.3549 99.0445 76.188C97.119 76.0205 95.6928 74.3235 95.86 72.3979C96.3784 66.4356 97.0148 61.3863 95.9264 56.352C95.5181 54.4628 96.7188 52.6004 98.608 52.1919ZM134.475 45.9858C136.394 45.7569 138.137 47.1271 138.366 49.0464C138.995 54.3194 139.074 59.4014 139.074 64.4985C139.074 66.4312 137.507 67.9983 135.574 67.9985C133.641 67.9985 132.074 66.4314 132.074 64.4985C132.074 59.4458 131.992 54.7126 131.415 49.8764C131.185 47.9571 132.556 46.215 134.475 45.9858Z" fill="black"/>
</svg>
