<svg width="227" height="207" viewBox="0 0 227 207" fill="none" xmlns="http://www.w3.org/2000/svg">
<path d="M47.2429 66.8239C89.4615 52.3672 137.127 73.6519 154.681 114.611L155.041 115.47C162.335 133.327 161.051 157.037 150.181 173.377L149.647 174.161C139.126 189.311 122.701 198.628 105.611 203.547L103.956 204.008C85.8422 208.912 62.935 207.267 45.697 199.321L44.8806 198.938C28.9068 191.309 17.0255 181.146 6.8484 166.965L5.86891 165.58L5.7693 165.429C4.8688 163.988 5.14402 162.116 6.38356 160.99C-1.11232 144.075 -2.20281 125.532 4.15602 106.945L4.48024 106.024C11.4377 86.769 27.8757 73.7224 46.2468 67.1725L47.2429 66.8239ZM148.247 117.368C132.129 79.7614 88.2512 60.182 49.5115 73.446L48.5974 73.7653C31.6301 79.8146 17.131 91.6136 11.0623 108.408L10.7791 109.211C3.48391 130.535 6.94103 151.72 19.5056 170.197C19.9351 170.828 20.1289 171.55 20.1091 172.259C27.8823 180.762 36.809 187.326 47.8972 192.622L48.6394 192.97C64.3184 200.194 85.5303 201.745 102.127 197.252L103.685 196.817C119.749 192.193 134.57 183.602 143.898 170.169L144.361 169.487C153.795 155.293 155.074 134.075 148.568 118.135L148.247 117.368ZM97.9773 145.826C98.2729 143.998 99.9538 142.704 101.815 142.909C103.737 143.121 105.123 144.85 104.911 146.771L104.677 148.798C104.107 153.513 103.384 158.14 102.627 162.768C102.314 164.675 100.515 165.969 98.6072 165.657C96.6998 165.345 95.4066 163.545 95.7185 161.637C96.5801 156.372 97.3764 151.235 97.9529 146.004L97.9773 145.826ZM57.7459 145.278C58.7954 145.011 59.7018 145.277 60.2781 145.583C61.1902 146.067 61.6246 146.817 61.6873 146.92C61.84 147.169 61.9426 147.399 62.0007 147.537C62.1225 147.825 62.2191 148.124 62.2879 148.351C62.5589 149.248 62.8247 150.487 62.8953 150.896L63.0056 151.604C63.2387 153.254 63.3005 154.887 63.3338 156.375C63.3735 158.153 63.3739 159.659 63.4988 161.158L63.5095 161.339C63.5694 163.189 62.1675 164.782 60.3015 164.937C58.3755 165.098 56.6839 163.666 56.5232 161.74L56.4734 161.069C56.3729 159.501 56.3664 157.907 56.3357 156.531C56.3034 155.086 56.246 153.794 56.0769 152.594L55.9968 152.086C55.9962 152.082 55.9931 152.061 55.9851 152.021C55.9767 151.979 55.9648 151.923 55.9509 151.857C55.9452 151.83 55.9388 151.801 55.9324 151.771C55.3571 151.147 55.0047 150.314 55.0047 149.399C55.0047 149.084 55.0131 148.594 55.1101 148.113C55.1387 147.971 55.2736 147.251 55.8093 146.554C56.1236 146.146 56.7429 145.533 57.7459 145.278ZM64.0017 100.95C70.1265 98.6077 76.9952 98.5447 83.0769 100.065L83.6228 100.206C89.2181 101.706 93.4238 104.43 97.1629 109.037L97.4675 109.425C100.533 113.453 101.055 118.161 101.516 121.853C101.756 123.771 100.395 125.521 98.4773 125.76C96.5594 126 94.8101 124.64 94.5701 122.722C94.0713 118.732 93.6371 115.945 91.8992 113.667L91.7273 113.448C88.8282 109.876 85.7856 107.958 81.3787 106.856C76.4525 105.625 71.08 105.74 66.5066 107.487L66.0662 107.661C61.3222 109.605 58.2684 113.694 55.6043 118.97L52.4802 117.392L49.3562 115.815C52.2462 110.092 56.2831 104.106 63.4119 101.184L64.0017 100.95ZM55.6043 118.97C54.733 120.696 52.6284 121.388 50.9031 120.517C49.1776 119.646 48.4849 117.541 49.3562 115.815L55.6043 118.97ZM204.987 80.0349C206.718 79.1754 208.82 79.8827 209.679 81.614C211.41 85.1002 213.136 88.5507 214.928 91.9567C216.336 90.0206 217.791 88.2805 219.425 86.4645C219.836 86.0073 220.165 85.647 220.412 85.3854C220.533 85.2567 220.654 85.1309 220.764 85.0222C220.765 85.0211 220.767 85.0187 220.769 85.0163C220.815 84.9706 221.088 84.6978 221.428 84.4743L221.43 84.4733C221.517 84.4165 221.854 84.1928 222.339 84.0436C222.538 83.9824 224.8 83.3226 226.243 85.3825C226.806 86.187 226.874 86.989 226.877 87.3718C226.879 87.7831 226.808 88.1049 226.765 88.2692C226.68 88.6002 226.565 88.8454 226.524 88.9313C226.378 89.236 226.196 89.497 226.15 89.5622C226.148 89.5655 226.146 89.5687 226.144 89.571C225.99 89.7928 225.771 90.0808 225.539 90.3825C224.812 91.3256 223.51 92.9542 221.934 94.9265C221.446 95.5371 220.932 96.1809 220.4 96.8474C215.811 102.599 209.916 110.059 207.367 113.95C206.308 115.566 204.139 116.018 202.522 114.96C200.906 113.901 200.453 111.731 201.511 110.114C203.413 107.211 206.901 102.647 210.356 98.2477C210.119 97.8555 209.899 97.422 209.809 97.2458C209.791 97.2095 209.778 97.1834 209.771 97.1716C207.558 93.0442 205.467 88.8722 203.409 84.7272C202.55 82.9961 203.256 80.8945 204.987 80.0349ZM178.105 63.611C180.372 63.1389 182.045 64.327 182.933 65.445C183.715 66.4289 184.145 67.6089 184.398 68.4411C184.672 69.341 184.861 70.2625 184.995 70.9391C185.018 71.0581 185.04 71.1661 185.059 71.2653C185.1 71.4742 185.134 71.6468 185.168 71.8083C185.207 71.9964 185.227 72.0708 185.227 72.0759H185.226C185.367 72.4995 185.516 72.985 185.647 73.4196C185.707 73.6158 185.762 73.8022 185.813 73.9675C186.001 74.5728 186.178 75.0905 186.371 75.5485C186.515 75.8896 186.649 76.1511 186.773 76.3513C186.87 76.3104 186.976 76.2636 187.092 76.2106C188.152 75.7243 189.418 74.9929 190.855 74.1628C190.978 74.0917 191.103 74.0194 191.228 73.947C192.674 73.1124 194.408 72.1191 195.866 71.57C196.535 71.3181 197.637 70.9614 198.821 71.0641C199.483 71.1216 200.344 71.3374 201.136 71.9597C201.958 72.6046 202.41 73.4532 202.616 74.2487C203.049 75.9237 202.591 77.5484 202.213 78.5749C201.79 79.7213 201.176 80.8646 200.589 81.8561C199.991 82.8637 199.347 83.8372 198.817 84.6306L198.759 84.7184C198.217 85.5302 197.872 86.0456 197.688 86.3718C196.149 89.103 194.823 91.802 193.445 94.6052C192.786 95.9447 192.115 97.3079 191.404 98.7106C190.53 100.435 188.423 101.124 186.699 100.25C184.975 99.3754 184.287 97.2695 185.161 95.5456C185.789 94.306 186.418 93.0288 187.055 91.7321C188.48 88.8352 189.954 85.8382 191.591 82.9343C191.879 82.4229 192.303 81.7791 192.712 81.1667C191.803 81.6776 190.871 82.1777 190.01 82.5729C189.248 82.9222 188.36 83.2771 187.464 83.4636C186.69 83.6243 185.155 83.8271 183.698 82.9479C181.647 81.7106 180.564 79.7954 179.921 78.2712C179.498 77.2706 179.116 76.0128 178.842 75.1091C178.738 74.7693 178.65 74.4785 178.581 74.2712C178.459 73.9051 178.372 73.509 178.316 73.2438C178.272 73.035 178.224 72.7896 178.178 72.5573C178.161 72.4682 178.145 72.3805 178.129 72.2975C178.098 72.1429 178.067 71.9902 178.036 71.8405C177.866 72.0368 177.69 72.2501 177.511 72.4792C176.646 73.581 175.898 74.7511 175.236 75.7858C175.036 76.0995 174.842 76.4012 174.657 76.6843C174.484 76.9484 174.304 77.2608 174.054 77.6921C173.945 77.8806 173.822 78.0926 173.681 78.3327C173.268 79.0396 172.745 79.9045 172.135 80.7272C171.122 82.0906 168.924 84.6625 165.53 84.4333C163.602 84.3029 162.144 82.6333 162.274 80.7048C162.398 78.8737 163.909 77.4662 165.712 77.4401C165.884 77.3068 166.156 77.0358 166.513 76.5544C166.888 76.0493 167.256 75.4544 167.641 74.7956C167.721 74.6599 167.806 74.5113 167.895 74.3571C168.185 73.8569 168.514 73.289 168.802 72.8493C168.921 72.6673 169.065 72.4412 169.229 72.1833C169.895 71.1391 170.903 69.5609 172.004 68.1579C172.704 67.2651 173.534 66.3202 174.464 65.527C175.358 64.7637 176.592 63.9264 178.105 63.611ZM145.567 41.3727C146.439 41.0378 147.442 40.9002 148.483 41.1325C149.511 41.3618 150.304 41.8918 150.876 42.4479C151.919 43.464 152.447 44.7857 152.732 45.6677C153.227 47.1968 153.476 49.0883 153.57 49.8083C153.586 49.9322 153.598 50.0224 153.605 50.069C153.772 51.0917 153.826 52.1281 153.867 52.9811C153.871 53.0627 153.875 53.1437 153.879 53.2224C153.917 54.0289 153.948 54.6885 154.024 55.3239C154.104 55.989 154.22 56.4744 154.368 56.8425C154.655 56.6597 154.968 56.4357 155.309 56.1784C155.487 56.0444 155.654 55.9164 155.827 55.7829C155.882 55.7407 155.937 55.6977 155.994 55.654C156.211 55.4865 156.466 55.2925 156.708 55.1218C156.807 55.0521 157.06 54.8605 157.459 54.5612C157.672 54.4013 157.926 54.2101 158.22 53.9899C159.013 53.3964 160.011 52.656 160.992 51.9538C161.953 51.266 162.975 50.5586 163.797 50.0641C164.169 49.8403 164.688 49.5448 165.211 49.3483L165.215 49.3464C165.4 49.2765 166.043 49.0357 166.846 49.0729C167.294 49.0937 168.128 49.2148 168.923 49.8434C169.809 50.5444 170.178 51.4974 170.261 52.2751C170.425 53.8266 170.078 55.32 169.658 56.5329C169.227 57.7788 168.623 58.9962 168.025 60.0778C167.435 61.146 166.796 62.1799 166.258 63.0505L166.229 63.0954C165.651 64.0295 165.236 64.7054 164.974 65.2136C162.857 69.3256 160.889 73.5094 159.02 77.7536C158.241 79.5227 156.175 80.3264 154.406 79.5475C152.637 78.7687 151.835 76.7032 152.613 74.9343C154.454 70.7531 156.4 66.6036 158.497 62.5046C158.183 62.7164 157.846 62.9299 157.495 63.1276C156.755 63.5451 155.71 64.0369 154.51 64.1862C153.186 64.3508 151.594 64.0928 150.259 62.8923C147.976 60.8386 147.323 58.2165 147.075 56.1628C146.966 55.2566 146.923 54.3354 146.887 53.571C146.883 53.4837 146.879 53.398 146.875 53.3151C146.833 52.4407 146.791 51.7757 146.697 51.1979C146.666 51.0062 146.632 50.7586 146.602 50.5407C146.597 50.4991 146.591 50.4575 146.586 50.4186C146.548 50.1447 146.507 49.8521 146.457 49.5446C146.433 49.3984 146.409 49.2527 146.383 49.111C146.059 49.4208 145.709 49.7918 145.33 50.2282C144.779 50.8634 144.244 51.5433 143.672 52.2731L143.644 52.3073C143.104 52.9958 142.507 53.7576 141.91 54.4304C139.58 57.0554 137.283 60.1084 135.114 63.03C133.962 64.5817 131.77 64.9056 130.219 63.7536C128.667 62.6013 128.343 60.4091 129.495 58.8571C131.651 55.9525 134.115 52.6673 136.675 49.7839C137.114 49.2891 137.586 48.69 138.165 47.9518L138.196 47.9128C138.743 47.2161 139.371 46.414 140.043 45.6403C141.353 44.131 143.182 42.2894 145.567 41.3727ZM112.01 23.8991C113.052 22.2718 115.217 21.7978 116.844 22.8405C118.472 23.8833 118.946 26.048 117.903 27.6755C115.673 31.1553 113.101 35.6726 112.129 39.8903C111.65 41.9658 111.617 43.7329 112.018 45.1657C112.395 46.5085 113.209 47.7798 114.897 48.8854C115.402 49.2163 115.797 49.2577 116.214 49.1823C116.729 49.0889 117.43 48.7732 118.261 48.1091C123.453 43.9559 128.039 38.1826 131.845 32.3708C132.905 30.7538 135.074 30.3011 136.691 31.36C138.308 32.4192 138.76 34.5888 137.701 36.2058C133.7 42.3141 128.642 48.7686 122.633 53.5749C119.865 55.7888 115.466 57.6251 111.062 54.7409C108.002 52.7363 106.125 50.078 105.278 47.0563C104.456 44.1245 104.667 41.0914 105.306 38.3171C106.571 32.8342 109.735 27.4479 112.01 23.8991ZM84.699 0.362977C86.4316 -0.49337 88.5308 0.217326 89.3875 1.94989C90.4203 4.03889 90.5711 6.32118 90.6531 7.93622C90.6667 8.20475 90.6788 8.45806 90.6902 8.69794C90.7584 10.1379 90.8037 11.0942 91.0437 11.9509C91.608 13.9645 92.4416 16.3151 93.5164 18.4479C94.6168 20.6316 95.8339 22.3128 97.0447 23.2731C97.0839 23.3042 97.122 23.3332 97.159 23.36C98.4007 22.2304 99.6385 21.118 100.858 20.0212C101.563 19.3877 102.262 18.7592 102.953 18.1354C104.83 16.4407 106.647 14.6227 108.395 12.7448C108.397 12.7426 108.416 12.722 108.456 12.6745C108.506 12.6143 108.565 12.5408 108.642 12.445C108.654 12.4306 108.667 12.4149 108.679 12.3991C108.816 12.2296 109.009 11.9898 109.193 11.778C109.296 11.6603 109.43 11.5109 109.581 11.362C109.691 11.2531 109.983 10.9684 110.388 10.7214C110.579 10.6055 111.035 10.3462 111.675 10.236C112.402 10.1108 113.591 10.1628 114.618 11.0632C115.515 11.8497 115.732 12.8144 115.794 13.2204C115.862 13.6744 115.83 14.0492 115.807 14.2429C115.665 15.458 115.014 16.445 114.705 16.8942C114.301 17.4806 113.819 18.052 113.391 18.53C112.955 19.018 112.505 19.4877 112.148 19.8591C111.748 20.2756 111.534 20.5001 111.429 20.6227C111.159 20.9407 110.833 21.3463 110.461 21.8083C109.065 23.5411 107.021 26.0773 104.854 27.8522C103.49 28.97 101.756 30.0789 99.7254 30.5065C94.9491 34.9253 90.3891 39.4491 86.5515 44.363C85.3618 45.8864 83.1619 46.1572 81.6384 44.9675C80.115 43.7777 79.8442 41.5778 81.034 40.0544C84.3295 35.8345 88.1081 31.8957 91.9978 28.1647C89.9857 26.3416 88.4353 23.9198 87.2654 21.5983C85.9381 18.9644 84.9562 16.1689 84.3035 13.8395C83.8281 12.1429 83.7488 10.272 83.6902 8.89716C83.6811 8.68242 83.6714 8.4787 83.6619 8.29071C83.5777 6.63348 83.4317 5.69887 83.1121 5.05243C82.2555 3.31972 82.9663 1.21969 84.699 0.362977Z" fill="black"/>
</svg>
