<svg width="330" height="81" viewBox="0 0 330 81" fill="none" xmlns="http://www.w3.org/2000/svg">
<path d="M17.8081 5.52582C5.07822 26.8086 -7.46756 49.828 16.8532 66.7467C29.1847 75.3252 47.1789 77.9756 62.1588 75.7654C81.9246 72.8491 97.7178 63.5697 109.374 47.5422C118.313 35.251 120.245 17.2604 103.751 10.5126C89.7309 4.77723 75.1033 18.9022 75.1033 32.688C75.1033 49.2062 86.3544 63.3926 99.9312 71.4152C131.636 90.1501 169.244 65.6316 190.118 39.9029C201.394 26.0048 198.884 12.3089 182.16 4.78312C166.542 -2.24483 155.617 20.0644 157.651 32.2636C163.105 64.9873 205.771 78.4908 233.726 69.5054C251.929 63.6544 263.918 52.8671 275.636 37.5687C284.14 26.4663 285.484 9.63343 269.907 4.67702C252.025 -1.01247 241.287 25.1325 245.928 39.0541C256.302 70.1768 301.989 68.5505 327.202 68.5505" stroke="#1C1C1C" stroke-width="5" stroke-linecap="round"/>
</svg>
