<svg width="107" height="208" viewBox="0 0 107 208" fill="none" xmlns="http://www.w3.org/2000/svg">
<path d="M96.9415 3C83.9651 12.7688 62.6129 29.9891 69.2488 49.8971C72.474 59.573 73.6933 67.4991 83.5725 72.1785C103.66 81.6933 111.734 46.8067 93.8645 37.4832C58.0667 18.8058 19.9441 43.0797 20.5479 81.7278C20.8272 99.6036 29.9675 116.662 45.3758 126.078C52.6148 130.502 64.8727 133.272 68.2939 122.153C75.9073 97.4083 44.9218 80.5504 24.2615 91.9135C-8.99973 110.207 0.847845 158.246 25.853 178.705C25.9998 178.825 45.1635 193.231 45.1635 189.103C45.1635 180.949 29.0848 160.842 32.113 168.413C35.1128 175.913 42.3016 179.139 47.2857 184.435C49.6022 186.896 24.8867 202.189 20.5479 205.443" stroke="#1C1C1C" stroke-width="5" stroke-linecap="round"/>
</svg>
