<svg width="83" height="123" viewBox="0 0 83 123" fill="none" xmlns="http://www.w3.org/2000/svg">
<path d="M78.1962 60.5398C68.6178 44.6888 57.7843 28.8722 50.2851 11.8287C49.0822 9.09489 47.8894 5.5718 45.8406 3.29534C42.9846 0.12182 28.0279 23.5019 25.7518 26.5842C23.7884 29.243 -3.83549 60.5398 4.5962 60.5398C9.35888 60.5398 30.1962 60.2274 30.1962 65.3398C30.1962 81.9495 28.5962 98.3099 28.5962 114.94C28.5962 120.053 45.9344 119.74 50.9962 119.74C55.0331 119.74 58.9962 121.17 58.9962 116.184C58.9962 105.221 58.9962 94.2583 58.9962 83.2954C58.9962 81.6216 56.857 58.3281 59.3518 58.0509C63.8727 57.5486 75.9178 61.8006 79.7962 63.7398" stroke="#1C1C1C" stroke-width="5" stroke-linecap="round"/>
</svg>
