<svg width="83" height="123" viewBox="0 0 83 123" fill="none" xmlns="http://www.w3.org/2000/svg">
<path d="M4.80383 62.4602C14.3822 78.3112 25.2157 94.1278 32.7149 111.171C33.9178 113.905 35.1106 117.428 37.1594 119.705C40.0154 122.878 54.9721 99.4981 57.2482 96.4158C59.2116 93.757 86.8355 62.4602 78.4038 62.4602C73.6411 62.4602 52.8038 62.7726 52.8038 57.6602C52.8038 41.0505 54.4038 24.6901 54.4038 8.06022C54.4038 2.94675 37.0656 3.26017 32.0038 3.26017C27.967 3.26017 24.0038 1.82973 24.0038 6.81576C24.0038 17.7787 24.0038 28.7417 24.0038 39.7046C24.0038 41.3784 26.143 64.6719 23.6482 64.9491C19.1273 65.4514 7.08224 61.1994 3.20386 59.2602" stroke="#1C1C1C" stroke-width="5" stroke-linecap="round"/>
</svg>
