<svg width="166" height="150" viewBox="0 0 166 150" fill="none" xmlns="http://www.w3.org/2000/svg">
<path d="M3 90.6971C18.8558 134.112 39.4963 151.394 85.9718 146.082C117.8 142.445 149.319 123.764 159.607 91.7581C170.593 57.579 154.038 16.955 119.606 5.81542C89.3218 -3.98244 52.4774 12.8975 36.316 39.3437C23.3259 60.6004 34.3121 91.0633 57.9609 99.8219C64.7505 102.337 79.5273 109.446 73.6639 99.1853C71.8764 96.0571 66.7025 86.6092 68.0406 89.9544C69.5544 93.7388 76.8228 96.8267 79.8179 99.8219C84.9426 104.947 80.8922 103.412 75.5738 104.172C68.9342 105.121 63.0596 110.059 56.4754 111.705" stroke="#1C1C1C" stroke-width="5" stroke-linecap="round"/>
</svg>
