<svg width="222" height="178" viewBox="0 0 222 178" fill="none" xmlns="http://www.w3.org/2000/svg">
<path d="M38.5633 100.848C27.1349 107.428 12.5052 113.216 6.24488 125.747C4.43191 129.376 3.7877 134.158 5.69007 137.857C8.28344 142.899 12.5789 146.314 17.6842 148.638C25.666 152.271 34.2019 154.558 42.7398 156.417C66.3686 161.562 90.3944 161.532 114.334 158.715C137.532 155.986 160.467 151.06 181.904 141.557C193.316 136.498 212.851 126.473 210.324 110.989C209.394 105.288 203.47 100.966 198.88 98.2395C190.929 93.5162 181.896 90.7952 172.875 88.9469C146.105 83.4619 117.94 83.9903 91.115 88.7786C68.8178 92.7586 46.6365 99.6717 26.9737 110.999" stroke="#FF4392" stroke-width="7.1861" stroke-linecap="round"/>
<path d="M102.058 104.214C103.387 108.016 103.953 111.927 105.052 115.783" stroke="#FF4392" stroke-width="7.1861" stroke-linecap="round"/>
<path d="M148.042 98.0155C148.733 101.322 148.876 104.616 149.004 107.982" stroke="#FF4392" stroke-width="7.1861" stroke-linecap="round"/>
<path d="M118.648 135.419C119.506 128.714 127.381 125.113 133.482 124.391C139.879 123.634 144.491 126.772 148.22 131.596" stroke="#FF4392" stroke-width="7.1861" stroke-linecap="round"/>
<path d="M157.132 38.4411C161.124 39.725 165.41 39.6933 169.125 37.5275C174.263 34.5327 172.98 27.3945 171.784 22.7723" stroke="#FF4392" stroke-width="7.1861" stroke-linecap="round"/>
<path d="M185.791 21.7084C185.745 24.4584 187.265 28.0506 188.337 30.511C190.502 35.4813 195.527 37.2511 200.554 37.0604" stroke="#FF4392" stroke-width="7.1861" stroke-linecap="round"/>
<path d="M158.7 51.6971C157.601 51.5565 158.053 50.993 158.903 50.8165C161.383 50.3012 164.061 50.5139 166.526 51.1117C173.042 52.6916 176.812 58.6835 176.581 65" stroke="#FF4392" stroke-width="7.1861" stroke-linecap="round"/>
<path d="M191.701 65.5618C188.874 56.1234 195.085 49.6673 204.515 49.3096" stroke="#FF4392" stroke-width="7.1861" stroke-linecap="round"/>
</svg>
