<svg width="390" height="283" viewBox="0 0 390 283" fill="none" xmlns="http://www.w3.org/2000/svg">
<path d="M111.878 156.386C108.37 183.802 129.839 206.28 153.243 217.096C176.383 227.79 200.686 231.129 224.893 221.464C242.246 214.536 259.275 200.057 266.901 182.752C274.898 164.604 272.595 143.396 261.882 126.94C248.771 106.801 228.107 97.5935 204.537 95.452C161.66 91.5565 117.781 115.112 108.573 158.941" stroke="#8B2AB9" stroke-width="7.1861" stroke-linecap="round"/>
<path d="M170.771 155.731C176.696 156.489 182.483 156.985 188.443 157.248" stroke="#8B2AB9" stroke-width="7.1861" stroke-linecap="round"/>
<path d="M226.078 159.829C231.305 160.286 237.201 158.213 242.66 158.228" stroke="#8B2AB9" stroke-width="7.1861" stroke-linecap="round"/>
<path d="M191.44 197.83C198.026 193.27 207.668 192.357 212.868 199.082" stroke="#8B2AB9" stroke-width="7.1861" stroke-linecap="round"/>
<path d="M40.9841 193.199C41.4432 189.61 41.8583 187.589 39.0866 184.879C35.6723 181.539 29.3678 178.836 24.6349 179.978C20.8472 180.892 18.8323 185.138 19.751 188.688C21.132 194.023 25.3022 196.918 29.6352 199.825" stroke="#8B2AB9" stroke-width="7.1861" stroke-linecap="round"/>
<path d="M28.3321 203.697C21.2262 204.306 11.1204 204.277 6.09454 210.546C4.59843 212.412 2.14965 215.331 4.97103 217.224C14.1296 223.368 31.1387 219.625 41.0114 218.244" stroke="#8B2AB9" stroke-width="7.1861" stroke-linecap="round"/>
<path d="M41.7044 219.141C36.1679 215.986 27.8352 228.255 29.153 233.062C32.6315 245.752 53.7449 239.214 61.435 235.397" stroke="#8B2AB9" stroke-width="7.1861" stroke-linecap="round"/>
<path d="M62.9228 236.395C65.5842 241.134 67.5491 245.95 73.8503 245.691C80.3521 245.425 85.4807 241.264 89.5572 236.571" stroke="#8B2AB9" stroke-width="7.1861" stroke-linecap="round"/>
<path d="M307.116 165.045C308.031 160.913 313.577 150.509 317.795 149.627C323.831 148.366 327.325 159.157 327.494 163.613" stroke="#8B2AB9" stroke-width="7.1861" stroke-linecap="round"/>
<path d="M327.189 165.998C338.81 166.19 349.934 156.24 361.89 162.404C367.345 165.217 364.523 170.976 361.209 174.389C356.751 178.98 351.811 181.274 345.432 181.256" stroke="#8B2AB9" stroke-width="7.1861" stroke-linecap="round"/>
<path d="M343.537 183.437C334.912 182.334 362.358 181.663 369.412 186.747C374.628 190.507 368.187 195.922 364.588 197.439C357.487 200.432 350.435 199.915 343.297 197.946" stroke="#8B2AB9" stroke-width="7.1861" stroke-linecap="round"/>
<path d="M338.611 203.001C339.39 199.969 349.7 208.897 348.474 213.957C345.573 225.919 323.785 219.413 317.604 215.662" stroke="#8B2AB9" stroke-width="7.1861" stroke-linecap="round"/>
<path d="M221.311 54.1631C222.595 54.8881 223.268 56.2671 224.016 57.4912C225.216 59.4523 226.328 61.5082 227.419 63.5327C228.864 66.2159 230.896 71.1208 234.025 72.2654C237.537 73.5504 240.153 56.3984 241.795 53.9506C242.027 53.605 242.71 55.9353 242.75 56.0409C243.332 57.5558 243.771 59.0607 244.664 60.4308C246.178 62.7528 249.083 67.8739 252.171 68.5332C255.163 69.172 256.373 62.667 256.792 60.9684C258.426 54.3347 258.773 47.5298 258.993 40.7334" stroke="#8B2AB9" stroke-width="7.1861" stroke-linecap="round"/>
<path d="M277.606 44.1881C279.129 47.2565 279.327 51.1128 279.376 54.479C279.437 58.6368 279.509 62.5294 278.499 66.5783" stroke="#8B2AB9" stroke-width="7.1861" stroke-linecap="round"/>
<path d="M268.229 44.062C267.632 44.228 266.485 44.1449 267.752 44.0607C270.076 43.9061 272.408 43.6227 274.735 43.5525C279.859 43.3978 285.015 43.1065 290.125 42.8373" stroke="#8B2AB9" stroke-width="7.1861" stroke-linecap="round"/>
<path d="M297.518 66.8643C297.049 74.5937 300.306 51.6162 302.247 44.1197C303.06 40.9784 304.148 39.837 307.403 39.1283C312.987 37.9126 318.853 37.6558 324.512 38.3797" stroke="#8B2AB9" stroke-width="7.1861" stroke-linecap="round"/>
<path d="M301.679 55.3192C306.457 55.9305 311.382 54.4134 316.208 55.0309" stroke="#8B2AB9" stroke-width="7.1861" stroke-linecap="round"/>
<path d="M323.599 68.5904L324.554 69.5178" stroke="#8B2AB9" stroke-width="7.1861" stroke-linecap="round"/>
<path d="M342.612 71.0227L343.106 71.3543" stroke="#8B2AB9" stroke-width="7.1861" stroke-linecap="round"/>
<path d="M357.461 73.8647L357.778 73.9053" stroke="#8B2AB9" stroke-width="7.1861" stroke-linecap="round"/>
</svg>
