<svg width="315" height="241" viewBox="0 0 315 241" fill="none" xmlns="http://www.w3.org/2000/svg">
<path d="M253.414 84.4418C245.053 81.7526 234.518 75.7434 235.723 65.2662C237.046 53.7745 251.587 61.7338 256.437 65.6473" stroke="#E47435" stroke-width="7.1861" stroke-linecap="round"/>
<path d="M77.6442 84.3236C86.1198 82.0211 96.9198 76.5018 96.1962 65.9803C95.4026 54.44 80.512 61.7235 75.4869 65.4103" stroke="#E47435" stroke-width="7.1861" stroke-linecap="round"/>
<path d="M257.046 65.7253C260.771 57.8005 264.317 49.7206 268.694 42.1217C269.995 39.8628 271.48 37.6209 273.566 36.0076C275.346 34.632 277.992 32.6129 280.378 33.5447C285.753 35.643 286.106 45.074 286.325 49.6709" stroke="#E47435" stroke-width="7.1861" stroke-linecap="round"/>
<path d="M74.8751 65.4602C71.518 57.3728 68.3467 49.1386 64.3232 41.3469C63.1271 39.0307 61.7466 36.723 59.7362 35.0156C58.0219 33.5597 55.4714 31.4213 53.0445 32.2426C47.5792 34.092 46.7932 43.4968 46.3642 48.0789" stroke="#E47435" stroke-width="7.1861" stroke-linecap="round"/>
<path d="M286.856 50.3576C293.625 47.8121 299.359 46.7226 306.135 50.9334C313.67 55.6157 310.701 65.2166 305.904 70.7382" stroke="#E47435" stroke-width="7.1861" stroke-linecap="round"/>
<path d="M256.124 85.2737C255.38 95.2119 253.56 104.666 251.96 114.53C249.178 131.68 246.901 148.902 244.696 166.136" stroke="#E47435" stroke-width="7.1861" stroke-linecap="round"/>
<path d="M45.8025 48.7405C39.1567 45.8869 33.4792 44.5355 26.517 48.4308C18.7751 52.7623 21.3003 62.4894 25.8382 68.2253" stroke="#E47435" stroke-width="7.1861" stroke-linecap="round"/>
<path d="M74.8992 85.0304C75.1856 94.9922 76.5704 104.52 77.7159 114.447C79.7077 131.707 81.1921 149.015 82.6035 166.332" stroke="#E47435" stroke-width="7.1861" stroke-linecap="round"/>
<path d="M84.5636 153.701C81.0563 181.117 102.525 203.595 125.929 214.411C149.069 225.105 173.372 228.444 197.579 218.78C214.932 211.852 231.961 197.372 239.587 180.068C247.584 161.92 245.281 140.712 234.568 124.256C221.457 104.116 200.793 94.9089 177.223 92.7675C134.345 88.8719 90.4666 112.427 81.259 156.256" stroke="#E47435" stroke-width="7.1861" stroke-linecap="round"/>
<path d="M140.842 127.366C142.037 130.871 142.503 134.11 142.896 137.791" stroke="#E47435" stroke-width="7.1861" stroke-linecap="round"/>
<path d="M192.173 127.722C193.342 131.561 192.768 135.323 193.53 139.187" stroke="#E47435" stroke-width="7.1861" stroke-linecap="round"/>
<path d="M167.22 181.552C163.268 182.378 158.713 187.063 159.621 191.433C160.756 196.897 166.977 197.184 171.591 196.916C175.789 196.672 180.554 193.281 178.947 188.448C177.025 182.666 172.2 181.625 166.736 180.926" stroke="#E47435" stroke-width="7.1861" stroke-linecap="round"/>
</svg>
