<svg width="287" height="218" viewBox="0 0 287 218" fill="none" xmlns="http://www.w3.org/2000/svg">
<path d="M245.429 1.45814C246.865 0.537843 249.072 -0.433846 251.632 0.206186C256.133 1.33173 258.44 5.44208 259.669 8.61927C260.378 10.4526 260.885 12.3914 261.261 14.1222C263.305 13.2446 265.419 12.5541 267.638 12.2238C271.356 11.6705 275.157 12.1539 279.274 14.0363C284.657 16.4972 286.772 21.186 286.86 25.8605C286.944 30.3298 285.232 34.9113 282.956 38.3253C281.884 39.9337 279.711 40.3683 278.102 39.296C276.494 38.2237 276.06 36.0508 277.132 34.4425C278.808 31.9287 279.913 28.7249 279.861 25.9923C279.813 23.4648 278.839 21.5344 276.363 20.4025C273.413 19.0541 270.978 18.8039 268.669 19.1476C266.255 19.5069 263.771 20.5439 260.757 22.1398C259.234 22.9458 257.386 22.5157 256.362 21.2033C255.707 20.6897 255.231 19.9413 255.075 19.0568L255.051 18.921C254.652 16.6614 254.13 13.7058 253.139 11.1427C252.066 8.36713 250.906 7.25534 249.96 7.00404C249.895 7.00985 249.666 7.05614 249.205 7.35169C248.5 7.80344 247.79 8.48895 246.98 9.29896C245.674 10.6055 244.729 12.4148 243.783 14.6818C241.191 20.8932 239.154 27.314 237.069 33.8839L237.068 33.8849V33.8869C236.567 35.4677 236.062 37.0571 235.547 38.6544C235.036 40.2376 233.504 41.2066 231.914 41.0675C231.193 41.1292 230.447 40.9687 229.784 40.5607C227.467 39.1347 222.92 37.1278 219.227 36.7384C217.356 36.5411 216.317 36.8256 215.848 37.1388C215.629 37.2856 215.031 37.7365 215.056 39.7277C215.103 43.4088 217.007 46.1566 220.163 48.3214C223.403 50.5442 227.707 51.9366 231.66 52.672C232.126 52.7587 232.553 52.9346 232.928 53.1779C233.131 53.1295 233.341 53.0984 233.557 53.087C235.488 52.9855 237.135 54.4683 237.236 56.3986C237.654 64.3315 237.349 72.0756 237.046 79.7794L236.934 82.632C236.898 83.5823 236.864 84.5326 236.832 85.4826C236.266 102.335 236.194 119.207 236.194 136.127C236.194 137.496 235.408 138.68 234.263 139.255C235.162 147.026 234.563 154.998 232.28 162.71C226.744 181.411 211.373 198.178 194.819 207.374C171.561 220.295 146.617 219.962 122.296 212.287C99.5722 205.117 76.1538 187.496 72.7899 161.773C72.767 161.771 72.7435 161.771 72.7205 161.77C70.7938 161.615 69.3564 159.928 69.5106 158.001C69.7707 154.75 70.2217 151.583 70.8504 148.504C67.9247 134.829 64.9108 121.204 61.5662 107.661C61.1104 105.816 60.6438 103.972 60.1766 102.126C58.2848 94.6519 56.3833 87.1387 55.1492 79.2911C54.8492 77.3818 56.1531 75.5906 58.0623 75.2902C58.2761 75.2566 58.4892 75.243 58.6981 75.2482C59.0136 74.9329 59.3951 74.6726 59.8328 74.4913C63.5476 72.9535 67.4708 70.7001 70.1805 67.8546C72.8193 65.0834 74.1129 62.0007 73.3963 58.3898C73.0087 56.4366 72.3311 56.1188 72.0858 56.0206C71.5621 55.8113 70.4861 55.7487 68.6961 56.3292C65.1641 57.4749 61.1326 60.3793 59.161 62.254C58.5967 62.7906 57.9001 63.1016 57.1824 63.1906C55.6558 63.6561 53.9554 63.0254 53.1278 61.5822C52.293 60.1265 51.471 58.676 50.6531 57.2335L50.6522 57.2316L50.6512 57.2306C47.2517 51.2345 43.9294 45.3744 40.1072 39.8341C38.7123 37.8121 37.4129 36.2374 35.8641 35.2296C34.9041 34.605 34.0682 34.0822 33.285 33.7863C32.7728 33.5927 32.5395 33.594 32.4744 33.6017C31.6009 34.0433 30.6948 35.3715 30.2196 38.3097C29.7808 41.0223 29.8828 44.0215 29.9608 46.3146L29.9656 46.4523C29.9961 47.3498 29.6859 48.1804 29.1512 48.8185C28.4211 50.3149 26.7014 51.119 25.0447 50.6456C21.7653 49.7085 19.1202 49.2073 16.6844 49.3556C14.3544 49.4975 12.0236 50.2478 9.41682 52.1779C7.2289 53.7979 6.67549 55.8877 7.15217 58.3702C7.66762 61.0543 9.41207 63.9601 11.5721 66.0724C12.9539 67.4239 12.9782 69.6397 11.6268 71.0216C10.2753 72.4033 8.0595 72.4286 6.67756 71.0773C3.74396 68.2085 1.12106 64.0796 0.278146 59.6896C-0.603361 55.0983 0.494169 50.074 5.2508 46.5519C8.88953 43.8577 12.5084 42.5966 16.2596 42.3683C18.499 42.232 20.7094 42.4703 22.8914 42.9054C22.9006 41.1343 22.9956 39.1328 23.3094 37.1925C23.8533 33.8298 25.2602 29.3312 29.4315 27.298C31.8035 26.1419 34.1627 26.6355 35.7586 27.2384C37.3292 27.8318 38.7512 28.7571 39.6317 29.3302L39.6824 29.3624C42.4407 31.1572 44.38 33.7013 45.869 35.8595C49.884 41.6794 53.396 47.8754 56.8065 53.8927L57.2772 54.7238C59.8417 52.7995 63.2016 50.7518 66.5369 49.6701C68.9428 48.8898 71.9257 48.4179 74.6854 49.5216C77.7231 50.7366 79.5535 53.4546 80.2625 57.0275C81.5455 63.493 78.9626 68.7829 75.2488 72.6827C71.6104 76.5033 66.7124 79.2185 62.5262 80.9533C63.6874 87.458 65.2765 93.7391 66.9276 100.266V100.27L66.9285 100.273C67.404 102.152 67.8851 104.052 68.3621 105.984C70.7257 115.554 72.9217 125.157 75.036 134.768C88.2892 102.593 122.431 82.8706 157.747 81.5763C181.519 80.7052 203.798 87.2617 219.843 106.144C223.675 110.654 226.828 115.679 229.226 121.024C229.283 109.11 229.435 97.1801 229.836 85.2472C229.903 83.2568 229.98 81.2967 230.056 79.3576C230.32 72.6303 230.574 66.1554 230.363 59.5509C225.908 58.7205 220.554 57.0786 216.203 54.0939C211.762 51.0474 208.141 46.4075 208.057 39.8165C208.011 36.1742 209.239 33.1362 211.96 31.3185C214.431 29.6675 217.447 29.5113 219.962 29.7765C223.449 30.1442 227.16 31.4523 230.067 32.8038L230.356 31.8927L231.943 26.9181C233.558 21.9215 235.28 16.8793 237.322 11.9855C238.332 9.5657 239.703 6.67573 242.03 4.34876L242.072 4.30677C242.815 3.5638 244.015 2.36384 245.429 1.45814ZM214.509 110.677C200.238 93.8821 180.308 87.754 158.003 88.5714C120.741 89.9371 86.0826 112.945 78.0145 148.528C78.5196 150.895 79.0235 153.261 79.5242 155.627C79.6563 156.251 79.6116 156.871 79.4266 157.437C80.5789 181.061 101.702 198.448 124.403 205.611C147.442 212.881 170.289 212.994 191.42 201.255C206.687 192.773 220.646 177.348 225.568 160.724C230.696 143.403 226.176 124.408 214.509 110.677ZM172.805 177.814C174.013 176.305 176.215 176.06 177.724 177.267C179.234 178.474 179.479 180.677 178.271 182.187C173.999 187.527 168.064 189.644 162.175 190.159C156.347 190.669 150.279 189.646 145.198 188.45C143.317 188.008 142.15 186.123 142.593 184.241C143.036 182.36 144.92 181.193 146.802 181.636C151.643 182.775 156.851 183.598 161.565 183.186C166.217 182.779 170.091 181.207 172.805 177.814ZM146.288 135.356C148.221 135.356 149.788 136.923 149.788 138.856C149.788 143.365 148.632 147.253 146.107 150.394C143.619 153.489 140.076 155.519 135.922 156.869C131.871 158.186 127.162 159.023 122.381 157.765C119.686 157.056 117.414 156.24 115.586 154.534C113.823 152.889 112.809 150.707 111.786 148.333C111.021 146.558 111.839 144.499 113.614 143.734C115.389 142.969 117.448 143.787 118.214 145.562C119.288 148.054 119.812 148.905 120.361 149.417C120.845 149.869 121.66 150.337 124.162 150.995C127.093 151.767 130.304 151.335 133.758 150.212C137.11 149.123 139.291 147.7 140.65 146.008C141.973 144.362 142.788 142.126 142.788 138.856C142.788 136.923 144.355 135.356 146.288 135.356ZM190.834 133.505C191.107 131.592 192.88 130.262 194.794 130.535C196.707 130.809 198.037 132.582 197.763 134.495C197.28 137.882 196.095 141.612 193.83 144.584C191.48 147.667 187.958 149.907 183.24 149.907C174.759 149.907 169.743 143.256 166.912 137.761C166.027 136.043 166.703 133.932 168.421 133.047C170.139 132.162 172.249 132.837 173.135 134.555C175.746 139.625 178.991 142.907 183.24 142.907C185.456 142.907 187.032 141.956 188.263 140.341C189.579 138.615 190.457 136.141 190.834 133.505Z" fill="black"/>
</svg>
