<svg width="309" height="311" viewBox="0 0 309 311" fill="none" xmlns="http://www.w3.org/2000/svg">
<path d="M236.323 303.54C237.154 301.346 239.174 300.457 240.834 301.554L242.351 302.556C244.011 303.652 244.685 306.32 243.855 308.514C243.024 310.707 241.004 311.597 239.344 310.5L237.827 309.498C236.167 308.401 235.493 305.734 236.323 303.54ZM122.469 248.341C125.344 247.934 128.608 247.836 131.765 248.175C134.885 248.51 138.133 249.298 140.817 250.832C143.561 252.401 145.92 254.894 146.551 258.538C147.604 264.623 143.858 269.041 140.016 271.758C136.125 274.508 131.278 276.204 127.797 276.977C127.307 277.086 126.818 277.086 126.356 276.994C127.084 282.452 127.587 287.968 127.587 293.476C127.587 295.409 126.02 296.976 124.087 296.976C122.154 296.976 120.587 295.409 120.587 293.476C120.587 283.712 118.942 274.141 117.249 264.289C116.839 261.904 116.426 259.503 116.033 257.078C115.085 256.891 114.218 256.313 113.691 255.414C112.713 253.746 113.273 251.601 114.941 250.624C116.909 249.47 119.677 248.736 122.469 248.341ZM215.976 253.038C217.871 252.659 219.716 253.889 220.095 255.784C220.474 257.679 219.244 259.523 217.349 259.902L214.35 260.516C211.061 261.198 207.594 261.917 204.191 262.384C203.832 262.433 203.478 262.479 203.128 262.525C202.003 262.673 200.92 262.816 199.863 263.017C199.938 264.14 199.931 265.355 199.896 266.49C199.845 268.106 199.727 269.762 199.626 271.097L199.583 271.663C199.533 272.32 199.495 272.824 199.472 273.185C200.161 272.977 200.821 272.83 201.408 272.714C201.801 272.636 202.157 272.571 202.483 272.514L203.381 272.361C204.239 272.219 204.899 272.111 205.613 271.894C206.466 271.636 207.265 271.365 208.125 271.072C208.678 270.884 209.257 270.687 209.892 270.479C211.403 269.985 213.074 269.488 214.792 269.202C216.699 268.884 218.503 270.172 218.82 272.079C219.138 273.986 217.85 275.789 215.943 276.107C214.754 276.305 213.483 276.67 212.067 277.133L210.563 277.638C209.604 277.962 208.581 278.31 207.644 278.594C206.516 278.935 205.062 279.182 203.924 279.375C203.479 279.45 203.082 279.517 202.772 279.579C201.378 279.856 200.612 280.154 200.16 280.499L200.541 282.52V282.521C200.76 283.663 200.989 284.859 201.205 286.15L201.349 286.104L201.46 286.068V286.067C201.736 285.978 202.052 285.876 202.372 285.778C208.265 283.985 213.829 282.525 219.971 281.502C221.877 281.184 223.681 282.472 223.999 284.379C224.317 286.285 223.029 288.089 221.122 288.407C215.384 289.363 210.134 290.733 204.41 292.474C204.277 292.515 204.048 292.588 203.786 292.673C203.345 292.815 202.809 292.987 202.478 293.083C201.813 293.275 200.843 293.52 199.809 293.502C198.663 293.481 197.257 293.128 196.116 291.953C195.073 290.879 194.648 289.519 194.465 288.328C194.281 287.135 194.041 285.87 193.79 284.551C193.152 281.196 192.446 277.49 192.446 273.733C192.446 273.446 192.467 273.048 192.496 272.593L192.605 271.106C192.618 270.927 192.632 270.746 192.646 270.567C192.746 269.242 192.854 267.72 192.9 266.27C192.905 266.107 192.909 265.947 192.912 265.791C191.881 265.85 190.833 265.454 190.094 264.622C188.81 263.177 188.94 260.965 190.385 259.681C191.076 259.066 191.824 258.556 192.596 258.131C193.306 257.269 194.414 256.764 195.603 256.868C196.113 256.708 196.617 256.571 197.106 256.453C198.914 256.016 200.813 255.767 202.346 255.566C202.661 255.525 202.96 255.486 203.24 255.448C205.598 255.125 207.952 254.679 210.347 254.193L212.757 253.697C213.818 253.477 214.89 253.255 215.976 253.038ZM173.908 254.017C175.815 253.7 177.619 254.988 177.937 256.894C178.254 258.801 176.966 260.605 175.06 260.923C174.24 261.059 173.373 261.185 172.476 261.315C170.143 261.654 167.597 262.023 165.104 262.694C163.589 263.102 162.355 263.56 161.383 264.053C162.365 266.577 162.802 269.118 163.159 271.412C164.821 270.901 166.443 270.661 167.819 270.469L168.277 270.405C171.254 269.991 173.078 269.737 174.484 268.8C176.093 267.727 178.267 268.162 179.339 269.77C180.411 271.379 179.976 273.552 178.368 274.624C175.899 276.27 172.947 276.826 170.553 277.163L169.564 277.297C169.294 277.332 169.035 277.367 168.788 277.401C166.702 277.693 165.152 278.004 163.936 278.596C163.958 278.95 163.985 279.291 164.021 279.63C164.198 281.291 164.541 282.067 164.983 282.509C166.467 283.993 168.299 284.474 170.929 284.439C171.933 284.426 172.971 284.339 174.099 284.224L175.259 284.103L175.303 284.099C176.846 283.934 178.59 283.749 180.311 283.749C182.244 283.749 183.811 285.316 183.811 287.249C183.811 289.182 182.244 290.749 180.311 290.749C179.022 290.749 177.644 290.889 176.045 291.059L175.863 291.078C174.376 291.237 172.693 291.417 171.023 291.439C167.471 291.487 163.41 290.835 160.033 287.458C157.85 285.275 157.284 282.476 157.06 280.372C156.969 279.523 156.924 278.65 156.887 277.889C156.732 277.367 156.702 276.818 156.794 276.287C156.758 275.82 156.714 275.412 156.651 275.045C156.508 274.226 156.384 273.459 156.268 272.734C155.983 270.964 155.74 269.451 155.362 268.075C154.924 268.031 154.487 267.903 154.073 267.684C152.365 266.78 151.713 264.661 152.617 262.953C152.704 262.789 152.794 262.629 152.889 262.473C152.72 261.221 153.237 259.921 154.34 259.142C155.116 258.595 156.037 258.407 156.906 258.545C158.95 257.275 161.261 256.479 163.285 255.934C166.22 255.145 169.441 254.678 171.853 254.328C172.635 254.214 173.333 254.113 173.908 254.017ZM239.788 245.987C241.637 245.768 243.271 247.571 243.437 250.014C243.996 258.253 243.42 266.263 242.726 273.985L242.424 277.277C242.247 279.193 242.071 281.09 241.913 282.968C241.708 285.405 240.046 287.162 238.2 286.891C236.355 286.621 235.026 284.425 235.231 281.987C235.406 279.9 235.593 277.863 235.777 275.862C236.575 267.188 237.31 259.199 236.74 250.807C236.574 248.365 237.939 246.206 239.788 245.987ZM131.017 255.135C128.475 254.862 125.793 254.941 123.45 255.272C123.245 255.301 123.044 255.332 122.849 255.364C123.041 256.555 123.24 257.754 123.444 258.96L124.067 262.598C124.514 265.197 124.966 267.824 125.39 270.472C125.663 270.326 125.961 270.214 126.278 270.143C129.175 269.5 133.072 268.094 135.975 266.042C138.925 263.956 140.023 261.871 139.653 259.732C139.475 258.699 138.826 257.758 137.342 256.909C135.797 256.026 133.594 255.412 131.017 255.135ZM266.583 20.4276C268.02 19.5073 270.225 18.5357 272.785 19.1757C277.287 20.3011 279.595 24.4105 280.823 27.5878C281.532 29.421 282.038 31.3599 282.414 33.0907C284.459 32.2131 286.573 31.5236 288.792 31.1932C292.509 30.6399 296.31 31.1234 300.428 33.0057C305.811 35.4666 307.926 40.1554 308.014 44.83C308.098 49.2991 306.386 53.8809 304.11 57.2948C303.038 58.9031 300.865 59.3376 299.257 58.2655C297.649 57.1933 297.214 55.0203 298.286 53.412C299.962 50.8982 301.066 47.6943 301.015 44.9618C300.967 42.4343 299.994 40.5038 297.518 39.3719C294.568 38.0234 292.131 37.7724 289.822 38.1161C287.409 38.4754 284.925 39.5136 281.911 41.1092C280.388 41.9154 278.54 41.4846 277.516 40.1717C276.86 39.6582 276.385 38.9107 276.229 38.0262L276.204 37.8905C275.806 35.6309 275.285 32.6753 274.294 30.1122C273.221 27.3361 272.059 26.2247 271.113 25.9735C271.048 25.9794 270.82 26.0257 270.359 26.3212C269.653 26.7729 268.944 27.4575 268.134 28.2675C266.827 29.574 265.883 31.3842 264.937 33.6512C262.344 39.8627 260.307 46.2835 258.223 52.8534C257.721 54.4352 257.216 56.0256 256.7 57.6239C256.189 59.2071 254.657 60.1762 253.067 60.037C252.347 60.0986 251.601 59.9383 250.938 59.5301C248.62 58.1042 244.075 56.0973 240.382 55.7079C238.51 55.5105 237.471 55.795 237.002 56.1083C236.782 56.2553 236.185 56.707 236.21 58.6971C236.257 62.3782 238.162 65.1261 241.317 67.2909C244.558 69.5137 248.862 70.9061 252.815 71.6415C253.28 71.7282 253.707 71.9033 254.081 72.1464C254.284 72.098 254.495 72.0679 254.711 72.0565C256.641 71.9549 258.289 73.4369 258.391 75.3671C258.808 83.3 258.504 91.0441 258.2 98.7479V98.7489C258.125 100.651 258.05 102.551 257.986 104.451C257.421 121.304 257.349 138.175 257.349 155.096C257.349 155.412 257.305 155.718 257.227 156.009C257.229 156.496 257.228 156.984 257.216 157.474C256.553 184.31 234.157 202.956 213.692 213.475C201.367 219.81 187.599 223.767 174.079 225.818C160.609 227.862 146.752 229.291 132.744 227.072C112.652 223.889 91.3936 215.17 80.7218 195.434C70.763 177.017 69.7974 153.043 79.464 134.17L79.8243 133.478C82.489 128.445 85.7975 124.004 89.6251 120.148C89.7777 119.786 89.9941 119.443 90.2755 119.138C98.149 110.579 106.097 102.714 117.274 97.3739C128.345 92.0843 140.16 88.8975 152.229 87.4325C177.544 84.3596 205.895 88.3317 227.435 103.948C236.582 110.58 244.932 119.668 250.45 130.17C250.538 121.524 250.7 112.871 250.99 104.217C251.057 102.226 251.134 100.265 251.21 98.326C251.474 91.5989 251.728 85.1247 251.518 78.5204C247.063 77.69 241.708 76.048 237.358 73.0633C232.917 70.0169 229.294 65.3762 229.211 58.785C229.165 55.143 230.393 52.1056 233.113 50.288C235.585 48.6368 238.601 48.4807 241.116 48.746C244.603 49.1137 248.314 50.4209 251.221 51.7723L251.51 50.8632V50.8622C253.601 44.269 255.754 37.4801 258.477 30.955C259.486 28.5353 260.857 25.6452 263.184 23.3182L263.227 23.2753C263.969 22.5322 265.17 21.3332 266.583 20.4276ZM223.325 109.615C203.65 95.3507 177.252 91.4467 153.072 94.3817C141.666 95.7664 130.598 98.7661 120.291 103.69C119.584 104.028 118.891 104.379 118.21 104.74C119.083 105.134 119.792 105.883 120.106 106.867C120.693 108.708 119.676 110.678 117.835 111.265C103.779 115.752 92.3065 124.452 85.6945 137.361C77.1497 154.044 77.942 175.577 86.879 192.104C96.0215 209.011 114.616 217.113 133.84 220.158C146.735 222.201 159.704 220.919 173.028 218.897C185.959 216.935 198.971 213.171 210.491 207.25C230.455 196.989 249.657 180.062 250.219 157.301C250.68 138.61 238.608 120.695 223.325 109.615ZM114.519 126.645C116.354 126.04 118.334 127.037 118.94 128.873C118.998 129.05 119.052 129.228 119.108 129.405C120.749 129.694 121.996 131.126 121.996 132.85C121.996 138.498 124.339 143.342 126.822 149.656C129.924 157.543 133.466 167.821 131.533 177.599C130.253 184.076 126.341 188.892 121.018 190.908C115.868 192.858 109.937 191.984 104.724 188.337L104.222 187.975C101.97 186.307 100.368 183.876 99.3361 181.469C98.2964 179.044 97.7102 176.357 97.7101 173.906C97.7101 168.042 101.523 163.746 103.651 160.79C104.945 158.993 106.52 157.1 107.773 155.492C109.101 153.786 110.235 152.199 111.063 150.591C114.159 144.57 114.429 137.547 112.291 131.066C111.686 129.231 112.683 127.251 114.519 126.645ZM218.409 160.211C219.18 160.129 220.028 160.237 220.841 160.641C221.635 161.036 222.201 161.616 222.591 162.182C222.993 162.768 223.4 163.331 223.817 163.892L225.105 165.595C225.694 166.368 226.311 167.179 226.969 168.075C228.502 170.166 230.078 172.511 231.186 175.095C231.947 176.871 231.124 178.929 229.348 179.69C227.571 180.452 225.514 179.628 224.752 177.851C223.965 176.015 222.769 174.184 221.324 172.215C220.835 171.548 220.285 170.824 219.716 170.075C219.325 169.561 218.926 169.036 218.531 168.51C218.313 168.809 218.079 169.148 217.83 169.525C216.15 172.076 214.597 175.216 214.301 175.883C213.287 178.163 211.689 180.966 209.002 182.182C207.488 182.866 205.826 182.956 204.184 182.424C202.642 181.924 201.279 180.932 200.066 179.719C198.74 178.393 197.48 176.822 196.411 175.148C195.978 176.216 195.591 177.272 195.185 178.382C194.835 179.335 194.471 180.331 194.049 181.409C193.413 183.034 192.318 184.44 190.65 185.196C189.053 185.92 187.451 185.81 186.234 185.517C183.926 184.962 181.781 183.448 180.551 182.507C178.96 181.29 177.466 179.623 176.235 178.25H176.234C175.967 177.951 175.712 177.666 175.471 177.403C174.809 176.681 174.213 176.069 173.658 175.564C173.291 176.319 172.897 177.219 172.501 178.202C171.861 179.793 171.267 181.472 170.833 182.856C170.616 183.549 170.447 184.142 170.333 184.596C170.257 184.9 170.224 185.071 170.211 185.139C170.207 185.162 170.204 185.173 170.203 185.173C170.203 185.172 170.203 185.163 170.204 185.146C170.205 185.14 170.205 185.132 170.205 185.124C170.109 187.054 168.466 188.542 166.535 188.445C164.605 188.349 163.117 186.705 163.214 184.774C163.245 184.147 163.409 183.432 163.544 182.892C163.701 182.268 163.911 181.538 164.154 180.762C164.642 179.206 165.297 177.354 166.008 175.588C166.706 173.853 167.513 172.065 168.32 170.711C168.705 170.066 169.217 169.299 169.854 168.69C170.23 168.33 172.092 166.651 174.494 167.743C177.078 168.917 179.099 171 180.633 172.675L181.653 173.802C182.85 175.13 183.784 176.167 184.804 176.946C185.34 177.356 185.921 177.765 186.498 178.099C186.949 178.361 187.326 178.533 187.617 178.635C187.756 178.276 187.898 177.899 188.043 177.509L188.488 176.305V176.304C189.103 174.634 189.767 172.831 190.473 171.218V171.219C190.474 171.216 190.48 171.198 190.493 171.163C190.509 171.12 190.53 171.062 190.555 170.985C190.607 170.827 190.664 170.634 190.736 170.39C190.759 170.314 190.783 170.231 190.809 170.144C190.933 169.719 191.09 169.189 191.26 168.677C191.463 168.066 191.737 167.322 192.105 166.629C192.426 166.025 193.064 164.973 194.216 164.296C195.805 163.361 197.338 163.9 198.078 164.357C198.724 164.757 199.133 165.269 199.318 165.517C199.735 166.075 200.059 166.723 200.265 167.164C200.494 167.655 200.696 168.147 200.838 168.509C201.041 169.025 201.039 169.036 201.032 169.02C201.927 171.043 203.413 173.165 205.016 174.768C205.624 175.376 206.031 175.625 206.233 175.72C206.331 175.637 206.488 175.483 206.695 175.209C207.065 174.72 207.474 174.005 207.903 173.04C208.32 172.103 210.05 168.612 211.984 165.675C212.913 164.264 214.096 162.657 215.37 161.601C215.969 161.106 217.022 160.359 218.409 160.211ZM119.146 149.334C118.651 150.849 118.034 152.339 117.287 153.792C116.153 155.997 114.693 157.999 113.295 159.794C111.821 161.687 110.535 163.21 109.332 164.88C106.53 168.772 104.71 170.868 104.71 173.906C104.71 175.316 105.065 177.068 105.77 178.711C106.482 180.371 107.428 181.639 108.389 182.35C112.08 185.085 115.752 185.417 118.539 184.361C121.319 183.308 123.793 180.66 124.666 176.241C126.156 168.704 123.45 160.21 120.308 152.219C119.939 151.282 119.547 150.319 119.146 149.334ZM188.055 178.743H188.057L188.055 178.742C188.053 178.742 188.051 178.742 188.048 178.742C188.051 178.742 188.053 178.743 188.055 178.743ZM174.391 126.724C176.12 125.86 178.223 126.561 179.087 128.29C179.705 129.525 179.618 130.83 179.561 131.437C179.487 132.207 179.319 132.993 179.162 133.64C179.047 134.115 178.912 134.616 178.8 135.034L178.799 135.035C178.759 135.182 178.723 135.32 178.691 135.442C178.623 135.697 178.571 135.9 178.534 136.062C178.506 136.189 178.495 136.253 178.492 136.269L178.491 136.274V136.268C178.197 138.831 178.234 141.367 178.273 144.137C178.286 145.122 178.301 146.137 178.301 147.192C178.301 149.125 176.734 150.692 174.801 150.692C172.868 150.692 171.301 149.125 171.301 147.192C171.301 146.362 171.288 145.49 171.275 144.59L171.249 142.377C171.235 140.121 171.275 137.759 171.537 135.471C171.608 134.851 171.795 134.138 171.923 133.653C171.971 133.473 172.016 133.301 172.062 133.133L172.063 133.132L172.359 131.99C172.487 131.466 172.561 131.076 172.589 130.81C172.137 129.223 172.861 127.49 174.391 126.724ZM214.484 125.97C216.417 125.97 217.984 127.537 217.984 129.47C217.984 132.159 217.673 134.761 217.391 137.13L217.382 137.211C217.089 139.667 216.828 141.882 216.828 144.11C216.828 146.043 215.261 147.61 213.328 147.61C211.395 147.61 209.828 146.043 209.828 144.11C209.828 141.434 210.138 138.84 210.42 136.475L210.431 136.382C210.724 133.927 210.984 131.707 210.984 129.47C210.984 127.537 212.551 125.97 214.484 125.97ZM14.8556 65.3622C16.5281 64.3931 18.6697 64.9631 19.6388 66.6356C20.6079 68.3081 20.0379 70.4497 18.3654 71.4188C13.3869 74.3033 9.88966 78.1134 8.19348 82.3339C6.52467 86.4863 6.47536 91.3284 8.88488 96.6591C12.366 104.36 23.6325 106.83 30.5939 100.958C32.265 99.5482 33.6738 97.0481 34.4034 94.0272C35.1295 91.0209 35.0648 87.9788 34.3058 85.746C34.181 85.379 34.1203 85.379 34.0704 85.3798C34.0615 85.3799 34.0526 85.3798 34.0441 85.3778C33.6759 85.2921 32.8746 85.307 31.5372 85.704C29.5748 86.2865 27.686 87.2591 25.9972 88.1288C25.3163 88.4794 24.6674 88.8136 24.0597 89.0985C22.3095 89.919 20.2259 89.1651 19.4054 87.4149C18.5851 85.6649 19.3381 83.5812 21.088 82.7606C21.3459 82.6397 21.728 82.443 22.2023 82.1981C23.9254 81.3085 26.8712 79.7878 29.545 78.994C31.2894 78.4762 33.4962 78.0635 35.631 78.5604C38.0771 79.1299 40.0178 80.8013 40.9327 83.4921C42.2111 87.2518 42.1709 91.6845 41.2081 95.6708C40.2488 99.6428 38.2542 103.654 35.1075 106.308C24.8705 114.944 8.04538 111.797 2.50598 99.5419C-0.636686 92.5892 -0.728362 85.7619 1.69836 79.7235C4.09772 73.7534 8.83449 68.8509 14.8556 65.3622ZM60.4728 49.7792C62.3027 49.157 64.2908 50.1359 64.9132 51.9657C64.9177 51.9791 64.9225 51.9933 64.9269 52.0067C67.9706 52.2407 70.9344 53.0311 73.6075 54.3866C79.3996 57.3238 83.6988 62.8729 84.3107 70.6522C85.2907 83.1143 74.785 93.1128 63.0089 93.3632C52.466 93.5873 42.3334 86.2057 40.9288 75.0008C40.0503 67.9917 42.1421 62.454 46.0646 58.2548C49.849 54.2034 55.151 51.5886 60.4728 49.7792ZM70.4415 60.6298C66.5925 58.6779 61.5746 58.3565 56.9161 59.9403C56.239 60.1705 55.5398 60.1818 54.8966 60.0116C53.4669 60.9212 52.2164 61.9244 51.1808 63.0331C48.6739 65.7168 47.2543 69.1861 47.8741 74.1307C48.7765 81.3291 55.4325 86.5221 62.8605 86.3641C71.0844 86.1891 77.961 79.1979 77.3321 71.201C76.9218 65.9837 74.1751 62.5231 70.4415 60.6298ZM116.168 31.8983C117.998 31.2761 119.986 32.2557 120.609 34.0858C121.231 35.9158 120.252 37.9039 118.422 38.5262C113.195 40.3036 108.24 42.7585 103.075 45.3612C104.166 46.9429 105.143 48.7838 105.991 50.577C107.381 53.5165 108.632 56.8147 109.477 59.0419L109.9 60.1522C110.026 60.48 110.136 60.763 110.23 60.9921C110.758 62.284 111.341 63.5404 111.961 64.8788C112.128 65.2382 112.297 65.6039 112.469 65.9774C113.259 67.6949 114.078 69.5406 114.738 71.4842C115.36 73.3142 114.381 75.3015 112.551 75.9237C110.721 76.5458 108.733 75.5672 108.11 73.7372C107.573 72.1554 106.882 70.5838 106.109 68.9012C105.958 68.5734 105.803 68.2384 105.646 67.8983L105.645 67.8964C105.016 66.5408 104.346 65.0978 103.751 63.6425C103.464 62.9408 103.141 62.0874 102.779 61.1317L102.122 59.4071C101.426 57.6003 100.611 55.5739 99.6632 53.5692C98.7742 51.6889 97.8672 50.0582 96.9913 48.8885C96.8935 48.7579 96.8008 48.6389 96.713 48.5311C93.0851 50.285 89.3241 51.96 85.3868 53.2987C83.5568 53.9207 81.5686 52.9412 80.9464 51.1112C80.3243 49.2812 81.3039 47.293 83.1339 46.6708C86.6176 45.4863 89.9778 44.0028 93.3566 42.3768C94.0508 41.1309 95.4638 40.4022 96.9269 40.62C97.6844 40.2407 98.4452 39.8568 99.2111 39.4706L99.3214 39.4149C104.639 36.7333 110.203 33.9266 116.168 31.8983ZM162.509 15.9716C164.339 15.3494 166.327 16.329 166.949 18.1591C167.572 19.9891 166.592 21.9772 164.762 22.5995C159.866 24.2641 154.631 26.1384 149.527 28.2548C150.713 32.3435 152.519 36.1743 154.552 40.1229C155.021 41.0349 155.507 41.9596 155.999 42.8973V42.8983C158.278 47.2385 160.708 51.8645 162.411 56.8739C163.033 58.7039 162.055 60.692 160.225 61.3143C158.395 61.9365 156.407 60.9577 155.784 59.1278C154.462 55.2401 152.674 51.6582 150.731 47.9315L149.89 46.3241C149.375 45.3423 148.852 44.346 148.328 43.328C146.381 39.5457 144.454 35.5352 143.077 31.1112C139.296 32.9073 135.712 34.8552 132.543 36.9696C130.935 38.0421 128.762 37.6077 127.69 35.9999C126.617 34.392 127.051 32.2191 128.658 31.1464C132.594 28.5208 137.056 26.1599 141.681 24.0389C141.947 22.6464 143.05 21.4986 144.53 21.246C145.414 21.0952 146.277 21.2901 146.981 21.7323C152.302 19.5297 157.655 17.622 162.509 15.9716ZM187.183 0.368037C188.515 -0.166892 189.803 -0.0282911 190.732 0.217647C192.486 0.682596 194.146 1.85063 195.358 2.81921C196.667 3.86602 197.909 5.06211 198.858 6.01452C199.284 6.4429 199.666 6.83711 199.97 7.15026L200.076 7.26062C200.239 7.42893 200.368 7.56145 200.471 7.66491C200.55 7.74433 200.59 7.78262 200.603 7.7948C200.608 7.80022 200.608 7.80074 200.604 7.79675C201.211 8.33883 201.834 8.88815 202.468 9.44519L204.401 11.1385C207.811 14.1195 211.441 17.2935 214.801 20.6219C219.485 25.2626 223.909 30.4503 226.928 36.3983C227.803 38.122 227.114 40.2286 225.391 41.1034C223.667 41.9781 221.56 41.2899 220.686 39.5663C218.266 34.7979 214.659 30.4092 210.473 26.1923C210.062 26.7596 209.478 27.2095 208.765 27.452C206.471 28.2321 203.321 29.4587 200.654 31.0751C197.802 32.804 196.389 34.448 196.104 35.7186C195.68 37.6046 193.808 38.7904 191.922 38.3671C191.859 38.3529 191.797 38.3375 191.735 38.3202C191.973 43.2998 192.208 48.2799 192.436 53.2596C192.524 55.1906 191.03 56.8275 189.099 56.9159C187.168 57.0041 185.531 55.5108 185.442 53.58C185.019 44.3274 184.574 35.0785 184.128 25.8251C183.929 21.6987 183.731 17.5713 183.534 13.4423L183.477 12.4364C183.413 11.3962 183.334 10.0943 183.343 8.87878C183.356 7.2022 183.522 5.12546 184.336 3.2362C184.847 2.05075 185.761 0.939291 187.183 0.368037ZM190.388 7.82897C190.361 8.1613 190.346 8.52858 190.343 8.93249C190.335 9.89327 190.391 10.7933 190.449 11.746C190.476 12.1852 190.504 12.6362 190.526 13.1092C190.723 17.2309 190.922 21.3542 191.12 25.4784V25.4794C191.192 26.9606 191.263 28.4423 191.334 29.9237C192.918 27.8608 195.08 26.2684 197.026 25.0887C199.818 23.3957 202.896 22.1201 205.276 21.2577C203.518 19.665 201.736 18.1075 199.959 16.5546L197.943 14.7899C197.274 14.2013 196.606 13.6115 195.942 13.0194C195.693 12.7968 195.357 12.4494 195.085 12.1688L195.05 12.1327L194.942 12.0214C194.637 11.7066 194.288 11.3463 193.898 10.954C193.014 10.0669 191.988 9.08788 190.985 8.28601C190.771 8.11433 190.571 7.96242 190.388 7.82897ZM271.134 25.9735C271.134 25.9734 271.133 25.9726 271.131 25.9725C271.129 25.9724 271.125 25.9723 271.121 25.9725C271.129 25.9733 271.134 25.9738 271.134 25.9735Z" fill="black"/>
</svg>
