<svg width="320" height="196" viewBox="0 0 320 196" fill="none" xmlns="http://www.w3.org/2000/svg">
<path d="M28.727 130.02C36.9714 127.684 44.4091 132.207 48.9672 137.403C53.7643 142.871 55.1868 148.151 55.5864 154.265C59.8539 156.761 64.5928 160.54 67.6547 164.958C69.6098 167.779 71.0839 171.158 70.9721 174.818C70.8561 178.614 69.0521 182.139 65.5532 185.131C54.0797 194.943 37.3941 196.722 23.6401 194.113C18.9601 193.225 12.1232 190.785 7.11959 186.833C4.60062 184.844 2.30195 182.279 1.16646 179.089C-0.0164885 175.766 0.195043 172.124 2.10494 168.425C5.49962 161.851 11.1962 157.233 17.3413 154.154C17.4056 153.915 17.4822 153.449 17.479 152.581C17.4772 152.098 17.4591 151.677 17.4379 151.196V151.195C17.424 150.877 17.4092 150.534 17.3969 150.128C17.3705 149.253 17.3642 148.163 17.5434 147.089L17.5981 146.759C18.0699 143.925 18.6465 140.463 20.0493 137.479C21.6123 134.154 24.2515 131.288 28.727 130.02ZM43.7045 142.019C40.0013 137.798 35.1575 135.473 30.6342 136.754C28.4436 137.375 27.245 138.626 26.3842 140.457C25.4182 142.513 24.9739 145.091 24.4477 148.242C24.3873 148.604 24.369 149.122 24.393 149.917L24.4223 150.67C24.4473 151.261 24.4768 151.958 24.479 152.555C24.4825 153.527 24.4422 154.891 24.0112 156.281C24.1076 157.7 23.3268 159.094 21.9536 159.711C16.0841 162.351 11.0906 166.282 8.32564 171.636C7.24428 173.73 7.27048 175.363 7.76119 176.742C8.29941 178.254 9.53338 179.82 11.4575 181.339C15.3403 184.405 21.0342 186.493 24.9448 187.235C37.4705 189.611 51.7089 187.761 61.0044 179.811C63.2751 177.869 63.9303 176.1 63.976 174.604C64.0259 172.971 63.3645 171.058 61.9008 168.946C59.7836 165.891 56.4172 163.047 53.1713 160.988C52.8867 161.068 52.5866 161.114 52.2768 161.12C50.664 161.148 49.2864 160.081 48.8549 158.604C47.5056 157.652 46.9822 155.845 47.6948 154.289C47.8883 153.866 48.1555 153.5 48.4741 153.2C48.0155 148.822 46.797 145.544 43.7045 142.019ZM145.248 0.0756589C169.021 -0.795433 191.3 5.76116 207.344 24.643C220.447 40.0629 225.621 61.484 219.782 81.2094C214.245 99.9105 198.874 116.677 182.321 125.874C159.062 138.795 134.118 138.461 109.797 130.787C87.0738 123.616 63.6554 105.995 60.2915 80.2719C60.2686 80.2706 60.245 80.2708 60.2221 80.269C58.2954 80.1148 56.858 78.4273 57.0122 76.5005C60.671 30.7696 102.083 1.65762 145.248 0.0756589ZM202.01 29.1762C187.74 12.3815 167.81 6.2534 145.504 7.07078C106.977 8.48289 71.2321 33.0331 64.7866 70.6977C66.0181 71.2397 66.8782 72.471 66.8784 73.9028C66.8785 98.5615 88.5568 116.743 111.905 124.111C134.944 131.381 157.791 131.494 178.921 119.754C194.188 111.272 208.148 95.8473 213.07 79.2231C218.197 61.9025 213.678 42.9077 202.01 29.1762ZM263.839 47.4448C265.596 46.884 267.436 46.9337 268.981 47.1557C272.075 47.6004 275.143 48.912 276.795 49.769C282.457 52.7047 286.61 56.1117 289.759 61.5932C290.09 61.0259 290.585 60.5456 291.216 60.23C296.759 57.4586 301.655 57.5944 305.912 60.1303C309.781 62.436 312.705 66.5121 315.209 70.477C323.485 83.5799 318.559 98.4263 306.235 106.327C299.595 110.583 291.011 113.39 282.369 114.258C273.741 115.125 264.715 114.09 257.315 110.278C254.323 108.736 252.677 106.209 252.173 103.355C251.702 100.684 252.252 97.9152 253.124 95.5112C254.847 90.7668 258.365 86.0126 261.532 83.7329C263.1 82.6034 265.288 82.9601 266.417 84.5288C267.547 86.0973 267.191 88.284 265.623 89.4135C263.77 90.7477 261.024 94.2647 259.705 97.8999C259.056 99.6854 258.891 101.134 259.068 102.139C259.213 102.961 259.579 103.57 260.521 104.055C266.384 107.075 273.957 108.068 281.669 107.293C289.368 106.52 296.866 104.018 302.457 100.434C312.075 94.2688 315.19 83.5548 309.291 74.2153C306.785 70.2473 304.618 67.5079 302.328 66.143C300.424 65.0087 298.09 64.6187 294.346 66.4907C293.153 67.0871 291.782 66.9378 290.763 66.2202C290.45 66.9616 289.881 67.5995 289.105 67.9878C287.376 68.8522 285.273 68.1521 284.409 66.4233C281.963 61.5316 278.797 58.6925 273.573 55.9839C272.285 55.3164 270.003 54.3755 267.985 54.0854C266.974 53.9401 266.317 54.0023 265.968 54.1137C265.764 54.179 265.749 54.2127 265.708 54.3061L265.702 54.3208C265.125 55.6399 265.053 57.9143 265.562 60.936C266.047 63.8156 266.941 66.7497 267.665 69.0483C268.887 72.9329 270.15 76.718 272.184 79.0063C273.468 80.451 273.338 82.6635 271.893 83.9477C270.448 85.2319 268.236 85.1015 266.952 83.6567C263.808 80.1198 262.169 74.9088 261.07 71.4126L260.988 71.1509C260.265 68.8547 259.233 65.5062 258.66 62.0981C258.11 58.8319 257.846 54.8119 259.289 51.5151C260.237 49.3468 261.948 48.0484 263.839 47.4448ZM170.468 83.9409C172.323 83.3957 174.269 84.4567 174.814 86.311C175.359 88.1649 174.297 90.11 172.444 90.6557C168.581 91.7919 164.828 93.3147 160.802 94.8716C156.847 96.401 152.672 97.944 148.291 98.9175C146.405 99.3364 144.535 98.1466 144.116 96.2602C143.696 94.3733 144.887 92.5028 146.774 92.0835C150.595 91.2343 154.342 89.8648 158.277 88.3432C162.141 86.849 166.25 85.1815 170.468 83.9409ZM122.234 43.4555C123.797 42.319 125.987 42.6651 127.123 44.228C129.92 48.0727 130.752 52.0531 131.759 55.5776C132.29 57.4362 131.214 59.3737 129.355 59.9048C127.496 60.4357 125.559 59.359 125.028 57.5005C123.858 53.4058 123.347 50.9381 121.461 48.3452C120.325 46.7819 120.671 44.5924 122.234 43.4555ZM162.623 30.0561C164.415 29.3312 166.456 30.1954 167.181 31.9868C169.824 38.5159 170.596 44.911 171.503 51.2602C171.777 53.1736 170.446 54.9466 168.533 55.2202C166.619 55.4933 164.847 54.1636 164.574 52.2505C163.632 45.6566 162.95 40.1908 160.693 34.6137C159.968 32.8221 160.832 30.7815 162.623 30.0561Z" fill="black"/>
</svg>
