<svg width="467" height="500" viewBox="0 0 467 500" fill="none" xmlns="http://www.w3.org/2000/svg">
<path d="M309.49 366.454L215.8 312.364C207.87 307.784 201.43 295.494 201.43 284.914V23.5937C201.49 13.0037 207.9 8.14371 215.83 12.7237L309.49 66.8137C317.49 71.4037 323.89 83.6937 323.89 94.2737V355.594C323.89 366.174 317.49 371.004 309.49 366.454Z" fill="#B1B4C4"/>
<path d="M311.119 371.164L318.549 367.414L311.429 355.204L311.119 371.164Z" fill="#B1B4C4"/>
<path d="M200.01 15.3339L206.84 11.7539L205.46 21.8239L200.01 15.3339Z" fill="#B1B4C4"/>
<path d="M303.54 369.444L209.86 315.354C201.92 310.774 195.49 298.484 195.49 287.894V26.5736C195.49 16.0036 201.92 11.1336 209.86 15.7136L303.54 69.8036C311.48 74.3836 317.91 86.6736 317.91 97.2536V358.584C317.91 369.164 311.49 374.004 303.54 369.444Z" fill="#616E84"/>
<path d="M316.92 97.9238V359.244C316.92 369.824 310.49 374.684 302.55 370.114L265.81 348.894L254.39 342.304L208.86 316.004C200.93 311.414 194.5 299.134 194.5 288.544V27.2438C194.49 16.6538 200.93 11.8038 208.86 16.3738L302.55 70.4638C310.49 75.0538 316.92 87.3338 316.92 97.9238Z" fill="#20232D"/>
<path d="M310.16 95.2739V349.784C310.16 356.194 305.66 358.784 300.11 355.584L270.82 338.684L268.23 337.184L267.37 336.684L261.04 333.004L242.72 322.444L235.12 318.054L232.06 316.294L211.3 304.294C205.75 301.084 201.25 293.294 201.25 286.864V32.3939C201.25 25.9739 205.75 23.3939 211.3 26.5839L247.88 47.7039V47.8039C248.027 50.5193 248.812 53.1619 250.171 55.5177C251.529 57.8735 253.423 59.8763 255.7 61.3639C260.03 63.8439 263.54 61.8339 263.54 56.8439C263.54 56.8439 263.54 56.7639 263.54 56.7339L300.13 77.8539C305.66 81.0539 310.16 88.8539 310.16 95.2739Z" fill="white"/>
<path d="M257.815 58.734C258.973 58.0658 258.971 55.8956 257.811 53.8867C256.651 51.8779 254.773 50.7912 253.615 51.4594C252.458 52.1277 252.46 54.2979 253.62 56.3067C254.779 58.3156 256.658 59.4023 257.815 58.734Z" fill="#2B303F"/>
<path opacity="0.1" d="M255.71 56.5338C255.353 56.2934 255.057 55.973 254.845 55.598C254.633 55.2231 254.512 54.8039 254.49 54.3738C254.49 53.5838 255.05 53.2538 255.74 53.6538C256.101 53.892 256.401 54.2115 256.617 54.5866C256.832 54.9617 256.957 55.382 256.98 55.8138C256.95 56.6038 256.39 56.9238 255.71 56.5338Z" fill="white"/>
<path d="M320.72 132.304C319.95 132.754 319.33 132.304 319.33 131.304V120.124C319.337 119.604 319.467 119.093 319.709 118.633C319.95 118.172 320.297 117.775 320.72 117.474C321.48 117.034 322.1 117.474 322.1 118.474V129.614C322.1 130.139 321.975 130.658 321.735 131.125C321.495 131.593 321.147 131.997 320.72 132.304Z" fill="#757B89"/>
<path d="M320.72 150.564C319.95 151.004 319.33 150.564 319.33 149.514V138.374C319.337 137.855 319.467 137.346 319.709 136.887C319.95 136.428 320.297 136.033 320.72 135.734C321.48 135.294 322.1 135.734 322.1 136.734V147.884C322.099 148.408 321.973 148.924 321.733 149.39C321.493 149.856 321.146 150.258 320.72 150.564Z" fill="#757B89"/>
<path d="M226.74 54.2938C218.57 49.5738 211.92 53.4138 211.92 62.8538C211.945 65.4819 212.381 68.0899 213.21 70.5838C216.92 82.0938 224.03 96.0838 226.12 100.104C226.261 100.385 226.475 100.624 226.74 100.794C226.833 100.857 226.943 100.891 227.055 100.891C227.167 100.891 227.277 100.857 227.37 100.794C229.46 99.1938 236.57 93.4038 240.28 86.1838C241.187 84.2528 241.628 82.1363 241.57 80.0038C241.57 70.5338 234.92 59.0038 226.74 54.2938ZM226.74 80.2938C224.507 78.8342 222.648 76.8717 221.311 74.5638C219.974 72.2558 219.196 69.6666 219.04 67.0038C219.04 62.1038 222.5 60.1038 226.74 62.5538C228.984 64.0077 230.855 65.969 232.201 68.2794C233.548 70.5898 234.332 73.1845 234.49 75.8538C234.49 80.7638 230.99 82.7538 226.74 80.3038V80.2938Z" fill="#DADCE5"/>
<path d="M292.09 244.074L219.09 201.924C215.09 199.644 211.93 193.514 211.93 188.244V137.544C211.93 132.274 215.13 129.854 219.09 132.134L292.09 174.294C296.09 176.574 299.25 182.694 299.25 187.974V238.664C299.25 243.934 296.05 246.364 292.09 244.074Z" fill="#E9EAF2"/>
<path d="M295.67 103.834L256.67 81.3139C254.67 80.1739 253.09 77.1139 253.09 74.4739V74.2639C253.09 71.6339 254.69 70.4239 256.67 71.5639L295.67 94.0839C297.67 95.2239 299.25 98.2839 299.25 100.924V101.134C299.25 103.764 297.65 105.004 295.67 103.834Z" fill="#E9EAF2"/>
<path d="M295.67 122.594L256.67 100.064C254.67 98.9237 253.09 95.8637 253.09 93.2337V93.0037C253.09 90.3637 254.69 89.1537 256.67 90.2937L295.67 112.824C297.67 113.964 299.25 117.024 299.25 119.654V119.864C299.25 122.524 297.65 123.734 295.67 122.594Z" fill="#E9EAF2"/>
<path d="M295.67 142.424L256.67 119.904C254.67 118.764 253.09 115.694 253.09 113.064V112.854C253.09 110.214 254.69 109.004 256.67 110.144L295.67 132.674C297.67 133.814 299.25 136.874 299.25 139.514V139.724C299.25 142.354 297.65 143.564 295.67 142.424Z" fill="#E9EAF2"/>
<path d="M295.67 162.254L215.49 116.004C213.49 114.864 211.91 111.804 211.91 109.174V108.964C211.91 106.324 213.51 105.114 215.49 106.254L295.66 152.544C297.66 153.684 299.24 156.744 299.24 159.384V159.594C299.25 162.184 297.65 163.394 295.67 162.254Z" fill="#E9EAF2"/>
<path d="M295.67 268.203L215.49 221.913C213.49 220.773 211.91 217.713 211.91 215.073V214.863C211.91 212.233 213.51 211.023 215.49 212.163L295.66 258.453C297.66 259.593 299.24 262.653 299.24 265.293V265.493C299.25 268.133 297.65 269.343 295.67 268.203Z" fill="#E9EAF2"/>
<path d="M295.67 289.604L215.49 243.314C213.49 242.174 211.91 239.114 211.91 236.474V236.264C211.91 233.634 213.51 232.414 215.49 233.564L295.66 279.844C297.66 280.994 299.24 284.054 299.24 286.684V286.894C299.25 289.534 297.65 290.744 295.67 289.604Z" fill="#E9EAF2"/>
<path d="M295.67 311.004L215.49 264.714C213.49 263.564 211.91 260.504 211.91 257.874V257.664C211.91 255.024 213.51 253.814 215.49 254.954L295.66 301.244C297.66 302.384 299.24 305.444 299.24 308.084V308.294C299.25 310.924 297.65 312.144 295.67 311.004Z" fill="#E9EAF2"/>
<path d="M260.661 312.184L216.391 286.624C214.391 285.484 212.811 282.424 212.811 279.784V279.574C212.811 276.944 214.421 275.724 216.391 276.874L260.661 302.424C262.661 303.564 264.241 306.634 264.241 309.264V309.474C264.241 312.104 262.631 313.324 260.661 312.184Z" fill="#E9EAF2"/>
<path d="M298.649 422.824L252.539 396.204L298.649 369.583L344.759 396.204L298.649 422.824Z" fill="#EFDA86"/>
<path d="M341.64 450.624L298.65 475.444V425.804L341.64 400.984V450.624Z" fill="#D1B66B"/>
<path d="M298.65 475.444L255.66 450.624V400.984L298.65 425.804V475.444Z" fill="#E2C979"/>
<path opacity="0.1" d="M255.66 400.984V413.974L298.65 438.504V425.854L255.66 400.984Z" fill="black"/>
<path opacity="0.1" d="M341.64 400.984V414.894L298.65 438.504V425.854L341.64 400.984Z" fill="black"/>
<path d="M252.539 396.204V409.974L298.649 436.234V422.824L252.539 396.204Z" fill="#E2C979"/>
<path d="M298.65 436.234L344.76 411.054V396.204L298.65 422.824V436.234Z" fill="#D1B66B"/>
<path opacity="0.05" d="M298.439 410.394L276.109 397.204L300.289 383.244L322.619 396.434L298.439 410.394Z" fill="black"/>
<path d="M301.34 381.174L277.15 367.214L301.34 353.244L325.52 367.214L301.34 381.174Z" fill="#EFDA86"/>
<path d="M323.88 395.754L301.34 408.764V382.734L323.88 369.714V395.754Z" fill="#D1B66B"/>
<path d="M301.339 408.764L278.789 395.754V369.714L301.339 382.734V408.764Z" fill="#E2C979"/>
<path opacity="0.1" d="M278.789 369.714V376.524L301.339 389.394V382.754L278.789 369.714Z" fill="black"/>
<path opacity="0.1" d="M323.88 369.714V377.014L301.34 389.394V382.754L323.88 369.714Z" fill="black"/>
<path d="M277.15 367.214V374.434L301.34 388.204V381.174L277.15 367.214Z" fill="#E2C979"/>
<path d="M301.34 388.204L325.52 374.994V367.214L301.34 381.174V388.204Z" fill="#D1B66B"/>
<path opacity="0.4" d="M351.299 489.714L318.699 470.974L343.419 456.694L376.009 475.444L351.299 489.714Z" fill="#D6D8E5"/>
<path d="M355.089 459.234L320.949 439.494L345.669 425.224L379.809 444.964L355.089 459.234Z" fill="#EFDA86"/>
<path d="M378.14 474.134L355.09 487.444V460.824L378.14 447.524V474.134Z" fill="#D1B66B"/>
<path d="M355.089 487.444L322.619 468.664V442.054L355.089 460.824V487.444Z" fill="#E2C979"/>
<path opacity="0.1" d="M322.619 442.054V449.024L355.089 467.634V460.854L322.619 442.054Z" fill="black"/>
<path opacity="0.1" d="M378.14 447.524V454.984L355.09 467.634V460.854L378.14 447.524Z" fill="black"/>
<path d="M320.949 439.494V446.874L355.089 466.424V459.234L320.949 439.494Z" fill="#E2C979"/>
<path d="M355.09 466.424L379.81 452.924V444.964L355.09 459.234V466.424Z" fill="#D1B66B"/>
<path d="M94.4199 211.124C96.1099 214.984 100.85 233.124 104.87 237.884C108.89 242.644 128.87 243.074 128.87 243.074L125.61 232.744L112.81 229.484L106.22 213.054L94.4199 211.124Z" fill="#FFCEA9"/>
<path d="M120.729 226.914C113.109 228.834 111.319 224.024 110.309 220.044C107.889 210.414 106.369 230.844 109.559 233.414C113.489 236.594 114.759 239.324 123.719 237.094C127.539 236.094 131.719 233.854 138.969 230.484C140.909 229.584 142.419 228.974 146.139 227.244C149.859 225.514 153.739 222.614 155.689 219.784C157.639 216.954 157.909 215.634 157.509 214.984C157.009 214.174 156.119 214.354 155.079 215.544C153.571 217.551 151.715 219.272 149.599 220.624C149.599 220.624 151.999 218.134 153.309 216.514C154.477 215.081 155.446 213.496 156.189 211.804C156.879 210.154 155.459 207.924 154.379 209.094C153.299 210.264 152.789 211.464 150.819 213.834C149.78 215.09 148.595 216.218 147.289 217.194C148.51 215.54 149.597 213.791 150.539 211.964C151.378 210.533 151.791 208.892 151.729 207.234C151.669 206.364 150.459 205.344 149.309 206.974C148.309 208.444 147.619 210.744 145.219 213.234C143.479 215.044 141.999 216.074 141.959 215.574C141.919 215.074 143.009 214.084 143.629 211.984C144.249 209.884 143.629 207.654 142.469 207.414C141.309 207.174 141.529 207.234 140.589 209.204C139.649 211.174 138.229 212.624 137.129 215.494C136.54 217.521 135.466 219.375 133.999 220.894C132.119 222.884 127.979 225.084 120.729 226.914Z" fill="#FFCEA9"/>
<path opacity="0.4" d="M129.95 417.174C153.671 417.174 172.9 406.07 172.9 392.374C172.9 378.677 153.671 367.574 129.95 367.574C106.229 367.574 87 378.677 87 392.374C87 406.07 106.229 417.174 129.95 417.174Z" fill="#D6D8E5"/>
<path d="M109.56 188.124C107.905 187.354 106.024 187.22 104.276 187.748C102.527 188.275 101.034 189.427 100.08 190.984C97.5705 195.144 94.9605 209.384 94.7305 211.814C94.7305 211.814 98.2405 216.674 103.52 215.864L109.56 188.124Z" fill="#EDEDED"/>
<path d="M129.02 389.204C132.721 390.214 136.67 389.732 140.02 387.864C142.67 387.944 157.09 381.774 159.02 386.954C160.74 391.494 154.49 395.694 151.16 396.504C143.87 398.274 138.49 401.904 135.56 402.504C133.38 402.964 130.56 403.274 128.82 401.554C126.8 399.514 126.98 391.904 129.02 389.204Z" fill="#2B2A30"/>
<path d="M135.62 401.264C138.55 400.644 143.93 397.014 151.22 395.264C154.01 394.594 158.83 391.534 159.32 387.884C159.96 392.064 154.32 395.774 151.22 396.524C143.93 398.294 138.55 401.924 135.62 402.524C133.44 402.984 130.62 403.294 128.88 401.574C128.43 401.077 128.104 400.481 127.93 399.834C130.49 401.934 133.49 401.724 135.62 401.264Z" fill="#BF4B4B"/>
<path d="M105.63 378.694C109.329 379.713 113.281 379.235 116.63 377.364C119.29 377.444 133.7 371.274 135.63 376.454C137.34 380.994 131.1 385.194 127.76 386.004C120.48 387.774 115.09 391.404 112.17 392.004C109.99 392.464 107.17 392.774 105.43 391.054C103.42 389.004 103.6 381.404 105.63 378.694Z" fill="#2B2A30"/>
<path d="M112.24 390.764C115.16 390.144 120.55 386.514 127.83 384.764C130.63 384.094 135.44 381.034 135.93 377.384C136.58 381.564 130.93 385.274 127.83 386.024C120.55 387.794 115.16 391.424 112.24 392.024C110.06 392.484 107.24 392.794 105.5 391.074C105.036 390.58 104.693 389.984 104.5 389.334C107.08 391.434 110.06 391.224 112.24 390.764Z" fill="#BF4B4B"/>
<path d="M105.35 339.524C105.971 334.169 107.086 328.883 108.68 323.734C108.68 323.734 107.68 310.104 107.19 297.184C106.62 282.524 101.54 269.624 105.55 257.924L150.79 268.004C150.79 268.004 148.05 326.454 147.451 333.534C147.123 339.04 146.455 344.52 145.451 349.944C143.381 361.294 140.03 388.284 140.03 388.284C135.24 391.064 128.96 389.524 128.96 389.524C128.96 389.524 129.31 355.394 129.62 347.214C129.99 337.214 130.3 337.994 130.3 337.994L128.8 313.124L127.8 300.754C127.8 300.754 126.55 309.834 125.74 317.944C125.03 325.014 123.32 331.404 121.41 344.574C119.76 355.994 117.07 378.934 117.07 378.934C112.29 381.714 105.79 379.404 105.79 379.404C105.79 379.404 104.05 349.434 105.35 339.524Z" fill="#E26161"/>
<path d="M111.959 188.364C115.399 188.534 117.959 189.424 118.399 188.364C118.766 186.588 119.026 184.791 119.179 182.984C118.779 181.984 118.439 180.914 118.439 180.914C114.119 178.244 112.749 173.574 112.179 168.124C111.179 158.814 116.239 150.674 125.549 149.694C134.299 148.784 140.729 154.934 142.449 163.374C143.379 167.544 145.219 175.424 142.729 182.284C141.339 186.114 139.539 189.154 137.729 189.754C135.995 189.705 134.265 189.551 132.549 189.294C132.549 189.294 132.079 191.874 131.759 193.534C131.439 195.194 131.569 196.074 134.869 198.104C138.169 200.134 129.869 204.324 124.459 203.914C119.049 203.504 112.929 200.224 111.259 196.724C109.429 192.864 109.589 188.254 111.959 188.364Z" fill="#FFCEA9"/>
<path d="M116.94 188.884C115.99 191.264 118.41 194.174 124.88 196.204C131.35 198.234 131.93 195.624 131.93 195.624C131.93 195.624 141.42 199.944 144.51 202.104C148.4 204.814 150.12 212.674 150.64 225.934C151.25 241.284 151.3 264.054 150.79 267.984C150.79 267.984 143.53 275.214 134.24 274.454C124.95 273.694 109.33 265.454 105.54 259.124C105.64 245.664 107.21 243.474 105.03 235.724C100.03 217.974 97.4198 210.724 99.8398 198.914C101.84 189.194 104.64 187.984 108.48 188.084C111.312 188.197 114.136 188.464 116.94 188.884Z" fill="#F4F4F4"/>
<path d="M165.241 238.624C157.621 240.544 155.831 235.744 154.831 231.764C152.401 222.124 151.091 213.424 149.291 207.954C147.161 201.504 144.931 200.474 141.791 199.214C138.111 197.744 134.951 200.854 136.171 209.064C137.621 218.774 139.521 225.594 143.171 237.064C144.111 240.064 146.241 245.394 149.431 247.974C153.361 251.154 159.281 250.974 168.241 248.784C172.071 247.784 176.241 245.554 183.491 242.174C185.431 241.274 186.941 240.674 190.661 238.934C194.381 237.194 198.261 234.304 200.221 231.484C202.181 228.664 202.431 227.324 202.031 226.684C201.531 225.874 200.641 226.054 199.601 227.244C198.091 229.248 196.236 230.965 194.121 232.314C194.121 232.314 196.521 229.824 197.831 228.214C199 226.782 199.969 225.197 200.711 223.504C201.401 221.854 199.981 219.614 198.901 220.784C197.821 221.954 197.311 223.164 195.341 225.524C194.3 226.782 193.115 227.913 191.811 228.894C193.031 227.236 194.117 225.484 195.061 223.654C195.901 222.223 196.314 220.582 196.251 218.924C196.191 218.064 194.981 217.044 193.841 218.674C192.841 220.134 192.141 222.434 189.741 224.924C188.001 226.734 186.521 227.774 186.481 227.274C186.441 226.774 187.531 225.774 188.151 223.674C188.771 221.574 188.151 219.344 186.991 219.104C185.831 218.864 186.051 218.924 185.121 220.894C184.191 222.864 182.751 224.314 181.651 227.194C181.058 229.229 179.972 231.088 178.491 232.604C176.631 234.594 172.491 236.804 165.241 238.624Z" fill="#FFCEA9"/>
<path d="M138.97 197.904C144.06 197.154 147.66 199.444 149.91 207.154C152.16 214.864 153.72 221.154 153.72 221.154C151.709 224.063 148.66 226.092 145.2 226.824C139.11 228.294 136.92 225.384 136.92 225.384C136.92 225.384 135.23 217.304 134.18 211.804C133.13 206.304 132.67 198.834 138.97 197.904Z" fill="#EDEDED"/>
<path d="M142.159 162.184C142.159 162.184 150.159 149.964 132.769 147.474C120.199 145.674 112.129 153.744 111.199 162.474C110.299 170.844 115.459 179.534 119.199 182.984C121.019 183.634 124.929 183.984 130.059 181.674C130.269 179.394 130.35 177.103 130.299 174.814C130.299 174.814 124.159 162.004 142.159 162.184Z" fill="#2B2A30"/>
<path d="M270.821 338.684L268.231 337.184L267.371 336.684C268.176 336.509 268.929 336.149 269.571 335.634C269.841 335.604 270.371 337.004 270.821 338.684Z" fill="#38226D"/>
<path d="M269.75 336.444C269.282 336.763 268.77 337.013 268.23 337.184L261.04 333.004C259.56 326.094 256.23 310.474 254.45 302.374C252.13 291.804 251.73 285.704 250.53 279.154C249.08 271.224 245.94 234.214 245.94 234.214L244.7 234.284L241.36 276.054C242.384 279.137 243.088 282.317 243.46 285.544C244.18 290.894 243.18 313.104 242.72 322.434L235.12 318.034L232.06 316.274C229.61 302.544 225.49 278.834 225.49 274.004C225.49 269.444 226.28 209.264 226.28 209.264L269.73 220.404C269.59 225.124 268.11 245.614 267.46 256.474C266.81 267.334 266.65 280.624 266.65 280.624C266.65 280.624 268.52 288.524 269.73 297.824C270.94 307.124 269.75 336.444 269.75 336.444Z" fill="#506CFF"/>
<path d="M258.491 129.154C258.491 129.154 257.961 139.444 258.191 140.354C258.421 141.264 262.911 144.284 264.191 145.354C265.471 146.424 257.071 154.744 252.981 156.624C248.891 158.504 235.901 153.554 235.671 147.174C235.441 140.794 237.891 135.454 239.881 135.174C241.871 134.894 258.491 129.154 258.491 129.154Z" fill="#FFCEA9"/>
<path d="M230.25 148.244C229.65 143.714 232.63 139.404 229.73 135.784C219.57 145.784 220.87 172.104 218.56 188.964C211.01 196.854 195.85 204.624 191.56 206.544C190.78 206.904 190.1 207.284 190.26 208.114C190.87 211.404 191.82 212.654 193.79 215.834C203.79 211.504 211.06 209.024 223.59 197.114C224.777 195.825 225.842 194.429 226.77 192.944C230.38 182.194 231.28 156.094 230.25 148.244Z" fill="#FFCEA9"/>
<path d="M259.591 142.134C259.591 142.134 252.121 153.264 241.691 154.304C238.411 151.074 238.111 139.544 242.691 135.864C242.691 135.864 238.511 132.484 235.691 133.144C232.62 135.007 230.334 137.926 229.261 141.354C226.577 149.001 225.3 157.072 225.491 165.174C225.671 176.094 225.491 209.464 225.491 209.464C225.491 209.464 226.961 216.524 236.381 221.774C245.801 227.024 252.811 227.534 259.201 226.044C264.471 224.814 268.831 222.954 270.651 219.124C270.181 211.474 266.761 191.494 268.041 181.874C269.321 172.254 271.351 165.064 271.871 157.284C272.391 149.504 270.871 149.654 266.941 146.884C264.608 145.127 262.152 143.54 259.591 142.134Z" fill="#F4F4F4"/>
<path d="M235.142 113.804C236.372 105.804 242.142 99.8037 250.372 100.214C253.691 100.376 256.874 101.577 259.473 103.648C262.071 105.719 263.953 108.555 264.85 111.754C265.748 114.954 265.618 118.354 264.476 121.475C263.335 124.596 261.242 127.278 258.492 129.144C258.2 130.355 257.771 131.53 257.212 132.644C254.302 136.054 245.482 138.154 242.952 137.794C239.702 137.324 237.952 135.974 236.392 132.414C233.612 126.144 234.492 117.754 235.142 113.804Z" fill="#FFCEA9"/>
<path d="M258.49 129.144L257.73 122.144C257.73 122.144 263.43 107.404 249.97 110.234C241.09 112.104 238.86 112.914 236.15 106.954C233.44 100.994 242.98 95.6339 254.3 97.1239C258.198 97.534 261.8 99.3925 264.392 102.331C266.985 105.27 268.38 109.076 268.3 112.994C267.96 117.414 266.79 126.284 258.49 129.144Z" fill="#3A2C6D"/>
<path d="M220.591 191.414L189.051 173.204L220.591 154.994L252.131 173.204L220.591 191.414Z" fill="#EFDA86"/>
<path opacity="0.4" d="M217.99 183.004C225.446 183.004 231.49 179.646 231.49 175.504C231.49 171.362 225.446 168.004 217.99 168.004C210.534 168.004 204.49 171.362 204.49 175.504C204.49 179.646 210.534 183.004 217.99 183.004Z" fill="#D6D8E5"/>
<path d="M219.99 183.004C227.446 183.004 233.49 179.422 233.49 175.004C233.49 170.586 227.446 167.004 219.99 167.004C212.534 167.004 206.49 170.586 206.49 175.004C206.49 179.422 212.534 183.004 219.99 183.004Z" fill="#D9DCE8"/>
<path d="M206.49 175.004C206.49 174.97 206.49 171.004 206.49 171.004L210.49 172.467L206.49 175.004Z" fill="#D9DCE8"/>
<path d="M233.49 171.004V175.004L228.49 173.897L233.49 171.004Z" fill="#D9DCE8"/>
<path d="M219.99 179.004C227.446 179.004 233.49 175.422 233.49 171.004C233.49 166.586 227.446 163.004 219.99 163.004C212.534 163.004 206.49 166.586 206.49 171.004C206.49 175.422 212.534 179.004 219.99 179.004Z" fill="#EFF1F9"/>
<path d="M210.988 177.004L209.49 176.149L228.992 165.004L230.49 165.859L210.988 177.004Z" fill="#D3D6E2"/>
<path d="M209.49 176.004V180.1L210.368 180.906L210.49 181.004V176.868L209.49 176.004Z" fill="#C5C8D3"/>
<path d="M250 210.434L220.59 227.414V193.454L250 176.474V210.434Z" fill="#D1B66B"/>
<path d="M220.592 227.414L191.182 210.434V176.474L220.592 193.454V227.414Z" fill="#E2C979"/>
<path opacity="0.1" d="M191.182 176.474V185.354L220.592 202.144V193.484L191.182 176.474Z" fill="black"/>
<path opacity="0.1" d="M250 176.474V185.994L220.59 202.144V193.484L250 176.474Z" fill="black"/>
<path d="M189.051 173.204V182.624L220.591 200.584V191.414L189.051 173.204Z" fill="#E2C979"/>
<path d="M220.59 200.584L252.13 183.364V173.204L220.59 191.414V200.584Z" fill="#D1B66B"/>
<path d="M274.2 152.694C270.29 151.574 273.27 152.504 270.29 151.574C260.13 161.574 261.4 178.574 259.09 195.484C253.49 204.754 232.67 217.324 232.67 217.324C232.41 219.114 233.04 219.654 235.29 223.324C245.29 218.994 253.72 215.264 266.29 203.324C266.78 202.854 267.51 202.734 267.72 202.084C271.26 191.324 275.23 160.534 274.2 152.694Z" fill="#FFCEA9"/>
<path d="M237.911 217.694C237.411 215.934 236.131 216.364 234.701 216.814C233.139 217.439 231.426 217.585 229.781 217.234C228.421 216.814 227.431 215.634 226.271 214.854C225.596 214.458 224.832 214.241 224.051 214.224C224.121 214.674 224.811 217.304 224.811 217.304C224.811 217.304 217.541 217.374 216.811 217.224C216.561 217.173 216.301 217.202 216.068 217.306C215.835 217.411 215.641 217.586 215.513 217.807C215.385 218.028 215.329 218.283 215.354 218.538C215.379 218.792 215.482 219.032 215.651 219.224C215.491 219.224 215.321 219.224 215.161 219.154C213.671 218.824 213.041 221.154 214.531 221.444C214.931 221.534 215.341 221.574 215.751 221.624C214.751 222.004 214.531 223.624 215.751 223.844L216.131 223.904C216.298 223.973 216.48 224.001 216.661 223.984H216.891C216.858 224.157 216.861 224.336 216.899 224.509C216.937 224.681 217.009 224.845 217.112 224.988C217.215 225.132 217.346 225.254 217.497 225.346C217.648 225.438 217.816 225.498 217.991 225.524C221.541 225.984 226.771 227.404 229.991 224.474C232.22 224.258 234.397 223.67 236.431 222.734C238.491 221.794 238.491 219.804 237.911 217.694Z" fill="#FFCEA9"/>
<path d="M201.591 209.894C201.421 209.894 201.261 209.894 201.091 209.894C201.299 209.744 201.454 209.533 201.535 209.29C201.616 209.047 201.619 208.784 201.543 208.54C201.466 208.295 201.315 208.081 201.11 207.927C200.905 207.774 200.657 207.688 200.401 207.684C199.641 207.684 192.151 206.124 192.151 206.124L191.251 203.044C191.201 202.874 189.951 203.654 189.911 203.694C189.278 204.108 188.746 204.659 188.355 205.307C187.964 205.954 187.723 206.681 187.651 207.434C187.609 208.491 187.777 209.547 188.146 210.539C188.516 211.531 189.078 212.44 189.801 213.214C191.144 214.573 192.961 215.361 194.871 215.414C195.781 215.474 196.651 215.514 197.441 215.574C197.617 215.587 197.794 215.565 197.961 215.507C198.127 215.45 198.281 215.359 198.411 215.24C198.541 215.121 198.646 214.976 198.718 214.815C198.79 214.654 198.829 214.48 198.831 214.304H199.061C199.242 214.341 199.429 214.341 199.611 214.304H199.991C201.261 214.304 201.361 212.724 200.491 212.144C200.901 212.144 201.311 212.224 201.721 212.224C203.251 212.254 203.121 209.884 201.591 209.894Z" fill="#FFCEA9"/>
<path d="M226.01 155.004C226.01 155.004 222.18 154.814 220.59 152.574C220.88 148.754 225.77 134.234 235.59 133.154C232.909 135.028 230.785 137.592 229.44 140.574C227.68 144.944 226.01 155.004 226.01 155.004Z" fill="#EDEDED"/>
<path d="M275.972 174.184C275.972 174.184 266.172 177.564 259.272 171.884C258.522 170.584 263.272 153.884 263.272 153.884C263.272 153.884 267.382 145.364 273.822 148.754C280.262 152.144 275.972 174.184 275.972 174.184Z" fill="#EDEDED"/>
</svg>
