<svg width="430" height="500" viewBox="0 0 430 500" fill="none" xmlns="http://www.w3.org/2000/svg">
<g clip-path="url(#clip0_362_1287)">
<path opacity="0.4" d="M167.55 279.29L132.92 259.41L170.07 237.97L204.7 257.85L167.55 279.29Z" fill="#D6D8E5"/>
<path d="M171.429 234.65L134.289 213.2L171.429 191.75L208.579 213.2L171.429 234.65Z" fill="#EFDA86"/>
<path d="M206.07 257.04L171.43 277.04V237.04L206.07 217.05V257.04Z" fill="#D1B66B"/>
<path d="M171.431 277.04L136.801 257.04V217.05L171.431 237.04V277.04Z" fill="#E2C979"/>
<path opacity="0.1" d="M136.801 217.05V227.51L171.431 247.28V237.09L136.801 217.05Z" fill="black"/>
<path opacity="0.1" d="M206.07 217.05V228.26L171.43 247.28V237.09L206.07 217.05Z" fill="black"/>
<path d="M134.289 213.2V224.29L171.429 245.45V234.65L134.289 213.2Z" fill="#E2C979"/>
<path d="M171.43 245.45L208.58 225.16V213.2L171.43 234.65V245.45Z" fill="#D1B66B"/>
<path opacity="0.4" d="M307.001 370L196.281 306.24C195.647 305.872 195.123 305.341 194.764 304.701C194.406 304.062 194.226 303.338 194.243 302.605C194.261 301.872 194.475 301.157 194.863 300.535C195.252 299.913 195.8 299.407 196.451 299.07L210.381 291.89C210.989 291.579 211.665 291.424 212.347 291.44C213.03 291.456 213.698 291.641 214.291 291.98L328.741 357.88C329.378 358.245 329.904 358.776 330.265 359.416C330.626 360.056 330.807 360.781 330.789 361.516C330.772 362.25 330.557 362.966 330.166 363.588C329.776 364.21 329.225 364.715 328.571 365.05L318.461 370.26C316.682 371.181 314.7 371.641 312.698 371.595C310.695 371.55 308.736 371.001 307.001 370Z" fill="#D6D8E5"/>
<path d="M313.801 358L219.441 303.52C211.441 298.91 204.971 286.52 204.971 275.87V12.68C205.001 2.00002 211.451 -2.87998 219.441 1.74002L313.801 56.21C321.801 60.83 328.271 73.21 328.271 83.86V347.06C328.271 357.72 321.791 362.61 313.801 358Z" fill="#B1B4C4"/>
<path d="M315.42 362.74L322.89 358.96L315.72 346.67L315.42 362.74Z" fill="#B1B4C4"/>
<path d="M203.51 4.36L210.39 0.75L209 10.9L203.51 4.36Z" fill="#B1B4C4"/>
<path d="M307.781 361L213.431 306.52C205.431 301.91 198.961 289.52 198.961 278.87V15.69C199.001 5 205.441 0.129995 213.431 4.74L307.781 59.22C315.781 63.84 322.261 76.22 322.261 86.87V350.07C322.261 360.72 315.781 365.62 307.781 361Z" fill="#616E84"/>
<path d="M321.251 87.5399V350.73C321.251 361.4 314.781 366.29 306.781 361.68L269.781 340.32L258.271 333.67L212.421 307.2C204.421 302.58 197.961 290.2 197.961 279.55V16.3599C198.001 5.68993 204.431 0.799929 212.421 5.40993L306.781 59.8899C314.781 64.5099 321.251 76.8799 321.251 87.5399Z" fill="#20232D"/>
<path d="M314.44 84.8701V341.21C314.44 347.67 309.91 350.29 304.33 347.05L299.33 344.15L282.19 334.26L274.82 330L272.22 328.49L271.35 327.98L265 324.33L246.55 313.69L238.95 309.3L235.87 307.52L217.47 296.9L214.96 295.45C209.36 292.22 204.84 284.37 204.84 277.9V21.5401C204.84 15.0801 209.36 12.4601 214.96 15.6901L251.72 37.0001V37.1001C251.867 39.8361 252.658 42.4988 254.027 44.8722C255.396 47.2456 257.305 49.2628 259.6 50.7601C263.96 53.2601 267.49 51.2301 267.49 46.2101C267.49 46.2101 267.49 46.1301 267.49 46.1001L304.34 67.3701C309.91 70.5601 314.44 78.4101 314.44 84.8701Z" fill="white"/>
<path d="M262.747 48.2681C263.92 47.5943 263.923 45.4005 262.755 43.368C261.587 41.3356 259.69 40.2341 258.517 40.9079C257.345 41.5817 257.341 43.7756 258.51 45.808C259.678 47.8405 261.575 48.9419 262.747 48.2681Z" fill="#2B303F"/>
<path opacity="0.1" d="M259.6 45.85C259.235 45.6119 258.933 45.2914 258.715 44.9144C258.498 44.5374 258.373 44.1145 258.35 43.68C258.35 42.88 258.91 42.56 259.6 42.96C259.967 43.1959 260.272 43.5156 260.492 43.893C260.711 44.2703 260.837 44.6943 260.86 45.13C260.86 45.93 260.3 46.25 259.6 45.85Z" fill="white"/>
<path d="M325.079 122.17C324.309 122.62 323.689 122.17 323.689 121.17V109.9C323.696 109.379 323.825 108.866 324.067 108.404C324.308 107.942 324.655 107.543 325.079 107.24C325.849 106.79 326.469 107.24 326.469 108.29V119.51C326.463 120.031 326.334 120.544 326.092 121.006C325.851 121.468 325.504 121.867 325.079 122.17Z" fill="#757B89"/>
<path d="M325.079 140.56C324.309 141 323.689 140.56 323.689 139.51V128.28C323.698 127.759 323.829 127.247 324.07 126.786C324.311 126.324 324.657 125.925 325.079 125.62C325.849 125.18 326.469 125.62 326.469 126.68V137.9C326.462 138.421 326.333 138.933 326.091 139.395C325.85 139.857 325.503 140.256 325.079 140.56Z" fill="#757B89"/>
<path d="M293.841 172.51L222.841 131.51C219.841 129.77 217.381 125.1 217.381 121.07V41.07C217.381 37.07 219.821 35.2 222.841 36.94L293.841 77.94C296.841 79.68 299.301 84.35 299.301 88.37V168.37C299.301 172.4 296.861 174.25 293.841 172.51Z" fill="#E9EAF2"/>
<path d="M293.841 279.56L222.841 238.56C219.841 236.82 217.381 232.15 217.381 228.13V148.13C217.381 144.13 219.821 142.26 222.841 144L293.841 185C296.841 186.74 299.301 191.41 299.301 195.44V275.44C299.301 279.45 296.861 281.3 293.841 279.56Z" fill="#E9EAF2"/>
<path d="M299.31 302.46V344.15L274.82 330L272.22 328.49L271.35 327.98L265 324.33L246.55 313.69L238.9 309.28L235.82 307.5L217.42 296.88V255.18C217.42 251.18 219.87 249.32 222.88 251.06L293.88 292.06C296.86 293.77 299.31 298.44 299.31 302.46Z" fill="#E9EAF2"/>
<path d="M275.6 202.65L241.25 182.82V187.78L275.6 207.61V202.65Z" fill="#D9DAE2"/>
<path opacity="0.4" d="M380.779 394.51L341.289 371.71L346.239 368.84L385.739 391.63L380.779 394.51Z" fill="#D6D8E5"/>
<path d="M396.041 385.91L356.391 363.01L361.351 317.79L391.091 334.96L396.041 385.91Z" fill="#C65555"/>
<path d="M385.74 391.63L346.08 368.74L351.04 323.52L380.78 340.69L385.74 391.63Z" fill="#FF6C6C"/>
<path d="M385.739 391.63L396.039 385.91L391.089 334.96L380.779 340.69L385.739 391.63Z" fill="#DD6262"/>
<path d="M351.039 323.52L361.349 317.79L360.139 328.77L351.039 323.52Z" fill="#C65555"/>
<path d="M373.34 336.29L371.51 335.23C371.51 330.96 369 326.04 365.91 324.23C362.82 322.42 360.32 324.47 360.32 328.74L358.48 327.68C358.48 322.25 361.82 319.75 365.91 322.11C370 324.47 373.34 330.86 373.34 336.29Z" fill="#20232D"/>
<path d="M383.001 330.38L381.171 329.32C381.171 325.05 378.661 320.13 375.571 318.32C372.481 316.51 369.981 318.56 369.981 322.83L368.141 321.77C368.141 316.34 371.481 313.84 375.571 316.2C379.661 318.56 383.001 325 383.001 330.38Z" fill="#20232D"/>
<path opacity="0.4" d="M345.259 423.43L288.359 390.6L295.499 386.45L352.399 419.29L345.259 423.43Z" fill="#D6D8E5"/>
<path d="M367.239 411.04L310.119 378.06L317.259 312.92L360.099 337.66L367.239 411.04Z" fill="#C65555"/>
<path d="M352.4 419.29L295.27 386.31L302.41 321.17L345.26 345.9L352.4 419.29Z" fill="#FF6C6C"/>
<path d="M352.4 419.29L367.24 411.04L360.1 337.66L345.26 345.9L352.4 419.29Z" fill="#DD6262"/>
<path d="M302.41 321.17L317.26 312.92L315.52 328.74L302.41 321.17Z" fill="#C65555"/>
<path d="M334.541 339.57L331.901 338C331.901 331.85 328.281 324.76 323.841 322.2C319.401 319.64 315.771 322.54 315.771 328.69L313.131 327.17C313.131 319.34 317.931 315.74 323.841 319.17C329.751 322.6 334.541 331.74 334.541 339.57Z" fill="#20232D"/>
<path d="M348.471 331.06L345.831 329.53C345.831 323.38 342.211 316.29 337.771 313.72C333.331 311.15 329.701 314.07 329.701 320.22L327.061 318.7C327.061 310.86 331.871 307.27 337.771 310.7C343.671 314.13 348.471 323.22 348.471 331.06Z" fill="#20232D"/>
<path opacity="0.4" d="M109.47 280.6L88.0898 268.33L112.1 254.47L133.47 266.75L109.47 280.6Z" fill="#D6D8E5"/>
<path d="M112.94 252.43L90.0098 239.19L112.94 225.95L135.87 239.19L112.94 252.43Z" fill="#EFDA86"/>
<path d="M134.319 266.25L112.939 278.59V253.9L134.319 241.56V266.25Z" fill="#D1B66B"/>
<path d="M112.941 278.59L91.5605 266.25V241.56L112.941 253.9V278.59Z" fill="#E2C979"/>
<path opacity="0.1" d="M91.5605 241.56V248.02L112.941 260.22V253.93L91.5605 241.56Z" fill="black"/>
<path opacity="0.1" d="M134.319 241.56V248.48L112.939 260.22V253.93L134.319 241.56Z" fill="black"/>
<path d="M90.0098 239.19V246.03L112.94 259.09V252.43L90.0098 239.19Z" fill="#E2C979"/>
<path d="M112.939 259.09L135.869 246.57V239.19L112.939 252.43V259.09Z" fill="#D1B66B"/>
<path opacity="0.4" d="M389.249 422.32L369.949 411.25L391.669 398.71L410.969 409.79L389.249 422.32Z" fill="#D6D8E5"/>
<path d="M392.43 396.86L371.73 384.91L392.43 372.96L413.13 384.91L392.43 396.86Z" fill="#EFDA86"/>
<path d="M411.73 409.34L392.43 420.48V398.19L411.73 387.05V409.34Z" fill="#D1B66B"/>
<path d="M392.431 420.48L373.131 409.34V387.05L392.431 398.19V420.48Z" fill="#E2C979"/>
<path opacity="0.1" d="M373.131 387.05V392.88L392.431 403.9V398.22L373.131 387.05Z" fill="black"/>
<path opacity="0.1" d="M411.73 387.05V393.3L392.43 403.9V398.22L411.73 387.05Z" fill="black"/>
<path d="M371.73 384.91V391.09L392.43 402.88V396.86L371.73 384.91Z" fill="#E2C979"/>
<path d="M392.43 402.88L413.13 391.57V384.91L392.43 396.86V402.88Z" fill="#D1B66B"/>
<path opacity="0.4" d="M161.369 313.52L120.279 289.81L125.439 286.82L166.529 310.53L161.369 313.52Z" fill="#D6D8E5"/>
<path d="M177.25 304.57L135.99 280.75L141.15 233.71L172.09 251.58L177.25 304.57Z" fill="#C65555"/>
<path d="M166.53 310.53L125.27 286.71L130.43 239.67L161.37 257.53L166.53 310.53Z" fill="#FF6C6C"/>
<path d="M166.529 310.53L177.249 304.57L172.089 251.58L161.369 257.53L166.529 310.53Z" fill="#DD6262"/>
<path d="M130.43 239.67L141.15 233.71L139.9 245.13L130.43 239.67Z" fill="#C65555"/>
<path d="M153.63 253L151.73 251.9C151.73 247.45 149.11 242.33 145.9 240.48C142.69 238.63 140.08 240.73 140.08 245.17L138.17 244.07C138.17 238.42 141.64 235.82 145.9 238.28C150.16 240.74 153.63 247.3 153.63 253Z" fill="#20232D"/>
<path d="M163.69 246.81L161.79 245.71C161.79 241.27 159.17 236.14 155.96 234.29C152.75 232.44 150.14 234.54 150.14 238.98L148.23 237.88C148.23 232.23 151.7 229.63 155.96 232.09C160.22 234.55 163.69 241.15 163.69 246.81Z" fill="#20232D"/>
<path opacity="0.4" d="M43.6 500C67.6796 500 87.2 488.731 87.2 474.83C87.2 460.929 67.6796 449.66 43.6 449.66C19.5204 449.66 0 460.929 0 474.83C0 488.731 19.5204 500 43.6 500Z" fill="#D6D8E5"/>
<path d="M11.6305 286.29C11.1405 290.53 6.09055 308.81 7.17055 315.07C8.25055 321.33 25.5205 331.8 25.5205 331.8L27.9205 321.08L18.3505 311.72L20.9405 294L11.6305 286.29Z" fill="#FFCEA9"/>
<path d="M25.0007 268.28C23.321 267.5 21.4132 267.366 19.6409 267.903C17.8685 268.439 16.3557 269.61 15.3907 271.19C12.8507 275.39 10.2107 289.83 9.9707 292.29C9.9707 292.29 13.5407 297.22 18.8807 296.39L25.0007 268.28Z" fill="#EDEDED"/>
<path d="M44.7104 472.07C48.466 473.111 52.481 472.626 55.8804 470.72C58.5704 470.8 73.1804 464.55 75.1704 469.8C76.9104 474.4 70.5904 478.66 67.1704 479.48C59.7904 481.27 54.3304 484.95 51.3704 485.57C49.1604 486.04 46.3004 486.34 44.5404 484.57C42.4604 482.52 42.6404 474.82 44.7104 472.07Z" fill="#2B2A30"/>
<path d="M51.4003 484.3C54.4003 483.67 59.8203 479.99 67.2003 478.2C70.0403 477.52 74.9203 474.42 75.4103 470.72C76.0703 474.96 70.4103 478.72 67.2003 479.48C59.8203 481.27 54.3603 484.95 51.4003 485.57C49.1903 486.04 46.3303 486.34 44.5703 484.57C44.1028 484.067 43.7602 483.46 43.5703 482.8C46.1703 485 49.1903 484.76 51.4003 484.3Z" fill="#9C73FF"/>
<path d="M20.9998 461.43C24.7554 462.471 28.7704 461.986 32.1698 460.08C34.8598 460.16 49.4698 453.9 51.4598 459.16C53.1998 463.76 46.8798 468.02 43.4598 468.84C36.0798 470.63 30.6198 474.31 27.6598 474.93C25.4498 475.4 22.5898 475.7 20.8298 473.93C18.7598 471.88 18.9398 464.17 20.9998 461.43Z" fill="#2B2A30"/>
<path d="M27.6991 473.65C30.6991 473.03 36.1191 469.35 43.4991 467.56C46.3391 466.88 51.2191 463.77 51.7091 460.08C52.3691 464.32 46.6591 468.08 43.4991 468.84C36.1191 470.63 30.6591 474.31 27.6991 474.93C25.4891 475.4 22.6291 475.7 20.8691 473.93C20.3996 473.432 20.0566 472.828 19.8691 472.17C22.4691 474.34 25.4891 474.12 27.6991 473.65Z" fill="#9C73FF"/>
<path d="M20.7202 421.73C21.3465 416.304 22.4746 410.948 24.0902 405.73C24.0902 405.73 23.0902 391.92 22.5802 378.83C22.0002 364 16.8502 350.88 20.9202 339L66.7702 349.2C66.7702 349.2 64.0002 408.46 63.3802 415.63C63.0438 421.214 62.3591 426.772 61.3302 432.27C59.2302 443.77 55.8302 471.13 55.8302 471.13C50.9802 473.94 44.6202 472.38 44.6202 472.38C44.6202 472.38 44.9702 437.79 45.2802 429.5C45.6602 419.38 45.9702 420.15 45.9702 420.15L44.4602 395L43.4602 382.46C43.4602 382.46 42.1902 391.66 41.3702 399.88C40.6502 407.05 38.9202 413.53 36.9802 426.88C35.3102 438.45 32.5902 461.71 32.5902 461.71C27.7402 464.53 21.1602 462.19 21.1602 462.19C21.1602 462.19 19.4002 431.77 20.7202 421.73Z" fill="#8C50FF"/>
<path d="M27.4094 268.53C30.8994 268.7 33.4994 269.6 33.9394 268.53C34.3121 266.727 34.5792 264.904 34.7395 263.07C34.3295 262.07 33.9895 260.97 33.9895 260.97C29.5995 258.27 28.2194 253.53 27.6394 247.97C26.6394 238.54 31.7494 230.29 41.1894 229.3C50.0494 228.38 56.5795 234.61 58.3195 243.16C59.2594 247.39 61.1194 255.37 58.5994 262.32C57.1894 266.21 55.3694 269.32 53.5494 269.89C51.7949 269.846 50.0449 269.692 48.3095 269.43C48.3095 269.43 47.8394 272.05 47.5194 273.73C47.1994 275.41 47.3194 276.3 50.6694 278.36C54.0194 280.42 45.6095 284.66 40.1095 284.25C34.6095 283.84 28.4294 280.51 26.7394 276.96C24.8494 273.08 24.9994 268.42 27.4094 268.53Z" fill="#FFCEA9"/>
<path d="M32.4604 269.05C31.4604 271.46 33.9504 274.41 40.4604 276.47C46.9704 278.53 47.6104 275.88 47.6104 275.88C47.6104 275.88 57.2304 280.26 60.3604 282.45C64.2904 285.2 66.0404 293.16 66.5704 306.6C67.1804 322.16 67.2404 345.24 66.7204 349.22C66.7204 349.22 59.3604 356.55 49.9504 355.78C40.5404 355.01 24.7004 346.67 20.8504 340.24C20.9604 326.6 22.5604 324.38 20.3504 316.52C15.2904 298.52 12.6304 291.17 15.0904 279.22C17.0904 269.37 19.9504 268.14 23.8404 268.22C26.7268 268.339 29.6045 268.616 32.4604 269.05Z" fill="#F4F4F4"/>
<path d="M81.4203 319.47C73.6903 321.41 71.8803 316.54 70.8603 312.47C68.4003 302.7 67.0803 293.88 65.2503 288.34C63.0903 281.8 60.8303 280.76 57.6503 279.49C53.9203 277.99 50.7103 281.14 51.9603 289.49C53.4203 299.34 55.3503 306.25 59.0303 317.89C60.0303 320.89 62.1503 326.34 65.3803 328.95C69.3803 332.17 75.3803 332.03 84.4503 329.78C88.3203 328.78 92.5703 326.5 99.9003 323.08C101.9 322.16 103.4 321.55 107.17 319.79C110.94 318.03 114.87 315.1 116.85 312.23C118.83 309.36 118.49 307.55 118.08 306.9C117.57 306.08 117.29 306.73 116.23 307.9C114.702 309.935 112.819 311.676 110.67 313.04C110.67 313.04 113.11 310.52 114.44 308.88C115.621 307.427 116.603 305.823 117.36 304.11C118.06 302.44 116.62 300.17 115.52 301.36C114.42 302.55 113.91 303.76 111.91 306.16C110.858 307.436 109.656 308.581 108.33 309.57C109.569 307.893 110.672 306.121 111.63 304.27C112.9 301.68 108.63 303.03 106.24 305.55C104.47 307.38 102.97 308.44 102.93 307.93C102.89 307.42 99.4403 311.12 97.6903 312.93C95.7903 315.05 88.7603 317.62 81.4203 319.47Z" fill="#FFCEA9"/>
<path d="M54.7905 278.19C59.9505 277.43 63.6005 279.75 65.8705 287.57C68.1405 295.39 69.7505 301.8 69.7505 301.8C67.7093 304.751 64.6129 306.806 61.1005 307.54C54.9305 309.04 52.7105 306.09 52.7105 306.09C52.7105 306.09 51.0005 297.9 49.9305 292.32C48.8605 286.74 48.4105 279.14 54.7905 278.19Z" fill="#EDEDED"/>
<path d="M58.0001 242C58.0001 242 66.1501 229.6 48.4901 227.08C35.7501 225.26 27.5701 233.44 26.6201 242.32C25.7201 250.81 30.9401 259.62 34.7201 263.11C36.5601 263.77 40.5201 264.11 45.7201 261.78C45.9321 259.47 46.0155 257.15 45.9701 254.83C45.9701 254.83 39.7801 241.77 58.0001 242Z" fill="#3A2C6D"/>
<path d="M99.4007 309.73C99.4007 309.73 97.4007 306.08 98.6607 305.17C99.9207 304.26 101.751 307.68 102.121 309.02C102.491 310.36 101.981 308.61 101.981 308.61C101.981 308.61 100.611 304.49 101.501 303.7C102.391 302.91 103.591 304.7 104.781 307.26C105.971 309.82 105.081 307.03 105.081 307.03C105.081 307.03 103.081 302.9 103.951 302.33C105.081 301.56 106.951 304.01 108.061 306.22C109.171 308.43 106.571 311.04 106.571 311.04L99.4007 309.73Z" fill="#FFCEA9"/>
<path d="M103.26 316.25L95.7704 311.92C95.1404 311.56 95.2204 310.92 95.9504 310.5L114 300.05C114.375 299.841 114.794 299.723 115.223 299.706C115.652 299.688 116.08 299.772 116.47 299.95L123.96 304.27C124.59 304.64 124.51 305.27 123.78 305.7L105.69 316.14C105.321 316.344 104.91 316.461 104.488 316.48C104.067 316.499 103.647 316.42 103.26 316.25Z" fill="#B1B4C4"/>
<path d="M95.3398 311.3V310.61L96.1498 310.91L95.3398 311.3Z" fill="#B1B4C4"/>
<path d="M124.419 304.87V304.21L123.779 304.62L124.419 304.87Z" fill="#B1B4C4"/>
<path d="M103.26 315.66L95.7704 311.34C95.1404 310.97 95.2204 310.34 95.9504 309.91L114 299.47C114.375 299.261 114.794 299.143 115.223 299.126C115.652 299.108 116.08 299.192 116.47 299.37L123.96 303.69C124.59 304.06 124.51 304.69 123.78 305.12L105.69 315.56C105.32 315.763 104.909 315.877 104.487 315.895C104.066 315.912 103.646 315.832 103.26 315.66Z" fill="#616E84"/>
<path d="M97.0546 313.472C97.0929 313.45 97.0927 313.378 97.0542 313.311C97.0157 313.244 96.9534 313.207 96.9151 313.229C96.8768 313.251 96.8769 313.323 96.9155 313.39C96.954 313.457 97.0163 313.494 97.0546 313.472Z" fill="#757B89"/>
<path d="M97.0335 312.435C97.0718 312.413 97.0714 312.341 97.0328 312.274C96.9941 312.207 96.9318 312.17 96.8935 312.192C96.8552 312.215 96.8556 312.287 96.8942 312.354C96.9329 312.421 96.9952 312.457 97.0335 312.435Z" fill="#757B89"/>
<path d="M97.3909 312.647C97.4292 312.624 97.4289 312.552 97.3902 312.485C97.3515 312.418 97.2892 312.382 97.2509 312.404C97.2127 312.426 97.213 312.498 97.2516 312.565C97.2903 312.632 97.3527 312.669 97.3909 312.647Z" fill="#757B89"/>
<path d="M97.7562 312.858C97.7944 312.836 97.7941 312.764 97.7554 312.697C97.7168 312.63 97.6544 312.594 97.6162 312.616C97.5779 312.638 97.5782 312.71 97.6169 312.777C97.6555 312.844 97.7179 312.881 97.7562 312.858Z" fill="#757B89"/>
<path d="M100.848 314.644C100.886 314.622 100.886 314.549 100.847 314.482C100.809 314.415 100.746 314.379 100.708 314.401C100.67 314.423 100.67 314.495 100.709 314.562C100.747 314.629 100.81 314.666 100.848 314.644Z" fill="#757B89"/>
<path d="M101.2 314.847C101.238 314.825 101.237 314.753 101.199 314.686C101.16 314.619 101.098 314.582 101.06 314.605C101.021 314.627 101.022 314.699 101.06 314.766C101.099 314.833 101.161 314.869 101.2 314.847Z" fill="#757B89"/>
<path d="M101.567 315.059C101.605 315.037 101.605 314.964 101.566 314.897C101.527 314.83 101.465 314.794 101.427 314.816C101.388 314.838 101.389 314.91 101.427 314.977C101.466 315.044 101.528 315.081 101.567 315.059Z" fill="#757B89"/>
<path d="M102.328 316.523C102.366 316.501 102.366 316.429 102.328 316.362C102.289 316.295 102.227 316.258 102.189 316.28C102.15 316.302 102.15 316.374 102.189 316.441C102.227 316.509 102.29 316.545 102.328 316.523Z" fill="#757B89"/>
<path d="M99.7291 314.06L98.7291 313.49C98.6953 313.464 98.6678 313.431 98.6487 313.393C98.6296 313.355 98.6195 313.313 98.6191 313.27C98.6191 313.19 98.6691 313.15 98.7291 313.19L99.7291 313.76C99.7628 313.784 99.7903 313.815 99.8095 313.852C99.8286 313.889 99.8388 313.929 99.8391 313.97C99.8391 314.06 99.7891 314.1 99.7291 314.06Z" fill="#757B89"/>
<path d="M122.159 306.51L121.239 307.04C121.179 307.04 121.129 307.04 121.129 306.96C121.132 306.921 121.143 306.883 121.162 306.848C121.181 306.813 121.207 306.784 121.239 306.76L122.159 306.23C122.219 306.23 122.259 306.23 122.259 306.31C122.261 306.349 122.252 306.388 122.235 306.423C122.217 306.458 122.191 306.488 122.159 306.51Z" fill="#757B89"/>
<path d="M120.751 307.33L119.831 307.86C119.771 307.86 119.721 307.86 119.721 307.78C119.721 307.74 119.731 307.701 119.75 307.666C119.77 307.631 119.797 307.602 119.831 307.58L120.751 307.04C120.811 307.04 120.851 307.04 120.851 307.12C120.851 307.16 120.842 307.2 120.824 307.236C120.807 307.273 120.782 307.305 120.751 307.33Z" fill="#757B89"/>
<path d="M103.26 315.56L95.7704 311.23C95.1404 310.87 95.2204 310.23 95.9504 309.81L114 299.36C114.376 299.153 114.795 299.037 115.224 299.019C115.652 299.002 116.079 299.084 116.47 299.26L123.96 303.58C124.59 303.95 124.51 304.58 123.78 305.01L105.69 315.45C105.321 315.654 104.91 315.771 104.488 315.79C104.067 315.809 103.647 315.73 103.26 315.56Z" fill="#20232D"/>
<path d="M123.191 303.76L120.271 302.07C120.077 302.169 119.863 302.22 119.646 302.22C119.428 302.22 119.214 302.169 119.021 302.07C118.945 302.045 118.88 301.996 118.834 301.932C118.787 301.867 118.762 301.79 118.762 301.71C118.762 301.631 118.787 301.553 118.834 301.489C118.88 301.424 118.945 301.376 119.021 301.35L116.101 299.66C115.852 299.532 115.576 299.465 115.296 299.465C115.016 299.465 114.74 299.532 114.491 299.66L96.8706 309.83C96.773 309.863 96.688 309.925 96.6278 310.009C96.5676 310.092 96.5352 310.192 96.5352 310.295C96.5352 310.398 96.5676 310.498 96.6278 310.582C96.688 310.665 96.773 310.728 96.8706 310.76L103.971 314.85C104.22 314.978 104.496 315.045 104.776 315.045C105.056 315.045 105.332 314.978 105.581 314.85L123.191 304.68C123.29 304.651 123.377 304.59 123.438 304.507C123.5 304.424 123.534 304.324 123.534 304.22C123.534 304.117 123.5 304.016 123.438 303.933C123.377 303.85 123.29 303.79 123.191 303.76Z" fill="#2B303F"/>
<path opacity="0.5" d="M123.191 303.76L120.271 302.07C120.077 302.169 119.863 302.22 119.646 302.22C119.428 302.22 119.214 302.169 119.021 302.07C118.945 302.045 118.88 301.996 118.834 301.932C118.787 301.867 118.762 301.79 118.762 301.71C118.762 301.631 118.787 301.553 118.834 301.489C118.88 301.424 118.945 301.376 119.021 301.35L116.101 299.66C115.852 299.532 115.576 299.465 115.296 299.465C115.016 299.465 114.74 299.532 114.491 299.66L96.8706 309.83C96.773 309.863 96.688 309.925 96.6278 310.009C96.5676 310.092 96.5352 310.192 96.5352 310.295C96.5352 310.398 96.5676 310.498 96.6278 310.582C96.688 310.665 96.773 310.728 96.8706 310.76L103.971 314.85C104.22 314.978 104.496 315.045 104.776 315.045C105.056 315.045 105.332 314.978 105.581 314.85L123.191 304.68C123.29 304.651 123.377 304.59 123.438 304.507C123.5 304.424 123.534 304.324 123.534 304.22C123.534 304.117 123.5 304.016 123.438 303.933C123.377 303.85 123.29 303.79 123.191 303.76Z" fill="url(#paint0_linear_362_1287)"/>
<path d="M119.449 302.01C119.637 302.01 119.789 301.925 119.789 301.82C119.789 301.715 119.637 301.63 119.449 301.63C119.262 301.63 119.109 301.715 119.109 301.82C119.109 301.925 119.262 302.01 119.449 302.01Z" fill="#2B303F"/>
<path opacity="0.1" d="M119.35 301.88C119.29 301.88 119.29 301.8 119.35 301.77C119.379 301.75 119.414 301.74 119.45 301.74C119.485 301.74 119.52 301.75 119.55 301.77C119.56 301.775 119.57 301.782 119.576 301.792C119.582 301.802 119.586 301.813 119.586 301.825C119.586 301.837 119.582 301.848 119.576 301.858C119.57 301.868 119.56 301.875 119.55 301.88C119.519 301.895 119.484 301.903 119.45 301.903C119.415 301.903 119.381 301.895 119.35 301.88Z" fill="white"/>
<path d="M114.9 314.52C114.9 314.52 118.9 310.95 118.67 306.22C118.43 302.92 116.44 305.3 116.44 305.3L114.44 308.93C114.44 308.93 112.44 311.52 110.6 312.11C109.194 312.245 107.795 312.452 106.41 312.73C103.95 313.21 101.5 316.28 101.5 316.28L104.67 318.71L114.9 314.52Z" fill="#FFCEA9"/>
<path d="M424.669 138.6L401.169 125C400.788 124.742 400.352 124.576 399.896 124.513C399.44 124.451 398.976 124.494 398.539 124.64C398.349 124.718 398.17 124.822 398.009 124.95L393.699 127.42L396.699 131.58V153.91C396.699 157.19 398.699 161 401.159 162.42L421.889 174.42L422.569 179.11C422.709 179.04 426.279 176.99 427.409 176.33C427.518 176.28 427.622 176.22 427.719 176.15C428.2 175.716 428.573 175.175 428.808 174.57C429.042 173.966 429.132 173.315 429.069 172.67V147.11C429.119 143.83 427.129 140 424.669 138.6Z" fill="#D9DAE2"/>
<path d="M419.809 178.81L396.309 165.24C393.849 163.82 391.859 160.01 391.859 156.73V131.18C391.859 127.9 393.859 126.4 396.309 127.82L419.809 141.38C422.269 142.8 424.269 146.62 424.269 149.9V175.44C424.269 178.72 422.269 180.23 419.809 178.81Z" fill="#EFF0F9"/>
<path d="M398.789 140.75C398.789 139.31 399.199 138.38 400.009 137.95C400.819 137.52 401.879 137.68 403.189 138.44C404.515 139.206 405.621 140.301 406.399 141.62C407.191 142.914 407.61 144.402 407.609 145.92V147.08C407.609 148.53 407.209 149.46 406.399 149.88C405.589 150.3 404.529 150.12 403.219 149.36C401.891 148.597 400.784 147.501 400.009 146.18C399.214 144.89 398.792 143.405 398.789 141.89V140.75ZM401.469 143.54C401.469 144.181 401.634 144.811 401.949 145.37C402.239 145.921 402.68 146.379 403.219 146.69C403.739 146.99 404.149 147.03 404.459 146.81C404.633 146.638 404.764 146.429 404.844 146.199C404.924 145.968 404.95 145.722 404.919 145.48V144.29C404.919 143.651 404.761 143.023 404.459 142.46C404.172 141.904 403.731 141.442 403.189 141.13C403.022 141 402.823 140.919 402.612 140.896C402.402 140.873 402.19 140.909 401.999 141C401.679 141.21 401.519 141.66 401.519 142.36L401.469 143.54ZM403.999 161L401.999 158.64L411.999 146L413.999 148.36L403.999 161ZM408.489 159.6C408.489 158.15 408.899 157.22 409.719 156.8C410.539 156.38 411.599 156.56 412.899 157.31C414.216 158.075 415.317 159.163 416.099 160.47C416.902 161.771 417.325 163.271 417.319 164.8V165.96C417.319 167.39 416.919 168.33 416.119 168.75C415.319 169.17 414.259 169 412.929 168.23C411.595 167.466 410.485 166.366 409.709 165.04C408.921 163.761 408.499 162.291 408.489 160.79V159.6ZM411.169 162.4C411.182 163.035 411.354 163.658 411.669 164.21C411.958 164.766 412.394 165.233 412.929 165.56C414.059 166.22 414.629 165.82 414.629 164.37V163.14C414.629 162.503 414.467 161.877 414.159 161.32C413.869 160.772 413.433 160.315 412.899 160C412.726 159.859 412.515 159.772 412.293 159.749C412.071 159.726 411.848 159.768 411.649 159.87C411.466 160.033 411.326 160.239 411.242 160.469C411.159 160.7 411.133 160.947 411.169 161.19V162.4Z" fill="#E26161"/>
<path d="M124.06 67.34L100.56 53.77C100.178 53.5123 99.7429 53.3458 99.2868 53.2833C98.8308 53.2209 98.3665 53.2643 97.9298 53.41C97.7416 53.4922 97.5637 53.5962 97.3998 53.72L93.0898 56.19L96.0898 60.35V82.68C96.0898 85.96 98.0898 89.7701 100.54 91.1901L121.27 103.19L121.96 107.89L126.79 105.1C126.896 105.049 127 104.993 127.1 104.93C127.585 104.499 127.962 103.958 128.198 103.354C128.435 102.749 128.524 102.096 128.46 101.45V75.85C128.52 72.57 126.52 68.76 124.06 67.34Z" fill="#D9DAE2"/>
<path d="M119.21 107.55L95.71 94.0001C93.25 92.5801 91.25 88.7701 91.25 85.4901V59.9301C91.25 56.6501 93.25 55.1401 95.71 56.5601L119.21 70.1301C121.67 71.5501 123.66 75.3601 123.66 78.6401V104.18C123.66 107.46 121.67 109 119.21 107.55Z" fill="#EFF0F9"/>
<path d="M107.461 69.99L110.641 79.28L117.771 84.59L112.611 87.42L113.831 96.31L107.461 88.77L101.081 88.95L102.301 81.46L97.1406 72.68L104.271 75.6L107.461 69.99Z" fill="#F9CB07"/>
<path d="M256.006 173.494C237.771 163 223 171.511 223 192.5C223 213.489 237.835 239.008 256.006 249.503C274.178 259.998 289 251.5 289 230.51C289 209.521 274.229 183.989 256.006 173.494ZM249.949 227.541L235.409 202.431L240.26 199.654L249.949 216.381L271.765 203.826L276.616 212.196L249.949 227.541Z" fill="#6AC259"/>
</g>
<defs>
<linearGradient id="paint0_linear_362_1287" x1="92.0137" y1="321.403" x2="101.602" y2="304.719" gradientUnits="userSpaceOnUse">
<stop offset="0.21" stop-color="white" stop-opacity="0"/>
<stop offset="1" stop-color="white" stop-opacity="0.2"/>
</linearGradient>
<clipPath id="clip0_362_1287">
<rect width="429.12" height="500" fill="white"/>
</clipPath>
</defs>
</svg>
