<svg width="439" height="500" viewBox="0 0 439 500" fill="none" xmlns="http://www.w3.org/2000/svg">
<g clip-path="url(#clip0_365_4590)">
<path d="M388.861 204.44L119.341 48.84C118.887 48.5203 118.363 48.315 117.812 48.2419C117.262 48.1688 116.702 48.2299 116.181 48.42L115.911 48.58L112.971 50.28L114.661 52.67V233.94C114.749 235.579 115.223 237.173 116.043 238.594C116.863 240.015 118.006 241.223 119.381 242.12L388.531 397.54L388.911 399.95L392.181 398.06C392.666 397.722 393.052 397.259 393.299 396.721C393.545 396.183 393.642 395.589 393.581 395V212.62C393.492 210.982 393.019 209.387 392.199 207.966C391.378 206.545 390.235 205.337 388.861 204.44Z" fill="#D6D8E5"/>
<path d="M390.3 214.52V396.89C390.3 399.89 388.2 401.12 385.58 399.61L116.06 244C114.686 243.103 113.542 241.895 112.722 240.474C111.902 239.053 111.428 237.458 111.34 235.82V53.46C111.34 50.46 113.45 49.22 116.06 50.73L385.58 206.34C386.956 207.235 388.101 208.442 388.921 209.864C389.741 211.286 390.214 212.881 390.3 214.52Z" fill="#FAFBFC"/>
<path d="M287.461 178.09L121.971 82.54V73L287.461 168.55V178.09Z" fill="#E9EAF2"/>
<path d="M278.881 185L121.971 94.3999V89.6299L278.881 180.23V185Z" fill="#E9EAF2"/>
<path d="M260.621 183L121.971 102.94V98.1699L260.621 178.23V183Z" fill="#E9EAF2"/>
<path d="M251.811 186.45L121.971 111.49V106.72L251.811 181.68V186.45Z" fill="#E9EAF2"/>
<path d="M379.21 302.03L318.4 266.92V257.38L379.21 292.48V302.03Z" fill="#E9EAF2"/>
<path d="M376.06 312.07L318.4 278.78V274.01L376.06 307.3V312.07Z" fill="#E9EAF2"/>
<path d="M369.35 316.74L318.4 287.32V282.55L369.35 311.97V316.74Z" fill="#E9EAF2"/>
<path d="M366.11 323.41L318.4 295.87V291.1L366.11 318.64V323.41Z" fill="#E9EAF2"/>
<path d="M287.461 229.81L121.971 134.26V124.72L287.461 220.27V229.81Z" fill="#E9EAF2"/>
<path d="M278.881 236.72L121.971 146.13V141.35L278.881 231.95V236.72Z" fill="#E9EAF2"/>
<path d="M260.621 234.72L121.971 154.67V149.9L260.621 229.95V234.72Z" fill="#E9EAF2"/>
<path d="M251.811 238.18L121.971 163.21V158.44L251.811 233.4V238.18Z" fill="#E9EAF2"/>
<path d="M287.461 281.54L121.971 185.99V176.44L287.461 272V281.54Z" fill="#E9EAF2"/>
<path d="M278.881 288.45L121.971 197.85V193.08L278.881 283.67V288.45Z" fill="#E9EAF2"/>
<path d="M260.621 286.45L121.971 206.39V201.62L260.621 281.67V286.45Z" fill="#E9EAF2"/>
<path d="M251.811 289.9L121.971 214.94V210.16L251.811 285.13V289.9Z" fill="#E9EAF2"/>
<path d="M287.461 333.26L121.971 237.71V228.17L287.461 323.72V333.26Z" fill="#E9EAF2"/>
<path d="M278.891 335.4V338.02L121.971 247.42V244.8L278.891 335.4Z" fill="#E9EAF2"/>
<path d="M377.32 281.69L320.32 248.77C319.746 248.357 319.276 247.815 318.948 247.189C318.62 246.562 318.442 245.867 318.43 245.16V188.93C318.43 187.54 319.28 186.93 320.32 187.5L377.32 220.42C377.894 220.834 378.363 221.375 378.691 222.002C379.019 222.628 379.197 223.323 379.21 224.03V280.26C379.21 281.65 378.36 282.29 377.32 281.69Z" fill="#E9EAF2"/>
<path d="M388.859 156.17L119.339 0.559955C118.907 0.258051 118.404 0.0711925 117.879 0.0169614C117.355 -0.0372697 116.825 0.0429096 116.339 0.249955H116.279L113.279 1.92996L114.599 4.06996V33.64C114.599 37.11 116.719 41.15 119.329 42.64L388.279 197.94L388.419 200.46L391.829 198.58L391.909 198.53L392.009 198.48C393.009 197.89 393.579 196.57 393.579 194.71V165.2C393.579 161.72 391.459 157.68 388.859 156.17Z" fill="#D6D8E5"/>
<path d="M385.58 200.09L116.06 44.4799C113.45 42.9699 111.34 38.9299 111.34 35.4799V5.99986C111.34 2.52986 113.45 0.929862 116.06 2.42986L385.58 158C388.19 159.51 390.31 163.55 390.31 167V196.51C390.31 200 388.19 201.59 385.58 200.09Z" fill="#FAFBFC"/>
<path d="M377.32 182.09L123.86 35.7597C123.29 35.3448 122.825 34.8022 122.502 34.1754C122.179 33.5486 122.007 32.8549 122 32.1497V21.5497C122 20.1597 122.84 19.5497 123.89 20.1197L377.32 166.46C377.895 166.872 378.366 167.413 378.694 168.04C379.022 168.667 379.199 169.362 379.21 170.07V180.66C379.21 182.06 378.36 182.7 377.32 182.09Z" fill="#E9EAF2"/>
<path d="M377.79 182.37L361.4 172.9V157.27L377.79 166.73C378.366 167.142 378.836 167.684 379.164 168.311C379.492 168.937 379.669 169.632 379.68 170.34V180.94C379.68 182.33 378.83 183 377.79 182.37Z" fill="#8C50FF"/>
<path d="M130.47 31.5299C129.908 31.0567 129.413 30.5082 129 29.8999C128.726 29.4685 128.574 28.9709 128.56 28.4599C128.56 27.9266 128.74 27.5933 129.1 27.4599C129.346 27.4012 129.602 27.3976 129.849 27.4495C130.096 27.5014 130.329 27.6074 130.53 27.7599C131.323 28.2213 131.949 28.9213 132.32 29.7599C132.488 30.131 132.576 30.5329 132.58 30.9399L131.81 30.4899C131.809 30.0834 131.695 29.6852 131.48 29.3399C131.243 28.9684 130.917 28.6623 130.53 28.4499C130.407 28.3543 130.265 28.2846 130.114 28.2451C129.963 28.2056 129.805 28.197 129.65 28.2199C129.44 28.2899 129.33 28.4999 129.33 28.8399C129.341 29.1534 129.446 29.4564 129.63 29.7099C129.914 30.1219 130.25 30.495 130.63 30.8199C131.057 31.1816 131.455 31.5762 131.82 31.9999C132.069 32.3038 132.274 32.6403 132.43 32.9999C132.558 33.3179 132.622 33.6575 132.62 33.9999C132.62 34.5399 132.44 34.8699 132.07 34.9999C131.552 35.0771 131.024 34.9479 130.6 34.6399C130.185 34.3924 129.808 34.0858 129.48 33.7299C129.154 33.3766 128.884 32.9753 128.68 32.5399C128.504 32.1606 128.408 31.7484 128.4 31.3299L129.17 31.7799C129.177 32.2038 129.313 32.6155 129.56 32.9599C129.815 33.3635 130.157 33.7051 130.56 33.9599C130.829 34.1556 131.16 34.2447 131.49 34.2099C131.71 34.1399 131.81 33.9399 131.81 33.6099C131.808 33.2766 131.703 32.952 131.51 32.6799C131.208 32.2586 130.859 31.8728 130.47 31.5299Z" fill="#B0B3C1"/>
<path d="M135.28 37.39C134.677 37.0317 134.183 36.5168 133.85 35.9C133.49 35.2586 133.301 34.5355 133.3 33.8V33.65C133.279 33.2384 133.365 32.8285 133.55 32.46C133.615 32.3276 133.711 32.2124 133.829 32.1238C133.947 32.0352 134.084 31.9756 134.23 31.95C134.579 31.8955 134.936 31.974 135.23 32.17C135.793 32.495 136.249 32.9784 136.54 33.56C136.862 34.2159 137.023 34.9393 137.01 35.67V36L134 34.33C134.011 34.8225 134.138 35.3054 134.37 35.74C134.572 36.1534 134.887 36.5003 135.28 36.74C135.474 36.8732 135.705 36.9431 135.94 36.94C136.12 36.9239 136.29 36.8462 136.42 36.72L136.87 37.39C136.55 37.8 136 37.81 135.28 37.39ZM135.19 32.87C135.084 32.7885 134.957 32.7394 134.824 32.7288C134.691 32.7181 134.557 32.7464 134.44 32.81C134.32 32.9138 134.224 33.043 134.16 33.1883C134.096 33.3336 134.065 33.4913 134.07 33.65L136.23 34.9V34.83C136.22 34.4179 136.114 34.0139 135.92 33.65C135.756 33.3256 135.503 33.0549 135.19 32.87Z" fill="#B0B3C1"/>
<path d="M140.49 40.3001C140.43 40.1122 140.393 39.9173 140.38 39.7201C140.187 39.8223 139.97 39.8681 139.752 39.8522C139.535 39.8362 139.326 39.7593 139.15 39.6301C138.742 39.3813 138.399 39.0384 138.15 38.6301C137.889 38.2502 137.746 37.8012 137.74 37.3401C137.74 36.8201 137.91 36.5201 138.25 36.4301C138.763 36.3795 139.277 36.5221 139.69 36.8301L140.41 37.2401V36.8501C140.41 36.5547 140.33 36.2647 140.18 36.0101C140.017 35.7334 139.782 35.5055 139.5 35.3501C139.305 35.2146 139.065 35.1607 138.83 35.2001C138.747 35.2254 138.675 35.2794 138.627 35.3526C138.58 35.4258 138.559 35.5135 138.57 35.6001L137.82 35.1701C137.816 35.0613 137.834 34.9526 137.874 34.8511C137.913 34.7496 137.973 34.6573 138.05 34.5801C138.136 34.5062 138.237 34.451 138.345 34.4183C138.454 34.3856 138.568 34.376 138.68 34.3901C138.986 34.4251 139.279 34.5275 139.54 34.6901C140.018 34.9507 140.421 35.3294 140.71 35.7901C140.986 36.2208 141.138 36.7189 141.15 37.2301V39.5301C141.142 39.9287 141.193 40.3263 141.3 40.7101V40.7801L140.49 40.3001ZM139.26 39.0001C139.457 39.1234 139.688 39.1828 139.92 39.1701C140.013 39.1671 140.104 39.1396 140.183 39.0904C140.262 39.0413 140.326 38.9722 140.37 38.8901V37.8901L139.79 37.5501C138.89 37.0301 138.44 37.0801 138.44 37.6901C138.439 37.9608 138.519 38.2256 138.67 38.4501C138.82 38.6784 139.022 38.8671 139.26 39.0001Z" fill="#B0B3C1"/>
<path d="M144.35 38.3201C144.236 38.2288 144.115 38.1453 143.99 38.0701C143.51 37.7901 143.176 37.8401 142.99 38.2201V41.7601L142.26 41.3301V36.3301L142.97 36.7401V37.3201C143.21 37.0201 143.55 36.9901 143.97 37.2501C144.089 37.3157 144.197 37.4001 144.29 37.5001L144.35 38.3201Z" fill="#B0B3C1"/>
<path d="M146.689 43.2798C146.788 43.3495 146.901 43.3964 147.021 43.4172C147.14 43.4379 147.262 43.432 147.379 43.3998C147.479 43.3607 147.564 43.2916 147.623 43.2021C147.682 43.1126 147.712 43.007 147.709 42.8998L148.399 43.2998C148.401 43.5463 148.312 43.7849 148.149 43.9698C148.067 44.0533 147.969 44.1194 147.861 44.1641C147.752 44.2088 147.636 44.2311 147.519 44.2298C147.225 44.222 146.939 44.1356 146.689 43.9798C146.088 43.6289 145.602 43.1114 145.289 42.4898C144.936 41.8249 144.754 41.0826 144.759 40.3298V40.1798C144.738 39.7725 144.821 39.3665 144.999 38.9998C145.059 38.869 145.151 38.7554 145.266 38.6697C145.381 38.584 145.517 38.529 145.659 38.5098C146.013 38.4865 146.365 38.5814 146.659 38.7798C147.158 39.0703 147.575 39.4833 147.869 39.9798C148.175 40.4597 148.351 41.0112 148.379 41.5798L147.689 41.1798C147.661 40.8263 147.551 40.4842 147.369 40.1798C147.194 39.8863 146.95 39.6394 146.659 39.4598C146.286 39.2532 145.996 39.2532 145.789 39.4598C145.54 39.796 145.429 40.2146 145.479 40.6298V40.7898C145.47 41.3098 145.576 41.8254 145.789 42.2998C145.98 42.7119 146.295 43.0544 146.689 43.2798Z" fill="#B0B3C1"/>
<path d="M149.999 41.3998C150.179 41.2501 150.405 41.1682 150.639 41.1682C150.873 41.1682 151.1 41.2501 151.279 41.3998C151.723 41.6654 152.085 42.0492 152.323 42.5083C152.561 42.9675 152.667 43.4839 152.629 43.9998V47.2998L151.889 46.8698V43.5698C151.899 43.2502 151.827 42.9335 151.679 42.6498C151.514 42.377 151.279 42.1527 150.999 41.9998C150.813 41.8794 150.589 41.8298 150.369 41.8598C150.277 41.8811 150.19 41.9226 150.116 41.9814C150.042 42.0402 149.981 42.1148 149.939 42.1998V45.7498L149.199 45.3198V38.2798L149.939 38.6998L149.999 41.3998Z" fill="#B0B3C1"/>
<path d="M153.75 47.5197C153.744 47.4622 153.751 47.404 153.772 47.35C153.793 47.2961 153.827 47.2479 153.87 47.2097C153.94 47.1597 154.06 47.2097 154.21 47.2097C154.351 47.2965 154.468 47.4168 154.55 47.5597C154.628 47.6933 154.67 47.8451 154.67 47.9997C154.677 48.0529 154.67 48.1068 154.648 48.1561C154.627 48.2053 154.593 48.248 154.55 48.2797C154.47 48.3297 154.36 48.2797 154.21 48.2797C154.067 48.2015 153.948 48.0834 153.87 47.9397C153.794 47.8128 153.753 47.6679 153.75 47.5197Z" fill="#B0B3C1"/>
<path d="M155.899 48.7598C155.892 48.7037 155.899 48.6466 155.92 48.5941C155.941 48.5415 155.975 48.4953 156.019 48.4598C156.089 48.3998 156.209 48.4598 156.359 48.4598C156.496 48.5421 156.61 48.6577 156.691 48.7958C156.771 48.9339 156.815 49.09 156.819 49.2498C156.826 49.3029 156.819 49.3569 156.798 49.4061C156.776 49.4554 156.742 49.4981 156.699 49.5298C156.629 49.5298 156.509 49.5298 156.359 49.5298C156.216 49.4515 156.098 49.3335 156.019 49.1898C155.941 49.0599 155.9 48.9113 155.899 48.7598Z" fill="#B0B3C1"/>
<path d="M158.05 50C158.042 49.9439 158.049 49.8869 158.07 49.8343C158.091 49.7818 158.126 49.7355 158.17 49.7C158.24 49.64 158.36 49.7 158.51 49.7C158.655 49.7758 158.774 49.8945 158.85 50.04C158.926 50.1741 158.968 50.3255 158.97 50.48C158.976 50.5346 158.969 50.5899 158.948 50.6407C158.927 50.6915 158.893 50.736 158.85 50.77C158.78 50.77 158.66 50.77 158.51 50.71C158.366 50.6318 158.248 50.5137 158.17 50.37C158.101 50.2578 158.06 50.131 158.05 50Z" fill="#B0B3C1"/>
<path d="M374.19 175.76L372.59 173.01C372.845 172.747 373.042 172.433 373.166 172.088C373.29 171.743 373.339 171.375 373.31 171.01C373.247 169.847 372.91 168.714 372.328 167.705C371.746 166.695 370.935 165.837 369.96 165.2C368.1 164.13 366.6 165 366.6 167.14C366.659 168.317 366.998 169.463 367.59 170.482C368.181 171.501 369.007 172.364 370 173C370.569 173.383 371.266 173.527 371.94 173.4L373.55 176.19C373.74 176.51 374.04 176.69 374.23 176.58C374.42 176.47 374.37 176.09 374.19 175.76ZM371.82 172.12C371.761 172.1 371.698 172.1 371.64 172.12C371.594 172.152 371.559 172.197 371.54 172.25C371.28 172.319 371.008 172.332 370.743 172.289C370.478 172.246 370.224 172.148 370 172C369.266 171.523 368.656 170.879 368.218 170.122C367.78 169.364 367.527 168.514 367.48 167.64C367.48 166.03 368.61 165.38 370 166.19C370.732 166.668 371.341 167.312 371.777 168.069C372.213 168.827 372.464 169.677 372.51 170.55C372.532 170.848 372.48 171.147 372.36 171.421C372.24 171.694 372.054 171.935 371.82 172.12Z" fill="white"/>
<path d="M338.429 219.64C322.229 192.34 294.959 178.64 277.519 188.95L262.359 197.66L268.169 207.33C269.104 205.841 270.212 204.468 271.469 203.24C286.209 198.46 306.469 209.87 318.969 230.88C331.469 251.89 331.729 275.17 320.479 285.82C319 286.286 317.474 286.591 315.929 286.73L321.599 296.15L336.169 287.8C353.609 277.45 354.619 246.93 338.429 219.64Z" fill="#D6D8E5"/>
<path d="M323.85 228C307.65 200.7 280.38 187 262.94 197.31C245.5 207.62 244.49 238.18 260.69 265.48C276.89 292.78 304.16 306.48 321.6 296.16C339.04 285.84 340.05 255.28 323.85 228ZM320.48 285.83C305.73 290.61 285.48 279.2 272.98 258.18C260.48 237.16 260.22 213.9 271.47 203.25C286.21 198.47 306.47 209.88 318.97 230.89C331.47 251.9 331.73 275.17 320.48 285.82V285.83Z" fill="#B1B4C4"/>
<path d="M273 258.17C260.53 237.17 260.24 213.89 271.49 203.24C277.92 201.15 285.41 202.15 292.84 205.68C283.72 201.34 274.53 200.77 267.3 205.06C252.45 213.87 251.51 239.73 265.2 262.8C278.89 285.87 302.04 297.44 316.89 288.63C318.196 287.833 319.407 286.89 320.5 285.82C305.73 290.6 285.45 279.19 273 258.17Z" fill="#A1A5B5"/>
<path opacity="0.1" d="M318.999 230.88C306.529 209.88 286.239 198.46 271.499 203.24C260.249 213.89 260.499 237.16 273.009 258.17C285.519 279.18 305.759 290.6 320.509 285.82C331.729 275.17 331.439 251.9 318.999 230.88Z" fill="#3E7EFF"/>
<path d="M339.289 264.71L371.979 283.56V291.98L339.289 273.13V264.71Z" fill="#B1B4C4"/>
<path d="M346.579 260.5L379.269 279.35L371.979 283.56L339.289 264.71L346.579 260.5Z" fill="#D6D8E5"/>
<path d="M365.05 278.8C368.14 273.58 373.35 270.96 376.68 272.94L436.06 307.46L424.75 326.26L365.48 291.81C362.15 289.83 362 284 365.05 278.8Z" fill="#8C50FF"/>
<path d="M436.379 320.4C433.279 325.61 428.079 328.24 424.749 326.26C421.419 324.28 421.219 318.46 424.319 313.26C427.419 308.06 432.619 305.42 435.949 307.4C439.279 309.38 439.469 315.19 436.379 320.4Z" fill="#8C50FF"/>
<path opacity="0.1" d="M436.379 320.4C433.279 325.61 428.079 328.24 424.749 326.26C421.419 324.28 421.219 318.46 424.319 313.26C427.419 308.06 432.619 305.42 435.949 307.4C439.279 309.38 439.469 315.19 436.379 320.4Z" fill="black"/>
<path opacity="0.3" d="M367.22 427.72L126.3 284C125.14 283.34 125.3 282.17 126.62 281.4C127.304 281.02 128.067 280.806 128.849 280.775C129.63 280.743 130.408 280.896 131.12 281.22L372 424.94C373.16 425.61 373 426.77 371.68 427.54C371.001 427.913 370.245 428.124 369.471 428.155C368.697 428.186 367.927 428.037 367.22 427.72Z" fill="#D6D8E5"/>
<path opacity="0.4" d="M37.5 500L0 478.55L56.13 446.42L93.63 467.87L37.5 500Z" fill="#D6D8E5"/>
<path d="M38.2807 456.75L7.2207 438.81L38.2807 420.88L69.3407 438.81L38.2807 456.75Z" fill="#D6D8E5"/>
<path d="M38.2807 492.61L7.2207 474.68V438.81L38.2807 456.75V492.61Z" fill="#B1B6C4"/>
<path d="M69.3393 474.68L38.2793 492.61V456.75L69.3393 438.81V474.68Z" fill="#C4C7D6"/>
<path d="M80.0017 463.39C82.6957 464.127 85.5719 463.767 88.0017 462.39C89.9317 462.45 100.392 457.97 101.812 461.73C103.062 465.03 98.5317 468.08 96.1117 468.66C90.8217 469.94 86.9117 472.58 84.7917 473.02C83.2117 473.36 81.1617 473.58 79.9017 472.33C78.4117 470.87 78.5417 465.36 80.0017 463.39Z" fill="#38226D"/>
<path d="M84.8105 472.14C86.9305 471.69 90.8105 469.06 96.1305 467.78C98.1305 467.29 101.65 465.07 102 462.42C102.47 465.42 98.3805 468.15 96.1305 468.69C90.8405 469.97 86.9305 472.61 84.8105 473.05C83.2305 473.39 81.1805 473.61 79.9205 472.36C79.5918 472.002 79.355 471.57 79.2305 471.1C80.0154 471.696 80.9286 472.1 81.8974 472.28C82.8661 472.461 83.8636 472.413 84.8105 472.14Z" fill="#9C73FF"/>
<path d="M61.1601 453.35C63.8547 454.08 66.7282 453.721 69.1601 452.35C71.0901 452.41 81.5401 447.93 82.9701 451.69C84.2101 454.99 79.6801 458.03 77.2601 458.62C72.0001 459.93 68.0701 462.57 66.0001 463C64.4201 463.34 62.3701 463.55 61.1101 462.31C59.5501 460.83 59.6801 455.31 61.1601 453.35Z" fill="#38226D"/>
<path d="M65.9999 462.1C68.1199 461.65 71.9999 459.02 77.3099 457.74C79.3099 457.25 82.8399 455.03 83.1899 452.38C83.6599 455.38 79.5699 458.1 77.3099 458.65C71.9999 459.93 68.0699 462.57 65.9999 463C64.4199 463.34 62.3699 463.55 61.1099 462.31C60.7856 461.949 60.5495 461.518 60.4199 461.05C61.204 461.647 62.1168 462.053 63.0856 462.236C64.0544 462.418 65.0523 462.371 65.9999 462.1Z" fill="#9C73FF"/>
<path d="M31.7905 440.33C39.9505 443.91 47.6405 444.48 53.9305 441.1L60.4305 437.35C60.8205 445.74 61.1905 453.8 61.1905 453.8C61.1905 453.8 66.1905 457.57 70.0505 454.21C70.0505 454.21 70.8605 442.43 71.6805 430.85L78.5005 426.92C78.3424 427.538 78.2552 428.172 78.2405 428.81C78.2905 431.01 79.8205 463.72 79.8205 463.72C79.8205 463.72 84.8205 466.72 88.7205 463.34C88.7205 463.34 91.3305 425.44 91.9305 419.39C92.6105 412.58 85.0505 409.22 80.2605 410.97C79.1505 411.37 76.4105 412.39 72.9505 413.68C73.1005 411.79 73.2205 410.31 73.3105 409.47C73.9805 402.66 66.4205 399.31 61.6405 401.05C57.2805 402.64 27.8505 413.68 27.8505 413.68C28.0244 416.506 28.3583 419.321 28.8505 422.11L17.2205 421.11C16.5605 432.06 23.6405 436.74 31.7905 440.33ZM52.0905 421.49L59.8705 417C59.7421 417.549 59.6585 418.107 59.6205 418.67L52.0905 421.49Z" fill="#8C50FF"/>
<path d="M10.8809 388C10.8809 388 11.8809 402.46 13.7409 404.54C15.6009 406.62 22.0509 408 22.0509 408L27.0009 416.14C27.0009 416.14 22.4909 390.28 21.5109 389.66C20.5309 389.04 10.8809 388 10.8809 388Z" fill="#FFCEA9"/>
<path d="M20.3909 371.9C19.1867 371.341 17.8188 371.247 16.5493 371.634C15.2798 372.022 14.1978 372.864 13.5109 374C11.6909 377 9.80086 387.34 9.63086 389.11C9.63086 389.11 12.1809 392.63 16.0109 392.04L20.3909 371.9Z" fill="#EDEDED"/>
<path d="M22.1303 372.08C24.6303 372.2 26.4903 372.84 26.8003 372.08C27.0673 370.789 27.2576 369.483 27.3703 368.17C27.0803 367.44 26.8303 366.66 26.8303 366.66C23.6903 364.73 22.7003 361.34 22.2903 357.39C21.5903 350.64 25.2303 344.73 31.9903 344.02C38.3303 343.36 42.9903 347.82 44.2503 353.95C44.9203 356.95 46.2503 362.69 44.4503 367.66C43.4503 370.44 42.1403 372.66 40.8403 373.08C39.5817 373.041 38.3264 372.931 37.0803 372.75C37.0803 372.75 36.7403 374.63 36.5103 375.83C36.2803 377.03 36.3703 377.67 38.7603 379.15C41.1503 380.63 35.1403 383.66 31.2103 383.36C27.2803 383.06 22.8503 380.69 21.6403 378.15C20.2903 375.34 20.4103 372 22.1303 372.08Z" fill="#FFCEA9"/>
<path d="M85.4508 416.32C85.4558 416.676 85.3657 417.026 85.1899 417.336C85.0141 417.645 84.759 417.902 84.4508 418.08L65.3908 429.08C65.0868 429.256 64.7419 429.348 64.3908 429.348C64.0397 429.348 63.6949 429.256 63.3908 429.08L36.6408 413.66C36.3326 413.482 36.0775 413.225 35.9017 412.916C35.7259 412.606 35.6359 412.256 35.6408 411.9V411.75L85.4508 416.32Z" fill="#E5E5E5"/>
<path d="M84.4409 418.08L65.3809 429.08C65.077 429.256 64.7321 429.349 64.3809 429.35V416.35H85.4509C85.4495 416.702 85.3554 417.047 85.1781 417.351C85.0007 417.654 84.7465 417.906 84.4409 418.08Z" fill="#E5E5E5"/>
<path d="M65.0814 428.08C64.8631 428.203 64.6168 428.267 64.3664 428.267C64.116 428.267 63.8698 428.203 63.6514 428.08L35.8914 412.08C35.5414 411.87 35.5414 411.54 35.8914 411.34L56.3414 399.5L85.4514 416.32L65.0814 428.08Z" fill="#F4F4F4"/>
<path d="M47.3008 416.32L47.4408 416.4L56.3308 421.53L61.2208 418.71L61.3508 418.63L52.3208 413.42L47.3008 416.32Z" fill="#BFBFBF"/>
<path d="M47.4414 416.4L56.3314 421.53L61.2214 418.71L52.3214 413.58L47.4414 416.4Z" fill="#E5E5E5"/>
<path d="M77.9014 417.15L79.1914 417.89C79.2551 417.922 79.3252 417.938 79.3964 417.938C79.4675 417.938 79.5377 417.922 79.6014 417.89L80.8214 417.18C80.9414 417.11 80.9514 417.01 80.8214 416.95L79.5414 416.21C79.4777 416.178 79.4075 416.162 79.3364 416.162C79.2652 416.162 79.1951 416.178 79.1314 416.21L77.9014 416.92C77.8114 417 77.8014 417.09 77.9014 417.15Z" fill="#3A2C6D"/>
<path d="M76.0909 416.1L77.3709 416.84C77.4346 416.872 77.5048 416.888 77.5759 416.888C77.6471 416.888 77.7173 416.872 77.7809 416.84L79.0009 416.13C79.1309 416.06 79.1409 415.96 79.0009 415.9L77.7209 415.16C77.6573 415.128 77.5871 415.112 77.5159 415.112C77.4448 415.112 77.3746 415.128 77.3109 415.16L76.0909 415.86C76.0009 415.93 76.0009 416 76.0909 416.1Z" fill="#3A2C6D"/>
<path d="M74.2705 415.05L75.5605 415.79C75.6225 415.822 75.691 415.838 75.7605 415.838C75.8301 415.838 75.8986 415.822 75.9605 415.79L77.1905 415.09C77.3105 415.02 77.3205 414.91 77.1905 414.85L75.9005 414.11C75.8386 414.078 75.77 414.062 75.7005 414.062C75.631 414.062 75.5625 414.078 75.5005 414.11L74.2705 414.81C74.1805 414.88 74.1705 415 74.2705 415.05Z" fill="#3A2C6D"/>
<path d="M72.4623 414L73.7423 414.74C73.806 414.772 73.8762 414.788 73.9473 414.788C74.0185 414.788 74.0887 414.772 74.1523 414.74L75.3723 414.04C75.4923 413.97 75.5123 413.86 75.3723 413.8L74.1223 413C74.0587 412.968 73.9885 412.952 73.9173 412.952C73.8462 412.952 73.776 412.968 73.7123 413L72.4923 413.7C72.3623 413.83 72.3523 413.94 72.4623 414Z" fill="#3A2C6D"/>
<path d="M70.6406 413L71.9206 413.74C71.9843 413.772 72.0545 413.788 72.1256 413.788C72.1968 413.788 72.2669 413.772 72.3306 413.74L73.5606 413.03C73.6806 412.96 73.6906 412.85 73.5606 412.79L72.3006 412C72.2369 411.968 72.1668 411.952 72.0956 411.952C72.0245 411.952 71.9543 411.968 71.8906 412L70.6706 412.71C70.5506 412.79 70.5306 412.89 70.6406 413Z" fill="#3A2C6D"/>
<path d="M68.8213 411.9L70.1113 412.64C70.1732 412.672 70.2418 412.688 70.3113 412.688C70.3808 412.688 70.4494 412.672 70.5113 412.64L71.7413 411.93C71.8613 411.86 71.8713 411.75 71.7413 411.69L70.4613 410.95C70.3976 410.918 70.3274 410.902 70.2563 410.902C70.1852 410.902 70.115 410.918 70.0513 410.95L68.8213 411.66C68.7313 411.74 68.7213 411.84 68.8213 411.9Z" fill="#3A2C6D"/>
<path d="M67.0013 410.85L68.2813 411.6C68.345 411.632 68.4152 411.648 68.4863 411.648C68.5574 411.648 68.6276 411.632 68.6913 411.6L69.9113 410.89C70.0313 410.82 70.0513 410.72 69.9113 410.66L68.6313 409.91C68.5676 409.878 68.4974 409.862 68.4263 409.862C68.3552 409.862 68.285 409.878 68.2213 409.91L67.0013 410.62C66.9213 410.69 66.9013 410.79 67.0013 410.85Z" fill="#3A2C6D"/>
<path d="M65.1904 409.81L66.4704 410.55C66.5341 410.582 66.6043 410.598 66.6754 410.598C66.7466 410.598 66.8167 410.582 66.8804 410.55L68.1104 409.84C68.2304 409.77 68.2404 409.67 68.1104 409.61L66.8204 408.87C66.7568 408.838 66.6866 408.822 66.6154 408.822C66.5443 408.822 66.4741 408.838 66.4104 408.87L65.1904 409.58C65.1004 409.64 65.0904 409.75 65.1904 409.81Z" fill="#3A2C6D"/>
<path d="M63.3713 408.76L64.6613 409.5C64.725 409.532 64.7952 409.548 64.8663 409.548C64.9375 409.548 65.0076 409.532 65.0713 409.5L66.2913 408.79C66.4113 408.72 66.4213 408.62 66.2913 408.56L65.0013 407.8C64.9376 407.768 64.8675 407.752 64.7963 407.752C64.7252 407.752 64.655 407.768 64.5913 407.8L63.3613 408.51C63.2813 408.59 63.2713 408.7 63.3713 408.76Z" fill="#3A2C6D"/>
<path d="M61.5615 407.71L62.8415 408.45C62.9052 408.482 62.9754 408.498 63.0465 408.498C63.1177 408.498 63.1878 408.482 63.2515 408.45L64.4715 407.75C64.5915 407.68 64.6115 407.57 64.4715 407.51L63.1915 406.77C63.1278 406.738 63.0577 406.722 62.9865 406.722C62.9154 406.722 62.8452 406.738 62.7815 406.77L61.5615 407.47C61.4715 407.54 61.4515 407.65 61.5615 407.71Z" fill="#3A2C6D"/>
<path d="M59.7412 406.66L61.0212 407.4C61.0849 407.432 61.1551 407.448 61.2262 407.448C61.2974 407.448 61.3675 407.432 61.4312 407.4L62.6612 406.7C62.7812 406.63 62.7912 406.52 62.6612 406.46L61.3712 405.72C61.3093 405.688 61.2407 405.672 61.1712 405.672C61.1017 405.672 61.0332 405.688 60.9712 405.72L59.7412 406.42C59.6512 406.49 59.6412 406.6 59.7412 406.66Z" fill="#3A2C6D"/>
<path d="M57.9316 405.61L59.2116 406.35C59.2758 406.38 59.3458 406.395 59.4166 406.395C59.4873 406.395 59.5573 406.38 59.6216 406.35L60.8416 405.64C60.9616 405.57 60.9816 405.46 60.8416 405.4L59.5616 404.66C59.4979 404.628 59.4277 404.612 59.3566 404.612C59.2854 404.612 59.2153 404.628 59.1516 404.66L57.9216 405.37C57.8316 405.45 57.8216 405.55 57.9316 405.61Z" fill="#3A2C6D"/>
<path d="M56.1106 404.56L57.3906 405.3C57.4543 405.332 57.5244 405.348 57.5956 405.348C57.6667 405.348 57.7369 405.332 57.8006 405.3L59.0306 404.59C59.1506 404.52 59.1606 404.41 59.0306 404.35L57.7506 403.61C57.6869 403.578 57.6167 403.562 57.5456 403.562C57.4744 403.562 57.4043 403.578 57.3406 403.61L56.1206 404.32C56.0006 404.4 56.0006 404.5 56.1106 404.56Z" fill="#3A2C6D"/>
<path d="M53.4209 403L55.5809 404.24C55.642 404.274 55.7109 404.292 55.7809 404.292C55.8509 404.292 55.9198 404.274 55.9809 404.24L57.2109 403.53C57.3309 403.46 57.3409 403.36 57.2109 403.3L55.0509 402.05C54.9872 402.018 54.917 402.002 54.8459 402.002C54.7748 402.002 54.7046 402.018 54.6409 402.05L53.4209 402.75C53.3309 402.84 53.3109 403 53.4209 403Z" fill="#3A2C6D"/>
<path d="M73.4522 416.61L74.7322 417.35C74.7959 417.381 74.866 417.398 74.9372 417.398C75.0083 417.398 75.0785 417.381 75.1422 417.35L76.3722 416.64C76.4922 416.57 76.5022 416.47 76.3722 416.41L75.0822 415.67C75.0185 415.638 74.9483 415.622 74.8772 415.622C74.806 415.622 74.7358 415.638 74.6722 415.67L73.4522 416.38C73.3622 416.44 73.3522 416.55 73.4522 416.61Z" fill="#3A2C6D"/>
<path d="M71.6318 415.56L72.9119 416.3C72.9755 416.332 73.0457 416.348 73.1168 416.348C73.188 416.348 73.2582 416.332 73.3218 416.3L74.5519 415.59C74.6719 415.52 74.6819 415.42 74.5519 415.36L73.2619 414.62C73.1982 414.588 73.128 414.572 73.0568 414.572C72.9857 414.572 72.9155 414.588 72.8518 414.62L71.6318 415.33C71.5418 415.39 71.5318 415.5 71.6318 415.56Z" fill="#3A2C6D"/>
<path d="M69.8115 414.51L71.0915 415.25C71.1552 415.282 71.2254 415.298 71.2965 415.298C71.3677 415.298 71.4378 415.282 71.5015 415.25L72.7315 414.54C72.8515 414.47 72.8615 414.37 72.7315 414.31L71.4415 413.57C71.3779 413.538 71.3077 413.522 71.2365 413.522C71.1654 413.522 71.0952 413.538 71.0315 413.57L69.8115 414.28C69.7215 414.34 69.7115 414.45 69.8115 414.51Z" fill="#3A2C6D"/>
<path d="M68.0007 413.46L69.2807 414.2C69.3444 414.231 69.4145 414.248 69.4857 414.248C69.5568 414.248 69.627 414.231 69.6907 414.2L70.9207 413.49C71.0407 413.42 71.0507 413.32 70.9207 413.26L69.6307 412.52C69.5687 412.488 69.5002 412.472 69.4307 412.472C69.3611 412.472 69.2926 412.488 69.2307 412.52L68.0007 413.23C67.9007 413.29 67.8907 413.4 68.0007 413.46Z" fill="#3A2C6D"/>
<path d="M66.1924 412.41L67.4724 413.15C67.5353 413.184 67.6058 413.202 67.6774 413.202C67.749 413.202 67.8194 413.184 67.8824 413.15L69.1024 412.44C69.2224 412.37 69.2424 412.27 69.1024 412.21L67.8224 411.46C67.7587 411.428 67.6885 411.412 67.6174 411.412C67.5462 411.412 67.4761 411.428 67.4124 411.46L66.1924 412.17C66.1024 412.25 66.0824 412.35 66.1924 412.41Z" fill="#3A2C6D"/>
<path d="M64.3721 411.36L65.6521 412.1C65.7157 412.131 65.7859 412.148 65.8571 412.148C65.9282 412.148 65.9984 412.131 66.0621 412.1L67.2821 411.39C67.4021 411.32 67.4221 411.22 67.2821 411.15L66.0021 410.4C65.9384 410.368 65.8682 410.352 65.7971 410.352C65.7259 410.352 65.6557 410.368 65.5921 410.4L64.3721 411.11C64.2821 411.2 64.2621 411.3 64.3721 411.36Z" fill="#3A2C6D"/>
<path d="M62.5517 410.31L63.8318 411.05C63.8954 411.082 63.9656 411.098 64.0368 411.098C64.1079 411.098 64.1781 411.082 64.2417 411.05L65.4617 410.34C65.5817 410.27 65.6017 410.16 65.4617 410.1L64.1818 409.36C64.1181 409.328 64.0479 409.312 63.9767 409.312C63.9056 409.312 63.8354 409.328 63.7718 409.36L62.5517 410.07C62.4617 410.15 62.4417 410.25 62.5517 410.31Z" fill="#3A2C6D"/>
<path d="M60.7306 409.26L62.0006 410C62.0643 410.032 62.1345 410.048 62.2056 410.048C62.2767 410.048 62.3469 410.032 62.4106 410L63.6306 409.29C63.7606 409.22 63.7706 409.11 63.6306 409.05L62.3506 408.31C62.2869 408.278 62.2167 408.262 62.1456 408.262C62.0745 408.262 62.0043 408.278 61.9406 408.31L60.7206 409.02C60.6406 409.1 60.6206 409.2 60.7306 409.26Z" fill="#3A2C6D"/>
<path d="M58.912 408.21L60.192 408.95C60.2557 408.982 60.3259 408.998 60.397 408.998C60.4682 408.998 60.5384 408.982 60.602 408.95L61.832 408.24C61.952 408.17 61.962 408.06 61.832 408L60.552 407.26C60.4884 407.228 60.4182 407.212 60.347 407.212C60.2759 407.212 60.2057 407.228 60.142 407.26L58.922 407.97C58.822 408.05 58.802 408.15 58.912 408.21Z" fill="#3A2C6D"/>
<path d="M57.0909 407.16L58.3709 407.9C58.4346 407.932 58.5048 407.948 58.5759 407.948C58.6471 407.948 58.7172 407.932 58.7809 407.9L60.0109 407.19C60.1309 407.12 60.1409 407.01 60.0109 406.95L58.7209 406.21C58.6573 406.178 58.5871 406.162 58.5159 406.162C58.4448 406.162 58.3746 406.178 58.3109 406.21L57.0909 406.92C57.0009 407 57.0009 407.1 57.0909 407.16Z" fill="#3A2C6D"/>
<path d="M55.2705 406.11L56.5505 406.85C56.6142 406.881 56.6844 406.898 56.7555 406.898C56.8267 406.898 56.8968 406.881 56.9605 406.85L58.1905 406.15C58.3105 406.08 58.3205 405.97 58.1905 405.91L56.9005 405.17C56.8368 405.138 56.7667 405.122 56.6955 405.122C56.6244 405.122 56.5542 405.138 56.4905 405.17L55.2705 405.88C55.1805 406 55.1705 406.05 55.2705 406.11Z" fill="#3A2C6D"/>
<path d="M53.4522 405.06L54.7322 405.8C54.7958 405.832 54.866 405.848 54.9372 405.848C55.0083 405.848 55.0785 405.832 55.1422 405.8L56.3722 405.1C56.4922 405.03 56.5022 404.92 56.3722 404.86L55.0822 404.12C55.0185 404.088 54.9483 404.072 54.8772 404.072C54.806 404.072 54.7358 404.088 54.6722 404.12L53.4522 404.82C53.3622 404.89 53.3522 405 53.4522 405.06Z" fill="#3A2C6D"/>
<path d="M75.2705 417.66L77.4305 418.9C77.4942 418.932 77.5644 418.948 77.6355 418.948C77.7066 418.948 77.7768 418.932 77.8405 418.9L79.0605 418.19C79.1805 418.12 79.1905 418.01 79.0605 417.95L76.9005 416.71C76.8362 416.68 76.7663 416.665 76.6955 416.665C76.6247 416.665 76.5548 416.68 76.4905 416.71L75.2705 417.42C75.1805 417.49 75.1605 417.6 75.2705 417.66Z" fill="#3A2C6D"/>
<path d="M53.3024 403.06L54.5824 403.8C54.6924 403.86 54.6924 403.96 54.5824 404.02L53.2924 404.77C53.2335 404.8 53.1684 404.816 53.1024 404.816C53.0363 404.816 52.9712 404.8 52.9124 404.77L52.8124 404.71C52.757 404.68 52.6952 404.665 52.6324 404.665C52.5695 404.665 52.5077 404.68 52.4524 404.71L51.0924 405.5C51.0335 405.53 50.9684 405.546 50.9024 405.546C50.8363 405.546 50.7712 405.53 50.7124 405.5L49.8924 405.03C49.8709 405.021 49.8527 405.005 49.8399 404.986C49.8271 404.966 49.8203 404.943 49.8203 404.92C49.8203 404.897 49.8271 404.874 49.8399 404.854C49.8527 404.835 49.8709 404.819 49.8924 404.81L51.1724 404.07L51.4424 403.92L51.6324 403.81L51.8224 403.7L52.9224 403.06C52.9812 403.03 53.0463 403.015 53.1124 403.015C53.1784 403.015 53.2435 403.03 53.3024 403.06Z" fill="#3A2C6D"/>
<path d="M70.862 421.21L72.142 421.95C72.2057 421.982 72.2759 421.998 72.347 421.998C72.4181 421.998 72.4883 421.982 72.552 421.95L73.772 421.24C73.892 421.17 73.912 421.07 73.772 421.01L72.492 420.27C72.4283 420.238 72.3581 420.222 72.287 420.222C72.2159 420.222 72.1457 420.238 72.082 420.27L70.862 420.97C70.762 421 70.752 421.15 70.862 421.21Z" fill="#3A2C6D"/>
<path d="M69.0013 420.16L70.2913 420.9C70.355 420.932 70.4251 420.948 70.4963 420.948C70.5674 420.948 70.6376 420.932 70.7013 420.9L71.9213 420.19C72.0413 420.12 72.0513 420.01 71.9213 419.95L70.6413 419.21C70.5776 419.178 70.5074 419.162 70.4363 419.162C70.3651 419.162 70.295 419.178 70.2313 419.21L69.0013 419.92C69.0013 420 68.9413 420.1 69.0013 420.16Z" fill="#3A2C6D"/>
<path d="M67.2315 419.12L68.5214 419.86C68.5834 419.892 68.6519 419.908 68.7215 419.908C68.791 419.908 68.8595 419.892 68.9215 419.86L70.1515 419.15C70.2715 419.08 70.2815 418.98 70.1515 418.92L68.8715 418.18C68.8078 418.148 68.7376 418.132 68.6665 418.132C68.5953 418.132 68.5251 418.148 68.4615 418.18L67.2315 418.89C67.1415 419 67.1315 419.06 67.2315 419.12Z" fill="#3A2C6D"/>
<path d="M51.8124 410.21L53.0924 410.95C53.1561 410.982 53.2262 410.998 53.2974 410.998C53.3685 410.998 53.4387 410.982 53.5024 410.95L54.7324 410.24C54.8524 410.17 54.8624 410.06 54.7324 410L53.4524 409.26C53.3887 409.228 53.3185 409.212 53.2474 409.212C53.1762 409.212 53.1061 409.228 53.0424 409.26L51.8224 409.97C51.7224 410.05 51.7124 410.15 51.8124 410.21Z" fill="#3A2C6D"/>
<path d="M50.001 409.17L51.281 409.91C51.3447 409.942 51.4148 409.958 51.486 409.958C51.5571 409.958 51.6273 409.942 51.691 409.91L52.911 409.2C53.041 409.13 53.051 409.03 52.911 408.97L51.631 408.23C51.5673 408.198 51.4971 408.182 51.426 408.182C51.3548 408.182 51.2847 408.198 51.221 408.23L50.001 408.94C49.911 409 49.891 409.11 50.001 409.17Z" fill="#3A2C6D"/>
<path d="M48.1924 408.12L49.4724 408.86C49.5361 408.892 49.6062 408.908 49.6774 408.908C49.7485 408.908 49.8187 408.892 49.8824 408.86L51.1024 408.16C51.2224 408.09 51.2424 407.98 51.1024 407.92L49.8224 407.18C49.7587 407.148 49.6885 407.132 49.6174 407.132C49.5462 407.132 49.4761 407.148 49.4124 407.18L48.1924 407.88C48.1024 408 48.0824 408.06 48.1924 408.12Z" fill="#3A2C6D"/>
<path d="M46.3808 407.07L47.6608 407.82C47.7245 407.852 47.7946 407.868 47.8658 407.868C47.9369 407.868 48.0071 407.852 48.0708 407.82L49.2908 407.11C49.4108 407.04 49.4308 406.94 49.2908 406.88L48.0008 406.11C47.9371 406.078 47.8669 406.062 47.7958 406.062C47.7246 406.062 47.6545 406.078 47.5908 406.11L46.3708 406.82C46.2808 406.91 46.2708 407 46.3808 407.07Z" fill="#3A2C6D"/>
<path d="M65.0014 417.8L66.7514 418.8C66.8133 418.832 66.8818 418.848 66.9514 418.848C67.0209 418.848 67.0894 418.832 67.1514 418.8L68.3814 418.1C68.5014 418.03 68.5114 417.92 68.3814 417.86L66.6314 416.86C66.5677 416.828 66.4975 416.812 66.4264 416.812C66.3552 416.812 66.285 416.828 66.2214 416.86L65.0014 417.57C64.8614 417.64 64.8514 417.74 65.0014 417.8Z" fill="#3A2C6D"/>
<path d="M53.6221 411.26L55.3721 412.26C55.4358 412.292 55.5059 412.308 55.5771 412.308C55.6482 412.308 55.7184 412.292 55.7821 412.26L57.0021 411.55C57.1221 411.48 57.1421 411.38 57.0021 411.32L55.2521 410.32C55.1884 410.288 55.1182 410.272 55.0471 410.272C54.9759 410.272 54.9058 410.288 54.8421 410.32L53.6221 411.03C53.5321 411.09 53.5221 411.2 53.6221 411.26Z" fill="#3A2C6D"/>
<path d="M55.9014 412.57L64.4314 417.5C64.495 417.532 64.5652 417.548 64.6364 417.548C64.7075 417.548 64.7777 417.532 64.8414 417.5L66.0614 416.79C66.1814 416.72 66.1914 416.62 66.0614 416.56L57.5314 411.63C57.4677 411.599 57.3975 411.582 57.3264 411.582C57.2552 411.582 57.185 411.599 57.1214 411.63L55.9014 412.34C55.8114 412.41 55.7914 412.51 55.9014 412.57Z" fill="#3A2C6D"/>
<path d="M71.2011 417.34L72.4811 418.08C72.5448 418.111 72.615 418.128 72.6861 418.128C72.7572 418.128 72.8274 418.111 72.8911 418.08L74.1111 417.38C74.2311 417.31 74.2511 417.2 74.1111 417.14L72.8311 416.4C72.7674 416.368 72.6972 416.352 72.6261 416.352C72.555 416.352 72.4848 416.368 72.4211 416.4L71.1911 417.1C71.1011 417.17 71.0911 417.28 71.2011 417.34Z" fill="#3A2C6D"/>
<path d="M69.3811 416.29L70.6611 417.03C70.7248 417.062 70.795 417.078 70.8661 417.078C70.9372 417.078 71.0074 417.062 71.0711 417.03L72.3011 416.33C72.4211 416.26 72.4311 416.15 72.3011 416.09L71.0011 415.33C70.9374 415.298 70.8672 415.282 70.7961 415.282C70.725 415.282 70.6548 415.298 70.5911 415.33L69.3711 416.04C69.2911 416.12 69.2811 416.23 69.3811 416.29Z" fill="#3A2C6D"/>
<path d="M67.5723 415.24L68.8523 415.98C68.9159 416.012 68.9861 416.028 69.0573 416.028C69.1284 416.028 69.1986 416.012 69.2623 415.98L70.4823 415.27C70.6023 415.2 70.6223 415.09 70.4823 415.03L69.2023 414.29C69.1386 414.258 69.0684 414.242 68.9973 414.242C68.9261 414.242 68.856 414.258 68.7923 414.29L67.6023 415C67.4823 415.08 67.4623 415.18 67.5723 415.24Z" fill="#3A2C6D"/>
<path d="M65.751 414.2L67.041 414.94C67.1029 414.972 67.1715 414.988 67.241 414.988C67.3105 414.988 67.3791 414.972 67.441 414.94L68.671 414.23C68.791 414.16 68.801 414.06 68.671 414L67.381 413.26C67.3191 413.228 67.2505 413.212 67.181 413.212C67.1115 413.212 67.0429 413.228 66.981 413.26L65.751 413.97C65.661 414 65.651 414.14 65.751 414.2Z" fill="#3A2C6D"/>
<path d="M63.9424 413.15L65.2224 413.89C65.2861 413.922 65.3562 413.938 65.4274 413.938C65.4985 413.938 65.5687 413.922 65.6324 413.89L66.8524 413.19C66.9824 413.12 66.9924 413.01 66.8524 412.95L65.5724 412.21C65.5087 412.178 65.4385 412.162 65.3674 412.162C65.2962 412.162 65.2261 412.178 65.1624 412.21L63.9424 412.91C63.8524 413 63.8324 413.09 63.9424 413.15Z" fill="#3A2C6D"/>
<path d="M62.1212 412.1L63.4113 412.84C63.4749 412.872 63.5451 412.888 63.6163 412.888C63.6874 412.888 63.7576 412.872 63.8213 412.84L65.0413 412.14C65.1613 412.07 65.1713 411.96 65.0413 411.9L63.7612 411.16C63.6976 411.128 63.6274 411.112 63.5563 411.112C63.4851 411.112 63.4149 411.128 63.3512 411.16L62.1212 411.87C62.0012 411.93 62.0012 412 62.1212 412.1Z" fill="#3A2C6D"/>
<path d="M60.3117 411.05L61.5917 411.79C61.6554 411.822 61.7255 411.838 61.7967 411.838C61.8678 411.838 61.938 411.822 62.0017 411.79L63.2317 411.08C63.3517 411.01 63.3617 410.91 63.2317 410.84L62.0017 410.09C61.938 410.058 61.8678 410.042 61.7967 410.042C61.7255 410.042 61.6554 410.058 61.5917 410.09L60.3717 410.8C60.2217 410.89 60.2117 411 60.3117 411.05Z" fill="#3A2C6D"/>
<path d="M58.5007 410L59.7807 410.74C59.8444 410.772 59.9145 410.788 59.9857 410.788C60.0568 410.788 60.127 410.772 60.1907 410.74L61.4107 410.03C61.5307 409.96 61.5507 409.86 61.4107 409.8L60.1307 409.06C60.067 409.028 59.9968 409.012 59.9257 409.012C59.8545 409.012 59.7844 409.028 59.7207 409.06L58.5007 409.77C58.4007 409.84 58.3907 410 58.5007 410Z" fill="#3A2C6D"/>
<path d="M56.6815 409L57.9615 409.74C58.0251 409.772 58.0953 409.788 58.1665 409.788C58.2376 409.788 58.3078 409.772 58.3715 409.74L59.6015 409.04C59.7215 408.97 59.7315 408.86 59.6015 408.8L58.3415 408C58.2795 407.969 58.211 407.952 58.1415 407.952C58.0719 407.952 58.0034 407.969 57.9415 408L56.7115 408.7C56.5915 408.79 56.5815 408.9 56.6815 409Z" fill="#3A2C6D"/>
<path d="M54.8711 407.91L56.1511 408.65C56.2148 408.682 56.285 408.698 56.3561 408.698C56.4272 408.698 56.4974 408.682 56.5611 408.65L57.7811 407.95C57.9011 407.88 57.9211 407.77 57.7811 407.71L56.5311 407C56.4674 406.968 56.3972 406.952 56.3261 406.952C56.255 406.952 56.1848 406.968 56.1211 407L54.9011 407.71C54.7811 407.75 54.7611 407.85 54.8711 407.91Z" fill="#3A2C6D"/>
<path d="M53.0512 406.86L54.3412 407.6C54.4031 407.632 54.4716 407.648 54.5412 407.648C54.6107 407.648 54.6792 407.632 54.7412 407.6L55.9712 406.89C56.0912 406.82 56.1012 406.72 55.9712 406.65L54.6912 405.91C54.6275 405.878 54.5573 405.862 54.4862 405.862C54.415 405.862 54.3449 405.878 54.2812 405.91L53.0512 406.62C53.0012 406.7 53.0012 406.8 53.0512 406.86Z" fill="#3A2C6D"/>
<path d="M51.2412 405.82L52.5212 406.56C52.5849 406.592 52.6551 406.608 52.7262 406.608C52.7973 406.608 52.8675 406.592 52.9312 406.56L54.1512 405.85C54.2812 405.78 54.2912 405.68 54.1512 405.62L52.8712 404.88C52.8075 404.849 52.7373 404.832 52.6662 404.832C52.5951 404.832 52.5249 404.849 52.4612 404.88L51.2412 405.59C51.1512 405.65 51.1312 405.76 51.2412 405.82Z" fill="#3A2C6D"/>
<path d="M73.0013 418.39L75.6513 419.92C75.715 419.952 75.7852 419.968 75.8563 419.968C75.9274 419.968 75.9976 419.952 76.0613 419.92L77.2913 419.21C77.4113 419.14 77.4213 419.04 77.2913 418.98L74.6313 417.45C74.5676 417.418 74.4974 417.402 74.4263 417.402C74.3552 417.402 74.285 417.418 74.2213 417.45L73.0013 418.16C72.9213 418.22 72.9113 418.33 73.0013 418.39Z" fill="#3A2C6D"/>
<path d="M70.3412 418.87L71.6213 419.62C71.6849 419.652 71.7551 419.668 71.8262 419.668C71.8974 419.668 71.9676 419.652 72.0312 419.62L73.2513 418.91C73.3713 418.84 73.3913 418.74 73.2513 418.68L72.0013 417.92C71.9383 417.886 71.8678 417.868 71.7962 417.868C71.7247 417.868 71.6542 417.886 71.5912 417.92L70.3713 418.63C70.2413 418.71 70.2312 418.81 70.3412 418.87Z" fill="#3A2C6D"/>
<path d="M68.5205 417.83L69.8005 418.57C69.8642 418.602 69.9344 418.618 70.0055 418.618C70.0767 418.618 70.1468 418.602 70.2105 418.57L71.4405 417.86C71.5605 417.79 71.5705 417.69 71.4405 417.63L70.1505 416.89C70.0886 416.858 70.02 416.842 69.9505 416.842C69.881 416.842 69.8125 416.858 69.7505 416.89L68.5205 417.6C68.4305 417.66 68.4205 417.77 68.5205 417.83Z" fill="#3A2C6D"/>
<path d="M66.7119 416.78L67.9919 417.52C68.0556 417.552 68.1258 417.568 68.1969 417.568C68.268 417.568 68.3382 417.552 68.4019 417.52L69.6219 416.82C69.7419 416.75 69.7619 416.64 69.6219 416.58L68.3419 415.84C68.2782 415.808 68.2081 415.792 68.1369 415.792C68.0658 415.792 67.9956 415.808 67.9319 415.84L66.7119 416.54C66.6219 416.61 66.6019 416.72 66.7119 416.78Z" fill="#3A2C6D"/>
<path d="M64.8916 415.73L66.1816 416.47C66.2453 416.502 66.3155 416.518 66.3866 416.518C66.4578 416.518 66.5279 416.502 66.5916 416.47L67.8116 415.76C67.9316 415.69 67.9416 415.58 67.8116 415.52L66.5316 414.78C66.4679 414.748 66.3978 414.732 66.3266 414.732C66.2555 414.732 66.1853 414.748 66.1216 414.78L64.8916 415.49C64.8016 415.57 64.7916 415.67 64.8916 415.73Z" fill="#3A2C6D"/>
<path d="M63.0822 414.69L64.3622 415.43C64.4259 415.462 64.4961 415.478 64.5672 415.478C64.6384 415.478 64.7086 415.462 64.7722 415.43L66.0022 414.7C66.1222 414.63 66.1322 414.53 66.0022 414.47L64.7222 413.73C64.6586 413.698 64.5884 413.682 64.5172 413.682C64.4461 413.682 64.3759 413.698 64.3122 413.73L63.0922 414.44C63.0022 414.52 63.0022 414.63 63.0822 414.69Z" fill="#3A2C6D"/>
<path d="M61.2722 413.64L62.5522 414.38C62.6158 414.412 62.686 414.428 62.7572 414.428C62.8283 414.428 62.8985 414.412 62.9622 414.38L64.1822 413.68C64.3022 413.61 64.3222 413.5 64.1822 413.44L62.9022 412.7C62.8385 412.668 62.7683 412.652 62.6972 412.652C62.626 412.652 62.5558 412.668 62.4922 412.7L61.2722 413.4C61.1722 413.47 61.1622 413.58 61.2722 413.64Z" fill="#3A2C6D"/>
<path d="M59.4522 412.59L60.7322 413.33C60.7958 413.362 60.866 413.378 60.9372 413.378C61.0083 413.378 61.0785 413.362 61.1422 413.33L62.3722 412.63C62.4922 412.56 62.5022 412.45 62.3722 412.39L61.0822 411.65C61.0202 411.619 60.9517 411.602 60.8822 411.602C60.8126 411.602 60.7441 411.619 60.6822 411.65L59.4522 412.36C59.3622 412.42 59.3522 412.53 59.4522 412.59Z" fill="#3A2C6D"/>
<path d="M57.6416 411.54L58.9216 412.28C58.9853 412.312 59.0555 412.328 59.1266 412.328C59.1977 412.328 59.2679 412.312 59.3316 412.28L60.5516 411.57C60.6716 411.5 60.6916 411.4 60.5516 411.33L59.2716 410.59C59.2079 410.558 59.1377 410.542 59.0666 410.542C58.9955 410.542 58.9253 410.558 58.8616 410.59L57.6416 411.3C57.5516 411.38 57.5316 411.48 57.6416 411.54Z" fill="#3A2C6D"/>
<path d="M55.8213 410.5L57.1113 411.24C57.175 411.272 57.2452 411.288 57.3163 411.288C57.3874 411.288 57.4576 411.272 57.5213 411.24L58.7413 410.53C58.8613 410.46 58.8713 410.36 58.7413 410.3L57.4613 409.56C57.3976 409.528 57.3274 409.512 57.2563 409.512C57.1852 409.512 57.115 409.528 57.0513 409.56L55.8213 410.27C55.7313 410.33 55.7213 410.44 55.8213 410.5Z" fill="#3A2C6D"/>
<path d="M54.0013 409.45L55.2813 410.19C55.345 410.222 55.4152 410.238 55.4863 410.238C55.5574 410.238 55.6276 410.222 55.6913 410.19L56.9213 409.49C57.0413 409.42 57.0513 409.31 56.9213 409.25L55.6313 408.51C55.5676 408.478 55.4974 408.462 55.4263 408.462C55.3552 408.462 55.285 408.478 55.2213 408.51L54.0013 409.21C53.9213 409.28 53.9113 409.39 54.0013 409.45Z" fill="#3A2C6D"/>
<path d="M52.2018 408.4L53.4818 409.14C53.5455 409.172 53.6157 409.188 53.6868 409.188C53.758 409.188 53.8282 409.172 53.8918 409.14L55.1118 408.43C55.2318 408.36 55.2518 408.25 55.1118 408.19L53.8318 407.45C53.7682 407.418 53.698 407.402 53.6268 407.402C53.5557 407.402 53.4855 407.418 53.4218 407.45L52.2018 408.16C52.1018 408.24 52.0918 408.34 52.2018 408.4Z" fill="#3A2C6D"/>
<path d="M48.1419 406.06L51.6719 408.06C51.7339 408.092 51.8024 408.108 51.8719 408.108C51.9415 408.108 52.01 408.092 52.0719 408.06L53.3019 407.35C53.4219 407.28 53.4319 407.18 53.3019 407.12L49.7719 405.12C49.7082 405.088 49.6381 405.072 49.5669 405.072C49.4958 405.072 49.4256 405.088 49.3619 405.12L48.1419 405.82C48.0519 405.89 48.0019 406 48.1419 406.06Z" fill="#3A2C6D"/>
<path d="M72.1519 419.92L73.9019 420.92C73.9662 420.95 74.0361 420.965 74.1069 420.965C74.1777 420.965 74.2476 420.95 74.3119 420.92L75.5319 420.21C75.6519 420.14 75.6719 420.03 75.5319 419.97L73.7819 418.97C73.7182 418.938 73.648 418.922 73.5769 418.922C73.5058 418.922 73.4356 418.938 73.3719 418.97L72.1519 419.68C72.0619 419.76 72.0019 419.86 72.1519 419.92Z" fill="#3A2C6D"/>
<path d="M85.4518 416.32L56.3418 399.5V376.61L56.5618 376.09L56.8018 375.97C57.1058 375.795 57.4507 375.702 57.8018 375.702C58.1529 375.702 58.4978 375.795 58.8018 375.97L85.4418 391.36C85.747 391.536 86.0002 391.79 86.1758 392.096C86.3514 392.401 86.4432 392.748 86.4418 393.1V414.58C86.2718 415.69 86.0718 416 85.4518 416.32Z" fill="#E5E5E5"/>
<path d="M82.7818 394.13L56.3418 377.37V376.61L56.5618 376.09L56.8018 375.97C57.1058 375.795 57.4507 375.702 57.8018 375.702C58.1529 375.702 58.4978 375.795 58.8018 375.97L85.4418 391.36C85.7649 391.549 86.0309 391.822 86.2118 392.15L82.7818 394.13Z" fill="#E5E5E5"/>
<path d="M57.002 376.09L85.002 392.23C85.1498 392.318 85.2725 392.442 85.3584 392.591C85.4442 392.74 85.4902 392.908 85.492 393.08V416.32L56.342 399.5V376.5C56.3398 376.422 56.3583 376.344 56.3956 376.275C56.4329 376.206 56.4876 376.147 56.5543 376.106C56.6211 376.064 56.6975 376.041 56.7761 376.038C56.8546 376.036 56.9325 376.053 57.002 376.09Z" fill="#DCEEFF"/>
<path d="M57.002 376.09L85.002 392.23C85.1498 392.318 85.2725 392.442 85.3584 392.591C85.4442 392.74 85.4902 392.908 85.492 393.08V416.32L56.342 399.5V376.5C56.3398 376.422 56.3583 376.344 56.3956 376.275C56.4329 376.206 56.4876 376.147 56.5543 376.106C56.6211 376.064 56.6975 376.041 56.7761 376.038C56.8546 376.036 56.9325 376.053 57.002 376.09Z" fill="#F4F4F4"/>
<path d="M85.4518 416.31V415.49L56.3418 398.67V399.5L85.4518 416.31Z" fill="#DBDBDB"/>
<path d="M57.0918 398.28V377.29L57.4518 377.5V398.11L57.0918 398.28Z" fill="#1E3779"/>
<path d="M57.4512 377.5V398.11L84.5212 413.7V393.13L57.4512 377.5Z" fill="#3A2C6D"/>
<path d="M57.0918 398.28L84.5218 414.11V413.7L57.4518 398.11L57.0918 398.28Z" fill="#031F60"/>
<path d="M25.7408 372.45C25.0508 374.17 26.8108 376.29 31.5008 377.76C36.1908 379.23 36.6208 377.34 36.6208 377.34C39.7469 378.74 42.7948 380.309 45.7508 382.04C48.5608 384.04 49.8108 389.71 50.1908 399.33C50.6308 410.47 50.6708 426.99 50.3008 429.84C50.3008 429.84 45.0308 435.08 38.3008 434.53C31.5708 433.98 20.2208 428 17.4708 423.41C17.5408 413.65 18.6908 412.06 17.1108 406.41C13.4908 393.54 11.5808 388.26 13.3408 379.71C14.7908 372.66 16.8208 371.78 19.6108 371.85C21.6633 371.941 23.7095 372.141 25.7408 372.45Z" fill="#F4F4F4"/>
<path d="M61.2708 411.27C55.7508 412.66 54.4508 409.18 53.7208 406.27C52.0008 399.3 51.0008 393 49.7008 389C48.1608 384.32 46.5408 383.57 44.2608 382.66C41.5908 381.59 39.2608 383.85 40.1908 389.8C41.2408 396.85 42.6208 401.8 45.2508 410.13C45.9408 412.31 47.4808 416.18 49.7908 418.05C52.6508 420.35 56.9408 420.25 63.4508 418.64C66.2208 417.95 69.2608 416.29 74.4508 413.84C75.8608 413.19 76.9608 412.75 79.6608 411.49C82.372 410.27 84.7491 408.414 86.5908 406.08C88.0108 404.03 88.2008 403.08 87.9108 402.6C87.6208 402.12 86.9108 402.14 86.1508 403C85.0503 404.461 83.6953 405.711 82.1508 406.69C82.1508 406.69 83.8908 404.88 84.8408 403.69C85.7126 402.668 86.4394 401.531 87.0008 400.31C87.5008 399.12 86.4708 397.49 85.6908 398.31C84.9108 399.13 84.5308 400.04 83.1008 401.75C82.3486 402.663 81.4891 403.483 80.5408 404.19C81.4291 402.993 82.2184 401.726 82.9008 400.4C83.5136 399.361 83.8123 398.166 83.7608 396.96C83.7608 396.34 82.8408 395.6 82.0108 396.78C81.1808 397.96 80.7808 399.51 79.0108 401.32C77.7508 402.63 76.6808 403.38 76.6408 403.02C76.6008 402.66 77.4108 401.93 77.8608 400.41C78.3108 398.89 77.8608 397.27 77.0108 397.09C76.1608 396.91 76.3308 396.96 75.6608 398.39C74.9908 399.82 74.0008 400.9 73.1708 403C72.75 404.472 71.9699 405.815 70.9008 406.91C69.5408 408.35 66.5308 410 61.2708 411.27Z" fill="#FFCEA9"/>
<path d="M42.2206 381.73C45.9106 381.18 48.5206 382.84 50.1506 388.44C51.7806 394.04 52.9206 398.63 52.9206 398.63C51.4573 400.74 49.2428 402.21 46.7306 402.74C42.3206 403.8 40.7306 401.69 40.7306 401.69C40.7306 401.69 39.5006 395.83 38.7306 391.84C37.9606 387.85 37.6506 382.4 42.2206 381.73Z" fill="#EDEDED"/>
<path d="M44.0013 353.08C44.0013 353.08 49.8313 344.21 37.1913 342.41C28.0713 341.1 22.1913 346.96 21.5413 353.32C20.8913 359.39 24.6313 365.7 27.3313 368.2C28.6513 368.67 31.4813 368.94 35.2113 367.25C35.3628 365.588 35.4196 363.919 35.3813 362.25C35.3813 362.25 31.0013 352.92 44.0013 353.08Z" fill="#3A2C6D"/>
<path d="M69.3395 465.31V438.67L48.1895 451.02L56.3395 467.87L69.3395 465.31Z" fill="#C4C7D6"/>
<path d="M55.4805 440.21L63.6005 435.5L69.3405 438.81L60.9205 443.59L55.4805 440.21Z" fill="#D6D8E5"/>
</g>
<defs>
<clipPath id="clip0_365_4590">
<rect width="438.57" height="500" fill="white"/>
</clipPath>
</defs>
</svg>
