<svg width="424" height="500" viewBox="0 0 424 500" fill="none" xmlns="http://www.w3.org/2000/svg">
<g clip-path="url(#clip0_361_3991)">
<path d="M135.14 328.43C163.604 328.43 186.68 305.354 186.68 276.89C186.68 248.425 163.604 225.35 135.14 225.35C106.675 225.35 83.5996 248.425 83.5996 276.89C83.5996 305.354 106.675 328.43 135.14 328.43Z" fill="#FF7B7B"/>
<path d="M155.111 324.28C142.834 329.473 129.024 329.709 116.577 324.94C104.13 320.171 94.0133 310.766 88.35 298.7C82.6867 286.633 81.9165 272.842 86.2011 260.22C90.4857 247.598 99.4921 237.126 111.331 231C103.95 238.904 99.0387 248.792 97.201 259.448C95.3632 270.105 96.6789 281.067 100.986 290.986C105.294 300.906 112.405 309.351 121.447 315.283C130.489 321.216 141.067 324.377 151.881 324.38C153.001 324.37 154.051 324.34 155.111 324.28Z" fill="#E26D6D"/>
<path d="M149.499 250C152.194 250 154.379 247.815 154.379 245.12C154.379 242.425 152.194 240.24 149.499 240.24C146.804 240.24 144.619 242.425 144.619 245.12C144.619 247.815 146.804 250 149.499 250Z" fill="#E26D6D"/>
<path d="M105.37 253.07C108.065 253.07 110.25 250.885 110.25 248.19C110.25 245.495 108.065 243.31 105.37 243.31C102.675 243.31 100.49 245.495 100.49 248.19C100.49 250.885 102.675 253.07 105.37 253.07Z" fill="#F4F6F9"/>
<path d="M122.801 248.78C124.822 248.78 126.461 247.141 126.461 245.12C126.461 243.099 124.822 241.46 122.801 241.46C120.779 241.46 119.141 243.099 119.141 245.12C119.141 247.141 120.779 248.78 122.801 248.78Z" fill="#F4F6F9"/>
<path d="M129.49 279.57C134.002 279.57 137.66 275.912 137.66 271.4C137.66 266.888 134.002 263.23 129.49 263.23C124.978 263.23 121.32 266.888 121.32 271.4C121.32 275.912 124.978 279.57 129.49 279.57Z" fill="#E26D6D"/>
<path d="M102.051 295.82C106.563 295.82 110.221 292.162 110.221 287.65C110.221 283.138 106.563 279.48 102.051 279.48C97.5387 279.48 93.8809 283.138 93.8809 287.65C93.8809 292.162 97.5387 295.82 102.051 295.82Z" fill="#F4F6F9"/>
<path d="M139.94 308.65C144.452 308.65 148.11 304.992 148.11 300.48C148.11 295.967 144.452 292.31 139.94 292.31C135.427 292.31 131.77 295.967 131.77 300.48C131.77 304.992 135.427 308.65 139.94 308.65Z" fill="#E26D6D"/>
<path d="M165.97 300.48C168.665 300.48 170.85 298.295 170.85 295.6C170.85 292.905 168.665 290.72 165.97 290.72C163.275 290.72 161.09 292.905 161.09 295.6C161.09 298.295 163.275 300.48 165.97 300.48Z" fill="#D16969"/>
<path d="M115.131 314.76C117.152 314.76 118.791 313.121 118.791 311.1C118.791 309.079 117.152 307.44 115.131 307.44C113.109 307.44 111.471 309.079 111.471 311.1C111.471 313.121 113.109 314.76 115.131 314.76Z" fill="#D16969"/>
<path d="M103.5 273.38C105.521 273.38 107.16 271.741 107.16 269.72C107.16 267.698 105.521 266.06 103.5 266.06C101.478 266.06 99.8398 267.698 99.8398 269.72C99.8398 271.741 101.478 273.38 103.5 273.38Z" fill="#D16969"/>
<path d="M161.091 271.02C163.786 271.02 165.971 268.835 165.971 266.14C165.971 263.445 163.786 261.26 161.091 261.26C158.396 261.26 156.211 263.445 156.211 266.14C156.211 268.835 158.396 271.02 161.091 271.02Z" fill="#D16969"/>
<path d="M129.49 225.66C133.61 216.93 133.12 201.66 133.12 201.66H137.42C137.42 201.66 137.95 218.57 141.15 225.66" fill="#FF7B7B"/>
<path d="M137.481 203H137.411C135.953 203.081 134.494 202.852 133.131 202.33C133.131 202.33 133.131 201.65 133.131 201.65H137.431C137.431 201.65 137.451 202.43 137.481 203Z" fill="#E26D6D"/>
<path d="M135.321 202.04C138.043 202.04 140.251 200.938 140.251 199.58C140.251 198.221 138.043 197.12 135.321 197.12C132.598 197.12 130.391 198.221 130.391 199.58C130.391 200.938 132.598 202.04 135.321 202.04Z" fill="#FF7B7B"/>
<path d="M132.824 198.83C133.329 198.712 133.696 198.433 133.643 198.207C133.59 197.981 133.138 197.894 132.632 198.012C132.127 198.131 131.76 198.41 131.813 198.635C131.865 198.861 132.318 198.948 132.824 198.83Z" fill="#F4F6F9"/>
<path d="M147.189 227.7C152.439 222.47 156.049 211.32 156.049 211.32L159.159 212.44C159.159 212.44 155.159 224.79 155.609 230.76" fill="#FF7B7B"/>
<path d="M158.849 213.42C157.779 213.094 156.788 212.549 155.939 211.82L156.099 211.33L159.209 212.45C159.209 212.45 158.999 213 158.849 213.42Z" fill="#E26D6D"/>
<path d="M161.747 211.651C162.101 210.669 160.796 209.299 158.831 208.591C156.867 207.884 154.988 208.107 154.635 209.089C154.281 210.071 155.586 211.44 157.55 212.148C159.515 212.855 161.394 212.633 161.747 211.651Z" fill="#FF7B7B"/>
<path d="M157.321 208.936C157.341 208.76 157.038 208.581 156.643 208.535C156.248 208.489 155.911 208.594 155.89 208.77C155.87 208.945 156.174 209.125 156.569 209.171C156.964 209.216 157.3 209.111 157.321 208.936Z" fill="#F4F6F9"/>
<path d="M158.289 232.53C163.729 229.2 168.999 220.58 168.999 220.58L171.369 222.14C171.369 222.14 165.529 231.68 164.729 236.78" fill="#FF7B7B"/>
<path d="M170.921 222.9C170.085 222.414 169.363 221.756 168.801 220.97L169.041 220.6L171.411 222.16L170.921 222.9Z" fill="#E26D6D"/>
<path d="M173.706 222.023C174.199 221.27 173.379 219.859 171.873 218.872C170.367 217.885 168.747 217.695 168.253 218.448C167.76 219.201 168.58 220.611 170.086 221.598C171.591 222.586 173.212 222.776 173.706 222.023Z" fill="#FF7B7B"/>
<path d="M170.526 218.85C170.579 218.704 170.362 218.491 170.04 218.374C169.719 218.256 169.415 218.279 169.362 218.424C169.309 218.569 169.526 218.782 169.848 218.9C170.17 219.017 170.473 218.995 170.526 218.85Z" fill="#F4F6F9"/>
<path d="M114.511 231.3C115.241 224.96 111.711 215.5 111.711 215.5L114.401 214.59C114.401 214.59 118.311 225.08 121.831 228.86" fill="#FF7B7B"/>
<path d="M114.72 215.43C113.825 215.789 112.863 215.953 111.9 215.91L111.75 215.49L114.44 214.58L114.72 215.43Z" fill="#E26D6D"/>
<path d="M113.163 215.27C114.869 214.694 116.018 213.535 115.73 212.682C115.442 211.829 113.826 211.605 112.12 212.181C110.414 212.757 109.265 213.916 109.553 214.768C109.841 215.621 111.457 215.846 113.163 215.27Z" fill="#FF7B7B"/>
<path d="M110.918 213.777C111.209 213.596 111.378 213.343 111.297 213.212C111.215 213.081 110.913 213.121 110.622 213.301C110.332 213.482 110.162 213.735 110.243 213.866C110.325 213.998 110.627 213.958 110.918 213.777Z" fill="#F4F6F9"/>
<path d="M184.051 266.33C190.051 268.39 200.051 266.92 200.051 266.92L200.371 269.75C200.371 269.75 189.301 271.36 184.861 274" fill="#FF7B7B"/>
<path d="M199.53 269.89V269.84C199.37 268.888 199.414 267.913 199.66 266.98L200.1 266.92L200.42 269.75L199.53 269.89Z" fill="#E26D6D"/>
<path d="M201.982 271.46C202.876 271.358 203.436 269.826 203.233 268.037C203.029 266.248 202.139 264.88 201.245 264.982C200.35 265.084 199.79 266.616 199.993 268.405C200.197 270.194 201.087 271.562 201.982 271.46Z" fill="#FF7B7B"/>
<path d="M202.398 267.009C202.543 266.957 202.568 266.654 202.453 266.331C202.338 266.009 202.126 265.79 201.98 265.842C201.835 265.894 201.81 266.197 201.925 266.52C202.041 266.842 202.252 267.062 202.398 267.009Z" fill="#F4F6F9"/>
<path d="M185.179 277C190.649 280.3 200.719 281 200.719 281L200.429 283.83C200.429 283.83 189.269 283.05 184.369 284.68" fill="#FF7B7B"/>
<path d="M199.539 283.79C199.579 282.825 199.828 281.88 200.269 281.02H200.709L200.419 283.85L199.539 283.79Z" fill="#E26D6D"/>
<path d="M203.563 282.766C203.745 280.975 203.168 279.448 202.272 279.357C201.377 279.266 200.502 280.643 200.319 282.435C200.137 284.226 200.714 285.752 201.61 285.843C202.505 285.935 203.38 284.557 203.563 282.766Z" fill="#FF7B7B"/>
<path d="M203.188 280.65C203.341 280.63 203.43 280.338 203.385 279.999C203.34 279.66 203.18 279.402 203.027 279.422C202.874 279.442 202.786 279.733 202.831 280.072C202.875 280.411 203.035 280.67 203.188 280.65Z" fill="#F4F6F9"/>
<path d="M180.68 297.63C184.3 302.89 193.19 307.68 193.19 307.68L191.76 310.14C191.76 310.14 181.92 304.82 176.76 304.29" fill="#FF7B7B"/>
<path d="M191 309.72C191.439 308.857 192.056 308.097 192.81 307.49L193.2 307.71L191.77 310.17L191 309.72Z" fill="#E26D6D"/>
<path d="M195.064 310.432C195.969 308.876 196.072 307.247 195.293 306.795C194.515 306.342 193.151 307.237 192.246 308.794C191.341 310.35 191.238 311.979 192.017 312.431C192.795 312.884 194.159 311.989 195.064 310.432Z" fill="#FF7B7B"/>
<path d="M195.445 308.584C195.545 308.256 195.507 307.954 195.359 307.909C195.211 307.864 195.01 308.093 194.91 308.42C194.81 308.748 194.848 309.05 194.996 309.095C195.144 309.14 195.345 308.911 195.445 308.584Z" fill="#F4F6F9"/>
<path d="M180.539 254.44C187.919 255.09 198.779 250.67 198.779 250.67L199.929 253.77C199.929 253.77 187.929 258.65 183.609 262.85" fill="#FF7B7B"/>
<path d="M199.001 254.17C198.553 253.142 198.332 252.03 198.351 250.91L198.831 250.72L199.981 253.82L199.001 254.17Z" fill="#E26D6D"/>
<path d="M202.189 255.238C203.168 254.876 203.376 252.995 202.652 251.037C201.929 249.079 200.549 247.784 199.57 248.146C198.591 248.508 198.383 250.388 199.106 252.347C199.83 254.305 201.21 255.599 202.189 255.238Z" fill="#FF7B7B"/>
<path d="M201.41 250.103C201.558 250.006 201.5 249.658 201.28 249.326C201.061 248.994 200.764 248.804 200.617 248.902C200.469 248.999 200.527 249.347 200.746 249.679C200.966 250.011 201.263 250.201 201.41 250.103Z" fill="#F4F6F9"/>
<path d="M184.56 288C189.89 293.15 201.11 296.55 201.11 296.55L200.05 299.68C200.05 299.68 187.63 295.9 181.66 296.48" fill="#FF7B7B"/>
<path d="M199.061 299.36C199.364 298.278 199.893 297.273 200.611 296.41L201.101 296.57L200.041 299.7L199.061 299.36Z" fill="#E26D6D"/>
<path d="M203.878 299.262C204.548 297.284 204.289 295.41 203.3 295.075C202.311 294.741 200.967 296.072 200.298 298.05C199.629 300.027 199.887 301.902 200.876 302.236C201.865 302.571 203.209 301.239 203.878 299.262Z" fill="#FF7B7B"/>
<path d="M203.894 297.068C203.932 296.672 203.82 296.338 203.645 296.321C203.469 296.304 203.295 296.611 203.257 297.006C203.219 297.402 203.33 297.737 203.506 297.754C203.682 297.771 203.856 297.464 203.894 297.068Z" fill="#F4F6F9"/>
<path d="M165 317.81C165.62 325.19 171.81 335.15 171.81 335.15L168.95 336.8C168.95 336.8 162.1 325.8 157.23 322.27" fill="#FF7B7B"/>
<path d="M168.391 335.93C169.329 335.317 170.385 334.909 171.491 334.73L171.761 335.18L168.901 336.83L168.391 335.93Z" fill="#E26D6D"/>
<path d="M172.085 339.023C173.892 337.977 174.933 336.397 174.41 335.494C173.887 334.591 171.998 334.706 170.192 335.752C168.385 336.797 167.344 338.377 167.867 339.281C168.389 340.184 170.278 340.069 172.085 339.023Z" fill="#FF7B7B"/>
<path d="M173.537 337.369C173.827 337.097 173.964 336.772 173.842 336.643C173.721 336.514 173.388 336.631 173.099 336.903C172.809 337.176 172.672 337.501 172.793 337.63C172.915 337.758 173.247 337.642 173.537 337.369Z" fill="#F4F6F9"/>
<path d="M169.74 238.69C179 236 190.1 225.5 190.1 225.5L192.96 228.72C192.96 228.72 180.65 240.32 177.45 247.44" fill="#FF7B7B"/>
<path d="M192 229.66C190.974 228.621 190.18 227.377 189.67 226.01C189.67 226.01 190.16 225.55 190.16 225.55L193.02 228.77L192 229.66Z" fill="#E26D6D"/>
<path d="M196.397 229.437C197.414 228.536 196.775 226.153 194.969 224.115C193.164 222.077 190.876 221.156 189.859 222.057C188.842 222.958 189.481 225.34 191.287 227.378C193.092 229.416 195.381 230.338 196.397 229.437Z" fill="#FF7B7B"/>
<path d="M193.041 223.563C193.175 223.373 192.94 222.977 192.516 222.677C192.092 222.377 191.64 222.288 191.506 222.477C191.372 222.666 191.607 223.063 192.031 223.363C192.455 223.663 192.907 223.752 193.041 223.563Z" fill="#F4F6F9"/>
<path d="M178.249 305.15C182.349 313.89 194.429 323.22 194.429 323.22L191.689 326.54C191.689 326.54 178.319 316.18 170.789 314.12" fill="#FF7B7B"/>
<path d="M190.619 325.73V325.68C191.481 324.502 192.586 323.523 193.859 322.81C193.859 322.81 194.389 323.22 194.389 323.22L191.649 326.54L190.619 325.73Z" fill="#E26D6D"/>
<path d="M196.536 327.79C198.27 325.69 198.825 323.287 197.778 322.422C196.73 321.557 194.475 322.558 192.742 324.658C191.009 326.757 190.453 329.161 191.501 330.026C192.548 330.89 194.803 329.889 196.536 327.79Z" fill="#FF7B7B"/>
<path d="M197.565 325.2C197.795 324.735 197.814 324.275 197.606 324.172C197.398 324.069 197.043 324.362 196.812 324.827C196.581 325.292 196.563 325.753 196.771 325.856C196.979 325.959 197.334 325.665 197.565 325.2Z" fill="#F4F6F9"/>
<path d="M126.329 327.68C119.939 334.92 116.169 349.68 116.169 349.68L112.039 348.48C112.039 348.48 116.229 332.1 115.129 324.37" fill="#E26D6D"/>
<path d="M112.359 347.2H112.419C113.844 347.528 115.184 348.155 116.349 349.04L116.169 349.69L112.039 348.49L112.359 347.2Z" fill="#D16969"/>
<path d="M118.21 352.476C118.588 351.171 116.774 349.499 114.158 348.743C111.543 347.986 109.116 348.43 108.739 349.735C108.361 351.04 110.175 352.712 112.79 353.469C115.406 354.225 117.832 353.781 118.21 352.476Z" fill="#E26D6D"/>
<path d="M116.591 352.968C116.603 352.737 116.192 352.527 115.674 352.5C115.155 352.473 114.725 352.639 114.713 352.871C114.701 353.103 115.112 353.312 115.63 353.339C116.149 353.366 116.579 353.2 116.591 352.968Z" fill="#F4F6F9"/>
<path d="M90.5404 302.75C80.9004 302.49 67.1404 309.1 67.1404 309.1L65.4004 305.17C65.4004 305.17 80.6504 297.86 85.8704 292.06" fill="#E26D6D"/>
<path d="M66.6091 304.57V304.63C67.2693 305.933 67.6475 307.361 67.7191 308.82L67.1091 309.1L65.3691 305.17L66.6091 304.57Z" fill="#D16969"/>
<path d="M66.3386 312.431C67.5816 311.883 67.6981 309.419 66.5989 306.928C65.4997 304.437 63.601 302.862 62.3581 303.411C61.1151 303.959 60.9985 306.423 62.0977 308.914C63.1969 311.405 65.0956 312.98 66.3386 312.431Z" fill="#E26D6D"/>
<path d="M64.8805 311.549C65.0658 311.409 64.9628 310.96 64.6505 310.545C64.3383 310.131 63.9349 309.908 63.7496 310.047C63.5643 310.187 63.6672 310.636 63.9795 311.051C64.2918 311.465 64.6952 311.689 64.8805 311.549Z" fill="#F4F6F9"/>
<path d="M88.9199 254.06C83.7899 245.89 70.6699 238.06 70.6699 238.06L72.9999 234.47C72.9999 234.47 87.5299 243.13 95.2599 244.26" fill="#E26D6D"/>
<path d="M74.1492 235.14V235.2C73.4327 236.474 72.4505 237.579 71.2692 238.44L70.6992 238.09L72.9992 234.47L74.1492 235.14Z" fill="#D16969"/>
<path d="M72.1677 236.425C73.6338 234.131 73.8943 231.678 72.7495 230.946C71.6046 230.215 69.488 231.482 68.0219 233.776C66.5557 236.07 66.2953 238.523 67.4401 239.255C68.5849 239.986 70.7015 238.72 72.1677 236.425Z" fill="#E26D6D"/>
<path d="M68.1124 236.8C68.2848 236.31 68.2472 235.851 68.0284 235.774C67.8096 235.697 67.4925 236.031 67.32 236.521C67.1476 237.011 67.1852 237.47 67.404 237.547C67.6228 237.624 67.9399 237.29 68.1124 236.8Z" fill="#F4F6F9"/>
<path d="M101 240.19C99.3205 232.93 91.7305 223.92 91.7305 223.92L94.3305 221.92C94.3305 221.92 102.74 231.92 108.09 234.68" fill="#E26D6D"/>
<path d="M95.0506 222.65C94.2058 223.392 93.2143 223.947 92.1405 224.28L91.8105 223.88L94.4106 221.88L95.0506 222.65Z" fill="#D16969"/>
<path d="M93.2689 223.096C94.9159 221.795 95.7239 220.073 95.0735 219.25C94.4232 218.426 92.5608 218.813 90.9138 220.114C89.2668 221.414 88.4589 223.136 89.1092 223.96C89.7596 224.783 91.622 224.396 93.2689 223.096Z" fill="#E26D6D"/>
<path d="M90.221 222.35C90.4721 222.034 90.5635 221.69 90.4253 221.579C90.287 221.469 89.9714 221.636 89.7203 221.951C89.4692 222.267 89.3777 222.612 89.516 222.722C89.6543 222.832 89.9699 222.665 90.221 222.35Z" fill="#F4F6F9"/>
<path d="M85.9999 286.42C78.9999 284.01 67.2899 285.69 67.2899 285.69L66.9199 282.4C66.9199 282.4 79.7999 280.54 84.9999 277.47" fill="#E26D6D"/>
<path d="M67.9109 282.24V282.29C68.1007 283.401 68.0495 284.54 67.7609 285.63L67.2509 285.69L66.8809 282.4L67.9109 282.24Z" fill="#D16969"/>
<path d="M65.8851 287.953C66.9279 287.837 67.5843 286.051 67.3511 283.966C67.1179 281.88 66.0834 280.284 65.0406 280.4C63.9977 280.517 63.3414 282.302 63.5746 284.388C63.8078 286.473 64.8423 288.07 65.8851 287.953Z" fill="#E26D6D"/>
<path d="M65.0167 286.983C65.1832 286.924 65.2089 286.568 65.0739 286.188C64.939 285.808 64.6947 285.548 64.5281 285.607C64.3616 285.666 64.3359 286.022 64.4708 286.402C64.6058 286.782 64.8501 287.042 65.0167 286.983Z" fill="#F4F6F9"/>
<path d="M111.531 321.08C105.211 325.03 99.1709 335.14 99.1709 335.14L96.3809 333.35C96.3809 333.35 103.091 322.15 103.971 316.19" fill="#E26D6D"/>
<path d="M96.8998 332.45C97.8822 333.003 98.7347 333.76 99.3998 334.67L99.1298 335.11L96.3398 333.32L96.8998 332.45Z" fill="#D16969"/>
<path d="M99.5389 337.664C100.106 336.783 99.1358 335.15 97.3729 334.016C95.61 332.883 93.7216 332.679 93.1549 333.56C92.5883 334.442 93.558 336.075 95.3209 337.208C97.0838 338.342 98.9723 338.546 99.5389 337.664Z" fill="#E26D6D"/>
<path d="M98.7642 337.676C98.8233 337.51 98.5632 337.265 98.1832 337.131C97.8032 336.996 97.4473 337.022 97.3882 337.188C97.3291 337.355 97.5893 337.599 97.9693 337.734C98.3492 337.869 98.7051 337.843 98.7642 337.676Z" fill="#F4F6F9"/>
<path d="M147.999 324.83C146.649 330.68 148.999 339.88 148.999 339.88L146.379 340.45C146.379 340.45 143.829 330.25 140.939 326.35" fill="#E26D6D"/>
<path d="M146.119 339.64C146.994 339.395 147.911 339.34 148.809 339.48L148.909 339.89L146.289 340.46C146.289 340.46 146.219 340 146.119 339.64Z" fill="#D16969"/>
<path d="M148.186 342.952C149.837 342.593 151.03 341.632 150.85 340.806C150.67 339.98 149.186 339.603 147.535 339.962C145.884 340.322 144.691 341.283 144.871 342.109C145.05 342.934 146.535 343.312 148.186 342.952Z" fill="#E26D6D"/>
<path d="M149.727 342.043C150.021 341.903 150.21 341.684 150.148 341.554C150.086 341.425 149.798 341.433 149.503 341.573C149.209 341.714 149.021 341.932 149.083 342.062C149.144 342.191 149.433 342.183 149.727 342.043Z" fill="#F4F6F9"/>
<path d="M139.85 326.77C136.77 333.55 137.31 345.32 137.31 345.32L133.99 345.37C133.99 345.37 133.4 332.37 130.85 326.87" fill="#E26D6D"/>
<path d="M133.93 344.33C135.054 344.247 136.183 344.407 137.24 344.8V345.32L133.92 345.37C133.92 345.37 134 344.79 133.93 344.33Z" fill="#D16969"/>
<path d="M135.668 348.858C137.766 348.828 139.455 347.953 139.441 346.904C139.426 345.855 137.713 345.028 135.614 345.058C133.516 345.088 131.826 345.962 131.841 347.012C131.856 348.061 133.569 348.887 135.668 348.858Z" fill="#E26D6D"/>
<path d="M137.76 348.113C138.151 348.016 138.433 347.798 138.391 347.627C138.348 347.455 137.996 347.395 137.605 347.492C137.214 347.59 136.931 347.808 136.974 347.979C137.017 348.151 137.368 348.211 137.76 348.113Z" fill="#F4F6F9"/>
<path d="M84.6991 266.8C79.9191 263.25 70.6191 261.71 70.6191 261.71L71.1391 259.11C71.1391 259.11 81.4391 260.83 86.1391 259.74" fill="#E26D6D"/>
<path d="M71.9999 259.23C71.8816 260.124 71.5675 260.981 71.0799 261.74L70.6699 261.67L71.1899 259.07L71.9999 259.23Z" fill="#D16969"/>
<path d="M71.1009 260.415C71.429 258.769 71.0276 257.301 70.2043 257.137C69.381 256.973 68.4476 258.175 68.1195 259.821C67.7914 261.468 68.1928 262.936 69.0161 263.1C69.8394 263.264 70.7728 262.062 71.1009 260.415Z" fill="#E26D6D"/>
<path d="M68.6384 262.138C68.7819 262.133 68.8896 261.869 68.8789 261.549C68.8682 261.229 68.7432 260.973 68.5997 260.978C68.4562 260.983 68.3485 261.246 68.3592 261.566C68.3699 261.887 68.4948 262.142 68.6384 262.138Z" fill="#F4F6F9"/>
<path d="M101.591 313.15C95.4905 315.15 88.3105 322.27 88.3105 322.27L86.3105 320.18C86.3105 320.18 94.3105 312.26 96.3105 307.48" fill="#E26D6D"/>
<path d="M87.0005 319.54C87.7169 320.231 88.2733 321.071 88.6305 322L88.3105 322.32L86.3105 320.23C86.3105 320.23 86.7205 319.83 87.0005 319.54Z" fill="#D16969"/>
<path d="M88.5326 324.542C89.1941 323.924 88.7301 322.353 87.4964 321.034C86.2626 319.715 84.7263 319.148 84.0648 319.766C83.4034 320.385 83.8673 321.956 85.1011 323.275C86.3348 324.594 87.8712 325.161 88.5326 324.542Z" fill="#E26D6D"/>
<path d="M87.4309 324.278C87.5167 324.149 87.3555 323.891 87.0707 323.701C86.7859 323.511 86.4855 323.461 86.3996 323.589C86.3137 323.718 86.475 323.976 86.7598 324.167C87.0445 324.357 87.345 324.407 87.4309 324.278Z" fill="#F4F6F9"/>
<path d="M218.95 178.66C233.961 178.66 246.13 166.491 246.13 151.48C246.13 136.469 233.961 124.3 218.95 124.3C203.938 124.3 191.77 136.469 191.77 151.48C191.77 166.491 203.938 178.66 218.95 178.66Z" fill="#FF7B7B"/>
<path d="M229.479 176.48C222.989 179.302 215.655 179.482 209.034 176.983C202.414 174.484 197.028 169.501 194.022 163.095C191.016 156.688 190.626 149.362 192.936 142.673C195.245 135.983 200.071 130.458 206.389 127.27C202.496 131.439 199.905 136.654 198.935 142.275C197.966 147.896 198.66 153.678 200.932 158.91C203.204 164.142 206.956 168.596 211.726 171.725C216.495 174.853 222.075 176.52 227.779 176.52C228.349 176.52 228.919 176.51 229.479 176.48Z" fill="#E26D6D"/>
<path d="M226.519 137.29C227.939 137.29 229.089 136.139 229.089 134.72C229.089 133.301 227.939 132.15 226.519 132.15C225.1 132.15 223.949 133.301 223.949 134.72C223.949 136.139 225.1 137.29 226.519 137.29Z" fill="#E26D6D"/>
<path d="M203.25 138.92C204.669 138.92 205.82 137.769 205.82 136.35C205.82 134.93 204.669 133.78 203.25 133.78C201.83 133.78 200.68 134.93 200.68 136.35C200.68 137.769 201.83 138.92 203.25 138.92Z" fill="#F4F6F9"/>
<path d="M212.44 136.65C213.506 136.65 214.37 135.786 214.37 134.72C214.37 133.654 213.506 132.79 212.44 132.79C211.374 132.79 210.51 133.654 210.51 134.72C210.51 135.786 211.374 136.65 212.44 136.65Z" fill="#F4F6F9"/>
<path d="M215.97 152.89C218.351 152.89 220.28 150.96 220.28 148.58C220.28 146.2 218.351 144.27 215.97 144.27C213.59 144.27 211.66 146.2 211.66 148.58C211.66 150.96 213.59 152.89 215.97 152.89Z" fill="#E26D6D"/>
<path d="M201.499 161.47C203.88 161.47 205.809 159.54 205.809 157.16C205.809 154.779 203.88 152.85 201.499 152.85C199.119 152.85 197.189 154.779 197.189 157.16C197.189 159.54 199.119 161.47 201.499 161.47Z" fill="#F4F6F9"/>
<path d="M221.48 168.23C223.86 168.23 225.79 166.3 225.79 163.92C225.79 161.54 223.86 159.61 221.48 159.61C219.1 159.61 217.17 161.54 217.17 163.92C217.17 166.3 219.1 168.23 221.48 168.23Z" fill="#E26D6D"/>
<path d="M235.211 163.92C236.63 163.92 237.781 162.769 237.781 161.35C237.781 159.93 236.63 158.78 235.211 158.78C233.791 158.78 232.641 159.93 232.641 161.35C232.641 162.769 233.791 163.92 235.211 163.92Z" fill="#D16969"/>
<path d="M208.401 171.45C209.467 171.45 210.331 170.586 210.331 169.52C210.331 168.454 209.467 167.59 208.401 167.59C207.335 167.59 206.471 168.454 206.471 169.52C206.471 170.586 207.335 171.45 208.401 171.45Z" fill="#D16969"/>
<path d="M202.26 149.63C203.326 149.63 204.19 148.766 204.19 147.7C204.19 146.634 203.326 145.77 202.26 145.77C201.194 145.77 200.33 146.634 200.33 147.7C200.33 148.766 201.194 149.63 202.26 149.63Z" fill="#D16969"/>
<path d="M232.64 148.38C234.06 148.38 235.21 147.229 235.21 145.81C235.21 144.39 234.06 143.24 232.64 143.24C231.221 143.24 230.07 144.39 230.07 145.81C230.07 147.229 231.221 148.38 232.64 148.38Z" fill="#D16969"/>
<path d="M216 124.46C218.17 119.86 217.91 111.81 217.91 111.81H220.18C220.18 111.81 220.46 120.73 222.18 124.48" fill="#FF7B7B"/>
<path d="M220.18 112.52C219.41 112.564 218.64 112.445 217.92 112.17C217.92 112.17 217.92 111.81 217.92 111.81H220.19C220.19 111.81 220.17 112.21 220.18 112.52Z" fill="#E26D6D"/>
<path d="M219.039 112.01C220.475 112.01 221.639 111.428 221.639 110.71C221.639 109.992 220.475 109.41 219.039 109.41C217.604 109.41 216.439 109.992 216.439 110.71C216.439 111.428 217.604 112.01 219.039 112.01Z" fill="#FF7B7B"/>
<path d="M217.72 110.303C217.989 110.24 218.184 110.093 218.157 109.974C218.129 109.856 217.889 109.811 217.62 109.874C217.351 109.937 217.155 110.084 217.183 110.202C217.211 110.321 217.451 110.366 217.72 110.303Z" fill="#F4F6F9"/>
<path d="M225.301 125.54C228.071 122.78 229.981 116.9 229.981 116.9L231.621 117.49C231.621 117.49 229.501 124 229.741 127.16" fill="#FF7B7B"/>
<path d="M231.45 118C230.883 117.833 230.358 117.546 229.91 117.16L230 116.9L231.64 117.49C231.64 117.49 231.52 117.78 231.45 118Z" fill="#E26D6D"/>
<path d="M232.973 117.072C233.16 116.552 232.47 115.828 231.431 115.453C230.391 115.079 229.397 115.197 229.21 115.716C229.023 116.236 229.714 116.961 230.753 117.335C231.792 117.709 232.786 117.592 232.973 117.072Z" fill="#FF7B7B"/>
<path d="M230.64 115.642C230.651 115.548 230.49 115.453 230.282 115.429C230.073 115.405 229.896 115.461 229.885 115.554C229.874 115.647 230.034 115.742 230.243 115.767C230.451 115.791 230.629 115.735 230.64 115.642Z" fill="#F4F6F9"/>
<path d="M231.16 128.09C234.03 126.33 236.8 121.78 236.8 121.78L238.06 122.6C238.06 122.6 234.98 127.6 234.55 130.33" fill="#FF7B7B"/>
<path d="M237.819 123C237.38 122.748 236.999 122.408 236.699 122L236.819 121.8L238.079 122.62L237.819 123Z" fill="#E26D6D"/>
<path d="M239.294 122.539C239.554 122.142 239.121 121.398 238.327 120.877C237.532 120.356 236.677 120.256 236.417 120.653C236.156 121.05 236.589 121.794 237.384 122.315C238.178 122.836 239.033 122.936 239.294 122.539Z" fill="#FF7B7B"/>
<path d="M237.625 120.875C237.653 120.797 237.537 120.683 237.366 120.621C237.195 120.558 237.033 120.57 237.005 120.648C236.976 120.726 237.092 120.84 237.263 120.902C237.434 120.965 237.596 120.952 237.625 120.875Z" fill="#F4F6F9"/>
<path d="M208.07 127.44C208.45 124.1 206.59 119.11 206.59 119.11L208.01 118.63C208.01 118.63 210.07 124.16 211.93 126.15" fill="#FF7B7B"/>
<path d="M208.179 119.07C207.707 119.263 207.199 119.351 206.689 119.33L206.609 119.11L208.029 118.63L208.179 119.07Z" fill="#E26D6D"/>
<path d="M207.358 118.987C208.258 118.684 208.864 118.072 208.712 117.622C208.56 117.172 207.707 117.054 206.807 117.358C205.907 117.662 205.301 118.273 205.453 118.723C205.605 119.173 206.458 119.291 207.358 118.987Z" fill="#FF7B7B"/>
<path d="M206.171 118.196C206.326 118.1 206.416 117.965 206.372 117.895C206.329 117.825 206.168 117.845 206.013 117.942C205.858 118.038 205.768 118.173 205.812 118.243C205.855 118.314 206.016 118.293 206.171 118.196Z" fill="#F4F6F9"/>
<path d="M244.74 145.91C247.93 147 253.2 146.23 253.2 146.23L253.37 147.72C253.37 147.72 247.53 148.57 245.19 149.96" fill="#FF7B7B"/>
<path d="M252.91 147.79C252.824 147.287 252.848 146.772 252.98 146.28H253.21L253.38 147.77L252.91 147.79Z" fill="#E26D6D"/>
<path d="M254.202 148.637C254.674 148.583 254.97 147.774 254.862 146.83C254.755 145.887 254.285 145.165 253.813 145.219C253.342 145.272 253.046 146.081 253.153 147.025C253.261 147.969 253.73 148.69 254.202 148.637Z" fill="#FF7B7B"/>
<path d="M254.422 146.272C254.5 146.244 254.514 146.083 254.452 145.911C254.391 145.739 254.278 145.623 254.2 145.651C254.122 145.679 254.108 145.84 254.17 146.012C254.231 146.184 254.344 146.3 254.422 146.272Z" fill="#F4F6F9"/>
<path d="M245.34 151.55C248.22 153.29 253.54 153.66 253.54 153.66L253.38 155.15C253.38 155.15 247.5 154.73 244.91 155.59" fill="#FF7B7B"/>
<path d="M252.91 155.12C252.93 154.611 253.059 154.113 253.29 153.66H253.53L253.37 155.15L252.91 155.12Z" fill="#E26D6D"/>
<path d="M255.036 154.586C255.133 153.641 254.828 152.835 254.355 152.787C253.883 152.739 253.422 153.466 253.325 154.411C253.229 155.356 253.533 156.161 254.006 156.209C254.478 156.258 254.94 155.531 255.036 154.586Z" fill="#FF7B7B"/>
<path d="M254.723 153.943C254.806 153.933 254.853 153.778 254.83 153.597C254.807 153.416 254.721 153.278 254.639 153.289C254.557 153.3 254.509 153.455 254.532 153.635C254.556 153.816 254.641 153.954 254.723 153.943Z" fill="#F4F6F9"/>
<path d="M242.999 162.42C244.909 165.19 249.589 167.72 249.589 167.72L248.839 169.02C248.839 169.02 243.649 166.21 240.939 165.93" fill="#FF7B7B"/>
<path d="M248.391 168.8C248.629 168.338 248.972 167.938 249.391 167.63L249.591 167.74L248.841 169.04L248.391 168.8Z" fill="#E26D6D"/>
<path d="M250.551 169.17C251.028 168.349 251.082 167.489 250.672 167.251C250.261 167.012 249.541 167.484 249.064 168.305C248.586 169.127 248.532 169.986 248.943 170.225C249.353 170.463 250.073 169.991 250.551 169.17Z" fill="#FF7B7B"/>
<path d="M250.743 168.201C250.796 168.027 250.775 167.866 250.696 167.842C250.616 167.818 250.509 167.939 250.456 168.114C250.403 168.288 250.424 168.449 250.503 168.473C250.582 168.497 250.689 168.376 250.743 168.201Z" fill="#F4F6F9"/>
<path d="M242.891 139.64C246.781 139.98 252.511 137.64 252.511 137.64L253.121 139.27C253.121 139.27 246.771 141.84 244.511 144.06" fill="#FF7B7B"/>
<path d="M252.61 139.5C252.375 138.954 252.259 138.364 252.27 137.77L252.52 137.68L253.13 139.31L252.61 139.5Z" fill="#E26D6D"/>
<path d="M254.314 140.062C254.832 139.871 254.942 138.876 254.559 137.84C254.177 136.803 253.446 136.118 252.928 136.31C252.41 136.501 252.3 137.496 252.683 138.532C253.066 139.569 253.796 140.253 254.314 140.062Z" fill="#FF7B7B"/>
<path d="M253.903 137.35C253.981 137.299 253.951 137.115 253.835 136.94C253.719 136.765 253.562 136.665 253.484 136.716C253.405 136.768 253.436 136.952 253.551 137.127C253.667 137.302 253.824 137.402 253.903 137.35Z" fill="#F4F6F9"/>
<path d="M245.001 157.33C247.811 160.05 253.731 161.84 253.731 161.84L253.171 163.49C253.171 163.49 246.621 161.49 243.471 161.8" fill="#FF7B7B"/>
<path d="M252.66 163.34C252.813 162.77 253.089 162.241 253.47 161.79L253.73 161.87L253.17 163.52L252.66 163.34Z" fill="#E26D6D"/>
<path d="M255.213 163.28C255.568 162.234 255.431 161.242 254.907 161.065C254.384 160.888 253.673 161.593 253.319 162.639C252.965 163.685 253.102 164.677 253.625 164.854C254.148 165.031 254.859 164.326 255.213 163.28Z" fill="#FF7B7B"/>
<path d="M255.211 162.123C255.231 161.914 255.172 161.737 255.078 161.728C254.985 161.719 254.893 161.881 254.872 162.09C254.852 162.299 254.912 162.476 255.005 162.485C255.099 162.494 255.191 162.332 255.211 162.123Z" fill="#F4F6F9"/>
<path d="M234.69 173.06C235.02 176.96 238.28 182.21 238.28 182.21L236.78 183.08C236.78 183.08 233.16 177.26 230.59 175.42" fill="#FF7B7B"/>
<path d="M236.48 182.62C236.972 182.292 237.527 182.074 238.11 181.98L238.25 182.22L236.75 183.09L236.48 182.62Z" fill="#E26D6D"/>
<path d="M238.44 184.254C239.396 183.701 239.947 182.865 239.67 182.387C239.393 181.909 238.394 181.97 237.438 182.523C236.482 183.076 235.931 183.912 236.208 184.39C236.485 184.868 237.484 184.807 238.44 184.254Z" fill="#FF7B7B"/>
<path d="M239.197 183.384C239.35 183.24 239.422 183.068 239.358 183C239.293 182.931 239.117 182.992 238.964 183.136C238.811 183.28 238.74 183.452 238.804 183.52C238.868 183.589 239.044 183.528 239.197 183.384Z" fill="#F4F6F9"/>
<path d="M237.199 131.33C242.079 129.91 247.939 124.33 247.939 124.33L249.439 126.03C249.439 126.03 242.999 132.2 241.259 136" fill="#FF7B7B"/>
<path d="M248.929 126.57C248.384 126.026 247.961 125.371 247.689 124.65L247.959 124.41L249.459 126.11L248.929 126.57Z" fill="#E26D6D"/>
<path d="M251.25 126.454C251.787 125.978 251.451 124.721 250.498 123.646C249.546 122.571 248.339 122.086 247.801 122.562C247.264 123.038 247.6 124.296 248.552 125.37C249.505 126.445 250.712 126.931 251.25 126.454Z" fill="#FF7B7B"/>
<path d="M249.482 123.358C249.553 123.259 249.427 123.05 249.201 122.89C248.976 122.731 248.736 122.682 248.666 122.781C248.596 122.88 248.722 123.09 248.947 123.249C249.173 123.409 249.412 123.458 249.482 123.358Z" fill="#F4F6F9"/>
<path d="M241.679 166.39C243.849 171 250.219 175.92 250.219 175.92L248.779 177.67C248.779 177.67 241.719 172.21 237.779 171.12" fill="#FF7B7B"/>
<path d="M248.211 177.24C248.665 176.619 249.249 176.104 249.921 175.73L250.201 175.95L248.761 177.7L248.211 177.24Z" fill="#E26D6D"/>
<path d="M251.326 178.33C252.24 177.222 252.533 175.954 251.979 175.497C251.425 175.04 250.235 175.567 249.321 176.675C248.407 177.782 248.115 179.05 248.669 179.507C249.222 179.964 250.412 179.437 251.326 178.33Z" fill="#FF7B7B"/>
<path d="M251.888 176.966C252.01 176.719 252.022 176.474 251.913 176.421C251.804 176.367 251.616 176.523 251.494 176.771C251.371 177.018 251.36 177.262 251.469 177.316C251.577 177.37 251.765 177.214 251.888 176.966Z" fill="#F4F6F9"/>
<path d="M214.3 178.27C210.93 182.09 208.94 189.89 208.94 189.89L206.76 189.26C206.76 189.26 208.98 180.62 208.39 176.54" fill="#E26D6D"/>
<path d="M206.931 188.57C207.684 188.752 208.389 189.093 209.001 189.57L208.901 189.92L206.721 189.29C206.721 189.29 206.861 188.87 206.931 188.57Z" fill="#D16969"/>
<path d="M210.013 191.341C210.212 190.652 209.256 189.769 207.877 189.37C206.497 188.971 205.217 189.206 205.018 189.896C204.818 190.585 205.774 191.468 207.154 191.867C208.533 192.266 209.813 192.031 210.013 191.341Z" fill="#E26D6D"/>
<path d="M209.158 191.607C209.165 191.486 208.946 191.376 208.67 191.362C208.395 191.348 208.166 191.434 208.16 191.556C208.154 191.677 208.372 191.787 208.648 191.801C208.924 191.815 209.152 191.729 209.158 191.607Z" fill="#F4F6F9"/>
<path d="M195.43 165.12C190.34 164.99 183.08 168.47 183.08 168.47L182.17 166.4C182.17 166.4 190.17 162.54 192.96 159.48" fill="#E26D6D"/>
<path d="M182.8 166.08C183.146 166.768 183.344 167.521 183.38 168.29L183.06 168.44L182.15 166.37L182.8 166.08Z" fill="#D16969"/>
<path d="M181.14 170.058C181.793 169.771 181.857 168.479 181.283 167.172C180.709 165.865 179.713 165.039 179.06 165.326C178.407 165.613 178.343 166.905 178.917 168.212C179.491 169.519 180.487 170.345 181.14 170.058Z" fill="#E26D6D"/>
<path d="M181.896 169.773C181.993 169.7 181.938 169.462 181.771 169.241C181.605 169.021 181.392 168.901 181.295 168.974C181.198 169.047 181.254 169.285 181.42 169.506C181.586 169.726 181.799 169.846 181.896 169.773Z" fill="#F4F6F9"/>
<path d="M194.57 139.44C191.87 135.13 185 131 185 131L186.22 129.09C186.22 129.09 193.88 133.65 197.95 134.25" fill="#E26D6D"/>
<path d="M186.78 129.46C186.408 130.134 185.893 130.717 185.27 131.17L185 131L186.22 129.09L186.78 129.46Z" fill="#D16969"/>
<path d="M185.739 130.14C186.513 128.93 186.649 127.636 186.044 127.249C185.439 126.863 184.322 127.53 183.548 128.74C182.775 129.95 182.639 131.245 183.244 131.631C183.849 132.018 184.966 131.35 185.739 130.14Z" fill="#E26D6D"/>
<path d="M183.587 130.336C183.679 130.076 183.66 129.832 183.546 129.791C183.431 129.751 183.264 129.93 183.172 130.19C183.08 130.45 183.099 130.694 183.213 130.735C183.328 130.775 183.495 130.597 183.587 130.336Z" fill="#F4F6F9"/>
<path d="M200.999 132.13C200.119 128.3 196.109 123.55 196.109 123.55L197.489 122.46C197.489 122.46 201.919 127.73 204.739 129.19" fill="#E26D6D"/>
<path d="M197.8 122.88C197.358 123.276 196.836 123.572 196.27 123.75L196.09 123.54L197.47 122.45L197.8 122.88Z" fill="#D16969"/>
<path d="M196.864 123.107C197.735 122.419 198.164 121.51 197.821 121.076C197.479 120.643 196.495 120.849 195.624 121.537C194.753 122.225 194.324 123.135 194.667 123.568C195.009 124.001 195.993 123.795 196.864 123.107Z" fill="#E26D6D"/>
<path d="M195.257 122.708C195.387 122.544 195.434 122.363 195.36 122.305C195.287 122.246 195.121 122.332 194.991 122.496C194.86 122.66 194.813 122.841 194.887 122.899C194.96 122.958 195.126 122.872 195.257 122.708Z" fill="#F4F6F9"/>
<path d="M192.999 156.51C189.279 155.24 183.129 156.13 183.129 156.13L182.939 154.39C182.939 154.39 189.749 153.39 192.489 151.79" fill="#E26D6D"/>
<path d="M183.489 154.3C183.588 154.886 183.56 155.485 183.409 156.06H183.139L182.949 154.32L183.489 154.3Z" fill="#D16969"/>
<path d="M182.425 157.31C182.974 157.249 183.319 156.305 183.195 155.202C183.072 154.098 182.527 153.254 181.978 153.315C181.429 153.377 181.084 154.321 181.208 155.424C181.331 156.527 181.876 157.372 182.425 157.31Z" fill="#E26D6D"/>
<path d="M181.959 156.811C182.048 156.779 182.063 156.593 181.992 156.396C181.922 156.198 181.794 156.063 181.705 156.094C181.617 156.126 181.602 156.312 181.672 156.509C181.742 156.707 181.871 156.842 181.959 156.811Z" fill="#F4F6F9"/>
<path d="M206.5 174.79C203.16 176.87 199.98 182.21 199.98 182.21L198.5 181.21C198.5 181.21 202.04 175.3 202.5 172.21" fill="#E26D6D"/>
<path d="M198.78 180.79C199.297 181.084 199.747 181.482 200.1 181.96L199.96 182.2L198.48 181.2L198.78 180.79Z" fill="#D16969"/>
<path d="M200.456 183.544C200.755 183.08 200.239 182.217 199.305 181.617C198.371 181.017 197.372 180.907 197.074 181.372C196.775 181.837 197.29 182.7 198.224 183.3C199.159 183.899 200.158 184.009 200.456 183.544Z" fill="#E26D6D"/>
<path d="M199.765 183.543C199.797 183.455 199.662 183.326 199.464 183.256C199.266 183.186 199.08 183.201 199.049 183.289C199.018 183.377 199.153 183.506 199.35 183.576C199.548 183.646 199.734 183.632 199.765 183.543Z" fill="#F4F6F9"/>
<path d="M225.72 176.77C225.01 179.85 226.23 184.7 226.23 184.7L224.85 185C224.85 185 223.5 179.62 221.98 177.57" fill="#E26D6D"/>
<path d="M224.74 184.57C225.202 184.437 225.687 184.41 226.16 184.49V184.7L224.78 185L224.74 184.57Z" fill="#D16969"/>
<path d="M225.832 186.344C226.706 186.153 227.338 185.644 227.242 185.207C227.147 184.77 226.361 184.57 225.487 184.761C224.613 184.951 223.981 185.46 224.077 185.897C224.172 186.334 224.958 186.534 225.832 186.344Z" fill="#E26D6D"/>
<path d="M226.631 185.849C226.785 185.775 226.884 185.659 226.85 185.589C226.817 185.519 226.665 185.523 226.51 185.596C226.356 185.67 226.257 185.786 226.291 185.856C226.324 185.926 226.476 185.923 226.631 185.849Z" fill="#F4F6F9"/>
<path d="M221.43 177.79C219.8 181.36 220.09 187.57 220.09 187.57H218.34C218.34 187.57 218.03 180.69 216.68 177.81" fill="#E26D6D"/>
<path d="M218.311 187.05C218.902 187.008 219.495 187.093 220.051 187.3C220.056 187.39 220.056 187.48 220.051 187.57H218.301C218.301 187.57 218.331 187.29 218.311 187.05Z" fill="#D16969"/>
<path d="M219.235 189.432C220.345 189.416 221.239 188.956 221.231 188.404C221.223 187.851 220.317 187.416 219.207 187.432C218.097 187.448 217.204 187.908 217.211 188.46C217.219 189.013 218.125 189.448 219.235 189.432Z" fill="#E26D6D"/>
<path d="M220.322 189.031C220.526 188.98 220.672 188.865 220.65 188.774C220.627 188.683 220.443 188.65 220.24 188.701C220.036 188.752 219.889 188.867 219.912 188.958C219.935 189.049 220.118 189.082 220.322 189.031Z" fill="#F4F6F9"/>
<path d="M192.35 146.16C189.82 144.29 184.92 143.48 184.92 143.48L185.19 142.1C185.19 142.1 190.63 143.01 193.1 142.44" fill="#E26D6D"/>
<path d="M185.63 142.17C185.566 142.642 185.402 143.095 185.15 143.5H184.93L185.2 142.12L185.63 142.17Z" fill="#D16969"/>
<path d="M185.169 142.798C185.342 141.932 185.13 141.159 184.697 141.073C184.264 140.986 183.772 141.619 183.6 142.486C183.427 143.352 183.638 144.125 184.072 144.211C184.505 144.297 184.996 143.665 185.169 142.798Z" fill="#E26D6D"/>
<path d="M183.877 143.702C183.955 143.699 184.013 143.559 184.007 143.387C184.001 143.216 183.934 143.08 183.857 143.082C183.779 143.085 183.721 143.226 183.727 143.397C183.733 143.568 183.8 143.704 183.877 143.702Z" fill="#F4F6F9"/>
<path d="M201.25 170.61C198.03 171.61 194.25 175.41 194.25 175.41L193.25 174.31C193.25 174.31 197.45 170.14 198.5 167.61" fill="#E26D6D"/>
<path d="M193.55 174C193.916 174.358 194.205 174.787 194.4 175.26L194.23 175.42L193.23 174.32L193.55 174Z" fill="#D16969"/>
<path d="M194.369 176.614C194.716 176.289 194.471 175.464 193.822 174.77C193.173 174.076 192.366 173.777 192.019 174.101C191.672 174.426 191.917 175.251 192.566 175.945C193.215 176.639 194.022 176.938 194.369 176.614Z" fill="#E26D6D"/>
<path d="M193.786 176.47C193.832 176.401 193.747 176.263 193.595 176.162C193.444 176.061 193.284 176.034 193.238 176.103C193.192 176.172 193.277 176.31 193.429 176.411C193.58 176.512 193.74 176.539 193.786 176.47Z" fill="#F4F6F9"/>
<path d="M268.33 292.52C283.341 292.52 295.51 280.351 295.51 265.34C295.51 250.329 283.341 238.16 268.33 238.16C253.319 238.16 241.15 250.329 241.15 265.34C241.15 280.351 253.319 292.52 268.33 292.52Z" fill="#FF7B7B"/>
<path d="M278.871 290.33C272.386 293.129 265.067 293.294 258.462 290.792C251.858 288.289 246.486 283.315 243.484 276.922C240.482 270.528 240.086 263.218 242.379 256.538C244.673 249.857 249.475 244.332 255.771 241.13C251.877 245.298 249.286 250.514 248.317 256.135C247.347 261.756 248.041 267.538 250.314 272.77C252.586 278.002 256.338 282.456 261.107 285.585C265.877 288.713 271.457 290.38 277.161 290.38C277.731 290.38 278.301 290.36 278.871 290.33Z" fill="#E26D6D"/>
<path d="M275.91 251.15C277.329 251.15 278.48 249.999 278.48 248.58C278.48 247.16 277.329 246.01 275.91 246.01C274.49 246.01 273.34 247.16 273.34 248.58C273.34 249.999 274.49 251.15 275.91 251.15Z" fill="#E26D6D"/>
<path d="M252.631 252.77C254.05 252.77 255.201 251.619 255.201 250.2C255.201 248.781 254.05 247.63 252.631 247.63C251.211 247.63 250.061 248.781 250.061 250.2C250.061 251.619 251.211 252.77 252.631 252.77Z" fill="#F4F6F9"/>
<path d="M261.83 250.51C262.896 250.51 263.76 249.646 263.76 248.58C263.76 247.514 262.896 246.65 261.83 246.65C260.764 246.65 259.9 247.514 259.9 248.58C259.9 249.646 260.764 250.51 261.83 250.51Z" fill="#F4F6F9"/>
<path d="M265.349 266.75C267.729 266.75 269.659 264.82 269.659 262.44C269.659 260.06 267.729 258.13 265.349 258.13C262.969 258.13 261.039 260.06 261.039 262.44C261.039 264.82 262.969 266.75 265.349 266.75Z" fill="#E26D6D"/>
<path d="M250.88 275.32C253.261 275.32 255.19 273.39 255.19 271.01C255.19 268.629 253.261 266.7 250.88 266.7C248.5 266.7 246.57 268.629 246.57 271.01C246.57 273.39 248.5 275.32 250.88 275.32Z" fill="#F4F6F9"/>
<path d="M270.861 282.09C273.241 282.09 275.171 280.16 275.171 277.78C275.171 275.399 273.241 273.47 270.861 273.47C268.48 273.47 266.551 275.399 266.551 277.78C266.551 280.16 268.48 282.09 270.861 282.09Z" fill="#E26D6D"/>
<path d="M284.59 277.78C286.009 277.78 287.16 276.629 287.16 275.21C287.16 273.79 286.009 272.64 284.59 272.64C283.17 272.64 282.02 273.79 282.02 275.21C282.02 276.629 283.17 277.78 284.59 277.78Z" fill="#D16969"/>
<path d="M257.78 285.31C258.846 285.31 259.71 284.446 259.71 283.38C259.71 282.314 258.846 281.45 257.78 281.45C256.714 281.45 255.85 282.314 255.85 283.38C255.85 284.446 256.714 285.31 257.78 285.31Z" fill="#D16969"/>
<path d="M251.651 263.49C252.717 263.49 253.581 262.626 253.581 261.56C253.581 260.494 252.717 259.63 251.651 259.63C250.585 259.63 249.721 260.494 249.721 261.56C249.721 262.626 250.585 263.49 251.651 263.49Z" fill="#D16969"/>
<path d="M282.019 262.24C283.439 262.24 284.589 261.089 284.589 259.67C284.589 258.25 283.439 257.1 282.019 257.1C280.6 257.1 279.449 258.25 279.449 259.67C279.449 261.089 280.6 262.24 282.019 262.24Z" fill="#D16969"/>
<path d="M265.35 238.32C267.52 233.72 267.26 225.67 267.26 225.67H269.53C269.53 225.67 269.81 234.58 271.53 238.34" fill="#FF7B7B"/>
<path d="M269.561 226.38C268.79 226.426 268.019 226.303 267.301 226.02V225.67H269.571C269.571 225.67 269.551 226.07 269.561 226.38Z" fill="#E26D6D"/>
<path d="M268.43 225.87C269.866 225.87 271.03 225.288 271.03 224.57C271.03 223.852 269.866 223.27 268.43 223.27C266.994 223.27 265.83 223.852 265.83 224.57C265.83 225.288 266.994 225.87 268.43 225.87Z" fill="#FF7B7B"/>
<path d="M267.111 224.164C267.379 224.102 267.575 223.955 267.547 223.836C267.52 223.718 267.279 223.673 267.01 223.736C266.741 223.799 266.546 223.946 266.574 224.064C266.601 224.183 266.842 224.227 267.111 224.164Z" fill="#F4F6F9"/>
<path d="M274.689 239.4C277.449 236.64 279.359 230.75 279.359 230.75L280.999 231.35C280.999 231.35 278.879 237.86 279.129 241.01" fill="#FF7B7B"/>
<path d="M280.841 231.87C280.273 231.699 279.748 231.41 279.301 231.02L279.391 230.76L281.031 231.36L280.841 231.87Z" fill="#E26D6D"/>
<path d="M282.364 230.922C282.551 230.403 281.86 229.678 280.821 229.303C279.782 228.929 278.788 229.047 278.601 229.567C278.413 230.086 279.104 230.811 280.143 231.185C281.183 231.559 282.177 231.442 282.364 230.922Z" fill="#FF7B7B"/>
<path d="M280.011 229.487C280.022 229.394 279.862 229.298 279.653 229.274C279.445 229.25 279.267 229.306 279.256 229.399C279.245 229.492 279.405 229.588 279.614 229.612C279.822 229.636 280 229.58 280.011 229.487Z" fill="#F4F6F9"/>
<path d="M280.539 241.94C283.409 240.18 286.189 235.64 286.189 235.64L287.439 236.46C287.439 236.46 284.359 241.46 283.939 244.19" fill="#FF7B7B"/>
<path d="M287.2 236.87C286.759 236.622 286.376 236.281 286.08 235.87L286.21 235.67L287.46 236.49L287.2 236.87Z" fill="#E26D6D"/>
<path d="M288.678 236.412C288.939 236.015 288.506 235.271 287.712 234.75C286.917 234.229 286.062 234.129 285.802 234.526C285.541 234.923 285.974 235.667 286.768 236.188C287.563 236.709 288.418 236.809 288.678 236.412Z" fill="#FF7B7B"/>
<path d="M287.005 234.733C287.034 234.655 286.918 234.541 286.747 234.479C286.576 234.416 286.414 234.429 286.385 234.507C286.357 234.584 286.473 234.698 286.644 234.761C286.815 234.823 286.977 234.811 287.005 234.733Z" fill="#F4F6F9"/>
<path d="M257.45 241.3C257.84 238 256 233 256 233L257.42 232.52C257.42 232.52 259.48 238.05 261.34 240.05" fill="#FF7B7B"/>
<path d="M257.56 232.92C257.087 233.11 256.579 233.195 256.07 233.17L256 233L257.42 232.52L257.56 232.92Z" fill="#E26D6D"/>
<path d="M256.752 232.84C257.652 232.536 258.259 231.924 258.107 231.474C257.955 231.024 257.102 230.906 256.202 231.21C255.302 231.514 254.695 232.125 254.847 232.575C254.999 233.025 255.852 233.143 256.752 232.84Z" fill="#FF7B7B"/>
<path d="M255.56 232.039C255.715 231.943 255.805 231.808 255.761 231.738C255.717 231.667 255.556 231.688 255.401 231.784C255.247 231.881 255.157 232.016 255.2 232.086C255.244 232.156 255.405 232.135 255.56 232.039Z" fill="#F4F6F9"/>
<path d="M294.131 259.77C297.321 260.85 302.591 260.08 302.591 260.08L302.761 261.57C302.761 261.57 296.921 262.42 294.571 263.82" fill="#FF7B7B"/>
<path d="M302.289 261.65C302.205 261.148 302.225 260.633 302.349 260.14H302.589L302.759 261.63L302.289 261.65Z" fill="#E26D6D"/>
<path d="M303.583 262.484C304.055 262.431 304.351 261.622 304.243 260.678C304.136 259.734 303.666 259.013 303.194 259.066C302.722 259.12 302.427 259.929 302.534 260.873C302.642 261.816 303.111 262.538 303.583 262.484Z" fill="#FF7B7B"/>
<path d="M303.805 260.133C303.883 260.105 303.896 259.943 303.835 259.772C303.774 259.6 303.661 259.484 303.583 259.512C303.505 259.539 303.491 259.701 303.552 259.873C303.614 260.044 303.727 260.161 303.805 260.133Z" fill="#F4F6F9"/>
<path d="M294.721 265.4C297.601 267.14 302.921 267.51 302.921 267.51L302.771 269.01C302.771 269.01 296.881 268.59 294.301 269.45" fill="#FF7B7B"/>
<path d="M302.301 269C302.322 268.488 302.451 267.987 302.681 267.53H302.921L302.771 269.03L302.301 269Z" fill="#E26D6D"/>
<path d="M304.413 268.436C304.51 267.491 304.205 266.686 303.732 266.637C303.26 266.589 302.799 267.316 302.702 268.261C302.606 269.206 302.91 270.011 303.383 270.06C303.855 270.108 304.317 269.381 304.413 268.436Z" fill="#FF7B7B"/>
<path d="M304.114 267.801C304.196 267.79 304.244 267.635 304.221 267.454C304.197 267.274 304.112 267.136 304.03 267.146C303.947 267.157 303.9 267.312 303.923 267.493C303.946 267.674 304.032 267.812 304.114 267.801Z" fill="#F4F6F9"/>
<path d="M292.349 276.28C294.259 279.05 298.949 281.58 298.949 281.58L298.189 282.87C298.189 282.87 292.999 280.07 290.289 279.79" fill="#FF7B7B"/>
<path d="M297.779 282.66C298.01 282.205 298.334 281.803 298.729 281.48L298.939 281.6L298.179 282.89L297.779 282.66Z" fill="#E26D6D"/>
<path d="M299.933 283.021C300.411 282.2 300.465 281.341 300.054 281.102C299.644 280.864 298.924 281.336 298.446 282.157C297.969 282.978 297.915 283.838 298.326 284.076C298.736 284.315 299.456 283.843 299.933 283.021Z" fill="#FF7B7B"/>
<path d="M300.126 282.037C300.179 281.863 300.158 281.702 300.078 281.678C299.999 281.654 299.892 281.775 299.839 281.95C299.785 282.124 299.806 282.285 299.886 282.309C299.965 282.333 300.072 282.212 300.126 282.037Z" fill="#F4F6F9"/>
<path d="M292.27 253.5C296.17 253.84 301.9 251.5 301.9 251.5L302.5 253.14C302.5 253.14 296.15 255.71 293.9 257.93" fill="#FF7B7B"/>
<path d="M302.001 253.36C301.763 252.818 301.644 252.232 301.651 251.64L301.911 251.54L302.511 253.18L302.001 253.36Z" fill="#E26D6D"/>
<path d="M303.699 253.914C304.217 253.723 304.327 252.728 303.944 251.692C303.561 250.655 302.831 249.971 302.313 250.162C301.795 250.353 301.685 251.348 302.068 252.384C302.451 253.421 303.181 254.105 303.699 253.914Z" fill="#FF7B7B"/>
<path d="M303.28 251.195C303.358 251.143 303.328 250.959 303.212 250.784C303.096 250.609 302.939 250.509 302.861 250.561C302.782 250.612 302.813 250.796 302.928 250.971C303.044 251.146 303.201 251.246 303.28 251.195Z" fill="#F4F6F9"/>
<path d="M294.399 271.19C297.209 273.9 303.119 275.7 303.119 275.7L302.569 277.35C302.569 277.35 296.009 275.35 292.859 275.66" fill="#FF7B7B"/>
<path d="M302 277.19C302.158 276.619 302.434 276.087 302.81 275.63L303.07 275.72L302.52 277.37L302 277.19Z" fill="#E26D6D"/>
<path d="M305.185 276.131C305.538 275.082 305.399 274.088 304.875 273.911C304.35 273.734 303.638 274.442 303.285 275.491C302.931 276.54 303.07 277.534 303.595 277.711C304.119 277.888 304.831 277.18 305.185 276.131Z" fill="#FF7B7B"/>
<path d="M307.032 275.623C307.053 275.413 306.994 275.235 306.9 275.226C306.806 275.216 306.713 275.379 306.692 275.589C306.671 275.799 306.73 275.976 306.824 275.986C306.918 275.995 307.011 275.833 307.032 275.623Z" fill="#F4F6F9"/>
<path d="M284.07 286.92C284.4 290.82 287.67 296.06 287.67 296.06L286.16 296.94C286.16 296.94 282.54 291.12 279.98 289.27" fill="#FF7B7B"/>
<path d="M285.869 296.48C286.364 296.154 286.924 295.939 287.509 295.85L287.649 296.08L286.139 296.96L285.869 296.48Z" fill="#E26D6D"/>
<path d="M287.817 298.107C288.773 297.553 289.324 296.717 289.047 296.239C288.77 295.761 287.771 295.822 286.815 296.376C285.859 296.929 285.308 297.765 285.585 298.243C285.862 298.721 286.861 298.66 287.817 298.107Z" fill="#FF7B7B"/>
<path d="M288.588 297.235C288.741 297.091 288.813 296.919 288.748 296.851C288.684 296.782 288.508 296.843 288.355 296.987C288.202 297.131 288.13 297.303 288.195 297.371C288.259 297.44 288.435 297.379 288.588 297.235Z" fill="#F4F6F9"/>
<path d="M286.58 245.19C291.47 243.77 297.32 238.24 297.32 238.24L298.82 239.93C298.82 239.93 292.33 246.05 290.65 249.81" fill="#FF7B7B"/>
<path d="M298.31 240.43C297.768 239.885 297.348 239.231 297.08 238.51L297.34 238.27L298.84 239.96L298.31 240.43Z" fill="#E26D6D"/>
<path d="M300.636 240.298C301.174 239.822 300.837 238.564 299.885 237.489C298.933 236.415 297.725 235.929 297.188 236.405C296.651 236.882 296.987 238.139 297.939 239.214C298.891 240.288 300.099 240.774 300.636 240.298Z" fill="#FF7B7B"/>
<path d="M298.854 237.204C298.924 237.105 298.798 236.895 298.572 236.736C298.347 236.576 298.107 236.527 298.037 236.627C297.967 236.726 298.093 236.935 298.318 237.095C298.544 237.254 298.783 237.303 298.854 237.204Z" fill="#F4F6F9"/>
<path d="M291.07 280.25C293.23 284.85 299.6 289.78 299.6 289.78L298.16 291.52C298.16 291.52 291.11 286.06 287.16 284.98" fill="#FF7B7B"/>
<path d="M297.59 291.1C298.047 290.479 298.63 289.961 299.3 289.58L299.58 289.81L298.14 291.55L297.59 291.1Z" fill="#E26D6D"/>
<path d="M300.711 292.168C301.625 291.061 301.917 289.793 301.364 289.336C300.81 288.878 299.62 289.406 298.706 290.513C297.792 291.62 297.5 292.889 298.053 293.346C298.607 293.803 299.797 293.276 300.711 292.168Z" fill="#FF7B7B"/>
<path d="M301.259 290.824C301.382 290.576 301.393 290.332 301.284 290.278C301.175 290.224 300.987 290.381 300.865 290.628C300.742 290.876 300.731 291.12 300.84 291.174C300.949 291.228 301.136 291.071 301.259 290.824Z" fill="#F4F6F9"/>
<path d="M263.68 292.13C260.31 295.94 258.33 303.74 258.33 303.74L256.15 303.11C256.15 303.11 258.36 294.47 257.78 290.4" fill="#E26D6D"/>
<path d="M256.319 302.42C257.072 302.603 257.778 302.943 258.389 303.42L258.299 303.76L256.119 303.13C256.119 303.13 256.239 302.73 256.319 302.42Z" fill="#D16969"/>
<path d="M259.392 305.199C259.591 304.51 258.635 303.627 257.255 303.228C255.876 302.829 254.596 303.064 254.397 303.754C254.197 304.443 255.153 305.326 256.533 305.725C257.912 306.124 259.192 305.889 259.392 305.199Z" fill="#E26D6D"/>
<path d="M258.537 305.463C258.544 305.341 258.325 305.232 258.049 305.217C257.774 305.203 257.545 305.29 257.539 305.411C257.532 305.532 257.751 305.642 258.027 305.657C258.302 305.671 258.531 305.584 258.537 305.463Z" fill="#F4F6F9"/>
<path d="M244.811 279C239.721 278.86 232.471 282.35 232.471 282.35L231.551 280.27C231.551 280.27 239.551 276.42 242.351 273.36" fill="#E26D6D"/>
<path d="M232.189 279.94C232.543 280.625 232.744 281.379 232.779 282.15L232.459 282.3L231.539 280.22L232.189 279.94Z" fill="#D16969"/>
<path d="M232.048 284.06C232.705 283.77 232.768 282.47 232.188 281.157C231.608 279.843 230.606 279.013 229.949 279.303C229.292 279.593 229.23 280.893 229.809 282.206C230.389 283.52 231.392 284.35 232.048 284.06Z" fill="#E26D6D"/>
<path d="M231.269 283.637C231.367 283.564 231.311 283.326 231.144 283.105C230.978 282.885 230.765 282.765 230.668 282.838C230.571 282.911 230.627 283.15 230.793 283.37C230.959 283.591 231.172 283.71 231.269 283.637Z" fill="#F4F6F9"/>
<path d="M243.999 253.3C241.289 248.99 234.369 244.88 234.369 244.88L235.589 242.96C235.589 242.96 243.249 247.53 247.329 248.13" fill="#E26D6D"/>
<path d="M236.17 243.32C235.791 243.992 235.273 244.575 234.65 245.03L234.35 244.85L235.57 242.93C235.57 242.93 235.89 243.17 236.17 243.32Z" fill="#D16969"/>
<path d="M234.824 244.987C235.6 243.781 235.739 242.489 235.136 242.101C234.533 241.713 233.416 242.377 232.64 243.583C231.865 244.789 231.725 246.081 232.328 246.469C232.931 246.857 234.049 246.193 234.824 244.987Z" fill="#E26D6D"/>
<path d="M232.964 244.179C233.056 243.919 233.037 243.675 232.922 243.635C232.808 243.594 232.641 243.773 232.549 244.033C232.457 244.294 232.476 244.538 232.59 244.578C232.705 244.618 232.872 244.44 232.964 244.179Z" fill="#F4F6F9"/>
<path d="M250.351 246C249.461 242.17 245.461 237.42 245.461 237.42L246.831 236.34C246.831 236.34 251.261 241.61 254.081 243.07" fill="#E26D6D"/>
<path d="M247.19 236.73C246.745 237.126 246.22 237.423 245.65 237.6L245.48 237.38L246.85 236.3L247.19 236.73Z" fill="#D16969"/>
<path d="M246.254 236.977C247.126 236.289 247.554 235.38 247.212 234.946C246.87 234.513 245.886 234.719 245.015 235.407C244.144 236.095 243.715 237.004 244.057 237.438C244.4 237.871 245.383 237.665 246.254 236.977Z" fill="#E26D6D"/>
<path d="M244.643 236.574C244.774 236.41 244.82 236.229 244.747 236.171C244.673 236.112 244.508 236.198 244.377 236.362C244.247 236.527 244.2 236.707 244.274 236.766C244.347 236.824 244.513 236.738 244.643 236.574Z" fill="#F4F6F9"/>
<path d="M242.39 270.37C238.67 269.09 232.52 269.98 232.52 269.98L232.33 268.24C232.33 268.24 239.14 267.24 241.88 265.65" fill="#E26D6D"/>
<path d="M232.87 268.16C232.972 268.748 232.948 269.351 232.8 269.93H232.52L232.33 268.19L232.87 268.16Z" fill="#D16969"/>
<path d="M231.821 271.167C232.37 271.105 232.715 270.161 232.592 269.058C232.468 267.955 231.924 267.11 231.375 267.172C230.826 267.233 230.481 268.177 230.604 269.28C230.728 270.383 231.273 271.228 231.821 271.167Z" fill="#E26D6D"/>
<path d="M231.344 270.669C231.433 270.638 231.447 270.452 231.377 270.254C231.307 270.056 231.178 269.921 231.09 269.953C231.001 269.984 230.987 270.17 231.057 270.368C231.127 270.566 231.256 270.7 231.344 270.669Z" fill="#F4F6F9"/>
<path d="M255.881 288.65C252.551 290.73 249.361 296.06 249.361 296.06L247.891 295.12C247.891 295.12 251.431 289.21 251.891 286.07" fill="#E26D6D"/>
<path d="M248.159 294.64C248.675 294.931 249.122 295.33 249.469 295.81L249.329 296.04L247.859 295.1L248.159 294.64Z" fill="#D16969"/>
<path d="M249.841 297.4C250.139 296.935 249.624 296.072 248.69 295.472C247.756 294.872 246.757 294.763 246.458 295.227C246.16 295.692 246.675 296.555 247.609 297.155C248.543 297.755 249.542 297.864 249.841 297.4Z" fill="#E26D6D"/>
<path d="M249.142 297.404C249.174 297.316 249.039 297.187 248.841 297.117C248.643 297.047 248.457 297.062 248.426 297.15C248.395 297.239 248.529 297.367 248.727 297.438C248.925 297.508 249.111 297.493 249.142 297.404Z" fill="#F4F6F9"/>
<path d="M275.099 290.62C274.389 293.71 275.609 298.56 275.609 298.56L274.229 298.86C274.229 298.86 272.889 293.48 271.359 291.43" fill="#E26D6D"/>
<path d="M274.119 298.43C274.581 298.3 275.065 298.269 275.539 298.34L275.589 298.56L274.209 298.86L274.119 298.43Z" fill="#D16969"/>
<path d="M275.205 300.193C276.079 300.003 276.711 299.494 276.616 299.057C276.52 298.62 275.734 298.42 274.86 298.61C273.986 298.801 273.355 299.309 273.45 299.747C273.545 300.184 274.331 300.384 275.205 300.193Z" fill="#E26D6D"/>
<path d="M276.025 299.713C276.18 299.64 276.278 299.523 276.245 299.454C276.212 299.384 276.059 299.387 275.905 299.46C275.75 299.534 275.652 299.65 275.685 299.72C275.718 299.79 275.871 299.787 276.025 299.713Z" fill="#F4F6F9"/>
<path d="M270.82 291.65C269.19 295.22 269.48 301.43 269.48 301.43H267.73C267.73 301.43 267.41 294.56 266.07 291.68" fill="#E26D6D"/>
<path d="M267.689 300.91C268.284 300.861 268.882 300.947 269.439 301.16V301.43H267.689C267.689 301.43 267.709 301.15 267.689 300.91Z" fill="#D16969"/>
<path d="M268.62 303.273C269.73 303.257 270.624 302.797 270.616 302.244C270.608 301.692 269.702 301.257 268.592 301.273C267.482 301.289 266.588 301.749 266.596 302.301C266.604 302.853 267.51 303.288 268.62 303.273Z" fill="#E26D6D"/>
<path d="M269.722 302.884C269.926 302.833 270.073 302.718 270.05 302.627C270.027 302.536 269.844 302.503 269.64 302.554C269.437 302.604 269.29 302.719 269.313 302.81C269.335 302.902 269.519 302.934 269.722 302.884Z" fill="#F4F6F9"/>
<path d="M241.731 260C239.211 258.13 234.301 257.31 234.301 257.31L234.581 255.94C234.581 255.94 240.011 256.85 242.491 256.28" fill="#E26D6D"/>
<path d="M234.999 256C234.93 256.469 234.763 256.919 234.509 257.32H234.289L234.569 255.95L234.999 256Z" fill="#D16969"/>
<path d="M234.558 256.642C234.73 255.776 234.519 255.003 234.086 254.917C233.652 254.831 233.161 255.463 232.988 256.33C232.816 257.196 233.027 257.969 233.46 258.055C233.894 258.142 234.385 257.509 234.558 256.642Z" fill="#E26D6D"/>
<path d="M233.264 257.543C233.341 257.54 233.399 257.399 233.394 257.228C233.388 257.057 233.321 256.92 233.243 256.923C233.166 256.926 233.108 257.066 233.114 257.238C233.12 257.409 233.187 257.545 233.264 257.543Z" fill="#F4F6F9"/>
<path d="M250.631 284.46C247.421 285.46 243.631 289.27 243.631 289.27L242.631 288.17C242.631 288.17 246.821 283.99 247.871 281.47" fill="#E26D6D"/>
<path d="M242.939 287.83C243.316 288.179 243.606 288.61 243.789 289.09L243.619 289.25L242.619 288.15L242.939 287.83Z" fill="#D16969"/>
<path d="M243.742 290.48C244.089 290.155 243.844 289.33 243.195 288.636C242.546 287.943 241.739 287.643 241.392 287.968C241.045 288.292 241.29 289.118 241.939 289.811C242.588 290.505 243.395 290.804 243.742 290.48Z" fill="#E26D6D"/>
<path d="M243.179 290.336C243.225 290.268 243.139 290.13 242.988 290.028C242.836 289.927 242.676 289.901 242.63 289.97C242.584 290.039 242.67 290.177 242.821 290.278C242.973 290.379 243.133 290.405 243.179 290.336Z" fill="#F4F6F9"/>
<path opacity="0.4" d="M135.121 390.98C163.596 390.98 186.681 386.426 186.681 380.81C186.681 375.193 163.596 370.64 135.121 370.64C106.645 370.64 83.5605 375.193 83.5605 380.81C83.5605 386.426 106.645 390.98 135.121 390.98Z" fill="#D6D8E5"/>
<path opacity="0.4" d="M268.3 343.25C283.333 343.25 295.52 340.622 295.52 337.38C295.52 334.138 283.333 331.51 268.3 331.51C253.267 331.51 241.08 334.138 241.08 337.38C241.08 340.622 253.267 343.25 268.3 343.25Z" fill="#D6D8E5"/>
<path opacity="0.4" d="M219.21 219.29C234.243 219.29 246.43 216.662 246.43 213.42C246.43 210.178 234.243 207.55 219.21 207.55C204.177 207.55 191.99 210.178 191.99 213.42C191.99 216.662 204.177 219.29 219.21 219.29Z" fill="#D6D8E5"/>
<path opacity="0.4" d="M33.68 212.79C52.281 212.79 67.36 204.082 67.36 193.34C67.36 182.598 52.281 173.89 33.68 173.89C15.0791 173.89 0 182.598 0 193.34C0 204.082 15.0791 212.79 33.68 212.79Z" fill="#D6D8E5"/>
<path d="M16.3799 190C18.8599 192 22.5299 190.17 22.7099 190.36C25.6282 193.068 28.6893 195.618 31.8799 198C33.4199 199.22 35.8799 200.85 35.3999 203.19C34.6199 207.37 27.9199 206.09 25.3999 204.81C22.8799 203.53 20.8099 201.4 18.3999 199.92C16.6899 198.86 15.0099 198.31 14.7499 196.15C14.5999 194.82 15.9399 189.93 16.3799 190Z" fill="#38226D"/>
<path d="M14.7898 195.25C15.1198 197.32 16.7898 197.89 18.4698 198.94C20.8998 200.45 23.0398 202.63 25.5698 203.94C27.8998 205.12 33.7298 206.29 35.3698 203.3C34.4798 207.3 27.8898 206.07 25.3698 204.81C22.8498 203.55 20.7798 201.4 18.3698 199.92C16.6598 198.86 14.9798 198.31 14.7198 196.15C14.7079 195.848 14.7314 195.546 14.7898 195.25Z" fill="#9C73FF"/>
<path d="M37.9298 182C40.4198 184 44.7598 181.82 44.9298 182C47.5101 184.627 50.245 187.098 53.1198 189.4C54.6598 190.61 57.1198 192.24 56.6398 194.58C55.8598 198.77 49.1598 197.48 46.6398 196.2C44.1198 194.92 42.0498 192.8 39.6398 191.31C37.9298 190.26 36.2498 189.71 35.9898 187.55C35.8598 186.21 37.4898 181.91 37.9298 182Z" fill="#38226D"/>
<path d="M36.0907 186.94C36.4207 189 38.0907 189.57 39.7707 190.62C42.2007 192.13 44.3407 194.31 46.8707 195.62C49.2007 196.8 55.0307 197.98 56.6707 194.99C55.7807 198.99 49.2007 197.76 46.6707 196.49C44.1407 195.22 42.0807 193.09 39.6707 191.6C37.9607 190.54 36.2807 189.99 36.0207 187.84C36.0085 187.538 36.032 187.236 36.0907 186.94Z" fill="#9C73FF"/>
<path d="M54.5296 44.7697C54.5296 44.7697 54.4496 48.7697 54.9396 58.8297C55.1191 66.3238 54.785 73.8213 53.9396 81.2697C53.1999 87.1638 51.5926 92.916 49.1696 98.3397C47.3896 89.7697 49.4596 88.2597 49.4596 88.2597L48.4596 70.0497C48.4596 70.0497 49.4596 52.4697 49.0696 46.2197C48.8096 42.2597 54.5296 44.7697 54.5296 44.7697Z" fill="#FFCEA9"/>
<path d="M16.2997 98.2596C16.4197 102.01 17.5897 118.32 18.1097 126.96C18.6297 135.6 18.7497 146.18 18.7497 146.18C18.7497 146.18 17.2597 152.47 16.2997 159.86C15.3397 167.25 16.2997 190.59 16.2997 190.59C17.2478 191.201 18.3518 191.526 19.4797 191.526C20.6076 191.526 21.7117 191.201 22.6597 190.59C22.6597 190.59 26.6597 171.91 28.4697 163.5C30.2797 155.09 30.6297 150.24 31.5897 145.02C32.7397 138.71 35.2297 109.27 35.2297 109.27H36.2297L38.8897 142.51C38.071 144.958 37.508 147.485 37.2097 150.05C36.4897 155.47 37.9797 182.71 37.9797 182.71C39.04 183.299 40.2421 183.584 41.4541 183.535C42.666 183.485 43.8409 183.103 44.8497 182.43C44.8497 182.43 51.4897 146.35 51.4897 140.86C51.4897 137.23 50.8697 89.3496 50.8697 89.3496L16.2997 98.2596Z" fill="#8C50FF"/>
<path d="M25.2993 25.6597C25.2993 25.6597 25.7193 33.8497 25.5393 34.5797C25.3593 35.3097 21.7793 37.6997 20.7393 38.5797C19.6993 39.4597 26.3993 46.0497 29.6593 47.5797C32.9193 49.1097 43.2493 45.0797 43.4293 39.9997C43.6093 34.9197 41.6593 30.6697 40.0793 30.4397C38.4993 30.2097 25.2993 25.6597 25.2993 25.6597Z" fill="#FFCEA9"/>
<path d="M24.3909 35.9997C24.3909 35.9997 30.3309 44.8497 38.6209 45.6897C41.2309 43.1097 41.4709 33.9397 37.8509 31.0097C37.8509 31.0097 41.1809 28.3297 43.4509 28.8497C46.151 30.302 48.2173 32.7032 49.2509 35.5897C50.7809 40.2597 51.6409 45.6497 51.5009 54.3297C51.3609 63.0097 51.5009 89.5697 51.5009 89.5697C51.5009 89.5697 50.3309 95.1797 42.8309 99.3597C35.3309 103.54 29.7609 103.95 24.6809 102.76C20.4809 101.76 17.0109 100.3 15.5609 97.2597C15.9409 91.1697 18.6609 75.2597 17.6409 67.6197C16.6209 59.9797 15.0009 54.2297 14.6009 47.9997C14.2009 41.7697 15.4209 41.9397 18.5209 39.7297C20.3858 38.3475 22.3475 37.1009 24.3909 35.9997Z" fill="#F4F4F4"/>
<path d="M21.0602 101.82C19.8302 100.44 17.7002 92.8197 16.4802 87.9397C15.3048 82.4932 15.068 76.886 15.7802 71.3597C16.8802 64.7597 19.9002 55.6197 20.7802 51.8397C21.6602 48.0597 20.5102 46.4497 18.7802 44.9197C16.7802 43.1297 13.8702 43.6597 11.9702 48.9197C9.48343 56.2017 7.81646 63.7383 7.00023 71.3897C6.5508 77.0987 7.04749 82.8427 8.47023 88.3897C9.74023 93.5197 11.6002 97.2697 13.9802 101.99C14.6302 103.28 16.1102 106.87 17.0602 109.47C18.0102 112.07 22.1902 103.08 21.0602 101.82Z" fill="#FFCEA9"/>
<path d="M7 57.4998C7 57.4998 12.85 63.3098 19.76 61.6298C20.76 60.9598 23.12 47.3798 23.12 47.3798C23.12 47.3798 23.12 39.8498 17.35 40.0498C11.58 40.2498 7 57.4998 7 57.4998Z" fill="#EDEDED"/>
<path d="M51.5092 49.8598C51.5092 49.8598 55.2892 50.3398 56.5592 48.5598C56.3192 45.5598 51.2892 29.6998 43.4492 28.8398C45.3582 30.5603 47.0086 32.5475 48.3492 34.7398C51.0892 39.3798 51.5092 49.8598 51.5092 49.8598Z" fill="#EDEDED"/>
<path d="M44.5101 19.24C44.6447 22.311 44.1372 25.3763 43.0201 28.24C42.5267 29.6457 41.594 30.8554 40.3601 31.6901C39.5709 32.1352 38.7003 32.4175 37.8001 32.5201C35.8001 32.8001 28.8001 31.1301 26.4501 28.42C26.0115 27.5347 25.676 26.6019 25.4501 25.64C23.2697 24.1567 21.6097 22.0266 20.704 19.5499C19.7983 17.0733 19.6924 14.3748 20.4014 11.8348C21.1104 9.2948 22.5985 7.04127 24.656 5.39172C26.7135 3.74216 29.2367 2.77974 31.8701 2.64005C38.4201 2.28005 43.0001 7.09005 44.0001 13.45C44.3131 15.3648 44.4836 17.3001 44.5101 19.24Z" fill="#FFCEA9"/>
<path d="M25.731 19.9128L25.6465 20.314L33.1519 21.8942L33.2364 21.493L25.731 19.9128Z" fill="white"/>
<path d="M25.4383 23.7265L25.2891 24.1084L31.3337 26.4712L31.4829 26.0893L25.4383 23.7265Z" fill="white"/>
<path d="M25.4396 25.6598L26.0396 20.1098C26.0396 20.1098 21.5096 8.37983 32.2196 10.6298C39.2796 12.1198 41.0596 12.7598 43.2196 8.01983C45.3796 3.27983 37.7696 -1.00017 28.7696 0.199827C25.6675 0.525113 22.8007 2.0039 20.7375 4.34313C18.6742 6.68237 17.565 9.71134 17.6296 12.8298C17.8596 16.3198 18.7896 23.3798 25.4396 25.6598Z" fill="#3A2C6D"/>
<path d="M44.51 19.24C44.6446 22.311 44.1372 25.3763 43.02 28.24C42.5266 29.6457 41.594 30.8553 40.36 31.69C37.24 31.43 31 26.44 31 26.28C31.3645 24.5822 31.9214 22.9316 32.66 21.36C36.45 21.36 40.66 18.52 41.53 18.52C42.5356 18.706 43.5304 18.9464 44.51 19.24Z" fill="#F4F4F4"/>
<path opacity="0.4" d="M389.92 500C408.521 500 423.6 491.292 423.6 480.55C423.6 469.808 408.521 461.1 389.92 461.1C371.319 461.1 356.24 469.808 356.24 480.55C356.24 491.292 371.319 500 389.92 500Z" fill="#D6D8E5"/>
<path d="M417.76 332.43C418.15 335.79 422.16 350.31 421.3 355.28C420.44 360.25 406.77 368.57 406.77 368.57L404.92 360.05L412.51 352.66L410.46 338.55L417.76 332.43Z" fill="#FFCEA9"/>
<path d="M407.15 318.13C408.484 317.51 410 317.402 411.408 317.826C412.817 318.25 414.02 319.177 414.79 320.43C416.79 323.78 418.91 335.22 419.09 337.19C419.09 337.19 416.26 341.11 412.02 340.45L407.15 318.13Z" fill="#EDEDED"/>
<path d="M391.5 480C388.514 480.822 385.325 480.438 382.62 478.93C380.48 478.99 368.88 474.03 367.3 478.2C365.92 481.9 370.94 485.2 373.63 485.88C379.49 487.31 383.8 490.23 386.18 490.72C387.94 491.09 390.18 491.34 391.61 489.96C393.28 488.26 393.14 482.14 391.5 480Z" fill="#38226D"/>
<path d="M386.18 489.67C383.83 489.17 379.49 486.25 373.63 484.83C371.38 484.29 367.5 481.83 367.11 478.89C366.59 482.25 371.11 485.24 373.63 485.84C379.49 487.27 383.8 490.19 386.18 490.68C387.94 491.05 390.18 491.3 391.61 489.92C391.971 489.515 392.235 489.033 392.38 488.51C391.507 489.17 390.492 489.619 389.416 489.821C388.34 490.022 387.232 489.97 386.18 489.67Z" fill="#9C73FF"/>
<path d="M410.321 471.51C407.336 472.338 404.144 471.953 401.441 470.44C399.301 470.5 387.701 465.53 386.131 469.7C384.741 473.36 389.771 476.7 392.451 477.39C398.311 478.81 402.621 481.74 405.001 482.24C406.761 482.61 409.001 482.85 410.431 481.47C412.101 479.81 412.001 473.69 410.321 471.51Z" fill="#38226D"/>
<path d="M405.001 481.22C402.651 480.72 398.311 477.8 392.451 476.38C390.201 475.84 386.321 473.38 385.981 470.44C385.461 473.8 389.981 476.79 392.451 477.39C398.311 478.81 402.621 481.74 405.001 482.24C406.761 482.61 409.001 482.85 410.431 481.47C410.788 481.063 411.051 480.581 411.201 480.06C410.328 480.721 409.313 481.169 408.237 481.371C407.161 481.572 406.053 481.52 405.001 481.22Z" fill="#9C73FF"/>
<path d="M410.55 440C410.049 435.693 409.152 431.442 407.87 427.3C407.87 427.3 408.67 416.3 409.07 405.92C409.52 394.12 413.62 383.73 410.38 374.33L374 382.4C374 382.4 376.2 429.45 376.7 435.11C376.963 439.54 377.507 443.949 378.33 448.31C379.99 457.45 382.69 479.17 382.69 479.17C386.54 481.41 391.59 480.17 391.59 480.17C391.59 480.17 391.32 452.7 391.07 446.11C390.77 438.11 390.52 438.72 390.52 438.72L391.72 418.72L392.51 408.77C392.51 408.77 393.51 416.08 394.17 422.64C394.75 428.33 396.12 433.48 397.66 444.07C398.99 453.26 401.15 471.73 401.15 471.73C405 473.97 410.23 472.11 410.23 472.11C410.23 472.11 411.58 448 410.55 440Z" fill="#8C50FF"/>
<path d="M405.23 318.32C402.46 318.46 400.39 319.17 400.04 318.32C399.749 316.886 399.539 315.437 399.41 313.98C399.73 313.18 400.01 312.32 400.01 312.32C403.49 310.17 404.63 306.41 405.01 302.03C405.79 294.53 401.739 288.03 394.249 287.23C387.199 286.5 382.029 291.45 380.649 298.23C379.899 301.59 378.419 307.92 380.429 313.45C381.539 316.53 382.989 318.99 384.429 319.45C385.825 319.41 387.218 319.29 388.6 319.09C388.6 319.09 388.98 321.17 389.23 322.5C389.48 323.83 389.39 324.5 386.73 326.2C384.07 327.9 390.729 331.2 395.109 330.88C399.489 330.56 404.359 327.88 405.739 325.09C407.269 321.94 407.14 318.23 405.23 318.32Z" fill="#FFCEA9"/>
<path d="M401.219 318.74C401.989 320.65 400.029 322.99 394.829 324.63C389.629 326.27 389.149 324.16 389.149 324.16C389.149 324.16 381.509 327.64 379.019 329.37C375.899 331.56 374.519 337.88 374.089 348.56C373.599 360.91 373.569 379.23 373.969 382.4C373.969 382.4 379.819 388.22 387.289 387.6C394.759 386.98 407.289 380.38 410.409 375.27C410.319 364.44 409.059 362.67 410.809 356.44C414.809 342.15 416.939 336.31 414.989 326.85C413.379 319.02 411.119 318.05 407.989 318.13C405.723 318.21 403.463 318.413 401.219 318.74Z" fill="#F4F4F4"/>
<path d="M362.379 360.84C368.519 362.39 369.949 358.52 370.769 355.29C372.769 347.54 373.769 340.5 375.219 336.14C376.929 330.94 378.729 330.14 381.219 329.14C384.219 327.96 386.769 330.46 385.739 337.07C384.579 344.88 383.039 350.38 380.119 359.62C379.359 362.04 377.649 366.33 375.119 368.4C371.959 370.96 367.199 370.85 359.979 369.06C356.899 368.29 353.509 366.46 347.709 363.74C346.149 363.01 344.939 362.53 341.939 361.13C338.929 359.78 336.291 357.721 334.249 355.13C332.669 352.85 332.469 351.78 332.789 351.26C333.109 350.74 333.899 350.75 334.789 351.72C336.006 353.331 337.503 354.71 339.209 355.79C339.209 355.79 337.269 353.79 336.209 352.49C335.267 351.338 334.486 350.063 333.889 348.7C333.329 347.38 334.469 345.58 335.339 346.52C336.209 347.46 336.629 348.43 338.219 350.33C339.034 351.329 339.968 352.226 340.999 353C340.015 351.665 339.139 350.254 338.379 348.78C337.721 347.621 337.399 346.302 337.449 344.97C337.449 344.28 338.449 343.45 339.449 344.77C340.449 346.09 340.809 347.77 342.749 349.77C344.139 351.23 345.339 352.06 345.369 351.66C345.399 351.26 344.519 350.46 344.019 348.77C343.519 347.08 344.019 345.28 344.949 345.07C345.879 344.86 345.709 344.92 346.459 346.51C347.209 348.1 348.359 349.29 349.229 351.58C349.702 353.211 350.567 354.701 351.749 355.92C353.179 357.59 356.509 359.37 362.379 360.84Z" fill="#FFCEA9"/>
<path d="M383.491 328.09C379.391 327.47 376.491 329.32 374.691 335.48C372.891 341.64 371.631 346.81 371.631 346.81C373.255 349.151 375.713 350.783 378.501 351.37C383.401 352.55 385.151 350.22 385.151 350.22C385.151 350.22 386.511 343.74 387.361 339.28C388.211 334.82 388.561 328.82 383.491 328.09Z" fill="#EDEDED"/>
<path d="M385.009 309.04L392.019 306.99L391.809 306.53L384.789 308.58L385.009 309.04Z" fill="white"/>
<path d="M385.57 312.36L385.52 312.86L391.37 312.75L391.42 312.25L385.57 312.36Z" fill="white"/>
<path d="M384.8 319.53C382.94 319.53 381.4 316.58 380.24 313.53C379.468 311.38 379.111 309.103 379.19 306.82C379.192 306.765 379.207 306.711 379.234 306.664C379.262 306.616 379.3 306.576 379.347 306.548C379.394 306.519 379.447 306.502 379.501 306.499C379.556 306.496 379.611 306.506 379.66 306.53C381.496 307.663 383.613 308.259 385.77 308.25L386.77 313.01C386.77 313.01 385 319.29 384.8 319.53Z" fill="#EDEDED"/>
<path d="M380.92 297.25C380.92 297.25 374.45 287.41 388.47 285.41C398.59 283.96 405.12 290.41 405.84 297.51C406.56 304.24 402.41 311.25 399.41 314.02C397.95 314.55 394.79 314.84 390.68 313.02C390.504 311.175 390.437 309.322 390.48 307.47C390.48 307.47 395.41 297.08 380.92 297.25Z" fill="#3A2C6D"/>
<path d="M414.07 340.86L374 378.22L371.66 450.06C371.66 450.06 382.9 455.55 395.66 452.58L398 425L401.54 450L401.12 450.76C407.172 448.048 412.362 443.724 416.12 438.26L414.07 340.86Z" fill="#F4F4F4"/>
<path d="M371.63 346.81L369.63 355.48C369.63 355.48 367.95 361.55 363.63 360.01C359.563 358.299 355.6 356.352 351.76 354.18L346.58 364.81L357.29 369.81C357.29 369.81 372.16 375.11 376.29 369.81C380.42 364.51 385.06 350.2 385.06 350.2L371.63 346.81Z" fill="#EDEDED"/>
</g>
<defs>
<clipPath id="clip0_361_3991">
<rect width="423.6" height="500" fill="white"/>
</clipPath>
</defs>
</svg>
