<svg width="500" height="374" viewBox="0 0 500 374" fill="none" xmlns="http://www.w3.org/2000/svg">
<g clip-path="url(#clip0_365_4866)">
<path d="M264.401 265.726L160.091 205.486C154.031 201.986 154.791 195.876 161.791 191.836L231.971 151.336C238.971 147.336 249.571 146.846 255.631 150.336L359.971 210.576C366.031 214.076 365.271 220.186 358.271 224.236L288.101 264.746C281.051 268.786 270.461 269.226 264.401 265.726Z" fill="#E9EAF2"/>
<path d="M500.001 170.71V159.67L489.291 166.57L500.001 170.71Z" fill="#B1B4C4"/>
<path opacity="0.4" d="M131.791 369.6L7.13054 297.6C-3.42946 291.5 -2.10946 280.85 10.1305 273.81L311.221 100C323.421 93.0002 341.861 92.2002 352.421 98.2902L477.081 170.29C487.641 176.38 486.311 187.03 474.081 194.07L173.001 367.89C160.791 374.93 142.351 375.7 131.791 369.6Z" fill="#D6D8E5"/>
<path d="M147.58 360.12L22.9201 288.12C12.3601 282.03 13.6901 271.38 25.9201 264.34L327 90.5101C339.2 83.5101 357.64 82.7001 368.2 88.8001L492.86 160.8C503.42 166.9 502.1 177.55 489.86 184.59L188.78 358.42C176.58 365.46 158.14 366.22 147.58 360.12Z" fill="#B1B4C4"/>
<path d="M15.791 277.67V266.19L29.251 271.27L15.791 277.67Z" fill="#B1B4C4"/>
<path d="M147.58 350.41L22.9201 278.41C12.3601 272.31 13.6901 261.66 25.9201 254.62L327 80.7898C339.2 73.7898 357.64 72.9898 368.2 79.0798L492.86 151.08C503.42 157.17 502.1 167.82 489.86 174.86L188.78 348.7C176.58 355.74 158.14 356.51 147.58 350.41Z" fill="#616E84"/>
<path d="M37.9685 293.171C38.6094 292.801 38.6119 291.605 37.974 290.5C37.3361 289.396 36.2994 288.8 35.6585 289.17C35.0176 289.54 35.0152 290.736 35.6531 291.84C36.2909 292.945 37.3276 293.541 37.9685 293.171Z" fill="#757B89"/>
<path d="M43.9685 296.646C44.6094 296.276 44.6119 295.081 43.974 293.976C43.3361 292.871 42.2994 292.275 41.6585 292.645C41.0176 293.015 41.0152 294.211 41.6531 295.316C42.2909 296.421 43.3276 297.017 43.9685 296.646Z" fill="#757B89"/>
<path d="M49.9646 300.103C50.6055 299.732 50.608 298.537 49.9701 297.432C49.3322 296.327 48.2955 295.731 47.6546 296.101C47.0137 296.472 47.0113 297.667 47.6491 298.772C48.287 299.877 49.3237 300.473 49.9646 300.103Z" fill="#757B89"/>
<path d="M55.9666 303.578C56.6075 303.208 56.6099 302.012 55.972 300.907C55.3342 299.802 54.2975 299.207 53.6566 299.577C53.0157 299.947 53.0132 301.142 53.6511 302.247C54.289 303.352 55.3257 303.948 55.9666 303.578Z" fill="#757B89"/>
<path d="M107.494 333.313C108.135 332.943 108.137 331.748 107.499 330.643C106.861 329.538 105.825 328.942 105.184 329.312C104.543 329.682 104.541 330.878 105.178 331.983C105.816 333.088 106.853 333.683 107.494 333.313Z" fill="#757B89"/>
<path d="M113.494 336.789C114.135 336.419 114.137 335.223 113.499 334.118C112.861 333.013 111.825 332.417 111.184 332.788C110.543 333.158 110.541 334.353 111.178 335.458C111.816 336.563 112.853 337.159 113.494 336.789Z" fill="#757B89"/>
<path d="M119.49 340.245C120.131 339.875 120.133 338.679 119.495 337.575C118.858 336.47 117.821 335.874 117.18 336.244C116.539 336.614 116.537 337.81 117.175 338.915C117.812 340.019 118.849 340.615 119.49 340.245Z" fill="#757B89"/>
<path d="M125.492 343.72C126.133 343.35 126.135 342.155 125.497 341.05C124.86 339.945 123.823 339.349 123.182 339.719C122.541 340.089 122.539 341.285 123.176 342.39C123.814 343.495 124.851 344.09 125.492 343.72Z" fill="#757B89"/>
<path d="M88.8212 323.72L72.3412 314.2C71.7649 313.789 71.2936 313.248 70.9652 312.62C70.6369 311.993 70.4608 311.298 70.4512 310.59C70.4512 309.2 71.2912 308.59 72.3412 309.16L88.8212 318.68C89.3974 319.091 89.8688 319.632 90.1971 320.259C90.5255 320.886 90.7016 321.582 90.7112 322.29C90.7112 323.68 89.8712 324.32 88.8212 323.72Z" fill="#757B89"/>
<path d="M462.27 198L446.94 206.85C445.94 207.41 445.18 206.85 445.18 205.52C445.19 204.861 445.354 204.214 445.66 203.631C445.966 203.047 446.404 202.543 446.94 202.16L462.27 193.31C463.27 192.75 464.02 193.31 464.02 194.64C464.011 195.298 463.848 195.945 463.544 196.528C463.24 197.112 462.804 197.616 462.27 198Z" fill="#757B89"/>
<path d="M438.791 211.59L423.461 220.44C422.461 221 421.701 220.44 421.701 219.11C421.712 218.453 421.877 217.808 422.182 217.226C422.488 216.644 422.926 216.142 423.461 215.76L438.791 206.91C439.791 206.35 440.541 206.91 440.541 208.24C440.532 208.897 440.369 209.542 440.065 210.124C439.761 210.706 439.325 211.208 438.791 211.59Z" fill="#757B89"/>
<path d="M147.58 348.64L22.9201 276.64C12.3601 270.54 13.6901 259.9 25.9201 252.86L327 78.9999C339.2 71.9999 357.64 71.1899 368.2 77.2899L492.86 149.29C503.42 155.39 502.1 166.04 489.86 173.08L188.78 346.94C176.58 354 158.14 354.74 147.58 348.64Z" fill="#20232D"/>
<path d="M479.491 152.16L430.821 124.06L430.701 124.13C424.951 127.45 415.631 127.45 409.881 124.13C404.131 120.81 404.131 115.43 409.881 112.13L410.001 112L361.331 83.8998C353.941 79.6298 341.951 79.6298 334.561 83.8998L41.271 253.27C33.881 257.54 33.881 264.46 41.271 268.72L159.421 336.94C166.821 341.21 178.801 341.21 186.191 336.94L479.491 167.61C486.881 163.35 486.881 156.43 479.491 152.16Z" fill="white"/>
<path opacity="0.5" d="M479.49 167.61L186.2 337C179.52 340.85 169.07 341.22 161.67 338.1C160.907 337.776 160.162 337.409 159.44 337L41.2801 268.72C39.6465 267.843 38.2289 266.613 37.1301 265.12C34.3401 261.17 35.7201 256.48 41.2801 253.27L334.56 83.9401C341.95 79.6801 353.93 79.6801 361.33 83.9401L410 112.05C409.957 112.062 409.916 112.082 409.88 112.11C404.13 115.43 404.13 120.81 409.88 124.11C415.63 127.41 424.96 127.43 430.7 124.11L430.81 124.04L479.49 152.14C486.88 156.43 486.88 163.34 479.49 167.61Z" fill="url(#paint0_linear_365_4866)"/>
<path d="M417.09 123.19C420.177 123.19 422.68 121.744 422.68 119.96C422.68 118.176 420.177 116.73 417.09 116.73C414.003 116.73 411.5 118.176 411.5 119.96C411.5 121.744 414.003 123.19 417.09 123.19Z" fill="#2B303F"/>
<path opacity="0.1" d="M415.44 120.92C415.236 120.857 415.058 120.73 414.931 120.558C414.805 120.386 414.736 120.178 414.736 119.965C414.736 119.751 414.805 119.544 414.931 119.372C415.058 119.2 415.236 119.073 415.44 119.01C415.952 118.748 416.519 118.612 417.095 118.612C417.67 118.612 418.237 118.748 418.75 119.01C418.954 119.073 419.132 119.2 419.258 119.372C419.385 119.544 419.453 119.751 419.453 119.965C419.453 120.178 419.385 120.386 419.258 120.558C419.132 120.73 418.954 120.857 418.75 120.92C418.237 121.181 417.67 121.318 417.095 121.318C416.519 121.318 415.952 121.181 415.44 120.92Z" fill="white"/>
<path d="M437.132 143.23L435.021 142.01L438.551 139.97L440.661 141.2L437.132 143.23Z" fill="#E9EAF2"/>
<path d="M439.96 144.86L437.84 143.64L442.78 140.79L444.9 142.01L439.96 144.86Z" fill="#E9EAF2"/>
<path d="M442.78 146.49L440.66 145.27L447.72 141.2L449.84 142.42L442.78 146.49Z" fill="#E9EAF2"/>
<path d="M209.39 231.158C235.554 246.262 278.015 246.238 304.231 231.104C330.446 215.97 330.488 191.457 304.324 176.353C278.161 161.248 235.699 161.273 209.484 176.407C183.269 191.541 183.227 216.054 209.39 231.158Z" fill="#E9EAF4"/>
<path d="M272.632 180.262L273.353 180.03L274.57 179.327C274.317 179.212 274.089 179.081 273.89 178.935C273.825 178.835 274.239 178.69 274.239 178.69L275.276 178.735L273.92 178.227L272.892 178.358L270.865 178.083L271.111 178.587L271.233 178.933L271.69 179.291L272.044 179.086C272.044 179.086 272.831 179.355 272.746 179.581L272.225 179.791L272.632 180.262ZM241.457 182.275C241.368 182.14 241.23 182.017 241.053 181.915C240.876 181.813 240.664 181.733 240.43 181.682C240.214 181.81 239.92 181.885 239.611 181.891C239.302 181.896 239.001 181.833 238.772 181.714L239.175 182.537L240.431 182.867L242.025 183.327L242.308 184.346C244.02 184.247 243.792 183.489 243.792 183.489L241.457 182.275ZM243.448 203.573L242.75 202.952L242.191 201.496L240.839 200.716L240.277 199.692L239.81 199.423C239.81 199.423 240.56 199.098 240.466 198.99C240.372 198.881 239.957 197.939 239.957 197.939L238.879 197.643L239.441 197.319L239.116 196.86L238.649 196.59L239.164 196.348C239.164 196.348 240.414 196.11 240.327 195.893C240.24 195.676 241.27 194.108 241.27 194.108L240.721 192.98L239.368 192.199L239.32 190.878L239.097 189.663L239.75 188.53L239.517 187.855C239.517 187.855 238.21 187.695 238.069 187.559C237.928 187.424 237.184 186.509 237.184 186.509L236.483 185.782L234.685 185.407L233.431 186.131L233.278 185.681L233.748 185.409L234.961 185.193L235.711 184.977L235.476 184.628L234.264 184.681L232.447 184.114L231.557 184.303L230.294 184.277L229.595 184.467L229.408 183.389C228.881 183.294 228.366 183.177 227.867 183.039C227.69 182.704 227.566 182.361 227.496 182.013L227.964 181.15L229.554 180.558L231.144 179.907L230.82 179.072L229.605 178.37L228.945 177.667L230.086 177.514L231.628 177.217L232.841 177.055C232.841 177.055 233.315 176.934 233.543 176.975C234.452 177.137 234.152 176.624 234.152 176.624C234.152 176.624 232.994 175.846 232.706 175.789C232.417 175.731 231.631 175.599 231.631 175.599L230.555 176.22L229.196 175.921L227.436 175.267L227.441 174.133C227.438 173.972 228.655 172.893 228.655 172.893L229.821 172.917L230.57 172.81L231.74 172.189L232.859 172.241L233.702 172.025L234.906 172.133L236.184 172.165L236.976 172.409L237.63 173C237.991 172.846 239.403 173.809 239.403 173.809L240.041 174.142L240.336 173.917C240.853 173.944 241.551 174.619 241.551 174.619L242.91 175.28C243.126 175.473 242.79 175.935 242.79 175.935L241.715 175.908L240.971 176.772L240.829 177.284L240.174 177.499L241.204 177.942L242.139 177.453L243.261 176.859L244.303 176.099L246.955 175.536L252.557 176.235L253.307 175.748L254.684 175.221L255.081 175.693L257.431 175.576L259.295 176.115L260.705 176.27L261.968 176.025L263.976 176.645L266.31 177.076L264.846 177.104L264.097 177.428L265.124 177.804L266.293 177.993L267.129 178.262L267.925 178.504L268.533 178.37L268.113 178.128L267.694 177.614C267.588 177.191 267.454 176.668 267.454 176.668C267.521 176.618 267.606 176.578 267.703 176.549C267.8 176.521 267.907 176.505 268.016 176.503L268.818 176.528C268.818 176.528 269.228 176.504 269.091 176.425C268.953 176.345 268.149 175.62 268.149 175.62L266.576 175.234L265.941 174.867L267.429 174.926L268.315 175.437L269.53 175.867L271.565 177.042L272.921 177.553L274.149 177.766L275.23 178.274L276.562 177.83L276.47 177.128L276.017 176.305L276.933 175.559L277.542 174.614L277.076 174.345L276.42 174.669L275.675 174.239L275.114 174.346L274.647 174.294L274.087 174.079L274.088 173.59L275.253 173.564L275.211 172.837L274.836 172.136L274.006 171.657L273.214 171.413L271.393 171.495L270.177 171.442L269.851 171.847L268.832 172.161L268.659 172.423L267.581 172.127L266.51 171.722L266.232 171.453L265.574 171.508L265.036 172.411L264.171 172.317L263.473 171.914L263.644 171.132L263.936 170.801L264.588 170.909L264.836 170.404L263.903 169.812L263.41 168.589L262.803 168.238L263.161 167.869L262.926 167.52L264.236 167.465L265.637 167.679L267.738 168.245L268.484 168.461L269.978 168.998L271.243 169.207L272.644 169.258L273.624 169.824L275.087 170.328L275.835 170.76L277.02 170.437L275.527 169.575L274.537 169.5L273.557 168.934C273.554 168.695 273.445 168.461 273.238 168.254L273.583 168.055L274.564 168.081L275.733 168.177C276.264 168.139 276.784 168.057 277.275 167.933L278.16 168.984L279.237 169.544L279.982 169.927L280.821 170.466L281.146 170.871C280.632 171.005 280.354 170.522 280.354 170.522L278.488 169.659L277.332 169.462L278.081 169.301L277.239 168.869L275.694 168.676L276.019 169.244L277.56 170.133L278.085 170.799L279.065 171.042L279.531 171.634L280.138 172.31L278.729 171.884L277.347 171.597L276.204 171.172L275.18 170.903L274.837 171.463L276.844 172.567L277.318 173.721L278.345 174.313L278.813 174.098L279.465 173.989L280.028 174.206L280.167 173.692L280.418 173.388L280.975 173.71L281.103 174.178C281.193 174.556 282.61 174.653 282.61 174.653L284.22 175.072L283.203 173.989L283.204 173.45C283.624 173.366 282.366 172.155 282.366 172.155L281.851 170.941L281.868 170.57L280.756 169.929L282.016 170.225L283.975 171.624L285.328 172.137L288.551 173.24L290.696 173.993L292.416 174.447L291.192 173.479C291.192 173.479 289.883 173.05 289.742 172.968C289.601 172.887 288.295 172.242 288.154 172.16L284.886 170.274L283.63 169.817L284.334 170.495L283.46 170.352L282.48 169.787L281.732 169.572L283.038 169.678L282.434 169.112L281.219 168.682L279.305 168.384L279.677 168.817L280.786 169.095L281.299 169.55L280.413 169.256L279.758 169.309L280.083 169.659L278.737 168.991L276.918 167.51L274.96 167.618L271.93 167.318L272.023 167.802L271.512 167.736L270.87 167.622L269.878 166.792L267.758 166.079L263.915 164.741L243.69 164.528L234.218 165.253L217.529 172.141L223.129 173.755L223.084 174.537L224.017 175.293L224.297 175.994L225.403 176.27L225.402 177.027L226.055 178.32L227.266 179.236L226.283 180.288C226.283 180.288 226.375 181.366 226.146 181.451C225.917 181.537 225.431 182.226 225.631 182.342C225.931 182.708 226.18 183.087 226.378 183.476L227.079 183.985L228.092 183.762L228.793 184.167L228.093 184.571L227.999 184.951L227.017 185.623L226.502 186.245L225.521 186.273L223.831 186.384L221.59 186.594L220.43 187.372L219.354 187.722L219.82 188.263L218.372 188.397C218.143 188.673 217.889 188.94 217.609 189.199C217.353 189.514 217.134 189.839 216.953 190.171L217.045 190.873L216.386 191.579L214.702 194.384L214.878 195.573L215.672 197.001C215.672 197.001 215.576 198.242 215.491 198.346C215.406 198.449 213.855 199.937 213.855 199.937L212.679 200.591L211.778 201.472L210.514 202.31L208.773 203.478L207.743 204.611L206.199 205.987L205.03 206.069L204.373 206.81L203.334 207.843L203.283 208.625L202.116 209.248L201.134 209.974L200.943 213.428L200.892 214.101L202.341 213.264L203.823 213.493L204.682 212.997L204.163 212.212L204.819 211.833L205.7 211.856L206.913 211.691L207.521 211.34C208.044 211.482 208.083 211.016 208.083 211.016L207.441 210.645L207.999 210.268L208.607 210.619L208.484 210.979L209.352 211.049L209.729 210.401C210.055 210.322 210.477 210.833 210.477 210.833L212.251 211.1L213.275 211.047L214.025 210.614L213.973 210.03L214.253 209.326L214.813 209.649C214.813 209.649 215.232 210.38 215.934 210.296C216.636 210.213 217.617 210.134 217.617 210.134L219.345 209.73C219.345 209.73 222.103 209.269 222.338 209.242C222.573 209.214 224.22 208.155 224.22 208.155L227.015 208.32L228.042 208.913L230.287 208.586L231.863 208.431L233.431 207.526L235.159 206.796L236.255 205.74L239.292 205.494L241.213 205.517L242.569 204.304L243.448 203.573ZM290.593 188.363L290.721 188.651L291.517 188.683L292.121 189.032L292.867 189.245L293.462 189.19L293.82 188.846L294.312 188.837C294.726 188.631 294.395 188.117 294.395 188.117L294.05 187.918L293.132 187.957L292.681 187.696L291.963 187.927L291.609 188.207L291.004 188.126L290.593 188.363ZM296.946 187.949L296.257 187.798L295.538 188.212L295.406 188.35C295.293 188.455 295.16 188.553 295.008 188.641L295.114 188.978L295.245 189.3L295.091 189.573C295.091 189.573 294.724 189.723 294.539 189.617L293.979 189.449L293.847 189.709C293.847 189.709 293.374 189.621 293.211 189.679L293.288 189.97L292.756 189.97L292.173 189.634L291.86 189.815L293.081 190.52L293.898 190.63L294.509 191.135C294.509 191.135 295.251 191.411 295.382 191.487L295.411 191.348L295.837 191.318L296.473 191.287L296.251 190.985L295.96 190.665L296.465 190.435L296.378 190.023L296.103 189.48L296.662 189.096L297.245 188.821L296.619 188.459L296.754 188.23L297.469 188.244L296.946 187.949ZM298.134 191.275L298.335 191.159L298.761 191.405L299.171 191.443L299.836 191.059L300.309 191.148L300.733 190.78L300.411 190.391L299.43 190.101L299.041 190.325L298.537 190.096L298.073 190.241L298.239 190.506L297.443 190.384L297.083 190.437L297.123 190.905L298.134 191.275ZM308.756 216.013L309.568 217.568L310.824 217.888L310.572 218.727L311.823 219.859L312.173 220.467L319.306 218.608L321.503 216.693L327.11 203.335L326.431 200.705L323.273 198.881L321.666 198.185L320.61 198.391L320.141 197.797L320.414 197.231L319.71 196.824L319.709 197.186L319.458 197.624L318.353 196.986L317.729 197.346L317.056 196.824L316.649 196.506L316.245 196.428L316.341 196.662L316.611 196.907L316.181 196.794L315.931 196.454L315.584 196.051L315.776 195.759L315.704 195.356L315.319 195.065L315.373 194.672L315.996 195.101L316.328 195.603L316.769 195.927C316.769 195.927 317.16 196.062 317.138 196.115C317.301 196.297 317.495 196.47 317.717 196.63L318.438 196.684L318.264 195.989L317.403 195.076C317.403 195.076 315.635 193.729 315.532 193.677C315.312 193.464 315.11 193.245 314.928 193.021L314.39 192.507L312.825 191.603L310.003 190.485L307.851 190.21L304.871 190.123C304.871 190.123 303.324 189.454 303.226 189.42C302.819 189.399 302.41 189.394 302.001 189.404L301.634 189.978L301.242 190.114L301.282 190.336L301.125 190.608L301.024 190.912L301.932 191.302L303.267 191.515L303.576 192.095L303.208 192.89L302.778 193.246L303.263 193.661L304.018 193.694L304.541 193.884L305.472 193.614L306.053 193.322L306.808 193.559L307.165 193.353L307.106 193.141L307.009 192.882L307.54 192.464L308.987 192.651C308.987 192.651 309.883 192.676 309.959 192.633C310.034 192.589 310.523 192.575 310.523 192.575C310.523 192.575 310.87 192.8 310.967 192.878C311.064 192.956 311.468 193.435 311.468 193.435L311.527 193.672L310.462 193.459L309.612 193.461L309.086 193.404L308.7 193.963L309.065 194.623L309.879 194.934L311.007 195.523C311.007 195.523 311.989 196.376 312.005 196.433C312.02 196.489 311.478 196.328 311.478 196.328L310.865 196.129L310.42 196.075L310.195 195.677C310.14 195.496 309.997 195.328 309.782 195.193C309.555 195.105 309.297 195.047 309.027 195.025L308.873 195.45L309.004 195.841C309.004 195.841 308.329 196.031 308.232 195.953C308.135 195.876 308.286 195.561 308.286 195.561L308.014 195.201L307.551 195.136L307.162 195.404L306.434 195.679L305.638 195.582L305.015 195.537L304.824 195.112L304.051 194.869L303.065 194.23L302.62 194.22L302.404 193.918C302.404 193.918 301.458 193.415 301.38 193.392C301.242 193.232 301.132 193.064 301.052 192.891L301.344 192.455L301.98 192.42L302.003 192.252L302.175 192.018L302.605 191.995L302.389 191.783L301.424 191.784L300.934 192.041C300.934 192.041 300.742 192.444 300.705 192.488C300.584 192.574 300.454 192.657 300.316 192.734L299.639 192.568L298.963 192.355L298.865 192.523L299.31 192.892L298.821 192.972L298.489 192.802L297.946 192.938L297.636 193.005L297.326 192.692L297.618 192.546L297.985 192.356L297.988 192.155L297.462 192.166L296.844 192.211L296.102 191.917L295.579 191.883L294.958 192.017L294.282 191.873L293.683 191.795L293.408 191.303L293.198 191.338L293.026 191.571L292.734 191.584L292.058 191.125L291.707 190.858L291.105 191.136L291.706 191.617L291.74 191.999C291.74 191.999 291.683 192.346 291.739 192.379C291.796 192.412 292.09 192.694 292.09 192.694L291.08 193.096L289.939 193.353L288.505 192.504L286.959 191.568L286.263 191.387L285.661 191.554L285.332 191.903L284.175 192.246L283.591 192.449C283.433 192.541 283.292 192.643 283.171 192.753C283.155 192.809 282.979 193.178 282.979 193.178L282.145 193.457L282.511 193.85L283.325 194.385L283.534 194.799L283.828 195.034L284.658 195.223L285.645 195.659L287.139 195.736L287.836 195.178L288.964 195.105L290.706 195.328L291.327 195.505L291.967 195.071L292.963 195.219L293.376 195.703L294.034 195.815L295.744 196.339L295.835 197.782L296.393 199.513C296.393 199.513 296.025 200.152 295.988 200.196C295.739 200.258 295.478 200.303 295.21 200.33L294.212 199.753L293.751 199.585C293.751 199.585 293.579 199.819 293.654 199.862C293.729 199.906 294.157 200.58 294.157 200.58L294.213 200.837L294.388 200.891L294.737 200.668L295.163 200.513L295.395 200.69C295.624 200.684 295.852 200.665 296.075 200.633C296.328 200.581 296.585 200.536 296.846 200.499L297.041 200.141L297.433 200.052L297.705 200.256L297.338 200.511L297.454 200.578L297.918 200.267L297.8 199.974L297.659 199.571L297.792 199.158L297.425 198.787L297.254 198.218L297.584 197.872L297.312 197.403L297.598 197.076L298.2 196.909L298.607 197.075L298.199 197.332L298.43 197.6L298.8 197.658L298.52 198.22L298.829 198.866L299.079 199.372L299.386 199.597L299.338 200.293L298.663 200.842L298.62 202.117L297.98 202.664L298.21 203.424L298.599 203.445L298.985 203.088L299.643 203.2L299.86 202.92L299.578 202.587L299.751 202.285L300.394 202.004L300.432 201.693L300.626 201.848L300.585 202.071L301.224 202.016L301.669 202.295L301.941 202.676L301.812 203.152L301.616 203.666C301.616 203.666 301.25 203.61 301.171 203.634C301.067 203.747 300.989 203.867 300.939 203.992L300.979 204.482L300.837 204.965L301.551 205.356L301.315 205.582L301.763 205.906L302.361 206.117L302.813 206.015L302.734 206.307L303.1 206.742L303.619 206.999L304.475 206.975L304.684 207.277L304.784 207.534L304.298 207.702L303.743 208.301L302.586 208.564L301.532 209.173L299.419 207.953L298.303 207.671L297.653 206.546L296.702 206.113L295.773 204.968L294.621 204.303L293.956 204.282L293.605 204.716L292.702 204.717L292.25 203.644L291.248 203.182L291.499 202.631L290.545 201.617L290.061 200.812L289.695 200.192L291.551 200.104L292.153 199.467L291.907 198.915L287.939 197.092L285.985 196.601L285.03 196.108L283.739 195.768L282.838 194.958L281.18 195.044L279.676 194.872L277.153 195.389L276.613 195.946L274.554 195.92L273.1 195.545L271.659 195.799C271.659 195.799 268.091 196.582 267.79 196.641C267.489 196.699 266.331 197.483 266.331 197.483L265.327 198.583L261.812 199.397L261.005 200.326L260.452 201.281L259.847 203.312L258.768 203.884L259.48 206.936L262.3 207.629L263.62 209.101L267.329 209.735C267.329 209.735 268.133 210.2 267.932 210.605C267.731 211.01 267.48 211.329 268.381 211.849C269.283 212.37 268.73 213.213 268.73 213.213L267.175 213.648L266.773 214.112L265.431 214.424L264.413 216.096L263.605 217.372L262.801 218.592L261.094 219.75L259.887 220.274L256.721 220.768L253.957 222.769L253.655 223.406L253.003 223.609L252.951 224.452L251.645 225.726L249.585 226.453L248.931 227.524C248.931 227.524 248.124 228.626 248.024 228.742C247.923 228.858 247.772 229.35 247.471 229.466C247.17 229.582 246.364 229.874 246.364 229.874L245.56 230.569L248.118 232.045L249.725 232.509L255.698 232.477C256.289 232.448 256.876 232.399 257.456 232.33C257.657 232.272 259.915 231.431 259.915 231.431L262.878 232.153L264.519 231.206L265.376 230.19L267.532 230.218L272.203 230.941L273.762 230.33L276.02 229.026L277.176 227.72L278.38 227.198L278.321 226.639L280.681 226.379L282.892 225.507L285.148 225.824L286.317 225.511L291.532 225.454L294.865 224.458L297.012 224.086L298.521 223.215L298.071 222.666L296.614 222.578L295.411 221.999L293.946 221.515L293.596 220.615L294.449 220.238L294.602 218.762L294.103 217.658L295.359 216.297L295.304 214.969L296.61 214.1L297.01 212.882L298.317 210.913L298.316 209.638L299.122 209.057L299.372 209.436L299.471 209.957L298.919 210.508C299.32 210.739 300.223 210.391 300.223 210.391L299.821 211.028L299.23 211.774L298.676 213.37L299.177 213.775L298.419 215.022L297.717 215.37L297.663 217.718L296.106 219.021L295.6 219.718L295.602 220.472L299.414 221.746L300.47 221.772L302.174 222.292L302.776 221.945L305.286 222.234L307.079 221.922L308.035 221.79L309.241 221.675L309.557 220.535L309.38 219.3L309.952 218.543L309.426 218.355L308.209 218.696L306.743 218.212L306.544 217.633L307.197 217.025L306.696 216.852L307.199 215.863L306.961 215.364L307.414 214.293L308.471 214.262L308.756 216.013ZM292.673 198.188L293.259 197.972L293.949 197.574C293.937 197.455 293.868 197.341 293.749 197.244C293.646 197.185 293.509 197.15 293.364 197.145L292.595 197.589C292.463 197.696 292.301 197.79 292.115 197.866L292.673 198.188ZM294.746 196.991C294.801 196.966 294.845 196.933 294.875 196.897C294.904 196.86 294.918 196.82 294.916 196.779C294.913 196.739 294.894 196.699 294.859 196.664C294.825 196.629 294.777 196.599 294.719 196.576L294.004 196.776L293.79 197.112L294.163 197.327L294.746 196.991ZM294.786 181.172L296.664 182.256L299.165 181.994L301.523 183.355L302.843 183.03L305.061 183.423C306.345 183.473 306.745 182.451 306.745 182.451L304.16 180.531L300.847 179.053L297.373 176.128L293.542 175.3C293.542 175.3 290.622 174.799 290.45 174.601C289.982 174.281 289.468 173.984 288.913 173.714C288.913 173.714 288.999 174.749 289.337 175.045C289.6 175.253 289.917 175.436 290.276 175.588C290.276 175.588 289.442 176.069 289.423 176.279C289.334 177.021 287.598 176.609 287.598 176.609L286.789 177.077C286.789 177.077 285.396 178.036 285.719 178.143C286.041 178.249 285.576 178.999 285.576 178.999L285.506 179.947L286.943 180.776L290.876 180.577L293.41 181.152L294.786 181.172ZM280.506 232.014L280.901 231.518L280.372 231.517L279.607 231.691L278.764 231.567L277.833 231.837L276.673 232.123L274.982 231.607L273.455 231.837L271.73 232.681L270.476 232.87L269.382 232.891L268.639 233.548L268.572 234.009L267.71 234.084L267.763 234.477L268.987 235.183L270.711 234.99C270.711 234.99 272.469 234.626 272.57 234.568C272.67 234.51 274.031 234.032 274.031 234.032L276.244 233.86L277.982 232.857L278.645 233.24L279.678 232.416L280.506 232.014ZM239.087 178.712L238.13 177.587C238.13 177.587 237.67 177.387 237.084 177.179C236.666 177.019 236.221 176.883 235.756 176.775L237.114 178.37L237.946 178.85L238.138 180.345L239.077 180.887C239.077 180.887 240.186 181.132 240.529 180.638L239.766 179.701L239.087 178.712Z" fill="#8C50FF"/>
<path opacity="0.05" d="M224.547 227.724C217.172 223.461 211.627 218.261 208.353 212.537C205.078 206.814 204.166 200.726 205.687 194.757C207.209 188.789 211.123 183.105 217.117 178.159C223.111 173.213 231.02 169.14 240.215 166.267C231.016 167.637 222.422 170.119 215.002 173.547C207.582 176.976 201.505 181.274 197.172 186.157C192.839 191.04 190.349 196.396 189.868 201.871C189.387 207.346 190.924 212.815 194.379 217.917C197.834 223.019 203.128 227.637 209.91 231.466C216.692 235.295 224.807 238.248 233.72 240.128C242.633 242.008 252.139 242.774 261.611 242.375C271.082 241.975 280.303 240.419 288.662 237.81C277.368 239.495 265.513 239.451 254.269 237.683C243.024 235.914 232.78 232.481 224.547 227.724Z" fill="black"/>
<path d="M445.6 148.12L443.49 146.9L453.37 141.2L455.49 142.42L445.6 148.12Z" fill="#E9EAF2"/>
<path d="M454.78 153.42L451.49 151.52L458.07 147.72L461.37 149.62L454.78 153.42Z" fill="#E9EAF2"/>
<path d="M459.171 155.96L455.881 154.06L462.471 150.25L465.761 152.15L459.171 155.96Z" fill="#E9EAF2"/>
<path d="M463.561 158.49L460.271 156.59L466.861 152.79L470.151 154.69L463.561 158.49Z" fill="#E9EAF2"/>
<path d="M447.441 168.53L434.951 175.79L315.311 106.72L327.811 99.46L447.441 168.53Z" fill="#E9EAF2"/>
<path d="M256.511 279.49L244.011 286.75L124.381 217.68L136.871 210.42L256.511 279.49Z" fill="#E9EAF2"/>
<path d="M234.341 292.37L221.841 299.64L102.201 230.57L114.701 223.3L234.341 292.37Z" fill="#E9EAF2"/>
<path d="M212.171 305.26L199.671 312.52L80.0312 243.45L92.5312 236.18L212.171 305.26Z" fill="#E9EAF2"/>
<path d="M190.001 318.14L177.501 325.4L57.8613 256.33L70.3613 249.07L190.001 318.14Z" fill="#E9EAF2"/>
<path d="M403.111 194.3L390.601 201.56L270.971 132.49L283.471 125.22L403.111 194.3Z" fill="#E9EAF2"/>
<path d="M425.281 181.41L412.771 188.68L293.141 119.61L305.641 112.34L425.281 181.41Z" fill="#E9EAF2"/>
<path d="M277.711 67.5299L282.631 76.0499L274.441 80.7199L282.571 94.7999L277.621 97.6199L269.491 83.5299L261.301 88.1899L256.391 79.6899L264.581 75.0199L256.441 60.9299L261.391 58.1099L269.521 72.1999L277.711 67.5299Z" fill="white"/>
<path d="M332 61.06L228.83 1.48999C226.04 -0.120015 223.49 -0.380015 221.55 0.489985C221.282 0.611426 221.024 0.755269 220.78 0.919985L210 6.88999L217.84 17.89V95.78C217.84 102.78 222.76 111.3 228.84 114.78L269.26 138.11L274.18 150.8L269 173.27L280.41 166.93L291.59 151L326.59 171.22L327.82 181.71L339.12 175.41C341.47 174.41 342.97 171.86 342.97 168V80.08C343 73.08 338.08 64.56 332 61.06Z" fill="#ADB3BC"/>
<path d="M320.6 67.4001L217.42 7.83013C211.36 4.33013 206.42 7.17013 206.42 14.1701V102.17C206.42 109.17 211.34 117.69 217.42 121.17L257.84 144.5L269 173.27L280.17 157.37L320.59 180.71C326.66 184.21 331.59 181.37 331.59 174.37V86.4201C331.58 79.4201 326.67 70.9001 320.6 67.4001Z" fill="#D1D5DB"/>
<path d="M269.581 50.5C282.731 58.1 293.361 76.5 293.311 91.61C293.261 106.72 282.581 112.82 269.431 105.22C256.281 97.62 245.651 79.22 245.701 64.12C245.751 49.02 256.441 42.91 269.581 50.5ZM282.581 94.8L274.451 80.72L282.641 76.05L277.721 67.53L269.531 72.2L261.401 58.11L256.451 60.93L264.581 75L256.391 79.67L261.301 88.18L269.491 83.51L277.621 97.6L282.571 94.78" fill="#FF5A5A"/>
<path d="M297.211 141.53L297.191 149.28L237.881 115.03L237.901 107.29L297.211 141.53Z" fill="#F0F3F7"/>
<path d="M300.471 129.83L300.451 137.58L234.691 99.6201L234.711 91.8701L300.471 129.83Z" fill="#F0F3F7"/>
</g>
<defs>
<linearGradient id="paint0_linear_365_4866" x1="260.38" y1="340.14" x2="260.38" y2="80.7401" gradientUnits="userSpaceOnUse">
<stop offset="0.21" stop-color="white" stop-opacity="0"/>
<stop offset="1" stop-color="white" stop-opacity="0.2"/>
</linearGradient>
<clipPath id="clip0_365_4866">
<rect width="500" height="373.72" fill="white"/>
</clipPath>
</defs>
</svg>
