<svg width="500" height="374" viewBox="0 0 500 374" fill="none" xmlns="http://www.w3.org/2000/svg">
<g clip-path="url(#clip0_365_4542)">
<path d="M264.401 265.726L160.091 205.486C154.031 201.986 154.791 195.876 161.791 191.836L231.971 151.336C238.971 147.336 249.571 146.846 255.631 150.336L359.971 210.576C366.031 214.076 365.271 220.186 358.271 224.236L288.101 264.746C281.051 268.786 270.461 269.226 264.401 265.726Z" fill="#E9EAF2"/>
<path d="M500.001 170.71V159.67L489.291 166.57L500.001 170.71Z" fill="#B1B4C4"/>
<path opacity="0.4" d="M131.791 369.6L7.13054 297.6C-3.42946 291.5 -2.10946 280.85 10.1305 273.81L311.221 100C323.421 93.0002 341.861 92.2002 352.421 98.2902L477.081 170.29C487.641 176.38 486.311 187.03 474.081 194.07L173.001 367.89C160.791 374.93 142.351 375.7 131.791 369.6Z" fill="#D6D8E5"/>
<path d="M147.58 360.12L22.9201 288.12C12.3601 282.03 13.6901 271.38 25.9201 264.34L327 90.5101C339.2 83.5101 357.64 82.7001 368.2 88.8001L492.86 160.8C503.42 166.9 502.1 177.55 489.86 184.59L188.78 358.42C176.58 365.46 158.14 366.22 147.58 360.12Z" fill="#B1B4C4"/>
<path d="M15.791 277.67V266.19L29.251 271.27L15.791 277.67Z" fill="#B1B4C4"/>
<path d="M147.58 350.41L22.9201 278.41C12.3601 272.31 13.6901 261.66 25.9201 254.62L327 80.7898C339.2 73.7898 357.64 72.9898 368.2 79.0798L492.86 151.08C503.42 157.17 502.1 167.82 489.86 174.86L188.78 348.7C176.58 355.74 158.14 356.51 147.58 350.41Z" fill="#616E84"/>
<path d="M37.9685 293.171C38.6094 292.801 38.6119 291.605 37.974 290.5C37.3361 289.396 36.2994 288.8 35.6585 289.17C35.0176 289.54 35.0152 290.736 35.6531 291.84C36.2909 292.945 37.3276 293.541 37.9685 293.171Z" fill="#757B89"/>
<path d="M43.9685 296.646C44.6094 296.276 44.6119 295.081 43.974 293.976C43.3361 292.871 42.2994 292.275 41.6585 292.645C41.0176 293.015 41.0152 294.211 41.6531 295.316C42.2909 296.421 43.3276 297.017 43.9685 296.646Z" fill="#757B89"/>
<path d="M49.9646 300.103C50.6055 299.732 50.608 298.537 49.9701 297.432C49.3322 296.327 48.2955 295.731 47.6546 296.101C47.0137 296.472 47.0113 297.667 47.6491 298.772C48.287 299.877 49.3237 300.473 49.9646 300.103Z" fill="#757B89"/>
<path d="M55.9666 303.578C56.6075 303.208 56.6099 302.012 55.972 300.907C55.3342 299.802 54.2975 299.207 53.6566 299.577C53.0157 299.947 53.0132 301.142 53.6511 302.247C54.289 303.352 55.3257 303.948 55.9666 303.578Z" fill="#757B89"/>
<path d="M107.494 333.313C108.135 332.943 108.137 331.748 107.499 330.643C106.861 329.538 105.825 328.942 105.184 329.312C104.543 329.682 104.541 330.878 105.178 331.983C105.816 333.088 106.853 333.683 107.494 333.313Z" fill="#757B89"/>
<path d="M113.494 336.789C114.135 336.419 114.137 335.223 113.499 334.118C112.861 333.013 111.825 332.417 111.184 332.788C110.543 333.158 110.541 334.353 111.178 335.458C111.816 336.563 112.853 337.159 113.494 336.789Z" fill="#757B89"/>
<path d="M119.49 340.245C120.131 339.875 120.133 338.679 119.495 337.575C118.858 336.47 117.821 335.874 117.18 336.244C116.539 336.614 116.537 337.81 117.175 338.915C117.812 340.019 118.849 340.615 119.49 340.245Z" fill="#757B89"/>
<path d="M125.492 343.72C126.133 343.35 126.135 342.155 125.497 341.05C124.86 339.945 123.823 339.349 123.182 339.719C122.541 340.089 122.539 341.285 123.176 342.39C123.814 343.495 124.851 344.09 125.492 343.72Z" fill="#757B89"/>
<path d="M88.8212 323.72L72.3412 314.2C71.7649 313.789 71.2936 313.248 70.9652 312.62C70.6369 311.993 70.4608 311.298 70.4512 310.59C70.4512 309.2 71.2912 308.59 72.3412 309.16L88.8212 318.68C89.3974 319.091 89.8688 319.632 90.1971 320.259C90.5255 320.886 90.7016 321.582 90.7112 322.29C90.7112 323.68 89.8712 324.32 88.8212 323.72Z" fill="#757B89"/>
<path d="M462.27 198L446.94 206.85C445.94 207.41 445.18 206.85 445.18 205.52C445.19 204.861 445.354 204.214 445.66 203.631C445.966 203.047 446.404 202.543 446.94 202.16L462.27 193.31C463.27 192.75 464.02 193.31 464.02 194.64C464.011 195.298 463.848 195.945 463.544 196.528C463.24 197.112 462.804 197.616 462.27 198Z" fill="#757B89"/>
<path d="M438.791 211.59L423.461 220.44C422.461 221 421.701 220.44 421.701 219.11C421.712 218.453 421.877 217.808 422.182 217.226C422.488 216.644 422.926 216.142 423.461 215.76L438.791 206.91C439.791 206.35 440.541 206.91 440.541 208.24C440.532 208.897 440.369 209.542 440.065 210.124C439.761 210.706 439.325 211.208 438.791 211.59Z" fill="#757B89"/>
<path d="M147.58 348.64L22.9201 276.64C12.3601 270.54 13.6901 259.9 25.9201 252.86L327 78.9999C339.2 71.9999 357.64 71.1899 368.2 77.2899L492.86 149.29C503.42 155.39 502.1 166.04 489.86 173.08L188.78 346.94C176.58 354 158.14 354.74 147.58 348.64Z" fill="#20232D"/>
<path d="M479.491 152.16L430.821 124.06L430.701 124.13C424.951 127.45 415.631 127.45 409.881 124.13C404.131 120.81 404.131 115.43 409.881 112.13L410.001 112L361.331 83.8998C353.941 79.6298 341.951 79.6298 334.561 83.8998L41.271 253.27C33.881 257.54 33.881 264.46 41.271 268.72L159.421 336.94C166.821 341.21 178.801 341.21 186.191 336.94L479.491 167.61C486.881 163.35 486.881 156.43 479.491 152.16Z" fill="white"/>
<path opacity="0.5" d="M479.49 167.61L186.2 337C179.52 340.85 169.07 341.22 161.67 338.1C160.907 337.776 160.162 337.409 159.44 337L41.2801 268.72C39.6465 267.843 38.2289 266.613 37.1301 265.12C34.3401 261.17 35.7201 256.48 41.2801 253.27L334.56 83.9401C341.95 79.6801 353.93 79.6801 361.33 83.9401L410 112.05C409.957 112.062 409.916 112.082 409.88 112.11C404.13 115.43 404.13 120.81 409.88 124.11C415.63 127.41 424.96 127.43 430.7 124.11L430.81 124.04L479.49 152.14C486.88 156.43 486.88 163.34 479.49 167.61Z" fill="url(#paint0_linear_365_4542)"/>
<path d="M417.09 123.19C420.177 123.19 422.68 121.744 422.68 119.96C422.68 118.176 420.177 116.73 417.09 116.73C414.003 116.73 411.5 118.176 411.5 119.96C411.5 121.744 414.003 123.19 417.09 123.19Z" fill="#2B303F"/>
<path opacity="0.1" d="M415.44 120.92C415.236 120.857 415.058 120.73 414.931 120.558C414.805 120.386 414.736 120.178 414.736 119.965C414.736 119.751 414.805 119.544 414.931 119.372C415.058 119.2 415.236 119.073 415.44 119.01C415.952 118.748 416.519 118.612 417.095 118.612C417.67 118.612 418.237 118.748 418.75 119.01C418.954 119.073 419.132 119.2 419.258 119.372C419.385 119.544 419.453 119.751 419.453 119.965C419.453 120.178 419.385 120.386 419.258 120.558C419.132 120.73 418.954 120.857 418.75 120.92C418.237 121.181 417.67 121.318 417.095 121.318C416.519 121.318 415.952 121.181 415.44 120.92Z" fill="white"/>
<path d="M437.132 143.23L435.021 142.01L438.551 139.97L440.661 141.2L437.132 143.23Z" fill="#E9EAF2"/>
<path d="M439.96 144.86L437.84 143.64L442.78 140.79L444.9 142.01L439.96 144.86Z" fill="#E9EAF2"/>
<path d="M442.78 146.49L440.66 145.27L447.72 141.2L449.84 142.42L442.78 146.49Z" fill="#E9EAF2"/>
<path d="M445.6 148.12L443.49 146.9L453.37 141.2L455.49 142.42L445.6 148.12Z" fill="#E9EAF2"/>
<path d="M454.78 153.42L451.49 151.52L458.07 147.72L461.37 149.62L454.78 153.42Z" fill="#E9EAF2"/>
<path d="M459.171 155.96L455.881 154.06L462.471 150.25L465.761 152.15L459.171 155.96Z" fill="#E9EAF2"/>
<path d="M463.561 158.49L460.271 156.59L466.861 152.79L470.151 154.69L463.561 158.49Z" fill="#E9EAF2"/>
<path d="M447.441 168.53L434.951 175.79L315.311 106.72L327.811 99.46L447.441 168.53Z" fill="#E9EAF2"/>
<path d="M256.511 279.49L244.011 286.75L124.381 217.68L136.871 210.42L256.511 279.49Z" fill="#E9EAF2"/>
<path d="M234.341 292.37L221.841 299.64L102.201 230.57L114.701 223.3L234.341 292.37Z" fill="#E9EAF2"/>
<path d="M212.171 305.26L199.671 312.52L80.0312 243.45L92.5312 236.18L212.171 305.26Z" fill="#E9EAF2"/>
<path d="M190.001 318.14L177.501 325.4L57.8613 256.33L70.3613 249.07L190.001 318.14Z" fill="#E9EAF2"/>
<path d="M403.111 194.3L390.601 201.56L270.971 132.49L283.471 125.22L403.111 194.3Z" fill="#E9EAF2"/>
<path d="M425.281 181.41L412.771 188.68L293.141 119.61L305.641 112.34L425.281 181.41Z" fill="#E9EAF2"/>
<path d="M277.711 67.5299L282.631 76.0499L274.441 80.7199L282.571 94.7999L277.621 97.6199L269.491 83.5299L261.301 88.1899L256.391 79.6899L264.581 75.0199L256.441 60.9299L261.391 58.1099L269.521 72.1999L277.711 67.5299Z" fill="white"/>
<path d="M332 61.06L228.83 1.48999C226.04 -0.120015 223.49 -0.380015 221.55 0.489985C221.282 0.611426 221.024 0.755269 220.78 0.919985L210 6.88999L217.84 17.89V95.78C217.84 102.78 222.76 111.3 228.84 114.78L269.26 138.11L274.18 150.8L269 173.27L280.41 166.93L291.59 151L326.59 171.22L327.82 181.71L339.12 175.41C341.47 174.41 342.97 171.86 342.97 168V80.08C343 73.08 338.08 64.56 332 61.06Z" fill="#EDEEF7"/>
<path d="M320.6 67.4001L217.42 7.83013C211.36 4.33013 206.42 7.17013 206.42 14.1701V102.17C206.42 109.17 211.34 117.69 217.42 121.17L257.84 144.5L269 173.27L280.17 157.37L320.59 180.71C326.66 184.21 331.59 181.37 331.59 174.37V86.4201C331.58 79.4201 326.67 70.9001 320.6 67.4001Z" fill="#F8F9FF"/>
<path d="M269.581 50.5C282.731 58.1 293.361 76.5 293.311 91.61C293.261 106.72 282.581 112.82 269.431 105.22C256.281 97.62 245.651 79.22 245.701 64.12C245.751 49.02 256.441 42.91 269.581 50.5ZM282.581 94.8L274.451 80.72L282.641 76.05L277.721 67.53L269.531 72.2L261.401 58.11L256.451 60.93L264.581 75L256.391 79.67L261.301 88.18L269.491 83.51L277.621 97.6L282.571 94.78" fill="#FF7B7B"/>
<path d="M297.211 141.53L297.191 149.28L237.881 115.03L237.901 107.29L297.211 141.53Z" fill="#C1C4D3"/>
<path d="M300.471 129.83L300.451 137.58L234.691 99.6201L234.711 91.8701L300.471 129.83Z" fill="#C1C4D3"/>
<path d="M267.742 195.777L230.182 201.587L236.212 188.597L177.332 197.707L193.792 207.207L220.432 222.587L247.932 238.467L267.742 195.777Z" fill="#DADCE5"/>
<path d="M316.001 225.136C326.29 225.136 334.631 220.319 334.631 214.376C334.631 208.434 326.29 203.616 316.001 203.616C305.712 203.616 297.371 208.434 297.371 214.376C297.371 220.319 305.712 225.136 316.001 225.136Z" fill="#DADCE5"/>
</g>
<defs>
<linearGradient id="paint0_linear_365_4542" x1="260.38" y1="340.14" x2="260.38" y2="80.7401" gradientUnits="userSpaceOnUse">
<stop offset="0.21" stop-color="white" stop-opacity="0"/>
<stop offset="1" stop-color="white" stop-opacity="0.2"/>
</linearGradient>
<clipPath id="clip0_365_4542">
<rect width="500" height="373.72" fill="white"/>
</clipPath>
</defs>
</svg>
