<svg width="430" height="500" viewBox="0 0 430 500" fill="none" xmlns="http://www.w3.org/2000/svg">
<path opacity="0.4" d="M167.55 279.293L132.92 259.413L170.07 237.973L204.7 257.853L167.55 279.293Z" fill="#D6D8E5"/>
<path d="M171.429 234.652L134.289 213.202L171.429 191.752L208.579 213.202L171.429 234.652Z" fill="#EFDA86"/>
<path d="M206.07 257.043L171.43 277.043V237.043L206.07 217.053V257.043Z" fill="#D1B66B"/>
<path d="M171.431 277.042L136.801 257.042V217.052L171.431 237.042V277.042Z" fill="#E2C979"/>
<path opacity="0.1" d="M136.801 217.052V227.512L171.431 247.282V237.092L136.801 217.052Z" fill="black"/>
<path opacity="0.1" d="M206.07 217.053V228.263L171.43 247.283V237.093L206.07 217.053Z" fill="black"/>
<path d="M134.289 213.203V224.293L171.429 245.453V234.653L134.289 213.203Z" fill="#E2C979"/>
<path d="M171.43 245.452L208.58 225.162V213.202L171.43 234.652V245.452Z" fill="#D1B66B"/>
<path opacity="0.4" d="M307.001 370.002L196.281 306.242C195.647 305.875 195.123 305.343 194.764 304.704C194.406 304.064 194.226 303.34 194.243 302.607C194.261 301.874 194.475 301.159 194.863 300.537C195.252 299.916 195.8 299.41 196.451 299.072L210.381 291.892C210.989 291.581 211.665 291.427 212.347 291.442C213.03 291.458 213.698 291.644 214.291 291.982L328.741 357.882C329.378 358.248 329.904 358.779 330.265 359.419C330.626 360.058 330.807 360.784 330.789 361.518C330.772 362.252 330.557 362.968 330.166 363.59C329.776 364.212 329.225 364.717 328.571 365.052L318.461 370.262C316.682 371.184 314.7 371.643 312.698 371.598C310.695 371.552 308.736 371.004 307.001 370.002Z" fill="#D6D8E5"/>
<path d="M313.801 358.002L219.441 303.522C211.441 298.912 204.971 286.522 204.971 275.872V12.6825C205.001 2.00246 211.451 -2.87754 219.441 1.74246L313.801 56.2125C321.801 60.8325 328.271 73.2125 328.271 83.8625V347.062C328.271 357.722 321.791 362.612 313.801 358.002Z" fill="#B1B4C4"/>
<path d="M315.42 362.742L322.89 358.962L315.72 346.672L315.42 362.742Z" fill="#B1B4C4"/>
<path d="M203.51 4.36244L210.39 0.752441L209 10.9024L203.51 4.36244Z" fill="#B1B4C4"/>
<path d="M307.781 361.002L213.431 306.522C205.431 301.912 198.961 289.522 198.961 278.872V15.6924C199.001 5.00244 205.441 0.132437 213.431 4.74244L307.781 59.2224C315.781 63.8424 322.261 76.2224 322.261 86.8724V350.072C322.261 360.722 315.781 365.622 307.781 361.002Z" fill="#616E84"/>
<path d="M321.251 87.5424V350.732C321.251 361.402 314.781 366.292 306.781 361.682L269.781 340.322L258.271 333.672L212.421 307.202C204.421 302.582 197.961 290.202 197.961 279.552V16.3624C198.001 5.69237 204.431 0.80237 212.421 5.41237L306.781 59.8924C314.781 64.5124 321.251 76.8824 321.251 87.5424Z" fill="#20232D"/>
<path d="M314.44 84.8727V341.213C314.44 347.673 309.91 350.293 304.33 347.053L299.33 344.153L282.19 334.263L274.82 330.003L272.22 328.493L271.35 327.983L265 324.333L246.55 313.693L238.95 309.303L235.87 307.523L217.47 296.903L214.96 295.453C209.36 292.223 204.84 284.373 204.84 277.903V21.5427C204.84 15.0827 209.36 12.4627 214.96 15.6927L251.72 37.0027V37.1027C251.867 39.8388 252.658 42.5015 254.027 44.8749C255.396 47.2483 257.305 49.2655 259.6 50.7627C263.96 53.2627 267.49 51.2327 267.49 46.2127C267.49 46.2127 267.49 46.1327 267.49 46.1027L304.34 67.3727C309.91 70.5627 314.44 78.4127 314.44 84.8727Z" fill="white"/>
<path d="M262.747 48.2706C263.92 47.5968 263.923 45.4029 262.755 43.3705C261.587 41.338 259.69 40.2366 258.517 40.9104C257.345 41.5842 257.341 43.778 258.51 45.8105C259.678 47.8429 261.575 48.9444 262.747 48.2706Z" fill="#2B303F"/>
<path opacity="0.1" d="M259.6 45.8522C259.235 45.6141 258.933 45.2936 258.715 44.9166C258.498 44.5396 258.373 44.1167 258.35 43.6822C258.35 42.8822 258.91 42.5622 259.6 42.9622C259.967 43.1981 260.272 43.5178 260.492 43.8952C260.711 44.2725 260.837 44.6965 260.86 45.1322C260.86 45.9322 260.3 46.2522 259.6 45.8522Z" fill="white"/>
<path d="M325.079 122.172C324.309 122.622 323.689 122.172 323.689 121.172V109.902C323.696 109.381 323.825 108.868 324.067 108.406C324.308 107.944 324.655 107.545 325.079 107.242C325.849 106.792 326.469 107.242 326.469 108.292V119.512C326.463 120.034 326.334 120.546 326.092 121.008C325.851 121.47 325.504 121.869 325.079 122.172Z" fill="#757B89"/>
<path d="M325.079 140.562C324.309 141.002 323.689 140.562 323.689 139.512V128.282C323.698 127.761 323.829 127.25 324.07 126.788C324.311 126.326 324.657 125.927 325.079 125.622C325.849 125.182 326.469 125.622 326.469 126.682V137.902C326.462 138.424 326.333 138.936 326.091 139.398C325.85 139.86 325.503 140.259 325.079 140.562Z" fill="#757B89"/>
<path d="M293.841 172.512L222.841 131.512C219.841 129.772 217.381 125.102 217.381 121.072V41.0724C217.381 37.0724 219.821 35.2024 222.841 36.9424L293.841 77.9424C296.841 79.6824 299.301 84.3524 299.301 88.3724V168.372C299.301 172.402 296.861 174.252 293.841 172.512Z" fill="#E9EAF2"/>
<path d="M293.841 279.562L222.841 238.562C219.841 236.822 217.381 232.152 217.381 228.132V148.133C217.381 144.133 219.821 142.262 222.841 144.002L293.841 185.002C296.841 186.743 299.301 191.413 299.301 195.443V275.443C299.301 279.452 296.861 281.303 293.841 279.562Z" fill="#E9EAF2"/>
<path d="M299.31 302.462V344.152L274.82 330.002L272.22 328.492L271.35 327.982L265 324.332L246.55 313.692L238.9 309.282L235.82 307.502L217.42 296.882V255.182C217.42 251.182 219.87 249.322 222.88 251.062L293.88 292.062C296.86 293.772 299.31 298.442 299.31 302.462Z" fill="#E9EAF2"/>
<path d="M275.6 202.652L241.25 182.822V187.782L275.6 207.612V202.652Z" fill="#D9DAE2"/>
<path opacity="0.4" d="M380.779 394.513L341.289 371.713L346.239 368.843L385.739 391.633L380.779 394.513Z" fill="#D6D8E5"/>
<path d="M396.041 385.912L356.391 363.012L361.351 317.792L391.091 334.962L396.041 385.912Z" fill="#C65555"/>
<path d="M385.74 391.632L346.08 368.742L351.04 323.522L380.78 340.692L385.74 391.632Z" fill="#FF6C6C"/>
<path d="M385.739 391.632L396.039 385.912L391.089 334.962L380.779 340.692L385.739 391.632Z" fill="#DD6262"/>
<path d="M351.039 323.522L361.349 317.792L360.139 328.772L351.039 323.522Z" fill="#C65555"/>
<path d="M373.34 336.293L371.51 335.233C371.51 330.963 369 326.043 365.91 324.233C362.82 322.423 360.32 324.472 360.32 328.742L358.48 327.682C358.48 322.252 361.82 319.752 365.91 322.112C370 324.472 373.34 330.863 373.34 336.293Z" fill="#20232D"/>
<path d="M383.001 330.382L381.171 329.322C381.171 325.052 378.661 320.132 375.571 318.322C372.481 316.512 369.981 318.562 369.981 322.832L368.141 321.772C368.141 316.342 371.481 313.842 375.571 316.202C379.661 318.562 383.001 325.002 383.001 330.382Z" fill="#20232D"/>
<path opacity="0.4" d="M345.259 423.433L288.359 390.603L295.499 386.453L352.399 419.293L345.259 423.433Z" fill="#D6D8E5"/>
<path d="M367.239 411.042L310.119 378.062L317.259 312.922L360.099 337.662L367.239 411.042Z" fill="#C65555"/>
<path d="M352.4 419.292L295.27 386.312L302.41 321.172L345.26 345.902L352.4 419.292Z" fill="#FF6C6C"/>
<path d="M352.4 419.293L367.24 411.043L360.1 337.663L345.26 345.903L352.4 419.293Z" fill="#DD6262"/>
<path d="M302.41 321.172L317.26 312.922L315.52 328.742L302.41 321.172Z" fill="#C65555"/>
<path d="M334.541 339.573L331.901 338.003C331.901 331.853 328.281 324.763 323.841 322.203C319.401 319.643 315.771 322.543 315.771 328.693L313.131 327.173C313.131 319.343 317.931 315.743 323.841 319.173C329.751 322.603 334.541 331.743 334.541 339.573Z" fill="#20232D"/>
<path d="M348.471 331.062L345.831 329.532C345.831 323.382 342.211 316.292 337.771 313.722C333.331 311.152 329.701 314.072 329.701 320.222L327.061 318.702C327.061 310.862 331.871 307.272 337.771 310.702C343.671 314.132 348.471 323.222 348.471 331.062Z" fill="#20232D"/>
<path opacity="0.4" d="M109.47 280.603L88.0898 268.333L112.1 254.473L133.47 266.753L109.47 280.603Z" fill="#D6D8E5"/>
<path d="M112.94 252.433L90.0098 239.193L112.94 225.953L135.87 239.193L112.94 252.433Z" fill="#EFDA86"/>
<path d="M134.319 266.253L112.939 278.592V253.902L134.319 241.562V266.253Z" fill="#D1B66B"/>
<path d="M112.941 278.592L91.5605 266.253V241.562L112.941 253.902V278.592Z" fill="#E2C979"/>
<path opacity="0.1" d="M91.5605 241.562V248.023L112.941 260.223V253.932L91.5605 241.562Z" fill="black"/>
<path opacity="0.1" d="M134.319 241.562V248.482L112.939 260.223V253.932L134.319 241.562Z" fill="black"/>
<path d="M90.0098 239.192V246.032L112.94 259.092V252.432L90.0098 239.192Z" fill="#E2C979"/>
<path d="M112.939 259.092L135.869 246.572V239.192L112.939 252.432V259.092Z" fill="#D1B66B"/>
<path opacity="0.4" d="M389.249 422.322L369.949 411.252L391.669 398.712L410.969 409.792L389.249 422.322Z" fill="#D6D8E5"/>
<path d="M392.43 396.862L371.73 384.912L392.43 372.962L413.13 384.912L392.43 396.862Z" fill="#EFDA86"/>
<path d="M411.73 409.343L392.43 420.483V398.193L411.73 387.053V409.343Z" fill="#D1B66B"/>
<path d="M392.431 420.483L373.131 409.343V387.053L392.431 398.193V420.483Z" fill="#E2C979"/>
<path opacity="0.1" d="M373.131 387.053V392.883L392.431 403.903V398.223L373.131 387.053Z" fill="black"/>
<path opacity="0.1" d="M411.73 387.053V393.303L392.43 403.903V398.223L411.73 387.053Z" fill="black"/>
<path d="M371.73 384.913V391.093L392.43 402.883V396.863L371.73 384.913Z" fill="#E2C979"/>
<path d="M392.43 402.883L413.13 391.573V384.913L392.43 396.863V402.883Z" fill="#D1B66B"/>
<path opacity="0.4" d="M161.369 313.522L120.279 289.812L125.439 286.822L166.529 310.532L161.369 313.522Z" fill="#D6D8E5"/>
<path d="M177.25 304.572L135.99 280.752L141.15 233.712L172.09 251.582L177.25 304.572Z" fill="#C65555"/>
<path d="M166.53 310.532L125.27 286.712L130.43 239.672L161.37 257.532L166.53 310.532Z" fill="#FF6C6C"/>
<path d="M166.529 310.533L177.249 304.573L172.089 251.583L161.369 257.533L166.529 310.533Z" fill="#DD6262"/>
<path d="M130.43 239.672L141.15 233.712L139.9 245.132L130.43 239.672Z" fill="#C65555"/>
<path d="M153.63 253.003L151.73 251.903C151.73 247.453 149.11 242.333 145.9 240.483C142.69 238.633 140.08 240.733 140.08 245.173L138.17 244.073C138.17 238.423 141.64 235.823 145.9 238.283C150.16 240.743 153.63 247.303 153.63 253.003Z" fill="#20232D"/>
<path d="M163.69 246.812L161.79 245.712C161.79 241.272 159.17 236.142 155.96 234.292C152.75 232.442 150.14 234.542 150.14 238.982L148.23 237.882C148.23 232.232 151.7 229.632 155.96 232.092C160.22 234.552 163.69 241.152 163.69 246.812Z" fill="#20232D"/>
<path opacity="0.4" d="M43.6 500.003C67.6796 500.003 87.2 488.734 87.2 474.833C87.2 460.932 67.6796 449.663 43.6 449.663C19.5204 449.663 0 460.932 0 474.833C0 488.734 19.5204 500.003 43.6 500.003Z" fill="#D6D8E5"/>
<path d="M11.6305 286.292C11.1405 290.532 6.09055 308.812 7.17055 315.072C8.25055 321.332 25.5205 331.802 25.5205 331.802L27.9205 321.082L18.3505 311.722L20.9405 294.002L11.6305 286.292Z" fill="#FFCEA9"/>
<path d="M25.0007 268.282C23.321 267.503 21.4132 267.368 19.6409 267.905C17.8685 268.442 16.3557 269.612 15.3907 271.192C12.8507 275.392 10.2107 289.832 9.9707 292.292C9.9707 292.292 13.5407 297.222 18.8807 296.392L25.0007 268.282Z" fill="#EDEDED"/>
<path d="M44.7104 472.072C48.466 473.114 52.481 472.628 55.8804 470.722C58.5704 470.802 73.1804 464.552 75.1704 469.802C76.9104 474.402 70.5904 478.662 67.1704 479.482C59.7904 481.272 54.3304 484.952 51.3704 485.572C49.1604 486.042 46.3004 486.342 44.5404 484.572C42.4604 482.522 42.6404 474.822 44.7104 472.072Z" fill="#2B2A30"/>
<path d="M51.4003 484.303C54.4003 483.673 59.8203 479.993 67.2003 478.203C70.0403 477.523 74.9203 474.423 75.4103 470.723C76.0703 474.963 70.4103 478.723 67.2003 479.483C59.8203 481.273 54.3603 484.953 51.4003 485.573C49.1903 486.043 46.3303 486.343 44.5703 484.573C44.1028 484.069 43.7602 483.463 43.5703 482.803C46.1703 485.003 49.1903 484.763 51.4003 484.303Z" fill="#9C73FF"/>
<path d="M20.9998 461.433C24.7554 462.474 28.7704 461.989 32.1698 460.083C34.8598 460.163 49.4698 453.903 51.4598 459.163C53.1998 463.763 46.8798 468.023 43.4598 468.843C36.0798 470.633 30.6198 474.313 27.6598 474.933C25.4498 475.403 22.5898 475.703 20.8298 473.933C18.7598 471.883 18.9398 464.173 20.9998 461.433Z" fill="#2B2A30"/>
<path d="M27.6991 473.653C30.6991 473.033 36.1191 469.353 43.4991 467.563C46.3391 466.883 51.2191 463.773 51.7091 460.083C52.3691 464.323 46.6591 468.083 43.4991 468.843C36.1191 470.633 30.6591 474.313 27.6991 474.933C25.4891 475.403 22.6291 475.703 20.8691 473.933C20.3996 473.434 20.0566 472.831 19.8691 472.173C22.4691 474.343 25.4891 474.123 27.6991 473.653Z" fill="#9C73FF"/>
<path d="M20.7202 421.732C21.3465 416.306 22.4746 410.95 24.0902 405.732C24.0902 405.732 23.0902 391.922 22.5802 378.832C22.0002 364.002 16.8502 350.882 20.9202 339.002L66.7702 349.202C66.7702 349.202 64.0002 408.462 63.3802 415.632C63.0438 421.216 62.3591 426.774 61.3302 432.272C59.2302 443.772 55.8302 471.132 55.8302 471.132C50.9802 473.942 44.6202 472.382 44.6202 472.382C44.6202 472.382 44.9702 437.792 45.2802 429.502C45.6602 419.382 45.9702 420.152 45.9702 420.152L44.4602 395.002L43.4602 382.462C43.4602 382.462 42.1902 391.662 41.3702 399.882C40.6502 407.052 38.9202 413.532 36.9802 426.882C35.3102 438.452 32.5902 461.712 32.5902 461.712C27.7402 464.532 21.1602 462.192 21.1602 462.192C21.1602 462.192 19.4002 431.772 20.7202 421.732Z" fill="#8C50FF"/>
<path d="M27.4094 268.533C30.8994 268.703 33.4994 269.603 33.9394 268.533C34.3121 266.73 34.5792 264.907 34.7395 263.073C34.3295 262.073 33.9895 260.973 33.9895 260.973C29.5995 258.273 28.2194 253.533 27.6394 247.973C26.6394 238.543 31.7494 230.293 41.1894 229.303C50.0494 228.383 56.5795 234.613 58.3195 243.163C59.2594 247.393 61.1194 255.373 58.5994 262.323C57.1894 266.213 55.3694 269.323 53.5494 269.893C51.7949 269.848 50.0449 269.694 48.3095 269.433C48.3095 269.433 47.8394 272.053 47.5194 273.733C47.1994 275.413 47.3194 276.302 50.6694 278.362C54.0194 280.423 45.6095 284.663 40.1095 284.253C34.6095 283.843 28.4294 280.513 26.7394 276.963C24.8494 273.083 24.9994 268.423 27.4094 268.533Z" fill="#FFCEA9"/>
<path d="M32.4604 269.053C31.4604 271.463 33.9504 274.413 40.4604 276.473C46.9704 278.533 47.6104 275.883 47.6104 275.883C47.6104 275.883 57.2304 280.263 60.3604 282.453C64.2904 285.203 66.0404 293.163 66.5704 306.603C67.1804 322.163 67.2404 345.243 66.7204 349.223C66.7204 349.223 59.3604 356.553 49.9504 355.783C40.5404 355.013 24.7004 346.673 20.8504 340.243C20.9604 326.603 22.5604 324.383 20.3504 316.523C15.2904 298.523 12.6304 291.173 15.0904 279.223C17.0904 269.373 19.9504 268.143 23.8404 268.223C26.7268 268.341 29.6045 268.618 32.4604 269.053Z" fill="#F4F4F4"/>
<path d="M81.4203 319.472C73.6903 321.412 71.8803 316.542 70.8603 312.472C68.4003 302.702 67.0803 293.882 65.2503 288.342C63.0903 281.802 60.8303 280.762 57.6503 279.492C53.9203 277.992 50.7103 281.142 51.9603 289.492C53.4203 299.342 55.3503 306.252 59.0303 317.892C60.0303 320.892 62.1503 326.342 65.3803 328.952C69.3803 332.172 75.3803 332.032 84.4503 329.782C88.3203 328.782 92.5703 326.502 99.9003 323.082C101.9 322.162 103.4 321.552 107.17 319.792C110.94 318.032 114.87 315.102 116.85 312.232C118.83 309.362 118.49 307.552 118.08 306.902C117.57 306.082 117.29 306.732 116.23 307.902C114.702 309.937 112.819 311.679 110.67 313.042C110.67 313.042 113.11 310.522 114.44 308.882C115.621 307.429 116.603 305.825 117.36 304.112C118.06 302.442 116.62 300.172 115.52 301.362C114.42 302.552 113.91 303.762 111.91 306.162C110.858 307.438 109.656 308.583 108.33 309.572C109.569 307.896 110.672 306.124 111.63 304.272C112.9 301.682 108.63 303.032 106.24 305.552C104.47 307.382 102.97 308.442 102.93 307.932C102.89 307.422 99.4403 311.122 97.6903 312.932C95.7903 315.052 88.7603 317.622 81.4203 319.472Z" fill="#FFCEA9"/>
<path d="M54.7905 278.193C59.9505 277.433 63.6005 279.753 65.8705 287.573C68.1405 295.393 69.7505 301.803 69.7505 301.803C67.7093 304.754 64.6129 306.808 61.1005 307.543C54.9305 309.043 52.7105 306.093 52.7105 306.093C52.7105 306.093 51.0005 297.903 49.9305 292.323C48.8605 286.743 48.4105 279.143 54.7905 278.193Z" fill="#EDEDED"/>
<path d="M58.0001 242.003C58.0001 242.003 66.1501 229.603 48.4901 227.083C35.7501 225.263 27.5701 233.443 26.6201 242.323C25.7201 250.813 30.9401 259.623 34.7201 263.113C36.5601 263.773 40.5201 264.113 45.7201 261.783C45.9321 259.472 46.0155 257.152 45.9701 254.833C45.9701 254.833 39.7801 241.773 58.0001 242.003Z" fill="#3A2C6D"/>
<path d="M99.4007 309.733C99.4007 309.733 97.4007 306.083 98.6607 305.173C99.9207 304.263 101.751 307.683 102.121 309.023C102.491 310.363 101.981 308.613 101.981 308.613C101.981 308.613 100.611 304.493 101.501 303.703C102.391 302.913 103.591 304.703 104.781 307.263C105.971 309.823 105.081 307.033 105.081 307.033C105.081 307.033 103.081 302.903 103.951 302.333C105.081 301.563 106.951 304.013 108.061 306.223C109.171 308.433 106.571 311.043 106.571 311.043L99.4007 309.733Z" fill="#FFCEA9"/>
<path d="M103.26 316.253L95.7704 311.923C95.1404 311.563 95.2204 310.923 95.9504 310.503L114 300.053C114.375 299.844 114.794 299.726 115.223 299.708C115.652 299.691 116.08 299.775 116.47 299.953L123.96 304.273C124.59 304.643 124.51 305.273 123.78 305.703L105.69 316.143C105.321 316.347 104.91 316.463 104.488 316.482C104.067 316.501 103.647 316.423 103.26 316.253Z" fill="#B1B4C4"/>
<path d="M95.3398 311.303V310.613L96.1498 310.913L95.3398 311.303Z" fill="#B1B4C4"/>
<path d="M124.419 304.872V304.212L123.779 304.622L124.419 304.872Z" fill="#B1B4C4"/>
<path d="M103.26 315.663L95.7704 311.343C95.1404 310.973 95.2204 310.343 95.9504 309.913L114 299.473C114.375 299.264 114.794 299.146 115.223 299.128C115.652 299.111 116.08 299.195 116.47 299.373L123.96 303.693C124.59 304.063 124.51 304.693 123.78 305.123L105.69 315.563C105.32 315.765 104.909 315.88 104.487 315.897C104.066 315.914 103.646 315.834 103.26 315.663Z" fill="#616E84"/>
<path d="M97.0546 313.474C97.0929 313.452 97.0927 313.38 97.0542 313.313C97.0157 313.246 96.9534 313.21 96.9151 313.232C96.8768 313.254 96.8769 313.326 96.9155 313.393C96.954 313.46 97.0163 313.496 97.0546 313.474Z" fill="#757B89"/>
<path d="M97.0335 312.437C97.0718 312.415 97.0714 312.343 97.0328 312.276C96.9941 312.209 96.9318 312.173 96.8935 312.195C96.8552 312.217 96.8556 312.289 96.8942 312.356C96.9329 312.423 96.9952 312.459 97.0335 312.437Z" fill="#757B89"/>
<path d="M97.3909 312.649C97.4292 312.627 97.4289 312.555 97.3902 312.488C97.3515 312.421 97.2892 312.385 97.2509 312.407C97.2127 312.429 97.213 312.501 97.2516 312.568C97.2903 312.635 97.3527 312.671 97.3909 312.649Z" fill="#757B89"/>
<path d="M97.7562 312.861C97.7944 312.839 97.7941 312.767 97.7554 312.7C97.7168 312.633 97.6544 312.597 97.6162 312.619C97.5779 312.641 97.5782 312.713 97.6169 312.78C97.6555 312.847 97.7179 312.883 97.7562 312.861Z" fill="#757B89"/>
<path d="M100.848 314.646C100.886 314.624 100.886 314.552 100.847 314.485C100.809 314.418 100.746 314.382 100.708 314.404C100.67 314.426 100.67 314.498 100.709 314.565C100.747 314.632 100.81 314.668 100.848 314.646Z" fill="#757B89"/>
<path d="M101.2 314.849C101.238 314.827 101.237 314.755 101.199 314.688C101.16 314.621 101.098 314.585 101.06 314.607C101.021 314.629 101.022 314.701 101.06 314.768C101.099 314.835 101.161 314.872 101.2 314.849Z" fill="#757B89"/>
<path d="M101.567 315.061C101.605 315.039 101.605 314.967 101.566 314.9C101.527 314.833 101.465 314.797 101.427 314.819C101.388 314.841 101.389 314.913 101.427 314.98C101.466 315.047 101.528 315.083 101.567 315.061Z" fill="#757B89"/>
<path d="M102.328 316.526C102.366 316.504 102.366 316.431 102.328 316.364C102.289 316.297 102.227 316.261 102.189 316.283C102.15 316.305 102.15 316.377 102.189 316.444C102.227 316.511 102.29 316.548 102.328 316.526Z" fill="#757B89"/>
<path d="M99.7291 314.062L98.7291 313.492C98.6953 313.467 98.6678 313.433 98.6487 313.395C98.6296 313.357 98.6195 313.315 98.6191 313.272C98.6191 313.192 98.6691 313.152 98.7291 313.192L99.7291 313.762C99.7628 313.786 99.7903 313.818 99.8095 313.854C99.8286 313.891 99.8388 313.931 99.8391 313.972C99.8391 314.062 99.7891 314.102 99.7291 314.062Z" fill="#757B89"/>
<path d="M122.159 306.512L121.239 307.042C121.179 307.042 121.129 307.042 121.129 306.962C121.132 306.923 121.143 306.885 121.162 306.85C121.181 306.816 121.207 306.786 121.239 306.762L122.159 306.232C122.219 306.232 122.259 306.232 122.259 306.312C122.261 306.351 122.252 306.39 122.235 306.425C122.217 306.46 122.191 306.49 122.159 306.512Z" fill="#757B89"/>
<path d="M120.751 307.332L119.831 307.862C119.771 307.862 119.721 307.862 119.721 307.782C119.721 307.743 119.731 307.703 119.75 307.669C119.77 307.634 119.797 307.604 119.831 307.582L120.751 307.042C120.811 307.042 120.851 307.042 120.851 307.122C120.851 307.163 120.842 307.202 120.824 307.239C120.807 307.275 120.782 307.307 120.751 307.332Z" fill="#757B89"/>
<path d="M103.26 315.563L95.7704 311.233C95.1404 310.873 95.2204 310.233 95.9504 309.813L114 299.363C114.376 299.156 114.795 299.039 115.224 299.022C115.652 299.004 116.079 299.087 116.47 299.263L123.96 303.583C124.59 303.953 124.51 304.583 123.78 305.013L105.69 315.453C105.321 315.657 104.91 315.773 104.488 315.792C104.067 315.811 103.647 315.733 103.26 315.563Z" fill="#20232D"/>
<path d="M123.191 303.763L120.271 302.073C120.077 302.171 119.863 302.222 119.646 302.222C119.428 302.222 119.214 302.171 119.021 302.073C118.945 302.047 118.88 301.999 118.834 301.934C118.787 301.87 118.762 301.792 118.762 301.713C118.762 301.633 118.787 301.556 118.834 301.491C118.88 301.427 118.945 301.378 119.021 301.353L116.101 299.663C115.852 299.535 115.576 299.468 115.296 299.468C115.016 299.468 114.74 299.535 114.491 299.663L96.8706 309.833C96.773 309.865 96.688 309.927 96.6278 310.011C96.5676 310.094 96.5352 310.195 96.5352 310.298C96.5352 310.401 96.5676 310.501 96.6278 310.584C96.688 310.668 96.773 310.73 96.8706 310.763L103.971 314.853C104.22 314.981 104.496 315.048 104.776 315.048C105.056 315.048 105.332 314.981 105.581 314.853L123.191 304.683C123.29 304.653 123.377 304.592 123.438 304.51C123.5 304.427 123.534 304.326 123.534 304.223C123.534 304.119 123.5 304.019 123.438 303.936C123.377 303.853 123.29 303.792 123.191 303.763Z" fill="#2B303F"/>
<path opacity="0.5" d="M123.191 303.763L120.271 302.073C120.077 302.171 119.863 302.222 119.646 302.222C119.428 302.222 119.214 302.171 119.021 302.073C118.945 302.047 118.88 301.999 118.834 301.934C118.787 301.87 118.762 301.792 118.762 301.713C118.762 301.633 118.787 301.556 118.834 301.491C118.88 301.427 118.945 301.378 119.021 301.353L116.101 299.663C115.852 299.535 115.576 299.468 115.296 299.468C115.016 299.468 114.74 299.535 114.491 299.663L96.8706 309.833C96.773 309.865 96.688 309.927 96.6278 310.011C96.5676 310.094 96.5352 310.195 96.5352 310.298C96.5352 310.401 96.5676 310.501 96.6278 310.584C96.688 310.668 96.773 310.73 96.8706 310.763L103.971 314.853C104.22 314.981 104.496 315.048 104.776 315.048C105.056 315.048 105.332 314.981 105.581 314.853L123.191 304.683C123.29 304.653 123.377 304.592 123.438 304.51C123.5 304.427 123.534 304.326 123.534 304.223C123.534 304.119 123.5 304.019 123.438 303.936C123.377 303.853 123.29 303.792 123.191 303.763Z" fill="url(#paint0_linear_459_19393)"/>
<path d="M119.449 302.013C119.637 302.013 119.789 301.928 119.789 301.823C119.789 301.718 119.637 301.633 119.449 301.633C119.262 301.633 119.109 301.718 119.109 301.823C119.109 301.928 119.262 302.013 119.449 302.013Z" fill="#2B303F"/>
<path opacity="0.1" d="M119.35 301.883C119.29 301.883 119.29 301.803 119.35 301.773C119.379 301.753 119.414 301.742 119.45 301.742C119.485 301.742 119.52 301.753 119.55 301.773C119.56 301.777 119.57 301.785 119.576 301.795C119.582 301.804 119.586 301.816 119.586 301.828C119.586 301.839 119.582 301.851 119.576 301.86C119.57 301.87 119.56 301.878 119.55 301.883C119.519 301.898 119.484 301.905 119.45 301.905C119.415 301.905 119.381 301.898 119.35 301.883Z" fill="white"/>
<path d="M114.9 314.522C114.9 314.522 118.9 310.952 118.67 306.222C118.43 302.922 116.44 305.302 116.44 305.302L114.44 308.932C114.44 308.932 112.44 311.522 110.6 312.112C109.194 312.247 107.795 312.454 106.41 312.732C103.95 313.212 101.5 316.282 101.5 316.282L104.67 318.712L114.9 314.522Z" fill="#FFCEA9"/>
<path d="M424.669 138.603L401.169 125.003C400.788 124.745 400.352 124.578 399.896 124.516C399.44 124.454 398.976 124.497 398.539 124.643C398.349 124.72 398.17 124.825 398.009 124.953L393.699 127.423L396.699 131.583V153.913C396.699 157.193 398.699 161.003 401.159 162.423L421.889 174.423L422.569 179.113C422.709 179.043 426.279 176.993 427.409 176.333C427.518 176.283 427.622 176.222 427.719 176.153C428.2 175.718 428.573 175.177 428.808 174.573C429.042 173.969 429.132 173.318 429.069 172.673V147.113C429.119 143.833 427.129 140.003 424.669 138.603Z" fill="#D9DAE2"/>
<path d="M419.809 178.813L396.309 165.243C393.849 163.823 391.859 160.013 391.859 156.733V131.183C391.859 127.903 393.859 126.403 396.309 127.823L419.809 141.383C422.269 142.803 424.269 146.623 424.269 149.903V175.443C424.269 178.723 422.269 180.233 419.809 178.813Z" fill="#EFF0F9"/>
<path d="M398.789 140.752C398.789 139.312 399.199 138.382 400.009 137.952C400.819 137.522 401.879 137.682 403.189 138.442C404.515 139.208 405.621 140.304 406.399 141.622C407.191 142.917 407.61 144.405 407.609 145.922V147.082C407.609 148.532 407.209 149.462 406.399 149.882C405.589 150.302 404.529 150.122 403.219 149.362C401.891 148.599 400.784 147.503 400.009 146.182C399.214 144.892 398.792 143.408 398.789 141.892V140.752ZM401.469 143.542C401.469 144.183 401.634 144.814 401.949 145.372C402.239 145.923 402.68 146.381 403.219 146.692C403.739 146.992 404.149 147.032 404.459 146.812C404.633 146.641 404.764 146.432 404.844 146.201C404.924 145.97 404.95 145.724 404.919 145.482V144.292C404.919 143.654 404.761 143.025 404.459 142.462C404.172 141.906 403.731 141.445 403.189 141.132C403.022 141.002 402.823 140.922 402.612 140.899C402.402 140.876 402.19 140.912 401.999 141.002C401.679 141.212 401.519 141.662 401.519 142.362L401.469 143.542ZM403.999 161.002L401.999 158.642L411.999 146.002L413.999 148.362L403.999 161.002ZM408.489 159.602C408.489 158.152 408.899 157.222 409.719 156.802C410.539 156.382 411.599 156.562 412.899 157.312C414.216 158.078 415.317 159.165 416.099 160.472C416.902 161.773 417.325 163.273 417.319 164.802V165.962C417.319 167.392 416.919 168.332 416.119 168.752C415.319 169.172 414.259 169.002 412.929 168.232C411.595 167.469 410.485 166.369 409.709 165.042C408.921 163.764 408.499 162.294 408.489 160.792V159.602ZM411.169 162.402C411.182 163.038 411.354 163.66 411.669 164.212C411.958 164.769 412.394 165.236 412.929 165.562C414.059 166.222 414.629 165.822 414.629 164.372V163.142C414.629 162.506 414.467 161.88 414.159 161.322C413.869 160.774 413.433 160.317 412.899 160.002C412.726 159.862 412.515 159.775 412.293 159.751C412.071 159.728 411.848 159.77 411.649 159.872C411.466 160.035 411.326 160.241 411.242 160.472C411.159 160.702 411.133 160.95 411.169 161.192V162.402Z" fill="#E26161"/>
<path d="M124.06 67.3422L100.56 53.7722C100.178 53.5145 99.7429 53.348 99.2868 53.2855C98.8308 53.2231 98.3665 53.2665 97.9298 53.4122C97.7416 53.4944 97.5637 53.5984 97.3998 53.7222L93.0898 56.1922L96.0898 60.3522V82.6822C96.0898 85.9622 98.0898 89.7723 100.54 91.1922L121.27 103.192L121.96 107.892L126.79 105.102C126.896 105.052 127 104.995 127.1 104.932C127.585 104.501 127.962 103.961 128.198 103.356C128.435 102.751 128.524 102.098 128.46 101.452V75.8522C128.52 72.5722 126.52 68.7622 124.06 67.3422Z" fill="#D9DAE2"/>
<path d="M119.21 107.552L95.71 94.0023C93.25 92.5823 91.25 88.7723 91.25 85.4923V59.9323C91.25 56.6523 93.25 55.1423 95.71 56.5623L119.21 70.1323C121.67 71.5523 123.66 75.3623 123.66 78.6423V104.182C123.66 107.462 121.67 109.002 119.21 107.552Z" fill="#EFF0F9"/>
<path d="M107.461 69.9927L110.641 79.2827L117.771 84.5927L112.611 87.4227L113.831 96.3127L107.461 88.7727L101.081 88.9527L102.301 81.4627L97.1406 72.6827L104.271 75.6027L107.461 69.9927Z" fill="#F9CB07"/>
<defs>
<linearGradient id="paint0_linear_459_19393" x1="92.0137" y1="321.405" x2="101.602" y2="304.722" gradientUnits="userSpaceOnUse">
<stop offset="0.21" stop-color="white" stop-opacity="0"/>
<stop offset="1" stop-color="white" stop-opacity="0.2"/>
</linearGradient>
</defs>
</svg>
