<svg width="500" height="372" viewBox="0 0 500 372" fill="none" xmlns="http://www.w3.org/2000/svg">
<path opacity="0.4" d="M131.787 367.72L7.12664 295.72C-3.43337 289.63 -2.11336 278.98 10.1266 271.94L311.217 98.1005C323.417 91.1005 341.857 90.2905 352.417 96.3905L477.077 168.39C487.637 174.49 486.307 185.14 474.077 192.18L172.997 366C160.787 373.05 142.347 373.81 131.787 367.72Z" fill="#D6D8E5"/>
<path d="M147.576 358.241L22.9162 286.241C12.3562 280.141 13.6862 269.491 25.9162 262.451L326.996 88.6206C339.196 81.6206 357.636 80.8206 368.196 86.9106L492.856 158.911C503.416 165.001 502.096 175.651 489.856 182.691L188.776 356.531C176.576 363.571 158.136 364.341 147.576 358.241Z" fill="#B1B4C4"/>
<path d="M15.7871 275.791V264.311L29.2471 269.391L15.7871 275.791Z" fill="#B1B4C4"/>
<path d="M499.997 168.831V157.791L489.287 164.691L499.997 168.831Z" fill="#B1B4C4"/>
<path d="M147.576 348.531L22.9162 276.531C12.3562 270.441 13.6862 259.791 25.9162 252.751L326.996 78.9105C339.196 71.9105 357.636 71.1005 368.196 77.2005L492.856 149.201C503.416 155.301 502.096 165.951 489.856 172.991L188.776 346.821C176.576 353.861 158.136 354.621 147.576 348.531Z" fill="#616E84"/>
<path d="M37.9646 291.294C38.6055 290.924 38.608 289.728 37.9701 288.623C37.3322 287.518 36.2955 286.923 35.6546 287.293C35.0137 287.663 35.0113 288.858 35.6491 289.963C36.287 291.068 37.3237 291.664 37.9646 291.294Z" fill="#757B89"/>
<path d="M43.9607 294.76C44.6016 294.39 44.6041 293.194 43.9662 292.089C43.3283 290.985 42.2916 290.389 41.6507 290.759C41.0098 291.129 41.0073 292.325 41.6452 293.429C42.2831 294.534 43.3198 295.13 43.9607 294.76Z" fill="#757B89"/>
<path d="M49.9705 298.225C50.6114 297.855 50.6138 296.659 49.9759 295.555C49.3381 294.45 48.3014 293.854 47.6605 294.224C47.0196 294.594 47.0171 295.79 47.655 296.895C48.2929 297.999 49.3296 298.595 49.9705 298.225Z" fill="#757B89"/>
<path d="M55.9666 301.692C56.6075 301.322 56.6099 300.126 55.972 299.021C55.3342 297.916 54.2975 297.321 53.6566 297.691C53.0157 298.061 53.0132 299.256 53.6511 300.361C54.289 301.466 55.3257 302.062 55.9666 301.692Z" fill="#757B89"/>
<path d="M107.913 332.754C108.557 332.384 108.562 331.185 107.924 330.075C107.286 328.965 106.247 328.365 105.603 328.735C104.959 329.105 104.955 330.305 105.592 331.415C106.23 332.525 107.269 333.124 107.913 332.754Z" fill="#757B89"/>
<path d="M113.486 334.902C114.127 334.532 114.129 333.337 113.492 332.232C112.854 331.127 111.817 330.531 111.176 330.901C110.535 331.271 110.533 332.467 111.171 333.572C111.809 334.677 112.845 335.272 113.486 334.902Z" fill="#757B89"/>
<path d="M119.486 338.367C120.127 337.997 120.129 336.802 119.492 335.697C118.854 334.592 117.817 333.996 117.176 334.366C116.535 334.736 116.533 335.932 117.171 337.037C117.809 338.142 118.845 338.737 119.486 338.367Z" fill="#757B89"/>
<path d="M125.484 341.834C126.125 341.464 126.128 340.268 125.49 339.163C124.852 338.059 123.815 337.463 123.174 337.833C122.533 338.203 122.531 339.399 123.169 340.503C123.807 341.608 124.843 342.204 125.484 341.834Z" fill="#757B89"/>
<path d="M88.8173 321.831L72.3373 312.321C71.7616 311.909 71.2907 311.368 70.9624 310.741C70.6341 310.114 70.4577 309.418 70.4473 308.711C70.4473 307.311 71.2873 306.711 72.3373 307.281L88.8173 316.791C89.3937 317.204 89.865 317.747 90.1933 318.376C90.5216 319.004 90.6976 319.701 90.7073 320.411C90.7073 321.801 89.8673 322.441 88.8173 321.831Z" fill="#757B89"/>
<path d="M462.266 196.151L446.936 205.001C445.936 205.561 445.176 205.001 445.176 203.671C445.187 203.014 445.351 202.368 445.657 201.786C445.963 201.204 446.401 200.702 446.936 200.321L462.266 191.471C463.266 190.911 464.016 191.471 464.016 192.801C464.007 193.457 463.844 194.102 463.54 194.684C463.236 195.266 462.8 195.768 462.266 196.151Z" fill="#757B89"/>
<path d="M438.787 209.71L423.457 218.56C422.457 219.12 421.697 218.56 421.697 217.23C421.708 216.572 421.873 215.925 422.178 215.342C422.484 214.758 422.922 214.254 423.457 213.87L438.787 205C439.787 204.44 440.537 205 440.537 206.33C440.532 206.992 440.371 207.643 440.067 208.23C439.763 208.817 439.324 209.325 438.787 209.71Z" fill="#757B89"/>
<path d="M147.576 346.761L22.9162 274.761C12.3562 268.661 13.6862 258.011 25.9162 250.971L326.996 77.1406C339.196 70.1406 357.636 69.3406 368.196 75.4306L492.856 147.431C503.416 153.521 502.096 164.171 489.856 171.211L188.776 345.051C176.576 352.091 158.136 352.861 147.576 346.761Z" fill="#20232D"/>
<path d="M479.487 150.281L430.817 122.181L430.697 122.251C424.947 125.571 415.627 125.571 409.877 122.251C404.127 118.931 404.127 113.541 409.877 110.251L409.997 110.191L361.327 82.0907C353.937 77.8207 341.947 77.8207 334.557 82.0907L41.2671 251.391C33.8771 255.651 33.8771 262.571 41.2671 266.841L159.417 335.061C166.817 339.331 178.797 339.331 186.187 335.061L479.487 165.731C486.877 161.461 486.877 154.541 479.487 150.281Z" fill="white"/>
<path opacity="0.5" d="M479.486 165.73L186.196 335.06C179.516 338.92 169.066 339.28 161.666 336.16C160.899 335.844 160.154 335.477 159.436 335.06L41.2762 266.84C39.6426 265.964 38.225 264.734 37.1262 263.24C34.3362 259.24 35.7162 254.59 41.2762 251.39L334.556 82.0505C341.946 77.7905 353.926 77.7905 361.326 82.0505L409.996 110.16L409.876 110.23C404.126 113.55 404.126 118.92 409.876 122.23C415.626 125.54 424.956 125.56 430.696 122.23L430.806 122.17L479.486 150.27C486.876 154.55 486.876 161.46 479.486 165.73Z" fill="url(#paint0_linear_459_19396)"/>
<path d="M417.086 121.311C420.173 121.311 422.676 119.864 422.676 118.081C422.676 116.297 420.173 114.851 417.086 114.851C413.999 114.851 411.496 116.297 411.496 118.081C411.496 119.864 413.999 121.311 417.086 121.311Z" fill="#2B303F"/>
<path opacity="0.1" d="M415.437 119.001C415.229 118.94 415.047 118.814 414.917 118.641C414.787 118.467 414.717 118.257 414.717 118.041C414.717 117.824 414.787 117.614 414.917 117.441C415.047 117.267 415.229 117.141 415.437 117.081C415.951 116.824 416.517 116.691 417.092 116.691C417.666 116.691 418.233 116.824 418.747 117.081C418.955 117.141 419.137 117.267 419.267 117.441C419.397 117.614 419.467 117.824 419.467 118.041C419.467 118.257 419.397 118.467 419.267 118.641C419.137 118.814 418.955 118.94 418.747 119.001C418.233 119.257 417.666 119.39 417.092 119.39C416.517 119.39 415.951 119.257 415.437 119.001Z" fill="white"/>
<path d="M248.926 273.72L144.616 213.5C138.556 210 139.316 203.89 146.316 199.84L216.476 159.33C223.476 155.33 234.076 154.85 240.136 158.33L344.446 218.55C350.506 222.06 349.746 228.17 342.746 232.21L272.576 272.72C265.576 276.79 254.996 277.22 248.926 273.72Z" fill="#E9EAF2"/>
<path d="M437.128 141.351L435.018 140.131L438.548 138.091L440.658 139.311L437.128 141.351Z" fill="#E9EAF2"/>
<path d="M439.956 142.98L437.836 141.76L442.776 138.91L444.896 140.13L439.956 142.98Z" fill="#E9EAF2"/>
<path d="M442.776 144.611L440.656 143.391L447.716 139.311L449.836 140.531L442.776 144.611Z" fill="#E9EAF2"/>
<path d="M435.409 178.07L422.919 185.33L303.279 116.26L315.779 109L435.409 178.07Z" fill="#CBDFE1"/>
<path d="M244.48 289.03L231.98 296.29L112.35 227.22L124.84 219.96L244.48 289.03Z" fill="#CBDFE1"/>
<path d="M222.31 301.91L209.81 309.18L90.1699 240.11L102.67 232.84L222.31 301.91Z" fill="#CBDFE1"/>
<path d="M200.14 314.8L187.64 322.06L68 252.99L80.5 245.72L200.14 314.8Z" fill="#CBDFE1"/>
<path d="M391.079 203.84L378.569 211.1L258.939 142.03L271.439 134.76L391.079 203.84Z" fill="#CBDFE1"/>
<path d="M413.249 190.95L400.739 198.22L281.109 129.15L293.609 121.88L413.249 190.95Z" fill="#CBDFE1"/>
<path d="M445.596 146.241L443.486 145.021L453.366 139.311L455.486 140.531L445.596 146.241Z" fill="#E9EAF2"/>
<path d="M454.776 151.541L451.486 149.641L458.066 145.831L461.366 147.731L454.776 151.541Z" fill="#E9EAF2"/>
<path d="M459.167 154.07L455.877 152.17L462.467 148.37L465.757 150.27L459.167 154.07Z" fill="#E9EAF2"/>
<path d="M463.558 156.61L460.268 154.71L466.858 150.9L470.148 152.81L463.558 156.61Z" fill="#E9EAF2"/>
<path d="M304.316 61.0605L201.136 1.49047C198.336 -0.119526 195.796 -0.379526 193.856 0.490474C193.588 0.611915 193.331 0.755757 193.086 0.920474L182.316 6.92047L190.156 17.9205V95.7805C190.156 102.78 195.076 111.3 201.156 114.78L241.576 138.11L246.496 150.8L241.336 173.25L252.746 166.91L263.896 151L298.896 171.22L300.126 181.71L311.426 175.41C313.776 174.41 315.276 171.86 315.276 168V80.0805C315.296 73.0805 310.386 64.5605 304.316 61.0605Z" fill="#EDEEF7"/>
<path d="M292.907 67.4004L189.727 7.83038C183.667 4.33038 178.727 7.17038 178.727 14.1704V102.17C178.727 109.17 183.647 117.69 189.727 121.17L230.147 144.5L241.317 173.3L252.487 157.4L292.907 180.74C298.977 184.24 303.907 181.4 303.907 174.4V86.4204C303.887 79.4204 298.997 70.9004 292.907 67.4004Z" fill="#F8F9FF"/>
<path d="M242.506 63.0185C226.204 53.6352 213 61.2448 213 80.0115C213 98.7782 226.262 121.596 242.506 130.979C258.75 140.362 272 132.764 272 113.998C272 95.2309 258.796 72.4019 242.506 63.0185ZM237.091 111.343L224.093 88.8914L228.43 86.4082L237.091 101.364L256.593 90.1387L260.93 97.6225L237.091 111.343Z" fill="#6AC259"/>
<path d="M338 72.5445C338 53.6478 324.6 30.5128 308.101 21.0374C299.294 15.9893 291.412 15.8543 285.948 19.6337L276 25.2217L280.24 26.8954C278.783 30.4875 278.071 34.3346 278.147 38.2065C278.147 57.1032 291.548 80.2112 308.046 89.7136C310.591 91.2135 313.336 92.3495 316.201 93.088V99L329.03 91.8192C334.684 88.6068 338 81.9659 338 72.5445Z" fill="#DD990E"/>
<path d="M318 97.8802C329.594 91.1866 329.589 69.4724 317.988 49.3802C306.388 29.288 287.586 18.4263 275.992 25.1199C264.399 31.8135 264.404 53.5277 276.004 73.6199C287.604 93.7121 306.407 104.574 318 97.8802Z" fill="#F9CB07"/>
<path d="M288.262 52.207C289.912 51.2539 289.911 48.1605 288.258 45.2975C286.605 42.4346 283.927 40.8863 282.276 41.8393C280.625 42.7924 280.627 45.8858 282.28 48.7488C283.933 51.6117 286.611 53.16 288.262 52.207Z" fill="#CC8B09"/>
<path d="M311.291 65.4711C312.942 64.5181 312.94 61.4246 311.287 58.5617C309.634 55.6987 306.956 54.1504 305.305 55.1035C303.655 56.0565 303.656 59.15 305.309 62.0129C306.962 64.8759 309.64 66.4242 311.291 65.4711Z" fill="#CC8B09"/>
<path d="M285 65C285 65 288.866 75.7148 296.651 80.2563C304.436 84.7979 309 79.0326 309 79.0326L285 65Z" fill="#CC8B09"/>
<defs>
<linearGradient id="paint0_linear_459_19396" x1="260.376" y1="338.26" x2="260.376" y2="78.8605" gradientUnits="userSpaceOnUse">
<stop offset="0.21" stop-color="white" stop-opacity="0"/>
<stop offset="1" stop-color="white" stop-opacity="0.2"/>
</linearGradient>
</defs>
</svg>
